<?xml version="1.0" standalone="no"?>
<!DOCTYPE svg PUBLIC "-//W3C//DTD SVG 1.1//EN" "http://www.w3.org/Graphics/SVG/1.1/DTD/svg11.dtd" >
<svg xmlns="http://www.w3.org/2000/svg" xmlns:xlink="http://www.w3.org/1999/xlink" version="1.1">
<metadata>
Created by FontForge 20170731 at Fri Oct 21 20:40:16 2016
 By Aleksey,,,
Copyright (c) 2016 by Alberto Romanos. All rights reserved.
</metadata>
<defs>
<font id="BwModelica-ExtraBold" horiz-adv-x="615" >
  <font-face 
    font-family="Bw Modelica ExtraBold"
    font-weight="800"
    font-stretch="normal"
    units-per-em="1000"
    panose-1="0 0 9 0 0 0 0 0 0 0"
    ascent="780"
    descent="-220"
    x-height="545"
    cap-height="740"
    bbox="-884 -230 1323 1020"
    underline-thickness="50"
    underline-position="-200"
    unicode-range="U+000D-FB02"
  />
<missing-glyph horiz-adv-x="1274" 
d="M88 -10q-17 0 -17 18q0 10 5 15l342 341h-324q-23 0 -23 19q0 7 7 16l340 342h-327q-20 0 -20 19v1q0 19 20 19h370q23 0 23 -20q0 -10 -8 -17l-341 -340h330q8 0 14 -6t6 -14v-327l339 338q7 8 17 8q18 0 18 -22v-324l340 338q6 8 16 8q7 0 12 -5.5t5 -13.5q0 -9 -6 -14
l-368 -372q-7 -7 -17 -7q-20 0 -20 23v324l-339 -340q-7 -7 -17 -7q-20 0 -20 23v324l-340 -340q-7 -7 -17 -7z" />
    <glyph glyph-name="fi" unicode="fi" horiz-adv-x="718" 
d="M571 608q-43 0 -71 27.5t-28 70.5t28 70.5t71 27.5t70.5 -27.5t27.5 -70.5t-27.5 -70.5t-70.5 -27.5zM113 609q0 82 51 131.5t134 49.5q77 0 125 -22l-11 -132q-24 9 -58 9q-32 0 -51.5 -17t-19.5 -45v-38h123v-139h-123v-406h-170v406h-85v139h85v64zM485 0v545h170
v-545h-170z" />
    <glyph glyph-name="fl" unicode="fl" horiz-adv-x="718" 
d="M113 609q0 82 51 131.5t134 49.5q77 0 125 -22l-11 -132q-24 9 -58 9q-32 0 -51.5 -17t-19.5 -45v-38h123v-139h-123v-406h-170v406h-85v139h85v64zM486 780h170v-780h-170v780z" />
    <glyph glyph-name=".notdef" horiz-adv-x="1274" 
d="M88 -10q-17 0 -17 18q0 10 5 15l342 341h-324q-23 0 -23 19q0 7 7 16l340 342h-327q-20 0 -20 19v1q0 19 20 19h370q23 0 23 -20q0 -10 -8 -17l-341 -340h330q8 0 14 -6t6 -14v-327l339 338q7 8 17 8q18 0 18 -22v-324l340 338q6 8 16 8q7 0 12 -5.5t5 -13.5q0 -9 -6 -14
l-368 -372q-7 -7 -17 -7q-20 0 -20 23v324l-339 -340q-7 -7 -17 -7q-20 0 -20 23v324l-340 -340q-7 -7 -17 -7z" />
    <glyph glyph-name=".null" horiz-adv-x="0" 
 />
    <glyph glyph-name="nonmarkingreturn" horiz-adv-x="333" 
 />
    <glyph glyph-name="CR" unicode="&#xd;" horiz-adv-x="203" 
 />
    <glyph glyph-name="space" unicode=" " horiz-adv-x="238" 
 />
    <glyph glyph-name="exclam" unicode="!" horiz-adv-x="307" 
d="M81 245l-16 495h177l-16 -495h-145zM154 -10q-43 0 -71 28t-28 71t28 70.5t71 27.5t70.5 -27.5t27.5 -70.5t-27.5 -71t-70.5 -28z" />
    <glyph glyph-name="quotedbl" unicode="&#x22;" horiz-adv-x="443" 
d="M56 564l-3 216h134l-4 -216h-127zM260 564l-4 216h134l-3 -216h-127z" />
    <glyph glyph-name="numbersign" unicode="#" horiz-adv-x="775" 
d="M717 413h-123l-31 -130h125l-27 -110h-123l-40 -173h-121l40 173h-143l-40 -173h-121l40 173h-121l27 110h119l31 130h-121l25 110h121l41 177h121l-41 -177h143l41 177h121l-41 -177h123zM442 283l31 130h-143l-31 -130h143z" />
    <glyph glyph-name="dollar" unicode="$" horiz-adv-x="665" 
d="M625 218q0 -83 -54.5 -141t-149.5 -78v-89h-176v88q-110 20 -189 88l66 118q89 -69 199 -69q123 0 123 66q0 33 -32.5 52t-103.5 38l-38 10q-109 29 -166.5 77.5t-57.5 135.5t53.5 147t146.5 80v89h176v-89q93 -19 169 -76l-77 -122q-83 62 -180 62q-49 0 -78 -17
t-29 -45q0 -31 30 -48.5t92 -33.5l38 -11q238 -64 238 -232z" />
    <glyph glyph-name="percent" unicode="%" horiz-adv-x="912" 
d="M231 403q-89 0 -144 47.5t-55 126.5q0 78 55 125.5t144 47.5t143.5 -47.5t54.5 -125.5q0 -79 -54.5 -126.5t-143.5 -47.5zM291 -10l-88 54l414 706l88 -53zM231 511q27 0 44 18t17 48t-17 47.5t-44 17.5q-28 0 -45 -17.5t-17 -47.5t17 -48t45 -18zM683 -10
q-89 0 -144 47.5t-55 126.5q0 78 55 125.5t144 47.5t143.5 -47.5t54.5 -125.5q0 -79 -54.5 -126.5t-143.5 -47.5zM683 98q27 0 44 18t17 48t-17 47.5t-44 17.5q-29 0 -46 -17.5t-17 -47.5t17 -48t46 -18z" />
    <glyph glyph-name="ampersand" unicode="&#x26;" horiz-adv-x="776" 
d="M647 136q45 0 87 17v-136q-63 -27 -143 -27q-96 0 -145 70q-70 -70 -175 -70q-102 0 -166 60t-64 157q0 65 34.5 115t95.5 79q-91 54 -91 154q0 88 70 141.5t185 53.5q112 0 181 -55.5t69 -144.5v-86h141v-133h-142v-123q0 -32 17.5 -52t45.5 -20zM335 605
q-36 0 -57.5 -19t-21.5 -50q0 -32 21.5 -52t57.5 -20h80v69q0 32 -22 52t-58 20zM313 136q45 0 73 24.5t28 78.5v92h-80q-53 0 -85 -27.5t-32 -71.5q0 -43 26.5 -69.5t69.5 -26.5z" />
    <glyph glyph-name="quotesingle" unicode="'" horiz-adv-x="239" 
d="M56 564l-3 216h134l-4 -216h-127z" />
    <glyph glyph-name="parenleft" unicode="(" horiz-adv-x="360" 
d="M186 -180q-148 230 -148 480t148 480h158q-130 -228 -130 -480t130 -480h-158z" />
    <glyph glyph-name="parenright" unicode=")" horiz-adv-x="360" 
d="M16 -180q131 229 131 480t-131 480h158q148 -230 148 -480t-148 -480h-158z" />
    <glyph glyph-name="asterisk" unicode="*" horiz-adv-x="396" 
d="M354 589l-75 -22l48 -62l-84 -61l-45 65l-44 -65l-84 61l48 62l-75 22l32 99l74 -27l-3 79h104l-2 -79l74 27z" />
    <glyph glyph-name="plus" unicode="+" horiz-adv-x="573" 
d="M535 422v-139h-163v-171h-170v171h-163v139h163v171h170v-171h163z" />
    <glyph glyph-name="comma" unicode="," horiz-adv-x="319" 
d="M6 -145l71 300h194l-94 -300h-171z" />
    <glyph glyph-name="hyphen" unicode="-" horiz-adv-x="503" 
d="M58 231v121h387v-121h-387z" />
    <glyph glyph-name="period" unicode="." horiz-adv-x="296" 
d="M148 -10q-44 0 -75.5 32t-31.5 76t31.5 75.5t75.5 31.5t75.5 -31.5t31.5 -75.5t-31.5 -76t-75.5 -32z" />
    <glyph glyph-name="slash" unicode="/" horiz-adv-x="478" 
d="M34 -100l239 880h171l-239 -880h-171z" />
    <glyph glyph-name="zero" unicode="0" horiz-adv-x="657" 
d="M329 -10q-132 0 -212.5 104.5t-80.5 275.5t80.5 275.5t212.5 104.5q131 0 211.5 -104.5t80.5 -275.5t-80.5 -275.5t-211.5 -104.5zM329 135q50 0 80.5 64.5t30.5 170.5t-30.5 170.5t-80.5 64.5t-80.5 -64.5t-30.5 -170.5t30.5 -170.5t80.5 -64.5z" />
    <glyph glyph-name="one" unicode="1" horiz-adv-x="466" 
d="M212 0v516l-123 -85l-87 124l251 185h134v-740h-175z" />
    <glyph glyph-name="two" unicode="2" horiz-adv-x="608" 
d="M39 0v110l232 252q79 87 97 136q7 20 7 37q0 31 -19.5 50.5t-50.5 19.5q-36 0 -57.5 -25.5t-21.5 -66.5l-178 16q0 100 69.5 160.5t183.5 60.5t183 -55t69 -146q0 -67 -39.5 -130.5t-126.5 -152.5l-120 -124l294 3v-145h-522z" />
    <glyph glyph-name="three" unicode="3" horiz-adv-x="592" 
d="M345 460q95 -9 151 -70t56 -155q0 -111 -79.5 -178t-215.5 -67q-68 0 -130.5 18.5t-100.5 50.5l66 128q55 -52 146 -52q61 0 97 27t36 71t-32.5 69.5t-87.5 25.5q-50 0 -94 -23l-47 88l172 202h-219v145h444v-108z" />
    <glyph glyph-name="four" unicode="4" horiz-adv-x="660" 
d="M351 0v134h-330v120l370 486h135v-461h98v-145h-98v-134h-175zM190 274h166l2 221z" />
    <glyph glyph-name="five" unicode="5" horiz-adv-x="604" 
d="M248 -10q-146 0 -228 64l52 126q63 -45 160 -45q68 0 109 31t41 82q0 40 -25.5 64t-67.5 24q-68 0 -94 -40l-117 16l51 428h396v-145h-245l-18 -121q21 7 58 7q107 0 175.5 -61t68.5 -159q0 -122 -88 -196.5t-228 -74.5z" />
    <glyph glyph-name="six" unicode="6" horiz-adv-x="603" 
d="M344 456q96 0 163.5 -63.5t67.5 -162.5q0 -107 -74 -173.5t-194 -66.5q-122 0 -196 65.5t-74 172.5q0 67 22.5 122t69.5 121l197 269h196l-219 -285q13 1 41 1zM306 135q39 0 63 25.5t24 68.5q0 42 -24 68t-63 26q-40 0 -64 -26t-24 -68q0 -43 24 -68.5t64 -25.5z" />
    <glyph glyph-name="seven" unicode="7" horiz-adv-x="556" 
d="M23 740h518l-241 -740h-186l202 595h-293v145z" />
    <glyph glyph-name="eight" unicode="8" horiz-adv-x="626" 
d="M470 386q53 -27 82.5 -72t29.5 -102q0 -100 -74 -161t-195 -61t-195 60.5t-74 158.5q0 118 112 176q-92 54 -92 156q0 94 68.5 151.5t180.5 57.5t180.5 -56.5t68.5 -150.5q0 -103 -92 -157zM312 605q-30 0 -48.5 -20.5t-18.5 -54.5t18.5 -54t48.5 -20q31 0 49.5 20
t18.5 54t-18.5 54.5t-49.5 20.5zM312 135q40 0 64 24t24 64q0 39 -24 63.5t-64 24.5q-39 0 -63 -24.5t-24 -63.5q0 -40 24 -64t63 -24z" />
    <glyph glyph-name="nine" unicode="9" horiz-adv-x="603" 
d="M296 750q122 0 196 -65.5t74 -172.5q0 -67 -22.5 -122t-69.5 -121l-197 -269h-196l219 285q-13 -1 -41 -1q-96 0 -163.5 63.5t-67.5 162.5q0 107 74 173.5t194 66.5zM210 511q0 -42 24 -68t63 -26q40 0 64 26t24 68q0 43 -24 68.5t-64 25.5q-39 0 -63 -25.5t-24 -68.5z
" />
    <glyph glyph-name="colon" unicode=":" horiz-adv-x="314" 
d="M158 341q-44 0 -76 31.5t-32 75.5t32 75.5t76 31.5t75 -31.5t31 -75.5t-31 -75.5t-75 -31.5zM158 -10q-44 0 -76 32t-32 76t32 75.5t76 31.5t75 -31.5t31 -75.5t-31 -76t-75 -32z" />
    <glyph glyph-name="semicolon" unicode=";" horiz-adv-x="337" 
d="M176 341q-44 0 -76 31.5t-32 75.5t32 75.5t76 31.5t75 -31.5t31 -75.5t-31 -75.5t-75 -31.5zM14 -145l70 300h195l-94 -300h-171z" />
    <glyph glyph-name="less" unicode="&#x3c;" horiz-adv-x="601" 
d="M532 623v-159l-287 -114l287 -114v-158l-497 217v110z" />
    <glyph glyph-name="equal" unicode="=" horiz-adv-x="618" 
d="M61 390v140h496v-140h-496zM61 175v140h496v-140h-496z" />
    <glyph glyph-name="greater" unicode="&#x3e;" horiz-adv-x="601" 
d="M68 623l498 -218v-110l-498 -217v158l288 114l-288 114v159z" />
    <glyph glyph-name="question" unicode="?" horiz-adv-x="565" 
d="M205 245q0 57 17 103.5t34 67t46 47.5q48 44 48 75q0 30 -21 48.5t-55 18.5q-32 0 -54 -18.5t-27 -48.5l-162 7q5 93 72 149t171 56q116 0 186.5 -55.5t70.5 -147.5q0 -36 -15 -66.5t-30.5 -46t-45.5 -41.5q-29 -25 -44.5 -40.5t-30.5 -45t-15 -62.5h-145zM278 -10
q-43 0 -71 28t-28 71t28 70.5t71 27.5t70.5 -27.5t27.5 -70.5t-27.5 -71t-70.5 -28z" />
    <glyph glyph-name="at" unicode="@" horiz-adv-x="1155" 
d="M650 485h163v-253q0 -23 13 -37.5t35 -14.5q36 0 58 42t22 104q0 128 -93.5 203t-248.5 75q-175 0 -279 -94.5t-104 -250.5t103 -250t280 -94q140 0 274 33l49 -133q-151 -45 -331 -45q-251 0 -401 135t-150 356q0 222 152.5 355.5t406.5 133.5q232 0 372 -111.5
t140 -300.5q0 -133 -68 -218.5t-178 -85.5q-117 0 -169 90q-52 -89 -160 -89q-92 0 -154 63.5t-62 163.5q0 102 61.5 166.5t149.5 64.5q73 0 117 -50zM569 180q34 0 54 23t20 60q0 38 -20 61t-54 23q-33 0 -53 -23t-20 -61q0 -37 20 -60t53 -23z" />
    <glyph glyph-name="A" unicode="A" horiz-adv-x="774" 
d="M592 0l-48 123h-313l-49 -123h-188l312 740h163l310 -740h-187zM288 268h199l-99 254z" />
    <glyph glyph-name="B" unicode="B" horiz-adv-x="721" 
d="M554 395q62 -23 97 -69t35 -106q0 -99 -73.5 -159.5t-194.5 -60.5h-337v740h339q101 0 162 -54.5t61 -143.5q0 -92 -89 -147zM257 595v-142h120q38 0 61.5 19.5t23.5 51.5t-22.5 51.5t-59.5 19.5h-123zM408 145q43 0 70 22.5t27 59.5q0 36 -26.5 58.5t-68.5 22.5h-153
v-163h151z" />
    <glyph glyph-name="C" unicode="C" horiz-adv-x="774" 
d="M441 -10q-180 0 -291.5 105.5t-111.5 277.5q0 170 110.5 273.5t291.5 103.5q189 0 298 -118l-110 -113q-28 40 -77.5 63t-109.5 23q-100 0 -160.5 -64.5t-60.5 -169.5q0 -106 62 -171t163 -65q128 0 200 112l118 -106q-113 -151 -322 -151z" />
    <glyph glyph-name="D" unicode="D" horiz-adv-x="800" 
d="M393 740q166 0 267 -101.5t101 -267.5q0 -167 -101 -269t-267 -102h-312v740h312zM396 145q82 0 132.5 62.5t50.5 163.5t-50 162.5t-133 61.5h-139v-450h139z" />
    <glyph glyph-name="E" unicode="E" horiz-adv-x="664" 
d="M257 145h359v-145h-535v740h527v-145h-351v-148h316v-145h-316v-157z" />
    <glyph glyph-name="F" unicode="F" horiz-adv-x="607" 
d="M574 595h-317v-168h266v-145h-266v-282h-176v740h493v-145z" />
    <glyph glyph-name="G" unicode="G" horiz-adv-x="826" 
d="M801 430q2 -40 2 -60q0 -171 -101.5 -275.5t-271.5 -104.5q-176 0 -283.5 104.5t-107.5 275.5t107 275.5t284 104.5q166 0 270 -84l-115 -110q-49 49 -153 49q-95 0 -153.5 -64.5t-58.5 -170.5t58 -170.5t153 -64.5q77 0 127 40.5t61 109.5h-167v145h349z" />
    <glyph glyph-name="H" unicode="H" horiz-adv-x="876" 
d="M620 740h175v-740h-175v305h-363v-305h-176v740h176v-290h363v290z" />
    <glyph glyph-name="I" unicode="I" horiz-adv-x="338" 
d="M81 0v740h176v-740h-176z" />
    <glyph glyph-name="J" unicode="J" horiz-adv-x="437" 
d="M154 -10q-97 0 -153 62l47 117q30 -34 71 -34q31 0 48.5 17.5t17.5 47.5v540h175v-571q0 -80 -57.5 -129.5t-148.5 -49.5z" />
    <glyph glyph-name="K" unicode="K" horiz-adv-x="722" 
d="M523 0l-234 305h-32v-305h-176v740h176v-290h28l223 290h210l-284 -360l299 -380h-210z" />
    <glyph glyph-name="L" unicode="L" horiz-adv-x="587" 
d="M257 145h314v-145h-490v740h176v-595z" />
    <glyph glyph-name="M" unicode="M" horiz-adv-x="1006" 
d="M949 0h-175l-26 449l-198 -449h-94l-197 447l-26 -447h-176l53 742h195l198 -452l198 452h196z" />
    <glyph glyph-name="N" unicode="N" horiz-adv-x="883" 
d="M81 0v740h109l440 -443l-4 443h176v-740h-108l-441 444l4 -444h-176z" />
    <glyph glyph-name="O" unicode="O" horiz-adv-x="873" 
d="M438 -10q-180 0 -290 104.5t-110 275.5t110 275.5t290 104.5q178 0 287.5 -104.5t109.5 -275.5t-109.5 -275.5t-287.5 -104.5zM438 135q97 0 156.5 64.5t59.5 170.5t-59.5 170.5t-156.5 64.5q-98 0 -158 -64.5t-60 -170.5t60 -170.5t158 -64.5z" />
    <glyph glyph-name="P" unicode="P" horiz-adv-x="690" 
d="M398 740q121 0 194.5 -67.5t73.5 -178.5q0 -116 -76 -187.5t-201 -71.5h-132v-235h-176v740h317zM379 380q50 0 78 29t28 79q0 48 -29 77.5t-77 29.5h-122v-215h122z" />
    <glyph glyph-name="Q" unicode="Q" horiz-adv-x="873" 
d="M861 0h-207l-24 30q-86 -40 -192 -40q-180 0 -290 104.5t-110 275.5t110 275.5t290 104.5q178 0 287.5 -104.5t109.5 -275.5q0 -145 -81 -245zM438 135q50 0 91 18l-113 137h197l22 -26q19 49 19 106q0 106 -59.5 170.5t-156.5 64.5q-98 0 -158 -64.5t-60 -170.5
t60 -170.5t158 -64.5z" />
    <glyph glyph-name="R" unicode="R" horiz-adv-x="748" 
d="M531 0l-156 256h-118v-256h-176v740h330q119 0 192 -66.5t73 -175.5q0 -69 -33.5 -122.5t-93.5 -84.5l188 -291h-206zM257 595v-194h119q53 0 86 27t33 70q0 44 -28.5 70.5t-74.5 26.5h-135z" />
    <glyph glyph-name="S" unicode="S" horiz-adv-x="665" 
d="M331 -10q-164 0 -275 96l66 118q89 -69 199 -69q123 0 123 66q0 33 -32.5 52t-103.5 38l-38 10q-109 29 -166.5 77.5t-57.5 135.5q0 106 78.5 171t207.5 65q147 0 259 -85l-77 -122q-83 62 -180 62q-49 0 -78 -17t-29 -45q0 -31 30 -48.5t92 -33.5l38 -11
q238 -64 238 -232q0 -103 -81 -165.5t-213 -62.5z" />
    <glyph glyph-name="T" unicode="T" horiz-adv-x="644" 
d="M629 740v-145h-219v-595h-176v595h-219v145h614z" />
    <glyph glyph-name="U" unicode="U" horiz-adv-x="814" 
d="M408 -10q-151 0 -243 82t-92 217v451h175v-444q0 -72 44 -116.5t116 -44.5q71 0 114.5 44.5t43.5 116.5v444h175v-451q0 -135 -91.5 -217t-241.5 -82z" />
    <glyph glyph-name="V" unicode="V" horiz-adv-x="775" 
d="M306 0l-311 740h187l206 -520l204 520h187l-310 -740h-163z" />
    <glyph glyph-name="W" unicode="W" horiz-adv-x="1156" 
d="M969 740h187l-250 -740h-163l-165 496l-164 -496h-163l-251 740h187l154 -505l156 505h162l157 -505z" />
    <glyph glyph-name="X" unicode="X" horiz-adv-x="710" 
d="M718 0h-202l-161 246l-159 -246h-203l265 384l-248 356h202l143 -218l142 218h202l-247 -355z" />
    <glyph glyph-name="Y" unicode="Y" horiz-adv-x="711" 
d="M517 740h186l-260 -481v-259h-175v259l-260 481h188l161 -326z" />
    <glyph glyph-name="Z" unicode="Z" horiz-adv-x="689" 
d="M278 145h375v-145h-616v109l364 486h-358v145h600v-108z" />
    <glyph glyph-name="bracketleft" unicode="[" horiz-adv-x="412" 
d="M74 -180v960h307v-145h-131v-670h131v-145h-307z" />
    <glyph glyph-name="backslash" unicode="\" horiz-adv-x="478" 
d="M273 -100l-239 880h171l239 -880h-171z" />
    <glyph glyph-name="bracketright" unicode="]" horiz-adv-x="412" 
d="M338 -180h-307v145h131v670h-131v145h307v-960z" />
    <glyph glyph-name="asciicircum" unicode="^" horiz-adv-x="583" 
d="M544 306h-164l-88 176l-89 -176h-164l171 339h164z" />
    <glyph glyph-name="underscore" unicode="_" horiz-adv-x="626" 
d="M25 -121v121h576v-121h-576z" />
    <glyph glyph-name="grave" unicode="`" horiz-adv-x="600" 
d="M164 618l-191 167h197l138 -167h-144z" />
    <glyph glyph-name="a" unicode="a" horiz-adv-x="589" 
d="M292 555q108 0 174.5 -58.5t66.5 -154.5v-342h-164l-2 62q-55 -72 -148 -72q-87 0 -140 48t-53 127q0 80 65 129t171 49q51 0 101 -10q-3 89 -115 89q-66 0 -116 -35l-72 100q94 68 232 68zM268 111q40 0 67 29.5t28 78.5q-45 8 -79 8q-37 0 -59.5 -16.5t-22.5 -42.5
q0 -57 66 -57z" />
    <glyph glyph-name="b" unicode="b" horiz-adv-x="688" 
d="M394 555q110 0 185 -80t75 -205q0 -124 -75 -202t-185 -78q-107 0 -165 77l-3 -67h-164v780h170v-299q58 74 162 74zM356 136q55 0 89 37.5t34 98.5t-34 99.5t-89 38.5t-89.5 -38t-34.5 -99q0 -62 34 -99.5t90 -37.5z" />
    <glyph glyph-name="c" unicode="c" horiz-adv-x="554" 
d="M330 -10q-134 0 -215.5 78t-81.5 205t82.5 204.5t218.5 77.5q108 0 191 -65l-96 -115q-38 35 -92 35q-58 0 -92.5 -37.5t-34.5 -99.5t34.5 -99.5t92.5 -37.5q72 0 110 44l96 -113q-78 -77 -213 -77z" />
    <glyph glyph-name="d" unicode="d" horiz-adv-x="687" 
d="M455 780h170v-780h-163l-3 67q-58 -77 -166 -77q-110 0 -185 78t-75 202q0 125 75 205t185 80q103 0 162 -73v298zM332 136q56 0 89.5 37.5t33.5 99.5q0 61 -34 99t-89 38t-89 -38t-34 -100q0 -61 34 -98.5t89 -37.5z" />
    <glyph glyph-name="e" unicode="e" horiz-adv-x="623" 
d="M592 281q0 -30 -4 -68h-374q16 -90 105 -90q68 0 110 50l132 -64q-36 -55 -99 -87t-141 -32q-129 0 -208 76t-79 201q0 129 76.5 208.5t202.5 79.5q125 0 202 -75t77 -199zM313 422q-81 0 -98 -95h199q-17 95 -101 95z" />
    <glyph glyph-name="f" unicode="f" horiz-adv-x="423" 
d="M354 645q-32 0 -51.5 -17t-19.5 -45v-38h123v-139h-123v-406h-170v406h-85v139h85v64q0 82 51 131.5t134 49.5q77 0 125 -22l-11 -132q-24 9 -58 9z" />
    <glyph glyph-name="g" unicode="g" horiz-adv-x="687" 
d="M463 545h163v-488q0 -130 -91.5 -208.5t-242.5 -78.5t-244 67l37 133q83 -55 203 -55q76 0 122 39.5t46 103.5v5q-59 -73 -162 -73q-110 0 -185 80t-75 205q0 124 75 202t185 78q108 0 166 -77zM333 136q55 0 89 37.5t34 99.5t-34 99.5t-89 37.5t-89 -37.5t-34 -98.5
q0 -62 34 -100t89 -38z" />
    <glyph glyph-name="h" unicode="h" horiz-adv-x="665" 
d="M396 555q96 0 154.5 -58.5t58.5 -154.5v-342h-170v316q0 43 -28 68.5t-75 25.5t-75.5 -25.5t-28.5 -68.5v-316h-170v780h170v-292q63 67 164 67z" />
    <glyph glyph-name="i" unicode="i" horiz-adv-x="295" 
d="M148 608q-43 0 -71 27.5t-28 70.5t28 70.5t71 27.5t70.5 -27.5t27.5 -70.5t-27.5 -70.5t-70.5 -27.5zM62 0v545h170v-545h-170z" />
    <glyph glyph-name="j" unicode="j" horiz-adv-x="299" 
d="M150 608q-43 0 -70.5 27.5t-27.5 70.5t27.5 70.5t70.5 27.5t70.5 -27.5t27.5 -70.5t-27.5 -70.5t-70.5 -27.5zM54 -230q-67 0 -113 17l12 134q24 -6 49 -6q29 0 47 20t18 53v557h170v-597q0 -80 -50 -129t-133 -49z" />
    <glyph glyph-name="k" unicode="k" horiz-adv-x="626" 
d="M425 0l-181 217h-12v-217h-170v780h170v-424h15l166 189h214l-240 -258l253 -287h-215z" />
    <glyph glyph-name="l" unicode="l" horiz-adv-x="295" 
d="M63 0v780h170v-780h-170z" />
    <glyph glyph-name="m" unicode="m" horiz-adv-x="987" 
d="M707 555q100 0 161.5 -58.5t61.5 -154.5v-342h-170v316q0 43 -24.5 68.5t-64.5 25.5q-41 0 -65.5 -25.5t-24.5 -68.5v-316h-170v316q0 43 -24.5 68.5t-64.5 25.5q-41 0 -65.5 -25.5t-24.5 -68.5v-316h-170v545h164l2 -56q57 66 154 66q100 0 155 -71q62 71 170 71z" />
    <glyph glyph-name="n" unicode="n" horiz-adv-x="665" 
d="M396 555q96 0 154.5 -58.5t58.5 -154.5v-342h-170v316q0 43 -28 68.5t-75 25.5t-75.5 -25.5t-28.5 -68.5v-316h-170v545h164l2 -61q64 71 168 71z" />
    <glyph glyph-name="o" unicode="o" horiz-adv-x="663" 
d="M333 -10q-135 0 -217.5 78t-82.5 205t82.5 204.5t217.5 77.5q133 0 215 -77.5t82 -204.5t-82 -205t-215 -78zM332 136q55 0 88.5 38t33.5 99t-33.5 99t-88.5 38t-89 -37.5t-34 -99.5t34 -99.5t89 -37.5z" />
    <glyph glyph-name="p" unicode="p" horiz-adv-x="688" 
d="M394 555q110 0 185 -78t75 -202q0 -125 -75 -205t-185 -80q-104 0 -162 74v-284h-170v765h164l3 -67q58 77 165 77zM356 136q55 0 89 38t34 100q0 61 -34 98.5t-89 37.5q-56 0 -90 -38t-34 -99t34 -99t90 -38z" />
    <glyph glyph-name="q" unicode="q" horiz-adv-x="687" 
d="M462 545h163v-765h-170v283q-59 -73 -162 -73q-110 0 -185 80t-75 205q0 124 75 202t185 78q108 0 166 -77zM332 136q55 0 89 37.5t34 99.5t-34 99.5t-89 37.5t-89 -37.5t-34 -98.5q0 -62 34 -100t89 -38z" />
    <glyph glyph-name="r" unicode="r" horiz-adv-x="428" 
d="M229 479q68 76 191 76l-11 -156q-78 0 -127.5 -33t-49.5 -86v-280h-170v545h164z" />
    <glyph glyph-name="s" unicode="s" horiz-adv-x="532" 
d="M256 -10q-136 0 -217 68l64 103q73 -39 156 -39q62 0 62 35q0 17 -20 27.5t-62 21.5l-39 10q-79 19 -119.5 52.5t-40.5 95.5q0 86 62 138.5t164 52.5q133 0 216 -57l-71 -110q-64 34 -134 34q-64 0 -64 -31q0 -25 71 -44l38 -10q82 -21 127 -60t45 -108q0 -81 -65.5 -130
t-172.5 -49z" />
    <glyph glyph-name="t" unicode="t" horiz-adv-x="454" 
d="M339 136q46 0 87 17v-136q-61 -27 -142 -27q-80 0 -129 50t-49 132v234h-87v139h87v160h170v-160h142v-139h-142v-198q0 -32 17.5 -52t45.5 -20z" />
    <glyph glyph-name="u" unicode="u" horiz-adv-x="641" 
d="M409 545h170v-545h-163l-3 57q-60 -67 -155 -67q-91 0 -146.5 58.5t-55.5 155.5v341h170v-316q0 -42 25 -67.5t67 -25.5q41 0 66 25.5t25 67.5v316z" />
    <glyph glyph-name="v" unicode="v" horiz-adv-x="622" 
d="M227 0l-224 545h185l123 -352l122 352h186l-223 -545h-169z" />
    <glyph glyph-name="w" unicode="w" horiz-adv-x="924" 
d="M733 545h186l-194 -545h-169l-94 320l-94 -320h-169l-194 545h185l105 -352l98 352h138l97 -352z" />
    <glyph glyph-name="x" unicode="x" horiz-adv-x="604" 
d="M605 0h-202l-100 150l-101 -150h-202l202 279l-190 266h203l87 -133l88 133h202l-189 -265z" />
    <glyph glyph-name="y" unicode="y" horiz-adv-x="621" 
d="M162 -230q-55 0 -89 17l17 137q18 -9 44 -9q29 0 46 16t35 50l16 34l-227 530h186l128 -347l117 347h185l-239 -585q-40 -97 -88 -143.5t-131 -46.5z" />
    <glyph glyph-name="z" unicode="z" horiz-adv-x="565" 
d="M39 0v109l238 297h-233v139h474l1 -108l-238 -297h247v-140h-489z" />
    <glyph glyph-name="braceleft" unicode="{" horiz-adv-x="434" 
d="M284 -190q-81 0 -129.5 46t-48.5 122v188q0 28 -19.5 45t-51.5 17h-5v145h5q32 0 51.5 16.5t19.5 44.5v188q0 76 48.5 122t129.5 46q62 0 120 -13v-136q-20 4 -53 4q-31 0 -50.5 -20.5t-19.5 -54.5v-156q0 -42 -24.5 -73t-64.5 -41q40 -10 64.5 -40.5t24.5 -72.5v-156
q0 -34 19 -55t51 -21q33 0 53 4v-136q-58 -13 -120 -13z" />
    <glyph glyph-name="bar" unicode="|" horiz-adv-x="323" 
d="M74 -220v1000h175v-1000h-175z" />
    <glyph glyph-name="braceright" unicode="}" horiz-adv-x="434" 
d="M150 -190q-62 0 -120 13v136q20 -4 53 -4q32 0 51 21t19 55v156q0 42 24.5 72.5t64.5 40.5q-40 10 -64.5 41t-24.5 73v156q0 34 -19.5 54.5t-50.5 20.5q-33 0 -53 -4v136q58 13 120 13q81 0 129.5 -46t48.5 -122v-188q0 -28 19.5 -44.5t51.5 -16.5h5v-145h-5
q-32 0 -51.5 -17t-19.5 -45v-188q0 -76 -48.5 -122t-129.5 -46z" />
    <glyph glyph-name="asciitilde" unicode="~" horiz-adv-x="613" 
d="M412 212q-43 0 -114.5 24.5t-91.5 24.5q-25 0 -39.5 -10.5t-14.5 -28.5h-90q0 71 38.5 114.5t102.5 43.5q46 0 115.5 -23.5t90.5 -23.5q54 0 54 37h90q0 -75 -38 -116.5t-103 -41.5z" />
    <glyph glyph-name="uni00A0" unicode="&#xa0;" horiz-adv-x="238" 
 />
    <glyph glyph-name="exclamdown" unicode="&#xa1;" horiz-adv-x="294" 
d="M147 359q-43 0 -70.5 27.5t-27.5 70.5t27.5 70.5t70.5 27.5t70.5 -27.5t27.5 -70.5t-27.5 -70.5t-70.5 -27.5zM59 -220l16 521h145l15 -521h-176z" />
    <glyph glyph-name="cent" unicode="&#xa2;" horiz-adv-x="591" 
d="M543 117q-50 -48 -125 -67v-90h-159v86q-104 20 -165 94t-61 183q0 107 61 181t165 94v87h159v-91q58 -16 107 -54l-96 -115q-38 35 -92 35q-58 0 -92.5 -37.5t-34.5 -99.5t34.5 -99.5t92.5 -37.5q72 0 110 44z" />
    <glyph glyph-name="sterling" unicode="&#xa3;" horiz-adv-x="639" 
d="M293 139h299v-139h-545v137h70v148h-60v139h60v128q0 89 64.5 143.5t170.5 54.5q105 0 169.5 -55t64.5 -146l-172 -11q0 30 -17 48.5t-45 18.5q-26 0 -42.5 -16t-16.5 -43v-122h254v-139h-254v-146z" />
    <glyph glyph-name="currency" unicode="&#xa4;" horiz-adv-x="658" 
d="M564 344q0 -56 -25 -106l71 -72l-102 -103l-73 72q-50 -25 -106 -25q-55 0 -106 24l-73 -72l-102 103l71 71q-26 49 -26 108t26 108l-71 71l102 103l74 -74q50 24 105 24t106 -24l73 72l102 -102l-71 -72q25 -50 25 -106zM329 236q42 0 71 31.5t29 76.5t-29 77t-71 32
t-72 -32t-30 -77t30 -76.5t72 -31.5z" />
    <glyph glyph-name="yen" unicode="&#xa5;" horiz-adv-x="750" 
d="M722 740l-203 -376h89v-107h-146v-42h146v-107h-146v-108h-175v108h-145v107h145v42h-145v107h88l-203 376h188l161 -326l160 326h186z" />
    <glyph glyph-name="brokenbar" unicode="&#xa6;" horiz-adv-x="321" 
d="M73 380v400h175v-400h-175zM73 -220v400h175v-400h-175z" />
    <glyph glyph-name="section" unicode="&#xa7;" horiz-adv-x="630" 
d="M586 258q0 -79 -47 -137q47 -52 47 -123q0 -103 -75 -165.5t-197 -62.5q-150 0 -255 96l64 118q82 -69 181 -69q100 0 100 65q0 33 -26.5 51t-86.5 37l-33 10q-103 31 -156.5 79.5t-53.5 136.5q0 81 46 141q-46 46 -46 119q0 106 73 171t192 65q134 0 241 -85l-76 -122
q-78 62 -162 62q-40 0 -63 -16.5t-23 -45.5q0 -31 25 -47.5t82 -34.5l32 -11q217 -70 217 -232zM337 228l32 -10l37 -13q11 14 11 36q0 37 -31 58t-95 41l-33 11l-27 9q-13 -16 -13 -37q0 -26 17 -44t38 -27.5t64 -23.5z" />
    <glyph glyph-name="dieresis" unicode="&#xa8;" horiz-adv-x="600" 
d="M143 608q-43 0 -71 27.5t-28 70.5t28 70.5t71 27.5t70.5 -27.5t27.5 -70.5t-27.5 -70.5t-70.5 -27.5zM410 608q-43 0 -71 27.5t-28 70.5t28 70.5t71 27.5t70.5 -27.5t27.5 -70.5t-27.5 -70.5t-70.5 -27.5z" />
    <glyph glyph-name="copyright" unicode="&#xa9;" horiz-adv-x="873" 
d="M437 -10q-178 0 -286.5 104.5t-108.5 275.5t108.5 275.5t286.5 104.5t286 -104.5t108 -275.5t-108 -275.5t-286 -104.5zM437 64q135 0 218.5 84.5t83.5 221.5q0 138 -83.5 222.5t-218.5 84.5t-219 -84.5t-84 -222.5q0 -137 84 -221.5t219 -84.5zM445 158
q-101 0 -163.5 58t-62.5 153q0 94 62 150.5t163 56.5q108 0 167 -65l-71 -73q-29 45 -95 45q-49 0 -79.5 -32t-30.5 -84t31 -84t82 -32q66 0 102 59l76 -69q-61 -83 -181 -83z" />
    <glyph glyph-name="ordfeminine" unicode="&#xaa;" horiz-adv-x="402" 
d="M199 750q65 0 105 -34.5t40 -92.5v-205h-101l-1 35q-32 -41 -87 -41q-53 0 -85 28.5t-32 75.5q0 49 39 78.5t104 29.5q27 0 59 -6q-2 52 -67 52q-44 0 -69 -21l-46 61q58 40 141 40zM185 485q24 0 39 17t16 47q-34 4 -46 4q-22 0 -35.5 -9t-13.5 -25q0 -34 40 -34z" />
    <glyph glyph-name="guillemotleft" unicode="&#xab;" horiz-adv-x="715" 
d="M393 503l-176 -233l176 -232h-181l-182 232l182 233h181zM681 503l-176 -233l176 -232h-180l-183 232l183 233h180z" />
    <glyph glyph-name="logicalnot" unicode="&#xac;" horiz-adv-x="613" 
d="M548 476v-310h-170v171h-326v139h496z" />
    <glyph glyph-name="uni00AD" unicode="&#xad;" horiz-adv-x="503" 
d="M58 231v121h387v-121h-387z" />
    <glyph glyph-name="registered" unicode="&#xae;" horiz-adv-x="406" 
d="M204 790q71 0 115 -42.5t44 -112.5t-44 -113t-115 -43q-73 0 -117 43t-44 113t44 112.5t117 42.5zM204 506q56 0 91 35.5t35 93.5t-35 93.5t-91 35.5q-57 0 -92 -35.5t-35 -93.5t35 -93.5t92 -35.5zM268 662q0 -31 -28 -46l40 -63h-46l-34 56h-24v-56h-40v163h73
q27 0 43 -15t16 -39zM176 682v-41h25q26 0 26 21q0 20 -22 20h-29z" />
    <glyph glyph-name="macron" unicode="&#xaf;" horiz-adv-x="600" 
d="M30 612v133h379v-133h-379z" />
    <glyph glyph-name="degree" unicode="&#xb0;" horiz-adv-x="364" 
d="M183 527q-67 0 -107.5 36t-40.5 96q0 59 40.5 95t107.5 36q66 0 106.5 -36t40.5 -95q0 -60 -40.5 -96t-106.5 -36zM183 611q20 0 32 13t12 35q0 21 -12 34t-32 13t-32.5 -13t-12.5 -34q0 -22 12.5 -35t32.5 -13z" />
    <glyph glyph-name="plusminus" unicode="&#xb1;" horiz-adv-x="623" 
d="M397 513h165v-139h-165v-171h-171v171h-165v139h165v171h171v-171zM61 11v140h501v-140h-501z" />
    <glyph glyph-name="uni00B2" unicode="&#xb2;" horiz-adv-x="374" 
d="M28 396v68l138 150q63 70 63 104q0 18 -11 29.5t-30 11.5q-21 0 -34 -15.5t-13 -39.5l-108 9q0 60 42 96.5t111 36.5q68 0 109 -33.5t41 -87.5q0 -40 -23.5 -78t-75.5 -91l-71 -73l176 1v-88h-314z" />
    <glyph glyph-name="uni00B3" unicode="&#xb3;" horiz-adv-x="363" 
d="M212 672q56 -6 89.5 -42.5t33.5 -92.5q0 -67 -48 -107t-130 -40q-90 0 -139 41l40 78q34 -31 87 -31q37 0 58 16t21 43q0 25 -19 40.5t-51 15.5t-56 -15l-29 54l103 121h-131v87h267v-66z" />
    <glyph glyph-name="acute" unicode="&#xb4;" horiz-adv-x="600" 
d="M97 618l138 167h197l-191 -167h-144z" />
    <glyph glyph-name="paragraph" unicode="&#xb6;" horiz-adv-x="653" 
d="M564 740v-960h-125v839h-75v-839h-126v600h-66q-64 0 -103 50t-39 132q0 80 46.5 129t122.5 49h365z" />
    <glyph glyph-name="periodcentered" unicode="&#xb7;" horiz-adv-x="305" 
d="M152 185q-44 0 -75.5 32t-31.5 76t31.5 75.5t75.5 31.5t75.5 -31.5t31.5 -75.5t-31.5 -76t-75.5 -32z" />
    <glyph glyph-name="cedilla" unicode="&#xb8;" horiz-adv-x="600" 
d="M160 -49q43 -4 69 -27.5t26 -58.5q0 -42 -37 -68.5t-99 -26.5q-63 0 -102 23l29 60q23 -16 55 -16q20 0 32 7.5t12 19.5q0 23 -38 23q-16 0 -32 -7l-21 37l43 83h93z" />
    <glyph glyph-name="uni00B9" unicode="&#xb9;" horiz-adv-x="286" 
d="M128 396v309l-73 -51l-53 75l151 111h82v-444h-107z" />
    <glyph glyph-name="ordmasculine" unicode="&#xba;" horiz-adv-x="429" 
d="M216 412q-81 0 -130.5 46.5t-49.5 122.5t49.5 122.5t130.5 46.5q80 0 129 -46.5t49 -122.5t-49 -122.5t-129 -46.5zM216 501q32 0 52 22t20 58q0 37 -20 59.5t-52 22.5q-33 0 -53 -22.5t-20 -59.5q0 -36 20 -58t53 -22z" />
    <glyph glyph-name="guillemotright" unicode="&#xbb;" horiz-adv-x="715" 
d="M215 503l182 -233l-182 -232h-181l176 232l-176 233h181zM503 503l182 -233l-182 -232h-180l175 232l-175 233h180z" />
    <glyph glyph-name="onequarter" unicode="&#xbc;" horiz-adv-x="886" 
d="M241 -10l-88 54l414 706l88 -53zM128 296v309l-73 -51l-53 75l151 111h82v-444h-107zM695 0v80h-198v73l223 291h83v-275h57v-89h-57v-80h-108zM600 165h98l1 129z" />
    <glyph glyph-name="onehalf" unicode="&#xbd;" horiz-adv-x="898" 
d="M241 -10l-88 54l414 706l88 -53zM128 296v309l-73 -51l-53 75l151 111h82v-444h-107zM552 0v68l138 150q63 70 63 104q0 18 -11 29.5t-30 11.5q-21 0 -34 -15.5t-13 -39.5l-108 9q0 60 42 96.5t111 36.5q68 0 109 -33.5t41 -87.5q0 -40 -23.5 -78t-75.5 -91l-71 -73
l176 1v-88h-314z" />
    <glyph glyph-name="threequarters" unicode="&#xbe;" horiz-adv-x="963" 
d="M644 750l88 -53l-414 -707l-88 54zM335 437q0 -67 -48 -107t-130 -40q-90 0 -139 41l40 78q34 -31 87 -31q37 0 58 16t21 43q0 25 -19 40.5t-51 15.5t-56 -15l-29 54l103 121h-131v87h267v-66l-96 -102q56 -6 89.5 -42.5t33.5 -92.5zM880 169h57v-89h-57v-80h-108v80
h-198v73l223 291h83v-275zM775 165l1 129l-99 -129h98z" />
    <glyph glyph-name="questiondown" unicode="&#xbf;" horiz-adv-x="559" 
d="M285 359q-43 0 -70.5 27.5t-27.5 70.5t27.5 70.5t70.5 27.5t70.5 -27.5t27.5 -70.5t-27.5 -70.5t-70.5 -27.5zM289 -230q-116 0 -187 56t-71 147q0 14 2.5 27.5t4.5 23t10 22t11 17.5t15 18t14 15.5t17 16.5t16 15q30 28 46 46.5t31 52.5t15 74h145q0 -64 -17 -115.5
t-34.5 -75.5t-45.5 -52q-48 -44 -48 -76q0 -30 21 -48.5t55 -18.5q32 0 54.5 18.5t26.5 48.5l161 -7q-4 -93 -71 -149t-171 -56z" />
    <glyph glyph-name="Agrave" unicode="&#xc0;" horiz-adv-x="774" 
d="M493 813h-144l-191 167h197zM592 0l-48 123h-313l-49 -123h-188l312 740h163l310 -740h-187zM288 268h199l-99 254z" />
    <glyph glyph-name="Aacute" unicode="&#xc1;" horiz-adv-x="774" 
d="M617 980l-191 -167h-144l138 167h197zM592 0l-48 123h-313l-49 -123h-188l312 740h163l310 -740h-187zM288 268h199l-99 254z" />
    <glyph glyph-name="Acircumflex" unicode="&#xc2;" horiz-adv-x="774" 
d="M387 882l-56 -69h-156l132 167h160l131 -167h-155zM592 0l-48 123h-313l-49 -123h-188l312 740h163l310 -740h-187zM288 268h199l-99 254z" />
    <glyph glyph-name="Atilde" unicode="&#xc3;" horiz-adv-x="774" 
d="M309 858q-34 0 -34 -39h-90q0 72 33 115.5t88 43.5q36 0 90.5 -24t70.5 -24q34 0 34 38h90q0 -75 -32.5 -117t-88.5 -42q-34 0 -90 24.5t-71 24.5zM592 0l-48 123h-313l-49 -123h-188l312 740h163l310 -740h-187zM288 268h199l-99 254z" />
    <glyph glyph-name="Adieresis" unicode="&#xc4;" horiz-adv-x="774" 
d="M255 803q-43 0 -71 27.5t-28 70.5t28 70.5t71 27.5t70.5 -27.5t27.5 -70.5t-27.5 -70.5t-70.5 -27.5zM522 803q-43 0 -71 27.5t-28 70.5t28 70.5t71 27.5t70.5 -27.5t27.5 -70.5t-27.5 -70.5t-70.5 -27.5zM592 0l-48 123h-313l-49 -123h-188l312 740h163l310 -740h-187z
M288 268h199l-99 254z" />
    <glyph glyph-name="Aring" unicode="&#xc5;" horiz-adv-x="774" 
d="M388 779q-55 0 -88.5 30.5t-33.5 79.5t33.5 79t88.5 30t88 -30t33 -79q0 -50 -33 -80t-88 -30zM388 923q-16 0 -25.5 -9.5t-9.5 -24.5q0 -16 9.5 -25.5t25.5 -9.5q15 0 24.5 9.5t9.5 25.5q0 15 -9.5 24.5t-24.5 9.5zM592 0l-48 123h-313l-49 -123h-188l312 740h163
l310 -740h-187zM288 268h199l-99 254z" />
    <glyph glyph-name="AE" unicode="&#xc6;" horiz-adv-x="1111" 
d="M734 145h330v-145h-481l-28 123h-302l-72 -123h-200l470 740h604v-145h-437l38 -148h364v-145h-327zM337 268h185l-52 228z" />
    <glyph glyph-name="Ccedilla" unicode="&#xc7;" horiz-adv-x="774" 
d="M763 141q-103 -137 -283 -150l-25 -40q43 -4 69 -27.5t26 -58.5q0 -42 -37 -68.5t-99 -26.5q-63 0 -102 23l29 60q23 -16 55 -16q20 0 32 7.5t12 19.5q0 23 -38 23q-16 0 -32 -7l-21 37l39 76q-159 16 -254.5 119t-95.5 261q0 170 110.5 273.5t291.5 103.5
q189 0 298 -118l-110 -113q-28 40 -77.5 63t-109.5 23q-100 0 -160.5 -64.5t-60.5 -169.5q0 -106 62 -171t163 -65q128 0 200 112z" />
    <glyph glyph-name="Egrave" unicode="&#xc8;" horiz-adv-x="664" 
d="M449 813h-144l-191 167h197zM257 145h359v-145h-535v740h527v-145h-351v-148h316v-145h-316v-157z" />
    <glyph glyph-name="Eacute" unicode="&#xc9;" horiz-adv-x="664" 
d="M573 980l-191 -167h-144l138 167h197zM257 145h359v-145h-535v740h527v-145h-351v-148h316v-145h-316v-157z" />
    <glyph glyph-name="Ecircumflex" unicode="&#xca;" horiz-adv-x="664" 
d="M343 882l-56 -69h-156l132 167h160l131 -167h-155zM257 145h359v-145h-535v740h527v-145h-351v-148h316v-145h-316v-157z" />
    <glyph glyph-name="Edieresis" unicode="&#xcb;" horiz-adv-x="664" 
d="M211 803q-43 0 -71 27.5t-28 70.5t28 70.5t71 27.5t70.5 -27.5t27.5 -70.5t-27.5 -70.5t-70.5 -27.5zM478 803q-43 0 -71 27.5t-28 70.5t28 70.5t71 27.5t70.5 -27.5t27.5 -70.5t-27.5 -70.5t-70.5 -27.5zM257 145h359v-145h-535v740h527v-145h-351v-148h316v-145h-316
v-157z" />
    <glyph glyph-name="Igrave" unicode="&#xcc;" horiz-adv-x="338" 
d="M129 813l-191 167h197l138 -167h-144zM81 0v740h176v-740h-176z" />
    <glyph glyph-name="Iacute" unicode="&#xcd;" horiz-adv-x="338" 
d="M62 813l138 167h197l-191 -167h-144zM81 0v740h176v-740h-176z" />
    <glyph glyph-name="Icircumflex" unicode="&#xce;" horiz-adv-x="338" 
d="M167 882l-56 -69h-156l132 167h160l131 -167h-155zM81 0v740h176v-740h-176z" />
    <glyph glyph-name="Idieresis" unicode="&#xcf;" horiz-adv-x="338" 
d="M35 803q-43 0 -71 27.5t-28 70.5t28 70.5t71 27.5t70.5 -27.5t27.5 -70.5t-27.5 -70.5t-70.5 -27.5zM302 803q-43 0 -71 27.5t-28 70.5t28 70.5t71 27.5t70.5 -27.5t27.5 -70.5t-27.5 -70.5t-70.5 -27.5zM81 0v740h176v-740h-176z" />
    <glyph glyph-name="Eth" unicode="&#xd0;" horiz-adv-x="800" 
d="M393 740q166 0 267 -101.5t101 -267.5q0 -167 -101 -269t-267 -102h-312v311h-73v121h73v308h312zM396 145q82 0 132.5 62.5t50.5 163.5t-50 162.5t-133 61.5h-139v-163h147v-121h-147v-166h139z" />
    <glyph glyph-name="Ntilde" unicode="&#xd1;" horiz-adv-x="883" 
d="M523 809q-33 0 -89 24.5t-72 24.5q-34 0 -34 -39h-90q0 72 33 115.5t88 43.5q36 0 90.5 -24t70.5 -24q34 0 34 38h90q0 -75 -32.5 -117t-88.5 -42zM81 0v740h109l440 -443l-4 443h176v-740h-108l-441 444l4 -444h-176z" />
    <glyph glyph-name="Ograve" unicode="&#xd2;" horiz-adv-x="873" 
d="M399 813l-191 167h197l138 -167h-144zM438 -10q-180 0 -290 104.5t-110 275.5t110 275.5t290 104.5q178 0 287.5 -104.5t109.5 -275.5t-109.5 -275.5t-287.5 -104.5zM438 135q97 0 156.5 64.5t59.5 170.5t-59.5 170.5t-156.5 64.5q-98 0 -158 -64.5t-60 -170.5t60 -170.5
t158 -64.5z" />
    <glyph glyph-name="Oacute" unicode="&#xd3;" horiz-adv-x="873" 
d="M332 813l138 167h197l-191 -167h-144zM438 -10q-180 0 -290 104.5t-110 275.5t110 275.5t290 104.5q178 0 287.5 -104.5t109.5 -275.5t-109.5 -275.5t-287.5 -104.5zM438 135q97 0 156.5 64.5t59.5 170.5t-59.5 170.5t-156.5 64.5q-98 0 -158 -64.5t-60 -170.5t60 -170.5
t158 -64.5z" />
    <glyph glyph-name="Ocircumflex" unicode="&#xd4;" horiz-adv-x="873" 
d="M437 882l-56 -69h-156l132 167h160l131 -167h-155zM438 750q178 0 287.5 -104.5t109.5 -275.5t-109.5 -275.5t-287.5 -104.5q-180 0 -290 104.5t-110 275.5t110 275.5t290 104.5zM438 135q97 0 156.5 64.5t59.5 170.5t-59.5 170.5t-156.5 64.5q-98 0 -158 -64.5
t-60 -170.5t60 -170.5t158 -64.5z" />
    <glyph glyph-name="Otilde" unicode="&#xd5;" horiz-adv-x="873" 
d="M520 809q-34 0 -90 24.5t-71 24.5q-34 0 -34 -39h-90q0 72 33 115.5t88 43.5q36 0 90.5 -24t70.5 -24q34 0 34 38h90q0 -75 -32.5 -117t-88.5 -42zM438 -10q-180 0 -290 104.5t-110 275.5t110 275.5t290 104.5q178 0 287.5 -104.5t109.5 -275.5t-109.5 -275.5
t-287.5 -104.5zM438 135q97 0 156.5 64.5t59.5 170.5t-59.5 170.5t-156.5 64.5q-98 0 -158 -64.5t-60 -170.5t60 -170.5t158 -64.5z" />
    <glyph glyph-name="Odieresis" unicode="&#xd6;" horiz-adv-x="873" 
d="M305 803q-43 0 -71 27.5t-28 70.5t28 70.5t71 27.5t70.5 -27.5t27.5 -70.5t-27.5 -70.5t-70.5 -27.5zM572 803q-43 0 -71 27.5t-28 70.5t28 70.5t71 27.5t70.5 -27.5t27.5 -70.5t-27.5 -70.5t-70.5 -27.5zM438 -10q-180 0 -290 104.5t-110 275.5t110 275.5t290 104.5
q178 0 287.5 -104.5t109.5 -275.5t-109.5 -275.5t-287.5 -104.5zM438 135q97 0 156.5 64.5t59.5 170.5t-59.5 170.5t-156.5 64.5q-98 0 -158 -64.5t-60 -170.5t60 -170.5t158 -64.5z" />
    <glyph glyph-name="multiply" unicode="&#xd7;" horiz-adv-x="536" 
d="M491 470l-119 -119l117 -117l-104 -104l-117 117l-117 -117l-104 104l117 117l-119 119l105 104l118 -118l118 118z" />
    <glyph glyph-name="Oslash" unicode="&#xd8;" horiz-adv-x="874" 
d="M745 625q90 -101 90 -255q0 -171 -109.5 -275.5t-287.5 -104.5q-135 0 -232 60l-56 -60l-74 67l53 57q-91 102 -91 256q0 171 110 275.5t290 104.5q132 0 231 -61l57 61l74 -67zM220 370q0 -74 30 -128l308 329q-51 34 -120 34q-98 0 -158 -64.5t-60 -170.5zM438 135
q97 0 156.5 64.5t59.5 170.5q0 72 -29 127l-308 -329q53 -33 121 -33z" />
    <glyph glyph-name="Ugrave" unicode="&#xd9;" horiz-adv-x="814" 
d="M369 813l-191 167h197l138 -167h-144zM408 -10q-151 0 -243 82t-92 217v451h175v-444q0 -72 44 -116.5t116 -44.5q71 0 114.5 44.5t43.5 116.5v444h175v-451q0 -135 -91.5 -217t-241.5 -82z" />
    <glyph glyph-name="Uacute" unicode="&#xda;" horiz-adv-x="814" 
d="M302 813l138 167h197l-191 -167h-144zM408 -10q-151 0 -243 82t-92 217v451h175v-444q0 -72 44 -116.5t116 -44.5q71 0 114.5 44.5t43.5 116.5v444h175v-451q0 -135 -91.5 -217t-241.5 -82z" />
    <glyph glyph-name="Ucircumflex" unicode="&#xdb;" horiz-adv-x="814" 
d="M407 882l-56 -69h-156l132 167h160l131 -167h-155zM566 740h175v-451q0 -135 -91.5 -217t-241.5 -82q-151 0 -243 82t-92 217v451h175v-444q0 -72 44 -116.5t116 -44.5q71 0 114.5 44.5t43.5 116.5v444z" />
    <glyph glyph-name="Udieresis" unicode="&#xdc;" horiz-adv-x="814" 
d="M275 803q-43 0 -71 27.5t-28 70.5t28 70.5t71 27.5t70.5 -27.5t27.5 -70.5t-27.5 -70.5t-70.5 -27.5zM542 803q-43 0 -71 27.5t-28 70.5t28 70.5t71 27.5t70.5 -27.5t27.5 -70.5t-27.5 -70.5t-70.5 -27.5zM408 -10q-151 0 -243 82t-92 217v451h175v-444q0 -72 44 -116.5
t116 -44.5q71 0 114.5 44.5t43.5 116.5v444h175v-451q0 -135 -91.5 -217t-241.5 -82z" />
    <glyph glyph-name="Yacute" unicode="&#xdd;" horiz-adv-x="711" 
d="M586 980l-191 -167h-144l138 167h197zM517 740h186l-260 -481v-259h-175v259l-260 481h188l161 -326z" />
    <glyph glyph-name="Thorn" unicode="&#xde;" horiz-adv-x="689" 
d="M398 629q121 0 194.5 -67.5t73.5 -178.5q0 -116 -76 -187.5t-201 -71.5h-132v-124h-176v740h176v-111h141zM379 269q50 0 78 29t28 79q0 48 -29 77.5t-77 29.5h-122v-215h122z" />
    <glyph glyph-name="germandbls" unicode="&#xdf;" horiz-adv-x="639" 
d="M474 422q63 -29 97.5 -78.5t34.5 -114.5q0 -107 -69 -173t-181 -66q-54 0 -87 11l16 140q15 -5 40 -5q47 0 76 29t29 77q0 49 -32.5 79t-85.5 30v133q36 0 57.5 22.5t21.5 59.5q0 35 -21.5 57t-57.5 22t-58 -21t-22 -56v-568h-170v585q0 92 68.5 148.5t181.5 56.5
q115 0 185 -56.5t70 -148.5q0 -108 -93 -163z" />
    <glyph glyph-name="agrave" unicode="&#xe0;" horiz-adv-x="589" 
d="M407 618h-144l-191 167h197zM292 555q108 0 174.5 -58.5t66.5 -154.5v-342h-164l-2 62q-55 -72 -148 -72q-87 0 -140 48t-53 127q0 80 65 129t171 49q51 0 101 -10q-3 89 -115 89q-66 0 -116 -35l-72 100q94 68 232 68zM268 111q40 0 67 29.5t28 78.5q-45 8 -79 8
q-37 0 -59.5 -16.5t-22.5 -42.5q0 -57 66 -57z" />
    <glyph glyph-name="aacute" unicode="&#xe1;" horiz-adv-x="589" 
d="M531 785l-191 -167h-144l138 167h197zM292 555q108 0 174.5 -58.5t66.5 -154.5v-342h-164l-2 62q-55 -72 -148 -72q-87 0 -140 48t-53 127q0 80 65 129t171 49q51 0 101 -10q-3 89 -115 89q-66 0 -116 -35l-72 100q94 68 232 68zM268 111q40 0 67 29.5t28 78.5
q-45 8 -79 8q-37 0 -59.5 -16.5t-22.5 -42.5q0 -57 66 -57z" />
    <glyph glyph-name="acircumflex" unicode="&#xe2;" horiz-adv-x="589" 
d="M301 687l-56 -69h-156l132 167h160l131 -167h-155zM292 555q108 0 174.5 -58.5t66.5 -154.5v-342h-164l-2 62q-55 -72 -148 -72q-87 0 -140 48t-53 127q0 80 65 129t171 49q51 0 101 -10q-3 89 -115 89q-66 0 -116 -35l-72 100q94 68 232 68zM268 111q40 0 67 29.5
t28 78.5q-45 8 -79 8q-37 0 -59.5 -16.5t-22.5 -42.5q0 -57 66 -57z" />
    <glyph glyph-name="atilde" unicode="&#xe3;" horiz-adv-x="589" 
d="M223 663q-34 0 -34 -39h-90q0 72 33 115.5t88 43.5q36 0 90.5 -24t70.5 -24q34 0 34 38h90q0 -75 -32.5 -117t-88.5 -42q-34 0 -90 24.5t-71 24.5zM292 555q108 0 174.5 -58.5t66.5 -154.5v-342h-164l-2 62q-55 -72 -148 -72q-87 0 -140 48t-53 127q0 80 65 129t171 49
q51 0 101 -10q-3 89 -115 89q-66 0 -116 -35l-72 100q94 68 232 68zM268 111q40 0 67 29.5t28 78.5q-45 8 -79 8q-37 0 -59.5 -16.5t-22.5 -42.5q0 -57 66 -57z" />
    <glyph glyph-name="adieresis" unicode="&#xe4;" horiz-adv-x="589" 
d="M169 608q-43 0 -71 27.5t-28 70.5t28 70.5t71 27.5t70.5 -27.5t27.5 -70.5t-27.5 -70.5t-70.5 -27.5zM436 608q-43 0 -71 27.5t-28 70.5t28 70.5t71 27.5t70.5 -27.5t27.5 -70.5t-27.5 -70.5t-70.5 -27.5zM292 555q108 0 174.5 -58.5t66.5 -154.5v-342h-164l-2 62
q-55 -72 -148 -72q-87 0 -140 48t-53 127q0 80 65 129t171 49q51 0 101 -10q-3 89 -115 89q-66 0 -116 -35l-72 100q94 68 232 68zM268 111q40 0 67 29.5t28 78.5q-45 8 -79 8q-37 0 -59.5 -16.5t-22.5 -42.5q0 -57 66 -57z" />
    <glyph glyph-name="aring" unicode="&#xe5;" horiz-adv-x="589" 
d="M302 584q-55 0 -88.5 30.5t-33.5 79.5t33.5 79t88.5 30t88 -30t33 -79q0 -50 -33 -80t-88 -30zM302 728q-16 0 -25.5 -9.5t-9.5 -24.5q0 -16 9.5 -25.5t25.5 -9.5q15 0 24.5 9.5t9.5 25.5q0 15 -9.5 24.5t-24.5 9.5zM292 555q108 0 174.5 -58.5t66.5 -154.5v-342h-164
l-2 62q-55 -72 -148 -72q-87 0 -140 48t-53 127q0 80 65 129t171 49q51 0 101 -10q-3 89 -115 89q-66 0 -116 -35l-72 100q94 68 232 68zM268 111q40 0 67 29.5t28 78.5q-45 8 -79 8q-37 0 -59.5 -16.5t-22.5 -42.5q0 -57 66 -57z" />
    <glyph glyph-name="ae" unicode="&#xe6;" horiz-adv-x="940" 
d="M908 281q0 -43 -4 -68h-374q16 -90 105 -90q67 0 111 50l131 -64q-34 -55 -93.5 -87t-133.5 -32q-128 0 -207 87q-32 -42 -85 -64.5t-114 -22.5q-98 0 -158 48t-60 127q0 80 65 129t171 49q51 0 101 -10q-3 89 -115 89q-66 0 -116 -35l-72 100q89 68 220 68
q112 0 177 -75q73 75 185 75q120 0 193 -75t73 -199zM629 422q-81 0 -98 -95h199q-17 95 -101 95zM268 111q40 0 67 29.5t28 78.5q-45 8 -79 8q-37 0 -59.5 -16.5t-22.5 -42.5q0 -57 66 -57z" />
    <glyph glyph-name="ccedilla" unicode="&#xe7;" horiz-adv-x="554" 
d="M340 -49q43 -4 69 -27.5t26 -58.5q0 -42 -37 -68.5t-99 -26.5q-63 0 -102 23l29 60q23 -16 55 -16q20 0 32 7.5t12 19.5q0 23 -38 23q-16 0 -32 -7l-21 37l40 77q-111 16 -176 91t-65 188q0 127 82.5 204.5t218.5 77.5q108 0 191 -65l-96 -115q-38 35 -92 35
q-58 0 -92.5 -37.5t-34.5 -99.5t34.5 -99.5t92.5 -37.5q72 0 110 44l96 -113q-66 -65 -178 -76z" />
    <glyph glyph-name="egrave" unicode="&#xe8;" horiz-adv-x="623" 
d="M418 618h-144l-191 167h197zM592 281q0 -30 -4 -68h-374q16 -90 105 -90q68 0 110 50l132 -64q-36 -55 -99 -87t-141 -32q-129 0 -208 76t-79 201q0 129 76.5 208.5t202.5 79.5q125 0 202 -75t77 -199zM313 422q-81 0 -98 -95h199q-17 95 -101 95z" />
    <glyph glyph-name="eacute" unicode="&#xe9;" horiz-adv-x="623" 
d="M542 785l-191 -167h-144l138 167h197zM592 281q0 -30 -4 -68h-374q16 -90 105 -90q68 0 110 50l132 -64q-36 -55 -99 -87t-141 -32q-129 0 -208 76t-79 201q0 129 76.5 208.5t202.5 79.5q125 0 202 -75t77 -199zM313 422q-81 0 -98 -95h199q-17 95 -101 95z" />
    <glyph glyph-name="ecircumflex" unicode="&#xea;" horiz-adv-x="623" 
d="M312 687l-56 -69h-156l132 167h160l131 -167h-155zM592 281q0 -30 -4 -68h-374q16 -90 105 -90q68 0 110 50l132 -64q-36 -55 -99 -87t-141 -32q-129 0 -208 76t-79 201q0 129 76.5 208.5t202.5 79.5q125 0 202 -75t77 -199zM313 422q-81 0 -98 -95h199q-17 95 -101 95z
" />
    <glyph glyph-name="edieresis" unicode="&#xeb;" horiz-adv-x="623" 
d="M180 608q-43 0 -71 27.5t-28 70.5t28 70.5t71 27.5t70.5 -27.5t27.5 -70.5t-27.5 -70.5t-70.5 -27.5zM447 608q-43 0 -71 27.5t-28 70.5t28 70.5t71 27.5t70.5 -27.5t27.5 -70.5t-27.5 -70.5t-70.5 -27.5zM592 281q0 -30 -4 -68h-374q16 -90 105 -90q68 0 110 50l132 -64
q-36 -55 -99 -87t-141 -32q-129 0 -208 76t-79 201q0 129 76.5 208.5t202.5 79.5q125 0 202 -75t77 -199zM313 422q-81 0 -98 -95h199q-17 95 -101 95z" />
    <glyph glyph-name="igrave" unicode="&#xec;" horiz-adv-x="295" 
d="M109 618l-191 167h197l138 -167h-144zM62 0v545h170v-545h-170z" />
    <glyph glyph-name="iacute" unicode="&#xed;" horiz-adv-x="295" 
d="M42 618l138 167h197l-191 -167h-144zM62 0v545h170v-545h-170z" />
    <glyph glyph-name="icircumflex" unicode="&#xee;" horiz-adv-x="295" 
d="M147 687l-56 -69h-156l132 167h160l131 -167h-155zM62 0v545h170v-545h-170z" />
    <glyph glyph-name="idieresis" unicode="&#xef;" horiz-adv-x="295" 
d="M15 608q-43 0 -71 27.5t-28 70.5t28 70.5t71 27.5t70.5 -27.5t27.5 -70.5t-27.5 -70.5t-70.5 -27.5zM282 608q-43 0 -71 27.5t-28 70.5t28 70.5t71 27.5t70.5 -27.5t27.5 -70.5t-27.5 -70.5t-70.5 -27.5zM62 0v545h170v-545h-170z" />
    <glyph glyph-name="eth" unicode="&#xf0;" horiz-adv-x="667" 
d="M432 693q199 -160 199 -374q0 -147 -82.5 -238t-215.5 -91q-135 0 -217 77.5t-82 206.5q0 119 75 194t185 75q46 0 81 -13q-37 43 -81 76l-48 -30l-93 60l48 31q-20 11 -60 31l141 92q26 -13 57 -32l50 32l91 -67zM333 136q55 0 88.5 38t33.5 99t-33.5 99t-88.5 38
t-89 -37.5t-34 -99.5t34 -99.5t89 -37.5z" />
    <glyph glyph-name="ntilde" unicode="&#xf1;" horiz-adv-x="665" 
d="M259 663q-34 0 -34 -39h-90q0 72 33 115.5t88 43.5q36 0 90.5 -24t70.5 -24q34 0 34 38h90q0 -75 -32.5 -117t-88.5 -42q-34 0 -90 24.5t-71 24.5zM396 555q96 0 154.5 -58.5t58.5 -154.5v-342h-170v316q0 43 -28 68.5t-75 25.5t-75.5 -25.5t-28.5 -68.5v-316h-170v545
h164l2 -61q64 71 168 71z" />
    <glyph glyph-name="ograve" unicode="&#xf2;" horiz-adv-x="663" 
d="M294 618l-191 167h197l138 -167h-144zM333 -10q-135 0 -217.5 78t-82.5 205t82.5 204.5t217.5 77.5q133 0 215 -77.5t82 -204.5t-82 -205t-215 -78zM332 136q55 0 88.5 38t33.5 99t-33.5 99t-88.5 38t-89 -37.5t-34 -99.5t34 -99.5t89 -37.5z" />
    <glyph glyph-name="oacute" unicode="&#xf3;" horiz-adv-x="663" 
d="M227 618l138 167h197l-191 -167h-144zM333 -10q-135 0 -217.5 78t-82.5 205t82.5 204.5t217.5 77.5q133 0 215 -77.5t82 -204.5t-82 -205t-215 -78zM332 136q55 0 88.5 38t33.5 99t-33.5 99t-88.5 38t-89 -37.5t-34 -99.5t34 -99.5t89 -37.5z" />
    <glyph glyph-name="ocircumflex" unicode="&#xf4;" horiz-adv-x="663" 
d="M332 687l-56 -69h-156l132 167h160l131 -167h-155zM333 555q133 0 215 -77.5t82 -204.5t-82 -205t-215 -78q-135 0 -217.5 78t-82.5 205t82.5 204.5t217.5 77.5zM332 136q55 0 88.5 38t33.5 99t-33.5 99t-88.5 38t-89 -37.5t-34 -99.5t34 -99.5t89 -37.5z" />
    <glyph glyph-name="otilde" unicode="&#xf5;" horiz-adv-x="663" 
d="M415 614q-33 0 -89 24.5t-72 24.5q-34 0 -34 -39h-90q0 72 33 115.5t88 43.5q36 0 90.5 -24t70.5 -24q34 0 34 38h90q0 -75 -32.5 -117t-88.5 -42zM333 -10q-135 0 -217.5 78t-82.5 205t82.5 204.5t217.5 77.5q133 0 215 -77.5t82 -204.5t-82 -205t-215 -78zM332 136
q55 0 88.5 38t33.5 99t-33.5 99t-88.5 38t-89 -37.5t-34 -99.5t34 -99.5t89 -37.5z" />
    <glyph glyph-name="odieresis" unicode="&#xf6;" horiz-adv-x="663" 
d="M200 608q-43 0 -71 27.5t-28 70.5t28 70.5t71 27.5t70.5 -27.5t27.5 -70.5t-27.5 -70.5t-70.5 -27.5zM467 608q-43 0 -71 27.5t-28 70.5t28 70.5t71 27.5t70.5 -27.5t27.5 -70.5t-27.5 -70.5t-70.5 -27.5zM333 -10q-135 0 -217.5 78t-82.5 205t82.5 204.5t217.5 77.5
q133 0 215 -77.5t82 -204.5t-82 -205t-215 -78zM332 136q55 0 88.5 38t33.5 99t-33.5 99t-88.5 38t-89 -37.5t-34 -99.5t34 -99.5t89 -37.5z" />
    <glyph glyph-name="divide" unicode="&#xf7;" horiz-adv-x="581" 
d="M292 461q-43 0 -71 27.5t-28 70.5t28 70.5t71 27.5t70 -27.5t27 -70.5t-27 -70.5t-70 -27.5zM43 283v139h496v-139h-496zM292 49q-43 0 -71 27.5t-28 70.5t28 70.5t71 27.5t70 -27.5t27 -70.5t-27 -70.5t-70 -27.5z" />
    <glyph glyph-name="oslash" unicode="&#xf8;" horiz-adv-x="664" 
d="M551 474q79 -77 79 -201q0 -127 -82 -205t-215 -78q-92 0 -163 38l-33 -38l-58 43l33 38q-79 79 -79 202q0 127 82.5 204.5t217.5 77.5q90 0 161 -38l33 38l58 -42zM209 273q0 -41 15 -71l166 194q-25 14 -58 14q-55 0 -89 -37.5t-34 -99.5zM332 136q55 0 88.5 38
t33.5 99q0 40 -15 70l-165 -193q26 -14 58 -14z" />
    <glyph glyph-name="ugrave" unicode="&#xf9;" horiz-adv-x="641" 
d="M423 618h-144l-191 167h197zM409 545h170v-545h-163l-3 57q-60 -67 -155 -67q-91 0 -146.5 58.5t-55.5 155.5v341h170v-316q0 -42 25 -67.5t67 -25.5q41 0 66 25.5t25 67.5v316z" />
    <glyph glyph-name="uacute" unicode="&#xfa;" horiz-adv-x="641" 
d="M547 785l-191 -167h-144l138 167h197zM409 545h170v-545h-163l-3 57q-60 -67 -155 -67q-91 0 -146.5 58.5t-55.5 155.5v341h170v-316q0 -42 25 -67.5t67 -25.5q41 0 66 25.5t25 67.5v316z" />
    <glyph glyph-name="ucircumflex" unicode="&#xfb;" horiz-adv-x="641" 
d="M317 687l-56 -69h-156l132 167h160l131 -167h-155zM409 545h170v-545h-163l-3 57q-60 -67 -155 -67q-91 0 -146.5 58.5t-55.5 155.5v341h170v-316q0 -42 25 -67.5t67 -25.5q41 0 66 25.5t25 67.5v316z" />
    <glyph glyph-name="udieresis" unicode="&#xfc;" horiz-adv-x="641" 
d="M185 608q-43 0 -71 27.5t-28 70.5t28 70.5t71 27.5t70.5 -27.5t27.5 -70.5t-27.5 -70.5t-70.5 -27.5zM452 608q-43 0 -71 27.5t-28 70.5t28 70.5t71 27.5t70.5 -27.5t27.5 -70.5t-27.5 -70.5t-70.5 -27.5zM409 545h170v-545h-163l-3 57q-60 -67 -155 -67
q-91 0 -146.5 58.5t-55.5 155.5v341h170v-316q0 -42 25 -67.5t67 -25.5q41 0 66 25.5t25 67.5v316z" />
    <glyph glyph-name="yacute" unicode="&#xfd;" horiz-adv-x="621" 
d="M209 618l138 167h197l-191 -167h-144zM162 -230q-55 0 -89 17l17 137q18 -9 44 -9q29 0 46 16t35 50l16 34l-227 530h186l128 -347l117 347h185l-239 -585q-40 -97 -88 -143.5t-131 -46.5z" />
    <glyph glyph-name="thorn" unicode="&#xfe;" horiz-adv-x="688" 
d="M394 555q110 0 185 -78t75 -202q0 -125 -75 -205t-185 -80q-104 0 -162 74v-284h-170v1000h170v-298q59 73 162 73zM356 136q55 0 89 38t34 100q0 61 -34 98.5t-89 37.5q-56 0 -90 -38t-34 -99t34 -99t90 -38z" />
    <glyph glyph-name="ydieresis" unicode="&#xff;" horiz-adv-x="621" 
d="M182 608q-43 0 -71 27.5t-28 70.5t28 70.5t71 27.5t70.5 -27.5t27.5 -70.5t-27.5 -70.5t-70.5 -27.5zM449 608q-43 0 -71 27.5t-28 70.5t28 70.5t71 27.5t70.5 -27.5t27.5 -70.5t-27.5 -70.5t-70.5 -27.5zM162 -230q-55 0 -89 17l17 137q18 -9 44 -9q29 0 46 16t35 50
l16 34l-227 530h186l128 -347l117 347h185l-239 -585q-40 -97 -88 -143.5t-131 -46.5z" />
    <glyph glyph-name="Amacron" unicode="&#x100;" horiz-adv-x="774" 
d="M577 940v-133h-379v133h379zM592 0l-48 123h-313l-49 -123h-188l312 740h163l310 -740h-187zM288 268h199l-99 254z" />
    <glyph glyph-name="amacron" unicode="&#x101;" horiz-adv-x="589" 
d="M491 745v-133h-379v133h379zM292 555q108 0 174.5 -58.5t66.5 -154.5v-342h-164l-2 62q-55 -72 -148 -72q-87 0 -140 48t-53 127q0 80 65 129t171 49q51 0 101 -10q-3 89 -115 89q-66 0 -116 -35l-72 100q94 68 232 68zM268 111q40 0 67 29.5t28 78.5q-45 8 -79 8
q-37 0 -59.5 -16.5t-22.5 -42.5q0 -57 66 -57z" />
    <glyph glyph-name="Abreve" unicode="&#x102;" horiz-adv-x="774" 
d="M388 804q-87 0 -140 48.5t-53 127.5h127q0 -35 18.5 -57t47.5 -22q30 0 48 22t18 57h127q0 -79 -53 -127.5t-140 -48.5zM592 0l-48 123h-313l-49 -123h-188l312 740h163l310 -740h-187zM288 268h199l-99 254z" />
    <glyph glyph-name="abreve" unicode="&#x103;" horiz-adv-x="589" 
d="M302 609q-87 0 -140 48.5t-53 127.5h127q0 -35 18.5 -57t47.5 -22q30 0 48 22t18 57h127q0 -79 -53 -127.5t-140 -48.5zM292 555q108 0 174.5 -58.5t66.5 -154.5v-342h-164l-2 62q-55 -72 -148 -72q-87 0 -140 48t-53 127q0 80 65 129t171 49q51 0 101 -10q-3 89 -115 89
q-66 0 -116 -35l-72 100q94 68 232 68zM268 111q40 0 67 29.5t28 78.5q-45 8 -79 8q-37 0 -59.5 -16.5t-22.5 -42.5q0 -57 66 -57z" />
    <glyph glyph-name="Aogonek" unicode="&#x104;" horiz-adv-x="774" 
d="M768 -121l14 -81q-40 -28 -98 -28q-50 0 -80 26t-30 68q0 70 81 136h-63l-48 123h-313l-49 -123h-188l312 740h163l310 -740q-84 -53 -84 -107q0 -28 31 -28q23 0 42 14zM288 268h199l-99 254z" />
    <glyph glyph-name="aogonek" unicode="&#x105;" horiz-adv-x="589" 
d="M522 -121l14 -81q-41 -28 -99 -28q-49 0 -79.5 26t-30.5 68q0 68 84 136h-42l-2 62q-55 -72 -148 -72q-87 0 -140 48t-53 127q0 80 65 129t171 49q51 0 101 -10q-3 89 -115 89q-66 0 -116 -35l-72 100q94 68 232 68q108 0 174.5 -58.5t66.5 -154.5v-342q-84 -53 -84 -107
q0 -28 31 -28q21 0 42 14zM268 111q40 0 67 29.5t28 78.5q-45 8 -79 8q-37 0 -59.5 -16.5t-22.5 -42.5q0 -57 66 -57z" />
    <glyph glyph-name="Cacute" unicode="&#x106;" horiz-adv-x="774" 
d="M325 813l138 167h197l-191 -167h-144zM441 -10q-180 0 -291.5 105.5t-111.5 277.5q0 170 110.5 273.5t291.5 103.5q189 0 298 -118l-110 -113q-28 40 -77.5 63t-109.5 23q-100 0 -160.5 -64.5t-60.5 -169.5q0 -106 62 -171t163 -65q128 0 200 112l118 -106
q-113 -151 -322 -151z" />
    <glyph glyph-name="cacute" unicode="&#x107;" horiz-adv-x="554" 
d="M213 618l138 167h197l-191 -167h-144zM330 -10q-134 0 -215.5 78t-81.5 205t82.5 204.5t218.5 77.5q108 0 191 -65l-96 -115q-38 35 -92 35q-58 0 -92.5 -37.5t-34.5 -99.5t34.5 -99.5t92.5 -37.5q72 0 110 44l96 -113q-78 -77 -213 -77z" />
    <glyph glyph-name="Cdotaccent" unicode="&#x10a;" horiz-adv-x="774" 
d="M431 803q-43 0 -71 27.5t-28 70.5t28 70.5t71 27.5t70.5 -27.5t27.5 -70.5t-27.5 -70.5t-70.5 -27.5zM441 -10q-180 0 -291.5 105.5t-111.5 277.5q0 170 110.5 273.5t291.5 103.5q189 0 298 -118l-110 -113q-28 40 -77.5 63t-109.5 23q-100 0 -160.5 -64.5t-60.5 -169.5
q0 -106 62 -171t163 -65q128 0 200 112l118 -106q-113 -151 -322 -151z" />
    <glyph glyph-name="cdotaccent" unicode="&#x10b;" horiz-adv-x="554" 
d="M319 608q-43 0 -71 27.5t-28 70.5t28 70.5t71 27.5t70.5 -27.5t27.5 -70.5t-27.5 -70.5t-70.5 -27.5zM330 -10q-134 0 -215.5 78t-81.5 205t82.5 204.5t218.5 77.5q108 0 191 -65l-96 -115q-38 35 -92 35q-58 0 -92.5 -37.5t-34.5 -99.5t34.5 -99.5t92.5 -37.5
q72 0 110 44l96 -113q-78 -77 -213 -77z" />
    <glyph glyph-name="Ccaron" unicode="&#x10c;" horiz-adv-x="774" 
d="M350 813l-132 167h156l56 -69l56 69h155l-131 -167h-160zM645 247l118 -106q-113 -151 -322 -151q-180 0 -291.5 105.5t-111.5 277.5q0 170 110.5 273.5t291.5 103.5q189 0 298 -118l-110 -113q-28 40 -77.5 63t-109.5 23q-100 0 -160.5 -64.5t-60.5 -169.5
q0 -106 62 -171t163 -65q128 0 200 112z" />
    <glyph glyph-name="ccaron" unicode="&#x10d;" horiz-adv-x="554" 
d="M238 618l-132 167h156l56 -69l56 69h155l-131 -167h-160zM447 180l96 -113q-78 -77 -213 -77q-134 0 -215.5 78t-81.5 205t82.5 204.5t218.5 77.5q108 0 191 -65l-96 -115q-38 35 -92 35q-58 0 -92.5 -37.5t-34.5 -99.5t34.5 -99.5t92.5 -37.5q72 0 110 44z" />
    <glyph glyph-name="Dcaron" unicode="&#x10e;" horiz-adv-x="800" 
d="M267 813l-132 167h156l56 -69l56 69h155l-131 -167h-160zM393 740q166 0 267 -101.5t101 -267.5q0 -167 -101 -269t-267 -102h-312v740h312zM396 145q82 0 132.5 62.5t50.5 163.5t-50 162.5t-133 61.5h-139v-450h139z" />
    <glyph glyph-name="dcaron" unicode="&#x10f;" horiz-adv-x="708" 
d="M455 482v298h170v-780h-163l-3 67q-58 -77 -166 -77q-110 0 -185 78t-75 202q0 125 75 205t185 80q103 0 162 -73zM716 780h152l-67 -187h-128zM332 136q56 0 89.5 37.5t33.5 99.5q0 61 -34 99t-89 38t-89 -38t-34 -100q0 -61 34 -98.5t89 -37.5z" />
    <glyph glyph-name="Dcroat" unicode="&#x110;" horiz-adv-x="800" 
d="M393 740q166 0 267 -101.5t101 -267.5q0 -167 -101 -269t-267 -102h-312v311h-73v121h73v308h312zM396 145q82 0 132.5 62.5t50.5 163.5t-50 162.5t-133 61.5h-139v-163h147v-121h-147v-166h139z" />
    <glyph glyph-name="dcroat" unicode="&#x111;" horiz-adv-x="687" 
d="M697 715v-121h-72v-594h-163l-3 67q-58 -77 -166 -77q-110 0 -185 78t-75 202q0 125 75 205t185 80q103 0 162 -73v112h-154v121h154v65h170v-65h72zM332 136q56 0 89.5 37.5t33.5 99.5q0 61 -34 99t-89 38t-89 -38t-34 -100q0 -61 34 -98.5t89 -37.5z" />
    <glyph glyph-name="Emacron" unicode="&#x112;" horiz-adv-x="664" 
d="M533 940v-133h-379v133h379zM257 145h359v-145h-535v740h527v-145h-351v-148h316v-145h-316v-157z" />
    <glyph glyph-name="emacron" unicode="&#x113;" horiz-adv-x="623" 
d="M502 745v-133h-379v133h379zM592 281q0 -30 -4 -68h-374q16 -90 105 -90q68 0 110 50l132 -64q-36 -55 -99 -87t-141 -32q-129 0 -208 76t-79 201q0 129 76.5 208.5t202.5 79.5q125 0 202 -75t77 -199zM313 422q-81 0 -98 -95h199q-17 95 -101 95z" />
    <glyph glyph-name="Edotaccent" unicode="&#x116;" horiz-adv-x="664" 
d="M344 803q-43 0 -71 27.5t-28 70.5t28 70.5t71 27.5t70.5 -27.5t27.5 -70.5t-27.5 -70.5t-70.5 -27.5zM257 145h359v-145h-535v740h527v-145h-351v-148h316v-145h-316v-157z" />
    <glyph glyph-name="edotaccent" unicode="&#x117;" horiz-adv-x="623" 
d="M313 608q-43 0 -71 27.5t-28 70.5t28 70.5t71 27.5t70.5 -27.5t27.5 -70.5t-27.5 -70.5t-70.5 -27.5zM592 281q0 -30 -4 -68h-374q16 -90 105 -90q68 0 110 50l132 -64q-36 -55 -99 -87t-141 -32q-129 0 -208 76t-79 201q0 129 76.5 208.5t202.5 79.5q125 0 202 -75
t77 -199zM313 422q-81 0 -98 -95h199q-17 95 -101 95z" />
    <glyph glyph-name="Eogonek" unicode="&#x118;" horiz-adv-x="664" 
d="M605 -121l14 -81q-41 -28 -99 -28q-49 0 -79.5 26t-30.5 68q0 68 84 136h-413v740h527v-145h-351v-148h316v-145h-316v-157h359v-145q-84 -53 -84 -107q0 -28 31 -28q21 0 42 14z" />
    <glyph glyph-name="eogonek" unicode="&#x119;" horiz-adv-x="623" 
d="M592 281q0 -30 -4 -68h-374q16 -90 105 -90q68 0 110 50l132 -64q-53 -81 -158 -109q-84 -53 -84 -107q0 -28 31 -28q21 0 42 14l14 -81q-41 -28 -99 -28q-49 0 -79.5 26t-30.5 68q0 66 75 129q-109 14 -173.5 88t-64.5 186q0 129 76.5 208.5t202.5 79.5q125 0 202 -75
t77 -199zM313 422q-81 0 -98 -95h199q-17 95 -101 95z" />
    <glyph glyph-name="Ecaron" unicode="&#x11a;" horiz-adv-x="664" 
d="M263 813l-132 167h156l56 -69l56 69h155l-131 -167h-160zM257 145h359v-145h-535v740h527v-145h-351v-148h316v-145h-316v-157z" />
    <glyph glyph-name="ecaron" unicode="&#x11b;" horiz-adv-x="623" 
d="M232 618l-132 167h156l56 -69l56 69h155l-131 -167h-160zM592 281q0 -30 -4 -68h-374q16 -90 105 -90q68 0 110 50l132 -64q-36 -55 -99 -87t-141 -32q-129 0 -208 76t-79 201q0 129 76.5 208.5t202.5 79.5q125 0 202 -75t77 -199zM313 422q-81 0 -98 -95h199
q-17 95 -101 95z" />
    <glyph glyph-name="Gbreve" unicode="&#x11e;" horiz-adv-x="826" 
d="M430 804q-87 0 -140 48.5t-53 127.5h127q0 -35 18.5 -57t47.5 -22q30 0 48 22t18 57h127q0 -79 -53 -127.5t-140 -48.5zM801 430q2 -40 2 -60q0 -171 -101.5 -275.5t-271.5 -104.5q-176 0 -283.5 104.5t-107.5 275.5t107 275.5t284 104.5q166 0 270 -84l-115 -110
q-49 49 -153 49q-95 0 -153.5 -64.5t-58.5 -170.5t58 -170.5t153 -64.5q77 0 127 40.5t61 109.5h-167v145h349z" />
    <glyph glyph-name="gbreve" unicode="&#x11f;" horiz-adv-x="687" 
d="M342 609q-87 0 -140 48.5t-53 127.5h127q0 -35 18.5 -57t47.5 -22q30 0 48 22t18 57h127q0 -79 -53 -127.5t-140 -48.5zM463 545h163v-488q0 -130 -91.5 -208.5t-242.5 -78.5t-244 67l37 133q83 -55 203 -55q76 0 122 39.5t46 103.5v5q-59 -73 -162 -73q-110 0 -185 80
t-75 205q0 124 75 202t185 78q108 0 166 -77zM333 136q55 0 89 37.5t34 99.5t-34 99.5t-89 37.5t-89 -37.5t-34 -98.5q0 -62 34 -100t89 -38z" />
    <glyph glyph-name="Gdotaccent" unicode="&#x120;" horiz-adv-x="826" 
d="M430 803q-43 0 -71 27.5t-28 70.5t28 70.5t71 27.5t70.5 -27.5t27.5 -70.5t-27.5 -70.5t-70.5 -27.5zM801 430q2 -40 2 -60q0 -171 -101.5 -275.5t-271.5 -104.5q-176 0 -283.5 104.5t-107.5 275.5t107 275.5t284 104.5q166 0 270 -84l-115 -110q-49 49 -153 49
q-95 0 -153.5 -64.5t-58.5 -170.5t58 -170.5t153 -64.5q77 0 127 40.5t61 109.5h-167v145h349z" />
    <glyph glyph-name="gdotaccent" unicode="&#x121;" horiz-adv-x="687" 
d="M342 608q-43 0 -71 27.5t-28 70.5t28 70.5t71 27.5t70.5 -27.5t27.5 -70.5t-27.5 -70.5t-70.5 -27.5zM463 545h163v-488q0 -130 -91.5 -208.5t-242.5 -78.5t-244 67l37 133q83 -55 203 -55q76 0 122 39.5t46 103.5v5q-59 -73 -162 -73q-110 0 -185 80t-75 205
q0 124 75 202t185 78q108 0 166 -77zM333 136q55 0 89 37.5t34 99.5t-34 99.5t-89 37.5t-89 -37.5t-34 -98.5q0 -62 34 -100t89 -38z" />
    <glyph glyph-name="Gcommaaccent" unicode="&#x122;" horiz-adv-x="826" 
d="M801 430q2 -40 2 -60q0 -171 -101.5 -275.5t-271.5 -104.5q-176 0 -283.5 104.5t-107.5 275.5t107 275.5t284 104.5q166 0 270 -84l-115 -110q-49 49 -153 49q-95 0 -153.5 -64.5t-58.5 -170.5t58 -170.5t153 -64.5q77 0 127 40.5t61 109.5h-167v145h349zM302 -220
l38 168h152l-62 -168h-128z" />
    <glyph glyph-name="gcommaaccent" unicode="&#x123;" horiz-adv-x="687" 
d="M447 780l-43 -187h-152l67 187h128zM463 545h163v-488q0 -130 -91.5 -208.5t-242.5 -78.5t-244 67l37 133q83 -55 203 -55q76 0 122 39.5t46 103.5v5q-59 -73 -162 -73q-110 0 -185 80t-75 205q0 124 75 202t185 78q108 0 166 -77zM333 136q55 0 89 37.5t34 99.5
t-34 99.5t-89 37.5t-89 -37.5t-34 -98.5q0 -62 34 -100t89 -38z" />
    <glyph glyph-name="Hbar" unicode="&#x126;" horiz-adv-x="876" 
d="M862 655v-121h-67v-534h-175v305h-363v-305h-176v534h-65v121h65v85h176v-85h363v85h175v-85h67zM620 450v84h-363v-84h363z" />
    <glyph glyph-name="hbar" unicode="&#x127;" horiz-adv-x="665" 
d="M396 555q96 0 154.5 -58.5t58.5 -154.5v-342h-170v316q0 43 -28 68.5t-75 25.5t-75.5 -25.5t-28.5 -68.5v-316h-170v594h-72v121h72v65h170v-65h154v-121h-154v-106q63 67 164 67z" />
    <glyph glyph-name="Imacron" unicode="&#x12a;" horiz-adv-x="338" 
d="M-22 807v133h379v-133h-379zM81 0v740h176v-740h-176z" />
    <glyph glyph-name="imacron" unicode="&#x12b;" horiz-adv-x="295" 
d="M-42 612v133h379v-133h-379zM62 0v545h170v-545h-170z" />
    <glyph glyph-name="Iogonek" unicode="&#x12e;" horiz-adv-x="338" 
d="M246 -121l14 -81q-41 -28 -99 -28q-49 0 -79.5 26t-30.5 68q0 68 84 136h-54v740h176v-740q-84 -53 -84 -107q0 -28 31 -28q21 0 42 14z" />
    <glyph glyph-name="iogonek" unicode="&#x12f;" horiz-adv-x="295" 
d="M148 608q-43 0 -71 27.5t-28 70.5t28 70.5t71 27.5t70.5 -27.5t27.5 -70.5t-27.5 -70.5t-70.5 -27.5zM179 -135q21 0 42 14l14 -81q-41 -28 -99 -28q-49 0 -79.5 26t-30.5 68q0 68 84 136h-48v545h170v-545q-84 -53 -84 -107q0 -28 31 -28z" />
    <glyph glyph-name="Idotaccent" unicode="&#x130;" horiz-adv-x="338" 
d="M168 803q-43 0 -71 27.5t-28 70.5t28 70.5t71 27.5t70.5 -27.5t27.5 -70.5t-27.5 -70.5t-70.5 -27.5zM81 0v740h176v-740h-176z" />
    <glyph glyph-name="dotlessi" unicode="&#x131;" horiz-adv-x="295" 
d="M62 0v545h170v-545h-170z" />
    <glyph glyph-name="Kcommaaccent" unicode="&#x136;" horiz-adv-x="722" 
d="M434 380l299 -380h-210l-234 305h-32v-305h-176v740h176v-290h28l223 290h210zM264 -220l38 168h152l-62 -168h-128z" />
    <glyph glyph-name="kcommaaccent" unicode="&#x137;" horiz-adv-x="626" 
d="M387 287l253 -287h-215l-181 217h-12v-217h-170v780h170v-424h15l166 189h214zM211 -220l38 168h152l-62 -168h-128z" />
    <glyph glyph-name="Lacute" unicode="&#x139;" horiz-adv-x="587" 
d="M397 980l-191 -167h-144l138 167h197zM257 145h314v-145h-490v740h176v-595z" />
    <glyph glyph-name="lacute" unicode="&#x13a;" horiz-adv-x="295" 
d="M43 853l138 167h197l-191 -167h-144zM63 0v780h170v-780h-170z" />
    <glyph glyph-name="Lcommaaccent" unicode="&#x13b;" horiz-adv-x="587" 
d="M257 145h314v-145h-490v740h176v-595zM186 -220l38 168h152l-62 -168h-128z" />
    <glyph glyph-name="lcommaaccent" unicode="&#x13c;" horiz-adv-x="295" 
d="M63 0v780h170v-780h-170zM30 -220l38 168h152l-62 -168h-128z" />
    <glyph glyph-name="Lcaron" unicode="&#x13d;" horiz-adv-x="589" 
d="M257 740v-595h314v-145h-490v740h176zM572 740l-74 -223h-153l50 223h177z" />
    <glyph glyph-name="lcaron" unicode="&#x13e;" horiz-adv-x="316" 
d="M63 0v780h170v-780h-170zM281 593l42 187h152l-66 -187h-128z" />
    <glyph glyph-name="Lslash" unicode="&#x141;" horiz-adv-x="587" 
d="M257 145h314v-145h-490v243l-48 -34v136l48 33v362h176v-261l102 72v-136l-102 -72v-198z" />
    <glyph glyph-name="lslash" unicode="&#x142;" horiz-adv-x="295" 
d="M312 551v-136l-79 -56v-359h-170v263l-77 -54v136l77 54v381h170v-285z" />
    <glyph glyph-name="Nacute" unicode="&#x143;" horiz-adv-x="883" 
d="M335 813l138 167h197l-191 -167h-144zM81 0v740h109l440 -443l-4 443h176v-740h-108l-441 444l4 -444h-176z" />
    <glyph glyph-name="nacute" unicode="&#x144;" horiz-adv-x="665" 
d="M567 785l-191 -167h-144l138 167h197zM396 555q96 0 154.5 -58.5t58.5 -154.5v-342h-170v316q0 43 -28 68.5t-75 25.5t-75.5 -25.5t-28.5 -68.5v-316h-170v545h164l2 -61q64 71 168 71z" />
    <glyph glyph-name="Ncommaaccent" unicode="&#x145;" horiz-adv-x="883" 
d="M81 0v740h109l440 -443l-4 443h176v-740h-108l-441 444l4 -444h-176zM323 -220l38 168h152l-62 -168h-128z" />
    <glyph glyph-name="ncommaaccent" unicode="&#x146;" horiz-adv-x="665" 
d="M396 555q96 0 154.5 -58.5t58.5 -154.5v-342h-170v316q0 43 -28 68.5t-75 25.5t-75.5 -25.5t-28.5 -68.5v-316h-170v545h164l2 -61q64 71 168 71zM217 -220l38 168h152l-62 -168h-128z" />
    <glyph glyph-name="Ncaron" unicode="&#x147;" horiz-adv-x="883" 
d="M360 813l-132 167h156l56 -69l56 69h155l-131 -167h-160zM626 740h176v-740h-108l-441 444l4 -444h-176v740h109l440 -443z" />
    <glyph glyph-name="ncaron" unicode="&#x148;" horiz-adv-x="665" 
d="M257 618l-132 167h156l56 -69l56 69h155l-131 -167h-160zM396 555q96 0 154.5 -58.5t58.5 -154.5v-342h-170v316q0 43 -28 68.5t-75 25.5t-75.5 -25.5t-28.5 -68.5v-316h-170v545h164l2 -61q64 71 168 71z" />
    <glyph glyph-name="Eng" unicode="&#x14a;" horiz-adv-x="883" 
d="M626 740h176v-792q0 -80 -58 -129t-149 -49q-97 0 -152 61l46 117q32 -33 71 -33q31 0 48.5 17.5t17.5 46.5v89l-373 376l4 -444h-176v740h109l440 -443z" />
    <glyph glyph-name="eng" unicode="&#x14b;" horiz-adv-x="665" 
d="M396 555q96 0 154.5 -58.5t58.5 -154.5v-394q0 -80 -50 -129t-132 -49q-67 0 -113 17l12 132q21 -4 48 -4q29 0 47 20t18 53v328q0 43 -28 68.5t-75 25.5t-75.5 -25.5t-28.5 -68.5v-316h-170v545h164l2 -61q64 71 168 71z" />
    <glyph glyph-name="Omacron" unicode="&#x14c;" horiz-adv-x="873" 
d="M248 807v133h379v-133h-379zM438 -10q-180 0 -290 104.5t-110 275.5t110 275.5t290 104.5q178 0 287.5 -104.5t109.5 -275.5t-109.5 -275.5t-287.5 -104.5zM438 135q97 0 156.5 64.5t59.5 170.5t-59.5 170.5t-156.5 64.5q-98 0 -158 -64.5t-60 -170.5t60 -170.5
t158 -64.5z" />
    <glyph glyph-name="omacron" unicode="&#x14d;" horiz-adv-x="663" 
d="M143 612v133h379v-133h-379zM333 -10q-135 0 -217.5 78t-82.5 205t82.5 204.5t217.5 77.5q133 0 215 -77.5t82 -204.5t-82 -205t-215 -78zM332 136q55 0 88.5 38t33.5 99t-33.5 99t-88.5 38t-89 -37.5t-34 -99.5t34 -99.5t89 -37.5z" />
    <glyph glyph-name="Ohungarumlaut" unicode="&#x150;" horiz-adv-x="873" 
d="M247 813l106 167h196l-158 -167h-144zM470 813l106 167h196l-159 -167h-143zM438 -10q-180 0 -290 104.5t-110 275.5t110 275.5t290 104.5q178 0 287.5 -104.5t109.5 -275.5t-109.5 -275.5t-287.5 -104.5zM438 135q97 0 156.5 64.5t59.5 170.5t-59.5 170.5t-156.5 64.5
q-98 0 -158 -64.5t-60 -170.5t60 -170.5t158 -64.5z" />
    <glyph glyph-name="ohungarumlaut" unicode="&#x151;" horiz-adv-x="663" 
d="M142 618l106 167h196l-158 -167h-144zM365 618l106 167h196l-159 -167h-143zM333 -10q-135 0 -217.5 78t-82.5 205t82.5 204.5t217.5 77.5q133 0 215 -77.5t82 -204.5t-82 -205t-215 -78zM332 136q55 0 88.5 38t33.5 99t-33.5 99t-88.5 38t-89 -37.5t-34 -99.5t34 -99.5
t89 -37.5z" />
    <glyph glyph-name="OE" unicode="&#x152;" horiz-adv-x="1243" 
d="M836 145h359v-145h-535v63q-96 -73 -234 -73q-174 0 -280.5 104.5t-106.5 275.5t106.5 275.5t280.5 104.5q138 0 234 -73v63h527v-145h-351v-148h316v-145h-316v-157zM438 135q98 0 157.5 64.5t59.5 170.5t-59.5 170.5t-157.5 64.5t-157.5 -64.5t-59.5 -170.5
t59.5 -170.5t157.5 -64.5z" />
    <glyph glyph-name="oe" unicode="&#x153;" horiz-adv-x="1044" 
d="M1013 281q0 -43 -4 -68h-374q16 -90 105 -90q68 0 110 50l132 -64q-34 -55 -93.5 -87t-133.5 -32q-141 0 -214 103q-76 -103 -220 -103q-129 0 -208 78t-79 205t79 204.5t208 77.5q144 0 221 -104q70 104 204 104q120 0 193.5 -75t73.5 -199zM734 422q-81 0 -98 -95h199
q-17 95 -101 95zM333 136q55 0 88.5 38t33.5 99t-33.5 99t-88.5 38t-89 -37.5t-34 -99.5t34 -99.5t89 -37.5z" />
    <glyph glyph-name="Racute" unicode="&#x154;" horiz-adv-x="748" 
d="M573 980l-191 -167h-144l138 167h197zM531 0l-156 256h-118v-256h-176v740h330q119 0 192 -66.5t73 -175.5q0 -69 -33.5 -122.5t-93.5 -84.5l188 -291h-206zM257 595v-194h119q53 0 86 27t33 70q0 44 -28.5 70.5t-74.5 26.5h-135z" />
    <glyph glyph-name="racute" unicode="&#x155;" horiz-adv-x="428" 
d="M461 785l-191 -167h-144l138 167h197zM229 479q68 76 191 76l-11 -156q-78 0 -127.5 -33t-49.5 -86v-280h-170v545h164z" />
    <glyph glyph-name="Rcommaaccent" unicode="&#x156;" horiz-adv-x="748" 
d="M549 291l188 -291h-206l-156 256h-118v-256h-176v740h330q119 0 192 -66.5t73 -175.5q0 -69 -33.5 -122.5t-93.5 -84.5zM257 595v-194h119q53 0 86 27t33 70q0 44 -28.5 70.5t-74.5 26.5h-135zM268 -220l38 168h152l-62 -168h-128z" />
    <glyph glyph-name="rcommaaccent" unicode="&#x157;" horiz-adv-x="428" 
d="M229 479q68 76 191 76l-11 -156q-78 0 -127.5 -33t-49.5 -86v-280h-170v545h164zM71 -220l38 168h152l-62 -168h-128z" />
    <glyph glyph-name="Rcaron" unicode="&#x158;" horiz-adv-x="748" 
d="M263 813l-132 167h156l56 -69l56 69h155l-131 -167h-160zM531 0l-156 256h-118v-256h-176v740h330q119 0 192 -66.5t73 -175.5q0 -69 -33.5 -122.5t-93.5 -84.5l188 -291h-206zM257 595v-194h119q53 0 86 27t33 70q0 44 -28.5 70.5t-74.5 26.5h-135z" />
    <glyph glyph-name="rcaron" unicode="&#x159;" horiz-adv-x="428" 
d="M151 618l-132 167h156l56 -69l56 69h155l-131 -167h-160zM229 479q68 76 191 76l-11 -156q-78 0 -127.5 -33t-49.5 -86v-280h-170v545h164z" />
    <glyph glyph-name="Sacute" unicode="&#x15a;" horiz-adv-x="665" 
d="M227 813l138 167h197l-191 -167h-144zM331 -10q-164 0 -275 96l66 118q89 -69 199 -69q123 0 123 66q0 33 -32.5 52t-103.5 38l-38 10q-109 29 -166.5 77.5t-57.5 135.5q0 106 78.5 171t207.5 65q147 0 259 -85l-77 -122q-83 62 -180 62q-49 0 -78 -17t-29 -45
q0 -31 30 -48.5t92 -33.5l38 -11q238 -64 238 -232q0 -103 -81 -165.5t-213 -62.5z" />
    <glyph glyph-name="sacute" unicode="&#x15b;" horiz-adv-x="532" 
d="M161 618l138 167h197l-191 -167h-144zM256 -10q-136 0 -217 68l64 103q73 -39 156 -39q62 0 62 35q0 17 -20 27.5t-62 21.5l-39 10q-79 19 -119.5 52.5t-40.5 95.5q0 86 62 138.5t164 52.5q133 0 216 -57l-71 -110q-64 34 -134 34q-64 0 -64 -31q0 -25 71 -44l38 -10
q82 -21 127 -60t45 -108q0 -81 -65.5 -130t-172.5 -49z" />
    <glyph glyph-name="Scedilla" unicode="&#x15e;" horiz-adv-x="665" 
d="M625 218q0 -92 -65.5 -152.5t-176.5 -72.5l-26 -42q43 -4 69 -27.5t26 -58.5q0 -42 -37 -68.5t-99 -26.5q-63 0 -102 23l29 60q23 -16 55 -16q20 0 32 7.5t12 19.5q0 23 -38 23q-16 0 -32 -7l-21 37l39 75q-137 11 -234 94l66 118q89 -69 199 -69q123 0 123 66
q0 33 -32.5 52t-103.5 38l-38 10q-109 29 -166.5 77.5t-57.5 135.5q0 106 78.5 171t207.5 65q147 0 259 -85l-77 -122q-83 62 -180 62q-49 0 -78 -17t-29 -45q0 -31 30 -48.5t92 -33.5l38 -11q238 -64 238 -232z" />
    <glyph glyph-name="scedilla" unicode="&#x15f;" horiz-adv-x="532" 
d="M494 169q0 -69 -49 -115.5t-132 -59.5l-26 -43q43 -4 69 -27.5t26 -58.5q0 -42 -37 -68.5t-99 -26.5q-63 0 -102 23l29 60q23 -16 55 -16q20 0 32 7.5t12 19.5q0 23 -38 23q-16 0 -32 -7l-21 37l39 74q-112 9 -181 67l64 103q73 -39 156 -39q62 0 62 35q0 17 -20 27.5
t-62 21.5l-39 10q-79 19 -119.5 52.5t-40.5 95.5q0 86 62 138.5t164 52.5q133 0 216 -57l-71 -110q-64 34 -134 34q-64 0 -64 -31q0 -25 71 -44l38 -10q82 -21 127 -60t45 -108z" />
    <glyph glyph-name="Scaron" unicode="&#x160;" horiz-adv-x="665" 
d="M252 813l-132 167h156l56 -69l56 69h155l-131 -167h-160zM387 450q238 -64 238 -232q0 -103 -81 -165.5t-213 -62.5q-164 0 -275 96l66 118q89 -69 199 -69q123 0 123 66q0 33 -32.5 52t-103.5 38l-38 10q-109 29 -166.5 77.5t-57.5 135.5q0 106 78.5 171t207.5 65
q147 0 259 -85l-77 -122q-83 62 -180 62q-49 0 -78 -17t-29 -45q0 -31 30 -48.5t92 -33.5z" />
    <glyph glyph-name="scaron" unicode="&#x161;" horiz-adv-x="532" 
d="M186 618l-132 167h156l56 -69l56 69h155l-131 -167h-160zM322 337q82 -21 127 -60t45 -108q0 -81 -65.5 -130t-172.5 -49q-136 0 -217 68l64 103q73 -39 156 -39q62 0 62 35q0 17 -20 27.5t-62 21.5l-39 10q-79 19 -119.5 52.5t-40.5 95.5q0 86 62 138.5t164 52.5
q133 0 216 -57l-71 -110q-64 34 -134 34q-64 0 -64 -31q0 -25 71 -44z" />
    <glyph glyph-name="uni0162" unicode="&#x162;" horiz-adv-x="644" 
d="M410 0h-39l-30 -49q43 -4 69 -27.5t26 -58.5q0 -42 -37 -68.5t-99 -26.5q-63 0 -102 23l29 60q23 -16 55 -16q20 0 32 7.5t12 19.5q0 23 -38 23q-16 0 -32 -7l-21 37l43 83h-44v595h-219v145h614v-145h-219v-595z" />
    <glyph glyph-name="uni0163" unicode="&#x163;" horiz-adv-x="454" 
d="M284 -10q-10 0 -26 2l-25 -41q44 -4 70 -27.5t26 -58.5q0 -42 -37.5 -68.5t-99.5 -26.5q-63 0 -102 23l29 60q23 -16 55 -16q20 0 32 7.5t12 19.5q0 23 -38 23q-16 0 -32 -7l-21 37l52 103q-73 49 -73 152v234h-87v139h87v160h170v-160h142v-139h-142v-198
q0 -32 17.5 -52t45.5 -20q46 0 87 17v-136q-61 -27 -142 -27z" />
    <glyph glyph-name="Tcaron" unicode="&#x164;" horiz-adv-x="644" 
d="M241 813l-132 167h156l56 -69l56 69h155l-131 -167h-160zM629 740v-145h-219v-595h-176v595h-219v145h614z" />
    <glyph glyph-name="tcaron" unicode="&#x165;" horiz-adv-x="454" 
d="M372 780h152l-66 -187h-128zM276 208q0 -32 17.5 -52t45.5 -20q46 0 87 17v-136q-61 -27 -142 -27q-80 0 -129 50t-49 132v234h-87v139h87v160h170v-160h142v-139h-142v-198z" />
    <glyph glyph-name="Tbar" unicode="&#x166;" horiz-adv-x="644" 
d="M629 595h-219v-172h111v-121h-111v-302h-176v302h-109v121h109v172h-219v145h614v-145z" />
    <glyph glyph-name="tbar" unicode="&#x167;" horiz-adv-x="458" 
d="M339 136q46 0 87 17v-136q-61 -27 -142 -27q-80 0 -129 50t-49 132v46h-81v120h81v68h-87v139h87v160h170v-160h142v-139h-142v-68h135v-120h-135v-10q0 -32 17.5 -52t45.5 -20z" />
    <glyph glyph-name="Umacron" unicode="&#x16a;" horiz-adv-x="814" 
d="M218 807v133h379v-133h-379zM408 -10q-151 0 -243 82t-92 217v451h175v-444q0 -72 44 -116.5t116 -44.5q71 0 114.5 44.5t43.5 116.5v444h175v-451q0 -135 -91.5 -217t-241.5 -82z" />
    <glyph glyph-name="umacron" unicode="&#x16b;" horiz-adv-x="641" 
d="M507 745v-133h-379v133h379zM409 545h170v-545h-163l-3 57q-60 -67 -155 -67q-91 0 -146.5 58.5t-55.5 155.5v341h170v-316q0 -42 25 -67.5t67 -25.5q41 0 66 25.5t25 67.5v316z" />
    <glyph glyph-name="Uring" unicode="&#x16e;" horiz-adv-x="814" 
d="M408 779q-55 0 -88.5 30.5t-33.5 79.5t33.5 79t88.5 30t88 -30t33 -79q0 -50 -33 -80t-88 -30zM408 854q15 0 24.5 9.5t9.5 25.5q0 15 -9.5 24.5t-24.5 9.5q-16 0 -25.5 -9.5t-9.5 -24.5q0 -16 9.5 -25.5t25.5 -9.5zM408 -10q-151 0 -243 82t-92 217v451h175v-444
q0 -72 44 -116.5t116 -44.5q71 0 114.5 44.5t43.5 116.5v444h175v-451q0 -135 -91.5 -217t-241.5 -82z" />
    <glyph glyph-name="uring" unicode="&#x16f;" horiz-adv-x="641" 
d="M318 584q-55 0 -88.5 30.5t-33.5 79.5t33.5 79t88.5 30t88 -30t33 -79q0 -50 -33 -80t-88 -30zM318 728q-16 0 -25.5 -9.5t-9.5 -24.5q0 -16 9.5 -25.5t25.5 -9.5q15 0 24.5 9.5t9.5 25.5q0 15 -9.5 24.5t-24.5 9.5zM409 545h170v-545h-163l-3 57q-60 -67 -155 -67
q-91 0 -146.5 58.5t-55.5 155.5v341h170v-316q0 -42 25 -67.5t67 -25.5q41 0 66 25.5t25 67.5v316z" />
    <glyph glyph-name="Uhungarumlaut" unicode="&#x170;" horiz-adv-x="814" 
d="M217 813l106 167h196l-158 -167h-144zM440 813l106 167h196l-159 -167h-143zM408 -10q-151 0 -243 82t-92 217v451h175v-444q0 -72 44 -116.5t116 -44.5q71 0 114.5 44.5t43.5 116.5v444h175v-451q0 -135 -91.5 -217t-241.5 -82z" />
    <glyph glyph-name="uhungarumlaut" unicode="&#x171;" horiz-adv-x="641" 
d="M429 785l-158 -167h-144l106 167h196zM493 618h-143l106 167h196zM409 229v316h170v-545h-163l-3 57q-60 -67 -155 -67q-91 0 -146.5 58.5t-55.5 155.5v341h170v-316q0 -42 25 -67.5t67 -25.5q41 0 66 25.5t25 67.5z" />
    <glyph glyph-name="Uogonek" unicode="&#x172;" horiz-adv-x="814" 
d="M566 740h175v-451q0 -112 -64 -188.5t-174 -100.5q-84 -53 -84 -107q0 -28 31 -28q21 0 42 14l14 -81q-41 -28 -99 -28q-49 0 -79.5 26t-30.5 68q0 64 73 127q-135 11 -216 91.5t-81 206.5v451h175v-444q0 -72 44 -116.5t116 -44.5q71 0 114.5 44.5t43.5 116.5v444z" />
    <glyph glyph-name="uogonek" unicode="&#x173;" horiz-adv-x="641" 
d="M568 -121l14 -81q-41 -28 -99 -28q-49 0 -79.5 26t-30.5 68q0 68 84 136h-41l-3 57q-60 -67 -155 -67q-91 0 -146.5 58.5t-55.5 155.5v341h170v-316q0 -42 25 -67.5t67 -25.5q41 0 66 25.5t25 67.5v316h170v-545q-84 -53 -84 -107q0 -28 31 -28q21 0 42 14z" />
    <glyph glyph-name="Wcircumflex" unicode="&#x174;" horiz-adv-x="1156" 
d="M578 882l-56 -69h-156l132 167h160l131 -167h-155zM969 740h187l-250 -740h-163l-165 496l-164 -496h-163l-251 740h187l154 -505l156 505h162l157 -505z" />
    <glyph glyph-name="wcircumflex" unicode="&#x175;" horiz-adv-x="924" 
d="M461 687l-56 -69h-156l132 167h160l131 -167h-155zM733 545h186l-194 -545h-169l-94 320l-94 -320h-169l-194 545h185l105 -352l98 352h138l97 -352z" />
    <glyph glyph-name="Ycircumflex" unicode="&#x176;" horiz-adv-x="711" 
d="M356 882l-56 -69h-156l132 167h160l131 -167h-155zM517 740h186l-260 -481v-259h-175v259l-260 481h188l161 -326z" />
    <glyph glyph-name="ycircumflex" unicode="&#x177;" horiz-adv-x="621" 
d="M314 687l-56 -69h-156l132 167h160l131 -167h-155zM435 545h185l-239 -585q-40 -97 -88 -143.5t-131 -46.5q-55 0 -89 17l17 137q18 -9 44 -9q29 0 46 16t35 50l16 34l-227 530h186l128 -347z" />
    <glyph glyph-name="Ydieresis" unicode="&#x178;" horiz-adv-x="711" 
d="M224 803q-43 0 -71 27.5t-28 70.5t28 70.5t71 27.5t70.5 -27.5t27.5 -70.5t-27.5 -70.5t-70.5 -27.5zM491 803q-43 0 -71 27.5t-28 70.5t28 70.5t71 27.5t70.5 -27.5t27.5 -70.5t-27.5 -70.5t-70.5 -27.5zM517 740h186l-260 -481v-259h-175v259l-260 481h188l161 -326z
" />
    <glyph glyph-name="Zacute" unicode="&#x179;" horiz-adv-x="689" 
d="M572 980l-191 -167h-144l138 167h197zM278 145h375v-145h-616v109l364 486h-358v145h600v-108z" />
    <glyph glyph-name="zacute" unicode="&#x17a;" horiz-adv-x="565" 
d="M175 618l138 167h197l-191 -167h-144zM39 0v109l238 297h-233v139h474l1 -108l-238 -297h247v-140h-489z" />
    <glyph glyph-name="Zdotaccent" unicode="&#x17b;" horiz-adv-x="689" 
d="M343 803q-43 0 -71 27.5t-28 70.5t28 70.5t71 27.5t70.5 -27.5t27.5 -70.5t-27.5 -70.5t-70.5 -27.5zM278 145h375v-145h-616v109l364 486h-358v145h600v-108z" />
    <glyph glyph-name="zdotaccent" unicode="&#x17c;" horiz-adv-x="565" 
d="M281 608q-43 0 -71 27.5t-28 70.5t28 70.5t71 27.5t70.5 -27.5t27.5 -70.5t-27.5 -70.5t-70.5 -27.5zM39 0v109l238 297h-233v139h474l1 -108l-238 -297h247v-140h-489z" />
    <glyph glyph-name="Zcaron" unicode="&#x17d;" horiz-adv-x="689" 
d="M262 813l-132 167h156l56 -69l56 69h155l-131 -167h-160zM278 145h375v-145h-616v109l364 486h-358v145h600v-108z" />
    <glyph glyph-name="zcaron" unicode="&#x17e;" horiz-adv-x="565" 
d="M200 618l-132 167h156l56 -69l56 69h155l-131 -167h-160zM281 140h247v-140h-489v109l238 297h-233v139h474l1 -108z" />
    <glyph glyph-name="florin" unicode="&#x192;" horiz-adv-x="518" 
d="M423 605q-39 0 -55.5 -17.5t-22.5 -53.5l-21 -118h141v-139h-166l-67 -377h-170l67 377h-79v139h104l30 170q15 80 73 122t142 42q63 0 102 -17l-19 -136q-27 8 -59 8z" />
    <glyph glyph-name="Scommaaccent" unicode="&#x218;" horiz-adv-x="665" 
d="M331 -10q-164 0 -275 96l66 118q89 -69 199 -69q123 0 123 66q0 33 -32.5 52t-103.5 38l-38 10q-109 29 -166.5 77.5t-57.5 135.5q0 106 78.5 171t207.5 65q147 0 259 -85l-77 -122q-83 62 -180 62q-49 0 -78 -17t-29 -45q0 -31 30 -48.5t92 -33.5l38 -11
q238 -64 238 -232q0 -103 -81 -165.5t-213 -62.5zM219 -220l38 168h152l-62 -168h-128z" />
    <glyph glyph-name="scommaaccent" unicode="&#x219;" horiz-adv-x="532" 
d="M256 -10q-136 0 -217 68l64 103q73 -39 156 -39q62 0 62 35q0 17 -20 27.5t-62 21.5l-39 10q-79 19 -119.5 52.5t-40.5 95.5q0 86 62 138.5t164 52.5q133 0 216 -57l-71 -110q-64 34 -134 34q-64 0 -64 -31q0 -25 71 -44l38 -10q82 -21 127 -60t45 -108q0 -81 -65.5 -130
t-172.5 -49zM149 -220l38 168h152l-62 -168h-128z" />
    <glyph glyph-name="uni021A" unicode="&#x21a;" horiz-adv-x="644" 
d="M629 740v-145h-219v-595h-176v595h-219v145h614zM203 -220l38 168h152l-62 -168h-128z" />
    <glyph glyph-name="uni021B" unicode="&#x21b;" horiz-adv-x="454" 
d="M339 136q46 0 87 17v-136q-61 -27 -142 -27q-80 0 -129 50t-49 132v234h-87v139h87v160h170v-160h142v-139h-142v-198q0 -32 17.5 -52t45.5 -20zM129 -220l38 168h152l-62 -168h-128z" />
    <glyph glyph-name="circumflex" unicode="&#x2c6;" horiz-adv-x="600" 
d="M454 618h-155l-56 69l-56 -69h-156l132 167h160z" />
    <glyph glyph-name="caron" unicode="&#x2c7;" horiz-adv-x="600" 
d="M299 785h155l-131 -167h-160l-132 167h156l56 -69z" />
    <glyph glyph-name="breve" unicode="&#x2d8;" horiz-adv-x="600" 
d="M218 609q-87 0 -140 48.5t-53 127.5h127q0 -35 18.5 -57t47.5 -22q30 0 48 22t18 57h127q0 -79 -53 -127.5t-140 -48.5z" />
    <glyph glyph-name="dotaccent" unicode="&#x2d9;" horiz-adv-x="600" 
d="M143 608q-43 0 -71 27.5t-28 70.5t28 70.5t71 27.5t70.5 -27.5t27.5 -70.5t-27.5 -70.5t-70.5 -27.5z" />
    <glyph glyph-name="ring" unicode="&#x2da;" horiz-adv-x="600" 
d="M167 584q-55 0 -88.5 30.5t-33.5 79.5t33.5 79t88.5 30t88 -30t33 -79q0 -50 -33 -80t-88 -30zM167 659q15 0 24.5 9.5t9.5 25.5q0 15 -9.5 24.5t-24.5 9.5q-16 0 -25.5 -9.5t-9.5 -24.5q0 -16 9.5 -25.5t25.5 -9.5z" />
    <glyph glyph-name="ogonek" unicode="&#x2db;" horiz-adv-x="600" 
d="M159 -230q-49 0 -79.5 26t-30.5 68q0 105 206 213v-77q-84 -53 -84 -107q0 -28 31 -28q21 0 42 14l14 -81q-41 -28 -99 -28z" />
    <glyph glyph-name="tilde" unicode="&#x2dc;" horiz-adv-x="600" 
d="M310 614q-34 0 -90 24.5t-71 24.5q-34 0 -34 -39h-90q0 72 33 115.5t88 43.5q36 0 90.5 -24t70.5 -24q34 0 34 38h90q0 -75 -32.5 -117t-88.5 -42z" />
    <glyph glyph-name="hungarumlaut" unicode="&#x2dd;" horiz-adv-x="600" 
d="M113 618l106 167h196l-158 -167h-144zM336 618l106 167h196l-159 -167h-143z" />
    <glyph glyph-name="gravecomb" unicode="&#x300;" horiz-adv-x="0" 
d="M-242 618l-191 167h197l138 -167h-144z" />
    <glyph glyph-name="acutecomb" unicode="&#x301;" horiz-adv-x="0" 
d="M-309 618l138 167h197l-191 -167h-144z" />
    <glyph glyph-name="uni0302" unicode="&#x302;" horiz-adv-x="0" 
d="M-32 618h-155l-56 69l-56 -69h-156l132 167h160z" />
    <glyph glyph-name="tildecomb" unicode="&#x303;" horiz-adv-x="0" 
d="M-145 614q-33 0 -89 24.5t-72 24.5q-34 0 -34 -39h-90q0 72 33 115.5t88 43.5q36 0 90.5 -24t70.5 -24q34 0 34 38h90q0 -75 -32.5 -117t-88.5 -42z" />
    <glyph glyph-name="uni0304" unicode="&#x304;" horiz-adv-x="0" 
d="M-409 612v133h379v-133h-379z" />
    <glyph glyph-name="uni0306" unicode="&#x306;" horiz-adv-x="0" 
d="M-218 609q-87 0 -140 48.5t-53 127.5h127q0 -35 18.5 -57t47.5 -22q30 0 48 22t18 57h127q0 -79 -53 -127.5t-140 -48.5z" />
    <glyph glyph-name="uni0307" unicode="&#x307;" horiz-adv-x="0" 
d="M-142 608q-43 0 -71 27.5t-28 70.5t28 70.5t71 27.5t70.5 -27.5t27.5 -70.5t-27.5 -70.5t-70.5 -27.5z" />
    <glyph glyph-name="uni0308" unicode="&#x308;" horiz-adv-x="0" 
d="M-410 608q-43 0 -71 27.5t-28 70.5t28 70.5t71 27.5t70.5 -27.5t27.5 -70.5t-27.5 -70.5t-70.5 -27.5zM-143 608q-43 0 -71 27.5t-28 70.5t28 70.5t71 27.5t70.5 -27.5t27.5 -70.5t-27.5 -70.5t-70.5 -27.5z" />
    <glyph glyph-name="uni030A" unicode="&#x30a;" horiz-adv-x="0" 
d="M-166 584q-55 0 -88.5 30.5t-33.5 79.5t33.5 79t88.5 30t88 -30t33 -79q0 -50 -33 -80t-88 -30zM-166 659q15 0 24.5 9.5t9.5 25.5q0 15 -9.5 24.5t-24.5 9.5q-16 0 -25.5 -9.5t-9.5 -24.5q0 -16 9.5 -25.5t25.5 -9.5z" />
    <glyph glyph-name="uni030B" unicode="&#x30b;" horiz-adv-x="0" 
d="M-494 618l106 167h196l-158 -167h-144zM-271 618l106 167h196l-159 -167h-143z" />
    <glyph glyph-name="uni030C" unicode="&#x30c;" horiz-adv-x="0" 
d="M-187 785h155l-131 -167h-160l-132 167h156l56 -69z" />
    <glyph glyph-name="uni0312" unicode="&#x312;" horiz-adv-x="0" 
d="M-240 593l67 187h128l-43 -187h-152z" />
    <glyph glyph-name="uni0326" unicode="&#x326;" horiz-adv-x="0" 
d="M-212 -220l38 168h152l-62 -168h-128z" />
    <glyph glyph-name="uni0327" unicode="&#x327;" horiz-adv-x="0" 
d="M-107 -49q43 -4 69 -27.5t26 -58.5q0 -42 -37 -68.5t-99 -26.5q-63 0 -102 23l29 60q23 -16 55 -16q20 0 32 7.5t12 19.5q0 23 -38 23q-16 0 -32 -7l-21 37l43 83h93z" />
    <glyph glyph-name="uni0328" unicode="&#x328;" horiz-adv-x="0" 
d="M-109 -230q-49 0 -79.5 26t-30.5 68q0 105 206 213v-77q-84 -53 -84 -107q0 -28 31 -28q21 0 42 14l14 -81q-41 -28 -99 -28z" />
    <glyph glyph-name="uni0335" unicode="&#x335;" horiz-adv-x="0" 
d="M-537 231v121h396v-121h-396z" />
    <glyph glyph-name="uni0336" unicode="&#x336;" horiz-adv-x="0" 
d="M-884 231v121h846v-121h-846z" />
    <glyph glyph-name="uni0337" unicode="&#x337;" horiz-adv-x="0" 
d="M-264 439l165 117v-136l-165 -116v23l-161 -113v136l161 112v-23z" />
    <glyph glyph-name="uni0338" unicode="&#x338;" horiz-adv-x="0" 
d="M-450 -10l-88 54l414 706l88 -53z" />
    <glyph glyph-name="uni0394" unicode="&#x394;" horiz-adv-x="849" 
d="M506 740l311 -740h-785l311 740h163zM277 145h295l-147 377z" />
    <glyph glyph-name="uni03A9" unicode="&#x3a9;" horiz-adv-x="815" 
d="M589 168v-23h166v-145h-304v283q65 13 102.5 54.5t37.5 103.5q0 74 -50.5 119t-132.5 45t-132 -45t-50 -119q0 -61 37.5 -102.5t102.5 -55.5v-283h-305v145h167v23q-87 38 -135.5 108.5t-48.5 164.5q0 139 100.5 224t263.5 85t263 -85t100 -224q0 -93 -48 -164t-134 -109
z" />
    <glyph glyph-name="uni03BC" unicode="&#x3bc;" horiz-adv-x="648" 
d="M416 545h170v-545h-164l-2 39q-40 -49 -97 -49q-53 0 -91 44v-254h-170v765h170v-316q0 -42 25 -67.5t66 -25.5q42 0 67.5 25.5t25.5 67.5v316z" />
    <glyph glyph-name="pi" unicode="&#x3c0;" horiz-adv-x="706" 
d="M609 136q29 0 53 17v-136q-47 -27 -108 -27q-65 0 -104.5 38.5t-39.5 101.5v276h-133v-406h-170v406h-74v139h628v-139h-81v-241q0 -13 8 -21t21 -8z" />
    <glyph glyph-name="Wgrave" unicode="&#x1e80;" horiz-adv-x="1156" 
d="M684 813h-144l-191 167h197zM969 740h187l-250 -740h-163l-165 496l-164 -496h-163l-251 740h187l154 -505l156 505h162l157 -505z" />
    <glyph glyph-name="wgrave" unicode="&#x1e81;" horiz-adv-x="924" 
d="M567 618h-144l-191 167h197zM733 545h186l-194 -545h-169l-94 320l-94 -320h-169l-194 545h185l105 -352l98 352h138l97 -352z" />
    <glyph glyph-name="Wacute" unicode="&#x1e82;" horiz-adv-x="1156" 
d="M808 980l-191 -167h-144l138 167h197zM969 740h187l-250 -740h-163l-165 496l-164 -496h-163l-251 740h187l154 -505l156 505h162l157 -505z" />
    <glyph glyph-name="wacute" unicode="&#x1e83;" horiz-adv-x="924" 
d="M691 785l-191 -167h-144l138 167h197zM733 545h186l-194 -545h-169l-94 320l-94 -320h-169l-194 545h185l105 -352l98 352h138l97 -352z" />
    <glyph glyph-name="Wdieresis" unicode="&#x1e84;" horiz-adv-x="1156" 
d="M446 803q-43 0 -71 27.5t-28 70.5t28 70.5t71 27.5t70.5 -27.5t27.5 -70.5t-27.5 -70.5t-70.5 -27.5zM713 803q-43 0 -71 27.5t-28 70.5t28 70.5t71 27.5t70.5 -27.5t27.5 -70.5t-27.5 -70.5t-70.5 -27.5zM969 740h187l-250 -740h-163l-165 496l-164 -496h-163l-251 740
h187l154 -505l156 505h162l157 -505z" />
    <glyph glyph-name="wdieresis" unicode="&#x1e85;" horiz-adv-x="924" 
d="M329 608q-43 0 -71 27.5t-28 70.5t28 70.5t71 27.5t70.5 -27.5t27.5 -70.5t-27.5 -70.5t-70.5 -27.5zM596 608q-43 0 -71 27.5t-28 70.5t28 70.5t71 27.5t70.5 -27.5t27.5 -70.5t-27.5 -70.5t-70.5 -27.5zM733 545h186l-194 -545h-169l-94 320l-94 -320h-169l-194 545
h185l105 -352l98 352h138l97 -352z" />
    <glyph glyph-name="uni1E9E" unicode="&#x1e9e;" horiz-adv-x="707" 
d="M534 393q65 -27 100.5 -73t35.5 -106q0 -101 -70.5 -162.5t-185.5 -61.5q-64 0 -107 15l15 139q26 -9 61 -9q48 0 76.5 25.5t28.5 66.5q0 42 -34.5 68t-92.5 26v133q41 0 65 21t24 56q0 34 -27 54t-72 20t-72.5 -20.5t-27.5 -54.5v-530h-175v550q0 90 75.5 145t199.5 55
q126 0 203.5 -54t77.5 -142q0 -106 -98 -161z" />
    <glyph glyph-name="Ygrave" unicode="&#x1ef2;" horiz-adv-x="711" 
d="M462 813h-144l-191 167h197zM517 740h186l-260 -481v-259h-175v259l-260 481h188l161 -326z" />
    <glyph glyph-name="ygrave" unicode="&#x1ef3;" horiz-adv-x="621" 
d="M276 618l-191 167h197l138 -167h-144zM162 -230q-55 0 -89 17l17 137q18 -9 44 -9q29 0 46 16t35 50l16 34l-227 530h186l128 -347l117 347h185l-239 -585q-40 -97 -88 -143.5t-131 -46.5z" />
    <glyph glyph-name="endash" unicode="&#x2013;" horiz-adv-x="640" 
d="M58 231v121h524v-121h-524z" />
    <glyph glyph-name="emdash" unicode="&#x2014;" horiz-adv-x="1014" 
d="M58 231v121h898v-121h-898z" />
    <glyph glyph-name="quoteleft" unicode="&#x2018;" horiz-adv-x="305" 
d="M277 740l-65 -277h-177l89 277h153z" />
    <glyph glyph-name="quoteright" unicode="&#x2019;" horiz-adv-x="301" 
d="M40 463l64 277h177l-88 -277h-153z" />
    <glyph glyph-name="quotesinglbase" unicode="&#x201a;" horiz-adv-x="301" 
d="M11 -123l65 277h177l-89 -277h-153z" />
    <glyph glyph-name="quotedblleft" unicode="&#x201c;" horiz-adv-x="552" 
d="M278 741l-65 -277h-177l89 277h153zM524 741l-64 -277h-177l88 277h153z" />
    <glyph glyph-name="quotedblright" unicode="&#x201d;" horiz-adv-x="549" 
d="M40 462l64 277h177l-88 -277h-153zM286 462l65 277h177l-89 -277h-153z" />
    <glyph glyph-name="quotedblbase" unicode="&#x201e;" horiz-adv-x="547" 
d="M11 -123l65 277h177l-89 -277h-153zM258 -123l64 277h177l-88 -277h-153z" />
    <glyph glyph-name="dagger" unicode="&#x2020;" horiz-adv-x="588" 
d="M551 545v-145h-169v-620h-176v620h-169v145h169v235h176v-235h169z" />
    <glyph glyph-name="daggerdbl" unicode="&#x2021;" horiz-adv-x="588" 
d="M551 400h-169v-80h169v-145h-169v-395h-176v395h-169v145h169v80h-169v145h169v235h176v-235h169v-145z" />
    <glyph glyph-name="bullet" unicode="&#x2022;" horiz-adv-x="413" 
d="M206 166q-62 0 -99.5 37.5t-37.5 98.5q0 62 37.5 99.5t99.5 37.5t99.5 -37.5t37.5 -99.5t-37.5 -99t-99.5 -37z" />
    <glyph glyph-name="ellipsis" unicode="&#x2026;" horiz-adv-x="866" 
d="M148 -10q-44 0 -75.5 32t-31.5 76t31.5 75.5t75.5 31.5t75.5 -31.5t31.5 -75.5t-31.5 -76t-75.5 -32zM433 -10q-44 0 -75.5 32t-31.5 76t31.5 75.5t75.5 31.5t75.5 -31.5t31.5 -75.5t-31.5 -76t-75.5 -32zM718 -10q-44 0 -75.5 32t-31.5 76t31.5 75.5t75.5 31.5
t75.5 -31.5t31.5 -75.5t-31.5 -76t-75.5 -32z" />
    <glyph glyph-name="perthousand" unicode="&#x2030;" horiz-adv-x="1354" 
d="M231 403q-89 0 -144 47.5t-55 126.5q0 78 55 125.5t144 47.5t143.5 -47.5t54.5 -125.5q0 -79 -54.5 -126.5t-143.5 -47.5zM291 -10l-88 54l414 706l88 -53zM231 511q27 0 44 18t17 48t-17 47.5t-44 17.5q-28 0 -45 -17.5t-17 -47.5t17 -48t45 -18zM683 -10
q-89 0 -144 47.5t-55 126.5q0 78 55 125.5t144 47.5t143.5 -47.5t54.5 -125.5q0 -79 -54.5 -126.5t-143.5 -47.5zM1125 -10q-89 0 -144 47.5t-55 126.5q0 78 55 125.5t144 47.5t143.5 -47.5t54.5 -125.5q0 -79 -54.5 -126.5t-143.5 -47.5zM683 98q27 0 44 18t17 48t-17 47.5
t-44 17.5q-29 0 -46 -17.5t-17 -47.5t17 -48t46 -18zM1125 98q27 0 44 18t17 48t-17 47.5t-44 17.5q-28 0 -45 -17.5t-17 -47.5t17 -48t45 -18z" />
    <glyph glyph-name="guilsinglleft" unicode="&#x2039;" horiz-adv-x="427" 
d="M393 503l-176 -233l176 -232h-181l-182 232l182 233h181z" />
    <glyph glyph-name="guilsinglright" unicode="&#x203a;" horiz-adv-x="427" 
d="M215 503l182 -233l-182 -232h-181l176 232l-176 233h181z" />
    <glyph glyph-name="fraction" unicode="&#x2044;" horiz-adv-x="238" 
d="M-45 -10l-88 54l414 706l88 -53z" />
    <glyph glyph-name="uni2070" unicode="&#x2070;" horiz-adv-x="400" 
d="M202 390q-80 0 -128.5 62.5t-48.5 165.5t48.5 165.5t128.5 62.5q78 0 126 -63t48 -165t-48 -165t-126 -63zM202 478q30 0 48 38.5t18 101.5t-18 102t-48 39t-48.5 -39t-18.5 -102q0 -62 18.5 -101t48.5 -39z" />
    <glyph glyph-name="uni2074" unicode="&#x2074;" horiz-adv-x="402" 
d="M211 396v80h-198v73l223 291h83v-275h57v-89h-57v-80h-108zM116 561h98l1 129z" />
    <glyph glyph-name="uni2075" unicode="&#x2075;" horiz-adv-x="369" 
d="M150 390q-89 0 -136 38l32 77q36 -27 95 -27q41 0 65.5 18.5t24.5 49.5q0 23 -15.5 37.5t-40.5 14.5q-39 0 -56 -25l-71 10l32 257h237v-87h-146l-10 -72q8 4 33 4q65 0 106 -36.5t41 -95.5q0 -73 -53 -118t-138 -45z" />
    <glyph glyph-name="uni2076" unicode="&#x2076;" horiz-adv-x="370" 
d="M211 670q57 0 98 -38t41 -98q0 -65 -44.5 -104.5t-117.5 -39.5t-117.5 39.5t-44.5 103.5q0 70 56 148l116 159h120l-131 -171q7 1 24 1zM188 478q23 0 37.5 15.5t14.5 40.5t-14.5 40t-37.5 15t-37.5 -15t-14.5 -40t14.5 -40.5t37.5 -15.5z" />
    <glyph glyph-name="uni2077" unicode="&#x2077;" horiz-adv-x="333" 
d="M15 840h312l-145 -444h-112l119 357h-174v87z" />
    <glyph glyph-name="uni2078" unicode="&#x2078;" horiz-adv-x="386" 
d="M288 627q67 -33 67 -103q0 -61 -44.5 -97.5t-117.5 -36.5t-117.5 36t-44.5 95q0 73 68 106q-56 32 -56 94q0 57 41 91t109 34q67 0 108.5 -34t41.5 -90q0 -62 -55 -95zM193 759q-18 0 -29 -12.5t-11 -32.5t11 -32t29 -12t29 12t11 32t-11 32.5t-29 12.5zM193 478
q23 0 37.5 14.5t14.5 37.5q0 24 -14.5 38.5t-37.5 14.5t-37.5 -14.5t-14.5 -38.5q0 -23 14.5 -37.5t37.5 -14.5z" />
    <glyph glyph-name="uni2079" unicode="&#x2079;" horiz-adv-x="370" 
d="M182 846q73 0 117.5 -39.5t44.5 -103.5q0 -70 -56 -148l-116 -159h-120l131 171q-7 -1 -24 -1q-57 0 -98 38t-41 98q0 65 44.5 104.5t117.5 39.5zM130 702q0 -25 14.5 -40t37.5 -15t37.5 15t14.5 40t-14.5 40.5t-37.5 15.5t-37.5 -15.5t-14.5 -40.5z" />
    <glyph glyph-name="uni2080" unicode="&#x2080;" horiz-adv-x="400" 
d="M202 -106q-80 0 -128.5 62.5t-48.5 165.5t48.5 165.5t128.5 62.5q78 0 126 -63t48 -165t-48 -165t-126 -63zM202 -18q30 0 48 38.5t18 101.5t-18 102t-48 39t-48.5 -39t-18.5 -102q0 -62 18.5 -101t48.5 -39z" />
    <glyph glyph-name="uni2081" unicode="&#x2081;" horiz-adv-x="286" 
d="M128 -100v309l-73 -51l-53 75l151 111h82v-444h-107z" />
    <glyph glyph-name="uni2082" unicode="&#x2082;" horiz-adv-x="374" 
d="M28 -100v68l138 150q63 70 63 104q0 18 -11 29.5t-30 11.5q-21 0 -34 -15.5t-13 -39.5l-108 9q0 60 42 96.5t111 36.5q68 0 109 -33.5t41 -87.5q0 -40 -23.5 -78t-75.5 -91l-71 -73l176 1v-88h-314z" />
    <glyph glyph-name="uni2083" unicode="&#x2083;" horiz-adv-x="363" 
d="M212 176q56 -6 89.5 -42.5t33.5 -92.5q0 -67 -48 -107t-130 -40q-90 0 -139 41l40 78q34 -31 87 -31q37 0 58 16t21 43q0 25 -19 40.5t-51 15.5t-56 -15l-29 54l103 121h-131v87h267v-66z" />
    <glyph glyph-name="uni2084" unicode="&#x2084;" horiz-adv-x="402" 
d="M211 -100v80h-198v73l223 291h83v-275h57v-89h-57v-80h-108zM116 65h98l1 129z" />
    <glyph glyph-name="uni2085" unicode="&#x2085;" horiz-adv-x="369" 
d="M150 -106q-89 0 -136 38l32 77q36 -27 95 -27q41 0 65.5 18.5t24.5 49.5q0 23 -15.5 37.5t-40.5 14.5q-39 0 -56 -25l-71 10l32 257h237v-87h-146l-10 -72q8 4 33 4q65 0 106 -36.5t41 -95.5q0 -73 -53 -118t-138 -45z" />
    <glyph glyph-name="uni2086" unicode="&#x2086;" horiz-adv-x="370" 
d="M211 174q57 0 98 -38t41 -98q0 -65 -44.5 -104.5t-117.5 -39.5t-117.5 39.5t-44.5 103.5q0 70 56 148l116 159h120l-131 -171q7 1 24 1zM188 -18q23 0 37.5 15.5t14.5 40.5t-14.5 40t-37.5 15t-37.5 -15t-14.5 -40t14.5 -40.5t37.5 -15.5z" />
    <glyph glyph-name="uni2087" unicode="&#x2087;" horiz-adv-x="333" 
d="M15 344h312l-145 -444h-112l119 357h-174v87z" />
    <glyph glyph-name="uni2088" unicode="&#x2088;" horiz-adv-x="386" 
d="M288 131q67 -33 67 -103q0 -61 -44.5 -97.5t-117.5 -36.5t-117.5 36t-44.5 95q0 73 68 106q-56 32 -56 94q0 57 41 91t109 34q67 0 108.5 -34t41.5 -90q0 -62 -55 -95zM193 263q-18 0 -29 -12.5t-11 -32.5t11 -32t29 -12t29 12t11 32t-11 32.5t-29 12.5zM193 -18
q23 0 37.5 14.5t14.5 37.5q0 24 -14.5 38.5t-37.5 14.5t-37.5 -14.5t-14.5 -38.5q0 -23 14.5 -37.5t37.5 -14.5z" />
    <glyph glyph-name="uni2089" unicode="&#x2089;" horiz-adv-x="370" 
d="M182 350q73 0 117.5 -39.5t44.5 -103.5q0 -70 -56 -148l-116 -159h-120l131 171q-7 -1 -24 -1q-57 0 -98 38t-41 98q0 65 44.5 104.5t117.5 39.5zM130 206q0 -25 14.5 -40t37.5 -15t37.5 15t14.5 40t-14.5 40.5t-37.5 15.5t-37.5 -15.5t-14.5 -40.5z" />
    <glyph glyph-name="Euro" unicode="&#x20ac;" horiz-adv-x="860" 
d="M708 247l118 -106q-113 -151 -322 -151q-141 0 -241.5 66t-139.5 181h-81v107h60q-1 10 -1 29v13h-59v107h76q35 119 137.5 188t247.5 69q189 0 298 -118l-110 -113q-28 40 -77.5 63t-109.5 23q-66 0 -116.5 -29.5t-77.5 -82.5h197v-107h-224v-15q0 -18 1 -27h223v-107
h-190q61 -102 191 -102q128 0 200 112z" />
    <glyph glyph-name="uni20B9" unicode="&#x20b9;" horiz-adv-x="627" 
d="M582 740v-107h-138q42 -41 56 -98h77v-108h-76q-20 -106 -106 -163l172 -264h-206l-132 216h-11h-161v145h149q79 0 108 66h-257v108h258q-26 60 -93 60h-165v145h525z" />
    <glyph glyph-name="uni20BD" unicode="&#x20bd;" horiz-adv-x="711" 
d="M402 278h-112v-42h200v-107h-200v-129h-176v129h-59v107h59v42h-59v107h59v355h297q121 0 194.5 -62t73.5 -163q0 -107 -76 -172t-201 -65zM290 595v-172h102q50 0 78 23t28 63q0 39 -29 62.5t-77 23.5h-102z" />
    <glyph glyph-name="trademark" unicode="&#x2122;" horiz-adv-x="744" 
d="M293 780v-73h-83v-213h-88v213h-85v73h256zM686 494h-89l-10 157l-69 -157h-34l-70 157l-9 -157h-89l22 286h95l68 -158l66 158h95z" />
    <glyph glyph-name="oneeighth" unicode="&#x215b;" horiz-adv-x="910" 
d="M567 750l88 -53l-414 -707l-88 54zM235 296h-107v309l-73 -51l-53 75l151 111h82v-444zM812 231q67 -33 67 -103q0 -61 -44.5 -97.5t-117.5 -36.5t-117.5 36t-44.5 95q0 73 68 106q-56 32 -56 94q0 57 41 91t109 34q67 0 108.5 -34t41.5 -90q0 -62 -55 -95zM717 363
q-18 0 -29 -12.5t-11 -32.5t11 -32t29 -12t29 12t11 32t-11 32.5t-29 12.5zM717 82q23 0 37.5 14.5t14.5 37.5q0 24 -14.5 38.5t-37.5 14.5t-37.5 -14.5t-14.5 -38.5q0 -23 14.5 -37.5t37.5 -14.5z" />
    <glyph glyph-name="threeeighths" unicode="&#x215c;" horiz-adv-x="987" 
d="M644 750l88 -53l-414 -707l-88 54zM335 437q0 -67 -48 -107t-130 -40q-90 0 -139 41l40 78q34 -31 87 -31q37 0 58 16t21 43q0 25 -19 40.5t-51 15.5t-56 -15l-29 54l103 121h-131v87h267v-66l-96 -102q56 -6 89.5 -42.5t33.5 -92.5zM889 231q67 -33 67 -103
q0 -61 -44.5 -97.5t-117.5 -36.5t-117.5 36t-44.5 95q0 73 68 106q-56 32 -56 94q0 57 41 91t109 34q67 0 108.5 -34t41.5 -90q0 -62 -55 -95zM794 363q-18 0 -29 -12.5t-11 -32.5t11 -32t29 -12t29 12t11 32t-11 32.5t-29 12.5zM794 82q23 0 37.5 14.5t14.5 37.5
q0 24 -14.5 38.5t-37.5 14.5t-37.5 -14.5t-14.5 -38.5q0 -23 14.5 -37.5t37.5 -14.5z" />
    <glyph glyph-name="fiveeighths" unicode="&#x215d;" horiz-adv-x="993" 
d="M650 750l88 -53l-414 -707l-88 54zM341 453q0 -73 -53 -118t-138 -45q-89 0 -136 38l32 77q36 -27 95 -27q41 0 65.5 18.5t24.5 49.5q0 23 -15.5 37.5t-40.5 14.5q-39 0 -56 -25l-71 10l32 257h237v-87h-146l-10 -72q8 4 33 4q65 0 106 -36.5t41 -95.5zM895 231
q67 -33 67 -103q0 -61 -44.5 -97.5t-117.5 -36.5t-117.5 36t-44.5 95q0 73 68 106q-56 32 -56 94q0 57 41 91t109 34q67 0 108.5 -34t41.5 -90q0 -62 -55 -95zM800 363q-18 0 -29 -12.5t-11 -32.5t11 -32t29 -12t29 12t11 32t-11 32.5t-29 12.5zM800 82q23 0 37.5 14.5
t14.5 37.5q0 24 -14.5 38.5t-37.5 14.5t-37.5 -14.5t-14.5 -38.5q0 -23 14.5 -37.5t37.5 -14.5z" />
    <glyph glyph-name="seveneighths" unicode="&#x215e;" horiz-adv-x="928" 
d="M585 750l88 -53l-414 -707l-88 54zM182 296h-112l119 357h-174v87h312zM830 231q67 -33 67 -103q0 -61 -44.5 -97.5t-117.5 -36.5t-117.5 36t-44.5 95q0 73 68 106q-56 32 -56 94q0 57 41 91t109 34q67 0 108.5 -34t41.5 -90q0 -62 -55 -95zM735 363q-18 0 -29 -12.5
t-11 -32.5t11 -32t29 -12t29 12t11 32t-11 32.5t-29 12.5zM735 82q23 0 37.5 14.5t14.5 37.5q0 24 -14.5 38.5t-37.5 14.5t-37.5 -14.5t-14.5 -38.5q0 -23 14.5 -37.5t37.5 -14.5z" />
    <glyph glyph-name="partialdiff" unicode="&#x2202;" horiz-adv-x="705" 
d="M327 750q154 0 247.5 -103.5t93.5 -273.5q0 -172 -100.5 -277.5t-264.5 -105.5q-125 0 -200.5 61t-75.5 162q0 111 121 182t324 82q-18 60 -56.5 94t-90.5 34q-51 0 -93 -23t-66 -63l-110 113q101 118 271 118zM299 135q76 0 126 53.5t59 144.5q-128 -3 -205 -36.5
t-77 -86.5q0 -34 26.5 -54.5t70.5 -20.5z" />
    <glyph glyph-name="emptyset" unicode="&#x2205;" horiz-adv-x="691" 
d="M573 550q71 -77 71 -193q0 -127 -82 -205t-215 -78q-90 0 -163 38l-34 -38l-66 51l34 38q-71 77 -71 194q0 127 82.5 204.5t217.5 77.5q92 0 160 -38l34 38l66 -51zM223 357q0 -35 11 -63l167 188q-24 12 -55 12q-55 0 -89 -37.5t-34 -99.5zM346 220q55 0 88.5 38
t33.5 99q0 34 -11 62l-166 -187q24 -12 55 -12z" />
    <glyph glyph-name="product" unicode="&#x220f;" horiz-adv-x="739" 
d="M661 780v-1000h-176v855h-231v-855h-175v1000h582z" />
    <glyph glyph-name="summation" unicode="&#x2211;" horiz-adv-x="688" 
d="M34 -220v111l280 392l-270 386v111h595v-145h-383l264 -352l-275 -358h404v-145h-615z" />
    <glyph glyph-name="minus" unicode="&#x2212;" horiz-adv-x="620" 
d="M62 283v139h496v-139h-496z" />
    <glyph glyph-name="radical" unicode="&#x221a;" horiz-adv-x="802" 
d="M223 -220l-224 545h186l123 -353l304 808h186l-405 -1000h-170z" />
    <glyph glyph-name="infinity" unicode="&#x221e;" horiz-adv-x="743" 
d="M514 453q85 0 136 -47.5t51 -126.5q0 -78 -51 -125.5t-136 -47.5q-92 0 -142 66q-48 -66 -142 -66q-84 0 -135.5 47.5t-51.5 125.5t51.5 126t135.5 48q94 0 142 -67q49 67 142 67zM242 214q27 0 44 18t17 47q0 30 -17 48t-44 18q-29 0 -46 -18t-17 -48q0 -29 17.5 -47
t45.5 -18zM503 214q26 0 43 18t17 47q0 30 -17 48t-43 18q-29 0 -46 -18t-17 -48q0 -29 17.5 -47t45.5 -18z" />
    <glyph glyph-name="integral" unicode="&#x222b;" horiz-adv-x="461" 
d="M329 790q84 0 132 -51l-45 -117q-23 23 -52 23q-21 0 -33.5 -12t-12.5 -32v-673q0 -71 -52.5 -114.5t-134.5 -43.5q-83 0 -132 51l46 117q23 -23 51 -23q21 0 33.5 12t12.5 32v673q0 71 52.5 114.5t134.5 43.5z" />
    <glyph glyph-name="approxequal" unicode="&#x2248;" horiz-adv-x="610" 
d="M410 312q-43 0 -114.5 24.5t-91.5 24.5q-25 0 -39.5 -10.5t-14.5 -28.5h-90q0 71 38.5 114.5t102.5 43.5q46 0 115.5 -23.5t90.5 -23.5q54 0 54 37h90q0 -75 -38 -116.5t-103 -41.5zM410 112q-43 0 -114.5 24.5t-91.5 24.5q-25 0 -39.5 -10.5t-14.5 -28.5h-90
q0 71 38.5 114.5t102.5 43.5q46 0 115.5 -23.5t90.5 -23.5q54 0 54 37h90q0 -75 -38 -116.5t-103 -41.5z" />
    <glyph glyph-name="notequal" unicode="&#x2260;" horiz-adv-x="618" 
d="M557 390h-151l-20 -75h171v-140h-209l-32 -120h-171l32 120h-116v140h154l20 75h-174v140h212l32 120h171l-32 -120h113v-140z" />
    <glyph glyph-name="lessequal" unicode="&#x2264;" horiz-adv-x="620" 
d="M554 346v-158l-498 200v110l498 200v-159l-262 -96zM55 151h500v-140h-500v140z" />
    <glyph glyph-name="greaterequal" unicode="&#x2265;" horiz-adv-x="619" 
d="M564 388l-498 -200v158l263 97l-263 96v159l498 -200v-110zM65 151h500v-140h-500v140z" />
    <glyph glyph-name="lozenge" unicode="&#x25ca;" horiz-adv-x="649" 
d="M404 645l211 -322l-211 -323h-159l-210 323l210 322h159zM325 149l115 174l-115 174l-115 -174z" />
    <glyph glyph-name="A.ss01" horiz-adv-x="815" 
d="M408 750q150 0 242 -82t92 -216v-452h-176v198h-317v-198h-176v452q0 134 92 216t243 82zM249 343h317v102q0 72 -43 116t-114 44q-73 0 -116.5 -44t-43.5 -116v-102z" />
    <glyph glyph-name="Aacute.ss01" horiz-adv-x="815" 
d="M637 980l-191 -167h-144l138 167h197zM408 750q150 0 242 -82t92 -216v-452h-176v198h-317v-198h-176v452q0 134 92 216t243 82zM249 343h317v102q0 72 -43 116t-114 44q-73 0 -116.5 -44t-43.5 -116v-102z" />
    <glyph glyph-name="Abreve.ss01" horiz-adv-x="815" 
d="M408 804q-87 0 -140 48.5t-53 127.5h127q0 -35 18.5 -57t47.5 -22q30 0 48 22t18 57h127q0 -79 -53 -127.5t-140 -48.5zM408 750q150 0 242 -82t92 -216v-452h-176v198h-317v-198h-176v452q0 134 92 216t243 82zM249 343h317v102q0 72 -43 116t-114 44q-73 0 -116.5 -44
t-43.5 -116v-102z" />
    <glyph glyph-name="Acircumflex.ss01" horiz-adv-x="815" 
d="M407 882l-56 -69h-156l132 167h160l131 -167h-155zM408 750q150 0 242 -82t92 -216v-452h-176v198h-317v-198h-176v452q0 134 92 216t243 82zM249 343h317v102q0 72 -43 116t-114 44q-73 0 -116.5 -44t-43.5 -116v-102z" />
    <glyph glyph-name="Adieresis.ss01" horiz-adv-x="815" 
d="M275 803q-43 0 -71 27.5t-28 70.5t28 70.5t71 27.5t70.5 -27.5t27.5 -70.5t-27.5 -70.5t-70.5 -27.5zM542 803q-43 0 -71 27.5t-28 70.5t28 70.5t71 27.5t70.5 -27.5t27.5 -70.5t-27.5 -70.5t-70.5 -27.5zM408 750q150 0 242 -82t92 -216v-452h-176v198h-317v-198h-176
v452q0 134 92 216t243 82zM249 343h317v102q0 72 -43 116t-114 44q-73 0 -116.5 -44t-43.5 -116v-102z" />
    <glyph glyph-name="Agrave.ss01" horiz-adv-x="815" 
d="M513 813h-144l-191 167h197zM408 750q150 0 242 -82t92 -216v-452h-176v198h-317v-198h-176v452q0 134 92 216t243 82zM249 343h317v102q0 72 -43 116t-114 44q-73 0 -116.5 -44t-43.5 -116v-102z" />
    <glyph glyph-name="Amacron.ss01" horiz-adv-x="815" 
d="M597 940v-133h-379v133h379zM408 750q150 0 242 -82t92 -216v-452h-176v198h-317v-198h-176v452q0 134 92 216t243 82zM249 343h317v102q0 72 -43 116t-114 44q-73 0 -116.5 -44t-43.5 -116v-102z" />
    <glyph glyph-name="Aogonek.ss01" horiz-adv-x="815" 
d="M731 -121l14 -81q-41 -28 -99 -28q-49 0 -79.5 26t-30.5 68q0 68 84 136h-54v198h-317v-198h-176v452q0 134 92 216t243 82q150 0 242 -82t92 -216v-452q-84 -53 -84 -107q0 -28 31 -28q21 0 42 14zM249 343h317v102q0 72 -43 116t-114 44q-73 0 -116.5 -44t-43.5 -116
v-102z" />
    <glyph glyph-name="Aring.ss01" horiz-adv-x="815" 
d="M408 779q-55 0 -88.5 30.5t-33.5 79.5t33.5 79t88.5 30t88 -30t33 -79q0 -50 -33 -80t-88 -30zM408 923q-16 0 -25.5 -9.5t-9.5 -24.5q0 -16 9.5 -25.5t25.5 -9.5q15 0 24.5 9.5t9.5 25.5q0 15 -9.5 24.5t-24.5 9.5zM408 750q150 0 242 -82t92 -216v-452h-176v198h-317
v-198h-176v452q0 134 92 216t243 82zM249 343h317v102q0 72 -43 116t-114 44q-73 0 -116.5 -44t-43.5 -116v-102z" />
    <glyph glyph-name="Atilde.ss01" horiz-adv-x="815" 
d="M329 858q-34 0 -34 -39h-90q0 72 33 115.5t88 43.5q36 0 90.5 -24t70.5 -24q34 0 34 38h90q0 -75 -32.5 -117t-88.5 -42q-34 0 -90 24.5t-71 24.5zM408 750q150 0 242 -82t92 -216v-452h-176v198h-317v-198h-176v452q0 134 92 216t243 82zM249 343h317v102q0 72 -43 116
t-114 44q-73 0 -116.5 -44t-43.5 -116v-102z" />
    <glyph glyph-name="AE.ss01" horiz-adv-x="988" 
d="M630 145h310v-145h-485v198h-210v-198h-176v392q0 157 106.5 252.5t279.5 95.5h477v-145h-302v-148h267v-145h-267v-157zM245 385v-42h210v252q-95 0 -152.5 -57.5t-57.5 -152.5z" />
    <glyph glyph-name="J.ss01" horiz-adv-x="597" 
d="M523 740v-474q0 -124 -80.5 -200t-212.5 -76q-125 0 -218 79l87 117q51 -51 120 -51q58 0 93.5 38.5t35.5 100.5v321h-292v145h467z" />
    <glyph glyph-name="C.ss02" horiz-adv-x="648" 
d="M438 -10q-180 0 -290 104.5t-110 275.5t110 275.5t290 104.5q96 0 167 -39v-160q-59 54 -165 54q-99 0 -159.5 -64.5t-60.5 -170.5t60.5 -170.5t159.5 -64.5q104 0 165 54v-160q-71 -39 -167 -39z" />
    <glyph glyph-name="Cacute.ss02" horiz-adv-x="648" 
d="M325 813l138 167h197l-191 -167h-144zM438 -10q-180 0 -290 104.5t-110 275.5t110 275.5t290 104.5q96 0 167 -39v-160q-59 54 -165 54q-99 0 -159.5 -64.5t-60.5 -170.5t60.5 -170.5t159.5 -64.5q104 0 165 54v-160q-71 -39 -167 -39z" />
    <glyph glyph-name="Ccaron.ss02" horiz-adv-x="648" 
d="M350 813l-132 167h156l56 -69l56 69h155l-131 -167h-160zM38 370q0 171 110 275.5t290 104.5q96 0 167 -39v-160q-59 54 -165 54q-99 0 -159.5 -64.5t-60.5 -170.5t60.5 -170.5t159.5 -64.5q104 0 165 54v-160q-71 -39 -167 -39q-180 0 -290 104.5t-110 275.5z" />
    <glyph glyph-name="Ccedilla.ss02" horiz-adv-x="648" 
d="M440 605q-99 0 -159.5 -64.5t-60.5 -170.5t60.5 -170.5t159.5 -64.5q104 0 165 54v-160q-59 -32 -135 -38l-25 -40q43 -4 69 -27.5t26 -58.5q0 -42 -37 -68.5t-99 -26.5q-63 0 -102 23l29 60q23 -16 55 -16q20 0 32 7.5t12 19.5q0 23 -38 23q-16 0 -32 -7l-21 37l40 76
q-156 17 -248.5 119t-92.5 258q0 171 110 275.5t290 104.5q96 0 167 -39v-160q-59 54 -165 54z" />
    <glyph glyph-name="Cdotaccent.ss02" horiz-adv-x="648" 
d="M431 803q-43 0 -71 27.5t-28 70.5t28 70.5t71 27.5t70.5 -27.5t27.5 -70.5t-27.5 -70.5t-70.5 -27.5zM438 -10q-180 0 -290 104.5t-110 275.5t110 275.5t290 104.5q96 0 167 -39v-160q-59 54 -165 54q-99 0 -159.5 -64.5t-60.5 -170.5t60.5 -170.5t159.5 -64.5
q104 0 165 54v-160q-71 -39 -167 -39z" />
    <glyph glyph-name="Z.ss02" horiz-adv-x="627" 
d="M289 145h310v-145h-573l303 595h-297v145h561z" />
    <glyph glyph-name="Zacute.ss02" horiz-adv-x="627" 
d="M542 980l-191 -167h-144l138 167h197zM289 145h310v-145h-573l303 595h-297v145h561z" />
    <glyph glyph-name="Zcaron.ss02" horiz-adv-x="627" 
d="M232 813l-132 167h156l56 -69l56 69h155l-131 -167h-160zM289 145h310v-145h-573l303 595h-297v145h561z" />
    <glyph glyph-name="Zdotaccent.ss02" horiz-adv-x="627" 
d="M313 803q-43 0 -71 27.5t-28 70.5t28 70.5t71 27.5t70.5 -27.5t27.5 -70.5t-27.5 -70.5t-70.5 -27.5zM289 145h310v-145h-573l303 595h-297v145h561z" />
    <glyph glyph-name="i.loclTRK" horiz-adv-x="295" 
d="M148 608q-43 0 -71 27.5t-28 70.5t28 70.5t71 27.5t70.5 -27.5t27.5 -70.5t-27.5 -70.5t-70.5 -27.5zM62 0v545h170v-545h-170z" />
    <glyph glyph-name="a.ss01" horiz-adv-x="687" 
d="M462 545h163v-545h-163l-3 67q-58 -77 -166 -77q-110 0 -185 78t-75 202q0 125 75 205t185 80q108 0 166 -78zM332 136q56 0 89.5 37.5t33.5 99.5q0 61 -34 99t-89 38t-89 -38t-34 -100q0 -61 34 -98.5t89 -37.5z" />
    <glyph glyph-name="aacute.ss01" horiz-adv-x="687" 
d="M569 785l-191 -167h-144l138 167h197zM462 545h163v-545h-163l-3 67q-58 -77 -166 -77q-110 0 -185 78t-75 202q0 125 75 205t185 80q108 0 166 -78zM332 136q56 0 89.5 37.5t33.5 99.5q0 61 -34 99t-89 38t-89 -38t-34 -100q0 -61 34 -98.5t89 -37.5z" />
    <glyph glyph-name="abreve.ss01" horiz-adv-x="687" 
d="M340 609q-87 0 -140 48.5t-53 127.5h127q0 -35 18.5 -57t47.5 -22q30 0 48 22t18 57h127q0 -79 -53 -127.5t-140 -48.5zM462 545h163v-545h-163l-3 67q-58 -77 -166 -77q-110 0 -185 78t-75 202q0 125 75 205t185 80q108 0 166 -78zM332 136q56 0 89.5 37.5t33.5 99.5
q0 61 -34 99t-89 38t-89 -38t-34 -100q0 -61 34 -98.5t89 -37.5z" />
    <glyph glyph-name="acircumflex.ss01" horiz-adv-x="687" 
d="M339 687l-56 -69h-156l132 167h160l131 -167h-155zM462 545h163v-545h-163l-3 67q-58 -77 -166 -77q-110 0 -185 78t-75 202q0 125 75 205t185 80q108 0 166 -78zM332 136q56 0 89.5 37.5t33.5 99.5q0 61 -34 99t-89 38t-89 -38t-34 -100q0 -61 34 -98.5t89 -37.5z" />
    <glyph glyph-name="adieresis.ss01" horiz-adv-x="687" 
d="M207 608q-43 0 -71 27.5t-28 70.5t28 70.5t71 27.5t70.5 -27.5t27.5 -70.5t-27.5 -70.5t-70.5 -27.5zM474 608q-43 0 -71 27.5t-28 70.5t28 70.5t71 27.5t70.5 -27.5t27.5 -70.5t-27.5 -70.5t-70.5 -27.5zM462 545h163v-545h-163l-3 67q-58 -77 -166 -77q-110 0 -185 78
t-75 202q0 125 75 205t185 80q108 0 166 -78zM332 136q56 0 89.5 37.5t33.5 99.5q0 61 -34 99t-89 38t-89 -38t-34 -100q0 -61 34 -98.5t89 -37.5z" />
    <glyph glyph-name="agrave.ss01" horiz-adv-x="687" 
d="M445 618h-144l-191 167h197zM462 545h163v-545h-163l-3 67q-58 -77 -166 -77q-110 0 -185 78t-75 202q0 125 75 205t185 80q108 0 166 -78zM332 136q56 0 89.5 37.5t33.5 99.5q0 61 -34 99t-89 38t-89 -38t-34 -100q0 -61 34 -98.5t89 -37.5z" />
    <glyph glyph-name="amacron.ss01" horiz-adv-x="687" 
d="M529 745v-133h-379v133h379zM462 545h163v-545h-163l-3 67q-58 -77 -166 -77q-110 0 -185 78t-75 202q0 125 75 205t185 80q108 0 166 -78zM332 136q56 0 89.5 37.5t33.5 99.5q0 61 -34 99t-89 38t-89 -38t-34 -100q0 -61 34 -98.5t89 -37.5z" />
    <glyph glyph-name="aogonek.ss01" horiz-adv-x="687" 
d="M614 -121l14 -81q-41 -28 -99 -28q-49 0 -79.5 26t-30.5 68q0 68 84 136h-41l-3 67q-58 -77 -166 -77q-110 0 -185 78t-75 202q0 125 75 205t185 80q108 0 166 -78l3 68h163v-545q-84 -53 -84 -107q0 -28 31 -28q21 0 42 14zM332 136q56 0 89.5 37.5t33.5 99.5
q0 61 -34 99t-89 38t-89 -38t-34 -100q0 -61 34 -98.5t89 -37.5z" />
    <glyph glyph-name="aring.ss01" horiz-adv-x="687" 
d="M340 584q-55 0 -88.5 30.5t-33.5 79.5t33.5 79t88.5 30t88 -30t33 -79q0 -50 -33 -80t-88 -30zM340 728q-16 0 -25.5 -9.5t-9.5 -24.5q0 -16 9.5 -25.5t25.5 -9.5q15 0 24.5 9.5t9.5 25.5q0 15 -9.5 24.5t-24.5 9.5zM462 545h163v-545h-163l-3 67q-58 -77 -166 -77
q-110 0 -185 78t-75 202q0 125 75 205t185 80q108 0 166 -78zM332 136q56 0 89.5 37.5t33.5 99.5q0 61 -34 99t-89 38t-89 -38t-34 -100q0 -61 34 -98.5t89 -37.5z" />
    <glyph glyph-name="atilde.ss01" horiz-adv-x="687" 
d="M261 663q-34 0 -34 -39h-90q0 72 33 115.5t88 43.5q36 0 90.5 -24t70.5 -24q34 0 34 38h90q0 -75 -32.5 -117t-88.5 -42q-34 0 -90 24.5t-71 24.5zM462 545h163v-545h-163l-3 67q-58 -77 -166 -77q-110 0 -185 78t-75 202q0 125 75 205t185 80q108 0 166 -78zM332 136
q56 0 89.5 37.5t33.5 99.5q0 61 -34 99t-89 38t-89 -38t-34 -100q0 -61 34 -98.5t89 -37.5z" />
    <glyph glyph-name="f.ss01" horiz-adv-x="373" 
d="M303 645q-32 0 -51.5 -17t-19.5 -45v-38h123v-139h-123v-406h-170v609q0 82 51 131.5t134 49.5q77 0 125 -22l-11 -132q-24 9 -58 9z" />
    <glyph glyph-name="j.ss01" horiz-adv-x="295" 
d="M147 608q-43 0 -70.5 27.5t-27.5 70.5t27.5 70.5t70.5 27.5t70.5 -27.5t27.5 -70.5t-27.5 -70.5t-70.5 -27.5zM62 -220v765h170v-765h-170z" />
    <glyph glyph-name="t.ss01" horiz-adv-x="405" 
d="M290 136q46 0 87 17v-136q-61 -27 -142 -27q-80 0 -129 50t-49 132v533h170v-160h142v-139h-142v-198q0 -32 17.5 -52t45.5 -20z" />
    <glyph glyph-name="tbar.ss01" horiz-adv-x="405" 
d="M290 136q46 0 87 17v-136q-61 -27 -142 -27q-80 0 -129 50t-49 132v533h170v-160h142v-139h-142v-68h131v-120h-131v-10q0 -32 17.5 -52t45.5 -20z" />
    <glyph glyph-name="tcaron.ss01" horiz-adv-x="405" 
d="M323 780h152l-66 -187h-128zM227 208q0 -32 17.5 -52t45.5 -20q46 0 87 17v-136q-61 -27 -142 -27q-80 0 -129 50t-49 132v533h170v-160h142v-139h-142v-198z" />
    <glyph glyph-name="uni0163.ss01" horiz-adv-x="405" 
d="M235 -10q-10 0 -26 2l-25 -41q44 -4 70 -27.5t26 -58.5q0 -42 -37.5 -68.5t-99.5 -26.5q-63 0 -102 23l29 60q23 -16 55 -16q20 0 32 7.5t12 19.5q0 23 -38 23q-16 0 -32 -7l-21 37l52 103q-73 49 -73 152v533h170v-160h142v-139h-142v-198q0 -32 17.5 -52t45.5 -20
q46 0 87 17v-136q-61 -27 -142 -27z" />
    <glyph glyph-name="uni021B.ss01" horiz-adv-x="405" 
d="M290 136q46 0 87 17v-136q-61 -27 -142 -27q-80 0 -129 50t-49 132v533h170v-160h142v-139h-142v-198q0 -32 17.5 -52t45.5 -20zM89 -220l38 168h152l-62 -168h-128z" />
    <glyph glyph-name="u.ss01" horiz-adv-x="634" 
d="M317 -10q-118 0 -190 64t-72 168v323h170v-316q0 -42 25.5 -67.5t66.5 -25.5t66.5 25.5t25.5 67.5v316h170v-323q0 -104 -72 -168t-190 -64z" />
    <glyph glyph-name="uacute.ss01" horiz-adv-x="634" 
d="M211 618l138 167h197l-191 -167h-144zM317 -10q-118 0 -190 64t-72 168v323h170v-316q0 -42 25.5 -67.5t66.5 -25.5t66.5 25.5t25.5 67.5v316h170v-323q0 -104 -72 -168t-190 -64z" />
    <glyph glyph-name="ucircumflex.ss01" horiz-adv-x="634" 
d="M316 687l-56 -69h-156l132 167h160l131 -167h-155zM409 545h170v-323q0 -104 -72 -168t-190 -64t-190 64t-72 168v323h170v-316q0 -42 25.5 -67.5t66.5 -25.5t66.5 25.5t25.5 67.5v316z" />
    <glyph glyph-name="udieresis.ss01" horiz-adv-x="634" 
d="M184 608q-43 0 -71 27.5t-28 70.5t28 70.5t71 27.5t70.5 -27.5t27.5 -70.5t-27.5 -70.5t-70.5 -27.5zM451 608q-43 0 -71 27.5t-28 70.5t28 70.5t71 27.5t70.5 -27.5t27.5 -70.5t-27.5 -70.5t-70.5 -27.5zM317 -10q-118 0 -190 64t-72 168v323h170v-316q0 -42 25.5 -67.5
t66.5 -25.5t66.5 25.5t25.5 67.5v316h170v-323q0 -104 -72 -168t-190 -64z" />
    <glyph glyph-name="ugrave.ss01" horiz-adv-x="634" 
d="M278 618l-191 167h197l138 -167h-144zM317 -10q-118 0 -190 64t-72 168v323h170v-316q0 -42 25.5 -67.5t66.5 -25.5t66.5 25.5t25.5 67.5v316h170v-323q0 -104 -72 -168t-190 -64z" />
    <glyph glyph-name="uhungarumlaut.ss01" horiz-adv-x="634" 
d="M126 618l106 167h196l-158 -167h-144zM349 618l106 167h196l-159 -167h-143zM317 -10q-118 0 -190 64t-72 168v323h170v-316q0 -42 25.5 -67.5t66.5 -25.5t66.5 25.5t25.5 67.5v316h170v-323q0 -104 -72 -168t-190 -64z" />
    <glyph glyph-name="umacron.ss01" horiz-adv-x="634" 
d="M127 612v133h379v-133h-379zM317 -10q-118 0 -190 64t-72 168v323h170v-316q0 -42 25.5 -67.5t66.5 -25.5t66.5 25.5t25.5 67.5v316h170v-323q0 -104 -72 -168t-190 -64z" />
    <glyph glyph-name="uogonek.ss01" horiz-adv-x="634" 
d="M409 545h170v-323q0 -84 -48 -143t-130 -79q-84 -53 -84 -107q0 -28 31 -28q21 0 42 14l14 -81q-41 -28 -99 -28q-49 0 -79.5 26t-30.5 68q0 66 75 129q-99 13 -157 74.5t-58 154.5v323h170v-316q0 -42 25.5 -67.5t66.5 -25.5t66.5 25.5t25.5 67.5v316z" />
    <glyph glyph-name="uring.ss01" horiz-adv-x="634" 
d="M317 584q-55 0 -88.5 30.5t-33.5 79.5t33.5 79t88.5 30t88 -30t33 -79q0 -50 -33 -80t-88 -30zM317 659q15 0 24.5 9.5t9.5 25.5q0 15 -9.5 24.5t-24.5 9.5q-16 0 -25.5 -9.5t-9.5 -24.5q0 -16 9.5 -25.5t25.5 -9.5zM317 -10q-118 0 -190 64t-72 168v323h170v-316
q0 -42 25.5 -67.5t66.5 -25.5t66.5 25.5t25.5 67.5v316h170v-323q0 -104 -72 -168t-190 -64z" />
    <glyph glyph-name="y.ss01" horiz-adv-x="641" 
d="M409 545h170v-488q0 -130 -85.5 -208.5t-226.5 -78.5q-134 0 -216 67l37 133q74 -55 175 -55q64 0 104 37.5t42 99.5q-59 -62 -151 -62q-91 0 -146.5 58.5t-55.5 155.5v341h170v-316q0 -42 25 -67.5t67 -25.5q41 0 66 25.5t25 67.5v316z" />
    <glyph glyph-name="yacute.ss01" horiz-adv-x="641" 
d="M542 785l-191 -167h-144l138 167h197zM409 545h170v-488q0 -130 -85.5 -208.5t-226.5 -78.5q-134 0 -216 67l37 133q74 -55 175 -55q64 0 104 37.5t42 99.5q-59 -62 -151 -62q-91 0 -146.5 58.5t-55.5 155.5v341h170v-316q0 -42 25 -67.5t67 -25.5q41 0 66 25.5t25 67.5
v316z" />
    <glyph glyph-name="ycircumflex.ss01" horiz-adv-x="641" 
d="M312 687l-56 -69h-156l132 167h160l131 -167h-155zM409 545h170v-488q0 -130 -85.5 -208.5t-226.5 -78.5q-134 0 -216 67l37 133q74 -55 175 -55q64 0 104 37.5t42 99.5q-59 -62 -151 -62q-91 0 -146.5 58.5t-55.5 155.5v341h170v-316q0 -42 25 -67.5t67 -25.5
q41 0 66 25.5t25 67.5v316z" />
    <glyph glyph-name="ydieresis.ss01" horiz-adv-x="641" 
d="M180 608q-43 0 -71 27.5t-28 70.5t28 70.5t71 27.5t70.5 -27.5t27.5 -70.5t-27.5 -70.5t-70.5 -27.5zM447 608q-43 0 -71 27.5t-28 70.5t28 70.5t71 27.5t70.5 -27.5t27.5 -70.5t-27.5 -70.5t-70.5 -27.5zM409 545h170v-488q0 -130 -85.5 -208.5t-226.5 -78.5
q-134 0 -216 67l37 133q74 -55 175 -55q64 0 104 37.5t42 99.5q-59 -62 -151 -62q-91 0 -146.5 58.5t-55.5 155.5v341h170v-316q0 -42 25 -67.5t67 -25.5q41 0 66 25.5t25 67.5v316z" />
    <glyph glyph-name="ygrave.ss01" horiz-adv-x="641" 
d="M418 618h-144l-191 167h197zM409 545h170v-488q0 -130 -85.5 -208.5t-226.5 -78.5q-134 0 -216 67l37 133q74 -55 175 -55q64 0 104 37.5t42 99.5q-59 -62 -151 -62q-91 0 -146.5 58.5t-55.5 155.5v341h170v-316q0 -42 25 -67.5t67 -25.5q41 0 66 25.5t25 67.5v316z" />
    <glyph glyph-name="a.ss02" horiz-adv-x="598" 
d="M63 545h473v-545h-164l-2 62q-55 -72 -148 -72q-87 0 -140 48t-53 127q0 80 65 129t171 49q51 0 101 -10v79h-303v133zM271 111q40 0 67 29.5t28 78.5q-45 8 -79 8q-37 0 -59.5 -16.5t-22.5 -42.5q0 -57 66 -57z" />
    <glyph glyph-name="aacute.ss02" horiz-adv-x="598" 
d="M534 785l-191 -167h-144l138 167h197zM63 545h473v-545h-164l-2 62q-55 -72 -148 -72q-87 0 -140 48t-53 127q0 80 65 129t171 49q51 0 101 -10v79h-303v133zM271 111q40 0 67 29.5t28 78.5q-45 8 -79 8q-37 0 -59.5 -16.5t-22.5 -42.5q0 -57 66 -57z" />
    <glyph glyph-name="abreve.ss02" horiz-adv-x="598" 
d="M305 609q-87 0 -140 48.5t-53 127.5h127q0 -35 18.5 -57t47.5 -22q30 0 48 22t18 57h127q0 -79 -53 -127.5t-140 -48.5zM63 545h473v-545h-164l-2 62q-55 -72 -148 -72q-87 0 -140 48t-53 127q0 80 65 129t171 49q51 0 101 -10v79h-303v133zM271 111q40 0 67 29.5
t28 78.5q-45 8 -79 8q-37 0 -59.5 -16.5t-22.5 -42.5q0 -57 66 -57z" />
    <glyph glyph-name="acircumflex.ss02" horiz-adv-x="598" 
d="M304 687l-56 -69h-156l132 167h160l131 -167h-155zM63 545h473v-545h-164l-2 62q-55 -72 -148 -72q-87 0 -140 48t-53 127q0 80 65 129t171 49q51 0 101 -10v79h-303v133zM271 111q40 0 67 29.5t28 78.5q-45 8 -79 8q-37 0 -59.5 -16.5t-22.5 -42.5q0 -57 66 -57z" />
    <glyph glyph-name="adieresis.ss02" horiz-adv-x="598" 
d="M172 608q-43 0 -71 27.5t-28 70.5t28 70.5t71 27.5t70.5 -27.5t27.5 -70.5t-27.5 -70.5t-70.5 -27.5zM439 608q-43 0 -71 27.5t-28 70.5t28 70.5t71 27.5t70.5 -27.5t27.5 -70.5t-27.5 -70.5t-70.5 -27.5zM63 412v133h473v-545h-164l-2 62q-55 -72 -148 -72
q-87 0 -140 48t-53 127q0 80 65 129t171 49q51 0 101 -10v79h-303zM271 111q40 0 67 29.5t28 78.5q-45 8 -79 8q-37 0 -59.5 -16.5t-22.5 -42.5q0 -57 66 -57z" />
    <glyph glyph-name="agrave.ss02" horiz-adv-x="598" 
d="M410 618h-144l-191 167h197zM63 545h473v-545h-164l-2 62q-55 -72 -148 -72q-87 0 -140 48t-53 127q0 80 65 129t171 49q51 0 101 -10v79h-303v133zM271 111q40 0 67 29.5t28 78.5q-45 8 -79 8q-37 0 -59.5 -16.5t-22.5 -42.5q0 -57 66 -57z" />
    <glyph glyph-name="amacron.ss02" horiz-adv-x="598" 
d="M494 745v-133h-379v133h379zM63 545h473v-545h-164l-2 62q-55 -72 -148 -72q-87 0 -140 48t-53 127q0 80 65 129t171 49q51 0 101 -10v79h-303v133zM271 111q40 0 67 29.5t28 78.5q-45 8 -79 8q-37 0 -59.5 -16.5t-22.5 -42.5q0 -57 66 -57z" />
    <glyph glyph-name="aogonek.ss02" horiz-adv-x="598" 
d="M525 -121l14 -81q-41 -28 -99 -28q-49 0 -79.5 26t-30.5 68q0 68 84 136h-42l-2 62q-55 -72 -148 -72q-87 0 -140 48t-53 127q0 80 65 129t171 49q51 0 101 -10v79h-303v133h473v-545q-84 -53 -84 -107q0 -28 31 -28q21 0 42 14zM271 111q40 0 67 29.5t28 78.5
q-45 8 -79 8q-37 0 -59.5 -16.5t-22.5 -42.5q0 -57 66 -57z" />
    <glyph glyph-name="aring.ss02" horiz-adv-x="598" 
d="M305 584q-55 0 -88.5 30.5t-33.5 79.5t33.5 79t88.5 30t88 -30t33 -79q0 -50 -33 -80t-88 -30zM305 728q-16 0 -25.5 -9.5t-9.5 -24.5q0 -16 9.5 -25.5t25.5 -9.5q15 0 24.5 9.5t9.5 25.5q0 15 -9.5 24.5t-24.5 9.5zM63 545h473v-545h-164l-2 62q-55 -72 -148 -72
q-87 0 -140 48t-53 127q0 80 65 129t171 49q51 0 101 -10v79h-303v133zM271 111q40 0 67 29.5t28 78.5q-45 8 -79 8q-37 0 -59.5 -16.5t-22.5 -42.5q0 -57 66 -57z" />
    <glyph glyph-name="atilde.ss02" horiz-adv-x="598" 
d="M226 663q-34 0 -34 -39h-90q0 72 33 115.5t88 43.5q36 0 90.5 -24t70.5 -24q34 0 34 38h90q0 -75 -32.5 -117t-88.5 -42q-33 0 -89 24.5t-72 24.5zM63 545h473v-545h-164l-2 62q-55 -72 -148 -72q-87 0 -140 48t-53 127q0 80 65 129t171 49q51 0 101 -10v79h-303v133z
M271 111q40 0 67 29.5t28 78.5q-45 8 -79 8q-37 0 -59.5 -16.5t-22.5 -42.5q0 -57 66 -57z" />
    <glyph glyph-name="c.ss02" horiz-adv-x="490" 
d="M335 -10q-136 0 -219 78t-83 205t83 204.5t219 77.5q59 0 107 -23v-157q-37 35 -98 35q-60 0 -97 -38t-37 -99t37 -99t97 -38q67 0 103 38v-156q-42 -28 -112 -28z" />
    <glyph glyph-name="cacute.ss02" horiz-adv-x="490" 
d="M215 618l138 167h197l-191 -167h-144zM335 -10q-136 0 -219 78t-83 205t83 204.5t219 77.5q59 0 107 -23v-157q-37 35 -98 35q-60 0 -97 -38t-37 -99t37 -99t97 -38q67 0 103 38v-156q-42 -28 -112 -28z" />
    <glyph glyph-name="ccaron.ss02" horiz-adv-x="490" 
d="M240 618l-132 167h156l56 -69l56 69h155l-131 -167h-160zM344 136q67 0 103 38v-156q-42 -28 -112 -28q-136 0 -219 78t-83 205t83 204.5t219 77.5q59 0 107 -23v-157q-37 35 -98 35q-60 0 -97 -38t-37 -99t37 -99t97 -38z" />
    <glyph glyph-name="ccedilla.ss02" horiz-adv-x="490" 
d="M447 18q-34 -22 -98 -28l-24 -39q43 -4 69 -27.5t26 -58.5q0 -42 -37 -68.5t-99 -26.5q-63 0 -102 23l29 60q23 -16 55 -16q20 0 32 7.5t12 19.5q0 23 -38 23q-16 0 -32 -7l-21 37l41 80q-104 20 -165.5 94t-61.5 182q0 127 83 204.5t219 77.5q59 0 107 -23v-157
q-37 35 -98 35q-60 0 -97 -38t-37 -99t37 -99t97 -38q67 0 103 38v-156z" />
    <glyph glyph-name="cdotaccent.ss02" horiz-adv-x="490" 
d="M321 608q-43 0 -71 27.5t-28 70.5t28 70.5t71 27.5t70.5 -27.5t27.5 -70.5t-27.5 -70.5t-70.5 -27.5zM335 -10q-136 0 -219 78t-83 205t83 204.5t219 77.5q59 0 107 -23v-157q-37 35 -98 35q-60 0 -97 -38t-37 -99t37 -99t97 -38q67 0 103 38v-156q-42 -28 -112 -28z" />
    <glyph glyph-name="f.ss02" horiz-adv-x="423" 
d="M417 641h-134v-96h123v-139h-123v-406h-170v406h-85v139h85v235h304v-139z" />
    <glyph glyph-name="g.ss02" horiz-adv-x="687" 
d="M463 545h163v-765h-560v139h390v144q-59 -73 -162 -73q-110 0 -185 80t-75 205q0 124 75 202t185 78q108 0 166 -77zM333 136q55 0 89 37.5t34 99.5t-34 99.5t-89 37.5t-89 -37.5t-34 -98.5q0 -62 34 -100t89 -38z" />
    <glyph glyph-name="gbreve.ss02" horiz-adv-x="687" 
d="M342 609q-87 0 -140 48.5t-53 127.5h127q0 -35 18.5 -57t47.5 -22q30 0 48 22t18 57h127q0 -79 -53 -127.5t-140 -48.5zM463 545h163v-765h-560v139h390v144q-59 -73 -162 -73q-110 0 -185 80t-75 205q0 124 75 202t185 78q108 0 166 -77zM333 136q55 0 89 37.5t34 99.5
t-34 99.5t-89 37.5t-89 -37.5t-34 -98.5q0 -62 34 -100t89 -38z" />
    <glyph glyph-name="gcommaaccent.ss02" horiz-adv-x="687" 
d="M447 780l-43 -187h-152l67 187h128zM463 545h163v-765h-560v139h390v144q-59 -73 -162 -73q-110 0 -185 80t-75 205q0 124 75 202t185 78q108 0 166 -77zM333 136q55 0 89 37.5t34 99.5t-34 99.5t-89 37.5t-89 -37.5t-34 -98.5q0 -62 34 -100t89 -38z" />
    <glyph glyph-name="gdotaccent.ss02" horiz-adv-x="687" 
d="M342 608q-43 0 -71 27.5t-28 70.5t28 70.5t71 27.5t70.5 -27.5t27.5 -70.5t-27.5 -70.5t-70.5 -27.5zM463 545h163v-765h-560v139h390v144q-59 -73 -162 -73q-110 0 -185 80t-75 205q0 124 75 202t185 78q108 0 166 -77zM333 136q55 0 89 37.5t34 99.5t-34 99.5t-89 37.5
t-89 -37.5t-34 -98.5q0 -62 34 -100t89 -38z" />
    <glyph glyph-name="j.ss02" horiz-adv-x="295" 
d="M147 608q-43 0 -70.5 27.5t-27.5 70.5t27.5 70.5t70.5 27.5t70.5 -27.5t27.5 -70.5t-27.5 -70.5t-70.5 -27.5zM62 -220v765h170v-765h-170z" />
    <glyph glyph-name="l.ss02" horiz-adv-x="347" 
d="M63 0v780h170v-640h95v-140h-265z" />
    <glyph glyph-name="lacute.ss02" horiz-adv-x="347" 
d="M43 853l138 167h197l-191 -167h-144zM63 0v780h170v-640h95v-140h-265z" />
    <glyph glyph-name="lcaron.ss02" horiz-adv-x="367" 
d="M63 0v780h170v-640h95v-140h-265zM281 593l42 187h152l-66 -187h-128z" />
    <glyph glyph-name="lcommaaccent.ss02" horiz-adv-x="347" 
d="M63 0v780h170v-640h95v-140h-265zM80 -220l38 168h152l-62 -168h-128z" />
    <glyph glyph-name="lslash.ss02" horiz-adv-x="347" 
d="M233 140h95v-140h-265v263l-77 -54v136l77 54v381h170v-285l79 56v-136l-79 -56v-219z" />
    <glyph glyph-name="t.ss02" horiz-adv-x="420" 
d="M402 545v-139h-105v-406h-170v406h-104v139h104v160h170v-160h105z" />
    <glyph glyph-name="tbar.ss02" horiz-adv-x="421" 
d="M402 406h-105v-81h98v-121h-98v-204h-170v204h-97v121h97v81h-104v139h104v160h170v-160h105v-139z" />
    <glyph glyph-name="tcaron.ss02" horiz-adv-x="420" 
d="M393 780h152l-66 -187h-128zM297 705v-160h105v-139h-105v-406h-170v406h-104v139h104v160h170z" />
    <glyph glyph-name="uni0163.ss02" horiz-adv-x="420" 
d="M297 0h-36l-29 -49q44 -4 69.5 -27t25.5 -59q0 -43 -37 -69t-100 -26q-61 0 -102 23l29 60q23 -16 55 -16q44 0 44 27q0 23 -37 23q-15 0 -33 -7l-21 37l44 83h-42v406h-104v139h104v160h170v-160h105v-139h-105v-406z" />
    <glyph glyph-name="uni021B.ss02" horiz-adv-x="420" 
d="M402 545v-139h-105v-406h-170v406h-104v139h104v160h170v-160h105zM94 -220l38 168h152l-62 -168h-128z" />
    <glyph glyph-name="u.ss02" horiz-adv-x="634" 
d="M317 -10q-118 0 -190 64t-72 168v323h170v-316q0 -42 25.5 -67.5t66.5 -25.5t66.5 25.5t25.5 67.5v316h170v-323q0 -104 -72 -168t-190 -64z" />
    <glyph glyph-name="uacute.ss02" horiz-adv-x="634" 
d="M211 618l138 167h197l-191 -167h-144zM317 -10q-118 0 -190 64t-72 168v323h170v-316q0 -42 25.5 -67.5t66.5 -25.5t66.5 25.5t25.5 67.5v316h170v-323q0 -104 -72 -168t-190 -64z" />
    <glyph glyph-name="ucircumflex.ss02" horiz-adv-x="634" 
d="M316 687l-56 -69h-156l132 167h160l131 -167h-155zM409 545h170v-323q0 -104 -72 -168t-190 -64t-190 64t-72 168v323h170v-316q0 -42 25.5 -67.5t66.5 -25.5t66.5 25.5t25.5 67.5v316z" />
    <glyph glyph-name="udieresis.ss02" horiz-adv-x="634" 
d="M184 608q-43 0 -71 27.5t-28 70.5t28 70.5t71 27.5t70.5 -27.5t27.5 -70.5t-27.5 -70.5t-70.5 -27.5zM451 608q-43 0 -71 27.5t-28 70.5t28 70.5t71 27.5t70.5 -27.5t27.5 -70.5t-27.5 -70.5t-70.5 -27.5zM317 -10q-118 0 -190 64t-72 168v323h170v-316q0 -42 25.5 -67.5
t66.5 -25.5t66.5 25.5t25.5 67.5v316h170v-323q0 -104 -72 -168t-190 -64z" />
    <glyph glyph-name="ugrave.ss02" horiz-adv-x="634" 
d="M278 618l-191 167h197l138 -167h-144zM317 -10q-118 0 -190 64t-72 168v323h170v-316q0 -42 25.5 -67.5t66.5 -25.5t66.5 25.5t25.5 67.5v316h170v-323q0 -104 -72 -168t-190 -64z" />
    <glyph glyph-name="uhungarumlaut.ss02" horiz-adv-x="634" 
d="M126 618l106 167h196l-158 -167h-144zM349 618l106 167h196l-159 -167h-143zM317 -10q-118 0 -190 64t-72 168v323h170v-316q0 -42 25.5 -67.5t66.5 -25.5t66.5 25.5t25.5 67.5v316h170v-323q0 -104 -72 -168t-190 -64z" />
    <glyph glyph-name="umacron.ss02" horiz-adv-x="634" 
d="M127 612v133h379v-133h-379zM317 -10q-118 0 -190 64t-72 168v323h170v-316q0 -42 25.5 -67.5t66.5 -25.5t66.5 25.5t25.5 67.5v316h170v-323q0 -104 -72 -168t-190 -64z" />
    <glyph glyph-name="uogonek.ss02" horiz-adv-x="634" 
d="M409 545h170v-323q0 -84 -48 -143t-130 -79q-84 -53 -84 -107q0 -28 31 -28q21 0 42 14l14 -81q-41 -28 -99 -28q-49 0 -79.5 26t-30.5 68q0 66 75 129q-99 13 -157 74.5t-58 154.5v323h170v-316q0 -42 25.5 -67.5t66.5 -25.5t66.5 25.5t25.5 67.5v316z" />
    <glyph glyph-name="uring.ss02" horiz-adv-x="634" 
d="M317 584q-55 0 -88.5 30.5t-33.5 79.5t33.5 79t88.5 30t88 -30t33 -79q0 -50 -33 -80t-88 -30zM317 659q15 0 24.5 9.5t9.5 25.5q0 15 -9.5 24.5t-24.5 9.5q-16 0 -25.5 -9.5t-9.5 -24.5q0 -16 9.5 -25.5t25.5 -9.5zM317 -10q-118 0 -190 64t-72 168v323h170v-316
q0 -42 25.5 -67.5t66.5 -25.5t66.5 25.5t25.5 67.5v316h170v-323q0 -104 -72 -168t-190 -64z" />
    <glyph glyph-name="y.ss02" horiz-adv-x="641" 
d="M409 545h170v-765h-518v139h348v133q-59 -62 -151 -62q-91 0 -146.5 58.5t-55.5 155.5v341h170v-316q0 -42 25 -67.5t67 -25.5q41 0 66 25.5t25 67.5v316z" />
    <glyph glyph-name="yacute.ss02" horiz-adv-x="641" 
d="M547 785l-191 -167h-144l138 167h197zM409 545h170v-765h-518v139h348v133q-59 -62 -151 -62q-91 0 -146.5 58.5t-55.5 155.5v341h170v-316q0 -42 25 -67.5t67 -25.5q41 0 66 25.5t25 67.5v316z" />
    <glyph glyph-name="ycircumflex.ss02" horiz-adv-x="641" 
d="M317 687l-56 -69h-156l132 167h160l131 -167h-155zM409 545h170v-765h-518v139h348v133q-59 -62 -151 -62q-91 0 -146.5 58.5t-55.5 155.5v341h170v-316q0 -42 25 -67.5t67 -25.5q41 0 66 25.5t25 67.5v316z" />
    <glyph glyph-name="ydieresis.ss02" horiz-adv-x="641" 
d="M185 608q-43 0 -71 27.5t-28 70.5t28 70.5t71 27.5t70.5 -27.5t27.5 -70.5t-27.5 -70.5t-70.5 -27.5zM452 608q-43 0 -71 27.5t-28 70.5t28 70.5t71 27.5t70.5 -27.5t27.5 -70.5t-27.5 -70.5t-70.5 -27.5zM409 545h170v-765h-518v139h348v133q-59 -62 -151 -62
q-91 0 -146.5 58.5t-55.5 155.5v341h170v-316q0 -42 25 -67.5t67 -25.5q41 0 66 25.5t25 67.5v316z" />
    <glyph glyph-name="ygrave.ss02" horiz-adv-x="641" 
d="M423 618h-144l-191 167h197zM409 545h170v-765h-518v139h348v133q-59 -62 -151 -62q-91 0 -146.5 58.5t-55.5 155.5v341h170v-316q0 -42 25 -67.5t67 -25.5q41 0 66 25.5t25 67.5v316z" />
    <glyph glyph-name="z.ss02" horiz-adv-x="544" 
d="M29 0l222 406h-218v139h476l-222 -405h227v-140h-485z" />
    <glyph glyph-name="zacute.ss02" horiz-adv-x="544" 
d="M166 618l138 167h197l-191 -167h-144zM29 0l222 406h-218v139h476l-222 -405h227v-140h-485z" />
    <glyph glyph-name="zcaron.ss02" horiz-adv-x="544" 
d="M191 618l-132 167h156l56 -69l56 69h155l-131 -167h-160zM287 140h227v-140h-485l222 406h-218v139h476z" />
    <glyph glyph-name="zdotaccent.ss02" horiz-adv-x="544" 
d="M272 608q-43 0 -71 27.5t-28 70.5t28 70.5t71 27.5t70.5 -27.5t27.5 -70.5t-27.5 -70.5t-70.5 -27.5zM29 0l222 406h-218v139h476l-222 -405h227v-140h-485z" />
    <glyph glyph-name="fi.ss01" horiz-adv-x="668" 
d="M521 608q-43 0 -71 27.5t-28 70.5t28 70.5t71 27.5t70.5 -27.5t27.5 -70.5t-27.5 -70.5t-70.5 -27.5zM62 609q0 82 51 131.5t134 49.5q77 0 125 -22l-11 -132q-24 9 -58 9q-32 0 -51.5 -17t-19.5 -45v-38h123v-139h-123v-406h-170v609zM435 0v545h170v-545h-170z" />
    <glyph glyph-name="fl.ss01" horiz-adv-x="668" 
d="M62 609q0 82 51 131.5t134 49.5q77 0 125 -22l-11 -132q-24 9 -58 9q-32 0 -51.5 -17t-19.5 -45v-38h123v-139h-123v-406h-170v609zM436 780h170v-780h-170v780z" />
    <glyph glyph-name="fi.ss02" horiz-adv-x="718" 
d="M571 608q-43 0 -71 27.5t-28 70.5t28 70.5t71 27.5t70.5 -27.5t27.5 -70.5t-27.5 -70.5t-70.5 -27.5zM113 545v235h304v-139h-134v-96h123v-139h-123v-406h-170v406h-85v139h85zM485 0v545h170v-545h-170z" />
    <glyph glyph-name="fl.ss02" horiz-adv-x="770" 
d="M113 545v235h304v-139h-134v-96h123v-139h-123v-406h-170v406h-85v139h85zM656 140h95v-140h-265v780h170v-640z" />
    <glyph glyph-name="zero.lf" horiz-adv-x="724" 
d="M329 -10q-132 0 -212.5 104.5t-80.5 275.5t80.5 275.5t212.5 104.5q131 0 211.5 -104.5t80.5 -275.5t-80.5 -275.5t-211.5 -104.5zM329 135q50 0 80.5 64.5t30.5 170.5t-30.5 170.5t-80.5 64.5t-80.5 -64.5t-30.5 -170.5t30.5 -170.5t80.5 -64.5z" />
    <glyph glyph-name="one.lf" horiz-adv-x="466" 
d="M212 0v516l-123 -85l-87 124l251 185h134v-740h-175z" />
    <glyph glyph-name="two.lf" horiz-adv-x="608" 
d="M39 0v110l232 252q79 87 97 136q7 20 7 37q0 31 -19.5 50.5t-50.5 19.5q-36 0 -57.5 -25.5t-21.5 -66.5l-178 16q0 100 69.5 160.5t183.5 60.5t183 -55t69 -146q0 -67 -39.5 -130.5t-126.5 -152.5l-120 -124l294 3v-145h-522z" />
    <glyph glyph-name="three.lf" horiz-adv-x="592" 
d="M345 460q95 -9 151 -70t56 -155q0 -111 -79.5 -178t-215.5 -67q-68 0 -130.5 18.5t-100.5 50.5l66 128q55 -52 146 -52q61 0 97 27t36 71t-32.5 69.5t-87.5 25.5q-50 0 -94 -23l-47 88l172 202h-219v145h444v-108z" />
    <glyph glyph-name="four.lf" horiz-adv-x="660" 
d="M351 0v134h-330v120l370 486h135v-461h98v-145h-98v-134h-175zM190 274h166l2 221z" />
    <glyph glyph-name="five.lf" horiz-adv-x="604" 
d="M248 -10q-146 0 -228 64l52 126q63 -45 160 -45q68 0 109 31t41 82q0 40 -25.5 64t-67.5 24q-68 0 -94 -40l-117 16l51 428h396v-145h-245l-18 -121q21 7 58 7q107 0 175.5 -61t68.5 -159q0 -122 -88 -196.5t-228 -74.5z" />
    <glyph glyph-name="six.lf" horiz-adv-x="603" 
d="M344 456q96 0 163.5 -63.5t67.5 -162.5q0 -107 -74 -173.5t-194 -66.5q-122 0 -196 65.5t-74 172.5q0 67 22.5 122t69.5 121l197 269h196l-219 -285q13 1 41 1zM306 135q39 0 63 25.5t24 68.5q0 42 -24 68t-63 26q-40 0 -64 -26t-24 -68q0 -43 24 -68.5t64 -25.5z" />
    <glyph glyph-name="seven.lf" horiz-adv-x="556" 
d="M23 740h518l-241 -740h-186l202 595h-293v145z" />
    <glyph glyph-name="eight.lf" horiz-adv-x="626" 
d="M470 386q53 -27 82.5 -72t29.5 -102q0 -100 -74 -161t-195 -61t-195 60.5t-74 158.5q0 118 112 176q-92 54 -92 156q0 94 68.5 151.5t180.5 57.5t180.5 -56.5t68.5 -150.5q0 -103 -92 -157zM312 605q-30 0 -48.5 -20.5t-18.5 -54.5t18.5 -54t48.5 -20q31 0 49.5 20
t18.5 54t-18.5 54.5t-49.5 20.5zM312 135q40 0 64 24t24 64q0 39 -24 63.5t-64 24.5q-39 0 -63 -24.5t-24 -63.5q0 -40 24 -64t63 -24z" />
    <glyph glyph-name="nine.lf" horiz-adv-x="603" 
d="M296 750q122 0 196 -65.5t74 -172.5q0 -67 -22.5 -122t-69.5 -121l-197 -269h-196l219 285q-13 -1 -41 -1q-96 0 -163.5 63.5t-67.5 162.5q0 107 74 173.5t194 66.5zM210 511q0 -42 24 -68t63 -26q40 0 64 26t24 68q0 43 -24 68.5t-64 25.5q-39 0 -63 -25.5t-24 -68.5z
" />
    <glyph glyph-name="zero.osf" horiz-adv-x="708" 
d="M355 -10q-143 0 -231 91.5t-88 241.5q0 149 88 240.5t231 91.5q142 0 229.5 -91.5t87.5 -240.5q0 -150 -87.5 -241.5t-229.5 -91.5zM355 136q60 0 97.5 51.5t37.5 135.5t-37.5 135.5t-97.5 51.5q-62 0 -99.5 -51.5t-37.5 -135.5t37.5 -135.5t99.5 -51.5z" />
    <glyph glyph-name="one.osf" horiz-adv-x="433" 
d="M185 0v420l-90 -61l-88 124l219 162h129v-645h-170z" />
    <glyph glyph-name="two.osf" horiz-adv-x="617" 
d="M44 0v110l273 228q69 56 69 102q0 32 -21 51t-55 19q-38 0 -61.5 -25.5t-23.5 -66.5l-172 16q0 100 69.5 160.5t183.5 60.5t183 -55.5t69 -145.5q0 -41 -10.5 -74.5t-35 -63t-46.5 -49t-62 -50.5l-102 -77h264v-140h-522z" />
    <glyph glyph-name="three.osf" horiz-adv-x="592" 
d="M348 362q92 -9 147 -70.5t55 -155.5q0 -112 -78 -179t-211 -67q-71 0 -133.5 18.5t-98.5 49.5l67 129q54 -51 145 -51q62 0 97.5 27t35.5 72q0 44 -33 69.5t-89 25.5q-52 0 -91 -23l-47 88l177 211h-225v139h445v-108z" />
    <glyph glyph-name="four.osf" horiz-adv-x="665" 
d="M363 -110v110h-336v108l377 537h129v-505h97v-140h-97v-110h-170zM197 135h170l3 252z" />
    <glyph glyph-name="five.osf" horiz-adv-x="599" 
d="M246 -110q-148 0 -227 63l52 128q61 -45 159 -45q68 0 109.5 31t41.5 82q0 40 -25.5 64.5t-68.5 24.5q-31 0 -56.5 -11t-36.5 -29l-117 17l51 430h396v-139h-246l-23 -130q21 8 64 8q104 0 171 -61.5t67 -160.5q0 -122 -86.5 -197t-224.5 -75z" />
    <glyph glyph-name="six.osf" horiz-adv-x="595" 
d="M338 456q102 0 164 -62t62 -164q0 -107 -72.5 -173.5t-190.5 -66.5q-119 0 -191 65.5t-72 172.5q0 58 18 108t63 118l210 286h191l-219 -286q24 2 37 2zM300 135q40 0 64 25.5t24 68.5q0 42 -24 68t-64 26q-39 0 -63 -26t-24 -68q0 -43 24 -68.5t63 -25.5z" />
    <glyph glyph-name="seven.osf" horiz-adv-x="572" 
d="M30 645h518l-248 -757l-164 43l186 575h-292v139z" />
    <glyph glyph-name="eight.osf" 
d="M461 386q110 -56 110 -174q0 -100 -72.5 -161t-190.5 -61t-191 60.5t-73 158.5q0 58 29 104t81 72q-90 54 -90 156q0 94 67 151.5t177 57.5t176.5 -56.5t66.5 -150.5q0 -103 -90 -157zM307 605q-31 0 -49.5 -20.5t-18.5 -54.5t18.5 -54t49.5 -20q30 0 48.5 20t18.5 54
t-18.5 54.5t-48.5 20.5zM307 135q39 0 63 24t24 64q0 39 -24 63.5t-63 24.5q-40 0 -64 -24.5t-24 -63.5q0 -40 24 -64t64 -24z" />
    <glyph glyph-name="nine.osf" horiz-adv-x="588" 
d="M292 655q118 0 190 -65t72 -172q0 -59 -17.5 -110t-63.5 -116l-222 -304l-159 43l199 261q-22 -2 -36 -2q-103 0 -165 62t-62 164q0 107 73 173t191 66zM203 417q0 -43 24 -69t64 -26q39 0 63 26t24 69q0 42 -24 67.5t-63 25.5q-40 0 -64 -25.5t-24 -67.5z" />
    <glyph glyph-name="one.ss02" horiz-adv-x="390" 
d="M136 0v595h-105v145h280v-740h-175z" />
    <glyph glyph-name="one.lf.ss02" horiz-adv-x="390" 
d="M136 0v595h-105v145h280v-740h-175z" />
    <glyph glyph-name="one.osf.ss02" horiz-adv-x="384" 
d="M136 0v506h-98v139h268v-645h-170z" />
    <glyph glyph-name="one.tf.ss02" 
d="M432 145h132v-145h-505v145h198v450h-135v145h310v-595z" />
    <glyph glyph-name="one.tosf.ss02" 
d="M418 140h149v-140h-505v140h186v366h-128v139h298v-505z" />
    <glyph glyph-name="zero.tf" 
d="M308 -10q-121 0 -195 104.5t-74 275.5t74 275.5t195 104.5t195 -104.5t74 -275.5t-74 -275.5t-195 -104.5zM308 135q39 0 63 64.5t24 170.5t-24 170.5t-63 64.5t-63.5 -65t-24.5 -170t24.5 -170t63.5 -65z" />
    <glyph glyph-name="one.tf" 
d="M442 145h131v-145h-505v145h198v371l-123 -85l-86 124l251 185h134v-595z" />
    <glyph glyph-name="two.tf" 
d="M43 0v110l232 252q79 87 97 136q7 20 7 37q0 31 -19.5 50.5t-50.5 19.5q-36 0 -57.5 -25.5t-21.5 -66.5l-179 16q0 100 70 160.5t184 60.5t182.5 -55t68.5 -146q0 -67 -39.5 -130t-125.5 -153l-120 -124l294 3v-145h-522z" />
    <glyph glyph-name="three.tf" 
d="M357 460q94 -9 150 -70.5t56 -154.5q0 -111 -79.5 -178t-214.5 -67q-70 0 -133 18.5t-99 50.5l66 128q57 -52 146 -52q62 0 97.5 27t35.5 71t-33 69.5t-89 25.5q-50 0 -91 -23l-47 88l171 202h-219v145h445v-108z" />
    <glyph glyph-name="four.tf" 
d="M317 0v134h-309v120l349 486h136v-460h97v-146h-97v-134h-176zM177 275h146l2 220z" />
    <glyph glyph-name="five.tf" 
d="M253 -10q-146 0 -227 64l52 126q63 -45 159 -45q68 0 109.5 31t41.5 82q0 40 -25.5 64t-68.5 24q-31 0 -56.5 -11t-36.5 -29l-117 16l51 428h396v-145h-246l-18 -121q21 7 59 7q107 0 175 -61t68 -159q0 -122 -88 -196.5t-228 -74.5z" />
    <glyph glyph-name="six.tf" 
d="M350 456q96 0 163.5 -63.5t67.5 -162.5q0 -107 -73.5 -173.5t-194.5 -66.5t-195 65.5t-74 172.5q0 67 22 122.5t69 120.5l197 269h196l-219 -285q13 1 41 1zM312 135q39 0 63 25.5t24 68.5q0 42 -24 68t-63 26q-40 0 -64 -26t-24 -68q0 -43 24 -68.5t64 -25.5z" />
    <glyph glyph-name="seven.tf" 
d="M53 740h518l-242 -740h-185l201 595h-292v145z" />
    <glyph glyph-name="eight.tf" 
d="M464 386q53 -27 82.5 -72t29.5 -102q0 -100 -73.5 -161t-194.5 -61t-195 60.5t-74 158.5q0 58 29.5 104t82.5 72q-92 54 -92 156q0 94 68 151.5t181 57.5q112 0 180 -56.5t68 -150.5q0 -103 -92 -157zM307 605q-30 0 -48.5 -20.5t-18.5 -54.5t18.5 -54t48.5 -20
q31 0 49.5 20t18.5 54t-18.5 54.5t-49.5 20.5zM307 135q40 0 64 24t24 64q0 39 -24 63.5t-64 24.5q-39 0 -63 -24.5t-24 -63.5q0 -40 24 -64t63 -24z" />
    <glyph glyph-name="nine.tf" 
d="M302 750q122 0 196 -65.5t74 -172.5q0 -67 -22.5 -122t-69.5 -121l-197 -269h-196l219 285q-13 -1 -41 -1q-96 0 -163.5 63.5t-67.5 162.5q0 107 74 173.5t194 66.5zM216 511q0 -42 24 -68t63 -26q40 0 64 26t24 68q0 43 -24 68.5t-64 25.5q-39 0 -63 -25.5t-24 -68.5z
" />
    <glyph glyph-name="zero.tosf" 
d="M308 -10q-122 0 -196 91.5t-74 241.5q0 149 74.5 240.5t195.5 91.5t195 -91.5t74 -240.5q0 -150 -74 -241.5t-195 -91.5zM308 136q39 0 63 51.5t24 135.5t-24 135.5t-63 51.5t-63.5 -51.5t-24.5 -135.5t24.5 -135.5t63.5 -51.5z" />
    <glyph glyph-name="one.tosf" 
d="M416 140h156v-140h-505v140h179v280l-91 -61l-88 124l219 162h130v-505z" />
    <glyph glyph-name="two.tosf" 
d="M43 0v110l273 228q69 56 69 102q0 32 -21 51t-55 19q-38 0 -61.5 -25.5t-23.5 -66.5l-172 16q0 100 69.5 160.5t183.5 60.5t183 -55.5t69 -145.5q0 -41 -10.5 -74.5t-35.5 -63.5t-46 -48.5t-62 -50.5l-100 -77h262v-140h-522z" />
    <glyph glyph-name="three.tosf" 
d="M359 362q92 -9 147 -70.5t55 -155.5q0 -112 -78 -179t-211 -67q-70 0 -133 18.5t-98 49.5l66 129q54 -51 146 -51q62 0 97.5 27t35.5 72q0 44 -33.5 69.5t-88.5 25.5q-53 0 -92 -23l-47 88l177 211h-224v139h444v-108z" />
    <glyph glyph-name="four.tosf" 
d="M327 -110v110h-315v108l356 537h129v-505h97v-140h-97v-110h-170zM182 135h149l3 240z" />
    <glyph glyph-name="five.tosf" 
d="M254 -110q-148 0 -227 63l52 128q61 -45 159 -45q68 0 109.5 31t41.5 82q0 40 -25.5 64.5t-68.5 24.5q-31 0 -56.5 -11t-36.5 -29l-117 17l51 430h396v-139h-246l-23 -130q21 8 64 8q104 0 171 -61.5t67 -160.5q0 -122 -86.5 -197t-224.5 -75z" />
    <glyph glyph-name="six.tosf" 
d="M348 456q102 0 164 -62t62 -164q0 -107 -72.5 -173.5t-190.5 -66.5q-119 0 -191 65.5t-72 172.5q0 58 18 108t63 118l210 286h191l-219 -286q24 2 37 2zM310 135q40 0 64 25.5t24 68.5q0 42 -24 68t-64 26q-39 0 -63 -26t-24 -68q0 -43 24 -68.5t63 -25.5z" />
    <glyph glyph-name="seven.tosf" 
d="M51 645h518l-248 -757l-163 43l186 575h-293v139z" />
    <glyph glyph-name="eight.tosf" 
d="M461 386q110 -56 110 -174q0 -100 -72.5 -161t-190.5 -61t-191 60.5t-73 158.5q0 58 29 104t81 72q-90 54 -90 156q0 94 67 151.5t177 57.5t176.5 -56.5t66.5 -150.5q0 -103 -90 -157zM307 605q-30 0 -48.5 -20.5t-18.5 -54.5t18.5 -54t48.5 -20q31 0 49.5 20t18.5 54
t-18.5 54.5t-49.5 20.5zM307 135q40 0 64 24t24 64q0 39 -24 63.5t-64 24.5q-39 0 -63 -24.5t-24 -63.5q0 -40 24 -64t63 -24z" />
    <glyph glyph-name="nine.tosf" 
d="M305 655q118 0 190.5 -65t72.5 -172q0 -59 -17.5 -110t-63.5 -116l-222 -304l-159 43l199 261q-24 -2 -37 -2q-102 0 -164 62t-62 164q0 107 72.5 173t190.5 66zM217 417q0 -43 24 -69t64 -26q39 0 63 26t24 69q0 42 -24 67.5t-63 25.5q-40 0 -64 -25.5t-24 -67.5z" />
    <glyph glyph-name="zero.dnom" horiz-adv-x="400" 
d="M202 -6q-80 0 -128.5 62.5t-48.5 165.5t48.5 165.5t128.5 62.5q78 0 126 -63t48 -165t-48 -165t-126 -63zM202 82q30 0 48 38.5t18 101.5t-18 102t-48 39t-48.5 -39t-18.5 -102q0 -62 18.5 -101t48.5 -39z" />
    <glyph glyph-name="one.dnom" horiz-adv-x="286" 
d="M128 0v309l-73 -51l-53 75l151 111h82v-444h-107z" />
    <glyph glyph-name="two.dnom" horiz-adv-x="374" 
d="M28 0v68l138 150q63 70 63 104q0 18 -11 29.5t-30 11.5q-21 0 -34 -15.5t-13 -39.5l-108 9q0 60 42 96.5t111 36.5q68 0 109 -33.5t41 -87.5q0 -40 -23.5 -78t-75.5 -91l-71 -73l176 1v-88h-314z" />
    <glyph glyph-name="three.dnom" horiz-adv-x="363" 
d="M212 276q56 -6 89.5 -42.5t33.5 -92.5q0 -67 -48 -107t-130 -40q-90 0 -139 41l40 78q34 -31 87 -31q37 0 58 16t21 43q0 25 -19 40.5t-51 15.5t-56 -15l-29 54l103 121h-131v87h267v-66z" />
    <glyph glyph-name="four.dnom" horiz-adv-x="402" 
d="M211 0v80h-198v73l223 291h83v-275h57v-89h-57v-80h-108zM116 165h98l1 129z" />
    <glyph glyph-name="five.dnom" horiz-adv-x="369" 
d="M150 -6q-89 0 -136 38l32 77q36 -27 95 -27q41 0 65.5 18.5t24.5 49.5q0 23 -15.5 37.5t-40.5 14.5q-39 0 -56 -25l-71 10l32 257h237v-87h-146l-10 -72q8 4 33 4q65 0 106 -36.5t41 -95.5q0 -73 -53 -118t-138 -45z" />
    <glyph glyph-name="six.dnom" horiz-adv-x="370" 
d="M211 274q57 0 98 -38t41 -98q0 -65 -44.5 -104.5t-117.5 -39.5t-117.5 39.5t-44.5 103.5q0 70 56 148l116 159h120l-131 -171q7 1 24 1zM188 82q23 0 37.5 15.5t14.5 40.5t-14.5 40t-37.5 15t-37.5 -15t-14.5 -40t14.5 -40.5t37.5 -15.5z" />
    <glyph glyph-name="seven.dnom" horiz-adv-x="333" 
d="M15 444h312l-145 -444h-112l119 357h-174v87z" />
    <glyph glyph-name="eight.dnom" horiz-adv-x="386" 
d="M288 231q67 -33 67 -103q0 -61 -44.5 -97.5t-117.5 -36.5t-117.5 36t-44.5 95q0 73 68 106q-56 32 -56 94q0 57 41 91t109 34q67 0 108.5 -34t41.5 -90q0 -62 -55 -95zM193 363q-18 0 -29 -12.5t-11 -32.5t11 -32t29 -12t29 12t11 32t-11 32.5t-29 12.5zM193 82
q23 0 37.5 14.5t14.5 37.5q0 24 -14.5 38.5t-37.5 14.5t-37.5 -14.5t-14.5 -38.5q0 -23 14.5 -37.5t37.5 -14.5z" />
    <glyph glyph-name="nine.dnom" horiz-adv-x="370" 
d="M182 450q73 0 117.5 -39.5t44.5 -103.5q0 -70 -56 -148l-116 -159h-120l131 171q-7 -1 -24 -1q-57 0 -98 38t-41 98q0 65 44.5 104.5t117.5 39.5zM130 306q0 -25 14.5 -40t37.5 -15t37.5 15t14.5 40t-14.5 40.5t-37.5 15.5t-37.5 -15.5t-14.5 -40.5z" />
    <glyph glyph-name="zero.numr" horiz-adv-x="400" 
d="M202 290q-80 0 -128.5 62.5t-48.5 165.5t48.5 165.5t128.5 62.5q78 0 126 -63t48 -165t-48 -165t-126 -63zM202 378q30 0 48 38.5t18 101.5t-18 102t-48 39t-48.5 -39t-18.5 -102q0 -62 18.5 -101t48.5 -39z" />
    <glyph glyph-name="one.numr" horiz-adv-x="286" 
d="M128 296v309l-73 -51l-53 75l151 111h82v-444h-107z" />
    <glyph glyph-name="two.numr" horiz-adv-x="374" 
d="M28 296v68l138 150q63 70 63 104q0 18 -11 29.5t-30 11.5q-21 0 -34 -15.5t-13 -39.5l-108 9q0 60 42 96.5t111 36.5q68 0 109 -33.5t41 -87.5q0 -40 -23.5 -78t-75.5 -91l-71 -73l176 1v-88h-314z" />
    <glyph glyph-name="three.numr" horiz-adv-x="363" 
d="M212 572q56 -6 89.5 -42.5t33.5 -92.5q0 -67 -48 -107t-130 -40q-90 0 -139 41l40 78q34 -31 87 -31q37 0 58 16t21 43q0 25 -19 40.5t-51 15.5t-56 -15l-29 54l103 121h-131v87h267v-66z" />
    <glyph glyph-name="four.numr" horiz-adv-x="402" 
d="M211 296v80h-198v73l223 291h83v-275h57v-89h-57v-80h-108zM116 461h98l1 129z" />
    <glyph glyph-name="five.numr" horiz-adv-x="369" 
d="M150 290q-89 0 -136 38l32 77q36 -27 95 -27q41 0 65.5 18.5t24.5 49.5q0 23 -15.5 37.5t-40.5 14.5q-39 0 -56 -25l-71 10l32 257h237v-87h-146l-10 -72q8 4 33 4q65 0 106 -36.5t41 -95.5q0 -73 -53 -118t-138 -45z" />
    <glyph glyph-name="six.numr" horiz-adv-x="370" 
d="M211 570q57 0 98 -38t41 -98q0 -65 -44.5 -104.5t-117.5 -39.5t-117.5 39.5t-44.5 103.5q0 70 56 148l116 159h120l-131 -171q7 1 24 1zM188 378q23 0 37.5 15.5t14.5 40.5t-14.5 40t-37.5 15t-37.5 -15t-14.5 -40t14.5 -40.5t37.5 -15.5z" />
    <glyph glyph-name="seven.numr" horiz-adv-x="333" 
d="M15 740h312l-145 -444h-112l119 357h-174v87z" />
    <glyph glyph-name="eight.numr" horiz-adv-x="386" 
d="M288 527q67 -33 67 -103q0 -61 -44.5 -97.5t-117.5 -36.5t-117.5 36t-44.5 95q0 73 68 106q-56 32 -56 94q0 57 41 91t109 34q67 0 108.5 -34t41.5 -90q0 -62 -55 -95zM193 659q-18 0 -29 -12.5t-11 -32.5t11 -32t29 -12t29 12t11 32t-11 32.5t-29 12.5zM193 378
q23 0 37.5 14.5t14.5 37.5q0 24 -14.5 38.5t-37.5 14.5t-37.5 -14.5t-14.5 -38.5q0 -23 14.5 -37.5t37.5 -14.5z" />
    <glyph glyph-name="nine.numr" horiz-adv-x="370" 
d="M182 746q73 0 117.5 -39.5t44.5 -103.5q0 -70 -56 -148l-116 -159h-120l131 171q-7 -1 -24 -1q-57 0 -98 38t-41 98q0 65 44.5 104.5t117.5 39.5zM130 602q0 -25 14.5 -40t37.5 -15t37.5 15t14.5 40t-14.5 40.5t-37.5 15.5t-37.5 -15.5t-14.5 -40.5z" />
    <glyph glyph-name="uni2081.ss02" horiz-adv-x="243" 
d="M85 -100v357h-63v87h170v-444h-107z" />
    <glyph glyph-name="one.dnom.ss02" horiz-adv-x="243" 
d="M85 0v357h-63v87h170v-444h-107z" />
    <glyph glyph-name="one.numr.ss02" horiz-adv-x="243" 
d="M85 296v357h-63v87h170v-444h-107z" />
    <glyph glyph-name="uni00B9.ss02" horiz-adv-x="243" 
d="M85 396v357h-63v87h170v-444h-107z" />
    <glyph glyph-name="onehalf.ss02" horiz-adv-x="855" 
d="M198 -10l-88 54l414 706l88 -53zM85 296v357h-63v87h170v-444h-107zM509 0v68l138 150q63 70 63 104q0 18 -11 29.5t-30 11.5q-21 0 -34 -15.5t-13 -39.5l-108 9q0 60 42 96.5t111 36.5q68 0 109 -33.5t41 -87.5q0 -40 -23.5 -78t-75.5 -91l-71 -73l176 1v-88h-314z" />
    <glyph glyph-name="onequarter.ss02" horiz-adv-x="843" 
d="M198 -10l-88 54l414 706l88 -53zM85 296v357h-63v87h170v-444h-107zM652 0v80h-198v73l223 291h83v-275h57v-89h-57v-80h-108zM557 165h98l1 129z" />
    <glyph glyph-name="oneeighth.ss02" horiz-adv-x="867" 
d="M524 750l88 -53l-414 -707l-88 54zM192 296h-107v357h-63v87h170v-444zM769 231q67 -33 67 -103q0 -61 -44.5 -97.5t-117.5 -36.5t-117.5 36t-44.5 95q0 73 68 106q-56 32 -56 94q0 57 41 91t109 34q67 0 108.5 -34t41.5 -90q0 -62 -55 -95zM674 363q-18 0 -29 -12.5
t-11 -32.5t11 -32t29 -12t29 12t11 32t-11 32.5t-29 12.5zM674 82q23 0 37.5 14.5t14.5 37.5q0 24 -14.5 38.5t-37.5 14.5t-37.5 -14.5t-14.5 -38.5q0 -23 14.5 -37.5t37.5 -14.5z" />
    <glyph glyph-name="exclamdown.case" horiz-adv-x="317" 
d="M159 750q43 0 70.5 -28t27.5 -71t-27.5 -70t-70.5 -27t-71 27t-28 70t28 71t71 28zM86 495h145l16 -495h-177z" />
    <glyph glyph-name="questiondown.case" horiz-adv-x="565" 
d="M288 750q43 0 70.5 -28t27.5 -71t-27.5 -70t-70.5 -27t-70.5 27t-27.5 70t27.5 71t70.5 28zM360 495q0 -57 -17 -103.5t-34 -67t-46 -47.5q-48 -43 -48 -74t21 -49.5t55 -18.5q32 0 54.5 18.5t26.5 49.5l162 -8q-5 -92 -71.5 -148.5t-171.5 -56.5q-116 0 -186.5 56
t-70.5 147q0 36 15 66.5t30.5 46t45.5 41.5q29 24 45 40.5t30.5 45.5t14.5 62h145z" />
    <glyph glyph-name="slash.case" horiz-adv-x="443" 
d="M35 0l201 740h171l-201 -740h-171z" />
    <glyph glyph-name="braceleft.case" horiz-adv-x="454" 
d="M291 -50q-81 0 -129.5 46t-48.5 123v117q0 28 -19.5 45t-51.5 17h-5v145h5q32 0 51.5 16.5t19.5 44.5v118q0 76 48.5 122t129.5 46q61 0 120 -13v-136q-20 4 -53 4q-32 0 -51 -20.5t-19 -54.5v-86q0 -42 -24.5 -73t-64.5 -41q40 -10 64.5 -40.5t24.5 -72.5v-86
q0 -34 19 -55t51 -21q28 0 53 5v-137q-59 -13 -120 -13z" />
    <glyph glyph-name="braceright.case" horiz-adv-x="454" 
d="M163 -50q-61 0 -120 13v137q25 -5 52 -5q32 0 51.5 20.5t19.5 55.5v86q0 42 24 72.5t64 40.5q-40 10 -64 41t-24 73v86q0 34 -19.5 54.5t-51.5 20.5t-52 -4v136q58 13 120 13q81 0 129.5 -46t48.5 -122v-118q0 -28 19.5 -44.5t51.5 -16.5h5v-145h-5q-32 0 -51.5 -17
t-19.5 -45v-117q0 -77 -48.5 -123t-129.5 -46z" />
    <glyph glyph-name="bracketleft.case" horiz-adv-x="430" 
d="M79 -40v820h307v-145h-131v-529h131v-146h-307z" />
    <glyph glyph-name="bracketright.case" horiz-adv-x="430" 
d="M351 -40h-307v146h131v529h-131v145h307v-820z" />
    <glyph glyph-name="parenleft.case" horiz-adv-x="376" 
d="M192 -40q-148 195 -148 410t148 410h158q-48 -67 -89.5 -180.5t-41.5 -229.5t41.5 -229.5t89.5 -180.5h-158z" />
    <glyph glyph-name="parenright.case" horiz-adv-x="376" 
d="M26 -40q48 67 89.5 180.5t41.5 229.5t-41.5 229.5t-89.5 180.5h158q148 -195 148 -410t-148 -410h-158z" />
    <glyph glyph-name="logo" horiz-adv-x="1274" 
d="M76 -10q-17 0 -17 18q0 10 5 15l342 341h-324q-23 0 -23 19q0 7 7 16l340 342h-327q-20 0 -20 19v1q0 19 20 19h370q23 0 23 -20q0 -10 -8 -17l-341 -340h330q8 0 14 -6t6 -14v-327l339 338q7 8 17 8q18 0 18 -22v-324l340 338q6 8 16 8q7 0 12 -5.5t5 -13.5q0 -9 -6 -14
l-368 -372q-7 -7 -17 -7q-20 0 -20 23v324l-339 -340q-7 -7 -17 -7q-20 0 -20 23v324l-340 -340q-7 -7 -17 -7z" />
    </font>
</defs>
</svg>
