<?xml version="1.0" standalone="no"?>
<!DOCTYPE svg PUBLIC "-//W3C//DTD SVG 1.1//EN" "http://www.w3.org/Graphics/SVG/1.1/DTD/svg11.dtd" >
<svg xmlns="http://www.w3.org/2000/svg" xmlns:xlink="http://www.w3.org/1999/xlink" version="1.1">
<metadata>
Created by FontForge 20170731 at Fri Oct 21 20:40:16 2016
 By Aleksey,,,
Copyright (c) 2016 by Alberto Romanos. All rights reserved.
</metadata>
<defs>
<font id="BwModelica-Medium" horiz-adv-x="615" >
  <font-face 
    font-family="Bw Modelica Medium"
    font-weight="600"
    font-stretch="normal"
    units-per-em="1000"
    panose-1="0 0 7 0 0 0 0 0 0 0"
    ascent="780"
    descent="-220"
    x-height="534"
    cap-height="740"
    bbox="-866 -230 1234 1020"
    underline-thickness="50"
    underline-position="-200"
    unicode-range="U+000D-FB02"
  />
<missing-glyph horiz-adv-x="1274" 
d="M90 -10q-17 0 -17 18q0 10 5 15l342 341h-324q-23 0 -23 19q0 7 7 16l340 342h-327q-20 0 -20 19v1q0 19 20 19h370q23 0 23 -20q0 -10 -8 -17l-341 -340h330q8 0 14 -6t6 -14v-327l339 338q7 8 17 8q18 0 18 -22v-324l340 338q6 8 16 8q7 0 12 -5.5t5 -13.5q0 -9 -6 -14
l-368 -372q-7 -7 -17 -7q-20 0 -20 23v324l-339 -340q-7 -7 -17 -7q-20 0 -20 23v324l-340 -340q-7 -7 -17 -7z" />
    <glyph glyph-name="fi" unicode="fi" horiz-adv-x="645" 
d="M113 632q0 71 44.5 114.5t118.5 43.5q71 0 113 -21l-8 -80q-27 13 -74 13q-41 0 -66.5 -23.5t-25.5 -62.5v-82h162v-84h-162v-450h-102v450h-90v84h90v98zM518 645q-28 0 -46 18t-18 46t18 46t46 18q27 0 45 -18t18 -46t-18 -46t-45 -18zM467 0v534h102v-534h-102z" />
    <glyph glyph-name="fl" unicode="fl" horiz-adv-x="648" 
d="M113 632q0 71 44.5 114.5t118.5 43.5q71 0 113 -21l-8 -80q-27 13 -74 13q-41 0 -66.5 -23.5t-25.5 -62.5v-82h162v-84h-162v-450h-102v450h-90v84h90v98zM468 780h102v-780h-102v780z" />
    <glyph glyph-name=".notdef" horiz-adv-x="1274" 
d="M90 -10q-17 0 -17 18q0 10 5 15l342 341h-324q-23 0 -23 19q0 7 7 16l340 342h-327q-20 0 -20 19v1q0 19 20 19h370q23 0 23 -20q0 -10 -8 -17l-341 -340h330q8 0 14 -6t6 -14v-327l339 338q7 8 17 8q18 0 18 -22v-324l340 338q6 8 16 8q7 0 12 -5.5t5 -13.5q0 -9 -6 -14
l-368 -372q-7 -7 -17 -7q-20 0 -20 23v324l-339 -340q-7 -7 -17 -7q-20 0 -20 23v324l-340 -340q-7 -7 -17 -7z" />
    <glyph glyph-name=".null" horiz-adv-x="0" 
 />
    <glyph glyph-name="nonmarkingreturn" horiz-adv-x="333" 
 />
    <glyph glyph-name="CR" unicode="&#xd;" horiz-adv-x="220" 
 />
    <glyph glyph-name="space" unicode=" " horiz-adv-x="257" 
 />
    <glyph glyph-name="exclam" unicode="!" horiz-adv-x="274" 
d="M93 189l-10 551h108l-10 -551h-88zM137 -10q-28 0 -46 18t-18 46t18 45.5t46 17.5t46 -17.5t18 -45.5t-18 -46t-46 -18z" />
    <glyph glyph-name="quotedbl" unicode="&#x22;" horiz-adv-x="370" 
d="M65 564l-2 216h84l-3 -216h-79zM225 564l-2 216h84l-2 -216h-80z" />
    <glyph glyph-name="numbersign" unicode="#" horiz-adv-x="713" 
d="M662 434h-123l-39 -171h123l-16 -69h-123l-45 -194h-76l45 194h-177l-45 -194h-75l45 194h-122l17 69h121l39 171h-121l16 69h121l46 197h75l-46 -197h177l46 197h76l-46 -197h123zM424 263l39 171h-177l-39 -171h177z" />
    <glyph glyph-name="dollar" unicode="$" horiz-adv-x="635" 
d="M588 200q0 -83 -60 -138.5t-161 -68.5v-83h-106v83q-125 13 -200 86l42 73q82 -74 203 -74q79 0 125 30t46 82q0 51 -43.5 80t-131.5 55l-46 13q-96 27 -149 72t-53 127q0 84 57 140.5t154 69.5v83h106v-83q107 -13 185 -82l-48 -74q-80 71 -191 71q-69 0 -110.5 -30
t-41.5 -79q0 -48 36 -73.5t105 -45.5l48 -13q47 -14 84 -30t73.5 -42t56.5 -64t20 -85z" />
    <glyph glyph-name="percent" unicode="%" horiz-adv-x="813" 
d="M211 414q-79 0 -127.5 46t-48.5 122t48.5 122t127.5 46t127.5 -46t48.5 -122t-48.5 -122t-127.5 -46zM222 -10l-56 35l425 725l56 -34zM212 482q40 0 65 27.5t25 72.5t-25 73t-65 28q-41 0 -66.5 -27.5t-25.5 -73.5q0 -45 25.5 -72.5t66.5 -27.5zM603 -10
q-80 0 -128.5 46t-48.5 122t48.5 122t128.5 46q79 0 127 -46t48 -122t-48 -122t-127 -46zM603 57q40 0 65 28t25 73t-25 72.5t-65 27.5q-41 0 -66.5 -27t-25.5 -73t25.5 -73.5t66.5 -27.5z" />
    <glyph glyph-name="ampersand" unicode="&#x26;" horiz-adv-x="778" 
d="M631 78q54 0 100 18v-82q-54 -24 -132 -24q-97 0 -137 79q-68 -79 -187 -79q-101 0 -163 58.5t-62 152.5q0 70 38.5 121.5t107.5 76.5q-52 24 -80.5 66t-28.5 97q0 85 64 136.5t169 51.5q102 0 165 -52.5t63 -137.5v-123h175v-80h-176v-189q0 -40 23 -65t61 -25zM320 662
q-57 0 -91.5 -30.5t-34.5 -80.5q0 -51 34.5 -82.5t91.5 -31.5h126v112q0 51 -35 82t-91 31zM300 78q62 0 103.5 32t41.5 93v154h-126q-73 0 -118 -38.5t-45 -101.5t39.5 -101t104.5 -38z" />
    <glyph glyph-name="quotesingle" unicode="'" horiz-adv-x="210" 
d="M65 564l-2 216h84l-3 -216h-79z" />
    <glyph glyph-name="parenleft" unicode="(" horiz-adv-x="313" 
d="M196 -180q-148 230 -148 480t148 480h94q-135 -236 -135 -480t135 -480h-94z" />
    <glyph glyph-name="parenright" unicode=")" horiz-adv-x="313" 
d="M23 -180q24 42 39.5 74t42 97.5t40.5 144.5t14 164t-14 164t-40.5 144.5t-42 97.5t-39.5 74h94q148 -230 148 -480t-148 -480h-94z" />
    <glyph glyph-name="asterisk" unicode="*" horiz-adv-x="393" 
d="M340 611l-93 -28l59 -77l-54 -39l-55 80l-56 -80l-54 39l59 77l-93 28l20 64l92 -32l-3 97h68l-3 -98l92 33z" />
    <glyph glyph-name="plus" unicode="+" horiz-adv-x="544" 
d="M497 391v-85h-174v-176h-102v176h-175v85h175v176h102v-176h174z" />
    <glyph glyph-name="comma" unicode="," horiz-adv-x="258" 
d="M11 -145l69 249h119l-85 -249h-103z" />
    <glyph glyph-name="hyphen" unicode="-" horiz-adv-x="456" 
d="M67 251v74h322v-74h-322z" />
    <glyph glyph-name="period" unicode="." horiz-adv-x="248" 
d="M124 -10q-29 0 -49.5 21t-20.5 50t21 49.5t49 20.5q29 0 49.5 -20.5t20.5 -49.5t-20.5 -50t-49.5 -21z" />
    <glyph glyph-name="slash" unicode="/" horiz-adv-x="423" 
d="M40 -100l239 880h103l-239 -880h-103z" />
    <glyph glyph-name="zero" unicode="0" horiz-adv-x="633" 
d="M317 -10q-122 0 -196.5 104.5t-74.5 275.5t74.5 275.5t196.5 104.5t196.5 -104.5t74.5 -275.5t-74.5 -275.5t-196.5 -104.5zM317 78q73 0 116.5 80t43.5 212t-43.5 212t-116.5 80t-117 -80.5t-44 -211.5t44 -211.5t117 -80.5z" />
    <glyph glyph-name="one" unicode="1" horiz-adv-x="429" 
d="M229 0v602l-166 -119l-54 77l245 180h81v-740h-106z" />
    <glyph glyph-name="two" unicode="2" horiz-adv-x="577" 
d="M44 0v67l226 245q2 2 15.5 16.5t18.5 20t18 20.5t19 23t17.5 23t17 25t13.5 25t11.5 27t6.5 26.5t3 27.5q0 53 -33.5 84.5t-88.5 31.5q-58 0 -93 -36t-35 -94l-109 9q0 94 64.5 151.5t170.5 57.5q104 0 168 -53.5t64 -141.5q0 -41 -13 -79.5t-42 -79.5t-54 -69.5
t-69 -75.5l-156 -164l344 1v-88h-484z" />
    <glyph glyph-name="three" unicode="3" horiz-adv-x="572" 
d="M291 437q106 0 170.5 -60t64.5 -157q0 -104 -73.5 -167t-196.5 -63q-69 0 -127.5 20.5t-92.5 58.5l41 78q58 -69 167 -69q78 0 125 39t47 102q0 62 -45 99t-119 37q-60 0 -108 -24l-28 54l238 267h-287v88h427v-67l-222 -237q6 1 19 1z" />
    <glyph glyph-name="four" unicode="4" horiz-adv-x="625" 
d="M377 0v152h-355v75l377 513h84v-500h108v-88h-108v-152h-106zM146 238h234l2 322z" />
    <glyph glyph-name="five" unicode="5" horiz-adv-x="580" 
d="M250 -10q-140 0 -218 67l31 78q66 -57 177 -57q82 0 132.5 42t50.5 110q0 62 -39.5 100t-104.5 38q-70 0 -124 -32l-72 10l51 394h364v-88h-272l-31 -209q53 14 103 14q105 0 170.5 -60.5t65.5 -159.5q0 -111 -79 -179t-205 -68z" />
    <glyph glyph-name="six" unicode="6" horiz-adv-x="575" 
d="M313 450q98 0 162.5 -62.5t64.5 -163.5q0 -105 -68 -169.5t-180 -64.5t-180.5 64t-68.5 168q0 100 67 195l223 323h120l-214 -298q34 8 74 8zM291 78q62 0 100.5 40t38.5 105t-38.5 105t-100.5 40t-100 -40t-38 -105t38 -105t100 -40z" />
    <glyph glyph-name="seven" unicode="7" horiz-adv-x="523" 
d="M22 740h484l-257 -740h-114l233 652h-346v88z" />
    <glyph glyph-name="eight" unicode="8" horiz-adv-x="604" 
d="M423 385q61 -24 94.5 -71.5t33.5 -111.5q0 -95 -68.5 -153.5t-180.5 -58.5t-180.5 58t-68.5 152q0 64 33.5 112t94.5 72q-51 24 -79.5 67.5t-28.5 99.5q0 89 63 144t166 55t166 -54.5t63 -143.5q0 -56 -28.5 -99.5t-79.5 -67.5zM302 662q-53 0 -86 -32.5t-33 -85.5
q0 -52 33 -84.5t86 -32.5t85.5 32t32.5 85t-32.5 85.5t-85.5 32.5zM302 78q62 0 100 35.5t38 94.5t-38 95t-100 36t-100.5 -36t-38.5 -95q0 -58 38.5 -94t100.5 -36z" />
    <glyph glyph-name="nine" unicode="9" horiz-adv-x="575" 
d="M282 750q112 0 180.5 -64t68.5 -168q0 -100 -67 -195l-223 -323h-120l214 298q-34 -8 -74 -8q-98 0 -162.5 62.5t-64.5 163.5q0 105 68 169.5t180 64.5zM144 517q0 -65 38.5 -105t100.5 -40t100 40t38 105t-38 105t-100 40t-100.5 -40t-38.5 -105z" />
    <glyph glyph-name="colon" unicode=":" horiz-adv-x="267" 
d="M134 403q-29 0 -50 20.5t-21 49.5t21 50t50 21t49.5 -21t20.5 -50t-21 -49.5t-49 -20.5zM134 -10q-29 0 -50 21t-21 50t21 49.5t50 20.5q28 0 49 -20.5t21 -49.5t-20.5 -50t-49.5 -21z" />
    <glyph glyph-name="semicolon" unicode=";" horiz-adv-x="306" 
d="M159 403q-29 0 -50 20.5t-21 49.5t21 50t50 21t49.5 -21t20.5 -50t-20.5 -49.5t-49.5 -20.5zM40 -145l69 249h120l-85 -249h-104z" />
    <glyph glyph-name="less" unicode="&#x3c;" horiz-adv-x="550" 
d="M479 594v-96l-316 -148l316 -148v-96l-442 212v64z" />
    <glyph glyph-name="equal" unicode="=" horiz-adv-x="591" 
d="M70 419v85h451v-85h-451zM70 193v85h451v-85h-451z" />
    <glyph glyph-name="greater" unicode="&#x3e;" horiz-adv-x="550" 
d="M71 594l442 -212v-64l-442 -212v96l316 148l-316 148v96z" />
    <glyph glyph-name="question" unicode="?" horiz-adv-x="534" 
d="M215 189q0 73 19 128t38.5 77.5t52.5 51.5q21 18 32 29.5t20.5 31t9.5 43.5q0 50 -34.5 81t-91.5 31q-55 0 -90 -31t-39 -81l-99 5q5 88 67 141.5t161 53.5q106 0 171 -53.5t65 -139.5q0 -38 -14.5 -69t-29.5 -47t-45 -41q-26 -22 -39 -35.5t-31.5 -39.5t-26.5 -59.5
t-8 -76.5h-88zM259 -10q-28 0 -46 18t-18 46t18 45.5t46 17.5q27 0 45 -17.5t18 -45.5t-18 -46t-45 -18z" />
    <glyph glyph-name="at" unicode="@" horiz-adv-x="1095" 
d="M663 477h98v-269q0 -37 19 -59t50 -22q49 0 79.5 53.5t30.5 138.5q0 156 -104.5 250t-273.5 94q-185 0 -296.5 -111t-111.5 -294q0 -182 110 -291t298 -109q144 0 271 36l31 -80q-138 -44 -305 -44q-234 0 -372.5 134t-138.5 355q0 223 140 357.5t374 134.5
q215 0 347.5 -116t132.5 -308q0 -128 -58 -208t-152 -80q-53 0 -91 26t-56 72q-49 -99 -169 -99q-92 0 -151 61.5t-59 160.5q0 100 59 162.5t149 62.5q97 0 147 -77zM536 126q55 0 89 37.5t34 97.5q0 61 -34 98.5t-89 37.5t-89 -37.5t-34 -98.5t34 -98t89 -37z" />
    <glyph glyph-name="A" unicode="A" horiz-adv-x="741" 
d="M627 0l-72 172h-368l-73 -172h-114l321 740h99l320 -740h-113zM224 260h294l-147 349z" />
    <glyph glyph-name="B" unicode="B" horiz-adv-x="695" 
d="M502 389q69 -20 108 -67t39 -112q0 -95 -68 -152.5t-180 -57.5h-306v740h294q101 0 162 -52.5t61 -138.5q0 -107 -110 -160zM202 652v-228h163q61 0 99 31.5t38 82.5t-38 82.5t-100 31.5h-162zM393 88q65 0 105 34t40 90t-40 90t-104 34h-192v-248h191z" />
    <glyph glyph-name="C" unicode="C" horiz-adv-x="763" 
d="M431 -10q-172 0 -277.5 105t-105.5 277q0 170 105 274t277 104q176 0 285 -120l-67 -68q-81 100 -215 100q-124 0 -199 -79.5t-75 -210.5q0 -132 75.5 -213t197.5 -81q150 0 233 124l73 -66q-110 -146 -307 -146z" />
    <glyph glyph-name="D" unicode="D" horiz-adv-x="775" 
d="M365 740q163 0 262 -102t99 -269q0 -166 -99 -267.5t-262 -101.5h-270v740h270zM361 88q115 0 185 77.5t70 203.5q0 127 -70 205t-185 78h-159v-564h159z" />
    <glyph glyph-name="E" unicode="E" horiz-adv-x="637" 
d="M202 88h379v-88h-486v740h478v-88h-371v-232h343v-88h-343v-244z" />
    <glyph glyph-name="F" unicode="F" horiz-adv-x="571" 
d="M536 652h-334v-252h293v-88h-293v-312h-107v740h441v-88z" />
    <glyph glyph-name="G" unicode="G" horiz-adv-x="806" 
d="M775 404q1 -11 1 -34q0 -173 -96.5 -276.5t-259.5 -103.5q-167 0 -269 104.5t-102 275.5t101.5 275.5t269.5 104.5q153 0 254 -79l-70 -67q-67 58 -183 58q-118 0 -190 -80.5t-72 -211.5t72 -211.5t190 -80.5q106 0 171.5 64.5t72.5 173.5h-215v88h325z" />
    <glyph glyph-name="H" unicode="H" horiz-adv-x="831" 
d="M630 740h106v-740h-106v332h-428v-332h-107v740h107v-319h428v319z" />
    <glyph glyph-name="I" unicode="I" horiz-adv-x="297" 
d="M95 0v740h107v-740h-107z" />
    <glyph glyph-name="J" unicode="J" horiz-adv-x="417" 
d="M147 -10q-92 0 -140 56l28 71q39 -39 93 -39q43 0 68 25.5t25 67.5v569h106v-588q0 -73 -49.5 -117.5t-130.5 -44.5z" />
    <glyph glyph-name="K" unicode="K" horiz-adv-x="691" 
d="M562 0l-257 334h-103v-334h-107v740h107v-317h102l247 317h128l-284 -360l295 -380h-128z" />
    <glyph glyph-name="L" unicode="L" horiz-adv-x="555" 
d="M202 88h338v-88h-445v740h107v-652z" />
    <glyph glyph-name="M" unicode="M" horiz-adv-x="993" 
d="M920 0h-106l-31 561l-256 -561h-61l-255 559l-31 -559h-107l47 745h115l262 -573l261 573h115z" />
    <glyph glyph-name="N" unicode="N" horiz-adv-x="853" 
d="M95 0v740h67l492 -558l-3 558h107v-740h-67l-491 558l2 -558h-107z" />
    <glyph glyph-name="O" unicode="O" horiz-adv-x="853" 
d="M427 -10q-170 0 -274.5 104.5t-104.5 275.5t104.5 275.5t274.5 104.5t274 -104.5t104 -275.5t-104 -275.5t-274 -104.5zM427 78q120 0 194 80.5t74 211.5t-74 211.5t-194 80.5q-121 0 -194.5 -80.5t-73.5 -211.5t73.5 -211.5t194.5 -80.5z" />
    <glyph glyph-name="P" unicode="P" horiz-adv-x="659" 
d="M379 740q112 0 181 -64t69 -168q0 -107 -69.5 -173t-183.5 -66h-174v-269h-107v740h284zM366 357q70 0 111 40.5t41 107.5q0 66 -41.5 106.5t-110.5 40.5h-164v-295h164z" />
    <glyph glyph-name="Q" unicode="Q" horiz-adv-x="854" 
d="M825 0h-127l-49 52q-93 -62 -222 -62q-170 0 -274.5 104.5t-104.5 275.5t104.5 275.5t274.5 104.5t274 -104.5t104 -275.5q0 -154 -87 -257zM427 78q91 0 155 46l-131 141h122l72 -76q50 75 50 181q0 131 -74 211.5t-194 80.5q-121 0 -194.5 -80.5t-73.5 -211.5
t73.5 -211.5t194.5 -80.5z" />
    <glyph glyph-name="R" unicode="R" horiz-adv-x="713" 
d="M693 0h-125l-184 288h-9h-173v-288h-107v740h291q114 0 183.5 -62t69.5 -164q0 -74 -39 -128t-109 -79zM202 652v-276h165q73 0 117 38t44 100t-42.5 100t-112.5 38h-171z" />
    <glyph glyph-name="S" unicode="S" horiz-adv-x="635" 
d="M312 -10q-161 0 -251 89l42 73q82 -74 203 -74q79 0 125 30t46 82q0 51 -43.5 80t-131.5 55l-46 13q-96 27 -149 72t-53 127q0 96 72 154.5t191 58.5q143 0 239 -85l-48 -74q-80 71 -191 71q-69 0 -110.5 -30t-41.5 -79q0 -48 36 -73.5t105 -45.5l48 -13q47 -14 84 -30
t73.5 -42t56.5 -64t20 -85q0 -94 -76 -152t-200 -58z" />
    <glyph glyph-name="T" unicode="T" horiz-adv-x="599" 
d="M585 740v-88h-232v-652h-107v652h-232v88h571z" />
    <glyph glyph-name="U" unicode="U" horiz-adv-x="799" 
d="M400 -10q-141 0 -227.5 77.5t-86.5 204.5v468h106v-464q0 -89 57 -143.5t151 -54.5q92 0 149 54.5t57 143.5v464h107v-468q0 -127 -86 -204.5t-227 -77.5z" />
    <glyph glyph-name="V" unicode="V" horiz-adv-x="742" 
d="M321 0l-320 740h114l257 -609l255 609h114l-320 -740h-100z" />
    <glyph glyph-name="W" unicode="W" horiz-adv-x="1120" 
d="M1000 740h114l-260 -740h-100l-194 588l-194 -588h-99l-261 740h114l202 -597l188 597h100l190 -597z" />
    <glyph glyph-name="X" unicode="X" horiz-adv-x="663" 
d="M662 0h-123l-207 302l-208 -302h-123l271 382l-250 358h123l186 -275l186 275h123l-249 -357z" />
    <glyph glyph-name="Y" unicode="Y" horiz-adv-x="673" 
d="M545 740h114l-269 -453v-287h-107v287l-269 453h115l208 -358z" />
    <glyph glyph-name="Z" unicode="Z" horiz-adv-x="647" 
d="M179 88h433v-88h-577v67l424 585h-418v88h561v-67z" />
    <glyph glyph-name="bracketleft" unicode="[" horiz-adv-x="373" 
d="M88 -180v960h257v-88h-151v-784h151v-88h-257z" />
    <glyph glyph-name="backslash" unicode="\" horiz-adv-x="423" 
d="M279 -100l-239 880h103l239 -880h-103z" />
    <glyph glyph-name="bracketright" unicode="]" horiz-adv-x="373" 
d="M285 -180h-257v88h151v784h-151v88h257v-960z" />
    <glyph glyph-name="asciicircum" unicode="^" horiz-adv-x="513" 
d="M465 319h-101l-107 214l-108 -214h-101l158 315h101z" />
    <glyph glyph-name="underscore" unicode="_" horiz-adv-x="556" 
d="M25 -74v74h506v-74h-506z" />
    <glyph glyph-name="grave" unicode="`" horiz-adv-x="600" 
d="M156 619l-166 155h122l133 -155h-89z" />
    <glyph glyph-name="a" unicode="a" horiz-adv-x="565" 
d="M274 544q100 0 161 -57t61 -151v-336h-99l-2 94q-27 -49 -76 -76.5t-106 -27.5q-80 0 -130 44t-50 116q0 75 61 120.5t162 45.5q69 0 138 -15v24q0 64 -39 101t-106 37q-82 0 -137 -52l-45 61q81 72 207 72zM242 64q59 0 105 45.5t47 121.5q-65 14 -125 14
q-58 0 -93.5 -25.5t-35.5 -66.5t27 -65t75 -24z" />
    <glyph glyph-name="b" unicode="b" horiz-adv-x="673" 
d="M374 544q111 0 183 -77.5t72 -201.5q0 -122 -72 -198.5t-183 -76.5q-137 0 -197 107l-3 -97h-98v780h102v-341q61 105 196 105zM350 78q78 0 125.5 51.5t47.5 136.5q0 86 -47.5 138t-125.5 52q-77 0 -124.5 -52t-47.5 -137t47.5 -137t124.5 -52z" />
    <glyph glyph-name="c" unicode="c" horiz-adv-x="541" 
d="M320 -10q-124 0 -200.5 76t-76.5 201t77 201t203 76q101 0 178 -60l-58 -70q-51 42 -119 42q-79 0 -127 -52t-48 -137t48.5 -137t127.5 -52q84 0 134 53l59 -69q-75 -72 -198 -72z" />
    <glyph glyph-name="d" unicode="d" horiz-adv-x="672" 
d="M495 780h102v-780h-99l-2 98q-62 -108 -197 -108q-111 0 -183.5 76t-72.5 199q0 124 72.5 201.5t183.5 77.5q134 0 196 -107v343zM322 78q77 0 125 52t48 137t-48 137t-125 52q-78 0 -125.5 -52t-47.5 -138q0 -85 47.5 -136.5t125.5 -51.5z" />
    <glyph glyph-name="e" unicode="e" horiz-adv-x="601" 
d="M561 274q0 -32 -2 -44h-407q8 -75 47 -117t107 -42q93 0 153 78l78 -42q-38 -56 -97.5 -86.5t-132.5 -30.5q-118 0 -190.5 75.5t-72.5 199.5q0 125 71 202t188 77q116 0 187 -74t71 -196zM303 463q-65 0 -104.5 -43t-46.5 -120h304q-7 77 -47 120t-106 43z" />
    <glyph glyph-name="f" unicode="f" horiz-adv-x="390" 
d="M307 702q-41 0 -66.5 -23.5t-25.5 -62.5v-82h162v-84h-162v-450h-102v450h-90v84h90v98q0 71 44.5 114.5t118.5 43.5q71 0 113 -21l-8 -80q-27 13 -74 13z" />
    <glyph glyph-name="g" unicode="g" horiz-adv-x="672" 
d="M499 534h99v-490q0 -124 -83.5 -199t-220.5 -75q-146 0 -236 69l22 81q89 -62 211 -62q92 0 148.5 52t56.5 137v49q-62 -106 -196 -106q-111 0 -183.5 77.5t-72.5 201.5q0 123 72.5 199t183.5 76q135 0 197 -108zM323 78q77 0 125 52t48 137t-48 137t-125 52
q-78 0 -125.5 -51.5t-47.5 -136.5q0 -86 47.5 -138t125.5 -52z" />
    <glyph glyph-name="h" unicode="h" horiz-adv-x="645" 
d="M360 544q97 0 156.5 -57t59.5 -151v-336h-102v318q0 62 -40.5 100t-107.5 38t-107.5 -38t-40.5 -100v-318h-102v780h102v-322q59 86 182 86z" />
    <glyph glyph-name="i" unicode="i" horiz-adv-x="255" 
d="M128 645q-28 0 -46 18t-18 46t18 46t46 18q27 0 45 -18t18 -46t-18 -46t-45 -18zM77 0v534h102v-534h-102z" />
    <glyph glyph-name="j" unicode="j" horiz-adv-x="262" 
d="M132 645q-27 0 -45 18t-18 46t18 46t45 18q28 0 46 -18t18 -46t-18 -46t-46 -18zM26 -230q-60 0 -98 16l8 82q26 -10 61 -10q38 0 62 26.5t24 70.5v579h102v-603q0 -73 -44 -117t-115 -44z" />
    <glyph glyph-name="k" unicode="k" horiz-adv-x="587" 
d="M460 0l-203 238h-79v-238h-102v780h102v-457h80l190 211h129l-236 -253l249 -281h-130z" />
    <glyph glyph-name="l" unicode="l" horiz-adv-x="258" 
d="M78 0v780h102v-780h-102z" />
    <glyph glyph-name="m" unicode="m" horiz-adv-x="977" 
d="M694 544q96 0 154.5 -57t58.5 -151v-336h-102v318q0 62 -36 100t-95 38t-95.5 -38t-36.5 -100v-318h-102v318q0 62 -36 100t-95 38t-95 -38t-36 -100v-318h-102v534h98l2 -73q55 83 167 83q119 0 172 -95q55 95 179 95z" />
    <glyph glyph-name="n" unicode="n" horiz-adv-x="645" 
d="M360 544q97 0 156.5 -57t59.5 -151v-336h-102v318q0 62 -40.5 100t-107.5 38t-107.5 -38t-40.5 -100v-318h-102v534h98l2 -79q59 89 184 89z" />
    <glyph glyph-name="o" unicode="o" horiz-adv-x="643" 
d="M322 -10q-125 0 -202 76.5t-77 200.5t77 200.5t202 76.5t201.5 -76.5t76.5 -200.5t-76.5 -200.5t-201.5 -76.5zM322 78q77 0 124.5 52t47.5 137t-47.5 137t-124.5 52q-78 0 -125.5 -52t-47.5 -137t47.5 -137t125.5 -52z" />
    <glyph glyph-name="p" unicode="p" horiz-adv-x="673" 
d="M374 544q111 0 183 -76.5t72 -198.5q0 -124 -72 -201.5t-183 -77.5q-135 0 -196 105v-315h-102v754h98l3 -97q60 107 197 107zM350 78q78 0 125.5 52t47.5 138q0 85 -47.5 136.5t-125.5 51.5q-77 0 -124.5 -52t-47.5 -137t47.5 -137t124.5 -52z" />
    <glyph glyph-name="q" unicode="q" horiz-adv-x="672" 
d="M498 534h99v-754h-102v316q-62 -106 -196 -106q-111 0 -183.5 77.5t-72.5 201.5q0 123 72.5 199t183.5 76q135 0 197 -108zM322 78q77 0 125 52t48 137t-48 137t-125 52q-78 0 -125.5 -51.5t-47.5 -136.5q0 -86 47.5 -138t125.5 -52z" />
    <glyph glyph-name="r" unicode="r" horiz-adv-x="388" 
d="M176 454q61 90 204 90l-7 -94q-90 0 -142.5 -41t-52.5 -110v-299h-102v534h98z" />
    <glyph glyph-name="s" unicode="s" horiz-adv-x="496" 
d="M241 -10q-125 0 -193 59l40 63q65 -42 154 -42q47 0 76 20t29 53q0 53 -102 82l-51 14q-73 20 -110 51t-37 89q0 74 55 119.5t144 45.5q114 0 191 -51l-44 -68q-62 38 -140 38q-45 0 -73 -19t-28 -50q0 -28 23 -44.5t67 -29.5l51 -14q159 -43 159 -155q0 -73 -57.5 -117
t-153.5 -44z" />
    <glyph glyph-name="t" unicode="t" horiz-adv-x="411" 
d="M294 78q54 0 100 18v-82q-54 -24 -132 -24q-69 0 -111.5 43.5t-42.5 113.5v303h-91v84h91v156h102v-156h176v-84h-176v-282q0 -40 23 -65t61 -25z" />
    <glyph glyph-name="u" unicode="u" horiz-adv-x="628" 
d="M451 534h102v-534h-98l-2 77q-56 -87 -176 -87q-94 0 -151 57t-57 151v336h102v-319q0 -62 38.5 -99.5t101.5 -37.5t101.5 37.5t38.5 99.5v319z" />
    <glyph glyph-name="v" unicode="v" horiz-adv-x="585" 
d="M241 0l-232 534h112l171 -417l172 417h111l-231 -534h-103z" />
    <glyph glyph-name="w" unicode="w" horiz-adv-x="916" 
d="M793 534h112l-202 -534h-103l-142 414l-142 -414h-103l-202 534h112l148 -417l144 417h86l144 -417z" />
    <glyph glyph-name="x" unicode="x" horiz-adv-x="563" 
d="M554 0h-123l-149 203l-150 -203h-123l210 273l-198 261h123l138 -189l137 189h123l-198 -261z" />
    <glyph glyph-name="y" unicode="y" horiz-adv-x="584" 
d="M140 -230q-44 0 -72 14l11 83q18 -9 44 -9q31 0 48 17t37 54l37 80l-234 525h112l175 -414l167 414h112l-270 -618q-31 -75 -67 -110.5t-100 -35.5z" />
    <glyph glyph-name="z" unicode="z" horiz-adv-x="528" 
d="M38 0v66l298 384h-293v84h438v-66l-298 -383h310v-85h-455z" />
    <glyph glyph-name="braceleft" unicode="{" horiz-adv-x="404" 
d="M269 -190q-68 0 -109.5 41.5t-41.5 109.5v196q0 45 -22 72t-57 27h-7v88h7q35 0 57 27.5t22 71.5v196q0 68 41.5 109.5t109.5 41.5q58 0 106 -12v-84q-35 8 -71 8t-58 -25.5t-22 -67.5v-178q0 -50 -22 -85.5t-59 -45.5q37 -10 59 -45.5t22 -85.5v-178q0 -42 22 -67.5
t58 -25.5t71 8v-84q-48 -12 -106 -12z" />
    <glyph glyph-name="bar" unicode="|" horiz-adv-x="284" 
d="M89 -220v1000h106v-1000h-106z" />
    <glyph glyph-name="braceright" unicode="}" horiz-adv-x="404" 
d="M135 -190q-58 0 -106 12v84q35 -8 71 -8t58 25.5t22 67.5v178q0 50 22 85.5t59 45.5q-37 10 -59 45.5t-22 85.5v178q0 42 -22 67.5t-58 25.5t-71 -8v84q48 12 106 12q68 0 109.5 -41.5t41.5 -109.5v-196q0 -44 22 -71.5t57 -27.5h7v-88h-7q-35 0 -57 -27t-22 -72v-196
q0 -68 -41.5 -109.5t-109.5 -41.5z" />
    <glyph glyph-name="asciitilde" unicode="~" horiz-adv-x="587" 
d="M392 226q-42 0 -105 32.5t-89 32.5q-30 0 -49 -15t-19 -40h-58q0 59 35 94.5t90 35.5q43 0 105 -32t89 -32q31 0 50 14.5t19 39.5h58q0 -60 -35 -95t-91 -35z" />
    <glyph glyph-name="uni00A0" unicode="&#xa0;" horiz-adv-x="257" 
 />
    <glyph glyph-name="exclamdown" unicode="&#xa1;" horiz-adv-x="259" 
d="M130 416q-28 0 -46 18.5t-18 45.5q0 28 18 46t46 18t45.5 -18t17.5 -46q0 -27 -18 -45.5t-45 -18.5zM76 -220l10 565h88l9 -565h-107z" />
    <glyph glyph-name="cent" unicode="&#xa2;" horiz-adv-x="572" 
d="M518 112q-57 -55 -145 -68v-84h-96v83q-107 13 -170.5 87t-63.5 187q0 112 63.5 186t170.5 88v83h96v-84q71 -12 128 -56l-58 -70q-51 42 -119 42q-79 0 -127 -52t-48 -137t48.5 -137t127.5 -52q84 0 134 53z" />
    <glyph glyph-name="sterling" unicode="&#xa3;" horiz-adv-x="603" 
d="M223 85h324v-85h-495v84h65v222h-55v85h55v168q0 86 58.5 138.5t153.5 52.5t153.5 -53t58.5 -139l-104 -7q0 50 -29.5 80.5t-78.5 30.5q-47 0 -76.5 -30t-29.5 -79v-162h284v-85h-284v-221z" />
    <glyph glyph-name="currency" unicode="&#xa4;" horiz-adv-x="624" 
d="M538 344q0 -68 -38 -125l61 -61l-62 -63l-62 61q-58 -37 -125 -37q-69 0 -125 36l-61 -61l-63 63l61 61q-39 56 -39 126t39 125l-61 61l63 63l62 -62q55 36 124 36q70 0 125 -37l62 62l62 -63l-61 -61q38 -55 38 -124zM312 196q59 0 100.5 43t41.5 105q0 61 -41.5 104.5
t-100.5 43.5t-101 -43.5t-42 -104.5t42 -104.5t101 -43.5z" />
    <glyph glyph-name="yen" unicode="&#xa5;" horiz-adv-x="704" 
d="M675 740l-233 -393h126v-68h-162v-54h162v-68h-162v-157h-107v157h-163v68h163v54h-163v68h127l-233 393h115l208 -358l208 358h114z" />
    <glyph glyph-name="brokenbar" unicode="&#xa6;" horiz-adv-x="281" 
d="M87 380v400h107v-400h-107zM87 -220v400h107v-400h-107z" />
    <glyph glyph-name="section" unicode="&#xa7;" horiz-adv-x="599" 
d="M547 240q0 -79 -50 -134q50 -52 50 -126q0 -95 -69.5 -152.5t-183.5 -57.5q-146 0 -231 89l41 73q77 -74 184 -74q70 0 109.5 30t39.5 82q0 50 -38 79t-115 54l-41 14q-90 28 -138.5 72.5t-48.5 127.5q0 80 49 137q-49 47 -49 123q0 96 66.5 154.5t175.5 58.5
q130 0 220 -85l-47 -74q-74 71 -172 71q-60 0 -96 -30t-36 -79q0 -48 31 -72.5t95 -46.5l42 -13q44 -15 76.5 -31t66 -41.5t51.5 -63.5t18 -85zM293 208l42 -14q48 -16 82 -33q27 27 27 69q0 53 -40 84t-120 56l-41 13q-30 9 -57 21q-26 -29 -26 -71q0 -51 33.5 -77
t99.5 -48z" />
    <glyph glyph-name="dieresis" unicode="&#xa8;" horiz-adv-x="600" 
d="M124 645q-28 0 -46 18t-18 46t18 46t46 18q27 0 45 -18t18 -46t-18 -46t-45 -18zM347 645q-28 0 -46 18t-18 46t18 46t46 18q27 0 45 -18t18 -46t-18 -46t-45 -18z" />
    <glyph glyph-name="copyright" unicode="&#xa9;" horiz-adv-x="860" 
d="M430 -10q-171 0 -275 104.5t-104 275.5t104 275.5t275 104.5t275 -104.5t104 -275.5t-104 -275.5t-275 -104.5zM430 40q143 0 230.5 91t87.5 239t-87.5 239.5t-230.5 91.5t-230.5 -91.5t-87.5 -239.5t87.5 -239t230.5 -91zM437 158q-96 0 -155.5 58t-59.5 152t59 151
t155 57q99 0 160 -66l-46 -47q-41 53 -112 53q-64 0 -102.5 -41t-38.5 -107q0 -68 39 -109t102 -41q78 0 122 65l49 -44q-60 -81 -172 -81z" />
    <glyph glyph-name="ordfeminine" unicode="&#xaa;" horiz-adv-x="397" 
d="M194 750q61 0 98 -34t37 -91v-202h-65l-1 54q-35 -60 -106 -60q-49 0 -79 27t-30 70q0 46 37 73.5t98 27.5q31 0 80 -9v12q0 37 -22.5 58.5t-62.5 21.5q-48 0 -80 -30l-30 40q51 42 126 42zM176 465q34 0 60.5 26.5t26.5 69.5q-38 8 -72 8t-54 -14.5t-20 -38.5
t15.5 -37.5t43.5 -13.5z" />
    <glyph glyph-name="guillemotleft" unicode="&#xab;" horiz-adv-x="618" 
d="M326 497l-173 -227l173 -227h-108l-178 227l178 227h108zM574 497l-173 -227l173 -227h-109l-178 227l178 227h109z" />
    <glyph glyph-name="logicalnot" unicode="&#xac;" horiz-adv-x="591" 
d="M519 443v-242h-102v158h-349v84h451z" />
    <glyph glyph-name="uni00AD" unicode="&#xad;" horiz-adv-x="456" 
d="M67 251v74h322v-74h-322z" />
    <glyph glyph-name="registered" unicode="&#xae;" horiz-adv-x="413" 
d="M207 790q69 0 111.5 -42t42.5 -112q0 -69 -42.5 -111.5t-111.5 -42.5q-70 0 -112.5 42.5t-42.5 111.5q0 70 42.5 112t112.5 42zM207 503q58 0 93 36.5t35 96.5t-35 97t-93 37t-93.5 -37t-35.5 -97t35.5 -96.5t93.5 -36.5zM269 665q0 -32 -31 -45l43 -66h-35l-37 61h-34
v-61h-30v163h67q26 0 41.5 -14.5t15.5 -37.5zM175 692v-53h32q14 0 22.5 7.5t8.5 18.5q0 27 -29 27h-34z" />
    <glyph glyph-name="macron" unicode="&#xaf;" horiz-adv-x="600" 
d="M53 636v81h331v-81h-331z" />
    <glyph glyph-name="degree" unicode="&#xb0;" horiz-adv-x="358" 
d="M179 544q-60 0 -97 34t-37 89t37 89t97 34q61 0 97.5 -33.5t36.5 -89.5t-36.5 -89.5t-97.5 -33.5zM179 598q30 0 48.5 19t18.5 50t-18.5 50t-48.5 19t-49 -19t-19 -50t19 -50t49 -19z" />
    <glyph glyph-name="plusminus" unicode="&#xb1;" horiz-adv-x="595" 
d="M348 466h171v-85h-171v-176h-102v176h-171v85h171v176h102v-176zM75 56v85h444v-85h-444z" />
    <glyph glyph-name="uni00B2" unicode="&#xb2;" horiz-adv-x="359" 
d="M31 396v44l136 147q2 2 13 14t16 17.5t15 18t15 21t11.5 20.5t9 23t2.5 22q0 31 -19 48.5t-51 17.5q-33 0 -53 -20.5t-20 -54.5l-70 6q0 57 39 91.5t103 34.5q63 0 101.5 -32.5t38.5 -85.5q0 -45 -26.5 -85.5t-78.5 -94.5l-91 -96l202 1v-57h-293z" />
    <glyph glyph-name="uni00B3" unicode="&#xb3;" horiz-adv-x="354" 
d="M180 660q64 0 102.5 -36t38.5 -95q0 -63 -44 -101t-119 -38q-89 0 -133 46l26 51q35 -40 99 -40q46 0 73 22.5t27 59.5q0 35 -26 56.5t-69 21.5q-36 0 -63 -15l-20 35l139 156h-167v57h258v-43l-129 -137h7z" />
    <glyph glyph-name="acute" unicode="&#xb4;" horiz-adv-x="600" 
d="M117 619l133 155h121l-166 -155h-88z" />
    <glyph glyph-name="paragraph" unicode="&#xb6;" horiz-adv-x="592" 
d="M490 740v-960h-79v885h-97v-885h-79v623h-66q-62 0 -99.5 46.5t-37.5 123.5q0 76 43 121.5t114 45.5h301z" />
    <glyph glyph-name="periodcentered" unicode="&#xb7;" horiz-adv-x="261" 
d="M130 219q-29 0 -49.5 21t-20.5 50q0 28 21 49t49 21q29 0 50 -20.5t21 -49.5t-21 -50t-50 -21z" />
    <glyph glyph-name="cedilla" unicode="&#xb8;" horiz-adv-x="600" 
d="M134 -60q49 0 78.5 -22.5t29.5 -59.5q0 -39 -34 -63.5t-91 -24.5q-62 0 -97 27l20 40q24 -21 67 -21q30 0 47 11.5t17 30.5q0 18 -16.5 28.5t-43.5 10.5q-21 0 -42 -8l-14 25l50 86h61l-38 -60h6z" />
    <glyph glyph-name="uni00B9" unicode="&#xb9;" horiz-adv-x="268" 
d="M139 396v356l-97 -70l-34 49l147 109h53v-444h-69z" />
    <glyph glyph-name="ordmasculine" unicode="&#xba;" horiz-adv-x="428" 
d="M215 417q-76 0 -122.5 46t-46.5 121t46.5 120.5t122.5 45.5q75 0 121.5 -45.5t46.5 -120.5t-46.5 -121t-121.5 -46zM215 474q44 0 71.5 30.5t27.5 79.5t-27.5 79.5t-71.5 30.5q-45 0 -73 -30.5t-28 -79.5t28 -79.5t73 -30.5z" />
    <glyph glyph-name="guillemotright" unicode="&#xbb;" horiz-adv-x="618" 
d="M153 497l178 -227l-178 -227h-109l173 227l-173 227h109zM400 497l178 -227l-178 -227h-108l173 227l-173 227h108z" />
    <glyph glyph-name="onequarter" unicode="&#xbc;" horiz-adv-x="825" 
d="M188 -10l-56 35l425 725l56 -34zM139 296v356l-97 -70l-34 49l147 109h53v-444h-69zM667 0v90h-212v48l226 306h55v-296h63v-58h-63v-90h-69zM531 145h138v188z" />
    <glyph glyph-name="onehalf" unicode="&#xbd;" horiz-adv-x="836" 
d="M188 -10l-56 35l425 725l56 -34zM139 296v356l-97 -70l-34 49l147 109h53v-444h-69zM508 0v44l136 147q2 2 13 14t16 17.5t15 18t15 21t11.5 20.5t9 23t2.5 22q0 31 -19 48.5t-51 17.5q-33 0 -53 -20.5t-20 -54.5l-70 6q0 57 39 91.5t103 34.5q63 0 101.5 -32.5
t38.5 -85.5q0 -45 -26.5 -85.5t-78.5 -94.5l-91 -96l202 1v-57h-293z" />
    <glyph glyph-name="threequarters" unicode="&#xbe;" horiz-adv-x="911" 
d="M643 750l56 -34l-425 -726l-56 35zM321 429q0 -63 -44 -101t-119 -38q-89 0 -133 46l26 51q35 -40 99 -40q46 0 73 22.5t27 59.5q0 35 -26 56.5t-69 21.5q-36 0 -63 -15l-20 35l139 156h-167v57h258v-43l-129 -137h7q64 0 102.5 -36t38.5 -95zM822 148h63v-58h-63v-90
h-69v90h-212v48l226 306h55v-296zM755 145v188l-138 -188h138z" />
    <glyph glyph-name="questiondown" unicode="&#xbf;" horiz-adv-x="527" 
d="M272 416q-28 0 -46 18.5t-18 45.5q0 28 18 46t46 18t45.5 -18t17.5 -46q0 -27 -18 -45.5t-45 -18.5zM270 -230q-106 0 -171.5 53.5t-65.5 139.5q0 29 6.5 52t22 43.5t26 30.5t34.5 32q26 23 39.5 37.5t31.5 42t26.5 63t8.5 81.5h88q0 -59 -9 -104.5t-28 -77.5t-33.5 -49
t-39.5 -40q-21 -18 -32 -29.5t-20.5 -31t-9.5 -43.5q0 -50 34.5 -81t91.5 -31q54 0 89.5 31t38.5 81l99 -5q-4 -88 -66.5 -141.5t-160.5 -53.5z" />
    <glyph glyph-name="Agrave" unicode="&#xc0;" horiz-adv-x="741" 
d="M435 825h-89l-166 155h122zM627 0l-72 172h-368l-73 -172h-114l321 740h99l320 -740h-113zM224 260h294l-147 349z" />
    <glyph glyph-name="Aacute" unicode="&#xc1;" horiz-adv-x="741" 
d="M561 980l-166 -155h-88l133 155h121zM627 0l-72 172h-368l-73 -172h-114l321 740h99l320 -740h-113zM224 260h294l-147 349z" />
    <glyph glyph-name="Acircumflex" unicode="&#xc2;" horiz-adv-x="741" 
d="M371 923l-84 -98h-96l130 155h100l130 -155h-96zM627 0l-72 172h-368l-73 -172h-114l321 740h99l320 -740h-113zM224 260h294l-147 349z" />
    <glyph glyph-name="Atilde" unicode="&#xc3;" horiz-adv-x="741" 
d="M290 894q-21 0 -34.5 -15t-13.5 -40h-58q0 59 29 94.5t76 35.5q36 0 87.5 -32t73.5 -32q21 0 34.5 14.5t13.5 39.5h58q0 -60 -29 -95t-76 -35q-35 0 -87 32.5t-74 32.5zM627 0l-72 172h-368l-73 -172h-114l321 740h99l320 -740h-113zM224 260h294l-147 349z" />
    <glyph glyph-name="Adieresis" unicode="&#xc4;" horiz-adv-x="741" 
d="M260 851q-28 0 -46 18t-18 46t18 46t46 18q27 0 45 -18t18 -46t-18 -46t-45 -18zM483 851q-28 0 -46 18t-18 46t18 46t46 18q27 0 45 -18t18 -46t-18 -46t-45 -18zM627 0l-72 172h-368l-73 -172h-114l321 740h99l320 -740h-113zM224 260h294l-147 349z" />
    <glyph glyph-name="Aring" unicode="&#xc5;" horiz-adv-x="741" 
d="M371 790q-51 0 -82 29t-31 78q0 47 31 76.5t82 29.5t82 -29.5t31 -76.5q0 -49 -31 -78t-82 -29zM371 954q-25 0 -40.5 -16t-15.5 -41q0 -26 15.5 -42.5t40.5 -16.5t40 16.5t15 42.5t-15 41.5t-40 15.5zM627 0l-72 172h-368l-73 -172h-114l321 740h99l320 -740h-113z
M224 260h294l-147 349z" />
    <glyph glyph-name="AE" unicode="&#xc6;" horiz-adv-x="1081" 
d="M697 88h329v-88h-419l-45 172h-356l-99 -172h-120l448 740h582v-88h-474l63 -232h383v-88h-359zM257 260h282l-88 336z" />
    <glyph glyph-name="Ccedilla" unicode="&#xc7;" horiz-adv-x="763" 
d="M738 136q-100 -135 -280 -145l-32 -51h6q49 0 78.5 -22.5t29.5 -59.5q0 -39 -34 -63.5t-91 -24.5q-62 0 -97 27l20 40q24 -21 67 -21q30 0 47 11.5t17 30.5q0 18 -16.5 28.5t-43.5 10.5q-21 0 -42 -8l-14 25l45 77q-159 11 -254.5 114.5t-95.5 266.5q0 170 105 274
t277 104q176 0 285 -120l-67 -68q-81 100 -215 100q-124 0 -199 -79.5t-75 -210.5q0 -132 75.5 -213t197.5 -81q150 0 233 124z" />
    <glyph glyph-name="Egrave" unicode="&#xc8;" horiz-adv-x="637" 
d="M398 825h-89l-166 155h122zM202 88h379v-88h-486v740h478v-88h-371v-232h343v-88h-343v-244z" />
    <glyph glyph-name="Eacute" unicode="&#xc9;" horiz-adv-x="637" 
d="M524 980l-166 -155h-88l133 155h121zM202 88h379v-88h-486v740h478v-88h-371v-232h343v-88h-343v-244z" />
    <glyph glyph-name="Ecircumflex" unicode="&#xca;" horiz-adv-x="637" 
d="M334 923l-84 -98h-96l130 155h100l130 -155h-96zM202 88h379v-88h-486v740h478v-88h-371v-232h343v-88h-343v-244z" />
    <glyph glyph-name="Edieresis" unicode="&#xcb;" horiz-adv-x="637" 
d="M223 851q-28 0 -46 18t-18 46t18 46t46 18q27 0 45 -18t18 -46t-18 -46t-45 -18zM446 851q-28 0 -46 18t-18 46t18 46t46 18q27 0 45 -18t18 -46t-18 -46t-45 -18zM202 88h379v-88h-486v740h478v-88h-371v-232h343v-88h-343v-244z" />
    <glyph glyph-name="Igrave" unicode="&#xcc;" horiz-adv-x="297" 
d="M123 825l-166 155h122l133 -155h-89zM95 0v740h107v-740h-107z" />
    <glyph glyph-name="Iacute" unicode="&#xcd;" horiz-adv-x="297" 
d="M84 825l133 155h121l-166 -155h-88zM95 0v740h107v-740h-107z" />
    <glyph glyph-name="Icircumflex" unicode="&#xce;" horiz-adv-x="297" 
d="M198 980l130 -155h-96l-84 98l-84 -98h-96l130 155h100zM95 0v740h107v-740h-107z" />
    <glyph glyph-name="Idieresis" unicode="&#xcf;" horiz-adv-x="297" 
d="M37 851q-28 0 -46 18t-18 46t18 46t46 18q27 0 45 -18t18 -46t-18 -46t-45 -18zM260 851q-28 0 -46 18t-18 46t18 46t46 18q27 0 45 -18t18 -46t-18 -46t-45 -18zM95 0v740h107v-740h-107z" />
    <glyph glyph-name="Eth" unicode="&#xd0;" horiz-adv-x="775" 
d="M365 740q163 0 262 -102t99 -269q0 -166 -99 -267.5t-262 -101.5h-270v334h-81v74h81v332h270zM361 88q115 0 185 77.5t70 203.5q0 127 -70 205t-185 78h-159v-244h184v-74h-184v-246h159z" />
    <glyph glyph-name="Ntilde" unicode="&#xd1;" horiz-adv-x="853" 
d="M506 829q-34 0 -86 32.5t-75 32.5q-21 0 -34.5 -15t-13.5 -40h-58q0 59 29 94.5t76 35.5q36 0 87.5 -32t73.5 -32q21 0 34.5 14.5t13.5 39.5h58q0 -60 -29 -95t-76 -35zM95 0v740h67l492 -558l-3 558h107v-740h-67l-491 558l2 -558h-107z" />
    <glyph glyph-name="Ograve" unicode="&#xd2;" horiz-adv-x="853" 
d="M402 825l-166 155h122l133 -155h-89zM427 -10q-170 0 -274.5 104.5t-104.5 275.5t104.5 275.5t274.5 104.5t274 -104.5t104 -275.5t-104 -275.5t-274 -104.5zM427 78q120 0 194 80.5t74 211.5t-74 211.5t-194 80.5q-121 0 -194.5 -80.5t-73.5 -211.5t73.5 -211.5
t194.5 -80.5z" />
    <glyph glyph-name="Oacute" unicode="&#xd3;" horiz-adv-x="853" 
d="M363 825l133 155h121l-166 -155h-88zM427 -10q-170 0 -274.5 104.5t-104.5 275.5t104.5 275.5t274.5 104.5t274 -104.5t104 -275.5t-104 -275.5t-274 -104.5zM427 78q120 0 194 80.5t74 211.5t-74 211.5t-194 80.5q-121 0 -194.5 -80.5t-73.5 -211.5t73.5 -211.5
t194.5 -80.5z" />
    <glyph glyph-name="Ocircumflex" unicode="&#xd4;" horiz-adv-x="853" 
d="M427 923l-84 -98h-96l130 155h100l130 -155h-96zM427 750q170 0 274 -104.5t104 -275.5t-104 -275.5t-274 -104.5t-274.5 104.5t-104.5 275.5t104.5 275.5t274.5 104.5zM427 78q120 0 194 80.5t74 211.5t-74 211.5t-194 80.5q-121 0 -194.5 -80.5t-73.5 -211.5
t73.5 -211.5t194.5 -80.5z" />
    <glyph glyph-name="Otilde" unicode="&#xd5;" horiz-adv-x="853" 
d="M507 829q-35 0 -87 32.5t-74 32.5q-21 0 -34.5 -15t-13.5 -40h-58q0 59 29 94.5t76 35.5q36 0 87.5 -32t73.5 -32q21 0 34.5 14.5t13.5 39.5h58q0 -60 -29 -95t-76 -35zM427 -10q-170 0 -274.5 104.5t-104.5 275.5t104.5 275.5t274.5 104.5t274 -104.5t104 -275.5
t-104 -275.5t-274 -104.5zM427 78q120 0 194 80.5t74 211.5t-74 211.5t-194 80.5q-121 0 -194.5 -80.5t-73.5 -211.5t73.5 -211.5t194.5 -80.5z" />
    <glyph glyph-name="Odieresis" unicode="&#xd6;" horiz-adv-x="853" 
d="M316 851q-28 0 -46 18t-18 46t18 46t46 18q27 0 45 -18t18 -46t-18 -46t-45 -18zM539 851q-28 0 -46 18t-18 46t18 46t46 18q27 0 45 -18t18 -46t-18 -46t-45 -18zM427 -10q-170 0 -274.5 104.5t-104.5 275.5t104.5 275.5t274.5 104.5t274 -104.5t104 -275.5t-104 -275.5
t-274 -104.5zM427 78q120 0 194 80.5t74 211.5t-74 211.5t-194 80.5q-121 0 -194.5 -80.5t-73.5 -211.5t73.5 -211.5t194.5 -80.5z" />
    <glyph glyph-name="multiply" unicode="&#xd7;" horiz-adv-x="513" 
d="M454 483l-135 -135l134 -134l-63 -63l-133 134l-134 -134l-63 63l134 134l-135 135l63 62l135 -134l134 134z" />
    <glyph glyph-name="Oslash" unicode="&#xd8;" horiz-adv-x="856" 
d="M729 613q76 -98 76 -243q0 -171 -104 -275.5t-274 -104.5q-140 0 -237 72l-71 -72l-65 61l72 74q-78 98 -78 245q0 171 104.5 275.5t274.5 104.5q141 0 238 -74l72 74l66 -61zM159 370q0 -97 42 -169l395 404q-69 57 -169 57q-121 0 -194.5 -80.5t-73.5 -211.5zM427 78
q120 0 194 80.5t74 211.5q0 94 -41 167l-395 -404q71 -55 168 -55z" />
    <glyph glyph-name="Ugrave" unicode="&#xd9;" horiz-adv-x="799" 
d="M375 825l-166 155h122l133 -155h-89zM400 -10q-141 0 -227.5 77.5t-86.5 204.5v468h106v-464q0 -89 57 -143.5t151 -54.5q92 0 149 54.5t57 143.5v464h107v-468q0 -127 -86 -204.5t-227 -77.5z" />
    <glyph glyph-name="Uacute" unicode="&#xda;" horiz-adv-x="799" 
d="M336 825l133 155h121l-166 -155h-88zM400 -10q-141 0 -227.5 77.5t-86.5 204.5v468h106v-464q0 -89 57 -143.5t151 -54.5q92 0 149 54.5t57 143.5v464h107v-468q0 -127 -86 -204.5t-227 -77.5z" />
    <glyph glyph-name="Ucircumflex" unicode="&#xdb;" horiz-adv-x="799" 
d="M400 923l-84 -98h-96l130 155h100l130 -155h-96zM606 740h107v-468q0 -127 -86 -204.5t-227 -77.5t-227.5 77.5t-86.5 204.5v468h106v-464q0 -89 57 -143.5t151 -54.5q92 0 149 54.5t57 143.5v464z" />
    <glyph glyph-name="Udieresis" unicode="&#xdc;" horiz-adv-x="799" 
d="M289 851q-28 0 -46 18t-18 46t18 46t46 18q27 0 45 -18t18 -46t-18 -46t-45 -18zM512 851q-28 0 -46 18t-18 46t18 46t46 18q27 0 45 -18t18 -46t-18 -46t-45 -18zM400 -10q-141 0 -227.5 77.5t-86.5 204.5v468h106v-464q0 -89 57 -143.5t151 -54.5q92 0 149 54.5
t57 143.5v464h107v-468q0 -127 -86 -204.5t-227 -77.5z" />
    <glyph glyph-name="Yacute" unicode="&#xdd;" horiz-adv-x="673" 
d="M528 980l-166 -155h-88l133 155h121zM545 740h114l-269 -453v-287h-107v287l-269 453h115l208 -358z" />
    <glyph glyph-name="Thorn" unicode="&#xde;" horiz-adv-x="661" 
d="M379 611q113 0 181.5 -63.5t68.5 -167.5q0 -108 -69.5 -174t-183.5 -66h-174v-140h-107v740h107v-129h177zM366 229q70 0 111 40t41 107q0 66 -41.5 106.5t-110.5 40.5h-164v-294h164z" />
    <glyph glyph-name="germandbls" unicode="&#xdf;" horiz-adv-x="616" 
d="M425 420q70 -25 109.5 -78t39.5 -124q0 -103 -68 -165.5t-178 -62.5q-50 0 -81 12l10 84q24 -8 54 -8q71 0 113.5 41t42.5 108q0 68 -45 109t-118 41v80q56 0 91 34.5t35 89.5t-35 88t-91 33q-57 0 -91.5 -32.5t-34.5 -87.5v-582h-102v592q0 89 62.5 143.5t165.5 54.5
q104 0 168 -54.5t64 -143.5q0 -59 -29.5 -103.5t-81.5 -68.5z" />
    <glyph glyph-name="agrave" unicode="&#xe0;" horiz-adv-x="565" 
d="M349 619h-89l-166 155h122zM274 544q100 0 161 -57t61 -151v-336h-99l-2 94q-27 -49 -76 -76.5t-106 -27.5q-80 0 -130 44t-50 116q0 75 61 120.5t162 45.5q69 0 138 -15v24q0 64 -39 101t-106 37q-82 0 -137 -52l-45 61q81 72 207 72zM242 64q59 0 105 45.5t47 121.5
q-65 14 -125 14q-58 0 -93.5 -25.5t-35.5 -66.5t27 -65t75 -24z" />
    <glyph glyph-name="aacute" unicode="&#xe1;" horiz-adv-x="565" 
d="M475 774l-166 -155h-88l133 155h121zM274 544q100 0 161 -57t61 -151v-336h-99l-2 94q-27 -49 -76 -76.5t-106 -27.5q-80 0 -130 44t-50 116q0 75 61 120.5t162 45.5q69 0 138 -15v24q0 64 -39 101t-106 37q-82 0 -137 -52l-45 61q81 72 207 72zM242 64q59 0 105 45.5
t47 121.5q-65 14 -125 14q-58 0 -93.5 -25.5t-35.5 -66.5t27 -65t75 -24z" />
    <glyph glyph-name="acircumflex" unicode="&#xe2;" horiz-adv-x="565" 
d="M285 717l-84 -98h-96l130 155h100l130 -155h-96zM274 544q100 0 161 -57t61 -151v-336h-99l-2 94q-27 -49 -76 -76.5t-106 -27.5q-80 0 -130 44t-50 116q0 75 61 120.5t162 45.5q69 0 138 -15v24q0 64 -39 101t-106 37q-82 0 -137 -52l-45 61q81 72 207 72zM242 64
q59 0 105 45.5t47 121.5q-65 14 -125 14q-58 0 -93.5 -25.5t-35.5 -66.5t27 -65t75 -24z" />
    <glyph glyph-name="atilde" unicode="&#xe3;" horiz-adv-x="565" 
d="M204 688q-21 0 -34.5 -15t-13.5 -40h-58q0 59 29 94.5t76 35.5q36 0 87.5 -32t73.5 -32q21 0 34.5 14.5t13.5 39.5h58q0 -60 -29 -95t-76 -35q-35 0 -87 32.5t-74 32.5zM274 544q100 0 161 -57t61 -151v-336h-99l-2 94q-27 -49 -76 -76.5t-106 -27.5q-80 0 -130 44
t-50 116q0 75 61 120.5t162 45.5q69 0 138 -15v24q0 64 -39 101t-106 37q-82 0 -137 -52l-45 61q81 72 207 72zM242 64q59 0 105 45.5t47 121.5q-65 14 -125 14q-58 0 -93.5 -25.5t-35.5 -66.5t27 -65t75 -24z" />
    <glyph glyph-name="adieresis" unicode="&#xe4;" horiz-adv-x="565" 
d="M174 645q-28 0 -46 18t-18 46t18 46t46 18q27 0 45 -18t18 -46t-18 -46t-45 -18zM397 645q-28 0 -46 18t-18 46t18 46t46 18q27 0 45 -18t18 -46t-18 -46t-45 -18zM274 544q100 0 161 -57t61 -151v-336h-99l-2 94q-27 -49 -76 -76.5t-106 -27.5q-80 0 -130 44t-50 116
q0 75 61 120.5t162 45.5q69 0 138 -15v24q0 64 -39 101t-106 37q-82 0 -137 -52l-45 61q81 72 207 72zM242 64q59 0 105 45.5t47 121.5q-65 14 -125 14q-58 0 -93.5 -25.5t-35.5 -66.5t27 -65t75 -24z" />
    <glyph glyph-name="aring" unicode="&#xe5;" horiz-adv-x="565" 
d="M285 584q-51 0 -82 29t-31 78q0 47 31 76.5t82 29.5t82 -29.5t31 -76.5q0 -49 -31 -78t-82 -29zM285 748q-25 0 -40.5 -16t-15.5 -41q0 -26 15.5 -42.5t40.5 -16.5t40 16.5t15 42.5t-15 41.5t-40 15.5zM274 544q100 0 161 -57t61 -151v-336h-99l-2 94q-27 -49 -76 -76.5
t-106 -27.5q-80 0 -130 44t-50 116q0 75 61 120.5t162 45.5q69 0 138 -15v24q0 64 -39 101t-106 37q-82 0 -137 -52l-45 61q81 72 207 72zM242 64q59 0 105 45.5t47 121.5q-65 14 -125 14q-58 0 -93.5 -25.5t-35.5 -66.5t27 -65t75 -24z" />
    <glyph glyph-name="ae" unicode="&#xe6;" horiz-adv-x="943" 
d="M904 274q0 -20 -2 -44h-407q8 -75 47 -117t107 -42q93 0 153 78l78 -42q-37 -56 -94.5 -86.5t-128.5 -30.5t-126.5 31t-89.5 86q-30 -55 -87.5 -86t-126.5 -31q-87 0 -140.5 44t-53.5 116q0 75 61 120.5t162 45.5q69 0 138 -15v24q0 64 -39 101t-106 37q-82 0 -137 -52
l-45 61q78 72 200 72q63 0 111.5 -26.5t75.5 -73.5q71 100 198 100q113 0 182.5 -74.5t69.5 -195.5zM645 463q-65 0 -104 -43t-46 -120h303q-7 77 -47 120t-106 43zM242 64q59 0 105 45.5t47 121.5q-65 14 -125 14q-58 0 -93.5 -25.5t-35.5 -66.5t27 -65t75 -24z" />
    <glyph glyph-name="ccedilla" unicode="&#xe7;" horiz-adv-x="541" 
d="M316 -60q49 0 78.5 -22.5t29.5 -59.5q0 -39 -34 -63.5t-91 -24.5q-62 0 -97 27l20 40q24 -21 67 -21q30 0 47 11.5t17 30.5q0 18 -16.5 28.5t-43.5 10.5q-21 0 -42 -8l-14 25l45 78q-109 12 -174 86.5t-65 188.5q0 125 77 201t203 76q101 0 178 -60l-58 -70
q-51 42 -119 42q-79 0 -127 -52t-48 -137t48.5 -137t127.5 -52q84 0 134 53l59 -69q-68 -65 -176 -71l-32 -51h6z" />
    <glyph glyph-name="egrave" unicode="&#xe8;" horiz-adv-x="601" 
d="M367 619h-89l-166 155h122zM561 274q0 -32 -2 -44h-407q8 -75 47 -117t107 -42q93 0 153 78l78 -42q-38 -56 -97.5 -86.5t-132.5 -30.5q-118 0 -190.5 75.5t-72.5 199.5q0 125 71 202t188 77q116 0 187 -74t71 -196zM303 463q-65 0 -104.5 -43t-46.5 -120h304
q-7 77 -47 120t-106 43z" />
    <glyph glyph-name="eacute" unicode="&#xe9;" horiz-adv-x="601" 
d="M493 774l-166 -155h-88l133 155h121zM561 274q0 -32 -2 -44h-407q8 -75 47 -117t107 -42q93 0 153 78l78 -42q-38 -56 -97.5 -86.5t-132.5 -30.5q-118 0 -190.5 75.5t-72.5 199.5q0 125 71 202t188 77q116 0 187 -74t71 -196zM303 463q-65 0 -104.5 -43t-46.5 -120h304
q-7 77 -47 120t-106 43z" />
    <glyph glyph-name="ecircumflex" unicode="&#xea;" horiz-adv-x="601" 
d="M303 717l-84 -98h-96l130 155h100l130 -155h-96zM561 274q0 -32 -2 -44h-407q8 -75 47 -117t107 -42q93 0 153 78l78 -42q-38 -56 -97.5 -86.5t-132.5 -30.5q-118 0 -190.5 75.5t-72.5 199.5q0 125 71 202t188 77q116 0 187 -74t71 -196zM303 463q-65 0 -104.5 -43
t-46.5 -120h304q-7 77 -47 120t-106 43z" />
    <glyph glyph-name="edieresis" unicode="&#xeb;" horiz-adv-x="601" 
d="M192 645q-28 0 -46 18t-18 46t18 46t46 18q27 0 45 -18t18 -46t-18 -46t-45 -18zM415 645q-28 0 -46 18t-18 46t18 46t46 18q27 0 45 -18t18 -46t-18 -46t-45 -18zM561 274q0 -32 -2 -44h-407q8 -75 47 -117t107 -42q93 0 153 78l78 -42q-38 -56 -97.5 -86.5
t-132.5 -30.5q-118 0 -190.5 75.5t-72.5 199.5q0 125 71 202t188 77q116 0 187 -74t71 -196zM303 463q-65 0 -104.5 -43t-46.5 -120h304q-7 77 -47 120t-106 43z" />
    <glyph glyph-name="igrave" unicode="&#xec;" horiz-adv-x="255" 
d="M103 619l-166 155h122l133 -155h-89zM77 0v534h102v-534h-102z" />
    <glyph glyph-name="iacute" unicode="&#xed;" horiz-adv-x="255" 
d="M64 619l133 155h121l-166 -155h-88zM77 0v534h102v-534h-102z" />
    <glyph glyph-name="icircumflex" unicode="&#xee;" horiz-adv-x="255" 
d="M178 774l130 -155h-96l-84 98l-84 -98h-96l130 155h100zM77 0v534h102v-534h-102z" />
    <glyph glyph-name="idieresis" unicode="&#xef;" horiz-adv-x="255" 
d="M17 645q-28 0 -46 18t-18 46t18 46t46 18q27 0 45 -18t18 -46t-18 -46t-45 -18zM240 645q-28 0 -46 18t-18 46t18 46t46 18q27 0 45 -18t18 -46t-18 -46t-45 -18zM77 0v534h102v-534h-102z" />
    <glyph glyph-name="eth" unicode="&#xf0;" horiz-adv-x="647" 
d="M380 702q220 -172 220 -402q0 -141 -76 -225.5t-201 -84.5q-126 0 -202.5 76t-76.5 202q0 120 72 194.5t183 74.5q76 0 130 -35q-48 80 -133 145l-69 -45l-58 39l70 47q-35 23 -79 46l85 56q38 -20 78 -47l71 47l57 -42zM323 78q77 0 124.5 52t47.5 137t-47.5 137
t-124.5 52q-78 0 -125.5 -52t-47.5 -137t47.5 -137t125.5 -52z" />
    <glyph glyph-name="ntilde" unicode="&#xf1;" horiz-adv-x="645" 
d="M246 688q-21 0 -34.5 -15t-13.5 -40h-58q0 59 29 94.5t76 35.5q36 0 87.5 -32t73.5 -32q21 0 34.5 14.5t13.5 39.5h58q0 -60 -29 -95t-76 -35q-35 0 -87 32.5t-74 32.5zM360 544q97 0 156.5 -57t59.5 -151v-336h-102v318q0 62 -40.5 100t-107.5 38t-107.5 -38t-40.5 -100
v-318h-102v534h98l2 -79q59 89 184 89z" />
    <glyph glyph-name="ograve" unicode="&#xf2;" horiz-adv-x="643" 
d="M297 619l-166 155h122l133 -155h-89zM322 -10q-125 0 -202 76.5t-77 200.5t77 200.5t202 76.5t201.5 -76.5t76.5 -200.5t-76.5 -200.5t-201.5 -76.5zM322 78q77 0 124.5 52t47.5 137t-47.5 137t-124.5 52q-78 0 -125.5 -52t-47.5 -137t47.5 -137t125.5 -52z" />
    <glyph glyph-name="oacute" unicode="&#xf3;" horiz-adv-x="643" 
d="M258 619l133 155h121l-166 -155h-88zM322 -10q-125 0 -202 76.5t-77 200.5t77 200.5t202 76.5t201.5 -76.5t76.5 -200.5t-76.5 -200.5t-201.5 -76.5zM322 78q77 0 124.5 52t47.5 137t-47.5 137t-124.5 52q-78 0 -125.5 -52t-47.5 -137t47.5 -137t125.5 -52z" />
    <glyph glyph-name="ocircumflex" unicode="&#xf4;" horiz-adv-x="643" 
d="M322 717l-84 -98h-96l130 155h100l130 -155h-96zM322 544q125 0 201.5 -76.5t76.5 -200.5t-76.5 -200.5t-201.5 -76.5t-202 76.5t-77 200.5t77 200.5t202 76.5zM322 78q77 0 124.5 52t47.5 137t-47.5 137t-124.5 52q-78 0 -125.5 -52t-47.5 -137t47.5 -137t125.5 -52z
" />
    <glyph glyph-name="otilde" unicode="&#xf5;" horiz-adv-x="643" 
d="M402 623q-34 0 -86 32.5t-75 32.5q-21 0 -34.5 -15t-13.5 -40h-58q0 59 29 94.5t76 35.5q36 0 87.5 -32t73.5 -32q21 0 34.5 14.5t13.5 39.5h58q0 -60 -29 -95t-76 -35zM322 -10q-125 0 -202 76.5t-77 200.5t77 200.5t202 76.5t201.5 -76.5t76.5 -200.5t-76.5 -200.5
t-201.5 -76.5zM322 78q77 0 124.5 52t47.5 137t-47.5 137t-124.5 52q-78 0 -125.5 -52t-47.5 -137t47.5 -137t125.5 -52z" />
    <glyph glyph-name="odieresis" unicode="&#xf6;" horiz-adv-x="643" 
d="M211 645q-28 0 -46 18t-18 46t18 46t46 18q27 0 45 -18t18 -46t-18 -46t-45 -18zM434 645q-28 0 -46 18t-18 46t18 46t46 18q27 0 45 -18t18 -46t-18 -46t-45 -18zM322 -10q-125 0 -202 76.5t-77 200.5t77 200.5t202 76.5t201.5 -76.5t76.5 -200.5t-76.5 -200.5
t-201.5 -76.5zM322 78q77 0 124.5 52t47.5 137t-47.5 137t-124.5 52q-78 0 -125.5 -52t-47.5 -137t47.5 -137t125.5 -52z" />
    <glyph glyph-name="divide" unicode="&#xf7;" horiz-adv-x="571" 
d="M286 457q-28 0 -46 18t-18 46t18 45.5t46 17.5q27 0 45 -17.5t18 -45.5t-18 -46t-45 -18zM60 306v85h451v-85h-451zM286 113q-28 0 -46 18t-18 46t18 45.5t46 17.5q27 0 45 -17.5t18 -45.5t-18 -46t-45 -18z" />
    <glyph glyph-name="oslash" unicode="&#xf8;" horiz-adv-x="645" 
d="M600 483l-49 -49q49 -69 49 -167q0 -124 -76.5 -200.5t-201.5 -76.5q-96 0 -166 47l-47 -47l-64 61l48 48q-50 70 -50 168q0 124 77 200.5t202 76.5q97 0 167 -48l48 48zM149 267q0 -50 19 -93l252 253q-41 29 -98 29q-78 0 -125.5 -52t-47.5 -137zM494 267q0 52 -18 91
l-251 -252q40 -28 97 -28q77 0 124.5 52t47.5 137z" />
    <glyph glyph-name="ugrave" unicode="&#xf9;" horiz-adv-x="628" 
d="M375 619h-89l-166 155h122zM451 534h102v-534h-98l-2 77q-56 -87 -176 -87q-94 0 -151 57t-57 151v336h102v-319q0 -62 38.5 -99.5t101.5 -37.5t101.5 37.5t38.5 99.5v319z" />
    <glyph glyph-name="uacute" unicode="&#xfa;" horiz-adv-x="628" 
d="M501 774l-166 -155h-88l133 155h121zM451 534h102v-534h-98l-2 77q-56 -87 -176 -87q-94 0 -151 57t-57 151v336h102v-319q0 -62 38.5 -99.5t101.5 -37.5t101.5 37.5t38.5 99.5v319z" />
    <glyph glyph-name="ucircumflex" unicode="&#xfb;" horiz-adv-x="628" 
d="M311 717l-84 -98h-96l130 155h100l130 -155h-96zM451 534h102v-534h-98l-2 77q-56 -87 -176 -87q-94 0 -151 57t-57 151v336h102v-319q0 -62 38.5 -99.5t101.5 -37.5t101.5 37.5t38.5 99.5v319z" />
    <glyph glyph-name="udieresis" unicode="&#xfc;" horiz-adv-x="628" 
d="M200 645q-28 0 -46 18t-18 46t18 46t46 18q27 0 45 -18t18 -46t-18 -46t-45 -18zM423 645q-28 0 -46 18t-18 46t18 46t46 18q27 0 45 -18t18 -46t-18 -46t-45 -18zM451 534h102v-534h-98l-2 77q-56 -87 -176 -87q-94 0 -151 57t-57 151v336h102v-319q0 -62 38.5 -99.5
t101.5 -37.5t101.5 37.5t38.5 99.5v319z" />
    <glyph glyph-name="yacute" unicode="&#xfd;" horiz-adv-x="584" 
d="M231 619l133 155h121l-166 -155h-88zM140 -230q-44 0 -72 14l11 83q18 -9 44 -9q31 0 48 17t37 54l37 80l-234 525h112l175 -414l167 414h112l-270 -618q-31 -75 -67 -110.5t-100 -35.5z" />
    <glyph glyph-name="thorn" unicode="&#xfe;" horiz-adv-x="673" 
d="M374 544q111 0 183 -76.5t72 -198.5q0 -124 -72 -201.5t-183 -77.5q-135 0 -196 105v-315h-102v1000h102v-341q61 105 196 105zM350 78q78 0 125.5 52t47.5 138q0 85 -47.5 136.5t-125.5 51.5q-77 0 -124.5 -52t-47.5 -137t47.5 -137t124.5 -52z" />
    <glyph glyph-name="ydieresis" unicode="&#xff;" horiz-adv-x="584" 
d="M184 645q-28 0 -46 18t-18 46t18 46t46 18q27 0 45 -18t18 -46t-18 -46t-45 -18zM407 645q-28 0 -46 18t-18 46t18 46t46 18q27 0 45 -18t18 -46t-18 -46t-45 -18zM140 -230q-44 0 -72 14l11 83q18 -9 44 -9q31 0 48 17t37 54l37 80l-234 525h112l175 -414l167 414h112
l-270 -618q-31 -75 -67 -110.5t-100 -35.5z" />
    <glyph glyph-name="Amacron" unicode="&#x100;" horiz-adv-x="741" 
d="M537 923v-81h-331v81h331zM627 0l-72 172h-368l-73 -172h-114l321 740h99l320 -740h-113zM224 260h294l-147 349z" />
    <glyph glyph-name="amacron" unicode="&#x101;" horiz-adv-x="565" 
d="M451 717v-81h-331v81h331zM274 544q100 0 161 -57t61 -151v-336h-99l-2 94q-27 -49 -76 -76.5t-106 -27.5q-80 0 -130 44t-50 116q0 75 61 120.5t162 45.5q69 0 138 -15v24q0 64 -39 101t-106 37q-82 0 -137 -52l-45 61q81 72 207 72zM242 64q59 0 105 45.5t47 121.5
q-65 14 -125 14q-58 0 -93.5 -25.5t-35.5 -66.5t27 -65t75 -24z" />
    <glyph glyph-name="Abreve" unicode="&#x102;" horiz-adv-x="741" 
d="M371 816q-77 0 -124 45t-47 119h80q0 -47 25 -75.5t66 -28.5t66 29t25 75h79q0 -74 -46.5 -119t-123.5 -45zM627 0l-72 172h-368l-73 -172h-114l321 740h99l320 -740h-113zM224 260h294l-147 349z" />
    <glyph glyph-name="abreve" unicode="&#x103;" horiz-adv-x="565" 
d="M285 610q-77 0 -124 45t-47 119h80q0 -47 25 -75.5t66 -28.5t66 29t25 75h79q0 -74 -46.5 -119t-123.5 -45zM274 544q100 0 161 -57t61 -151v-336h-99l-2 94q-27 -49 -76 -76.5t-106 -27.5q-80 0 -130 44t-50 116q0 75 61 120.5t162 45.5q69 0 138 -15v24q0 64 -39 101
t-106 37q-82 0 -137 -52l-45 61q81 72 207 72zM242 64q59 0 105 45.5t47 121.5q-65 14 -125 14q-58 0 -93.5 -25.5t-35.5 -66.5t27 -65t75 -24z" />
    <glyph glyph-name="Aogonek" unicode="&#x104;" horiz-adv-x="741" 
d="M734 -149l9 -53q-34 -28 -86 -28q-42 0 -67.5 23t-25.5 60q0 75 95 147h-32l-72 172h-368l-73 -172h-114l321 740h99l320 -740q-100 -66 -100 -131q0 -17 11 -28t30 -11q30 0 53 21zM224 260h294l-147 349z" />
    <glyph glyph-name="aogonek" unicode="&#x105;" horiz-adv-x="565" 
d="M489 -149l10 -53q-36 -28 -86 -28q-42 0 -68 23t-26 60q0 73 98 147h-20l-2 94q-27 -49 -76 -76.5t-106 -27.5q-80 0 -130 44t-50 116q0 75 61 120.5t162 45.5q69 0 138 -15v24q0 64 -39 101t-106 37q-82 0 -137 -52l-45 61q81 72 207 72q100 0 161 -57t61 -151v-336
q-101 -67 -101 -131q0 -17 11 -28t30 -11q30 0 53 21zM242 64q59 0 105 45.5t47 121.5q-65 14 -125 14q-58 0 -93.5 -25.5t-35.5 -66.5t27 -65t75 -24z" />
    <glyph glyph-name="Cacute" unicode="&#x106;" horiz-adv-x="763" 
d="M357 825l133 155h121l-166 -155h-88zM431 -10q-172 0 -277.5 105t-105.5 277q0 170 105 274t277 104q176 0 285 -120l-67 -68q-81 100 -215 100q-124 0 -199 -79.5t-75 -210.5q0 -132 75.5 -213t197.5 -81q150 0 233 124l73 -66q-110 -146 -307 -146z" />
    <glyph glyph-name="cacute" unicode="&#x107;" horiz-adv-x="541" 
d="M248 619l133 155h121l-166 -155h-88zM320 -10q-124 0 -200.5 76t-76.5 201t77 201t203 76q101 0 178 -60l-58 -70q-51 42 -119 42q-79 0 -127 -52t-48 -137t48.5 -137t127.5 -52q84 0 134 53l59 -69q-75 -72 -198 -72z" />
    <glyph glyph-name="Cdotaccent" unicode="&#x10a;" horiz-adv-x="763" 
d="M421 851q-28 0 -46 18t-18 46t18 46t46 18q27 0 45 -18t18 -46t-18 -46t-45 -18zM431 -10q-172 0 -277.5 105t-105.5 277q0 170 105 274t277 104q176 0 285 -120l-67 -68q-81 100 -215 100q-124 0 -199 -79.5t-75 -210.5q0 -132 75.5 -213t197.5 -81q150 0 233 124
l73 -66q-110 -146 -307 -146z" />
    <glyph glyph-name="cdotaccent" unicode="&#x10b;" horiz-adv-x="541" 
d="M312 645q-28 0 -46 18t-18 46t18 46t46 18q27 0 45 -18t18 -46t-18 -46t-45 -18zM320 -10q-124 0 -200.5 76t-76.5 201t77 201t203 76q101 0 178 -60l-58 -70q-51 42 -119 42q-79 0 -127 -52t-48 -137t48.5 -137t127.5 -52q84 0 134 53l59 -69q-75 -72 -198 -72z" />
    <glyph glyph-name="Ccaron" unicode="&#x10c;" horiz-adv-x="763" 
d="M371 825l-130 155h96l84 -98l84 98h96l-130 -155h-100zM665 202l73 -66q-110 -146 -307 -146q-172 0 -277.5 105t-105.5 277q0 170 105 274t277 104q176 0 285 -120l-67 -68q-81 100 -215 100q-124 0 -199 -79.5t-75 -210.5q0 -132 75.5 -213t197.5 -81q150 0 233 124z
" />
    <glyph glyph-name="ccaron" unicode="&#x10d;" horiz-adv-x="541" 
d="M262 619l-130 155h96l84 -98l84 98h96l-130 -155h-100zM459 131l59 -69q-75 -72 -198 -72q-124 0 -200.5 76t-76.5 201t77 201t203 76q101 0 178 -60l-58 -70q-51 42 -119 42q-79 0 -127 -52t-48 -137t48.5 -137t127.5 -52q84 0 134 53z" />
    <glyph glyph-name="Dcaron" unicode="&#x10e;" horiz-adv-x="775" 
d="M279 825l-130 155h96l84 -98l84 98h96l-130 -155h-100zM365 740q163 0 262 -102t99 -269q0 -166 -99 -267.5t-262 -101.5h-270v740h270zM361 88q115 0 185 77.5t70 203.5q0 127 -70 205t-185 78h-159v-564h159z" />
    <glyph glyph-name="dcaron" unicode="&#x10f;" horiz-adv-x="686" 
d="M495 437v343h102v-780h-99l-2 98q-62 -108 -197 -108q-111 0 -183.5 76t-72.5 199q0 124 72.5 201.5t183.5 77.5q134 0 196 -107zM699 780h93l-69 -187h-78zM322 78q77 0 125 52t48 137t-48 137t-125 52q-78 0 -125.5 -52t-47.5 -138q0 -85 47.5 -136.5t125.5 -51.5z" />
    <glyph glyph-name="Dcroat" unicode="&#x110;" horiz-adv-x="775" 
d="M365 740q163 0 262 -102t99 -269q0 -166 -99 -267.5t-262 -101.5h-270v334h-81v74h81v332h270zM361 88q115 0 185 77.5t70 203.5q0 127 -70 205t-185 78h-159v-244h184v-74h-184v-246h159z" />
    <glyph glyph-name="dcroat" unicode="&#x111;" horiz-adv-x="672" 
d="M677 691v-74h-80v-617h-99l-2 98q-62 -108 -197 -108q-111 0 -183.5 76t-72.5 199q0 124 72.5 201.5t183.5 77.5q134 0 196 -107v180h-190v74h190v89h102v-89h80zM322 78q77 0 125 52t48 137t-48 137t-125 52q-78 0 -125.5 -52t-47.5 -138q0 -85 47.5 -136.5t125.5 -51.5
z" />
    <glyph glyph-name="Emacron" unicode="&#x112;" horiz-adv-x="637" 
d="M500 923v-81h-331v81h331zM202 88h379v-88h-486v740h478v-88h-371v-232h343v-88h-343v-244z" />
    <glyph glyph-name="emacron" unicode="&#x113;" horiz-adv-x="601" 
d="M469 717v-81h-331v81h331zM561 274q0 -32 -2 -44h-407q8 -75 47 -117t107 -42q93 0 153 78l78 -42q-38 -56 -97.5 -86.5t-132.5 -30.5q-118 0 -190.5 75.5t-72.5 199.5q0 125 71 202t188 77q116 0 187 -74t71 -196zM303 463q-65 0 -104.5 -43t-46.5 -120h304
q-7 77 -47 120t-106 43z" />
    <glyph glyph-name="Edotaccent" unicode="&#x116;" horiz-adv-x="637" 
d="M334 851q-28 0 -46 18t-18 46t18 46t46 18q27 0 45 -18t18 -46t-18 -46t-45 -18zM202 88h379v-88h-486v740h478v-88h-371v-232h343v-88h-343v-244z" />
    <glyph glyph-name="edotaccent" unicode="&#x117;" horiz-adv-x="601" 
d="M303 645q-28 0 -46 18t-18 46t18 46t46 18q27 0 45 -18t18 -46t-18 -46t-45 -18zM561 274q0 -32 -2 -44h-407q8 -75 47 -117t107 -42q93 0 153 78l78 -42q-38 -56 -97.5 -86.5t-132.5 -30.5q-118 0 -190.5 75.5t-72.5 199.5q0 125 71 202t188 77q116 0 187 -74t71 -196z
M303 463q-65 0 -104.5 -43t-46.5 -120h304q-7 77 -47 120t-106 43z" />
    <glyph glyph-name="Eogonek" unicode="&#x118;" horiz-adv-x="637" 
d="M574 -149l10 -53q-36 -28 -86 -28q-42 0 -68 23t-26 60q0 73 98 147h-407v740h478v-88h-371v-232h343v-88h-343v-244h379v-88q-101 -67 -101 -131q0 -17 11 -28t30 -11q30 0 53 21z" />
    <glyph glyph-name="eogonek" unicode="&#x119;" horiz-adv-x="601" 
d="M561 274q0 -32 -2 -44h-407q8 -75 47 -117t107 -42q93 0 153 78l78 -42q-55 -81 -151 -107q-101 -67 -101 -131q0 -17 11 -28t30 -11q30 0 53 21l10 -53q-36 -28 -86 -28q-42 0 -68 23t-26 60q0 70 86 137q-113 5 -182 80t-69 195q0 125 71 202t188 77q116 0 187 -74
t71 -196zM303 463q-65 0 -104.5 -43t-46.5 -120h304q-7 77 -47 120t-106 43z" />
    <glyph glyph-name="Ecaron" unicode="&#x11a;" horiz-adv-x="637" 
d="M284 825l-130 155h96l84 -98l84 98h96l-130 -155h-100zM202 88h379v-88h-486v740h478v-88h-371v-232h343v-88h-343v-244z" />
    <glyph glyph-name="ecaron" unicode="&#x11b;" horiz-adv-x="601" 
d="M253 619l-130 155h96l84 -98l84 98h96l-130 -155h-100zM561 274q0 -32 -2 -44h-407q8 -75 47 -117t107 -42q93 0 153 78l78 -42q-38 -56 -97.5 -86.5t-132.5 -30.5q-118 0 -190.5 75.5t-72.5 199.5q0 125 71 202t188 77q116 0 187 -74t71 -196zM303 463q-65 0 -104.5 -43
t-46.5 -120h304q-7 77 -47 120t-106 43z" />
    <glyph glyph-name="Gbreve" unicode="&#x11e;" horiz-adv-x="806" 
d="M420 816q-77 0 -124 45t-47 119h80q0 -47 25 -75.5t66 -28.5t66 29t25 75h79q0 -74 -46.5 -119t-123.5 -45zM775 404q1 -11 1 -34q0 -173 -96.5 -276.5t-259.5 -103.5q-167 0 -269 104.5t-102 275.5t101.5 275.5t269.5 104.5q153 0 254 -79l-70 -67q-67 58 -183 58
q-118 0 -190 -80.5t-72 -211.5t72 -211.5t190 -80.5q106 0 171.5 64.5t72.5 173.5h-215v88h325z" />
    <glyph glyph-name="gbreve" unicode="&#x11f;" horiz-adv-x="672" 
d="M333 610q-77 0 -124 45t-47 119h80q0 -47 25 -75.5t66 -28.5t66 29t25 75h79q0 -74 -46.5 -119t-123.5 -45zM499 534h99v-490q0 -124 -83.5 -199t-220.5 -75q-146 0 -236 69l22 81q89 -62 211 -62q92 0 148.5 52t56.5 137v49q-62 -106 -196 -106q-111 0 -183.5 77.5
t-72.5 201.5q0 123 72.5 199t183.5 76q135 0 197 -108zM323 78q77 0 125 52t48 137t-48 137t-125 52q-78 0 -125.5 -51.5t-47.5 -136.5q0 -86 47.5 -138t125.5 -52z" />
    <glyph glyph-name="Gdotaccent" unicode="&#x120;" horiz-adv-x="806" 
d="M420 851q-28 0 -46 18t-18 46t18 46t46 18q27 0 45 -18t18 -46t-18 -46t-45 -18zM775 404q1 -11 1 -34q0 -173 -96.5 -276.5t-259.5 -103.5q-167 0 -269 104.5t-102 275.5t101.5 275.5t269.5 104.5q153 0 254 -79l-70 -67q-67 58 -183 58q-118 0 -190 -80.5t-72 -211.5
t72 -211.5t190 -80.5q106 0 171.5 64.5t72.5 173.5h-215v88h325z" />
    <glyph glyph-name="gdotaccent" unicode="&#x121;" horiz-adv-x="672" 
d="M333 645q-28 0 -46 18t-18 46t18 46t46 18q27 0 45 -18t18 -46t-18 -46t-45 -18zM499 534h99v-490q0 -124 -83.5 -199t-220.5 -75q-146 0 -236 69l22 81q89 -62 211 -62q92 0 148.5 52t56.5 137v49q-62 -106 -196 -106q-111 0 -183.5 77.5t-72.5 201.5q0 123 72.5 199
t183.5 76q135 0 197 -108zM323 78q77 0 125 52t48 137t-48 137t-125 52q-78 0 -125.5 -51.5t-47.5 -136.5q0 -86 47.5 -138t125.5 -52z" />
    <glyph glyph-name="Gcommaaccent" unicode="&#x122;" horiz-adv-x="806" 
d="M775 404q1 -11 1 -34q0 -173 -96.5 -276.5t-259.5 -103.5q-167 0 -269 104.5t-102 275.5t101.5 275.5t269.5 104.5q153 0 254 -79l-70 -67q-67 58 -183 58q-118 0 -190 -80.5t-72 -211.5t72 -211.5t190 -80.5q106 0 171.5 64.5t72.5 173.5h-215v88h325zM320 -220l49 168
h93l-64 -168h-78z" />
    <glyph glyph-name="gcommaaccent" unicode="&#x123;" horiz-adv-x="672" 
d="M420 780l-54 -187h-93l69 187h78zM499 534h99v-490q0 -124 -83.5 -199t-220.5 -75q-146 0 -236 69l22 81q89 -62 211 -62q92 0 148.5 52t56.5 137v49q-62 -106 -196 -106q-111 0 -183.5 77.5t-72.5 201.5q0 123 72.5 199t183.5 76q135 0 197 -108zM323 78q77 0 125 52
t48 137t-48 137t-125 52q-78 0 -125.5 -51.5t-47.5 -136.5q0 -86 47.5 -138t125.5 -52z" />
    <glyph glyph-name="Hbar" unicode="&#x126;" horiz-adv-x="831" 
d="M816 622v-74h-80v-548h-106v332h-428v-332h-107v548h-79v74h79v118h107v-118h428v118h106v-118h80zM630 421v127h-428v-127h428z" />
    <glyph glyph-name="hbar" unicode="&#x127;" horiz-adv-x="645" 
d="M360 544q97 0 156.5 -57t59.5 -151v-336h-102v318q0 62 -40.5 100t-107.5 38t-107.5 -38t-40.5 -100v-318h-102v617h-81v74h81v89h102v-89h189v-74h-189v-159q59 86 182 86z" />
    <glyph glyph-name="Imacron" unicode="&#x12a;" horiz-adv-x="297" 
d="M-17 842v81h331v-81h-331zM95 0v740h107v-740h-107z" />
    <glyph glyph-name="imacron" unicode="&#x12b;" horiz-adv-x="255" 
d="M-37 636v81h331v-81h-331zM77 0v534h102v-534h-102z" />
    <glyph glyph-name="Iogonek" unicode="&#x12e;" horiz-adv-x="297" 
d="M195 -149l10 -53q-36 -28 -86 -28q-42 0 -68 23t-26 60q0 73 98 147h-28v740h107v-740q-101 -67 -101 -131q0 -17 11 -28t30 -11q30 0 53 21z" />
    <glyph glyph-name="iogonek" unicode="&#x12f;" horiz-adv-x="255" 
d="M128 645q-28 0 -46 18t-18 46t18 46t46 18q27 0 45 -18t18 -46t-18 -46t-45 -18zM119 -170q30 0 53 21l10 -53q-36 -28 -86 -28q-42 0 -68 23t-26 60q0 73 98 147h-23v534h102v-534q-101 -67 -101 -131q0 -17 11 -28t30 -11z" />
    <glyph glyph-name="Idotaccent" unicode="&#x130;" horiz-adv-x="297" 
d="M148 851q-28 0 -46 18t-18 46t18 46t46 18q27 0 45 -18t18 -46t-18 -46t-45 -18zM95 0v740h107v-740h-107z" />
    <glyph glyph-name="dotlessi" unicode="&#x131;" horiz-adv-x="255" 
d="M77 0v534h102v-534h-102z" />
    <glyph glyph-name="Kcommaaccent" unicode="&#x136;" horiz-adv-x="691" 
d="M395 380l295 -380h-128l-257 334h-103v-334h-107v740h107v-317h102l247 317h128zM275 -220l49 168h93l-64 -168h-78z" />
    <glyph glyph-name="kcommaaccent" unicode="&#x137;" horiz-adv-x="587" 
d="M341 281l249 -281h-130l-203 238h-79v-238h-102v780h102v-457h80l190 211h129zM212 -220l49 168h93l-64 -168h-78z" />
    <glyph glyph-name="Lacute" unicode="&#x139;" horiz-adv-x="555" 
d="M338 980l-166 -155h-88l133 155h121zM202 88h338v-88h-445v740h107v-652z" />
    <glyph glyph-name="lacute" unicode="&#x13a;" horiz-adv-x="258" 
d="M65 865l133 155h121l-166 -155h-88zM78 0v780h102v-780h-102z" />
    <glyph glyph-name="Lcommaaccent" unicode="&#x13b;" horiz-adv-x="555" 
d="M202 88h338v-88h-445v740h107v-652zM202 -220l49 168h93l-64 -168h-78z" />
    <glyph glyph-name="lcommaaccent" unicode="&#x13c;" horiz-adv-x="258" 
d="M78 0v780h102v-780h-102zM36 -220l49 168h93l-64 -168h-78z" />
    <glyph glyph-name="Lcaron" unicode="&#x13d;" horiz-adv-x="549" 
d="M202 88h338v-88h-445v740h107v-652zM508 740l-73 -207h-92l58 207h107z" />
    <glyph glyph-name="lcaron" unicode="&#x13e;" horiz-adv-x="269" 
d="M78 0v780h102v-780h-102zM228 593l54 187h93l-69 -187h-78z" />
    <glyph glyph-name="Lslash" unicode="&#x141;" horiz-adv-x="555" 
d="M202 88h338v-88h-445v307l-67 -47v84l67 47v349h107v-287l106 74v-84l-106 -74v-281z" />
    <glyph glyph-name="lslash" unicode="&#x142;" horiz-adv-x="258" 
d="M269 527v-84l-89 -62v-381h-102v323l-89 -63v84l89 62v374h102v-315z" />
    <glyph glyph-name="Nacute" unicode="&#x143;" horiz-adv-x="853" 
d="M362 825l133 155h121l-166 -155h-88zM95 0v740h67l492 -558l-3 558h107v-740h-67l-491 558l2 -558h-107z" />
    <glyph glyph-name="nacute" unicode="&#x144;" horiz-adv-x="645" 
d="M517 774l-166 -155h-88l133 155h121zM360 544q97 0 156.5 -57t59.5 -151v-336h-102v318q0 62 -40.5 100t-107.5 38t-107.5 -38t-40.5 -100v-318h-102v534h98l2 -79q59 89 184 89z" />
    <glyph glyph-name="Ncommaaccent" unicode="&#x145;" horiz-adv-x="853" 
d="M95 0v740h67l492 -558l-3 558h107v-740h-67l-491 558l2 -558h-107zM334 -220l49 168h93l-64 -168h-78z" />
    <glyph glyph-name="ncommaaccent" unicode="&#x146;" horiz-adv-x="645" 
d="M360 544q97 0 156.5 -57t59.5 -151v-336h-102v318q0 62 -40.5 100t-107.5 38t-107.5 -38t-40.5 -100v-318h-102v534h98l2 -79q59 89 184 89zM233 -220l49 168h93l-64 -168h-78z" />
    <glyph glyph-name="Ncaron" unicode="&#x147;" horiz-adv-x="853" 
d="M376 825l-130 155h96l84 -98l84 98h96l-130 -155h-100zM651 740h107v-740h-67l-491 558l2 -558h-107v740h67l492 -558z" />
    <glyph glyph-name="ncaron" unicode="&#x148;" horiz-adv-x="645" 
d="M277 619l-130 155h96l84 -98l84 98h96l-130 -155h-100zM360 544q97 0 156.5 -57t59.5 -151v-336h-102v318q0 62 -40.5 100t-107.5 38t-107.5 -38t-40.5 -100v-318h-102v534h98l2 -79q59 89 184 89z" />
    <glyph glyph-name="Eng" unicode="&#x14a;" horiz-adv-x="853" 
d="M651 740h107v-809q0 -73 -49.5 -117t-131.5 -44q-90 0 -140 55l29 72q39 -39 92 -39q44 0 68.5 25.5t24.5 67.5v94l-451 513l2 -558h-107v740h67l492 -558z" />
    <glyph glyph-name="eng" unicode="&#x14b;" horiz-adv-x="645" 
d="M360 544q97 0 156.5 -57t59.5 -151v-405q0 -73 -44 -117t-115 -44q-59 0 -97 16l8 80q24 -8 60 -8q38 0 62 26.5t24 70.5v363q0 62 -40.5 100t-107.5 38t-107.5 -38t-40.5 -100v-318h-102v534h98l2 -79q59 89 184 89z" />
    <glyph glyph-name="Omacron" unicode="&#x14c;" horiz-adv-x="853" 
d="M262 842v81h331v-81h-331zM427 -10q-170 0 -274.5 104.5t-104.5 275.5t104.5 275.5t274.5 104.5t274 -104.5t104 -275.5t-104 -275.5t-274 -104.5zM427 78q120 0 194 80.5t74 211.5t-74 211.5t-194 80.5q-121 0 -194.5 -80.5t-73.5 -211.5t73.5 -211.5t194.5 -80.5z" />
    <glyph glyph-name="omacron" unicode="&#x14d;" horiz-adv-x="643" 
d="M157 636v81h331v-81h-331zM322 -10q-125 0 -202 76.5t-77 200.5t77 200.5t202 76.5t201.5 -76.5t76.5 -200.5t-76.5 -200.5t-201.5 -76.5zM322 78q77 0 124.5 52t47.5 137t-47.5 137t-124.5 52q-78 0 -125.5 -52t-47.5 -137t47.5 -137t125.5 -52z" />
    <glyph glyph-name="Ohungarumlaut" unicode="&#x150;" horiz-adv-x="853" 
d="M290 825l106 155h122l-139 -155h-89zM462 825l106 155h121l-139 -155h-88zM427 -10q-170 0 -274.5 104.5t-104.5 275.5t104.5 275.5t274.5 104.5t274 -104.5t104 -275.5t-104 -275.5t-274 -104.5zM427 78q120 0 194 80.5t74 211.5t-74 211.5t-194 80.5
q-121 0 -194.5 -80.5t-73.5 -211.5t73.5 -211.5t194.5 -80.5z" />
    <glyph glyph-name="ohungarumlaut" unicode="&#x151;" horiz-adv-x="643" 
d="M185 619l106 155h122l-139 -155h-89zM357 619l106 155h121l-139 -155h-88zM322 -10q-125 0 -202 76.5t-77 200.5t77 200.5t202 76.5t201.5 -76.5t76.5 -200.5t-76.5 -200.5t-201.5 -76.5zM322 78q77 0 124.5 52t47.5 137t-47.5 137t-124.5 52q-78 0 -125.5 -52
t-47.5 -137t47.5 -137t125.5 -52z" />
    <glyph glyph-name="OE" unicode="&#x152;" horiz-adv-x="1241" 
d="M805 88h380v-88h-486v111q-101 -121 -278 -121q-168 0 -270 104.5t-102 275.5t102 275.5t270 104.5q177 0 278 -121v111h478v-88h-372v-232h344v-88h-344v-244zM428 78q120 0 193.5 80.5t73.5 211.5t-73.5 211.5t-193.5 80.5q-121 0 -195 -80.5t-74 -211.5t74 -211.5
t195 -80.5z" />
    <glyph glyph-name="oe" unicode="&#x153;" horiz-adv-x="1051" 
d="M1012 274q0 -20 -2 -44h-408q8 -75 47.5 -117t107.5 -42q93 0 152 78l79 -42q-37 -56 -95 -86.5t-128 -30.5q-74 0 -131 35t-88 98q-33 -63 -92.5 -98t-137.5 -35q-123 0 -197.5 76t-74.5 201t74.5 201t197.5 76q78 0 138 -35t93 -98q30 63 85 98t128 35
q113 0 182.5 -74.5t69.5 -195.5zM753 463q-65 0 -104.5 -43t-46.5 -120h304q-7 77 -47 120t-106 43zM322 78q77 0 124.5 52t47.5 137t-47.5 137t-124.5 52t-125 -52t-48 -137t48 -137t125 -52z" />
    <glyph glyph-name="Racute" unicode="&#x154;" horiz-adv-x="713" 
d="M524 980l-166 -155h-88l133 155h121zM693 0h-125l-184 288h-9h-173v-288h-107v740h291q114 0 183.5 -62t69.5 -164q0 -74 -39 -128t-109 -79zM202 652v-276h165q73 0 117 38t44 100t-42.5 100t-112.5 38h-171z" />
    <glyph glyph-name="racute" unicode="&#x155;" horiz-adv-x="388" 
d="M406 774l-166 -155h-88l133 155h121zM176 454q61 90 204 90l-7 -94q-90 0 -142.5 -41t-52.5 -110v-299h-102v534h98z" />
    <glyph glyph-name="Rcommaaccent" unicode="&#x156;" horiz-adv-x="713" 
d="M491 307l202 -307h-125l-184 288h-9h-173v-288h-107v740h291q114 0 183.5 -62t69.5 -164q0 -74 -39 -128t-109 -79zM202 652v-276h165q73 0 117 38t44 100t-42.5 100t-112.5 38h-171zM273 -220l49 168h93l-64 -168h-78z" />
    <glyph glyph-name="rcommaaccent" unicode="&#x157;" horiz-adv-x="388" 
d="M176 454q61 90 204 90l-7 -94q-90 0 -142.5 -41t-52.5 -110v-299h-102v534h98zM60 -220l49 168h93l-64 -168h-78z" />
    <glyph glyph-name="Rcaron" unicode="&#x158;" horiz-adv-x="713" 
d="M284 825l-130 155h96l84 -98l84 98h96l-130 -155h-100zM693 0h-125l-184 288h-9h-173v-288h-107v740h291q114 0 183.5 -62t69.5 -164q0 -74 -39 -128t-109 -79zM202 652v-276h165q73 0 117 38t44 100t-42.5 100t-112.5 38h-171z" />
    <glyph glyph-name="rcaron" unicode="&#x159;" horiz-adv-x="388" 
d="M166 619l-130 155h96l84 -98l84 98h96l-130 -155h-100zM176 454q61 90 204 90l-7 -94q-90 0 -142.5 -41t-52.5 -110v-299h-102v534h98z" />
    <glyph glyph-name="Sacute" unicode="&#x15a;" horiz-adv-x="635" 
d="M254 825l133 155h121l-166 -155h-88zM312 -10q-161 0 -251 89l42 73q82 -74 203 -74q79 0 125 30t46 82q0 51 -43.5 80t-131.5 55l-46 13q-96 27 -149 72t-53 127q0 96 72 154.5t191 58.5q143 0 239 -85l-48 -74q-80 71 -191 71q-69 0 -110.5 -30t-41.5 -79
q0 -48 36 -73.5t105 -45.5l48 -13q47 -14 84 -30t73.5 -42t56.5 -64t20 -85q0 -94 -76 -152t-200 -58z" />
    <glyph glyph-name="sacute" unicode="&#x15b;" horiz-adv-x="496" 
d="M182 619l133 155h121l-166 -155h-88zM241 -10q-125 0 -193 59l40 63q65 -42 154 -42q47 0 76 20t29 53q0 53 -102 82l-51 14q-73 20 -110 51t-37 89q0 74 55 119.5t144 45.5q114 0 191 -51l-44 -68q-62 38 -140 38q-45 0 -73 -19t-28 -50q0 -28 23 -44.5t67 -29.5l51 -14
q159 -43 159 -155q0 -73 -57.5 -117t-153.5 -44z" />
    <glyph glyph-name="Scedilla" unicode="&#x15e;" horiz-adv-x="635" 
d="M588 200q0 -86 -63.5 -142t-170.5 -66l-33 -52h6q49 0 78.5 -22.5t29.5 -59.5q0 -39 -34 -63.5t-91 -24.5q-62 0 -97 27l20 40q24 -21 67 -21q30 0 47 11.5t17 30.5q0 18 -16.5 28.5t-43.5 10.5q-21 0 -42 -8l-14 25l44 76q-147 7 -231 89l42 73q82 -74 203 -74
q79 0 125 30t46 82q0 51 -43.5 80t-131.5 55l-46 13q-96 27 -149 72t-53 127q0 96 72 154.5t191 58.5q143 0 239 -85l-48 -74q-80 71 -191 71q-69 0 -110.5 -30t-41.5 -79q0 -48 36 -73.5t105 -45.5l48 -13q47 -14 84 -30t73.5 -42t56.5 -64t20 -85z" />
    <glyph glyph-name="scedilla" unicode="&#x15f;" horiz-adv-x="496" 
d="M452 151q0 -65 -46 -107.5t-126 -51.5l-33 -52h6q49 0 78.5 -22.5t29.5 -59.5q0 -39 -34 -63.5t-91 -24.5q-62 0 -97 27l20 40q24 -21 67 -21q30 0 47 11.5t17 30.5q0 18 -16.5 28.5t-43.5 10.5q-21 0 -42 -8l-14 25l45 77q-109 5 -171 58l40 63q65 -42 154 -42
q47 0 76 20t29 53q0 53 -102 82l-51 14q-73 20 -110 51t-37 89q0 74 55 119.5t144 45.5q114 0 191 -51l-44 -68q-62 38 -140 38q-45 0 -73 -19t-28 -50q0 -28 23 -44.5t67 -29.5l51 -14q159 -43 159 -155z" />
    <glyph glyph-name="Scaron" unicode="&#x160;" horiz-adv-x="635" 
d="M268 825l-130 155h96l84 -98l84 98h96l-130 -155h-100zM354 421q47 -14 84 -30t73.5 -42t56.5 -64t20 -85q0 -94 -76 -152t-200 -58q-161 0 -251 89l42 73q82 -74 203 -74q79 0 125 30t46 82q0 51 -43.5 80t-131.5 55l-46 13q-96 27 -149 72t-53 127q0 96 72 154.5
t191 58.5q143 0 239 -85l-48 -74q-80 71 -191 71q-69 0 -110.5 -30t-41.5 -79q0 -48 36 -73.5t105 -45.5z" />
    <glyph glyph-name="scaron" unicode="&#x161;" horiz-adv-x="496" 
d="M196 619l-130 155h96l84 -98l84 98h96l-130 -155h-100zM293 306q159 -43 159 -155q0 -73 -57.5 -117t-153.5 -44q-125 0 -193 59l40 63q65 -42 154 -42q47 0 76 20t29 53q0 53 -102 82l-51 14q-73 20 -110 51t-37 89q0 74 55 119.5t144 45.5q114 0 191 -51l-44 -68
q-62 38 -140 38q-45 0 -73 -19t-28 -50q0 -28 23 -44.5t67 -29.5z" />
    <glyph glyph-name="uni0162" unicode="&#x162;" horiz-adv-x="599" 
d="M353 0h-22l-38 -60h6q49 0 78.5 -22.5t29.5 -59.5q0 -39 -34 -63.5t-91 -24.5q-62 0 -97 27l20 40q24 -21 67 -21q30 0 47 11.5t17 30.5q0 18 -16.5 28.5t-43.5 10.5q-21 0 -42 -8l-14 25l50 86h-24v652h-232v88h571v-88h-232v-652z" />
    <glyph glyph-name="uni0163" unicode="&#x163;" horiz-adv-x="411" 
d="M262 -10q-11 0 -29 2l-33 -52h6q49 0 78.5 -22.5t29.5 -59.5q0 -39 -34 -63.5t-91 -24.5q-62 0 -97 27l20 40q24 -21 67 -21q29 0 46.5 11.5t17.5 30.5q0 18 -16.5 28.5t-43.5 10.5q-21 0 -42 -8l-14 25l53 96q-72 42 -72 137v303h-91v84h91v156h102v-156h176v-84h-176
v-282q0 -40 23 -65t61 -25q54 0 100 18v-82q-54 -24 -132 -24z" />
    <glyph glyph-name="Tcaron" unicode="&#x164;" horiz-adv-x="599" 
d="M249 825l-130 155h96l84 -98l84 98h96l-130 -155h-100zM585 740v-88h-232v-652h-107v652h-232v88h571z" />
    <glyph glyph-name="tcaron" unicode="&#x165;" horiz-adv-x="411" 
d="M429 780l-68 -187h-79l54 187h93zM210 168q0 -40 23 -65t61 -25q54 0 100 18v-82q-54 -24 -132 -24q-69 0 -111.5 43.5t-42.5 113.5v303h-91v84h91v156h102v-156h176v-84h-176v-282z" />
    <glyph glyph-name="Tbar" unicode="&#x166;" horiz-adv-x="599" 
d="M585 652h-232v-254h135v-74h-135v-324h-107v324h-130v74h130v254h-232v88h571v-88z" />
    <glyph glyph-name="tbar" unicode="&#x167;" horiz-adv-x="418" 
d="M294 78q54 0 100 18v-82q-54 -24 -132 -24q-69 0 -111.5 43.5t-42.5 113.5v94h-82v74h82v135h-91v84h91v156h102v-156h176v-84h-176v-135h172v-74h-172v-73q0 -40 23 -65t61 -25z" />
    <glyph glyph-name="Umacron" unicode="&#x16a;" horiz-adv-x="799" 
d="M235 842v81h331v-81h-331zM400 -10q-141 0 -227.5 77.5t-86.5 204.5v468h106v-464q0 -89 57 -143.5t151 -54.5q92 0 149 54.5t57 143.5v464h107v-468q0 -127 -86 -204.5t-227 -77.5z" />
    <glyph glyph-name="umacron" unicode="&#x16b;" horiz-adv-x="628" 
d="M477 717v-81h-331v81h331zM451 534h102v-534h-98l-2 77q-56 -87 -176 -87q-94 0 -151 57t-57 151v336h102v-319q0 -62 38.5 -99.5t101.5 -37.5t101.5 37.5t38.5 99.5v319z" />
    <glyph glyph-name="Uring" unicode="&#x16e;" horiz-adv-x="799" 
d="M400 790q-51 0 -82 29t-31 78q0 47 31 76.5t82 29.5t82 -29.5t31 -76.5q0 -49 -31 -78t-82 -29zM400 838q25 0 40 16.5t15 42.5t-15 41.5t-40 15.5t-40.5 -16t-15.5 -41q0 -26 15.5 -42.5t40.5 -16.5zM400 -10q-141 0 -227.5 77.5t-86.5 204.5v468h106v-464
q0 -89 57 -143.5t151 -54.5q92 0 149 54.5t57 143.5v464h107v-468q0 -127 -86 -204.5t-227 -77.5z" />
    <glyph glyph-name="uring" unicode="&#x16f;" horiz-adv-x="628" 
d="M311 584q-51 0 -82 29t-31 78q0 47 31 76.5t82 29.5t82 -29.5t31 -76.5q0 -49 -31 -78t-82 -29zM311 748q-25 0 -40.5 -16t-15.5 -41q0 -26 15.5 -42.5t40.5 -16.5t40 16.5t15 42.5t-15 41.5t-40 15.5zM451 534h102v-534h-98l-2 77q-56 -87 -176 -87q-94 0 -151 57
t-57 151v336h102v-319q0 -62 38.5 -99.5t101.5 -37.5t101.5 37.5t38.5 99.5v319z" />
    <glyph glyph-name="Uhungarumlaut" unicode="&#x170;" horiz-adv-x="799" 
d="M263 825l106 155h122l-139 -155h-89zM435 825l106 155h121l-139 -155h-88zM400 -10q-141 0 -227.5 77.5t-86.5 204.5v468h106v-464q0 -89 57 -143.5t151 -54.5q92 0 149 54.5t57 143.5v464h107v-468q0 -127 -86 -204.5t-227 -77.5z" />
    <glyph glyph-name="uhungarumlaut" unicode="&#x171;" horiz-adv-x="628" 
d="M402 774l-139 -155h-89l106 155h122zM434 619h-88l106 155h121zM451 215v319h102v-534h-98l-2 77q-56 -87 -176 -87q-94 0 -151 57t-57 151v336h102v-319q0 -62 38.5 -99.5t101.5 -37.5t101.5 37.5t38.5 99.5z" />
    <glyph glyph-name="Uogonek" unicode="&#x172;" horiz-adv-x="799" 
d="M606 740h107v-468q0 -105 -59.5 -177.5t-163.5 -95.5q-100 -66 -100 -130q0 -17 11 -28t30 -11q30 0 53 21l10 -53q-36 -28 -86 -28q-42 0 -68 23t-26 60q0 68 85 137q-141 0 -227 77.5t-86 204.5v468h106v-464q0 -89 57 -143.5t151 -54.5q92 0 149 54.5t57 143.5v464z
" />
    <glyph glyph-name="uogonek" unicode="&#x173;" horiz-adv-x="628" 
d="M546 -149l10 -53q-36 -28 -86 -28q-42 0 -68 23t-26 60q0 73 98 147h-19l-2 77q-56 -87 -176 -87q-94 0 -151 57t-57 151v336h102v-319q0 -62 38.5 -99.5t101.5 -37.5t101.5 37.5t38.5 99.5v319h102v-534q-101 -67 -101 -131q0 -17 11 -28t30 -11q30 0 53 21z" />
    <glyph glyph-name="Wcircumflex" unicode="&#x174;" horiz-adv-x="1120" 
d="M561 923l-84 -98h-96l130 155h100l130 -155h-96zM1000 740h114l-260 -740h-100l-194 588l-194 -588h-99l-261 740h114l202 -597l188 597h100l190 -597z" />
    <glyph glyph-name="wcircumflex" unicode="&#x175;" horiz-adv-x="916" 
d="M459 717l-84 -98h-96l130 155h100l130 -155h-96zM793 534h112l-202 -534h-103l-142 414l-142 -414h-103l-202 534h112l148 -417l144 417h86l144 -417z" />
    <glyph glyph-name="Ycircumflex" unicode="&#x176;" horiz-adv-x="673" 
d="M338 923l-84 -98h-96l130 155h100l130 -155h-96zM545 740h114l-269 -453v-287h-107v287l-269 453h115l208 -358z" />
    <glyph glyph-name="ycircumflex" unicode="&#x177;" horiz-adv-x="584" 
d="M295 717l-84 -98h-96l130 155h100l130 -155h-96zM465 534h112l-270 -618q-31 -75 -67 -110.5t-100 -35.5q-44 0 -72 14l11 83q18 -9 44 -9q31 0 48 17t37 54l37 80l-234 525h112l175 -414z" />
    <glyph glyph-name="Ydieresis" unicode="&#x178;" horiz-adv-x="673" 
d="M227 851q-28 0 -46 18t-18 46t18 46t46 18q27 0 45 -18t18 -46t-18 -46t-45 -18zM450 851q-28 0 -46 18t-18 46t18 46t46 18q27 0 45 -18t18 -46t-18 -46t-45 -18zM545 740h114l-269 -453v-287h-107v287l-269 453h115l208 -358z" />
    <glyph glyph-name="Zacute" unicode="&#x179;" horiz-adv-x="647" 
d="M512 980l-166 -155h-88l133 155h121zM179 88h433v-88h-577v67l424 585h-418v88h561v-67z" />
    <glyph glyph-name="zacute" unicode="&#x17a;" horiz-adv-x="528" 
d="M198 619l133 155h121l-166 -155h-88zM38 0v66l298 384h-293v84h438v-66l-298 -383h310v-85h-455z" />
    <glyph glyph-name="Zdotaccent" unicode="&#x17b;" horiz-adv-x="647" 
d="M322 851q-28 0 -46 18t-18 46t18 46t46 18q27 0 45 -18t18 -46t-18 -46t-45 -18zM179 88h433v-88h-577v67l424 585h-418v88h561v-67z" />
    <glyph glyph-name="zdotaccent" unicode="&#x17c;" horiz-adv-x="528" 
d="M262 645q-28 0 -46 18t-18 46t18 46t46 18q27 0 45 -18t18 -46t-18 -46t-45 -18zM38 0v66l298 384h-293v84h438v-66l-298 -383h310v-85h-455z" />
    <glyph glyph-name="Zcaron" unicode="&#x17d;" horiz-adv-x="647" 
d="M272 825l-130 155h96l84 -98l84 98h96l-130 -155h-100zM179 88h433v-88h-577v67l424 585h-418v88h561v-67z" />
    <glyph glyph-name="zcaron" unicode="&#x17e;" horiz-adv-x="528" 
d="M212 619l-130 155h96l84 -98l84 98h96l-130 -155h-100zM183 85h310v-85h-455v66l298 384h-293v84h438v-66z" />
    <glyph glyph-name="florin" unicode="&#x192;" horiz-adv-x="489" 
d="M393 662q-45 0 -72.5 -25.5t-35.5 -72.5l-31 -176h179v-85h-194l-71 -403h-103l71 403h-84v85h99l36 205q13 76 65.5 116.5t131.5 40.5q49 0 86 -15l-12 -83q-29 10 -65 10z" />
    <glyph glyph-name="Scommaaccent" unicode="&#x218;" horiz-adv-x="635" 
d="M312 -10q-161 0 -251 89l42 73q82 -74 203 -74q79 0 125 30t46 82q0 51 -43.5 80t-131.5 55l-46 13q-96 27 -149 72t-53 127q0 96 72 154.5t191 58.5q143 0 239 -85l-48 -74q-80 71 -191 71q-69 0 -110.5 -30t-41.5 -79q0 -48 36 -73.5t105 -45.5l48 -13q47 -14 84 -30
t73.5 -42t56.5 -64t20 -85q0 -94 -76 -152t-200 -58zM234 -220l49 168h93l-64 -168h-78z" />
    <glyph glyph-name="scommaaccent" unicode="&#x219;" horiz-adv-x="496" 
d="M241 -10q-125 0 -193 59l40 63q65 -42 154 -42q47 0 76 20t29 53q0 53 -102 82l-51 14q-73 20 -110 51t-37 89q0 74 55 119.5t144 45.5q114 0 191 -51l-44 -68q-62 38 -140 38q-45 0 -73 -19t-28 -50q0 -28 23 -44.5t67 -29.5l51 -14q159 -43 159 -155q0 -73 -57.5 -117
t-153.5 -44zM160 -220l49 168h93l-64 -168h-78z" />
    <glyph glyph-name="uni021A" unicode="&#x21a;" horiz-adv-x="599" 
d="M585 740v-88h-232v-652h-107v652h-232v88h571zM206 -220l49 168h93l-64 -168h-78z" />
    <glyph glyph-name="uni021B" unicode="&#x21b;" horiz-adv-x="411" 
d="M294 78q54 0 100 18v-82q-54 -24 -132 -24q-69 0 -111.5 43.5t-42.5 113.5v303h-91v84h91v156h102v-156h176v-84h-176v-282q0 -40 23 -65t61 -25zM131 -220l49 168h93l-64 -168h-78z" />
    <glyph glyph-name="circumflex" unicode="&#x2c6;" horiz-adv-x="600" 
d="M400 619h-96l-84 98l-84 -98h-96l130 155h100z" />
    <glyph glyph-name="caron" unicode="&#x2c7;" horiz-adv-x="600" 
d="M304 774h96l-130 -155h-100l-130 155h96l84 -98z" />
    <glyph glyph-name="breve" unicode="&#x2d8;" horiz-adv-x="600" 
d="M207 610q-77 0 -124 45t-47 119h80q0 -47 25 -75.5t66 -28.5t66 29t25 75h79q0 -74 -46.5 -119t-123.5 -45z" />
    <glyph glyph-name="dotaccent" unicode="&#x2d9;" horiz-adv-x="600" 
d="M124 645q-28 0 -46 18t-18 46t18 46t46 18q27 0 45 -18t18 -46t-18 -46t-45 -18z" />
    <glyph glyph-name="ring" unicode="&#x2da;" horiz-adv-x="600" 
d="M169 584q-51 0 -82 29t-31 78q0 47 31 76.5t82 29.5t82 -29.5t31 -76.5q0 -49 -31 -78t-82 -29zM169 632q25 0 40 16.5t15 42.5t-15 41.5t-40 15.5t-40.5 -16t-15.5 -41q0 -26 15.5 -42.5t40.5 -16.5z" />
    <glyph glyph-name="ogonek" unicode="&#x2db;" horiz-adv-x="600" 
d="M162 -230q-42 0 -68 23t-26 60q0 99 177 197v-50q-101 -67 -101 -131q0 -17 11 -28t30 -11q30 0 53 21l10 -53q-36 -28 -86 -28z" />
    <glyph glyph-name="tilde" unicode="&#x2dc;" horiz-adv-x="600" 
d="M311 623q-35 0 -87 32.5t-74 32.5q-21 0 -34.5 -15t-13.5 -40h-58q0 59 29 94.5t76 35.5q36 0 87.5 -32t73.5 -32q21 0 34.5 14.5t13.5 39.5h58q0 -60 -29 -95t-76 -35z" />
    <glyph glyph-name="hungarumlaut" unicode="&#x2dd;" horiz-adv-x="600" 
d="M131 619l106 155h122l-139 -155h-89zM303 619l106 155h121l-139 -155h-88z" />
    <glyph glyph-name="gravecomb" unicode="&#x300;" horiz-adv-x="0" 
d="M-206 619l-166 155h122l133 -155h-89z" />
    <glyph glyph-name="acutecomb" unicode="&#x301;" horiz-adv-x="0" 
d="M-245 619l133 155h121l-166 -155h-88z" />
    <glyph glyph-name="uni0302" unicode="&#x302;" horiz-adv-x="0" 
d="M-40 619h-96l-84 98l-84 -98h-96l130 155h100z" />
    <glyph glyph-name="tildecomb" unicode="&#x303;" horiz-adv-x="0" 
d="M-149 623q-35 0 -87 32.5t-74 32.5q-21 0 -34.5 -15t-13.5 -40h-58q0 59 29 94.5t76 35.5q36 0 87.5 -32t73.5 -32q21 0 34.5 14.5t13.5 39.5h58q0 -60 -29 -95t-76 -35z" />
    <glyph glyph-name="uni0304" unicode="&#x304;" horiz-adv-x="0" 
d="M-384 636v81h331v-81h-331z" />
    <glyph glyph-name="uni0306" unicode="&#x306;" horiz-adv-x="0" 
d="M-206 610q-77 0 -124 45t-47 119h80q0 -47 25 -75.5t66 -28.5t66 29t25 75h79q0 -74 -46.5 -119t-123.5 -45z" />
    <glyph glyph-name="uni0307" unicode="&#x307;" horiz-adv-x="0" 
d="M-123 645q-28 0 -46 18t-18 46t18 46t46 18q27 0 45 -18t18 -46t-18 -46t-45 -18z" />
    <glyph glyph-name="uni0308" unicode="&#x308;" horiz-adv-x="0" 
d="M-346 645q-28 0 -46 18t-18 46t18 46t46 18q27 0 45 -18t18 -46t-18 -46t-45 -18zM-123 645q-28 0 -46 18t-18 46t18 46t46 18q27 0 45 -18t18 -46t-18 -46t-45 -18z" />
    <glyph glyph-name="uni030A" unicode="&#x30a;" horiz-adv-x="0" 
d="M-169 584q-51 0 -82 29t-31 78q0 47 31 76.5t82 29.5t82 -29.5t31 -76.5q0 -49 -31 -78t-82 -29zM-169 632q25 0 40 16.5t15 42.5t-15 41.5t-40 15.5t-40.5 -16t-15.5 -41q0 -26 15.5 -42.5t40.5 -16.5z" />
    <glyph glyph-name="uni030B" unicode="&#x30b;" horiz-adv-x="0" 
d="M-404 619l106 155h122l-139 -155h-89zM-232 619l106 155h121l-139 -155h-88z" />
    <glyph glyph-name="uni030C" unicode="&#x30c;" horiz-adv-x="0" 
d="M-136 774h96l-130 -155h-100l-130 155h96l84 -98z" />
    <glyph glyph-name="uni0312" unicode="&#x312;" horiz-adv-x="0" 
d="M-174 593l69 187h78l-54 -187h-93z" />
    <glyph glyph-name="uni0326" unicode="&#x326;" horiz-adv-x="0" 
d="M-159 -220l49 168h93l-64 -168h-78z" />
    <glyph glyph-name="uni0327" unicode="&#x327;" horiz-adv-x="0" 
d="M-127 -60q49 0 78.5 -22.5t29.5 -59.5q0 -39 -34 -63.5t-91 -24.5q-62 0 -97 27l20 40q24 -21 67 -21q30 0 47 11.5t17 30.5q0 18 -16.5 28.5t-43.5 10.5q-21 0 -42 -8l-14 25l50 86h61l-38 -60h6z" />
    <glyph glyph-name="uni0328" unicode="&#x328;" horiz-adv-x="0" 
d="M-99 -230q-42 0 -68 23t-26 60q0 99 177 197v-50q-101 -67 -101 -131q0 -17 11 -28t30 -11q30 0 53 21l10 -53q-36 -28 -86 -28z" />
    <glyph glyph-name="uni0335" unicode="&#x335;" horiz-adv-x="0" 
d="M-520 251v74h372v-74h-372z" />
    <glyph glyph-name="uni0336" unicode="&#x336;" horiz-adv-x="0" 
d="M-866 251v74h800v-74h-800z" />
    <glyph glyph-name="uni0337" unicode="&#x337;" horiz-adv-x="0" 
d="M-271 444l141 99v-84l-141 -99v14l-139 -98v84l139 97v-13z" />
    <glyph glyph-name="uni0338" unicode="&#x338;" horiz-adv-x="0" 
d="M-450 -10l-56 35l425 725l56 -34z" />
    <glyph glyph-name="uni0394" unicode="&#x394;" horiz-adv-x="805" 
d="M453 740l320 -740h-740l320 740h100zM183 88h439l-219 521z" />
    <glyph glyph-name="uni03A9" unicode="&#x3a9;" horiz-adv-x="790" 
d="M541 158v-70h188v-88h-274v228q80 17 127 73.5t47 139.5q0 100 -64.5 160.5t-169.5 60.5t-169 -60.5t-64 -160.5q0 -83 46.5 -139.5t127.5 -73.5v-228h-274v88h188v70q-94 34 -146.5 108t-52.5 175q0 139 95 224t249 85t248.5 -85t94.5 -224q0 -101 -52 -175t-145 -108z
" />
    <glyph glyph-name="uni03BC" unicode="&#x3bc;" horiz-adv-x="635" 
d="M457 534h102v-534h-98l-2 67q-46 -77 -142 -77q-91 0 -139 73v-283h-102v754h102v-319q0 -62 38 -99.5t101 -37.5q64 0 102 37.5t38 99.5v319z" />
    <glyph glyph-name="pi" unicode="&#x3c0;" horiz-adv-x="691" 
d="M646 450h-111v-319q0 -24 13.5 -38.5t33.5 -14.5q36 0 64 18v-82q-38 -24 -95 -24q-53 0 -85.5 33t-32.5 87v340h-195v-450h-102v450h-108v84h618v-84z" />
    <glyph glyph-name="Wgrave" unicode="&#x1e80;" horiz-adv-x="1120" 
d="M625 825h-89l-166 155h122zM1000 740h114l-260 -740h-100l-194 588l-194 -588h-99l-261 740h114l202 -597l188 597h100l190 -597z" />
    <glyph glyph-name="wgrave" unicode="&#x1e81;" horiz-adv-x="916" 
d="M523 619h-89l-166 155h122zM793 534h112l-202 -534h-103l-142 414l-142 -414h-103l-202 534h112l148 -417l144 417h86l144 -417z" />
    <glyph glyph-name="Wacute" unicode="&#x1e82;" horiz-adv-x="1120" 
d="M751 980l-166 -155h-88l133 155h121zM1000 740h114l-260 -740h-100l-194 588l-194 -588h-99l-261 740h114l202 -597l188 597h100l190 -597z" />
    <glyph glyph-name="wacute" unicode="&#x1e83;" horiz-adv-x="916" 
d="M649 774l-166 -155h-88l133 155h121zM793 534h112l-202 -534h-103l-142 414l-142 -414h-103l-202 534h112l148 -417l144 417h86l144 -417z" />
    <glyph glyph-name="Wdieresis" unicode="&#x1e84;" horiz-adv-x="1120" 
d="M450 851q-28 0 -46 18t-18 46t18 46t46 18q27 0 45 -18t18 -46t-18 -46t-45 -18zM673 851q-28 0 -46 18t-18 46t18 46t46 18q27 0 45 -18t18 -46t-18 -46t-45 -18zM1000 740h114l-260 -740h-100l-194 588l-194 -588h-99l-261 740h114l202 -597l188 597h100l190 -597z" />
    <glyph glyph-name="wdieresis" unicode="&#x1e85;" horiz-adv-x="916" 
d="M348 645q-28 0 -46 18t-18 46t18 46t46 18q27 0 45 -18t18 -46t-18 -46t-45 -18zM571 645q-28 0 -46 18t-18 46t18 46t46 18q27 0 45 -18t18 -46t-18 -46t-45 -18zM793 534h112l-202 -534h-103l-142 414l-142 -414h-103l-202 534h112l148 -417l144 417h86l144 -417z" />
    <glyph glyph-name="uni1E9E" unicode="&#x1e9e;" horiz-adv-x="682" 
d="M482 390q72 -23 112.5 -72.5t40.5 -114.5q0 -96 -68.5 -154.5t-181.5 -58.5q-64 0 -107 18l10 85q34 -15 80 -15q70 0 113 37t43 97t-47.5 97t-125.5 37v82q61 0 98.5 32.5t37.5 85.5q0 52 -40 84t-106 32q-65 0 -105.5 -32.5t-40.5 -84.5v-545h-106v558q0 86 69 139
t183 53q115 0 185.5 -52t70.5 -138q0 -57 -30.5 -101.5t-84.5 -68.5z" />
    <glyph glyph-name="Ygrave" unicode="&#x1ef2;" horiz-adv-x="673" 
d="M402 825h-89l-166 155h122zM545 740h114l-269 -453v-287h-107v287l-269 453h115l208 -358z" />
    <glyph glyph-name="ygrave" unicode="&#x1ef3;" horiz-adv-x="584" 
d="M270 619l-166 155h122l133 -155h-89zM140 -230q-44 0 -72 14l11 83q18 -9 44 -9q31 0 48 17t37 54l37 80l-234 525h112l175 -414l167 414h112l-270 -618q-31 -75 -67 -110.5t-100 -35.5z" />
    <glyph glyph-name="endash" unicode="&#x2013;" horiz-adv-x="590" 
d="M67 251v74h456v-74h-456z" />
    <glyph glyph-name="emdash" unicode="&#x2014;" horiz-adv-x="935" 
d="M67 251v74h801v-74h-801z" />
    <glyph glyph-name="quoteleft" unicode="&#x2018;" horiz-adv-x="253" 
d="M218 740l-66 -236h-107l81 236h92z" />
    <glyph glyph-name="quoteright" unicode="&#x2019;" horiz-adv-x="251" 
d="M48 504l66 236h107l-81 -236h-92z" />
    <glyph glyph-name="quotesinglbase" unicode="&#x201a;" horiz-adv-x="245" 
d="M13 -133l66 237h107l-81 -237h-92z" />
    <glyph glyph-name="quotedblleft" unicode="&#x201c;" horiz-adv-x="435" 
d="M220 740l-66 -236h-107l81 236h92zM400 740l-66 -236h-107l81 236h92z" />
    <glyph glyph-name="quotedblright" unicode="&#x201d;" horiz-adv-x="432" 
d="M48 504l66 236h107l-81 -236h-92zM228 504l66 236h107l-81 -236h-92z" />
    <glyph glyph-name="quotedblbase" unicode="&#x201e;" horiz-adv-x="425" 
d="M13 -133l66 237h107l-81 -237h-92zM193 -133l67 237h106l-81 -237h-92z" />
    <glyph glyph-name="dagger" unicode="&#x2020;" horiz-adv-x="548" 
d="M509 534v-89h-182v-665h-106v665h-182v89h182v246h106v-246h182z" />
    <glyph glyph-name="daggerdbl" unicode="&#x2021;" horiz-adv-x="548" 
d="M509 445h-182v-125h182v-88h-182v-452h-106v452h-182v88h182v125h-182v89h182v246h106v-246h182v-89z" />
    <glyph glyph-name="bullet" unicode="&#x2022;" horiz-adv-x="378" 
d="M189 208q-47 0 -76 29t-29 76q0 48 29 77t76 29t76 -29t29 -77q0 -47 -29 -76t-76 -29z" />
    <glyph glyph-name="ellipsis" unicode="&#x2026;" horiz-adv-x="705" 
d="M124 -10q-29 0 -49.5 21t-20.5 50t21 49.5t49 20.5q29 0 49.5 -20.5t20.5 -49.5t-20.5 -50t-49.5 -21zM352 -10q-29 0 -49.5 21t-20.5 50t21 49.5t49 20.5q29 0 50 -20.5t21 -49.5t-21 -50t-50 -21zM581 -10q-29 0 -50 21t-21 50t21 49.5t50 20.5t49.5 -20.5t20.5 -49.5
t-20.5 -50t-49.5 -21z" />
    <glyph glyph-name="perthousand" unicode="&#x2030;" horiz-adv-x="1213" 
d="M211 414q-79 0 -127.5 46t-48.5 122t48.5 122t127.5 46t127.5 -46t48.5 -122t-48.5 -122t-127.5 -46zM222 -10l-56 35l425 725l56 -34zM212 482q40 0 65 27.5t25 72.5t-25 73t-65 28q-41 0 -66.5 -27.5t-25.5 -73.5q0 -45 25.5 -72.5t66.5 -27.5zM603 -10
q-80 0 -128.5 46t-48.5 122t48.5 122t128.5 46q79 0 127 -46t48 -122t-48 -122t-127 -46zM1005 -10q-79 0 -127.5 46t-48.5 122t48.5 122t127.5 46t127.5 -46t48.5 -122t-48.5 -122t-127.5 -46zM603 57q40 0 65 28t25 73t-25 72.5t-65 27.5q-41 0 -66.5 -27t-25.5 -73
t25.5 -73.5t66.5 -27.5zM1005 57q41 0 65.5 27.5t24.5 73.5t-24.5 73t-65.5 27t-66 -27t-25 -73t25 -73.5t66 -27.5z" />
    <glyph glyph-name="guilsinglleft" unicode="&#x2039;" horiz-adv-x="370" 
d="M326 497l-173 -227l173 -227h-108l-178 227l178 227h108z" />
    <glyph glyph-name="guilsinglright" unicode="&#x203a;" horiz-adv-x="370" 
d="M153 497l178 -227l-178 -227h-109l173 227l-173 227h109z" />
    <glyph glyph-name="fraction" unicode="&#x2044;" horiz-adv-x="209" 
d="M-80 -10l-56 35l425 725l56 -34z" />
    <glyph glyph-name="uni2070" unicode="&#x2070;" horiz-adv-x="390" 
d="M196 390q-74 0 -119.5 62.5t-45.5 165.5t45.5 165.5t119.5 62.5q73 0 118 -62.5t45 -165.5t-45 -165.5t-118 -62.5zM196 447q42 0 68 47.5t26 123.5q0 77 -26 124t-68 47t-68 -47t-26 -124q0 -76 26 -123.5t68 -47.5z" />
    <glyph glyph-name="uni2074" unicode="&#x2074;" horiz-adv-x="386" 
d="M228 396v90h-212v48l226 306h55v-296h63v-58h-63v-90h-69zM92 541h138v188z" />
    <glyph glyph-name="uni2075" unicode="&#x2075;" horiz-adv-x="358" 
d="M153 390q-85 0 -131 40l21 51q38 -34 104 -34q49 0 78.5 24.5t29.5 64.5q0 35 -23 57t-60 22q-38 0 -73 -20l-46 7l31 238h220v-57h-161l-17 -119q27 8 58 8q63 0 102.5 -36.5t39.5 -95.5q0 -67 -48 -108.5t-125 -41.5z" />
    <glyph glyph-name="uni2076" unicode="&#x2076;" horiz-adv-x="356" 
d="M195 667q58 0 97 -38t39 -99q0 -63 -41.5 -101.5t-108.5 -38.5q-68 0 -110 38t-42 102q0 58 43 120l132 190h77l-128 -177q16 4 42 4zM181 447q35 0 57 23t22 60q0 38 -22 61t-57 23q-36 0 -58 -23t-22 -61q0 -37 22 -60t58 -23z" />
    <glyph glyph-name="uni2077" unicode="&#x2077;" horiz-adv-x="320" 
d="M16 840h293l-153 -444h-73l136 387h-203v57z" />
    <glyph glyph-name="uni2078" unicode="&#x2078;" horiz-adv-x="375" 
d="M263 627q76 -31 76 -109q0 -58 -41.5 -93t-109.5 -35t-109.5 35t-41.5 91q0 80 76 110q-64 30 -64 100q0 54 38 87t101 33q62 0 100.5 -33t38.5 -86q0 -70 -64 -100zM188 789q-31 0 -49.5 -18.5t-18.5 -49.5q0 -30 18.5 -48t49.5 -18q30 0 49 18t19 48q0 31 -19 49.5
t-49 18.5zM188 447q35 0 57.5 20.5t22.5 54.5t-22.5 55t-57.5 21q-36 0 -58 -21t-22 -55t22 -54.5t58 -20.5z" />
    <glyph glyph-name="uni2079" unicode="&#x2079;" horiz-adv-x="356" 
d="M175 846q68 0 110 -38t42 -102q0 -58 -43 -120l-132 -190h-77l128 177q-16 -4 -42 -4q-58 0 -97 38t-39 99q0 63 41.5 101.5t108.5 38.5zM96 706q0 -38 22 -61t57 -23q36 0 58 23t22 61q0 37 -22 60t-58 23q-35 0 -57 -23t-22 -60z" />
    <glyph glyph-name="uni2080" unicode="&#x2080;" horiz-adv-x="390" 
d="M196 -106q-74 0 -119.5 62.5t-45.5 165.5t45.5 165.5t119.5 62.5q73 0 118 -62.5t45 -165.5t-45 -165.5t-118 -62.5zM196 -49q42 0 68 47.5t26 123.5q0 77 -26 124t-68 47t-68 -47t-26 -124q0 -76 26 -123.5t68 -47.5z" />
    <glyph glyph-name="uni2081" unicode="&#x2081;" horiz-adv-x="268" 
d="M139 -100v356l-97 -70l-34 49l147 109h53v-444h-69z" />
    <glyph glyph-name="uni2082" unicode="&#x2082;" horiz-adv-x="359" 
d="M31 -100v44l136 147q2 2 13 14t16 17.5t15 18t15 21t11.5 20.5t9 23t2.5 22q0 31 -19 48.5t-51 17.5q-33 0 -53 -20.5t-20 -54.5l-70 6q0 57 39 91.5t103 34.5q63 0 101.5 -32.5t38.5 -85.5q0 -45 -26.5 -85.5t-78.5 -94.5l-91 -96l202 1v-57h-293z" />
    <glyph glyph-name="uni2083" unicode="&#x2083;" horiz-adv-x="354" 
d="M180 164q64 0 102.5 -36t38.5 -95q0 -63 -44 -101t-119 -38q-89 0 -133 46l26 51q35 -40 99 -40q46 0 73 22.5t27 59.5q0 35 -26 56.5t-69 21.5q-36 0 -63 -15l-20 35l139 156h-167v57h258v-43l-129 -137h7z" />
    <glyph glyph-name="uni2084" unicode="&#x2084;" horiz-adv-x="386" 
d="M228 -100v90h-212v48l226 306h55v-296h63v-58h-63v-90h-69zM92 45h138v188z" />
    <glyph glyph-name="uni2085" unicode="&#x2085;" horiz-adv-x="358" 
d="M153 -106q-85 0 -131 40l21 51q38 -34 104 -34q49 0 78.5 24.5t29.5 64.5q0 35 -23 57t-60 22q-38 0 -73 -20l-46 7l31 238h220v-57h-161l-17 -119q27 8 58 8q63 0 102.5 -36.5t39.5 -95.5q0 -67 -48 -108.5t-125 -41.5z" />
    <glyph glyph-name="uni2086" unicode="&#x2086;" horiz-adv-x="356" 
d="M195 171q58 0 97 -38t39 -99q0 -63 -41.5 -101.5t-108.5 -38.5q-68 0 -110 38t-42 102q0 58 43 120l132 190h77l-128 -177q16 4 42 4zM181 -49q35 0 57 23t22 60q0 38 -22 61t-57 23q-36 0 -58 -23t-22 -61q0 -37 22 -60t58 -23z" />
    <glyph glyph-name="uni2087" unicode="&#x2087;" horiz-adv-x="320" 
d="M16 344h293l-153 -444h-73l136 387h-203v57z" />
    <glyph glyph-name="uni2088" unicode="&#x2088;" horiz-adv-x="375" 
d="M263 131q76 -31 76 -109q0 -58 -41.5 -93t-109.5 -35t-109.5 35t-41.5 91q0 80 76 110q-64 30 -64 100q0 54 38 87t101 33q62 0 100.5 -33t38.5 -86q0 -70 -64 -100zM188 293q-31 0 -49.5 -18.5t-18.5 -49.5q0 -30 18.5 -48t49.5 -18q30 0 49 18t19 48q0 31 -19 49.5
t-49 18.5zM188 -49q35 0 57.5 20.5t22.5 54.5t-22.5 55t-57.5 21q-36 0 -58 -21t-22 -55t22 -54.5t58 -20.5z" />
    <glyph glyph-name="uni2089" unicode="&#x2089;" horiz-adv-x="356" 
d="M175 350q68 0 110 -38t42 -102q0 -58 -43 -120l-132 -190h-77l128 177q-16 -4 -42 -4q-58 0 -97 38t-39 99q0 63 41.5 101.5t108.5 38.5zM96 210q0 -38 22 -61t57 -23q36 0 58 23t22 61q0 37 -22 60t-58 23q-35 0 -57 -23t-22 -60z" />
    <glyph glyph-name="Euro" unicode="&#x20ac;" horiz-adv-x="829" 
d="M715 202l73 -66q-110 -146 -307 -146q-142 0 -240.5 73.5t-129.5 199.5h-69v68h58q-2 26 -2 41v13h-56v68h63q24 136 124.5 216.5t250.5 80.5q176 0 285 -120l-67 -68q-81 100 -215 100q-103 0 -173.5 -56t-91.5 -153h256v-68h-265v-13q0 -15 2 -41h263v-68h-249
q27 -86 95 -135.5t162 -49.5q150 0 233 124z" />
    <glyph glyph-name="uni20B9" unicode="&#x20b9;" horiz-adv-x="640" 
d="M594 740v-68h-173q74 -51 86 -143h82v-67h-82q-14 -130 -126 -185l182 -277h-125l-159 249q-10 -1 -32 -1h-179v88h170q63 0 105 34t53 92h-328v67h328q-10 57 -50.5 90t-102.5 33h-175v88h526z" />
    <glyph glyph-name="uni20BD" unicode="&#x20bd;" horiz-adv-x="660" 
d="M373 306h-155v-54h240v-68h-240v-184h-106v184h-55v68h55v54h-55v68h55v366h263q113 0 181.5 -58.5t68.5 -154.5q0 -100 -69.5 -160.5t-182.5 -60.5zM218 652v-258h145q69 0 110.5 35.5t41.5 93.5t-42 93.5t-110 35.5h-145z" />
    <glyph glyph-name="trademark" unicode="&#x2122;" horiz-adv-x="726" 
d="M276 780v-48h-90v-238h-58v238h-90v48h238zM657 494h-58l-12 197l-90 -197h-28l-91 198l-12 -198h-58l20 286h60l95 -207l93 207h61z" />
    <glyph glyph-name="oneeighth" unicode="&#x215b;" horiz-adv-x="852" 
d="M557 750l56 -34l-425 -726l-56 35zM139 296v356l-97 -70l-34 49l147 109h53v-444h-69zM740 231q76 -31 76 -109q0 -58 -41.5 -93t-109.5 -35t-109.5 35t-41.5 91q0 80 76 110q-64 30 -64 100q0 54 38 87t101 33q62 0 100.5 -33t38.5 -86q0 -70 -64 -100zM665 393
q-31 0 -49.5 -18.5t-18.5 -49.5q0 -30 18.5 -48t49.5 -18q30 0 49 18t19 48q0 31 -19 49.5t-49 18.5zM665 51q35 0 57.5 20.5t22.5 54.5t-22.5 55t-57.5 21q-36 0 -58 -21t-22 -55t22 -54.5t58 -20.5z" />
    <glyph glyph-name="threeeighths" unicode="&#x215c;" horiz-adv-x="938" 
d="M643 750l56 -34l-425 -726l-56 35zM321 429q0 -63 -44 -101t-119 -38q-89 0 -133 46l26 51q35 -40 99 -40q46 0 73 22.5t27 59.5q0 35 -26 56.5t-69 21.5q-36 0 -63 -15l-20 35l139 156h-167v57h258v-43l-129 -137h7q64 0 102.5 -36t38.5 -95zM826 231q76 -31 76 -109
q0 -58 -41.5 -93t-109.5 -35t-109.5 35t-41.5 91q0 80 76 110q-64 30 -64 100q0 54 38 87t101 33q62 0 100.5 -33t38.5 -86q0 -70 -64 -100zM751 393q-31 0 -49.5 -18.5t-18.5 -49.5q0 -30 18.5 -48t49.5 -18q30 0 49 18t19 48q0 31 -19 49.5t-49 18.5zM751 51
q35 0 57.5 20.5t22.5 54.5t-22.5 55t-57.5 21q-36 0 -58 -21t-22 -55t22 -54.5t58 -20.5z" />
    <glyph glyph-name="fiveeighths" unicode="&#x215d;" horiz-adv-x="942" 
d="M647 750l56 -34l-425 -726l-56 35zM326 440q0 -67 -48 -108.5t-125 -41.5q-85 0 -131 40l21 51q38 -34 104 -34q49 0 78.5 24.5t29.5 64.5q0 35 -23 57t-60 22q-38 0 -73 -20l-46 7l31 238h220v-57h-161l-17 -119q27 8 58 8q63 0 102.5 -36.5t39.5 -95.5zM830 231
q76 -31 76 -109q0 -58 -41.5 -93t-109.5 -35t-109.5 35t-41.5 91q0 80 76 110q-64 30 -64 100q0 54 38 87t101 33q62 0 100.5 -33t38.5 -86q0 -70 -64 -100zM755 393q-31 0 -49.5 -18.5t-18.5 -49.5q0 -30 18.5 -48t49.5 -18q30 0 49 18t19 48q0 31 -19 49.5t-49 18.5z
M755 51q35 0 57.5 20.5t22.5 54.5t-22.5 55t-57.5 21q-36 0 -58 -21t-22 -55t22 -54.5t58 -20.5z" />
    <glyph glyph-name="seveneighths" unicode="&#x215e;" horiz-adv-x="874" 
d="M579 750l56 -34l-425 -726l-56 35zM156 296h-73l136 387h-203v57h293zM762 231q76 -31 76 -109q0 -58 -41.5 -93t-109.5 -35t-109.5 35t-41.5 91q0 80 76 110q-64 30 -64 100q0 54 38 87t101 33q62 0 100.5 -33t38.5 -86q0 -70 -64 -100zM687 393q-31 0 -49.5 -18.5
t-18.5 -49.5q0 -30 18.5 -48t49.5 -18q30 0 49 18t19 48q0 31 -19 49.5t-49 18.5zM687 51q35 0 57.5 20.5t22.5 54.5t-22.5 55t-57.5 21q-36 0 -58 -21t-22 -55t22 -54.5t58 -20.5z" />
    <glyph glyph-name="partialdiff" unicode="&#x2202;" horiz-adv-x="661" 
d="M313 750q135 0 218 -104t83 -274q0 -172 -94 -277t-246 -105q-109 0 -176 55t-67 145q0 109 128 177.5t340 73.5q-14 102 -64 161.5t-125 59.5q-110 0 -181 -100l-67 68q98 120 251 120zM272 78q100 0 163 75.5t68 199.5q-165 -2 -265 -47.5t-100 -118.5q0 -49 37 -79
t97 -30z" />
    <glyph glyph-name="emptyset" unicode="&#x2205;" horiz-adv-x="674" 
d="M547 541q68 -76 68 -192q0 -124 -76.5 -200.5t-201.5 -76.5q-97 0 -170 49l-44 -49l-44 33l47 52q-68 76 -68 192q0 124 77 200.5t202 76.5q98 0 169 -49l45 49l43 -33zM164 349q0 -68 31 -116l246 272q-44 33 -104 33q-78 0 -125.5 -52t-47.5 -137zM337 160
q77 0 124.5 52t47.5 137q0 68 -31 116l-246 -272q44 -33 105 -33z" />
    <glyph glyph-name="product" unicode="&#x220f;" horiz-adv-x="730" 
d="M637 780v-1000h-107v912h-330v-912h-106v1000h543z" />
    <glyph glyph-name="summation" unicode="&#x2211;" horiz-adv-x="644" 
d="M33 -220v67l309 436l-299 430v67h551v-88h-422l295 -409l-305 -415h442v-88h-571z" />
    <glyph glyph-name="minus" unicode="&#x2212;" horiz-adv-x="592" 
d="M71 306v85h450v-85h-450z" />
    <glyph glyph-name="radical" unicode="&#x221a;" horiz-adv-x="775" 
d="M237 -220l-232 534h112l171 -417l372 883h112l-432 -1000h-103z" />
    <glyph glyph-name="infinity" unicode="&#x221e;" horiz-adv-x="726" 
d="M504 447q76 0 122 -46t46 -122t-46 -122t-122 -46q-98 0 -141 78q-41 -78 -140 -78q-76 0 -122.5 46t-46.5 122t46.5 122t122.5 46q99 0 140 -78q43 78 141 78zM230 178q40 0 65 28t25 73q0 46 -24.5 73.5t-65.5 27.5t-66 -27.5t-25 -73.5q0 -45 25 -73t66 -28zM497 178
q40 0 65 28t25 73t-25 73t-65 28q-41 0 -66.5 -27.5t-25.5 -73.5q0 -45 25.5 -73t66.5 -28z" />
    <glyph glyph-name="integral" unicode="&#x222b;" horiz-adv-x="455" 
d="M335 790q77 0 120 -45l-28 -72q-32 29 -73 29q-34 0 -53.5 -20t-19.5 -53v-718q0 -64 -44 -102.5t-117 -38.5q-77 0 -120 45l29 72q31 -29 72 -29q34 0 53.5 20t19.5 53v718q0 64 44.5 102.5t116.5 38.5z" />
    <glyph glyph-name="approxequal" unicode="&#x2248;" horiz-adv-x="586" 
d="M391 326q-42 0 -105 32.5t-89 32.5q-30 0 -49 -15t-19 -40h-58q0 59 35 94.5t90 35.5q43 0 105 -32t89 -32q31 0 50 14.5t19 39.5h58q0 -60 -35 -95t-91 -35zM391 126q-42 0 -105 32.5t-89 32.5q-30 0 -49 -15t-19 -40h-58q0 59 35 94.5t90 35.5q43 0 105 -32t89 -32
q31 0 50 14.5t19 39.5h58q0 -60 -35 -95t-91 -35z" />
    <glyph glyph-name="notequal" unicode="&#x2260;" horiz-adv-x="591" 
d="M521 419h-154l-39 -141h193v-85h-216l-31 -115h-103l31 115h-132v85h155l39 141h-194v85h217l31 115h103l-31 -115h131v-85z" />
    <glyph glyph-name="lessequal" unicode="&#x2264;" horiz-adv-x="588" 
d="M512 289v-96l-442 189v65l442 188v-96l-300 -125zM69 140h444v-84h-444v84z" />
    <glyph glyph-name="greaterequal" unicode="&#x2265;" horiz-adv-x="587" 
d="M76 635l442 -188v-65l-442 -189v96l300 125l-300 125v96zM75 56v84h443v-84h-443z" />
    <glyph glyph-name="lozenge" unicode="&#x25ca;" horiz-adv-x="588" 
d="M341 634l207 -317l-207 -317h-94l-207 317l207 317h94zM294 91l147 226l-147 226l-147 -226z" />
    <glyph glyph-name="A.ss01" horiz-adv-x="800" 
d="M400 750q141 0 227 -77t86 -204v-469h-106v235h-414v-235h-106v469q0 127 86 204t227 77zM193 324h414v140q0 89 -57 143.5t-149 54.5q-94 0 -151 -54.5t-57 -143.5v-140z" />
    <glyph glyph-name="Aacute.ss01" horiz-adv-x="800" 
d="M590 980l-166 -155h-88l133 155h121zM400 750q141 0 227 -77t86 -204v-469h-106v235h-414v-235h-106v469q0 127 86 204t227 77zM193 324h414v140q0 89 -57 143.5t-149 54.5q-94 0 -151 -54.5t-57 -143.5v-140z" />
    <glyph glyph-name="Abreve.ss01" horiz-adv-x="800" 
d="M400 816q-77 0 -124 45t-47 119h80q0 -47 25 -75.5t66 -28.5t66 29t25 75h79q0 -74 -46.5 -119t-123.5 -45zM400 750q141 0 227 -77t86 -204v-469h-106v235h-414v-235h-106v469q0 127 86 204t227 77zM193 324h414v140q0 89 -57 143.5t-149 54.5q-94 0 -151 -54.5
t-57 -143.5v-140z" />
    <glyph glyph-name="Acircumflex.ss01" horiz-adv-x="800" 
d="M400 923l-84 -98h-96l130 155h100l130 -155h-96zM400 750q141 0 227 -77t86 -204v-469h-106v235h-414v-235h-106v469q0 127 86 204t227 77zM193 324h414v140q0 89 -57 143.5t-149 54.5q-94 0 -151 -54.5t-57 -143.5v-140z" />
    <glyph glyph-name="Adieresis.ss01" horiz-adv-x="800" 
d="M289 851q-28 0 -46 18t-18 46t18 46t46 18q27 0 45 -18t18 -46t-18 -46t-45 -18zM512 851q-28 0 -46 18t-18 46t18 46t46 18q27 0 45 -18t18 -46t-18 -46t-45 -18zM400 750q141 0 227 -77t86 -204v-469h-106v235h-414v-235h-106v469q0 127 86 204t227 77zM193 324h414
v140q0 89 -57 143.5t-149 54.5q-94 0 -151 -54.5t-57 -143.5v-140z" />
    <glyph glyph-name="Agrave.ss01" horiz-adv-x="800" 
d="M464 825h-89l-166 155h122zM400 750q141 0 227 -77t86 -204v-469h-106v235h-414v-235h-106v469q0 127 86 204t227 77zM193 324h414v140q0 89 -57 143.5t-149 54.5q-94 0 -151 -54.5t-57 -143.5v-140z" />
    <glyph glyph-name="Amacron.ss01" horiz-adv-x="800" 
d="M566 923v-81h-331v81h331zM400 750q141 0 227 -77t86 -204v-469h-106v235h-414v-235h-106v469q0 127 86 204t227 77zM193 324h414v140q0 89 -57 143.5t-149 54.5q-94 0 -151 -54.5t-57 -143.5v-140z" />
    <glyph glyph-name="Aogonek.ss01" horiz-adv-x="800" 
d="M706 -149l10 -53q-36 -28 -86 -28q-42 0 -68 23t-26 60q0 73 98 147h-27v235h-414v-235h-106v469q0 127 86 204t227 77t227 -77t86 -204v-469q-101 -67 -101 -131q0 -17 11 -28t30 -11q30 0 53 21zM193 324h414v140q0 89 -57 143.5t-149 54.5q-94 0 -151 -54.5
t-57 -143.5v-140z" />
    <glyph glyph-name="Aring.ss01" horiz-adv-x="800" 
d="M400 790q-51 0 -82 29t-31 78q0 47 31 76.5t82 29.5t82 -29.5t31 -76.5q0 -49 -31 -78t-82 -29zM400 954q-25 0 -40.5 -16t-15.5 -41q0 -26 15.5 -42.5t40.5 -16.5t40 16.5t15 42.5t-15 41.5t-40 15.5zM400 750q141 0 227 -77t86 -204v-469h-106v235h-414v-235h-106v469
q0 127 86 204t227 77zM193 324h414v140q0 89 -57 143.5t-149 54.5q-94 0 -151 -54.5t-57 -143.5v-140z" />
    <glyph glyph-name="Atilde.ss01" horiz-adv-x="800" 
d="M319 894q-21 0 -34.5 -15t-13.5 -40h-58q0 59 29 94.5t76 35.5q36 0 87.5 -32t73.5 -32q21 0 34.5 14.5t13.5 39.5h58q0 -60 -29 -95t-76 -35q-34 0 -86 32.5t-75 32.5zM400 750q141 0 227 -77t86 -204v-469h-106v235h-414v-235h-106v469q0 127 86 204t227 77zM193 324
h414v140q0 89 -57 143.5t-149 54.5q-94 0 -151 -54.5t-57 -143.5v-140z" />
    <glyph glyph-name="AE.ss01" horiz-adv-x="939" 
d="M554 88h330v-88h-436v235h-258v-235h-106v409q0 149 100 240t264 91h427v-88h-321v-232h293v-88h-293v-244zM190 324h258v328q-116 0 -187 -68.5t-71 -179.5v-80z" />
    <glyph glyph-name="J.ss01" horiz-adv-x="575" 
d="M487 740v-508q0 -109 -69 -175.5t-183 -66.5q-126 0 -208 88l53 72q58 -72 149 -72q68 0 110 44t42 115v415h-327v88h433z" />
    <glyph glyph-name="C.ss02" horiz-adv-x="665" 
d="M427 -10q-170 0 -274.5 104.5t-104.5 275.5t104.5 275.5t274.5 104.5q111 0 193 -55v-99q-72 66 -191 66q-121 0 -195.5 -80.5t-74.5 -211.5t74.5 -211.5t195.5 -80.5q117 0 191 66v-99q-82 -55 -193 -55z" />
    <glyph glyph-name="Cacute.ss02" horiz-adv-x="665" 
d="M357 825l133 155h121l-166 -155h-88zM427 -10q-170 0 -274.5 104.5t-104.5 275.5t104.5 275.5t274.5 104.5q111 0 193 -55v-99q-72 66 -191 66q-121 0 -195.5 -80.5t-74.5 -211.5t74.5 -211.5t195.5 -80.5q117 0 191 66v-99q-82 -55 -193 -55z" />
    <glyph glyph-name="Ccaron.ss02" horiz-adv-x="665" 
d="M371 825l-130 155h96l84 -98l84 98h96l-130 -155h-100zM429 662q-121 0 -195.5 -80.5t-74.5 -211.5t74.5 -211.5t195.5 -80.5q117 0 191 66v-99q-82 -55 -193 -55q-170 0 -274.5 104.5t-104.5 275.5t104.5 275.5t274.5 104.5q111 0 193 -55v-99q-72 66 -191 66z" />
    <glyph glyph-name="Ccedilla.ss02" horiz-adv-x="665" 
d="M429 662q-121 0 -195.5 -80.5t-74.5 -211.5t74.5 -211.5t195.5 -80.5q117 0 191 66v-99q-73 -49 -172 -54l-32 -51h6q49 0 78.5 -22.5t29.5 -59.5q0 -39 -34 -63.5t-91 -24.5q-62 0 -97 27l20 40q24 -21 67 -21q30 0 47 11.5t17 30.5q0 18 -16.5 28.5t-43.5 10.5
q-21 0 -42 -8l-14 25l45 78q-154 12 -247 114.5t-93 263.5q0 171 104.5 275.5t274.5 104.5q111 0 193 -55v-99q-72 66 -191 66z" />
    <glyph glyph-name="Cdotaccent.ss02" horiz-adv-x="665" 
d="M421 851q-28 0 -46 18t-18 46t18 46t46 18q27 0 45 -18t18 -46t-18 -46t-45 -18zM427 -10q-170 0 -274.5 104.5t-104.5 275.5t104.5 275.5t274.5 104.5q111 0 193 -55v-99q-72 66 -191 66q-121 0 -195.5 -80.5t-74.5 -211.5t74.5 -211.5t195.5 -80.5q117 0 191 66v-99
q-82 -55 -193 -55z" />
    <glyph glyph-name="Z.ss02" horiz-adv-x="591" 
d="M193 88h369v-88h-533l363 652h-357v88h521z" />
    <glyph glyph-name="Zacute.ss02" horiz-adv-x="591" 
d="M486 980l-166 -155h-88l133 155h121zM193 88h369v-88h-533l363 652h-357v88h521z" />
    <glyph glyph-name="Zcaron.ss02" horiz-adv-x="591" 
d="M246 825l-130 155h96l84 -98l84 98h96l-130 -155h-100zM193 88h369v-88h-533l363 652h-357v88h521z" />
    <glyph glyph-name="Zdotaccent.ss02" horiz-adv-x="591" 
d="M296 851q-28 0 -46 18t-18 46t18 46t46 18q27 0 45 -18t18 -46t-18 -46t-45 -18zM193 88h369v-88h-533l363 652h-357v88h521z" />
    <glyph glyph-name="i.loclTRK" horiz-adv-x="255" 
d="M128 645q-28 0 -46 18t-18 46t18 46t46 18q27 0 45 -18t18 -46t-18 -46t-45 -18zM77 0v534h102v-534h-102z" />
    <glyph glyph-name="a.ss01" horiz-adv-x="672" 
d="M498 534h99v-534h-99l-2 98q-62 -108 -197 -108q-111 0 -183.5 76t-72.5 199q0 124 72.5 201.5t183.5 77.5q135 0 197 -108zM322 78q77 0 125 52t48 137t-48 137t-125 52q-78 0 -125.5 -52t-47.5 -138q0 -85 47.5 -136.5t125.5 -51.5z" />
    <glyph glyph-name="aacute.ss01" horiz-adv-x="672" 
d="M520 774l-166 -155h-88l133 155h121zM498 534h99v-534h-99l-2 98q-62 -108 -197 -108q-111 0 -183.5 76t-72.5 199q0 124 72.5 201.5t183.5 77.5q135 0 197 -108zM322 78q77 0 125 52t48 137t-48 137t-125 52q-78 0 -125.5 -52t-47.5 -138q0 -85 47.5 -136.5t125.5 -51.5
z" />
    <glyph glyph-name="abreve.ss01" horiz-adv-x="672" 
d="M330 610q-77 0 -124 45t-47 119h80q0 -47 25 -75.5t66 -28.5t66 29t25 75h79q0 -74 -46.5 -119t-123.5 -45zM498 534h99v-534h-99l-2 98q-62 -108 -197 -108q-111 0 -183.5 76t-72.5 199q0 124 72.5 201.5t183.5 77.5q135 0 197 -108zM322 78q77 0 125 52t48 137t-48 137
t-125 52q-78 0 -125.5 -52t-47.5 -138q0 -85 47.5 -136.5t125.5 -51.5z" />
    <glyph glyph-name="acircumflex.ss01" horiz-adv-x="672" 
d="M330 717l-84 -98h-96l130 155h100l130 -155h-96zM498 534h99v-534h-99l-2 98q-62 -108 -197 -108q-111 0 -183.5 76t-72.5 199q0 124 72.5 201.5t183.5 77.5q135 0 197 -108zM322 78q77 0 125 52t48 137t-48 137t-125 52q-78 0 -125.5 -52t-47.5 -138q0 -85 47.5 -136.5
t125.5 -51.5z" />
    <glyph glyph-name="adieresis.ss01" horiz-adv-x="672" 
d="M219 645q-28 0 -46 18t-18 46t18 46t46 18q27 0 45 -18t18 -46t-18 -46t-45 -18zM442 645q-28 0 -46 18t-18 46t18 46t46 18q27 0 45 -18t18 -46t-18 -46t-45 -18zM498 534h99v-534h-99l-2 98q-62 -108 -197 -108q-111 0 -183.5 76t-72.5 199q0 124 72.5 201.5
t183.5 77.5q135 0 197 -108zM322 78q77 0 125 52t48 137t-48 137t-125 52q-78 0 -125.5 -52t-47.5 -138q0 -85 47.5 -136.5t125.5 -51.5z" />
    <glyph glyph-name="agrave.ss01" horiz-adv-x="672" 
d="M394 619h-89l-166 155h122zM498 534h99v-534h-99l-2 98q-62 -108 -197 -108q-111 0 -183.5 76t-72.5 199q0 124 72.5 201.5t183.5 77.5q135 0 197 -108zM322 78q77 0 125 52t48 137t-48 137t-125 52q-78 0 -125.5 -52t-47.5 -138q0 -85 47.5 -136.5t125.5 -51.5z" />
    <glyph glyph-name="amacron.ss01" horiz-adv-x="672" 
d="M496 717v-81h-331v81h331zM498 534h99v-534h-99l-2 98q-62 -108 -197 -108q-111 0 -183.5 76t-72.5 199q0 124 72.5 201.5t183.5 77.5q135 0 197 -108zM322 78q77 0 125 52t48 137t-48 137t-125 52q-78 0 -125.5 -52t-47.5 -138q0 -85 47.5 -136.5t125.5 -51.5z" />
    <glyph glyph-name="aogonek.ss01" horiz-adv-x="672" 
d="M590 -149l10 -53q-36 -28 -86 -28q-42 0 -68 23t-26 60q0 73 98 147h-20l-2 98q-62 -108 -197 -108q-111 0 -183.5 76t-72.5 199q0 124 72.5 201.5t183.5 77.5q135 0 197 -108l2 98h99v-534q-101 -67 -101 -131q0 -17 11 -28t30 -11q30 0 53 21zM322 78q77 0 125 52
t48 137t-48 137t-125 52q-78 0 -125.5 -52t-47.5 -138q0 -85 47.5 -136.5t125.5 -51.5z" />
    <glyph glyph-name="aring.ss01" horiz-adv-x="672" 
d="M330 584q-51 0 -82 29t-31 78q0 47 31 76.5t82 29.5t82 -29.5t31 -76.5q0 -49 -31 -78t-82 -29zM330 748q-25 0 -40.5 -16t-15.5 -41q0 -26 15.5 -42.5t40.5 -16.5t40 16.5t15 42.5t-15 41.5t-40 15.5zM498 534h99v-534h-99l-2 98q-62 -108 -197 -108q-111 0 -183.5 76
t-72.5 199q0 124 72.5 201.5t183.5 77.5q135 0 197 -108zM322 78q77 0 125 52t48 137t-48 137t-125 52q-78 0 -125.5 -52t-47.5 -138q0 -85 47.5 -136.5t125.5 -51.5z" />
    <glyph glyph-name="atilde.ss01" horiz-adv-x="672" 
d="M249 688q-21 0 -34.5 -15t-13.5 -40h-58q0 59 29 94.5t76 35.5q36 0 87.5 -32t73.5 -32q21 0 34.5 14.5t13.5 39.5h58q0 -60 -29 -95t-76 -35q-34 0 -86 32.5t-75 32.5zM498 534h99v-534h-99l-2 98q-62 -108 -197 -108q-111 0 -183.5 76t-72.5 199q0 124 72.5 201.5
t183.5 77.5q135 0 197 -108zM322 78q77 0 125 52t48 137t-48 137t-125 52q-78 0 -125.5 -52t-47.5 -138q0 -85 47.5 -136.5t125.5 -51.5z" />
    <glyph glyph-name="f.ss01" horiz-adv-x="354" 
d="M270 702q-41 0 -66.5 -23.5t-25.5 -62.5v-82h162v-84h-162v-450h-102v632q0 71 44.5 114.5t118.5 43.5q70 0 113 -21l-8 -80q-29 13 -74 13z" />
    <glyph glyph-name="j.ss01" horiz-adv-x="255" 
d="M127 645q-27 0 -45.5 18t-18.5 46t18.5 46t45.5 18q28 0 46 -18t18 -46t-18 -46t-46 -18zM77 -220v754h102v-754h-102z" />
    <glyph glyph-name="t.ss01" horiz-adv-x="373" 
d="M257 78q54 0 100 18v-82q-54 -24 -133 -24q-69 0 -111 43t-42 114v543h102v-156h176v-84h-176v-282q0 -40 23 -65t61 -25z" />
    <glyph glyph-name="tbar.ss01" horiz-adv-x="374" 
d="M257 78q54 0 100 18v-82q-54 -24 -133 -24q-69 0 -111 43t-42 114v543h102v-156h176v-84h-176v-135h166v-74h-166v-73q0 -40 23 -65t61 -25z" />
    <glyph glyph-name="tcaron.ss01" horiz-adv-x="373" 
d="M392 780l-69 -187h-78l54 187h93zM173 168q0 -40 23 -65t61 -25q54 0 100 18v-82q-54 -24 -133 -24q-69 0 -111 43t-42 114v543h102v-156h176v-84h-176v-282z" />
    <glyph glyph-name="uni0163.ss01" horiz-adv-x="373" 
d="M224 -10q-11 0 -29 2l-33 -52h6q49 0 79 -22.5t30 -59.5q0 -39 -34 -63.5t-91 -24.5q-63 0 -98 27l20 40q24 -21 67 -21q30 0 47 11.5t17 30.5q0 18 -16.5 28.5t-43.5 10.5q-22 0 -41 -8l-15 25l54 96q-72 42 -72 137v543h102v-156h176v-84h-176v-282q0 -40 23 -65
t61 -25q54 0 100 18v-82q-54 -24 -133 -24z" />
    <glyph glyph-name="uni021B.ss01" horiz-adv-x="373" 
d="M257 78q54 0 100 18v-82q-54 -24 -133 -24q-69 0 -111 43t-42 114v543h102v-156h176v-84h-176v-282q0 -40 23 -65t61 -25zM99 -220l49 168h93l-64 -168h-78z" />
    <glyph glyph-name="u.ss01" horiz-adv-x="621" 
d="M311 -10q-109 0 -175.5 60t-66.5 158v326h102v-319q0 -62 38 -99.5t102 -37.5q63 0 101 37.5t38 99.5v319h102v-326q0 -98 -66 -158t-175 -60z" />
    <glyph glyph-name="uacute.ss01" horiz-adv-x="621" 
d="M247 619l133 155h121l-166 -155h-88zM311 -10q-109 0 -175.5 60t-66.5 158v326h102v-319q0 -62 38 -99.5t102 -37.5q63 0 101 37.5t38 99.5v319h102v-326q0 -98 -66 -158t-175 -60z" />
    <glyph glyph-name="ucircumflex.ss01" horiz-adv-x="621" 
d="M311 717l-84 -98h-96l130 155h100l130 -155h-96zM450 534h102v-326q0 -98 -66 -158t-175 -60t-175.5 60t-66.5 158v326h102v-319q0 -62 38 -99.5t102 -37.5q63 0 101 37.5t38 99.5v319z" />
    <glyph glyph-name="udieresis.ss01" horiz-adv-x="621" 
d="M200 645q-28 0 -46 18t-18 46t18 46t46 18q27 0 45 -18t18 -46t-18 -46t-45 -18zM423 645q-28 0 -46 18t-18 46t18 46t46 18q27 0 45 -18t18 -46t-18 -46t-45 -18zM311 -10q-109 0 -175.5 60t-66.5 158v326h102v-319q0 -62 38 -99.5t102 -37.5q63 0 101 37.5t38 99.5v319
h102v-326q0 -98 -66 -158t-175 -60z" />
    <glyph glyph-name="ugrave.ss01" horiz-adv-x="621" 
d="M286 619l-166 155h122l133 -155h-89zM311 -10q-109 0 -175.5 60t-66.5 158v326h102v-319q0 -62 38 -99.5t102 -37.5q63 0 101 37.5t38 99.5v319h102v-326q0 -98 -66 -158t-175 -60z" />
    <glyph glyph-name="uhungarumlaut.ss01" horiz-adv-x="621" 
d="M174 619l106 155h122l-139 -155h-89zM346 619l106 155h121l-139 -155h-88zM311 -10q-109 0 -175.5 60t-66.5 158v326h102v-319q0 -62 38 -99.5t102 -37.5q63 0 101 37.5t38 99.5v319h102v-326q0 -98 -66 -158t-175 -60z" />
    <glyph glyph-name="umacron.ss01" horiz-adv-x="621" 
d="M146 636v81h331v-81h-331zM311 -10q-109 0 -175.5 60t-66.5 158v326h102v-319q0 -62 38 -99.5t102 -37.5q63 0 101 37.5t38 99.5v319h102v-326q0 -98 -66 -158t-175 -60z" />
    <glyph glyph-name="uogonek.ss01" horiz-adv-x="621" 
d="M450 534h102v-326q0 -78 -43 -133t-118 -75q-101 -67 -101 -131q0 -17 11 -28t30 -11q30 0 53 21l10 -53q-36 -28 -86 -28q-42 0 -68 23t-26 60q0 70 86 137q-105 4 -168 63t-63 155v326h102v-319q0 -62 38 -99.5t102 -37.5q63 0 101 37.5t38 99.5v319z" />
    <glyph glyph-name="uring.ss01" horiz-adv-x="621" 
d="M311 584q-51 0 -82 29t-31 78q0 47 31 76.5t82 29.5t82 -29.5t31 -76.5q0 -49 -31 -78t-82 -29zM311 632q25 0 40 16.5t15 42.5t-15 41.5t-40 15.5t-40.5 -16t-15.5 -41q0 -26 15.5 -42.5t40.5 -16.5zM311 -10q-109 0 -175.5 60t-66.5 158v326h102v-319q0 -62 38 -99.5
t102 -37.5q63 0 101 37.5t38 99.5v319h102v-326q0 -98 -66 -158t-175 -60z" />
    <glyph glyph-name="y.ss01" horiz-adv-x="628" 
d="M451 534h102v-490q0 -124 -75.5 -199t-199.5 -75q-132 0 -214 69l22 81q80 -62 189 -62q80 0 128 52t48 137v27q-58 -84 -174 -84q-94 0 -151 57t-57 151v336h102v-319q0 -62 38.5 -99.5t101.5 -37.5t101.5 37.5t38.5 99.5v319z" />
    <glyph glyph-name="yacute.ss01" horiz-adv-x="628" 
d="M496 774l-166 -155h-88l133 155h121zM451 534h102v-490q0 -124 -75.5 -199t-199.5 -75q-132 0 -214 69l22 81q80 -62 189 -62q80 0 128 52t48 137v27q-58 -84 -174 -84q-94 0 -151 57t-57 151v336h102v-319q0 -62 38.5 -99.5t101.5 -37.5t101.5 37.5t38.5 99.5v319z" />
    <glyph glyph-name="ycircumflex.ss01" horiz-adv-x="628" 
d="M306 717l-84 -98h-96l130 155h100l130 -155h-96zM451 534h102v-490q0 -124 -75.5 -199t-199.5 -75q-132 0 -214 69l22 81q80 -62 189 -62q80 0 128 52t48 137v27q-58 -84 -174 -84q-94 0 -151 57t-57 151v336h102v-319q0 -62 38.5 -99.5t101.5 -37.5t101.5 37.5
t38.5 99.5v319z" />
    <glyph glyph-name="ydieresis.ss01" horiz-adv-x="628" 
d="M195 645q-28 0 -46 18t-18 46t18 46t46 18q27 0 45 -18t18 -46t-18 -46t-45 -18zM418 645q-28 0 -46 18t-18 46t18 46t46 18q27 0 45 -18t18 -46t-18 -46t-45 -18zM451 534h102v-490q0 -124 -75.5 -199t-199.5 -75q-132 0 -214 69l22 81q80 -62 189 -62q80 0 128 52
t48 137v27q-58 -84 -174 -84q-94 0 -151 57t-57 151v336h102v-319q0 -62 38.5 -99.5t101.5 -37.5t101.5 37.5t38.5 99.5v319z" />
    <glyph glyph-name="ygrave.ss01" horiz-adv-x="628" 
d="M370 619h-89l-166 155h122zM451 534h102v-490q0 -124 -75.5 -199t-199.5 -75q-132 0 -214 69l22 81q80 -62 189 -62q80 0 128 52t48 137v27q-58 -84 -174 -84q-94 0 -151 57t-57 151v336h102v-319q0 -62 38.5 -99.5t101.5 -37.5t101.5 37.5t38.5 99.5v319z" />
    <glyph glyph-name="a.ss02" horiz-adv-x="573" 
d="M69 534h428v-534h-99l-2 94q-27 -50 -75.5 -77t-105.5 -27q-81 0 -130.5 44t-49.5 116q0 75 61 120.5t161 45.5q69 0 138 -15v152h-326v81zM243 64q59 0 105 45.5t47 121.5q-65 14 -125 14q-58 0 -93.5 -25.5t-35.5 -66.5t27 -65t75 -24z" />
    <glyph glyph-name="aacute.ss02" horiz-adv-x="573" 
d="M476 774l-166 -155h-88l133 155h121zM69 534h428v-534h-99l-2 94q-27 -50 -75.5 -77t-105.5 -27q-81 0 -130.5 44t-49.5 116q0 75 61 120.5t161 45.5q69 0 138 -15v152h-326v81zM243 64q59 0 105 45.5t47 121.5q-65 14 -125 14q-58 0 -93.5 -25.5t-35.5 -66.5t27 -65
t75 -24z" />
    <glyph glyph-name="abreve.ss02" horiz-adv-x="573" 
d="M286 610q-77 0 -124 45t-47 119h80q0 -47 25 -75.5t66 -28.5t66 29t25 75h79q0 -74 -46.5 -119t-123.5 -45zM69 534h428v-534h-99l-2 94q-27 -50 -75.5 -77t-105.5 -27q-81 0 -130.5 44t-49.5 116q0 75 61 120.5t161 45.5q69 0 138 -15v152h-326v81zM243 64
q59 0 105 45.5t47 121.5q-65 14 -125 14q-58 0 -93.5 -25.5t-35.5 -66.5t27 -65t75 -24z" />
    <glyph glyph-name="acircumflex.ss02" horiz-adv-x="573" 
d="M286 717l-84 -98h-96l130 155h100l130 -155h-96zM69 534h428v-534h-99l-2 94q-27 -50 -75.5 -77t-105.5 -27q-81 0 -130.5 44t-49.5 116q0 75 61 120.5t161 45.5q69 0 138 -15v152h-326v81zM243 64q59 0 105 45.5t47 121.5q-65 14 -125 14q-58 0 -93.5 -25.5t-35.5 -66.5
t27 -65t75 -24z" />
    <glyph glyph-name="adieresis.ss02" horiz-adv-x="573" 
d="M175 645q-28 0 -46 18t-18 46t18 46t46 18q27 0 45 -18t18 -46t-18 -46t-45 -18zM398 645q-28 0 -46 18t-18 46t18 46t46 18q27 0 45 -18t18 -46t-18 -46t-45 -18zM69 534h428v-534h-99l-2 94q-27 -50 -75.5 -77t-105.5 -27q-81 0 -130.5 44t-49.5 116q0 75 61 120.5
t161 45.5q69 0 138 -15v152h-326v81zM243 64q59 0 105 45.5t47 121.5q-65 14 -125 14q-58 0 -93.5 -25.5t-35.5 -66.5t27 -65t75 -24z" />
    <glyph glyph-name="agrave.ss02" horiz-adv-x="573" 
d="M350 619h-89l-166 155h122zM69 534h428v-534h-99l-2 94q-27 -50 -75.5 -77t-105.5 -27q-81 0 -130.5 44t-49.5 116q0 75 61 120.5t161 45.5q69 0 138 -15v152h-326v81zM243 64q59 0 105 45.5t47 121.5q-65 14 -125 14q-58 0 -93.5 -25.5t-35.5 -66.5t27 -65t75 -24z" />
    <glyph glyph-name="amacron.ss02" horiz-adv-x="573" 
d="M452 717v-81h-331v81h331zM69 534h428v-534h-99l-2 94q-27 -50 -75.5 -77t-105.5 -27q-81 0 -130.5 44t-49.5 116q0 75 61 120.5t161 45.5q69 0 138 -15v152h-326v81zM243 64q59 0 105 45.5t47 121.5q-65 14 -125 14q-58 0 -93.5 -25.5t-35.5 -66.5t27 -65t75 -24z" />
    <glyph glyph-name="aogonek.ss02" horiz-adv-x="573" 
d="M490 -149l10 -53q-36 -28 -86 -28q-42 0 -68 23t-26 60q0 73 98 147h-20l-2 94q-27 -50 -75.5 -77t-105.5 -27q-81 0 -130.5 44t-49.5 116q0 75 61 120.5t161 45.5q69 0 138 -15v152h-326v81h428v-534q-101 -67 -101 -131q0 -17 11 -28t30 -11q30 0 53 21zM243 64
q59 0 105 45.5t47 121.5q-65 14 -125 14q-58 0 -93.5 -25.5t-35.5 -66.5t27 -65t75 -24z" />
    <glyph glyph-name="aring.ss02" horiz-adv-x="573" 
d="M286 584q-51 0 -82 29t-31 78q0 47 31 76.5t82 29.5t82 -29.5t31 -76.5q0 -49 -31 -78t-82 -29zM286 748q-25 0 -40.5 -16t-15.5 -41q0 -26 15.5 -42.5t40.5 -16.5t40 16.5t15 42.5t-15 41.5t-40 15.5zM69 534h428v-534h-99l-2 94q-27 -50 -75.5 -77t-105.5 -27
q-81 0 -130.5 44t-49.5 116q0 75 61 120.5t161 45.5q69 0 138 -15v152h-326v81zM243 64q59 0 105 45.5t47 121.5q-65 14 -125 14q-58 0 -93.5 -25.5t-35.5 -66.5t27 -65t75 -24z" />
    <glyph glyph-name="atilde.ss02" horiz-adv-x="573" 
d="M205 688q-21 0 -34.5 -15t-13.5 -40h-58q0 59 29 94.5t76 35.5q36 0 87.5 -32t73.5 -32q21 0 34.5 14.5t13.5 39.5h58q0 -60 -29 -95t-76 -35q-34 0 -86 32.5t-75 32.5zM69 534h428v-534h-99l-2 94q-27 -50 -75.5 -77t-105.5 -27q-81 0 -130.5 44t-49.5 116
q0 75 61 120.5t161 45.5q69 0 138 -15v152h-326v81zM243 64q59 0 105 45.5t47 121.5q-65 14 -125 14q-58 0 -93.5 -25.5t-35.5 -66.5t27 -65t75 -24z" />
    <glyph glyph-name="c.ss02" horiz-adv-x="484" 
d="M319 -10q-124 0 -200 76t-76 201t76 201t200 76q64 0 116 -34v-96q-44 42 -111 42q-79 0 -127 -52t-48 -137t48 -137t127 -52q70 0 114 44v-96q-49 -36 -119 -36z" />
    <glyph glyph-name="cacute.ss02" horiz-adv-x="484" 
d="M244 619l133 155h121l-166 -155h-88zM319 -10q-124 0 -200 76t-76 201t76 201t200 76q64 0 116 -34v-96q-44 42 -111 42q-79 0 -127 -52t-48 -137t48 -137t127 -52q70 0 114 44v-96q-49 -36 -119 -36z" />
    <glyph glyph-name="ccaron.ss02" horiz-adv-x="484" 
d="M258 619l-130 155h96l84 -98l84 98h96l-130 -155h-100zM149 267q0 -85 48 -137t127 -52q70 0 114 44v-96q-49 -36 -119 -36q-124 0 -200 76t-76 201t76 201t200 76q64 0 116 -34v-96q-44 42 -111 42q-79 0 -127 -52t-48 -137z" />
    <glyph glyph-name="ccedilla.ss02" horiz-adv-x="484" 
d="M438 26q-45 -33 -109 -36l-32 -50h6q49 0 78.5 -22.5t29.5 -59.5q0 -39 -34 -63.5t-91 -24.5q-62 0 -97 27l20 40q24 -21 67 -21q30 0 47 11.5t17 30.5q0 18 -16.5 28.5t-43.5 10.5q-21 0 -42 -8l-14 25l46 79q-104 15 -165.5 89t-61.5 185q0 125 76 201t200 76
q64 0 116 -34v-96q-44 42 -111 42q-79 0 -127 -52t-48 -137t48 -137t127 -52q70 0 114 44v-96z" />
    <glyph glyph-name="cdotaccent.ss02" horiz-adv-x="484" 
d="M308 645q-28 0 -46 18t-18 46t18 46t46 18q27 0 45 -18t18 -46t-18 -46t-45 -18zM319 -10q-124 0 -200 76t-76 201t76 201t200 76q64 0 116 -34v-96q-44 42 -111 42q-79 0 -127 -52t-48 -137t48 -137t127 -52q70 0 114 44v-96q-49 -36 -119 -36z" />
    <glyph glyph-name="f.ss02" horiz-adv-x="390" 
d="M385 696h-170v-162h162v-84h-162v-450h-102v450h-90v84h90v246h272v-84z" />
    <glyph glyph-name="g.ss02" horiz-adv-x="672" 
d="M499 534h99v-754h-529v84h427v232q-62 -106 -196 -106q-111 0 -183.5 77.5t-72.5 201.5q0 123 72.5 199t183.5 76q135 0 197 -108zM323 78q77 0 125 52t48 137t-48 137t-125 52q-78 0 -125.5 -51.5t-47.5 -136.5q0 -86 47.5 -138t125.5 -52z" />
    <glyph glyph-name="gbreve.ss02" horiz-adv-x="672" 
d="M333 610q-77 0 -124 45t-47 119h80q0 -47 25 -75.5t66 -28.5t66 29t25 75h79q0 -74 -46.5 -119t-123.5 -45zM499 534h99v-754h-529v84h427v232q-62 -106 -196 -106q-111 0 -183.5 77.5t-72.5 201.5q0 123 72.5 199t183.5 76q135 0 197 -108zM323 78q77 0 125 52t48 137
t-48 137t-125 52q-78 0 -125.5 -51.5t-47.5 -136.5q0 -86 47.5 -138t125.5 -52z" />
    <glyph glyph-name="gcommaaccent.ss02" horiz-adv-x="672" 
d="M420 780l-54 -187h-93l69 187h78zM499 534h99v-754h-529v84h427v232q-62 -106 -196 -106q-111 0 -183.5 77.5t-72.5 201.5q0 123 72.5 199t183.5 76q135 0 197 -108zM323 78q77 0 125 52t48 137t-48 137t-125 52q-78 0 -125.5 -51.5t-47.5 -136.5q0 -86 47.5 -138
t125.5 -52z" />
    <glyph glyph-name="gdotaccent.ss02" horiz-adv-x="672" 
d="M333 645q-28 0 -46 18t-18 46t18 46t46 18q27 0 45 -18t18 -46t-18 -46t-45 -18zM499 534h99v-754h-529v84h427v232q-62 -106 -196 -106q-111 0 -183.5 77.5t-72.5 201.5q0 123 72.5 199t183.5 76q135 0 197 -108zM323 78q77 0 125 52t48 137t-48 137t-125 52
q-78 0 -125.5 -51.5t-47.5 -136.5q0 -86 47.5 -138t125.5 -52z" />
    <glyph glyph-name="j.ss02" horiz-adv-x="255" 
d="M127 645q-27 0 -45.5 18t-18.5 46t18.5 46t45.5 18q28 0 46 -18t18 -46t-18 -46t-46 -18zM77 -220v754h102v-754h-102z" />
    <glyph glyph-name="l.ss02" horiz-adv-x="298" 
d="M78 0v780h102v-695h106v-85h-208z" />
    <glyph glyph-name="lacute.ss02" horiz-adv-x="298" 
d="M65 865l133 155h121l-166 -155h-88zM78 0v780h102v-695h106v-85h-208z" />
    <glyph glyph-name="lcaron.ss02" horiz-adv-x="309" 
d="M78 0v780h102v-695h106v-85h-208zM228 593l54 187h93l-69 -187h-78z" />
    <glyph glyph-name="lcommaaccent.ss02" horiz-adv-x="298" 
d="M78 0v780h102v-695h106v-85h-208zM86 -220l49 168h93l-64 -168h-78z" />
    <glyph glyph-name="lslash.ss02" horiz-adv-x="298" 
d="M180 85h106v-85h-208v323l-89 -63v84l89 62v374h102v-315l89 62v-84l-89 -62v-296z" />
    <glyph glyph-name="t.ss02" horiz-adv-x="371" 
d="M366 534v-84h-124v-450h-102v450h-123v84h123v156h102v-156h124z" />
    <glyph glyph-name="tbar.ss02" horiz-adv-x="373" 
d="M366 450h-124v-150h111v-75h-111v-225h-102v225h-109v75h109v150h-123v84h123v156h102v-156h124v-84z" />
    <glyph glyph-name="tcaron.ss02" horiz-adv-x="371" 
d="M368 780h93l-69 -187h-78zM242 690v-156h124v-84h-124v-450h-102v450h-123v84h123v156h102z" />
    <glyph glyph-name="uni0163.ss02" horiz-adv-x="371" 
d="M242 0h-20l-38 -60h7q49 0 79 -22.5t30 -59.5q0 -39 -34 -63.5t-91 -24.5q-63 0 -98 27l20 40q24 -21 67 -21q30 0 47 11.5t17 30.5q0 18 -16.5 28.5t-43.5 10.5q-22 0 -41 -8l-15 25l51 86h-23v450h-123v84h123v156h102v-156h124v-84h-124v-450z" />
    <glyph glyph-name="uni021B.ss02" horiz-adv-x="371" 
d="M366 534v-84h-124v-450h-102v450h-123v84h123v156h102v-156h124zM99 -220l49 168h93l-64 -168h-78z" />
    <glyph glyph-name="u.ss02" horiz-adv-x="621" 
d="M311 -10q-109 0 -175.5 60t-66.5 158v326h102v-319q0 -62 38 -99.5t102 -37.5q63 0 101 37.5t38 99.5v319h102v-326q0 -98 -66 -158t-175 -60z" />
    <glyph glyph-name="uacute.ss02" horiz-adv-x="621" 
d="M247 619l133 155h121l-166 -155h-88zM311 -10q-109 0 -175.5 60t-66.5 158v326h102v-319q0 -62 38 -99.5t102 -37.5q63 0 101 37.5t38 99.5v319h102v-326q0 -98 -66 -158t-175 -60z" />
    <glyph glyph-name="ucircumflex.ss02" horiz-adv-x="621" 
d="M311 717l-84 -98h-96l130 155h100l130 -155h-96zM450 534h102v-326q0 -98 -66 -158t-175 -60t-175.5 60t-66.5 158v326h102v-319q0 -62 38 -99.5t102 -37.5q63 0 101 37.5t38 99.5v319z" />
    <glyph glyph-name="udieresis.ss02" horiz-adv-x="621" 
d="M200 645q-28 0 -46 18t-18 46t18 46t46 18q27 0 45 -18t18 -46t-18 -46t-45 -18zM423 645q-28 0 -46 18t-18 46t18 46t46 18q27 0 45 -18t18 -46t-18 -46t-45 -18zM311 -10q-109 0 -175.5 60t-66.5 158v326h102v-319q0 -62 38 -99.5t102 -37.5q63 0 101 37.5t38 99.5v319
h102v-326q0 -98 -66 -158t-175 -60z" />
    <glyph glyph-name="ugrave.ss02" horiz-adv-x="621" 
d="M286 619l-166 155h122l133 -155h-89zM311 -10q-109 0 -175.5 60t-66.5 158v326h102v-319q0 -62 38 -99.5t102 -37.5q63 0 101 37.5t38 99.5v319h102v-326q0 -98 -66 -158t-175 -60z" />
    <glyph glyph-name="uhungarumlaut.ss02" horiz-adv-x="621" 
d="M174 619l106 155h122l-139 -155h-89zM346 619l106 155h121l-139 -155h-88zM311 -10q-109 0 -175.5 60t-66.5 158v326h102v-319q0 -62 38 -99.5t102 -37.5q63 0 101 37.5t38 99.5v319h102v-326q0 -98 -66 -158t-175 -60z" />
    <glyph glyph-name="umacron.ss02" horiz-adv-x="621" 
d="M146 636v81h331v-81h-331zM311 -10q-109 0 -175.5 60t-66.5 158v326h102v-319q0 -62 38 -99.5t102 -37.5q63 0 101 37.5t38 99.5v319h102v-326q0 -98 -66 -158t-175 -60z" />
    <glyph glyph-name="uogonek.ss02" horiz-adv-x="621" 
d="M450 534h102v-326q0 -78 -43 -133t-118 -75q-101 -67 -101 -131q0 -17 11 -28t30 -11q30 0 53 21l10 -53q-36 -28 -86 -28q-42 0 -68 23t-26 60q0 70 86 137q-105 4 -168 63t-63 155v326h102v-319q0 -62 38 -99.5t102 -37.5q63 0 101 37.5t38 99.5v319z" />
    <glyph glyph-name="uring.ss02" horiz-adv-x="621" 
d="M311 584q-51 0 -82 29t-31 78q0 47 31 76.5t82 29.5t82 -29.5t31 -76.5q0 -49 -31 -78t-82 -29zM311 632q25 0 40 16.5t15 42.5t-15 41.5t-40 15.5t-40.5 -16t-15.5 -41q0 -26 15.5 -42.5t40.5 -16.5zM311 -10q-109 0 -175.5 60t-66.5 158v326h102v-319q0 -62 38 -99.5
t102 -37.5q63 0 101 37.5t38 99.5v319h102v-326q0 -98 -66 -158t-175 -60z" />
    <glyph glyph-name="y.ss02" horiz-adv-x="628" 
d="M451 534h102v-754h-479v84h377v210q-58 -84 -174 -84q-94 0 -151 57t-57 151v336h102v-319q0 -62 38.5 -99.5t101.5 -37.5t101.5 37.5t38.5 99.5v319z" />
    <glyph glyph-name="yacute.ss02" horiz-adv-x="628" 
d="M501 774l-166 -155h-88l133 155h121zM451 534h102v-754h-479v84h377v210q-58 -84 -174 -84q-94 0 -151 57t-57 151v336h102v-319q0 -62 38.5 -99.5t101.5 -37.5t101.5 37.5t38.5 99.5v319z" />
    <glyph glyph-name="ycircumflex.ss02" horiz-adv-x="628" 
d="M311 717l-84 -98h-96l130 155h100l130 -155h-96zM451 534h102v-754h-479v84h377v210q-58 -84 -174 -84q-94 0 -151 57t-57 151v336h102v-319q0 -62 38.5 -99.5t101.5 -37.5t101.5 37.5t38.5 99.5v319z" />
    <glyph glyph-name="ydieresis.ss02" horiz-adv-x="628" 
d="M200 645q-28 0 -46 18t-18 46t18 46t46 18q27 0 45 -18t18 -46t-18 -46t-45 -18zM423 645q-28 0 -46 18t-18 46t18 46t46 18q27 0 45 -18t18 -46t-18 -46t-45 -18zM451 534h102v-754h-479v84h377v210q-58 -84 -174 -84q-94 0 -151 57t-57 151v336h102v-319
q0 -62 38.5 -99.5t101.5 -37.5t101.5 37.5t38.5 99.5v319z" />
    <glyph glyph-name="ygrave.ss02" horiz-adv-x="628" 
d="M375 619h-89l-166 155h122zM451 534h102v-754h-479v84h377v210q-58 -84 -174 -84q-94 0 -151 57t-57 151v336h102v-319q0 -62 38.5 -99.5t101.5 -37.5t101.5 37.5t38.5 99.5v319z" />
    <glyph glyph-name="z.ss02" horiz-adv-x="511" 
d="M32 0l284 450h-280v84h438l-284 -449h289v-85h-447z" />
    <glyph glyph-name="zacute.ss02" horiz-adv-x="511" 
d="M192 619l133 155h121l-166 -155h-88zM32 0l284 450h-280v84h438l-284 -449h289v-85h-447z" />
    <glyph glyph-name="zcaron.ss02" horiz-adv-x="511" 
d="M206 619l-130 155h96l84 -98l84 98h96l-130 -155h-100zM190 85h289v-85h-447l284 450h-280v84h438z" />
    <glyph glyph-name="zdotaccent.ss02" horiz-adv-x="511" 
d="M256 645q-28 0 -46 18t-18 46t18 46t46 18q27 0 45 -18t18 -46t-18 -46t-45 -18zM32 0l284 450h-280v84h438l-284 -449h289v-85h-447z" />
    <glyph glyph-name="fi.ss01" horiz-adv-x="609" 
d="M76 632q0 71 44.5 114.5t118.5 43.5q70 0 113 -21l-8 -80q-29 13 -74 13q-41 0 -66.5 -23.5t-25.5 -62.5v-82h162v-84h-162v-450h-102v632zM482 645q-28 0 -46 18t-18 46t18 46t46 18q27 0 45 -18t18 -46t-18 -46t-45 -18zM431 0v534h102v-534h-102z" />
    <glyph glyph-name="fl.ss01" horiz-adv-x="612" 
d="M76 632q0 71 44.5 114.5t118.5 43.5q70 0 113 -21l-8 -80q-29 13 -74 13q-41 0 -66.5 -23.5t-25.5 -62.5v-82h162v-84h-162v-450h-102v632zM432 780h102v-780h-102v780z" />
    <glyph glyph-name="fi.ss02" horiz-adv-x="645" 
d="M113 534v246h272v-84h-170v-162h162v-84h-162v-450h-102v450h-90v84h90zM518 645q-28 0 -46 18t-18 46t18 46t46 18q27 0 45 -18t18 -46t-18 -46t-45 -18zM467 0v534h102v-534h-102z" />
    <glyph glyph-name="fl.ss02" horiz-adv-x="688" 
d="M113 534v246h272v-84h-170v-162h162v-84h-162v-450h-102v450h-90v84h90zM570 85h106v-85h-208v780h102v-695z" />
    <glyph glyph-name="zero.lf" horiz-adv-x="700" 
d="M317 -10q-122 0 -196.5 104.5t-74.5 275.5t74.5 275.5t196.5 104.5t196.5 -104.5t74.5 -275.5t-74.5 -275.5t-196.5 -104.5zM317 78q73 0 116.5 80t43.5 212t-43.5 212t-116.5 80t-117 -80.5t-44 -211.5t44 -211.5t117 -80.5z" />
    <glyph glyph-name="one.lf" horiz-adv-x="429" 
d="M229 0v602l-166 -119l-54 77l245 180h81v-740h-106z" />
    <glyph glyph-name="two.lf" horiz-adv-x="577" 
d="M44 0v67l226 245q2 2 15.5 16.5t18.5 20t18 20.5t19 23t17.5 23t17 25t13.5 25t11.5 27t6.5 26.5t3 27.5q0 53 -33.5 84.5t-88.5 31.5q-58 0 -93 -36t-35 -94l-109 9q0 94 64.5 151.5t170.5 57.5q104 0 168 -53.5t64 -141.5q0 -41 -13 -79.5t-42 -79.5t-54 -69.5
t-69 -75.5l-156 -164l344 1v-88h-484z" />
    <glyph glyph-name="three.lf" horiz-adv-x="572" 
d="M291 437q106 0 170.5 -60t64.5 -157q0 -104 -73.5 -167t-196.5 -63q-69 0 -127.5 20.5t-92.5 58.5l41 78q58 -69 167 -69q78 0 125 39t47 102q0 62 -45 99t-119 37q-60 0 -108 -24l-28 54l238 267h-287v88h427v-67l-222 -237q6 1 19 1z" />
    <glyph glyph-name="four.lf" horiz-adv-x="625" 
d="M377 0v152h-355v75l377 513h84v-500h108v-88h-108v-152h-106zM146 238h234l2 322z" />
    <glyph glyph-name="five.lf" horiz-adv-x="580" 
d="M250 -10q-140 0 -218 67l31 78q66 -57 177 -57q82 0 132.5 42t50.5 110q0 62 -39.5 100t-104.5 38q-70 0 -124 -32l-72 10l51 394h364v-88h-272l-31 -209q53 14 103 14q105 0 170.5 -60.5t65.5 -159.5q0 -111 -79 -179t-205 -68z" />
    <glyph glyph-name="six.lf" horiz-adv-x="575" 
d="M313 450q98 0 162.5 -62.5t64.5 -163.5q0 -105 -68 -169.5t-180 -64.5t-180.5 64t-68.5 168q0 100 67 195l223 323h120l-214 -298q34 8 74 8zM291 78q62 0 100.5 40t38.5 105t-38.5 105t-100.5 40t-100 -40t-38 -105t38 -105t100 -40z" />
    <glyph glyph-name="seven.lf" horiz-adv-x="523" 
d="M22 740h484l-257 -740h-114l233 652h-346v88z" />
    <glyph glyph-name="eight.lf" horiz-adv-x="604" 
d="M423 385q61 -24 94.5 -71.5t33.5 -111.5q0 -95 -68.5 -153.5t-180.5 -58.5t-180.5 58t-68.5 152q0 64 33.5 112t94.5 72q-51 24 -79.5 67.5t-28.5 99.5q0 89 63 144t166 55t166 -54.5t63 -143.5q0 -56 -28.5 -99.5t-79.5 -67.5zM302 662q-53 0 -86 -32.5t-33 -85.5
q0 -52 33 -84.5t86 -32.5t85.5 32t32.5 85t-32.5 85.5t-85.5 32.5zM302 78q62 0 100 35.5t38 94.5t-38 95t-100 36t-100.5 -36t-38.5 -95q0 -58 38.5 -94t100.5 -36z" />
    <glyph glyph-name="nine.lf" horiz-adv-x="575" 
d="M282 750q112 0 180.5 -64t68.5 -168q0 -100 -67 -195l-223 -323h-120l214 298q-34 -8 -74 -8q-98 0 -162.5 62.5t-64.5 163.5q0 105 68 169.5t180 64.5zM144 517q0 -65 38.5 -105t100.5 -40t100 40t38 105t-38 105t-100 40t-100.5 -40t-38.5 -105z" />
    <glyph glyph-name="zero.osf" horiz-adv-x="676" 
d="M339 -10q-132 0 -212.5 90t-80.5 237t80.5 237t212.5 90q131 0 211 -90t80 -237t-80 -237t-211 -90zM339 78q81 0 131.5 66t50.5 173t-50.5 173t-131.5 66q-83 0 -133.5 -66t-50.5 -173t50.5 -173t133.5 -66z" />
    <glyph glyph-name="one.osf" horiz-adv-x="387" 
d="M192 0v498l-123 -88l-53 75l201 149h77v-634h-102z" />
    <glyph glyph-name="two.osf" horiz-adv-x="588" 
d="M51 0v67l255 206q115 89 115 167q0 52 -34.5 84t-91.5 32q-60 0 -96.5 -36t-36.5 -95l-104 10q0 94 64.5 151.5t169.5 57.5t169 -54t64 -142q0 -42 -13 -78t-41.5 -68.5t-51 -52t-62.5 -50.5l-150 -114h327v-85h-483z" />
    <glyph glyph-name="three.osf" horiz-adv-x="579" 
d="M297 334q104 0 167.5 -59.5t63.5 -155.5q0 -104 -72 -166.5t-194 -62.5q-70 0 -128 20.5t-91 58.5l41 78q57 -69 167 -69q78 0 124.5 38.5t46.5 101.5q0 61 -45.5 98t-119.5 37q-61 0 -107 -26l-28 54l243 269h-292v84h428v-67l-222 -234q6 1 18 1z" />
    <glyph glyph-name="four.osf" horiz-adv-x="625" 
d="M385 -110v110h-360v68l381 566h81v-549h107v-85h-107v-110h-102zM150 82h237l2 355z" />
    <glyph glyph-name="five.osf" horiz-adv-x="580" 
d="M249 -110q-142 0 -218 67l31 78q66 -57 177 -57q83 0 133 41.5t50 109.5q0 61 -39.5 98.5t-104.5 37.5q-70 0 -124 -32l-72 10l51 391h364v-84h-273l-34 -212q46 15 108 15q102 0 166.5 -60t64.5 -158q0 -110 -78 -177.5t-202 -67.5z" />
    <glyph glyph-name="six.osf" horiz-adv-x="568" 
d="M309 450q101 0 162 -62t61 -164q0 -105 -67 -169.5t-177 -64.5t-177.5 64t-67.5 168q0 95 63 187l230 331h115l-215 -299q35 9 73 9zM287 78q63 0 101 40t38 105t-38 105t-101 40q-62 0 -100 -40t-38 -105t38 -105t100 -40z" />
    <glyph glyph-name="seven.osf" horiz-adv-x="548" 
d="M35 634h484l-257 -741l-98 26l218 631h-347v84z" />
    <glyph glyph-name="eight.osf" horiz-adv-x="595" 
d="M417 385q59 -24 92 -71.5t33 -111.5q0 -95 -67 -153.5t-177 -58.5t-177.5 58t-67.5 152q0 64 33 112t93 72q-50 24 -78 67.5t-28 99.5q0 89 62 144t163 55t162.5 -54.5t61.5 -143.5q0 -57 -27.5 -100.5t-77.5 -66.5zM297 662q-53 0 -85.5 -32.5t-32.5 -85.5t32.5 -85
t85.5 -32t86 32.5t33 84.5q0 53 -33 85.5t-86 32.5zM297 78q62 0 100.5 36t38.5 94q0 59 -38.5 95t-100.5 36t-100 -36t-38 -95t38 -94.5t100 -35.5z" />
    <glyph glyph-name="nine.osf" horiz-adv-x="566" 
d="M279 644q110 0 177 -64t67 -168q0 -98 -62 -187l-231 -332l-97 26l197 274q-34 -9 -72 -9q-101 0 -162.5 62t-61.5 164q0 105 67.5 169.5t177.5 64.5zM140 411q0 -65 38 -105.5t101 -40.5q62 0 100 40.5t38 105.5t-38 104.5t-100 39.5q-63 0 -101 -39.5t-38 -104.5z" />
    <glyph glyph-name="one.ss02" horiz-adv-x="350" 
d="M150 0v652h-126v88h233v-740h-107z" />
    <glyph glyph-name="one.lf.ss02" horiz-adv-x="350" 
d="M150 0v652h-126v88h233v-740h-107z" />
    <glyph glyph-name="one.osf.ss02" horiz-adv-x="352" 
d="M157 0v550h-118v84h220v-634h-102z" />
    <glyph glyph-name="one.tf.ss02" 
d="M401 88h143v-88h-464v88h215v564h-156v88h262v-652z" />
    <glyph glyph-name="one.tosf.ss02" 
d="M395 85h153v-85h-464v85h209v465h-148v84h250v-549z" />
    <glyph glyph-name="zero.tf" 
d="M308 -10q-111 0 -179.5 104.5t-68.5 275.5t68.5 275.5t179.5 104.5t179 -104.5t68 -275.5t-68 -275.5t-179 -104.5zM308 78q62 0 99.5 80.5t37.5 211.5t-37.5 211.5t-99.5 80.5t-100 -80.5t-38 -211.5t38 -211.5t100 -80.5z" />
    <glyph glyph-name="one.tf" 
d="M412 88h143v-88h-464v88h215v514l-166 -119l-54 77l245 180h81v-652z" />
    <glyph glyph-name="two.tf" 
d="M63 0v67l226 245q2 2 15.5 16.5t18.5 20t18 20.5t19 23t17.5 23t17 25t13.5 25t11.5 27t6.5 26.5t3 27.5q0 53 -33.5 84.5t-88.5 31.5q-58 0 -93 -36t-35 -94l-109 9q0 94 64.5 151.5t169.5 57.5t169 -53.5t64 -141.5q0 -41 -13 -79.5t-42 -79.5t-54 -69.5t-69 -75.5
l-156 -164l343 1v-88h-483z" />
    <glyph glyph-name="three.tf" 
d="M312 437q106 0 170.5 -60t64.5 -157q0 -104 -73.5 -167t-196.5 -63q-150 0 -220 79l41 78q58 -69 167 -69q78 0 125 39t47 102q0 62 -45 99t-120 37q-59 0 -107 -24l-28 54l238 267h-287v88h428v-67l-223 -237q6 1 19 1z" />
    <glyph glyph-name="four.tf" 
d="M363 0v152h-338v75l360 513h85v-500h107v-88h-107v-152h-107zM146 238h221l1 321z" />
    <glyph glyph-name="five.tf" 
d="M267 -10q-140 0 -218 67l32 78q64 -57 176 -57q83 0 133.5 42t50.5 110q0 62 -39.5 100t-104.5 38q-71 0 -125 -32l-71 10l51 394h364v-88h-272l-31 -209q53 14 103 14q105 0 170 -60.5t65 -159.5q0 -111 -79 -179t-205 -68z" />
    <glyph glyph-name="six.tf" 
d="M333 450q98 0 163 -62.5t65 -163.5q0 -105 -68.5 -169.5t-180.5 -64.5t-180.5 64t-68.5 168q0 100 67 195l224 323h120l-215 -298q35 8 74 8zM311 78q63 0 101 40t38 105t-38 105t-101 40q-62 0 -100 -40t-38 -105t38 -105t100 -40z" />
    <glyph glyph-name="seven.tf" 
d="M68 740h484l-258 -740h-113l233 652h-346v88z" />
    <glyph glyph-name="eight.tf" 
d="M428 385q61 -24 94.5 -71.5t33.5 -111.5q0 -95 -68.5 -153.5t-180.5 -58.5t-180.5 58t-68.5 152q0 64 33.5 112t94.5 72q-51 24 -79.5 67.5t-28.5 99.5q0 89 63 144t166 55t166 -54.5t63 -143.5q0 -57 -28.5 -100.5t-79.5 -66.5zM307 662q-53 0 -85.5 -32.5t-32.5 -85.5
t32.5 -85t85.5 -32t86 32.5t33 84.5q0 53 -33 85.5t-86 32.5zM307 78q62 0 100.5 36t38.5 94q0 59 -38.5 95t-100.5 36t-100 -36t-38 -95t38 -94.5t100 -35.5z" />
    <glyph glyph-name="nine.tf" 
d="M302 750q112 0 180.5 -64t68.5 -168q0 -100 -67 -195l-223 -323h-120l214 298q-34 -8 -74 -8q-98 0 -162.5 62.5t-64.5 163.5q0 105 68 169.5t180 64.5zM164 517q0 -65 38.5 -105t100.5 -40t100 40t38 105t-38 105t-100 40t-100.5 -40t-38.5 -105z" />
    <glyph glyph-name="zero.tosf" 
d="M308 -10q-111 0 -179 90t-68 237t68 237t179 90q110 0 178 -90t68 -237t-68 -237t-178 -90zM308 78q61 0 99 66t38 173t-38 173t-99 66q-62 0 -100 -66t-38 -173t38 -173t100 -66z" />
    <glyph glyph-name="one.tosf" 
d="M385 85h166v-85h-464v85h196v413l-123 -88l-53 75l200 149h78v-549z" />
    <glyph glyph-name="two.tosf" 
d="M64 0v67l255 206q115 89 115 167q0 52 -34.5 84t-91.5 32q-60 0 -96.5 -36t-36.5 -95l-104 10q0 94 64.5 151.5t170.5 57.5q104 0 168 -54t64 -142q0 -42 -13 -78t-41.5 -68.5t-51 -52t-62.5 -50.5l-149 -114h326v-85h-483z" />
    <glyph glyph-name="three.tosf" 
d="M315 334q104 0 167.5 -59.5t63.5 -155.5q0 -104 -72.5 -166.5t-193.5 -62.5q-150 0 -220 79l41 78q57 -69 167 -69q78 0 125 38.5t47 101.5q0 61 -45.5 98t-119.5 37q-61 0 -107 -26l-28 54l243 269h-292v84h428v-67l-222 -233h18z" />
    <glyph glyph-name="four.tosf" 
d="M371 -110v110h-343v68l364 566h81v-549h108v-85h-108v-110h-102zM144 82h230l1 357z" />
    <glyph glyph-name="five.tosf" 
d="M266 -110q-143 0 -217 67l31 78q64 -57 177 -57q83 0 133 41.5t50 109.5q0 61 -39.5 98.5t-104.5 37.5q-71 0 -125 -32l-71 10l51 391h364v-84h-273l-34 -212q47 15 107 15q103 0 167 -60t64 -158q0 -110 -78 -177.5t-202 -67.5z" />
    <glyph glyph-name="six.tosf" 
d="M333 450q101 0 162 -62t61 -164q0 -105 -67.5 -169.5t-176.5 -64.5q-110 0 -177.5 64t-67.5 168q0 95 63 187l229 331h116l-215 -299q35 9 73 9zM311 78q62 0 100.5 40t38.5 105t-38.5 105t-100.5 40t-100 -40t-38 -105t38 -105t100 -40z" />
    <glyph glyph-name="seven.tosf" 
d="M69 634h484l-257 -741l-99 26l218 631h-346v84z" />
    <glyph glyph-name="eight.tosf" 
d="M426 385q60 -24 93 -71.5t33 -111.5q0 -95 -67.5 -153.5t-177.5 -58.5t-177 58t-67 152q0 64 33 112t93 72q-50 24 -78 67.5t-28 99.5q0 89 62 144t162 55q101 0 163 -54.5t62 -143.5q0 -56 -28 -100t-78 -67zM307 662q-53 0 -85.5 -32.5t-32.5 -85.5t32.5 -85t85.5 -32
t86 32.5t33 84.5q0 53 -33 85.5t-86 32.5zM307 78q62 0 100.5 36t38.5 94q0 59 -38.5 95t-100.5 36t-100 -36t-38 -95t38 -94.5t100 -35.5z" />
    <glyph glyph-name="nine.tosf" 
d="M304 644q110 0 177 -64t67 -168q0 -99 -63 -187l-231 -332l-96 26l197 274q-35 -9 -72 -9q-101 0 -162.5 62t-61.5 164q0 105 67.5 169.5t177.5 64.5zM165 411q0 -65 38 -105.5t100 -40.5t100.5 40.5t38.5 105.5t-38.5 104.5t-100.5 39.5t-100 -39.5t-38 -104.5z" />
    <glyph glyph-name="zero.dnom" horiz-adv-x="390" 
d="M196 -6q-74 0 -119.5 62.5t-45.5 165.5t45.5 165.5t119.5 62.5q73 0 118 -62.5t45 -165.5t-45 -165.5t-118 -62.5zM196 51q42 0 68 47.5t26 123.5q0 77 -26 124t-68 47t-68 -47t-26 -124q0 -76 26 -123.5t68 -47.5z" />
    <glyph glyph-name="one.dnom" horiz-adv-x="268" 
d="M139 0v356l-97 -70l-34 49l147 109h53v-444h-69z" />
    <glyph glyph-name="two.dnom" horiz-adv-x="359" 
d="M31 0v44l136 147q2 2 13 14t16 17.5t15 18t15 21t11.5 20.5t9 23t2.5 22q0 31 -19 48.5t-51 17.5q-33 0 -53 -20.5t-20 -54.5l-70 6q0 57 39 91.5t103 34.5q63 0 101.5 -32.5t38.5 -85.5q0 -45 -26.5 -85.5t-78.5 -94.5l-91 -96l202 1v-57h-293z" />
    <glyph glyph-name="three.dnom" horiz-adv-x="354" 
d="M180 264q64 0 102.5 -36t38.5 -95q0 -63 -44 -101t-119 -38q-89 0 -133 46l26 51q35 -40 99 -40q46 0 73 22.5t27 59.5q0 35 -26 56.5t-69 21.5q-36 0 -63 -15l-20 35l139 156h-167v57h258v-43l-129 -137h7z" />
    <glyph glyph-name="four.dnom" horiz-adv-x="386" 
d="M228 0v90h-212v48l226 306h55v-296h63v-58h-63v-90h-69zM92 145h138v188z" />
    <glyph glyph-name="five.dnom" horiz-adv-x="358" 
d="M153 -6q-85 0 -131 40l21 51q38 -34 104 -34q49 0 78.5 24.5t29.5 64.5q0 35 -23 57t-60 22q-38 0 -73 -20l-46 7l31 238h220v-57h-161l-17 -119q27 8 58 8q63 0 102.5 -36.5t39.5 -95.5q0 -67 -48 -108.5t-125 -41.5z" />
    <glyph glyph-name="six.dnom" horiz-adv-x="356" 
d="M195 271q58 0 97 -38t39 -99q0 -63 -41.5 -101.5t-108.5 -38.5q-68 0 -110 38t-42 102q0 58 43 120l132 190h77l-128 -177q16 4 42 4zM181 51q35 0 57 23t22 60q0 38 -22 61t-57 23q-36 0 -58 -23t-22 -61q0 -37 22 -60t58 -23z" />
    <glyph glyph-name="seven.dnom" horiz-adv-x="320" 
d="M16 444h293l-153 -444h-73l136 387h-203v57z" />
    <glyph glyph-name="eight.dnom" horiz-adv-x="375" 
d="M263 231q76 -31 76 -109q0 -58 -41.5 -93t-109.5 -35t-109.5 35t-41.5 91q0 80 76 110q-64 30 -64 100q0 54 38 87t101 33q62 0 100.5 -33t38.5 -86q0 -70 -64 -100zM188 393q-31 0 -49.5 -18.5t-18.5 -49.5q0 -30 18.5 -48t49.5 -18q30 0 49 18t19 48q0 31 -19 49.5
t-49 18.5zM188 51q35 0 57.5 20.5t22.5 54.5t-22.5 55t-57.5 21q-36 0 -58 -21t-22 -55t22 -54.5t58 -20.5z" />
    <glyph glyph-name="nine.dnom" horiz-adv-x="356" 
d="M175 450q68 0 110 -38t42 -102q0 -58 -43 -120l-132 -190h-77l128 177q-16 -4 -42 -4q-58 0 -97 38t-39 99q0 63 41.5 101.5t108.5 38.5zM96 310q0 -38 22 -61t57 -23q36 0 58 23t22 61q0 37 -22 60t-58 23q-35 0 -57 -23t-22 -60z" />
    <glyph glyph-name="zero.numr" horiz-adv-x="390" 
d="M196 290q-74 0 -119.5 62.5t-45.5 165.5t45.5 165.5t119.5 62.5q73 0 118 -62.5t45 -165.5t-45 -165.5t-118 -62.5zM196 347q42 0 68 47.5t26 123.5q0 77 -26 124t-68 47t-68 -47t-26 -124q0 -76 26 -123.5t68 -47.5z" />
    <glyph glyph-name="one.numr" horiz-adv-x="268" 
d="M139 296v356l-97 -70l-34 49l147 109h53v-444h-69z" />
    <glyph glyph-name="two.numr" horiz-adv-x="359" 
d="M31 296v44l136 147q2 2 13 14t16 17.5t15 18t15 21t11.5 20.5t9 23t2.5 22q0 31 -19 48.5t-51 17.5q-33 0 -53 -20.5t-20 -54.5l-70 6q0 57 39 91.5t103 34.5q63 0 101.5 -32.5t38.5 -85.5q0 -45 -26.5 -85.5t-78.5 -94.5l-91 -96l202 1v-57h-293z" />
    <glyph glyph-name="three.numr" horiz-adv-x="354" 
d="M180 560q64 0 102.5 -36t38.5 -95q0 -63 -44 -101t-119 -38q-89 0 -133 46l26 51q35 -40 99 -40q46 0 73 22.5t27 59.5q0 35 -26 56.5t-69 21.5q-36 0 -63 -15l-20 35l139 156h-167v57h258v-43l-129 -137h7z" />
    <glyph glyph-name="four.numr" horiz-adv-x="386" 
d="M228 296v90h-212v48l226 306h55v-296h63v-58h-63v-90h-69zM92 441h138v188z" />
    <glyph glyph-name="five.numr" horiz-adv-x="358" 
d="M153 290q-85 0 -131 40l21 51q38 -34 104 -34q49 0 78.5 24.5t29.5 64.5q0 35 -23 57t-60 22q-38 0 -73 -20l-46 7l31 238h220v-57h-161l-17 -119q27 8 58 8q63 0 102.5 -36.5t39.5 -95.5q0 -67 -48 -108.5t-125 -41.5z" />
    <glyph glyph-name="six.numr" horiz-adv-x="356" 
d="M195 567q58 0 97 -38t39 -99q0 -63 -41.5 -101.5t-108.5 -38.5q-68 0 -110 38t-42 102q0 58 43 120l132 190h77l-128 -177q16 4 42 4zM181 347q35 0 57 23t22 60q0 38 -22 61t-57 23q-36 0 -58 -23t-22 -61q0 -37 22 -60t58 -23z" />
    <glyph glyph-name="seven.numr" horiz-adv-x="320" 
d="M16 740h293l-153 -444h-73l136 387h-203v57z" />
    <glyph glyph-name="eight.numr" horiz-adv-x="375" 
d="M263 527q76 -31 76 -109q0 -58 -41.5 -93t-109.5 -35t-109.5 35t-41.5 91q0 80 76 110q-64 30 -64 100q0 54 38 87t101 33q62 0 100.5 -33t38.5 -86q0 -70 -64 -100zM188 689q-31 0 -49.5 -18.5t-18.5 -49.5q0 -30 18.5 -48t49.5 -18q30 0 49 18t19 48q0 31 -19 49.5
t-49 18.5zM188 347q35 0 57.5 20.5t22.5 54.5t-22.5 55t-57.5 21q-36 0 -58 -21t-22 -55t22 -54.5t58 -20.5z" />
    <glyph glyph-name="nine.numr" horiz-adv-x="356" 
d="M175 746q68 0 110 -38t42 -102q0 -58 -43 -120l-132 -190h-77l128 177q-16 -4 -42 -4q-58 0 -97 38t-39 99q0 63 41.5 101.5t108.5 38.5zM96 606q0 -38 22 -61t57 -23q36 0 58 23t22 61q0 37 -22 60t-58 23q-35 0 -57 -23t-22 -60z" />
    <glyph glyph-name="uni2081.ss02" horiz-adv-x="224" 
d="M94 -100v387h-74v57h143v-444h-69z" />
    <glyph glyph-name="one.dnom.ss02" horiz-adv-x="224" 
d="M94 0v387h-74v57h143v-444h-69z" />
    <glyph glyph-name="one.numr.ss02" horiz-adv-x="224" 
d="M94 296v387h-74v57h143v-444h-69z" />
    <glyph glyph-name="uni00B9.ss02" horiz-adv-x="224" 
d="M94 396v387h-74v57h143v-444h-69z" />
    <glyph glyph-name="onehalf.ss02" horiz-adv-x="792" 
d="M144 -10l-56 35l425 725l56 -34zM94 296v387h-74v57h143v-444h-69zM464 0v44l136 147q2 2 13 14t16 17.5t15 18t15 21t11.5 20.5t9 23t2.5 22q0 31 -19 48.5t-51 17.5q-33 0 -53 -20.5t-20 -54.5l-70 6q0 57 39 91.5t103 34.5q63 0 101.5 -32.5t38.5 -85.5
q0 -45 -26.5 -85.5t-78.5 -94.5l-91 -96l202 1v-57h-293z" />
    <glyph glyph-name="onequarter.ss02" horiz-adv-x="781" 
d="M144 -10l-56 35l425 725l56 -34zM94 296v387h-74v57h143v-444h-69zM623 0v90h-212v48l226 306h55v-296h63v-58h-63v-90h-69zM487 145h138v188z" />
    <glyph glyph-name="oneeighth.ss02" horiz-adv-x="808" 
d="M513 750l56 -34l-425 -726l-56 35zM94 296v387h-74v57h143v-444h-69zM696 231q76 -31 76 -109q0 -58 -41.5 -93t-109.5 -35t-109.5 35t-41.5 91q0 80 76 110q-64 30 -64 100q0 54 38 87t101 33q62 0 100.5 -33t38.5 -86q0 -70 -64 -100zM621 393q-31 0 -49.5 -18.5
t-18.5 -49.5q0 -30 18.5 -48t49.5 -18q30 0 49 18t19 48q0 31 -19 49.5t-49 18.5zM621 51q35 0 57.5 20.5t22.5 54.5t-22.5 55t-57.5 21q-36 0 -58 -21t-22 -55t22 -54.5t58 -20.5z" />
    <glyph glyph-name="exclamdown.case" horiz-adv-x="284" 
d="M142 750q28 0 46 -18t18 -46t-18 -45.5t-46 -17.5t-46 17.5t-18 45.5t18 46t46 18zM98 551h88l10 -551h-108z" />
    <glyph glyph-name="questiondown.case" horiz-adv-x="533" 
d="M275 750q28 0 46 -18t18 -46t-18 -45.5t-46 -17.5t-45.5 17.5t-17.5 45.5t17.5 46t45.5 18zM319 551q0 -73 -19 -128t-38.5 -77.5t-52.5 -51.5q-21 -18 -32 -29.5t-20.5 -31t-9.5 -43.5q0 -50 34.5 -81t91.5 -31q55 0 90 31t38 81l100 -5q-5 -88 -67.5 -141.5
t-160.5 -53.5q-106 0 -171 53.5t-65 139.5q0 38 14.5 69t29.5 47t45 41q26 22 39 35.5t31.5 39.5t26.5 59.5t8 76.5h88z" />
    <glyph glyph-name="slash.case" horiz-adv-x="390" 
d="M43 0l201 740h103l-201 -740h-103z" />
    <glyph glyph-name="braceleft.case" horiz-adv-x="423" 
d="M276 -50q-68 0 -109.5 41.5t-41.5 110.5v125q0 45 -22 72t-57 27h-7v88h7q35 0 57 27.5t22 71.5v126q0 68 41.5 109.5t109.5 41.5q58 0 106 -12v-84q-35 8 -71 8t-58 -25.5t-22 -67.5v-108q0 -50 -22 -85.5t-59 -45.5q37 -10 59 -45.5t22 -85.5v-108q0 -42 22 -67.5
t58 -25.5t71 8v-84q-48 -12 -106 -12z" />
    <glyph glyph-name="braceright.case" horiz-adv-x="423" 
d="M148 -50q-58 0 -107 12v84q37 -8 71 -8q36 0 58 25.5t22 67.5v108q0 49 22.5 85t58.5 46q-36 10 -58.5 46t-22.5 85v108q0 42 -22 67.5t-58 25.5q-34 0 -71 -8v84q50 12 107 12q68 0 109 -41.5t41 -109.5v-126q0 -44 22 -71.5t57 -27.5h8v-88h-8q-35 0 -57 -27t-22 -72
v-125q0 -69 -41 -110.5t-109 -41.5z" />
    <glyph glyph-name="bracketleft.case" horiz-adv-x="391" 
d="M94 -40v820h256v-88h-151v-644h151v-88h-256z" />
    <glyph glyph-name="bracketright.case" horiz-adv-x="391" 
d="M297 -40h-256v88h151v644h-151v88h256v-820z" />
    <glyph glyph-name="parenleft.case" horiz-adv-x="327" 
d="M200 -40q-148 195 -148 410t148 410h95q-49 -69 -92.5 -181.5t-43.5 -228.5t43.5 -228.5t92.5 -181.5h-95z" />
    <glyph glyph-name="parenright.case" horiz-adv-x="327" 
d="M32 -40q49 69 92.5 181.5t43.5 228.5t-43.5 228.5t-92.5 181.5h95q148 -195 148 -410t-148 -410h-95z" />
    <glyph glyph-name="logo" horiz-adv-x="1274" 
d="M76 -10q-17 0 -17 18q0 10 5 15l342 341h-324q-23 0 -23 19q0 7 7 16l340 342h-327q-20 0 -20 19v1q0 19 20 19h370q23 0 23 -20q0 -10 -8 -17l-341 -340h330q8 0 14 -6t6 -14v-327l339 338q7 8 17 8q18 0 18 -22v-324l340 338q6 8 16 8q7 0 12 -5.5t5 -13.5q0 -9 -6 -14
l-368 -372q-7 -7 -17 -7q-20 0 -20 23v324l-339 -340q-7 -7 -17 -7q-20 0 -20 23v324l-340 -340q-7 -7 -17 -7z" />
    </font>
</defs>
</svg>
