<?xml version="1.0" standalone="no"?>
<!DOCTYPE svg PUBLIC "-//W3C//DTD SVG 1.1//EN" "http://www.w3.org/Graphics/SVG/1.1/DTD/svg11.dtd" >
<svg xmlns="http://www.w3.org/2000/svg" xmlns:xlink="http://www.w3.org/1999/xlink" version="1.1">
<metadata>
Created by FontForge 20170731 at Fri Oct 21 20:40:16 2016
 By Aleksey,,,
Copyright (c) 2016 by Alberto Romanos. All rights reserved.
</metadata>
<defs>
<font id="BwModelica-Bold" horiz-adv-x="615" >
  <font-face 
    font-family="Bw Modelica"
    font-weight="700"
    font-stretch="normal"
    units-per-em="1000"
    panose-1="0 0 8 0 0 0 0 0 0 0"
    ascent="780"
    descent="-220"
    x-height="539"
    cap-height="740"
    bbox="-875 -230 1252 1020"
    underline-thickness="50"
    underline-position="-200"
    unicode-range="U+000D-FB02"
  />
<missing-glyph horiz-adv-x="1274" 
d="M89 -10q-17 0 -17 18q0 10 5 15l342 341h-324q-23 0 -23 19q0 7 7 16l340 342h-327q-20 0 -20 19v1q0 19 20 19h370q23 0 23 -20q0 -10 -8 -17l-341 -340h330q8 0 14 -6t6 -14v-327l339 338q7 8 17 8q18 0 18 -22v-324l340 338q6 8 16 8q7 0 12 -5.5t5 -13.5q0 -9 -6 -14
l-368 -372q-7 -7 -17 -7q-20 0 -20 23v324l-339 -340q-7 -7 -17 -7q-20 0 -20 23v324l-340 -340q-7 -7 -17 -7z" />
    <glyph glyph-name="fi" unicode="fi" horiz-adv-x="681" 
d="M113 620q0 77 48 123.5t126 46.5q72 0 119 -22l-9 -106q-26 11 -66 11q-37 0 -59.5 -20t-22.5 -54v-60h142v-111h-142v-428h-136v428h-87v111h87v81zM544 627q-35 0 -58 22.5t-23 57.5t23 58t58 23t57.5 -23t22.5 -58t-22.5 -57.5t-57.5 -22.5zM476 0v539h136v-539h-136z
" />
    <glyph glyph-name="fl" unicode="fl" horiz-adv-x="682" 
d="M113 620q0 77 48 123.5t126 46.5q72 0 119 -22l-9 -106q-26 11 -66 11q-37 0 -59.5 -20t-22.5 -54v-60h142v-111h-142v-428h-136v428h-87v111h87v81zM476 780h136v-780h-136v780z" />
    <glyph glyph-name=".notdef" horiz-adv-x="1274" 
d="M89 -10q-17 0 -17 18q0 10 5 15l342 341h-324q-23 0 -23 19q0 7 7 16l340 342h-327q-20 0 -20 19v1q0 19 20 19h370q23 0 23 -20q0 -10 -8 -17l-341 -340h330q8 0 14 -6t6 -14v-327l339 338q7 8 17 8q18 0 18 -22v-324l340 338q6 8 16 8q7 0 12 -5.5t5 -13.5q0 -9 -6 -14
l-368 -372q-7 -7 -17 -7q-20 0 -20 23v324l-339 -340q-7 -7 -17 -7q-20 0 -20 23v324l-340 -340q-7 -7 -17 -7z" />
    <glyph glyph-name=".null" horiz-adv-x="0" 
 />
    <glyph glyph-name="nonmarkingreturn" horiz-adv-x="333" 
 />
    <glyph glyph-name="CR" unicode="&#xd;" horiz-adv-x="211" 
 />
    <glyph glyph-name="space" unicode=" " horiz-adv-x="247" 
 />
    <glyph glyph-name="exclam" unicode="!" horiz-adv-x="290" 
d="M87 217l-13 523h142l-12 -523h-117zM145 -10q-35 0 -58 23t-23 58t23 58t58 23t58 -23t23 -58t-23 -58t-58 -23z" />
    <glyph glyph-name="quotedbl" unicode="&#x22;" horiz-adv-x="406" 
d="M61 564l-3 216h109l-3 -216h-103zM243 564l-3 216h109l-3 -216h-103z" />
    <glyph glyph-name="numbersign" unicode="#" horiz-adv-x="744" 
d="M689 424h-122l-35 -151h124l-22 -89h-122l-43 -184h-99l43 184h-160l-43 -184h-98l43 184h-122l22 89h120l35 151h-121l20 89h122l43 187h98l-43 -187h160l43 187h99l-43 -187h122zM433 273l35 151h-160l-35 -151h160z" />
    <glyph glyph-name="dollar" unicode="$" horiz-adv-x="650" 
d="M606 209q0 -83 -57.5 -140t-154.5 -73v-86h-141v85q-117 17 -194 88l53 95q86 -71 201 -71q70 0 108.5 23t38.5 66q0 42 -38 66t-117 46l-42 12q-103 28 -158 74.5t-55 130.5q0 86 55 144.5t150 74.5v86h141v-86q101 -17 178 -79l-63 -98q-83 66 -186 66q-59 0 -94 -23
t-35 -62q0 -40 32.5 -61t99.5 -40l43 -12q235 -64 235 -226z" />
    <glyph glyph-name="percent" unicode="%" horiz-adv-x="863" 
d="M221 409q-84 0 -136 47t-52 123q0 77 52 124t136 47t135.5 -47t51.5 -124q0 -76 -51.5 -123t-135.5 -47zM257 -10l-73 44l420 716l72 -44zM222 496q33 0 54 23t21 60q0 38 -21 60.5t-54 22.5q-35 0 -56.5 -22.5t-21.5 -60.5t21.5 -60.5t56.5 -22.5zM643 -10
q-85 0 -136.5 47t-51.5 124t51.5 123.5t136.5 46.5q84 0 135 -46.5t51 -123.5t-51 -124t-135 -47zM643 78q33 0 54 23t21 60t-21 60t-54 23q-35 0 -56 -22.5t-21 -60.5t21 -60.5t56 -22.5z" />
    <glyph glyph-name="ampersand" unicode="&#x26;" horiz-adv-x="777" 
d="M639 107q50 0 94 18v-110q-60 -25 -138 -25q-96 0 -141 74q-69 -74 -181 -74q-101 0 -164.5 59t-63.5 155q0 67 36.5 118t101.5 78q-100 51 -100 158q0 86 67 139t177 53q107 0 173 -54t66 -141v-105h159v-106h-159v-156q0 -37 20 -59t53 -22zM327 633q-46 0 -74 -24.5
t-28 -65.5q0 -42 28 -67.5t74 -25.5h103v91q0 42 -28 67t-75 25zM307 107q53 0 88 28.5t35 85.5v123h-103q-64 0 -102.5 -33t-38.5 -87q0 -52 33.5 -84.5t87.5 -32.5z" />
    <glyph glyph-name="quotesingle" unicode="'" horiz-adv-x="224" 
d="M61 564l-3 216h109l-3 -216h-103z" />
    <glyph glyph-name="parenleft" unicode="(" horiz-adv-x="337" 
d="M191 -180q-148 230 -148 480t148 480h126q-133 -233 -133 -480t133 -480h-126z" />
    <glyph glyph-name="parenright" unicode=")" horiz-adv-x="337" 
d="M19 -180q134 235 134 480q0 246 -134 480h127q148 -230 148 -480t-148 -480h-127z" />
    <glyph glyph-name="asterisk" unicode="*" horiz-adv-x="394" 
d="M347 600l-85 -25l54 -70l-69 -50l-50 73l-50 -73l-69 50l54 70l-84 25l26 81l83 -30l-3 89h86l-2 -88l83 29z" />
    <glyph glyph-name="plus" unicode="+" horiz-adv-x="558" 
d="M516 406v-112h-169v-173h-136v173h-169v112h169v174h136v-174h169z" />
    <glyph glyph-name="comma" unicode="," horiz-adv-x="288" 
d="M8 -145l70 274h157l-89 -274h-138z" />
    <glyph glyph-name="hyphen" unicode="-" horiz-adv-x="479" 
d="M63 241v97h354v-97h-354z" />
    <glyph glyph-name="period" unicode="." horiz-adv-x="272" 
d="M136 -10q-37 0 -63 26t-26 63t26 63t63 26t63 -26t26 -63t-26 -63t-63 -26z" />
    <glyph glyph-name="slash" unicode="/" horiz-adv-x="450" 
d="M37 -100l239 880h137l-239 -880h-137z" />
    <glyph glyph-name="zero" unicode="0" horiz-adv-x="645" 
d="M323 -10q-127 0 -204.5 104.5t-77.5 275.5t77.5 275.5t204.5 104.5t204 -104.5t77 -275.5t-77 -275.5t-204 -104.5zM323 107q61 0 98.5 72t37.5 191t-37.5 191t-98.5 72t-98.5 -72t-37.5 -191t37.5 -191t98.5 -72z" />
    <glyph glyph-name="one" unicode="1" horiz-adv-x="448" 
d="M220 0v559l-144 -102l-70 100l248 183h107v-740h-141z" />
    <glyph glyph-name="two" unicode="2" horiz-adv-x="593" 
d="M42 0v89l229 248q1 1 14 15.5t17.5 19.5t17 19.5t18.5 23t16.5 23.5t16 26t11.5 25t8.5 27t2.5 25q0 41 -26.5 66.5t-69.5 25.5q-47 0 -75.5 -30.5t-28.5 -80.5l-143 13q0 97 67 156t176 59q110 0 176 -54t66 -144q0 -72 -41.5 -137t-129.5 -157l-138 -144l318 3v-117
h-502z" />
    <glyph glyph-name="three" unicode="3" horiz-adv-x="582" 
d="M310 449q103 -2 166 -63t63 -159q0 -107 -76 -172t-206 -65q-69 0 -129.5 19.5t-96.5 54.5l53 103q57 -60 157 -60q70 0 111 32.5t41 86.5q0 53 -38.5 84.5t-102.5 31.5q-56 0 -101 -24l-38 71l204 234h-252v117h436v-88z" />
    <glyph glyph-name="four" unicode="4" horiz-adv-x="642" 
d="M364 0v143h-343v97l374 500h110v-480h102v-117h-102v-143h-141zM187 256h181l2 244z" />
    <glyph glyph-name="five" unicode="5" horiz-adv-x="592" 
d="M249 -10q-145 0 -223 66l42 102q63 -51 168 -51q75 0 121 36.5t46 95.5q0 51 -32.5 82t-86.5 31q-68 0 -109 -36l-94 13l51 411h380v-117h-259l-25 -165q38 11 81 11q106 0 173 -61t67 -159q0 -116 -83.5 -187.5t-216.5 -71.5z" />
    <glyph glyph-name="six" unicode="6" horiz-adv-x="589" 
d="M328 453q97 0 163.5 -63t66.5 -163q0 -106 -71.5 -171.5t-187.5 -65.5t-187.5 64.5t-71.5 170.5q0 108 80 219l209 296h159l-216 -291q21 4 56 4zM298 107q51 0 82 32.5t31 86.5q0 53 -31 86.5t-82 33.5q-50 0 -81.5 -33.5t-31.5 -86.5q0 -54 31.5 -86.5t81.5 -32.5z" />
    <glyph glyph-name="seven" unicode="7" horiz-adv-x="540" 
d="M23 740h501l-250 -740h-149l216 623h-318v117z" />
    <glyph glyph-name="eight" unicode="8" 
d="M446 385q57 -26 88.5 -72t31.5 -106q0 -98 -71 -157.5t-187 -59.5q-117 0 -188 59t-71 155q0 61 31.5 107.5t88.5 73.5q-100 51 -100 161q0 92 65.5 148t173.5 56q107 0 172.5 -55.5t65.5 -146.5q0 -111 -100 -163zM307 633q-42 0 -67.5 -26.5t-25.5 -69.5t25.5 -69.5
t67.5 -26.5t67.5 26.5t25.5 69.5t-25.5 69.5t-67.5 26.5zM307 107q51 0 82 29.5t31 78.5q0 50 -31 80t-82 30t-82 -30t-31 -80q0 -49 31 -78.5t82 -29.5z" />
    <glyph glyph-name="nine" unicode="9" horiz-adv-x="589" 
d="M289 750q116 0 187.5 -64.5t71.5 -170.5q0 -108 -80 -219l-209 -296h-159l216 291q-21 -4 -56 -4q-97 0 -163.5 63t-66.5 163q0 106 71.5 171.5t187.5 65.5zM177 514q0 -53 31 -86.5t82 -33.5q50 0 81.5 33.5t31.5 86.5q0 54 -31.5 86.5t-81.5 32.5q-51 0 -82 -32.5
t-31 -86.5z" />
    <glyph glyph-name="colon" unicode=":" horiz-adv-x="291" 
d="M146 372q-37 0 -63.5 26t-26.5 63t26.5 62.5t63.5 25.5q36 0 62 -25.5t26 -62.5t-26 -63t-62 -26zM146 -10q-37 0 -63.5 26t-26.5 63t26.5 63t63.5 26q36 0 62 -26t26 -63t-26 -63t-62 -26z" />
    <glyph glyph-name="semicolon" unicode=";" horiz-adv-x="321" 
d="M167 372q-37 0 -63 26t-26 63t26 62.5t63 25.5t63 -25.5t26 -62.5t-26 -63t-63 -26zM27 -145l70 274h157l-90 -274h-137z" />
    <glyph glyph-name="less" unicode="&#x3c;" horiz-adv-x="575" 
d="M506 608v-127l-302 -131l302 -131v-127l-470 214v88z" />
    <glyph glyph-name="equal" unicode="=" horiz-adv-x="604" 
d="M66 405v112h473v-112h-473zM66 184v112h473v-112h-473z" />
    <glyph glyph-name="greater" unicode="&#x3e;" horiz-adv-x="575" 
d="M69 608l470 -214v-88l-470 -214v127l302 131l-302 131v127z" />
    <glyph glyph-name="question" unicode="?" horiz-adv-x="549" 
d="M210 217q0 65 18 115.5t36.5 72.5t49.5 49q18 16 28 27t18 28t8 35q0 40 -27.5 64.5t-72.5 24.5q-44 0 -72.5 -24t-32.5 -65l-131 6q5 90 69.5 145t166.5 55q111 0 178.5 -54.5t67.5 -143.5q0 -37 -14.5 -67.5t-30 -47t-45.5 -41.5q-24 -20 -36.5 -32.5t-29 -35t-24 -50
t-7.5 -61.5h-117zM268 -10q-35 0 -58 23t-23 58t23 58t58 23t58 -23t23 -58t-23 -58t-58 -23z" />
    <glyph glyph-name="at" unicode="@" horiz-adv-x="1125" 
d="M656 481h131v-261q0 -30 16 -48.5t43 -18.5q43 0 69 48.5t26 121.5q0 142 -99.5 226.5t-261.5 84.5q-179 0 -287 -103.5t-108 -272.5q0 -168 106.5 -269.5t288.5 -101.5q148 0 273 34l40 -106q-146 -45 -318 -45q-242 0 -386.5 134.5t-144.5 355.5q0 222 146 356t390 134
q224 0 360.5 -113.5t136.5 -304.5q0 -130 -63.5 -212.5t-165.5 -82.5q-54 0 -95.5 24.5t-62.5 68.5q-51 -94 -164 -94q-93 0 -153 62.5t-60 162.5q0 101 60 164.5t149 63.5q84 0 132 -62zM552 153q45 0 72 30t27 79q0 50 -27 80t-72 30q-44 0 -71 -30t-27 -80q0 -49 27 -79
t71 -30z" />
    <glyph glyph-name="A" unicode="A" horiz-adv-x="758" 
d="M609 0l-60 147h-341l-60 -147h-151l316 740h131l316 -740h-151zM256 264h246l-123 301z" />
    <glyph glyph-name="B" unicode="B" horiz-adv-x="708" 
d="M528 392q65 -22 102 -68.5t37 -108.5q0 -97 -70.5 -156t-187.5 -59h-321v740h317q100 0 161 -53.5t61 -140.5q0 -101 -99 -154zM229 623v-185h142q50 0 80.5 25.5t30.5 67.5q0 41 -30.5 66.5t-79.5 25.5h-143zM400 117q55 0 88.5 28t33.5 74t-33.5 74.5t-86.5 28.5h-173
v-205h171z" />
    <glyph glyph-name="C" unicode="C" horiz-adv-x="768" 
d="M436 -10q-176 0 -284.5 105t-108.5 277q0 170 108 274t284 104q182 0 292 -119l-89 -90q-72 92 -201 92q-112 0 -180 -72t-68 -190q0 -119 69 -191.5t181 -72.5q140 0 216 117l95 -85q-109 -149 -314 -149z" />
    <glyph glyph-name="D" unicode="D" horiz-adv-x="788" 
d="M379 740q164 0 264.5 -102t100.5 -268t-100.5 -268t-264.5 -102h-291v740h291zM379 117q98 0 158 69.5t60 183.5t-60 183.5t-158 69.5h-150v-506h150z" />
    <glyph glyph-name="E" unicode="E" horiz-adv-x="650" 
d="M229 117h370v-117h-511v740h503v-117h-362v-190h330v-116h-330v-200z" />
    <glyph glyph-name="F" unicode="F" horiz-adv-x="589" 
d="M555 623h-326v-210h280v-116h-280v-297h-141v740h467v-117z" />
    <glyph glyph-name="G" unicode="G" horiz-adv-x="816" 
d="M788 417q2 -32 2 -47q0 -172 -99 -276t-266 -104q-172 0 -276.5 104.5t-104.5 275.5t104 275.5t277 104.5q159 0 262 -82l-93 -88q-57 53 -167 53q-107 0 -172 -72.5t-65 -190.5q0 -119 65 -191t171 -72q92 0 149.5 52.5t66.5 140.5h-191v117h337z" />
    <glyph glyph-name="H" unicode="H" horiz-adv-x="854" 
d="M625 740h141v-740h-141v319h-396v-319h-141v740h141v-305h396v305z" />
    <glyph glyph-name="I" unicode="I" horiz-adv-x="317" 
d="M88 0v740h141v-740h-141z" />
    <glyph glyph-name="J" unicode="J" horiz-adv-x="427" 
d="M150 -10q-93 0 -146 59l37 94q35 -36 82 -36q37 0 58.5 21t21.5 57v555h141v-580q0 -76 -54 -123t-140 -47z" />
    <glyph glyph-name="K" unicode="K" horiz-adv-x="707" 
d="M543 0l-246 320h-68v-320h-141v740h141v-304h65l235 304h169l-283 -361l297 -379h-169z" />
    <glyph glyph-name="L" unicode="L" horiz-adv-x="571" 
d="M229 117h327v-117h-468v740h141v-623z" />
    <glyph glyph-name="M" unicode="M" horiz-adv-x="1000" 
d="M935 0h-141l-29 505l-226 -505h-78l-226 503l-29 -503h-141l50 744h155l230 -513l230 513h155z" />
    <glyph glyph-name="N" unicode="N" horiz-adv-x="868" 
d="M88 0v740h88l466 -501l-3 501h141v-740h-87l-466 501l2 -501h-141z" />
    <glyph glyph-name="O" unicode="O" horiz-adv-x="863" 
d="M432 -10q-175 0 -282 104.5t-107 275.5t107 275.5t282 104.5q174 0 281 -104.5t107 -275.5t-107 -275.5t-281 -104.5zM432 107q109 0 175.5 72.5t66.5 190.5t-66.5 190.5t-175.5 72.5t-176 -72.5t-67 -190.5t67 -190.5t176 -72.5z" />
    <glyph glyph-name="P" unicode="P" horiz-adv-x="675" 
d="M388 740q117 0 188 -66t71 -173q0 -112 -72.5 -180.5t-191.5 -68.5h-154v-252h-141v740h300zM373 369q59 0 94 34.5t35 92.5q0 57 -35.5 92t-93.5 35h-144v-254h144z" />
    <glyph glyph-name="Q" unicode="Q" horiz-adv-x="864" 
d="M843 0h-167l-35 41q-91 -51 -209 -51q-175 0 -282 104.5t-107 275.5t107 275.5t282 104.5q174 0 281 -104.5t107 -275.5q0 -150 -84 -251zM432 107q69 0 123 31l-122 140h160l47 -53q34 63 34 145q0 118 -66.5 190.5t-175.5 72.5t-176 -72.5t-67 -190.5t67 -190.5
t176 -72.5z" />
    <glyph glyph-name="R" unicode="R" horiz-adv-x="731" 
d="M549 0l-169 272h-151v-272h-141v740h310q117 0 188 -64.5t71 -169.5q0 -71 -36 -125t-101 -82l195 -299h-166zM229 623v-234h143q63 0 101.5 32t38.5 85t-36 85t-94 32h-153z" />
    <glyph glyph-name="S" unicode="S" horiz-adv-x="650" 
d="M322 -10q-162 0 -263 93l53 95q86 -71 201 -71q70 0 108.5 23t38.5 66q0 42 -38 66t-117 46l-42 12q-103 28 -158 74.5t-55 130.5q0 101 75 163t199 62q144 0 250 -85l-63 -98q-83 66 -186 66q-59 0 -94 -23t-35 -62q0 -40 32.5 -61t99.5 -40l43 -12q235 -64 235 -226
q0 -98 -78.5 -158.5t-205.5 -60.5z" />
    <glyph glyph-name="T" unicode="T" horiz-adv-x="622" 
d="M607 740v-117h-226v-623h-141v623h-225v117h592z" />
    <glyph glyph-name="U" unicode="U" horiz-adv-x="806" 
d="M404 -10q-146 0 -235.5 80t-89.5 210v460h141v-454q0 -80 51 -129.5t133 -49.5t132 49.5t50 129.5v454h141v-460q0 -131 -89 -210.5t-234 -79.5z" />
    <glyph glyph-name="V" unicode="V" horiz-adv-x="758" 
d="M314 0l-316 740h150l232 -565l229 565h151l-315 -740h-131z" />
    <glyph glyph-name="W" unicode="W" horiz-adv-x="1138" 
d="M985 740h150l-255 -740h-131l-180 541l-179 -541h-131l-256 740h151l178 -551l171 551h132l173 -551z" />
    <glyph glyph-name="X" unicode="X" horiz-adv-x="687" 
d="M690 0h-163l-184 274l-183 -274h-163l268 383l-249 357h163l164 -247l164 247h163l-249 -357z" />
    <glyph glyph-name="Y" unicode="Y" horiz-adv-x="692" 
d="M531 740h150l-264 -467v-273h-141v273l-265 467h151l185 -342z" />
    <glyph glyph-name="Z" unicode="Z" horiz-adv-x="668" 
d="M229 117h404v-117h-597v88l394 535h-388v117h581v-87z" />
    <glyph glyph-name="bracketleft" unicode="[" horiz-adv-x="392" 
d="M81 -180v960h282v-117h-141v-726h141v-117h-282z" />
    <glyph glyph-name="backslash" unicode="\" horiz-adv-x="450" 
d="M276 -100l-239 880h137l239 -880h-137z" />
    <glyph glyph-name="bracketright" unicode="]" horiz-adv-x="392" 
d="M312 -180h-282v117h140v726h-140v117h282v-960z" />
    <glyph glyph-name="asciicircum" unicode="^" horiz-adv-x="548" 
d="M504 312h-132l-98 195l-98 -195h-132l164 327h132z" />
    <glyph glyph-name="underscore" unicode="_" horiz-adv-x="591" 
d="M25 -97v97h541v-97h-541z" />
    <glyph glyph-name="grave" unicode="`" horiz-adv-x="600" 
d="M160 618l-178 161h159l135 -161h-116z" />
    <glyph glyph-name="a" unicode="a" horiz-adv-x="577" 
d="M283 549q104 0 167.5 -57.5t63.5 -152.5v-339h-131l-3 77q-27 -41 -70.5 -64t-93.5 -23q-84 0 -135.5 46t-51.5 121q0 78 63 125t167 47q58 0 119 -12v10q0 54 -34.5 84.5t-95.5 30.5q-74 0 -126 -43l-59 80q86 70 220 70zM255 87q50 0 86 37.5t37 100.5q-55 11 -102 11
q-48 0 -76.5 -20.5t-28.5 -55.5q0 -34 22 -53.5t62 -19.5z" />
    <glyph glyph-name="b" unicode="b" horiz-adv-x="680" 
d="M384 549q110 0 184 -78.5t74 -203.5q0 -123 -74 -200t-184 -77q-120 0 -181 91l-3 -81h-131v780h136v-319q61 88 179 88zM353 107q66 0 107 44.5t41 117.5t-41 118.5t-107 45.5q-67 0 -107.5 -45t-40.5 -118q0 -74 40.5 -118.5t107.5 -44.5z" />
    <glyph glyph-name="c" unicode="c" horiz-adv-x="548" 
d="M325 -10q-129 0 -208 77t-79 203q0 125 80 202t210 77q106 0 185 -62l-77 -92q-44 38 -106 38q-68 0 -109.5 -45t-41.5 -118q0 -74 41.5 -118.5t110.5 -44.5q77 0 122 48l77 -90q-75 -75 -205 -75z" />
    <glyph glyph-name="d" unicode="d" horiz-adv-x="680" 
d="M475 780h136v-780h-131l-3 81q-61 -91 -181 -91q-111 0 -184.5 77t-73.5 200q0 125 73.5 203.5t184.5 78.5q118 0 179 -88v319zM327 107q66 0 107 45t41 118t-41 118t-107 45q-67 0 -107.5 -45t-40.5 -119q0 -73 40.5 -117.5t107.5 -44.5z" />
    <glyph glyph-name="e" unicode="e" horiz-adv-x="612" 
d="M577 278q0 -25 -4 -57h-390q16 -124 129 -124q79 0 132 64l105 -53q-37 -55 -98.5 -86.5t-136.5 -31.5q-124 0 -199.5 76t-75.5 200q0 128 74 205.5t195 77.5t195 -74.5t74 -196.5zM308 442q-108 0 -125 -129h251q-8 62 -40 95.5t-86 33.5z" />
    <glyph glyph-name="f" unicode="f" horiz-adv-x="406" 
d="M331 673q-37 0 -59.5 -20t-22.5 -54v-60h142v-111h-142v-428h-136v428h-87v111h87v81q0 77 48 123.5t126 46.5q72 0 119 -22l-9 -106q-26 11 -66 11z" />
    <glyph glyph-name="g" unicode="g" horiz-adv-x="680" 
d="M481 539h131v-488q0 -127 -87.5 -204t-231.5 -77q-148 0 -240 68l30 107q85 -58 206 -58q84 0 135.5 45t51.5 120v26q-61 -88 -179 -88q-111 0 -184.5 78.5t-73.5 203.5q0 123 73.5 200t184.5 77q120 0 181 -91zM328 107q66 0 107 45t41 118t-41 118t-107 45
q-67 0 -107.5 -44.5t-40.5 -117.5q0 -74 40.5 -119t107.5 -45z" />
    <glyph glyph-name="h" unicode="h" horiz-adv-x="655" 
d="M378 549q97 0 156 -57.5t59 -152.5v-339h-136v317q0 52 -34.5 84t-91.5 32t-91.5 -32t-34.5 -84v-317h-136v780h136v-306q61 75 173 75z" />
    <glyph glyph-name="i" unicode="i" horiz-adv-x="275" 
d="M138 627q-35 0 -58 22.5t-23 57.5t23 58t58 23t57.5 -23t22.5 -58t-22.5 -57.5t-57.5 -22.5zM70 0v539h136v-539h-136z" />
    <glyph glyph-name="j" unicode="j" horiz-adv-x="280" 
d="M141 627q-35 0 -58 22.5t-23 57.5t23 58t58 23t58 -23t23 -58t-23 -57.5t-58 -22.5zM40 -230q-63 0 -105 17l9 108q23 -8 55 -8q34 0 55 23t21 61v568h136v-599q0 -76 -47 -123t-124 -47z" />
    <glyph glyph-name="k" unicode="k" horiz-adv-x="606" 
d="M443 0l-192 227h-46v-227h-136v780h136v-441h47l178 200h172l-239 -255l252 -284h-172z" />
    <glyph glyph-name="l" unicode="l" horiz-adv-x="276" 
d="M70 0v780h136v-780h-136z" />
    <glyph glyph-name="m" unicode="m" horiz-adv-x="982" 
d="M700 549q98 0 158.5 -58t60.5 -152v-339h-136v317q0 53 -30.5 84.5t-80.5 31.5t-80 -32t-30 -84v-317h-136v317q0 53 -30.5 84.5t-80.5 31.5t-80 -32t-30 -84v-317h-136v539h131l2 -64q57 74 161 74q107 0 163 -81q60 81 174 81z" />
    <glyph glyph-name="n" unicode="n" horiz-adv-x="655" 
d="M378 549q97 0 156 -57.5t59 -152.5v-339h-136v317q0 52 -34.5 84t-91.5 32t-91.5 -32t-34.5 -84v-317h-136v539h131l2 -68q63 78 176 78z" />
    <glyph glyph-name="o" unicode="o" horiz-adv-x="653" 
d="M327 -10q-130 0 -209.5 77t-79.5 203q0 125 79.5 202t209.5 77q129 0 208.5 -77t79.5 -202q0 -126 -79.5 -203t-208.5 -77zM327 107q66 0 106.5 45t40.5 118t-40.5 118t-106.5 45q-67 0 -107.5 -44.5t-40.5 -118.5t40.5 -118.5t107.5 -44.5z" />
    <glyph glyph-name="p" unicode="p" horiz-adv-x="680" 
d="M384 549q111 0 184.5 -77t73.5 -200q0 -125 -74 -203.5t-184 -78.5q-118 0 -179 88v-298h-136v759h131l3 -81q61 91 181 91zM353 107q66 0 107 45t41 119q0 73 -41 117.5t-107 44.5q-67 0 -107.5 -44.5t-40.5 -118.5t40.5 -118.5t107.5 -44.5z" />
    <glyph glyph-name="q" unicode="q" horiz-adv-x="680" 
d="M480 539h131v-759h-136v298q-61 -88 -179 -88q-111 0 -184.5 78.5t-73.5 203.5q0 123 73.5 200t184.5 77q120 0 181 -91zM327 107q66 0 107 45t41 118t-41 118t-107 45q-67 0 -107.5 -44.5t-40.5 -117.5q0 -74 40.5 -119t107.5 -45z" />
    <glyph glyph-name="r" unicode="r" horiz-adv-x="408" 
d="M202 467q67 82 198 82l-9 -125q-84 0 -135 -37t-51 -98v-289h-136v539h131z" />
    <glyph glyph-name="s" unicode="s" horiz-adv-x="514" 
d="M248 -10q-131 0 -204 64l51 82q68 -40 155 -40q38 0 61 14.5t23 39.5q0 41 -92 65l-45 12q-76 20 -114.5 52t-38.5 92q0 80 58 129t154 49q125 0 203 -53l-57 -89q-63 35 -137 35q-37 0 -60 -13t-23 -36q0 -22 20.5 -35.5t60.5 -23.5l45 -13q78 -20 121.5 -57.5
t43.5 -103.5q0 -76 -62 -123t-163 -47z" />
    <glyph glyph-name="t" unicode="t" horiz-adv-x="432" 
d="M317 107q50 0 93 18v-110q-60 -25 -137 -25q-74 0 -120 47t-46 123v268h-89v111h89v158h136v-158h159v-111h-159v-240q0 -37 20.5 -59t53.5 -22z" />
    <glyph glyph-name="u" unicode="u" horiz-adv-x="635" 
d="M430 539h136v-539h-131l-2 66q-59 -76 -166 -76q-92 0 -148.5 58t-56.5 153v338h136v-317q0 -52 32 -83.5t85 -31.5q52 0 83.5 31.5t31.5 83.5v317z" />
    <glyph glyph-name="v" unicode="v" horiz-adv-x="603" 
d="M234 0l-228 539h149l147 -384l146 384h149l-227 -539h-136z" />
    <glyph glyph-name="w" unicode="w" horiz-adv-x="920" 
d="M763 539h149l-198 -539h-136l-118 372l-118 -372h-136l-198 539h149l126 -384l121 384h112l121 -384z" />
    <glyph glyph-name="x" unicode="x" horiz-adv-x="583" 
d="M579 0h-162l-125 177l-125 -177h-162l206 276l-194 263h162l113 -163l113 163h162l-194 -263z" />
    <glyph glyph-name="y" unicode="y" horiz-adv-x="603" 
d="M151 -230q-47 0 -80 15l14 111q18 -9 43 -9q30 0 47.5 16t35.5 52l27 57l-231 527h149l152 -380l142 380h148l-254 -601q-36 -86 -78 -127t-115 -41z" />
    <glyph glyph-name="z" unicode="z" horiz-adv-x="546" 
d="M38 0v88l269 340h-264v111h456l1 -87l-268 -340h279v-112h-473z" />
    <glyph glyph-name="braceleft" unicode="{" horiz-adv-x="419" 
d="M276 -190q-74 0 -119 44t-45 116v191q0 37 -20.5 59t-54.5 22h-6v116h6q34 0 54.5 22.5t20.5 58.5v191q0 72 45 116t119 44q58 0 113 -13v-110q-27 6 -61 6t-54.5 -23t-20.5 -61v-167q0 -45 -23.5 -78.5t-61.5 -43.5q38 -10 61.5 -43t23.5 -79v-167q0 -38 20.5 -61
t54.5 -23t61 6v-110q-55 -13 -113 -13z" />
    <glyph glyph-name="bar" unicode="|" horiz-adv-x="303" 
d="M81 -220v1000h141v-1000h-141z" />
    <glyph glyph-name="braceright" unicode="}" horiz-adv-x="419" 
d="M143 -190q-58 0 -113 13v110q27 -6 61 -6t54.5 23t20.5 61v167q0 46 23.5 79t61.5 43q-38 10 -61.5 43.5t-23.5 78.5v167q0 38 -20.5 61t-54.5 23t-61 -6v110q55 13 113 13q74 0 119 -44t45 -116v-191q0 -36 20.5 -58.5t54.5 -22.5h6v-116h-6q-34 0 -54.5 -22t-20.5 -59
v-191q0 -72 -45 -116t-119 -44z" />
    <glyph glyph-name="asciitilde" unicode="~" horiz-adv-x="600" 
d="M402 219q-43 0 -110 28.5t-90 28.5q-27 0 -44 -12.5t-17 -34.5h-74q0 65 37 104.5t96 39.5q44 0 110 -27.5t90 -27.5q61 0 61 45h75q0 -67 -37 -105.5t-97 -38.5z" />
    <glyph glyph-name="uni00A0" unicode="&#xa0;" horiz-adv-x="247" 
 />
    <glyph glyph-name="exclamdown" unicode="&#xa1;" horiz-adv-x="277" 
d="M139 387q-35 0 -58.5 23.5t-23.5 58.5q0 34 23.5 57t58.5 23t57.5 -22.5t22.5 -57.5t-23 -58.5t-57 -23.5zM67 -220l13 543h117l12 -543h-142z" />
    <glyph glyph-name="cent" unicode="&#xa2;" horiz-adv-x="582" 
d="M530 115q-52 -52 -135 -69v-86h-127v84q-106 17 -168 91t-62 185q0 110 62 183.5t168 90.5v85h127v-87q66 -15 118 -55l-77 -92q-44 38 -106 38q-68 0 -109.5 -45t-41.5 -118q0 -74 41.5 -118.5t110.5 -44.5q77 0 122 48z" />
    <glyph glyph-name="sterling" unicode="&#xa3;" horiz-adv-x="621" 
d="M258 112h311v-112h-520v110h68v185h-58v112h58v148q0 88 61.5 141.5t162.5 53.5q100 0 161.5 -54t61.5 -142l-139 -10q0 40 -23 64.5t-61 24.5t-60.5 -23t-22.5 -61v-142h269v-112h-269v-183z" />
    <glyph glyph-name="currency" unicode="&#xa4;" horiz-adv-x="641" 
d="M551 344q0 -63 -31 -116l66 -66l-83 -83l-67 67q-53 -31 -116 -31q-62 0 -114 30l-68 -67l-83 83l66 66q-32 54 -32 117t32 117l-66 65l83 83l67 -67q54 30 115 30q63 0 116 -31l67 67l83 -83l-66 -66q31 -53 31 -115zM320 216q51 0 86.5 37.5t35.5 90.5t-35.5 91
t-86.5 38q-50 0 -86 -38t-36 -91t36 -90.5t86 -37.5z" />
    <glyph glyph-name="yen" unicode="&#xa5;" horiz-adv-x="727" 
d="M698 740l-217 -384h107v-88h-154v-48h154v-87h-154v-133h-141v133h-154v87h154v48h-154v88h107l-218 384h151l185 -342l184 342h150z" />
    <glyph glyph-name="brokenbar" unicode="&#xa6;" horiz-adv-x="301" 
d="M80 380v400h141v-400h-141zM80 -220v400h141v-400h-141z" />
    <glyph glyph-name="section" unicode="&#xa7;" horiz-adv-x="614" 
d="M567 249q0 -79 -49 -136q49 -51 49 -124q0 -98 -72.5 -158.5t-190.5 -60.5q-148 0 -243 93l53 95q79 -71 182 -71q60 0 92.5 23t32.5 65t-32.5 65.5t-100.5 44.5l-38 12q-96 30 -147 76.5t-51 131.5q0 81 47 139q-47 49 -47 121q0 101 70 163t184 62q130 0 230 -85
l-62 -98q-76 66 -166 66q-50 0 -80 -23t-30 -62q0 -40 28.5 -60.5t88.5 -40.5l37 -12q44 -14 78.5 -31.5t67.5 -44t51 -64.5t18 -86zM315 218l37 -12q40 -14 60 -23q18 21 18 53q0 44 -35 70t-107 49l-38 12q-18 5 -41 14q-20 -22 -20 -53q0 -23 9 -40.5t28.5 -30t38 -20.5
t50.5 -19z" />
    <glyph glyph-name="dieresis" unicode="&#xa8;" horiz-adv-x="600" 
d="M133 627q-35 0 -58 22.5t-23 57.5t23 58t58 23t58 -23t23 -58t-23 -57.5t-58 -22.5zM378 627q-35 0 -58 22.5t-23 57.5t23 58t58 23t58 -23t23 -58t-23 -57.5t-58 -22.5z" />
    <glyph glyph-name="copyright" unicode="&#xa9;" horiz-adv-x="867" 
d="M434 -10q-175 0 -281.5 104.5t-106.5 275.5t106.5 275.5t281.5 104.5q174 0 280 -104.5t106 -275.5t-106 -275.5t-280 -104.5zM434 52q138 0 223.5 87.5t85.5 230.5t-85.5 231t-223.5 88q-140 0 -225.5 -88t-85.5 -231t85.5 -230.5t225.5 -87.5zM441 158q-98 0 -159 58
t-61 152t60 151t159 57q104 0 163 -66l-58 -59q-35 48 -104 48q-56 0 -90.5 -36.5t-34.5 -95.5q0 -60 35 -96.5t92 -36.5q73 0 112 63l63 -57q-61 -82 -177 -82z" />
    <glyph glyph-name="ordfeminine" unicode="&#xaa;" horiz-adv-x="399" 
d="M197 750q62 0 100.5 -34.5t38.5 -91.5v-204h-82l-1 44q-34 -50 -97 -50q-51 0 -82 27.5t-31 73.5q0 47 38 75.5t101 28.5q35 0 69 -7v5q0 32 -19.5 49.5t-56.5 17.5q-47 0 -74 -26l-38 51q55 41 134 41zM180 475q29 0 49.5 21.5t21.5 58.5q-30 6 -58 6t-45 -12t-17 -32
q0 -19 13 -30.5t36 -11.5z" />
    <glyph glyph-name="guillemotleft" unicode="&#xab;" horiz-adv-x="667" 
d="M359 500l-174 -230l174 -230h-144l-180 230l180 230h144zM627 500l-174 -230l174 -230h-144l-180 230l180 230h144z" />
    <glyph glyph-name="logicalnot" unicode="&#xac;" horiz-adv-x="602" 
d="M534 459v-276h-136v165h-338v111h474z" />
    <glyph glyph-name="uni00AD" unicode="&#xad;" horiz-adv-x="479" 
d="M63 241v97h354v-97h-354z" />
    <glyph glyph-name="registered" unicode="&#xae;" horiz-adv-x="409" 
d="M205 790q71 0 114 -42.5t43 -112.5t-43 -112.5t-114 -42.5t-114 42.5t-43 112.5t43 112.5t114 42.5zM205 504q57 0 92 36t35 95q0 60 -35 96t-92 36q-58 0 -93 -36t-35 -96q0 -59 35 -95t93 -36zM269 664q0 -33 -31 -46l42 -65h-40l-36 59h-28v-59h-36v163h71
q26 0 42 -14.5t16 -37.5zM176 687v-47h28q29 0 29 24q0 10 -7.5 16.5t-18.5 6.5h-31z" />
    <glyph glyph-name="macron" unicode="&#xaf;" horiz-adv-x="600" 
d="M41 624v107h356v-107h-356z" />
    <glyph glyph-name="degree" unicode="&#xb0;" horiz-adv-x="361" 
d="M181 535q-64 0 -102.5 35t-38.5 93q0 57 38.5 92t102.5 35q63 0 101.5 -35t38.5 -92q0 -58 -38.5 -93t-101.5 -35zM181 605q25 0 40 16t15 42t-15 42t-40 16t-41 -16t-16 -42t15.5 -42t41.5 -16z" />
    <glyph glyph-name="plusminus" unicode="&#xb1;" horiz-adv-x="609" 
d="M372 490h169v-112h-169v-174h-136v174h-168v112h168v173h136v-173zM68 33v113h473v-113h-473z" />
    <glyph glyph-name="uni00B2" unicode="&#xb2;" horiz-adv-x="366" 
d="M30 396v56l137 148q2 2 11 12t13.5 15.5t13 16t13.5 18.5t10.5 18.5t8 20.5t2.5 19q0 25 -15 39.5t-40 14.5q-27 0 -43.5 -18t-16.5 -47l-89 7q0 58 40.5 94t106.5 36q65 0 105 -33t40 -87q0 -42 -25 -81.5t-77 -92.5l-81 -85l189 1v-72h-303z" />
    <glyph glyph-name="uni00B3" unicode="&#xb3;" horiz-adv-x="358" 
d="M193 667q61 -1 98 -38t37 -96q0 -65 -46.5 -104t-124.5 -39q-90 0 -136 43l34 65q34 -36 92 -36q42 0 66 19.5t24 51.5q0 30 -23 48.5t-60 18.5q-34 0 -59 -15l-24 45l121 138h-150v72h263v-54z" />
    <glyph glyph-name="acute" unicode="&#xb4;" horiz-adv-x="600" 
d="M107 618l136 161h158l-178 -161h-116z" />
    <glyph glyph-name="paragraph" unicode="&#xb6;" horiz-adv-x="622" 
d="M527 740v-960h-102v862h-86v-862h-103v611h-66q-62 0 -100.5 49t-38.5 128q0 77 45 124.5t118 47.5h333z" />
    <glyph glyph-name="periodcentered" unicode="&#xb7;" horiz-adv-x="283" 
d="M141 202q-36 0 -62.5 26t-26.5 63t26.5 63t62.5 26q37 0 63 -26t26 -63t-26 -63t-63 -26z" />
    <glyph glyph-name="cedilla" unicode="&#xb8;" horiz-adv-x="600" 
d="M144 -54q48 -1 76.5 -24.5t28.5 -59.5q0 -41 -35.5 -66.5t-95.5 -25.5q-63 0 -100 25l25 50q23 -18 61 -18q25 0 39.5 9.5t14.5 24.5q0 14 -13.5 22.5t-35.5 8.5q-19 0 -37 -8l-18 32l47 84h77z" />
    <glyph glyph-name="uni00B9" unicode="&#xb9;" horiz-adv-x="277" 
d="M133 396v332l-84 -60l-44 62l149 110h67v-444h-88z" />
    <glyph glyph-name="ordmasculine" unicode="&#xba;" horiz-adv-x="429" 
d="M215 414q-79 0 -126.5 46t-47.5 122t47.5 122t126.5 46q78 0 125.5 -46t47.5 -122t-47.5 -122t-125.5 -46zM215 488q38 0 62 25.5t24 68.5t-24 69.5t-62 26.5q-39 0 -63 -26.5t-24 -69.5t24 -68.5t63 -25.5z" />
    <glyph glyph-name="guillemotright" unicode="&#xbb;" horiz-adv-x="667" 
d="M184 500l180 -230l-180 -230h-145l175 230l-175 230h145zM452 500l180 -230l-180 -230h-145l175 230l-175 230h145z" />
    <glyph glyph-name="onequarter" unicode="&#xbc;" horiz-adv-x="855" 
d="M215 -10l-73 44l420 716l72 -44zM133 296v332l-84 -60l-44 62l149 110h67v-444h-88zM681 0v85h-205v60l224 299h69v-286h60v-73h-60v-85h-88zM574 155h109l1 147z" />
    <glyph glyph-name="onehalf" unicode="&#xbd;" horiz-adv-x="866" 
d="M215 -10l-73 44l420 716l72 -44zM133 296v332l-84 -60l-44 62l149 110h67v-444h-88zM530 0v56l137 148q2 2 11 12t13.5 15.5t13 16t13.5 18.5t10.5 18.5t8 20.5t2.5 19q0 25 -15 39.5t-40 14.5q-27 0 -43.5 -18t-16.5 -47l-89 7q0 58 40.5 94t106.5 36q65 0 105 -33
t40 -87q0 -42 -25 -81.5t-77 -92.5l-81 -85l189 1v-72h-303z" />
    <glyph glyph-name="threequarters" unicode="&#xbe;" horiz-adv-x="936" 
d="M643 750l72 -44l-419 -716l-73 44zM328 433q0 -65 -46.5 -104t-124.5 -39q-90 0 -136 43l34 65q34 -36 92 -36q42 0 66 19.5t24 51.5q0 30 -23 48.5t-60 18.5q-34 0 -59 -15l-24 45l121 138h-150v72h263v-54l-112 -119q61 -1 98 -38t37 -96zM850 158h60v-73h-60v-85h-88
v85h-205v60l224 299h69v-286zM764 155l1 147l-110 -147h109z" />
    <glyph glyph-name="questiondown" unicode="&#xbf;" horiz-adv-x="543" 
d="M279 387q-35 0 -58.5 23.5t-23.5 58.5q0 34 23.5 57t58.5 23t57.5 -22.5t22.5 -57.5t-23 -58.5t-57 -23.5zM279 -230q-111 0 -179 54.5t-68 143.5q0 35 13 63.5t27.5 45t39.5 39.5q6 5 9 8q33 31 49.5 49.5t33 59t16.5 90.5h117q0 -71 -18 -125.5t-36.5 -78.5t-49.5 -53
q-19 -17 -28.5 -27t-18 -27t-8.5 -36q0 -40 27.5 -64.5t73.5 -24.5q44 0 72.5 24.5t32.5 64.5l130 -6q-5 -90 -69 -145t-166 -55z" />
    <glyph glyph-name="Agrave" unicode="&#xc0;" horiz-adv-x="758" 
d="M463 819h-116l-178 161h159zM609 0l-60 147h-341l-60 -147h-151l316 740h131l316 -740h-151zM256 264h246l-123 301z" />
    <glyph glyph-name="Aacute" unicode="&#xc1;" horiz-adv-x="758" 
d="M588 980l-178 -161h-116l136 161h158zM609 0l-60 147h-341l-60 -147h-151l316 740h131l316 -740h-151zM256 264h246l-123 301z" />
    <glyph glyph-name="Acircumflex" unicode="&#xc2;" horiz-adv-x="758" 
d="M378 903l-70 -84h-126l131 161h130l131 -161h-125zM609 0l-60 147h-341l-60 -147h-151l316 740h131l316 -740h-151zM256 264h246l-123 301z" />
    <glyph glyph-name="Atilde" unicode="&#xc3;" horiz-adv-x="758" 
d="M299 876q-18 0 -29.5 -12.5t-11.5 -33.5h-74q0 65 31.5 104.5t82.5 39.5q36 0 88.5 -28t71.5 -28q41 0 41 46h74q0 -68 -30.5 -106t-82.5 -38q-34 0 -88 28t-73 28zM609 0l-60 147h-341l-60 -147h-151l316 740h131l316 -740h-151zM256 264h246l-123 301z" />
    <glyph glyph-name="Adieresis" unicode="&#xc4;" horiz-adv-x="758" 
d="M256 828q-35 0 -58 22.5t-23 57.5t23 58t58 23t58 -23t23 -58t-23 -57.5t-58 -22.5zM501 828q-35 0 -58 22.5t-23 57.5t23 58t58 23t58 -23t23 -58t-23 -57.5t-58 -22.5zM609 0l-60 147h-341l-60 -147h-151l316 740h131l316 -740h-151zM256 264h246l-123 301z" />
    <glyph glyph-name="Aring" unicode="&#xc5;" horiz-adv-x="758" 
d="M379 785q-53 0 -85 29.5t-32 78.5t32 78.5t85 29.5t85 -29.5t32 -78.5t-32 -78.5t-85 -29.5zM379 939q-20 0 -32.5 -12.5t-12.5 -33.5t12.5 -34t32.5 -13t32 13t12 34t-12 33.5t-32 12.5zM609 0l-60 147h-341l-60 -147h-151l316 740h131l316 -740h-151zM256 264h246
l-123 301z" />
    <glyph glyph-name="AE" unicode="&#xc6;" horiz-adv-x="1096" 
d="M715 117h330v-117h-450l-36 147h-330l-85 -147h-160l459 740h593v-117h-455l50 -190h373v-116h-342zM297 264h233l-69 282z" />
    <glyph glyph-name="Ccedilla" unicode="&#xc7;" horiz-adv-x="768" 
d="M750 139q-99 -136 -282 -148l-28 -45q48 -1 76.5 -24.5t28.5 -59.5q0 -41 -35.5 -66.5t-95.5 -25.5q-63 0 -100 25l25 50q23 -18 61 -18q25 0 39.5 9.5t14.5 24.5q0 14 -13.5 22.5t-35.5 8.5q-19 0 -37 -8l-18 32l42 76q-158 14 -253.5 117t-95.5 263q0 170 108 274
t284 104q182 0 292 -119l-89 -90q-72 92 -201 92q-112 0 -180 -72t-68 -190q0 -119 69 -191.5t181 -72.5q140 0 216 117z" />
    <glyph glyph-name="Egrave" unicode="&#xc8;" horiz-adv-x="650" 
d="M423 819h-116l-178 161h159zM229 117h370v-117h-511v740h503v-117h-362v-190h330v-116h-330v-200z" />
    <glyph glyph-name="Eacute" unicode="&#xc9;" horiz-adv-x="650" 
d="M548 980l-178 -161h-116l136 161h158zM229 117h370v-117h-511v740h503v-117h-362v-190h330v-116h-330v-200z" />
    <glyph glyph-name="Ecircumflex" unicode="&#xca;" horiz-adv-x="650" 
d="M338 903l-70 -84h-126l131 161h130l131 -161h-125zM229 117h370v-117h-511v740h503v-117h-362v-190h330v-116h-330v-200z" />
    <glyph glyph-name="Edieresis" unicode="&#xcb;" horiz-adv-x="650" 
d="M216 828q-35 0 -58 22.5t-23 57.5t23 58t58 23t58 -23t23 -58t-23 -57.5t-58 -22.5zM461 828q-35 0 -58 22.5t-23 57.5t23 58t58 23t58 -23t23 -58t-23 -57.5t-58 -22.5zM229 117h370v-117h-511v740h503v-117h-362v-190h330v-116h-330v-200z" />
    <glyph glyph-name="Igrave" unicode="&#xcc;" horiz-adv-x="317" 
d="M126 819l-178 161h159l135 -161h-116zM88 0v740h141v-740h-141z" />
    <glyph glyph-name="Iacute" unicode="&#xcd;" horiz-adv-x="317" 
d="M73 819l136 161h158l-178 -161h-116zM88 0v740h141v-740h-141z" />
    <glyph glyph-name="Icircumflex" unicode="&#xce;" horiz-adv-x="317" 
d="M228 819l-71 84l-70 -84h-126l131 161h130l131 -161h-125zM88 0v740h141v-740h-141z" />
    <glyph glyph-name="Idieresis" unicode="&#xcf;" horiz-adv-x="317" 
d="M35 828q-35 0 -58 22.5t-23 57.5t23 58t58 23t58 -23t23 -58t-23 -57.5t-58 -22.5zM280 828q-35 0 -58 22.5t-23 57.5t23 58t58 23t58 -23t23 -58t-23 -57.5t-58 -22.5zM88 0v740h141v-740h-141z" />
    <glyph glyph-name="Eth" unicode="&#xd0;" horiz-adv-x="788" 
d="M379 740q164 0 264.5 -102t100.5 -268t-100.5 -268t-264.5 -102h-291v323h-78v97h78v320h291zM379 117q98 0 158 69.5t60 183.5t-60 183.5t-158 69.5h-150v-203h166v-97h-166v-206h150z" />
    <glyph glyph-name="Ntilde" unicode="&#xd1;" horiz-adv-x="868" 
d="M515 820q-34 0 -88 28t-73 28q-18 0 -29.5 -12.5t-11.5 -33.5h-74q0 65 31.5 104.5t82.5 39.5q36 0 88.5 -28t71.5 -28q41 0 41 46h74q0 -68 -30.5 -106t-82.5 -38zM88 0v740h88l466 -501l-3 501h141v-740h-87l-466 501l2 -501h-141z" />
    <glyph glyph-name="Ograve" unicode="&#xd2;" horiz-adv-x="863" 
d="M400 819l-178 161h159l135 -161h-116zM432 -10q-175 0 -282 104.5t-107 275.5t107 275.5t282 104.5q174 0 281 -104.5t107 -275.5t-107 -275.5t-281 -104.5zM432 107q109 0 175.5 72.5t66.5 190.5t-66.5 190.5t-175.5 72.5t-176 -72.5t-67 -190.5t67 -190.5t176 -72.5z
" />
    <glyph glyph-name="Oacute" unicode="&#xd3;" horiz-adv-x="863" 
d="M347 819l136 161h158l-178 -161h-116zM432 -10q-175 0 -282 104.5t-107 275.5t107 275.5t282 104.5q174 0 281 -104.5t107 -275.5t-107 -275.5t-281 -104.5zM432 107q109 0 175.5 72.5t66.5 190.5t-66.5 190.5t-175.5 72.5t-176 -72.5t-67 -190.5t67 -190.5t176 -72.5z
" />
    <glyph glyph-name="Ocircumflex" unicode="&#xd4;" horiz-adv-x="863" 
d="M431 903l-70 -84h-126l131 161h130l131 -161h-125zM432 750q174 0 281 -104.5t107 -275.5t-107 -275.5t-281 -104.5q-175 0 -282 104.5t-107 275.5t107 275.5t282 104.5zM432 107q109 0 175.5 72.5t66.5 190.5t-66.5 190.5t-175.5 72.5t-176 -72.5t-67 -190.5t67 -190.5
t176 -72.5z" />
    <glyph glyph-name="Otilde" unicode="&#xd5;" horiz-adv-x="863" 
d="M513 820q-34 0 -88 28t-73 28q-18 0 -29.5 -12.5t-11.5 -33.5h-74q0 65 31.5 104.5t82.5 39.5q36 0 88.5 -28t71.5 -28q41 0 41 46h74q0 -68 -30.5 -106t-82.5 -38zM432 -10q-175 0 -282 104.5t-107 275.5t107 275.5t282 104.5q174 0 281 -104.5t107 -275.5t-107 -275.5
t-281 -104.5zM432 107q109 0 175.5 72.5t66.5 190.5t-66.5 190.5t-175.5 72.5t-176 -72.5t-67 -190.5t67 -190.5t176 -72.5z" />
    <glyph glyph-name="Odieresis" unicode="&#xd6;" horiz-adv-x="863" 
d="M309 828q-35 0 -58 22.5t-23 57.5t23 58t58 23t58 -23t23 -58t-23 -57.5t-58 -22.5zM554 828q-35 0 -58 22.5t-23 57.5t23 58t58 23t58 -23t23 -58t-23 -57.5t-58 -22.5zM432 -10q-175 0 -282 104.5t-107 275.5t107 275.5t282 104.5q174 0 281 -104.5t107 -275.5
t-107 -275.5t-281 -104.5zM432 107q109 0 175.5 72.5t66.5 190.5t-66.5 190.5t-175.5 72.5t-176 -72.5t-67 -190.5t67 -190.5t176 -72.5z" />
    <glyph glyph-name="multiply" unicode="&#xd7;" horiz-adv-x="524" 
d="M473 476l-127 -127l125 -125l-84 -83l-125 125l-125 -125l-84 83l126 125l-127 127l84 83l126 -126l127 126z" />
    <glyph glyph-name="Oslash" unicode="&#xd8;" horiz-adv-x="865" 
d="M750 602q70 -96 70 -232q0 -171 -107 -275.5t-281 -104.5q-135 0 -232 64l-65 -64l-87 81l66 65q-71 97 -71 234q0 171 107 275.5t282 104.5q135 0 234 -66l66 66l86 -81zM189 370q0 -72 27 -132l356 353q-59 42 -140 42q-109 0 -176 -72.5t-67 -190.5zM432 107
q109 0 175.5 72.5t66.5 190.5q0 73 -26 130l-355 -353q58 -40 139 -40z" />
    <glyph glyph-name="Ugrave" unicode="&#xd9;" horiz-adv-x="806" 
d="M372 819l-178 161h159l135 -161h-116zM404 -10q-146 0 -235.5 80t-89.5 210v460h141v-454q0 -80 51 -129.5t133 -49.5t132 49.5t50 129.5v454h141v-460q0 -131 -89 -210.5t-234 -79.5z" />
    <glyph glyph-name="Uacute" unicode="&#xda;" horiz-adv-x="806" 
d="M319 819l136 161h158l-178 -161h-116zM404 -10q-146 0 -235.5 80t-89.5 210v460h141v-454q0 -80 51 -129.5t133 -49.5t132 49.5t50 129.5v454h141v-460q0 -131 -89 -210.5t-234 -79.5z" />
    <glyph glyph-name="Ucircumflex" unicode="&#xdb;" horiz-adv-x="806" 
d="M403 903l-70 -84h-126l131 161h130l131 -161h-125zM586 740h141v-460q0 -131 -89 -210.5t-234 -79.5q-146 0 -235.5 80t-89.5 210v460h141v-454q0 -80 51 -129.5t133 -49.5t132 49.5t50 129.5v454z" />
    <glyph glyph-name="Udieresis" unicode="&#xdc;" horiz-adv-x="806" 
d="M281 828q-35 0 -58 22.5t-23 57.5t23 58t58 23t58 -23t23 -58t-23 -57.5t-58 -22.5zM526 828q-35 0 -58 22.5t-23 57.5t23 58t58 23t58 -23t23 -58t-23 -57.5t-58 -22.5zM404 -10q-146 0 -235.5 80t-89.5 210v460h141v-454q0 -80 51 -129.5t133 -49.5t132 49.5t50 129.5
v454h141v-460q0 -131 -89 -210.5t-234 -79.5z" />
    <glyph glyph-name="Yacute" unicode="&#xdd;" horiz-adv-x="692" 
d="M556 980l-178 -161h-116l136 161h158zM531 740h150l-264 -467v-273h-141v273l-265 467h151l185 -342z" />
    <glyph glyph-name="Thorn" unicode="&#xde;" horiz-adv-x="675" 
d="M388 620q117 0 188 -65.5t71 -173.5q0 -112 -72.5 -180.5t-191.5 -68.5h-154v-132h-141v740h141v-120h159zM373 249q59 0 94 34.5t35 92.5t-35.5 93t-93.5 35h-144v-255h144z" />
    <glyph glyph-name="germandbls" unicode="&#xdf;" horiz-adv-x="627" 
d="M450 421q66 -27 103 -78.5t37 -118.5q0 -105 -68 -169.5t-180 -64.5q-49 0 -84 11l13 112q18 -6 47 -6q59 0 95 35t36 92q0 59 -38.5 94.5t-102.5 35.5v106q46 0 74 28.5t28 74.5q0 45 -28 72.5t-74 27.5q-47 0 -75 -26.5t-28 -71.5v-575h-136v588q0 91 66 146.5
t173 55.5q109 0 176 -55.5t67 -146.5q0 -113 -101 -167z" />
    <glyph glyph-name="agrave" unicode="&#xe0;" horiz-adv-x="577" 
d="M377 618h-116l-178 161h159zM283 549q104 0 167.5 -57.5t63.5 -152.5v-339h-131l-3 77q-27 -41 -70.5 -64t-93.5 -23q-84 0 -135.5 46t-51.5 121q0 78 63 125t167 47q58 0 119 -12v10q0 54 -34.5 84.5t-95.5 30.5q-74 0 -126 -43l-59 80q86 70 220 70zM255 87
q50 0 86 37.5t37 100.5q-55 11 -102 11q-48 0 -76.5 -20.5t-28.5 -55.5q0 -34 22 -53.5t62 -19.5z" />
    <glyph glyph-name="aacute" unicode="&#xe1;" horiz-adv-x="577" 
d="M502 779l-178 -161h-116l136 161h158zM283 549q104 0 167.5 -57.5t63.5 -152.5v-339h-131l-3 77q-27 -41 -70.5 -64t-93.5 -23q-84 0 -135.5 46t-51.5 121q0 78 63 125t167 47q58 0 119 -12v10q0 54 -34.5 84.5t-95.5 30.5q-74 0 -126 -43l-59 80q86 70 220 70zM255 87
q50 0 86 37.5t37 100.5q-55 11 -102 11q-48 0 -76.5 -20.5t-28.5 -55.5q0 -34 22 -53.5t62 -19.5z" />
    <glyph glyph-name="acircumflex" unicode="&#xe2;" horiz-adv-x="577" 
d="M292 702l-70 -84h-126l131 161h130l131 -161h-125zM283 549q104 0 167.5 -57.5t63.5 -152.5v-339h-131l-3 77q-27 -41 -70.5 -64t-93.5 -23q-84 0 -135.5 46t-51.5 121q0 78 63 125t167 47q58 0 119 -12v10q0 54 -34.5 84.5t-95.5 30.5q-74 0 -126 -43l-59 80
q86 70 220 70zM255 87q50 0 86 37.5t37 100.5q-55 11 -102 11q-48 0 -76.5 -20.5t-28.5 -55.5q0 -34 22 -53.5t62 -19.5z" />
    <glyph glyph-name="atilde" unicode="&#xe3;" horiz-adv-x="577" 
d="M213 675q-18 0 -29.5 -12.5t-11.5 -33.5h-74q0 65 31.5 104.5t82.5 39.5q36 0 88.5 -28t71.5 -28q41 0 41 46h74q0 -68 -30.5 -106t-82.5 -38q-34 0 -88 28t-73 28zM283 549q104 0 167.5 -57.5t63.5 -152.5v-339h-131l-3 77q-27 -41 -70.5 -64t-93.5 -23q-84 0 -135.5 46
t-51.5 121q0 78 63 125t167 47q58 0 119 -12v10q0 54 -34.5 84.5t-95.5 30.5q-74 0 -126 -43l-59 80q86 70 220 70zM255 87q50 0 86 37.5t37 100.5q-55 11 -102 11q-48 0 -76.5 -20.5t-28.5 -55.5q0 -34 22 -53.5t62 -19.5z" />
    <glyph glyph-name="adieresis" unicode="&#xe4;" horiz-adv-x="577" 
d="M170 627q-35 0 -58 22.5t-23 57.5t23 58t58 23t58 -23t23 -58t-23 -57.5t-58 -22.5zM415 627q-35 0 -58 22.5t-23 57.5t23 58t58 23t58 -23t23 -58t-23 -57.5t-58 -22.5zM283 549q104 0 167.5 -57.5t63.5 -152.5v-339h-131l-3 77q-27 -41 -70.5 -64t-93.5 -23
q-84 0 -135.5 46t-51.5 121q0 78 63 125t167 47q58 0 119 -12v10q0 54 -34.5 84.5t-95.5 30.5q-74 0 -126 -43l-59 80q86 70 220 70zM255 87q50 0 86 37.5t37 100.5q-55 11 -102 11q-48 0 -76.5 -20.5t-28.5 -55.5q0 -34 22 -53.5t62 -19.5z" />
    <glyph glyph-name="aring" unicode="&#xe5;" horiz-adv-x="577" 
d="M293 584q-53 0 -85 29.5t-32 78.5t32 78.5t85 29.5t85 -29.5t32 -78.5t-32 -78.5t-85 -29.5zM293 738q-20 0 -32.5 -12.5t-12.5 -33.5t12.5 -34t32.5 -13t32 13t12 34t-12 33.5t-32 12.5zM283 549q104 0 167.5 -57.5t63.5 -152.5v-339h-131l-3 77q-27 -41 -70.5 -64
t-93.5 -23q-84 0 -135.5 46t-51.5 121q0 78 63 125t167 47q58 0 119 -12v10q0 54 -34.5 84.5t-95.5 30.5q-74 0 -126 -43l-59 80q86 70 220 70zM255 87q50 0 86 37.5t37 100.5q-55 11 -102 11q-48 0 -76.5 -20.5t-28.5 -55.5q0 -34 22 -53.5t62 -19.5z" />
    <glyph glyph-name="ae" unicode="&#xe6;" horiz-adv-x="942" 
d="M906 278q0 -33 -3 -57h-391q16 -124 130 -124q79 0 132 64l104 -53q-35 -55 -94 -86.5t-131 -31.5q-137 0 -211 101q-31 -48 -86.5 -74.5t-120.5 -26.5q-92 0 -149 46t-57 121q0 78 63 125t167 47q58 0 119 -12v10q0 54 -34.5 84.5t-95.5 30.5q-74 0 -126 -43l-59 80
q82 70 210 70q119 0 182 -86q73 86 192 86q116 0 187.5 -74.5t71.5 -196.5zM637 442q-108 0 -125 -129h252q-8 62 -40.5 95.5t-86.5 33.5zM255 87q50 0 86 37.5t37 100.5q-55 11 -102 11q-48 0 -76.5 -20.5t-28.5 -55.5q0 -34 22 -53.5t62 -19.5z" />
    <glyph glyph-name="ccedilla" unicode="&#xe7;" horiz-adv-x="548" 
d="M325 -54q48 -1 76.5 -24.5t28.5 -59.5q0 -41 -35.5 -66.5t-95.5 -25.5q-63 0 -100 25l25 50q23 -18 61 -18q25 0 39.5 9.5t14.5 24.5q0 14 -13.5 22.5t-35.5 8.5q-19 0 -37 -8l-18 32l43 77q-110 14 -175 88.5t-65 188.5q0 125 80 202t210 77q106 0 185 -62l-77 -92
q-44 38 -106 38q-68 0 -109.5 -45t-41.5 -118q0 -74 41.5 -118.5t110.5 -44.5q77 0 122 48l77 -90q-66 -66 -177 -74z" />
    <glyph glyph-name="egrave" unicode="&#xe8;" horiz-adv-x="612" 
d="M392 618h-116l-178 161h159zM577 278q0 -25 -4 -57h-390q16 -124 129 -124q79 0 132 64l105 -53q-37 -55 -98.5 -86.5t-136.5 -31.5q-124 0 -199.5 76t-75.5 200q0 128 74 205.5t195 77.5t195 -74.5t74 -196.5zM308 442q-108 0 -125 -129h251q-8 62 -40 95.5t-86 33.5z
" />
    <glyph glyph-name="eacute" unicode="&#xe9;" horiz-adv-x="612" 
d="M517 779l-178 -161h-116l136 161h158zM577 278q0 -25 -4 -57h-390q16 -124 129 -124q79 0 132 64l105 -53q-37 -55 -98.5 -86.5t-136.5 -31.5q-124 0 -199.5 76t-75.5 200q0 128 74 205.5t195 77.5t195 -74.5t74 -196.5zM308 442q-108 0 -125 -129h251q-8 62 -40 95.5
t-86 33.5z" />
    <glyph glyph-name="ecircumflex" unicode="&#xea;" horiz-adv-x="612" 
d="M307 702l-70 -84h-126l131 161h130l131 -161h-125zM577 278q0 -25 -4 -57h-390q16 -124 129 -124q79 0 132 64l105 -53q-37 -55 -98.5 -86.5t-136.5 -31.5q-124 0 -199.5 76t-75.5 200q0 128 74 205.5t195 77.5t195 -74.5t74 -196.5zM308 442q-108 0 -125 -129h251
q-8 62 -40 95.5t-86 33.5z" />
    <glyph glyph-name="edieresis" unicode="&#xeb;" horiz-adv-x="612" 
d="M185 627q-35 0 -58 22.5t-23 57.5t23 58t58 23t58 -23t23 -58t-23 -57.5t-58 -22.5zM430 627q-35 0 -58 22.5t-23 57.5t23 58t58 23t58 -23t23 -58t-23 -57.5t-58 -22.5zM577 278q0 -25 -4 -57h-390q16 -124 129 -124q79 0 132 64l105 -53q-37 -55 -98.5 -86.5
t-136.5 -31.5q-124 0 -199.5 76t-75.5 200q0 128 74 205.5t195 77.5t195 -74.5t74 -196.5zM308 442q-108 0 -125 -129h251q-8 62 -40 95.5t-86 33.5z" />
    <glyph glyph-name="igrave" unicode="&#xec;" horiz-adv-x="275" 
d="M106 618l-178 161h159l135 -161h-116zM70 0v539h136v-539h-136z" />
    <glyph glyph-name="iacute" unicode="&#xed;" horiz-adv-x="275" 
d="M53 618l136 161h158l-178 -161h-116zM70 0v539h136v-539h-136z" />
    <glyph glyph-name="icircumflex" unicode="&#xee;" horiz-adv-x="275" 
d="M202 779l131 -161h-125l-71 84l-70 -84h-126l131 161h130zM70 0v539h136v-539h-136z" />
    <glyph glyph-name="idieresis" unicode="&#xef;" horiz-adv-x="275" 
d="M15 627q-35 0 -58 22.5t-23 57.5t23 58t58 23t58 -23t23 -58t-23 -57.5t-58 -22.5zM260 627q-35 0 -58 22.5t-23 57.5t23 58t58 23t58 -23t23 -58t-23 -57.5t-58 -22.5zM70 0v539h136v-539h-136z" />
    <glyph glyph-name="eth" unicode="&#xf0;" horiz-adv-x="657" 
d="M407 697q209 -166 209 -388q0 -144 -79.5 -231.5t-208.5 -87.5q-131 0 -210 77t-79 204q0 120 73.5 194.5t184.5 74.5q59 0 102 -21q-37 54 -105 107l-58 -37l-75 49l59 39q-29 19 -70 39l114 74q24 -13 68 -39l60 39l74 -55zM328 107q65 0 106 45t41 118t-41 118
t-106 45q-67 0 -107.5 -44.5t-40.5 -118.5t40.5 -118.5t107.5 -44.5z" />
    <glyph glyph-name="ntilde" unicode="&#xf1;" horiz-adv-x="655" 
d="M253 675q-18 0 -29.5 -12.5t-11.5 -33.5h-74q0 65 31.5 104.5t82.5 39.5q36 0 88.5 -28t71.5 -28q41 0 41 46h74q0 -68 -30.5 -106t-82.5 -38q-34 0 -88 28t-73 28zM378 549q97 0 156 -57.5t59 -152.5v-339h-136v317q0 52 -34.5 84t-91.5 32t-91.5 -32t-34.5 -84v-317
h-136v539h131l2 -68q63 78 176 78z" />
    <glyph glyph-name="ograve" unicode="&#xf2;" horiz-adv-x="653" 
d="M295 618l-178 161h159l135 -161h-116zM327 -10q-130 0 -209.5 77t-79.5 203q0 125 79.5 202t209.5 77q129 0 208.5 -77t79.5 -202q0 -126 -79.5 -203t-208.5 -77zM327 107q66 0 106.5 45t40.5 118t-40.5 118t-106.5 45q-67 0 -107.5 -44.5t-40.5 -118.5t40.5 -118.5
t107.5 -44.5z" />
    <glyph glyph-name="oacute" unicode="&#xf3;" horiz-adv-x="653" 
d="M242 618l136 161h158l-178 -161h-116zM327 -10q-130 0 -209.5 77t-79.5 203q0 125 79.5 202t209.5 77q129 0 208.5 -77t79.5 -202q0 -126 -79.5 -203t-208.5 -77zM327 107q66 0 106.5 45t40.5 118t-40.5 118t-106.5 45q-67 0 -107.5 -44.5t-40.5 -118.5t40.5 -118.5
t107.5 -44.5z" />
    <glyph glyph-name="ocircumflex" unicode="&#xf4;" horiz-adv-x="653" 
d="M326 702l-70 -84h-126l131 161h130l131 -161h-125zM327 549q129 0 208.5 -77t79.5 -202q0 -126 -79.5 -203t-208.5 -77q-130 0 -209.5 77t-79.5 203q0 125 79.5 202t209.5 77zM327 107q66 0 106.5 45t40.5 118t-40.5 118t-106.5 45q-67 0 -107.5 -44.5t-40.5 -118.5
t40.5 -118.5t107.5 -44.5z" />
    <glyph glyph-name="otilde" unicode="&#xf5;" horiz-adv-x="653" 
d="M408 619q-34 0 -88 28t-73 28q-18 0 -29.5 -12.5t-11.5 -33.5h-74q0 65 31.5 104.5t82.5 39.5q36 0 88.5 -28t71.5 -28q41 0 41 46h74q0 -68 -30.5 -106t-82.5 -38zM327 -10q-130 0 -209.5 77t-79.5 203q0 125 79.5 202t209.5 77q129 0 208.5 -77t79.5 -202
q0 -126 -79.5 -203t-208.5 -77zM327 107q66 0 106.5 45t40.5 118t-40.5 118t-106.5 45q-67 0 -107.5 -44.5t-40.5 -118.5t40.5 -118.5t107.5 -44.5z" />
    <glyph glyph-name="odieresis" unicode="&#xf6;" horiz-adv-x="653" 
d="M204 627q-35 0 -58 22.5t-23 57.5t23 58t58 23t58 -23t23 -58t-23 -57.5t-58 -22.5zM449 627q-35 0 -58 22.5t-23 57.5t23 58t58 23t58 -23t23 -58t-23 -57.5t-58 -22.5zM327 -10q-130 0 -209.5 77t-79.5 203q0 125 79.5 202t209.5 77q129 0 208.5 -77t79.5 -202
q0 -126 -79.5 -203t-208.5 -77zM327 107q66 0 106.5 45t40.5 118t-40.5 118t-106.5 45q-67 0 -107.5 -44.5t-40.5 -118.5t40.5 -118.5t107.5 -44.5z" />
    <glyph glyph-name="divide" unicode="&#xf7;" horiz-adv-x="576" 
d="M289 459q-35 0 -58.5 23t-23.5 58t23.5 58t58.5 23t57.5 -23t22.5 -58t-22.5 -58t-57.5 -23zM51 294v112h474v-112h-474zM289 81q-35 0 -58.5 23t-23.5 58t23.5 58t58.5 23t57.5 -23t22.5 -58t-22.5 -58t-57.5 -23z" />
    <glyph glyph-name="oslash" unicode="&#xf8;" horiz-adv-x="655" 
d="M615 469l-43 -42q43 -66 43 -157q0 -126 -79.5 -203t-208.5 -77q-91 0 -162 41l-42 -41l-83 81l41 40q-43 68 -43 159q0 125 79.5 202t209.5 77q92 0 162 -42l43 42zM179 270q0 -26 7 -57l210 204q-32 16 -69 16q-67 0 -107.5 -44.5t-40.5 -118.5zM474 270q0 31 -7 55
l-208 -203q30 -15 68 -15q66 0 106.5 45t40.5 118z" />
    <glyph glyph-name="ugrave" unicode="&#xf9;" horiz-adv-x="635" 
d="M399 618h-116l-178 161h159zM430 539h136v-539h-131l-2 66q-59 -76 -166 -76q-92 0 -148.5 58t-56.5 153v338h136v-317q0 -52 32 -83.5t85 -31.5q52 0 83.5 31.5t31.5 83.5v317z" />
    <glyph glyph-name="uacute" unicode="&#xfa;" horiz-adv-x="635" 
d="M524 779l-178 -161h-116l136 161h158zM430 539h136v-539h-131l-2 66q-59 -76 -166 -76q-92 0 -148.5 58t-56.5 153v338h136v-317q0 -52 32 -83.5t85 -31.5q52 0 83.5 31.5t31.5 83.5v317z" />
    <glyph glyph-name="ucircumflex" unicode="&#xfb;" horiz-adv-x="635" 
d="M314 702l-70 -84h-126l131 161h130l131 -161h-125zM430 539h136v-539h-131l-2 66q-59 -76 -166 -76q-92 0 -148.5 58t-56.5 153v338h136v-317q0 -52 32 -83.5t85 -31.5q52 0 83.5 31.5t31.5 83.5v317z" />
    <glyph glyph-name="udieresis" unicode="&#xfc;" horiz-adv-x="635" 
d="M192 627q-35 0 -58 22.5t-23 57.5t23 58t58 23t58 -23t23 -58t-23 -57.5t-58 -22.5zM437 627q-35 0 -58 22.5t-23 57.5t23 58t58 23t58 -23t23 -58t-23 -57.5t-58 -22.5zM430 539h136v-539h-131l-2 66q-59 -76 -166 -76q-92 0 -148.5 58t-56.5 153v338h136v-317
q0 -52 32 -83.5t85 -31.5q52 0 83.5 31.5t31.5 83.5v317z" />
    <glyph glyph-name="yacute" unicode="&#xfd;" horiz-adv-x="603" 
d="M220 618l136 161h158l-178 -161h-116zM151 -230q-47 0 -80 15l14 111q18 -9 43 -9q30 0 47.5 16t35.5 52l27 57l-231 527h149l152 -380l142 380h148l-254 -601q-36 -86 -78 -127t-115 -41z" />
    <glyph glyph-name="thorn" unicode="&#xfe;" horiz-adv-x="680" 
d="M384 549q111 0 184.5 -77t73.5 -200q0 -125 -74 -203.5t-184 -78.5q-118 0 -179 88v-298h-136v1000h136v-318q61 87 179 87zM353 107q66 0 107 45t41 119q0 73 -41 117.5t-107 44.5q-67 0 -107.5 -44.5t-40.5 -118.5t40.5 -118.5t107.5 -44.5z" />
    <glyph glyph-name="ydieresis" unicode="&#xff;" horiz-adv-x="603" 
d="M182 627q-35 0 -58 22.5t-23 57.5t23 58t58 23t58 -23t23 -58t-23 -57.5t-58 -22.5zM427 627q-35 0 -58 22.5t-23 57.5t23 58t58 23t58 -23t23 -58t-23 -57.5t-58 -22.5zM151 -230q-47 0 -80 15l14 111q18 -9 43 -9q30 0 47.5 16t35.5 52l27 57l-231 527h149l152 -380
l142 380h148l-254 -601q-36 -86 -78 -127t-115 -41z" />
    <glyph glyph-name="Amacron" unicode="&#x100;" horiz-adv-x="758" 
d="M557 932v-107h-356v107h356zM609 0l-60 147h-341l-60 -147h-151l316 740h131l316 -740h-151zM256 264h246l-123 301z" />
    <glyph glyph-name="amacron" unicode="&#x101;" horiz-adv-x="577" 
d="M471 731v-107h-356v107h356zM283 549q104 0 167.5 -57.5t63.5 -152.5v-339h-131l-3 77q-27 -41 -70.5 -64t-93.5 -23q-84 0 -135.5 46t-51.5 121q0 78 63 125t167 47q58 0 119 -12v10q0 54 -34.5 84.5t-95.5 30.5q-74 0 -126 -43l-59 80q86 70 220 70zM255 87
q50 0 86 37.5t37 100.5q-55 11 -102 11q-48 0 -76.5 -20.5t-28.5 -55.5q0 -34 22 -53.5t62 -19.5z" />
    <glyph glyph-name="Abreve" unicode="&#x102;" horiz-adv-x="758" 
d="M379 810q-82 0 -131.5 46.5t-49.5 123.5h103q0 -40 21.5 -65.5t56.5 -25.5q36 0 57.5 25t21.5 66h103q0 -77 -50 -123.5t-132 -46.5zM609 0l-60 147h-341l-60 -147h-151l316 740h131l316 -740h-151zM256 264h246l-123 301z" />
    <glyph glyph-name="abreve" unicode="&#x103;" horiz-adv-x="577" 
d="M293 609q-82 0 -131.5 46.5t-49.5 123.5h103q0 -40 21.5 -65.5t56.5 -25.5q36 0 57.5 25t21.5 66h103q0 -77 -50 -123.5t-132 -46.5zM283 549q104 0 167.5 -57.5t63.5 -152.5v-339h-131l-3 77q-27 -41 -70.5 -64t-93.5 -23q-84 0 -135.5 46t-51.5 121q0 78 63 125t167 47
q58 0 119 -12v10q0 54 -34.5 84.5t-95.5 30.5q-74 0 -126 -43l-59 80q86 70 220 70zM255 87q50 0 86 37.5t37 100.5q-55 11 -102 11q-48 0 -76.5 -20.5t-28.5 -55.5q0 -34 22 -53.5t62 -19.5z" />
    <glyph glyph-name="Aogonek" unicode="&#x104;" horiz-adv-x="758" 
d="M751 -135l12 -67q-40 -28 -93 -28q-46 0 -73.5 24.5t-27.5 64.5q0 72 88 141h-48l-60 147h-341l-60 -147h-151l316 740h131l316 -740q-93 -59 -93 -119q0 -15 10 -24t26 -9q28 0 48 17zM256 264h246l-123 301z" />
    <glyph glyph-name="aogonek" unicode="&#x105;" horiz-adv-x="577" 
d="M505 -135l12 -67q-40 -28 -93 -28q-46 0 -73.5 24.5t-27.5 64.5q0 72 91 141h-31l-3 77q-27 -41 -70.5 -64t-93.5 -23q-84 0 -135.5 46t-51.5 121q0 78 63 125t167 47q58 0 119 -12v10q0 54 -34.5 84.5t-95.5 30.5q-74 0 -126 -43l-59 80q86 70 220 70q104 0 167.5 -57.5
t63.5 -152.5v-339q-93 -59 -93 -119q0 -15 10 -24t26 -9q28 0 48 17zM255 87q50 0 86 37.5t37 100.5q-55 11 -102 11q-48 0 -76.5 -20.5t-28.5 -55.5q0 -34 22 -53.5t62 -19.5z" />
    <glyph glyph-name="Cacute" unicode="&#x106;" horiz-adv-x="768" 
d="M341 819l136 161h158l-178 -161h-116zM436 -10q-176 0 -284.5 105t-108.5 277q0 170 108 274t284 104q182 0 292 -119l-89 -90q-72 92 -201 92q-112 0 -180 -72t-68 -190q0 -119 69 -191.5t181 -72.5q140 0 216 117l95 -85q-109 -149 -314 -149z" />
    <glyph glyph-name="cacute" unicode="&#x107;" horiz-adv-x="548" 
d="M230 618l136 161h158l-178 -161h-116zM325 -10q-129 0 -208 77t-79 203q0 125 80 202t210 77q106 0 185 -62l-77 -92q-44 38 -106 38q-68 0 -109.5 -45t-41.5 -118q0 -74 41.5 -118.5t110.5 -44.5q77 0 122 48l77 -90q-75 -75 -205 -75z" />
    <glyph glyph-name="Cdotaccent" unicode="&#x10a;" horiz-adv-x="768" 
d="M426 828q-35 0 -58 22.5t-23 57.5t23 58t58 23t58 -23t23 -58t-23 -57.5t-58 -22.5zM436 -10q-176 0 -284.5 105t-108.5 277q0 170 108 274t284 104q182 0 292 -119l-89 -90q-72 92 -201 92q-112 0 -180 -72t-68 -190q0 -119 69 -191.5t181 -72.5q140 0 216 117l95 -85
q-109 -149 -314 -149z" />
    <glyph glyph-name="cdotaccent" unicode="&#x10b;" horiz-adv-x="548" 
d="M315 627q-35 0 -58 22.5t-23 57.5t23 58t58 23t58 -23t23 -58t-23 -57.5t-58 -22.5zM325 -10q-129 0 -208 77t-79 203q0 125 80 202t210 77q106 0 185 -62l-77 -92q-44 38 -106 38q-68 0 -109.5 -45t-41.5 -118q0 -74 41.5 -118.5t110.5 -44.5q77 0 122 48l77 -90
q-75 -75 -205 -75z" />
    <glyph glyph-name="Ccaron" unicode="&#x10c;" horiz-adv-x="768" 
d="M490 819h-130l-131 161h126l70 -84l71 84h125zM655 224l95 -85q-109 -149 -314 -149q-176 0 -284.5 105t-108.5 277q0 170 108 274t284 104q182 0 292 -119l-89 -90q-72 92 -201 92q-112 0 -180 -72t-68 -190q0 -119 69 -191.5t181 -72.5q140 0 216 117z" />
    <glyph glyph-name="ccaron" unicode="&#x10d;" horiz-adv-x="548" 
d="M379 618h-130l-131 161h126l70 -84l71 84h125zM453 155l77 -90q-75 -75 -205 -75q-129 0 -208 77t-79 203q0 125 80 202t210 77q106 0 185 -62l-77 -92q-44 38 -106 38q-68 0 -109.5 -45t-41.5 -118q0 -74 41.5 -118.5t110.5 -44.5q77 0 122 48z" />
    <glyph glyph-name="Dcaron" unicode="&#x10e;" horiz-adv-x="788" 
d="M403 819h-130l-131 161h126l70 -84l71 84h125zM379 740q164 0 264.5 -102t100.5 -268t-100.5 -268t-264.5 -102h-291v740h291zM379 117q98 0 158 69.5t60 183.5t-60 183.5t-158 69.5h-150v-506h150z" />
    <glyph glyph-name="dcaron" unicode="&#x10f;" horiz-adv-x="697" 
d="M475 461v319h136v-780h-131l-3 81q-61 -91 -181 -91q-111 0 -184.5 77t-73.5 200q0 125 73.5 203.5t184.5 78.5q118 0 179 -88zM707 780h123l-68 -187h-103zM327 107q66 0 107 45t41 118t-41 118t-107 45q-67 0 -107.5 -45t-40.5 -119q0 -73 40.5 -117.5t107.5 -44.5z
" />
    <glyph glyph-name="Dcroat" unicode="&#x110;" horiz-adv-x="788" 
d="M379 740q164 0 264.5 -102t100.5 -268t-100.5 -268t-264.5 -102h-291v323h-78v97h78v320h291zM379 117q98 0 158 69.5t60 183.5t-60 183.5t-158 69.5h-150v-203h166v-97h-166v-206h150z" />
    <glyph glyph-name="dcroat" unicode="&#x111;" horiz-adv-x="680" 
d="M688 703v-97h-77v-606h-131l-3 81q-61 -91 -181 -91q-111 0 -184.5 77t-73.5 200q0 125 73.5 203.5t184.5 78.5q118 0 179 -88v145h-172v97h172v77h136v-77h77zM327 107q66 0 107 45t41 118t-41 118t-107 45q-67 0 -107.5 -45t-40.5 -119q0 -73 40.5 -117.5t107.5 -44.5z
" />
    <glyph glyph-name="Emacron" unicode="&#x112;" horiz-adv-x="650" 
d="M517 932v-107h-356v107h356zM229 117h370v-117h-511v740h503v-117h-362v-190h330v-116h-330v-200z" />
    <glyph glyph-name="emacron" unicode="&#x113;" horiz-adv-x="612" 
d="M486 731v-107h-356v107h356zM577 278q0 -25 -4 -57h-390q16 -124 129 -124q79 0 132 64l105 -53q-37 -55 -98.5 -86.5t-136.5 -31.5q-124 0 -199.5 76t-75.5 200q0 128 74 205.5t195 77.5t195 -74.5t74 -196.5zM308 442q-108 0 -125 -129h251q-8 62 -40 95.5t-86 33.5z
" />
    <glyph glyph-name="Edotaccent" unicode="&#x116;" horiz-adv-x="650" 
d="M339 828q-35 0 -58 22.5t-23 57.5t23 58t58 23t58 -23t23 -58t-23 -57.5t-58 -22.5zM229 117h370v-117h-511v740h503v-117h-362v-190h330v-116h-330v-200z" />
    <glyph glyph-name="edotaccent" unicode="&#x117;" horiz-adv-x="612" 
d="M308 627q-35 0 -58 22.5t-23 57.5t23 58t58 23t58 -23t23 -58t-23 -57.5t-58 -22.5zM577 278q0 -25 -4 -57h-390q16 -124 129 -124q79 0 132 64l105 -53q-37 -55 -98.5 -86.5t-136.5 -31.5q-124 0 -199.5 76t-75.5 200q0 128 74 205.5t195 77.5t195 -74.5t74 -196.5z
M308 442q-108 0 -125 -129h251q-8 62 -40 95.5t-86 33.5z" />
    <glyph glyph-name="Eogonek" unicode="&#x118;" horiz-adv-x="650" 
d="M590 -135l12 -67q-40 -28 -93 -28q-46 0 -73.5 24.5t-27.5 64.5q0 72 91 141h-411v740h503v-117h-362v-190h330v-116h-330v-200h370v-117q-93 -59 -93 -119q0 -15 10 -24t26 -9q28 0 48 17z" />
    <glyph glyph-name="eogonek" unicode="&#x119;" horiz-adv-x="612" 
d="M577 278q0 -25 -4 -57h-390q16 -124 129 -124q79 0 132 64l105 -53q-55 -82 -155 -108q-93 -59 -93 -119q0 -15 10 -24t26 -9q28 0 48 17l12 -67q-40 -28 -93 -28q-46 0 -73.5 24.5t-27.5 64.5q0 68 80 132q-111 10 -177.5 84.5t-66.5 190.5q0 128 74 205.5t195 77.5
t195 -74.5t74 -196.5zM308 442q-108 0 -125 -129h251q-8 62 -40 95.5t-86 33.5z" />
    <glyph glyph-name="Ecaron" unicode="&#x11a;" horiz-adv-x="650" 
d="M403 819h-130l-131 161h126l70 -84l71 84h125zM229 117h370v-117h-511v740h503v-117h-362v-190h330v-116h-330v-200z" />
    <glyph glyph-name="ecaron" unicode="&#x11b;" horiz-adv-x="612" 
d="M372 618h-130l-131 161h126l70 -84l71 84h125zM577 278q0 -25 -4 -57h-390q16 -124 129 -124q79 0 132 64l105 -53q-37 -55 -98.5 -86.5t-136.5 -31.5q-124 0 -199.5 76t-75.5 200q0 128 74 205.5t195 77.5t195 -74.5t74 -196.5zM308 442q-108 0 -125 -129h251
q-8 62 -40 95.5t-86 33.5z" />
    <glyph glyph-name="Gbreve" unicode="&#x11e;" horiz-adv-x="816" 
d="M425 810q-82 0 -131.5 46.5t-49.5 123.5h103q0 -40 21.5 -65.5t56.5 -25.5q36 0 57.5 25t21.5 66h103q0 -77 -50 -123.5t-132 -46.5zM788 417q2 -32 2 -47q0 -172 -99 -276t-266 -104q-172 0 -276.5 104.5t-104.5 275.5t104 275.5t277 104.5q159 0 262 -82l-93 -88
q-57 53 -167 53q-107 0 -172 -72.5t-65 -190.5q0 -119 65 -191t171 -72q92 0 149.5 52.5t66.5 140.5h-191v117h337z" />
    <glyph glyph-name="gbreve" unicode="&#x11f;" horiz-adv-x="680" 
d="M337 609q-82 0 -131.5 46.5t-49.5 123.5h103q0 -40 21.5 -65.5t56.5 -25.5q36 0 57.5 25t21.5 66h103q0 -77 -50 -123.5t-132 -46.5zM481 539h131v-488q0 -127 -87.5 -204t-231.5 -77q-148 0 -240 68l30 107q85 -58 206 -58q84 0 135.5 45t51.5 120v26q-61 -88 -179 -88
q-111 0 -184.5 78.5t-73.5 203.5q0 123 73.5 200t184.5 77q120 0 181 -91zM328 107q66 0 107 45t41 118t-41 118t-107 45q-67 0 -107.5 -44.5t-40.5 -117.5q0 -74 40.5 -119t107.5 -45z" />
    <glyph glyph-name="Gdotaccent" unicode="&#x120;" horiz-adv-x="816" 
d="M425 828q-35 0 -58 22.5t-23 57.5t23 58t58 23t58 -23t23 -58t-23 -57.5t-58 -22.5zM788 417q2 -32 2 -47q0 -172 -99 -276t-266 -104q-172 0 -276.5 104.5t-104.5 275.5t104 275.5t277 104.5q159 0 262 -82l-93 -88q-57 53 -167 53q-107 0 -172 -72.5t-65 -190.5
q0 -119 65 -191t171 -72q92 0 149.5 52.5t66.5 140.5h-191v117h337z" />
    <glyph glyph-name="gdotaccent" unicode="&#x121;" horiz-adv-x="680" 
d="M337 627q-35 0 -58 22.5t-23 57.5t23 58t58 23t58 -23t23 -58t-23 -57.5t-58 -22.5zM481 539h131v-488q0 -127 -87.5 -204t-231.5 -77q-148 0 -240 68l30 107q85 -58 206 -58q84 0 135.5 45t51.5 120v26q-61 -88 -179 -88q-111 0 -184.5 78.5t-73.5 203.5q0 123 73.5 200
t184.5 77q120 0 181 -91zM328 107q66 0 107 45t41 118t-41 118t-107 45q-67 0 -107.5 -44.5t-40.5 -117.5q0 -74 40.5 -119t107.5 -45z" />
    <glyph glyph-name="Gcommaaccent" unicode="&#x122;" horiz-adv-x="816" 
d="M788 417q2 -32 2 -47q0 -172 -99 -276t-266 -104q-172 0 -276.5 104.5t-104.5 275.5t104 275.5t277 104.5q159 0 262 -82l-93 -88q-57 53 -167 53q-107 0 -172 -72.5t-65 -190.5q0 -119 65 -191t171 -72q92 0 149.5 52.5t66.5 140.5h-191v117h337zM312 -220l43 168h122
l-62 -168h-103z" />
    <glyph glyph-name="gcommaaccent" unicode="&#x123;" horiz-adv-x="680" 
d="M433 780l-48 -187h-123l68 187h103zM481 539h131v-488q0 -127 -87.5 -204t-231.5 -77q-148 0 -240 68l30 107q85 -58 206 -58q84 0 135.5 45t51.5 120v26q-61 -88 -179 -88q-111 0 -184.5 78.5t-73.5 203.5q0 123 73.5 200t184.5 77q120 0 181 -91zM328 107q66 0 107 45
t41 118t-41 118t-107 45q-67 0 -107.5 -44.5t-40.5 -117.5q0 -74 40.5 -119t107.5 -45z" />
    <glyph glyph-name="Hbar" unicode="&#x126;" horiz-adv-x="854" 
d="M838 638v-97h-72v-541h-141v319h-396v-319h-141v541h-73v97h73v102h141v-102h396v102h141v-102h72zM625 435v106h-396v-106h396z" />
    <glyph glyph-name="hbar" unicode="&#x127;" horiz-adv-x="655" 
d="M378 549q97 0 156 -57.5t59 -152.5v-339h-136v317q0 52 -34.5 84t-91.5 32t-91.5 -32t-34.5 -84v-317h-136v606h-77v97h77v77h136v-77h172v-97h-172v-132q61 75 173 75z" />
    <glyph glyph-name="Imacron" unicode="&#x12a;" horiz-adv-x="317" 
d="M-20 825v107h356v-107h-356zM88 0v740h141v-740h-141z" />
    <glyph glyph-name="imacron" unicode="&#x12b;" horiz-adv-x="275" 
d="M-40 624v107h356v-107h-356zM70 0v539h136v-539h-136z" />
    <glyph glyph-name="Iogonek" unicode="&#x12e;" horiz-adv-x="317" 
d="M220 -135l12 -67q-40 -28 -93 -28q-46 0 -73.5 24.5t-27.5 64.5q0 72 91 141h-41v740h141v-740q-93 -59 -93 -119q0 -15 10 -24t26 -9q28 0 48 17z" />
    <glyph glyph-name="iogonek" unicode="&#x12f;" horiz-adv-x="275" 
d="M138 627q-35 0 -58 22.5t-23 57.5t23 58t58 23t58 -23t23 -58t-23 -57.5t-58 -22.5zM149 -152q28 0 48 17l12 -67q-40 -28 -93 -28q-46 0 -73.5 24.5t-27.5 64.5q0 72 91 141h-36v539h136v-539q-93 -59 -93 -119q0 -15 10 -24t26 -9z" />
    <glyph glyph-name="Idotaccent" unicode="&#x130;" horiz-adv-x="317" 
d="M158 828q-35 0 -58 22.5t-23 57.5t23 58t58 23t58 -23t23 -58t-23 -57.5t-58 -22.5zM88 0v740h141v-740h-141z" />
    <glyph glyph-name="dotlessi" unicode="&#x131;" horiz-adv-x="275" 
d="M70 0v539h136v-539h-136z" />
    <glyph glyph-name="Kcommaaccent" unicode="&#x136;" horiz-adv-x="707" 
d="M415 379l297 -379h-169l-246 320h-68v-320h-141v740h141v-304h65l235 304h169zM270 -220l43 168h122l-62 -168h-103z" />
    <glyph glyph-name="kcommaaccent" unicode="&#x137;" horiz-adv-x="606" 
d="M363 284l252 -284h-172l-192 227h-46v-227h-136v780h136v-441h47l178 200h172zM212 -220l43 168h122l-62 -168h-103z" />
    <glyph glyph-name="Lacute" unicode="&#x139;" horiz-adv-x="571" 
d="M367 980l-178 -161h-116l136 161h158zM229 117h327v-117h-468v740h141v-623z" />
    <glyph glyph-name="lacute" unicode="&#x13a;" horiz-adv-x="276" 
d="M54 859l136 161h158l-178 -161h-116zM70 0v780h136v-780h-136z" />
    <glyph glyph-name="Lcommaaccent" unicode="&#x13b;" horiz-adv-x="571" 
d="M229 117h327v-117h-468v740h141v-623zM195 -220l43 168h122l-62 -168h-103z" />
    <glyph glyph-name="lcommaaccent" unicode="&#x13c;" horiz-adv-x="276" 
d="M70 0v780h136v-780h-136zM34 -220l43 168h122l-62 -168h-103z" />
    <glyph glyph-name="Lcaron" unicode="&#x13d;" horiz-adv-x="569" 
d="M229 117h327v-117h-468v740h141v-623zM540 740l-73 -215h-123l54 215h142z" />
    <glyph glyph-name="lcaron" unicode="&#x13e;" horiz-adv-x="292" 
d="M70 0v780h136v-780h-136zM254 593l48 187h123l-68 -187h-103z" />
    <glyph glyph-name="Lslash" unicode="&#x141;" horiz-adv-x="571" 
d="M229 117h327v-117h-468v274l-57 -40v110l57 40v356h141v-275l104 73v-109l-104 -73v-239z" />
    <glyph glyph-name="lslash" unicode="&#x142;" horiz-adv-x="276" 
d="M290 538v-109l-84 -59v-370h-136v292l-82 -58v110l82 58v378h136v-301z" />
    <glyph glyph-name="Nacute" unicode="&#x143;" horiz-adv-x="868" 
d="M349 819l136 161h158l-178 -161h-116zM88 0v740h88l466 -501l-3 501h141v-740h-87l-466 501l2 -501h-141z" />
    <glyph glyph-name="nacute" unicode="&#x144;" horiz-adv-x="655" 
d="M542 779l-178 -161h-116l136 161h158zM378 549q97 0 156 -57.5t59 -152.5v-339h-136v317q0 52 -34.5 84t-91.5 32t-91.5 -32t-34.5 -84v-317h-136v539h131l2 -68q63 78 176 78z" />
    <glyph glyph-name="Ncommaaccent" unicode="&#x145;" horiz-adv-x="868" 
d="M88 0v740h88l466 -501l-3 501h141v-740h-87l-466 501l2 -501h-141zM330 -220l43 168h122l-62 -168h-103z" />
    <glyph glyph-name="ncommaaccent" unicode="&#x146;" horiz-adv-x="655" 
d="M378 549q97 0 156 -57.5t59 -152.5v-339h-136v317q0 52 -34.5 84t-91.5 32t-91.5 -32t-34.5 -84v-317h-136v539h131l2 -68q63 78 176 78zM226 -220l43 168h122l-62 -168h-103z" />
    <glyph glyph-name="Ncaron" unicode="&#x147;" horiz-adv-x="868" 
d="M498 819h-130l-131 161h126l70 -84l71 84h125zM639 740h141v-740h-87l-466 501l2 -501h-141v740h88l466 -501z" />
    <glyph glyph-name="ncaron" unicode="&#x148;" horiz-adv-x="655" 
d="M397 618h-130l-131 161h126l70 -84l71 84h125zM378 549q97 0 156 -57.5t59 -152.5v-339h-136v317q0 52 -34.5 84t-91.5 32t-91.5 -32t-34.5 -84v-317h-136v539h131l2 -68q63 78 176 78z" />
    <glyph glyph-name="Eng" unicode="&#x14a;" horiz-adv-x="868" 
d="M639 740h141v-800q0 -76 -54 -123t-140 -47q-93 0 -146 58l37 95q35 -36 82 -36q37 0 58.5 21t21.5 57v93l-412 443l2 -501h-141v740h88l466 -501z" />
    <glyph glyph-name="eng" unicode="&#x14b;" horiz-adv-x="655" 
d="M378 549q97 0 156 -57.5t59 -152.5v-399q0 -76 -47 -123t-124 -47q-62 0 -105 17l10 106q20 -6 54 -6t55 23t21 61v346q0 52 -34.5 84t-91.5 32t-91.5 -32t-34.5 -84v-317h-136v539h131l2 -68q63 78 176 78z" />
    <glyph glyph-name="Omacron" unicode="&#x14c;" horiz-adv-x="863" 
d="M254 825v107h356v-107h-356zM432 -10q-175 0 -282 104.5t-107 275.5t107 275.5t282 104.5q174 0 281 -104.5t107 -275.5t-107 -275.5t-281 -104.5zM432 107q109 0 175.5 72.5t66.5 190.5t-66.5 190.5t-175.5 72.5t-176 -72.5t-67 -190.5t67 -190.5t176 -72.5z" />
    <glyph glyph-name="omacron" unicode="&#x14d;" horiz-adv-x="653" 
d="M149 624v107h356v-107h-356zM327 -10q-130 0 -209.5 77t-79.5 203q0 125 79.5 202t209.5 77q129 0 208.5 -77t79.5 -202q0 -126 -79.5 -203t-208.5 -77zM327 107q66 0 106.5 45t40.5 118t-40.5 118t-106.5 45q-67 0 -107.5 -44.5t-40.5 -118.5t40.5 -118.5t107.5 -44.5z
" />
    <glyph glyph-name="Ohungarumlaut" unicode="&#x150;" horiz-adv-x="863" 
d="M268 819l106 161h159l-149 -161h-116zM465 819l106 161h159l-149 -161h-116zM432 -10q-175 0 -282 104.5t-107 275.5t107 275.5t282 104.5q174 0 281 -104.5t107 -275.5t-107 -275.5t-281 -104.5zM432 107q109 0 175.5 72.5t66.5 190.5t-66.5 190.5t-175.5 72.5
t-176 -72.5t-67 -190.5t67 -190.5t176 -72.5z" />
    <glyph glyph-name="ohungarumlaut" unicode="&#x151;" horiz-adv-x="653" 
d="M163 618l106 161h159l-149 -161h-116zM360 618l106 161h159l-149 -161h-116zM327 -10q-130 0 -209.5 77t-79.5 203q0 125 79.5 202t209.5 77q129 0 208.5 -77t79.5 -202q0 -126 -79.5 -203t-208.5 -77zM327 107q66 0 106.5 45t40.5 118t-40.5 118t-106.5 45
q-67 0 -107.5 -44.5t-40.5 -118.5t40.5 -118.5t107.5 -44.5z" />
    <glyph glyph-name="OE" unicode="&#x152;" horiz-adv-x="1242" 
d="M821 117h369v-117h-510v84q-100 -94 -257 -94q-170 0 -274.5 104.5t-104.5 275.5t104.5 275.5t274.5 104.5q157 0 257 -94v84h502v-117h-361v-190h329v-116h-329v-200zM433 107q109 0 175.5 72.5t66.5 190.5t-66.5 190.5t-175.5 72.5t-176 -72t-67 -191t67 -191t176 -72z
" />
    <glyph glyph-name="oe" unicode="&#x153;" horiz-adv-x="1048" 
d="M1012 278q0 -41 -2 -57h-391q16 -124 130 -124q78 0 131 64l105 -53q-36 -55 -94.5 -86.5t-130.5 -31.5t-128 30.5t-88 86.5q-73 -117 -226 -117q-125 0 -202 77t-77 203q0 125 77 202t202 77q75 0 133.5 -31t92.5 -86q69 117 209 117q117 0 188 -74.5t71 -196.5z
M743 442q-53 0 -84.5 -33.5t-39.5 -95.5h252q-8 62 -40.5 95.5t-87.5 33.5zM327 107q66 0 106.5 45t40.5 118t-40.5 118t-106.5 45t-107 -45t-41 -118t41 -118t107 -45z" />
    <glyph glyph-name="Racute" unicode="&#x154;" horiz-adv-x="731" 
d="M548 980l-178 -161h-116l136 161h158zM549 0l-169 272h-151v-272h-141v740h310q117 0 188 -64.5t71 -169.5q0 -71 -36 -125t-101 -82l195 -299h-166zM229 623v-234h143q63 0 101.5 32t38.5 85t-36 85t-94 32h-153z" />
    <glyph glyph-name="racute" unicode="&#x155;" horiz-adv-x="408" 
d="M433 779l-178 -161h-116l136 161h158zM202 467q67 82 198 82l-9 -125q-84 0 -135 -37t-51 -98v-289h-136v539h131z" />
    <glyph glyph-name="Rcommaaccent" unicode="&#x156;" horiz-adv-x="731" 
d="M520 299l195 -299h-166l-169 272h-151v-272h-141v740h310q117 0 188 -64.5t71 -169.5q0 -71 -36 -125t-101 -82zM229 623v-234h143q63 0 101.5 32t38.5 85t-36 85t-94 32h-153zM271 -220l43 168h122l-62 -168h-103z" />
    <glyph glyph-name="rcommaaccent" unicode="&#x157;" horiz-adv-x="408" 
d="M202 467q67 82 198 82l-9 -125q-84 0 -135 -37t-51 -98v-289h-136v539h131zM67 -220l43 168h122l-62 -168h-103z" />
    <glyph glyph-name="Rcaron" unicode="&#x158;" horiz-adv-x="731" 
d="M403 819h-130l-131 161h126l70 -84l71 84h125zM549 0l-169 272h-151v-272h-141v740h310q117 0 188 -64.5t71 -169.5q0 -71 -36 -125t-101 -82l195 -299h-166zM229 623v-234h143q63 0 101.5 32t38.5 85t-36 85t-94 32h-153z" />
    <glyph glyph-name="rcaron" unicode="&#x159;" horiz-adv-x="408" 
d="M288 618h-130l-131 161h126l70 -84l71 84h125zM202 467q67 82 198 82l-9 -125q-84 0 -135 -37t-51 -98v-289h-136v539h131z" />
    <glyph glyph-name="Sacute" unicode="&#x15a;" horiz-adv-x="650" 
d="M240 819l136 161h158l-178 -161h-116zM322 -10q-162 0 -263 93l53 95q86 -71 201 -71q70 0 108.5 23t38.5 66q0 42 -38 66t-117 46l-42 12q-103 28 -158 74.5t-55 130.5q0 101 75 163t199 62q144 0 250 -85l-63 -98q-83 66 -186 66q-59 0 -94 -23t-35 -62q0 -40 32.5 -61
t99.5 -40l43 -12q235 -64 235 -226q0 -98 -78.5 -158.5t-205.5 -60.5z" />
    <glyph glyph-name="sacute" unicode="&#x15b;" horiz-adv-x="514" 
d="M171 618l136 161h158l-178 -161h-116zM248 -10q-131 0 -204 64l51 82q68 -40 155 -40q38 0 61 14.5t23 39.5q0 41 -92 65l-45 12q-76 20 -114.5 52t-38.5 92q0 80 58 129t154 49q125 0 203 -53l-57 -89q-63 35 -137 35q-37 0 -60 -13t-23 -36q0 -22 20.5 -35.5
t60.5 -23.5l45 -13q78 -20 121.5 -57.5t43.5 -103.5q0 -76 -62 -123t-163 -47z" />
    <glyph glyph-name="Scedilla" unicode="&#x15e;" horiz-adv-x="650" 
d="M606 209q0 -89 -64.5 -147.5t-173.5 -69.5l-29 -46q48 -1 76.5 -24.5t28.5 -59.5q0 -41 -35.5 -66.5t-95.5 -25.5q-63 0 -100 25l25 50q23 -18 61 -18q25 0 39.5 9.5t14.5 24.5q0 14 -13.5 22.5t-35.5 8.5q-19 0 -37 -8l-18 32l42 75q-144 10 -232 92l53 95
q86 -71 201 -71q70 0 108.5 23t38.5 66q0 42 -38 66t-117 46l-42 12q-103 28 -158 74.5t-55 130.5q0 101 75 163t199 62q144 0 250 -85l-63 -98q-83 66 -186 66q-59 0 -94 -23t-35 -62q0 -40 32.5 -61t99.5 -40l43 -12q235 -64 235 -226z" />
    <glyph glyph-name="scedilla" unicode="&#x15f;" horiz-adv-x="514" 
d="M473 160q0 -67 -48 -111.5t-129 -55.5l-30 -47q48 -1 76.5 -24.5t28.5 -59.5q0 -41 -35.5 -66.5t-95.5 -25.5q-63 0 -100 25l25 50q23 -18 61 -18q25 0 39.5 9.5t14.5 24.5q0 14 -13.5 22.5t-35.5 8.5q-19 0 -37 -8l-18 32l42 75q-112 8 -174 63l51 82q68 -40 155 -40
q38 0 61 14.5t23 39.5q0 41 -92 65l-45 12q-76 20 -114.5 52t-38.5 92q0 80 58 129t154 49q125 0 203 -53l-57 -89q-63 35 -137 35q-37 0 -60 -13t-23 -36q0 -22 20.5 -35.5t60.5 -23.5l45 -13q78 -20 121.5 -57.5t43.5 -103.5z" />
    <glyph glyph-name="Scaron" unicode="&#x160;" horiz-adv-x="650" 
d="M389 819h-130l-131 161h126l70 -84l71 84h125zM371 435q235 -64 235 -226q0 -98 -78.5 -158.5t-205.5 -60.5q-162 0 -263 93l53 95q86 -71 201 -71q70 0 108.5 23t38.5 66q0 42 -38 66t-117 46l-42 12q-103 28 -158 74.5t-55 130.5q0 101 75 163t199 62q144 0 250 -85
l-63 -98q-83 66 -186 66q-59 0 -94 -23t-35 -62q0 -40 32.5 -61t99.5 -40z" />
    <glyph glyph-name="scaron" unicode="&#x161;" horiz-adv-x="514" 
d="M320 618h-130l-131 161h126l70 -84l71 84h125zM308 321q78 -20 121.5 -57.5t43.5 -103.5q0 -76 -62 -123t-163 -47q-131 0 -204 64l51 82q68 -40 155 -40q38 0 61 14.5t23 39.5q0 41 -92 65l-45 12q-76 20 -114.5 52t-38.5 92q0 80 58 129t154 49q125 0 203 -53l-57 -89
q-63 35 -137 35q-37 0 -60 -13t-23 -36q0 -22 20.5 -35.5t60.5 -23.5z" />
    <glyph glyph-name="uni0162" unicode="&#x162;" horiz-adv-x="622" 
d="M381 0h-30l-34 -54q48 -1 76.5 -24.5t28.5 -59.5q0 -41 -35.5 -66.5t-95.5 -25.5q-63 0 -100 25l25 50q23 -18 61 -18q25 0 39.5 9.5t14.5 24.5q0 14 -13.5 22.5t-35.5 8.5q-19 0 -37 -8l-18 32l47 84h-34v623h-225v117h592v-117h-226v-623z" />
    <glyph glyph-name="uni0163" unicode="&#x163;" horiz-adv-x="432" 
d="M273 -10q-9 0 -27 2l-29 -46q48 -1 76 -24.5t28 -59.5q0 -42 -35 -67t-95 -25q-65 0 -100 25l24 50q23 -18 61 -18q25 0 39.5 9.5t14.5 24.5q0 31 -49 31q-20 0 -36 -8l-18 32l53 99q-73 46 -73 145v268h-89v111h89v158h136v-158h159v-111h-159v-240q0 -37 20.5 -59
t53.5 -22q50 0 93 18v-110q-60 -25 -137 -25z" />
    <glyph glyph-name="Tcaron" unicode="&#x164;" horiz-adv-x="622" 
d="M375 819h-130l-131 161h126l70 -84l71 84h125zM607 740v-117h-226v-623h-141v623h-225v117h592z" />
    <glyph glyph-name="tcaron" unicode="&#x165;" horiz-adv-x="432" 
d="M477 780l-68 -187h-103l48 187h123zM243 188q0 -37 20.5 -59t53.5 -22q50 0 93 18v-110q-60 -25 -137 -25q-74 0 -120 47t-46 123v268h-89v111h89v158h136v-158h159v-111h-159v-240z" />
    <glyph glyph-name="Tbar" unicode="&#x166;" horiz-adv-x="622" 
d="M607 623h-226v-213h124v-97h-124v-313h-141v313h-120v97h120v213h-225v117h592v-117z" />
    <glyph glyph-name="tbar" unicode="&#x167;" horiz-adv-x="438" 
d="M317 107q50 0 93 18v-110q-60 -25 -137 -25q-74 0 -120 47t-46 123v69h-81v98h81v101h-89v111h89v158h136v-158h159v-111h-159v-101h153v-98h-153v-41q0 -37 20.5 -59t53.5 -22z" />
    <glyph glyph-name="Umacron" unicode="&#x16a;" horiz-adv-x="806" 
d="M226 825v107h356v-107h-356zM404 -10q-146 0 -235.5 80t-89.5 210v460h141v-454q0 -80 51 -129.5t133 -49.5t132 49.5t50 129.5v454h141v-460q0 -131 -89 -210.5t-234 -79.5z" />
    <glyph glyph-name="umacron" unicode="&#x16b;" horiz-adv-x="635" 
d="M493 731v-107h-356v107h356zM430 539h136v-539h-131l-2 66q-59 -76 -166 -76q-92 0 -148.5 58t-56.5 153v338h136v-317q0 -52 32 -83.5t85 -31.5q52 0 83.5 31.5t31.5 83.5v317z" />
    <glyph glyph-name="Uring" unicode="&#x16e;" horiz-adv-x="806" 
d="M404 785q-53 0 -85 29.5t-32 78.5t32 78.5t85 29.5t85 -29.5t32 -78.5t-32 -78.5t-85 -29.5zM404 846q20 0 32 13t12 34t-12 33.5t-32 12.5t-32.5 -12.5t-12.5 -33.5t12.5 -34t32.5 -13zM404 -10q-146 0 -235.5 80t-89.5 210v460h141v-454q0 -80 51 -129.5t133 -49.5
t132 49.5t50 129.5v454h141v-460q0 -131 -89 -210.5t-234 -79.5z" />
    <glyph glyph-name="uring" unicode="&#x16f;" horiz-adv-x="635" 
d="M315 584q-53 0 -85 29.5t-32 78.5t32 78.5t85 29.5t85 -29.5t32 -78.5t-32 -78.5t-85 -29.5zM315 738q-20 0 -32.5 -12.5t-12.5 -33.5t12.5 -34t32.5 -13t32 13t12 34t-12 33.5t-32 12.5zM430 539h136v-539h-131l-2 66q-59 -76 -166 -76q-92 0 -148.5 58t-56.5 153v338
h136v-317q0 -52 32 -83.5t85 -31.5q52 0 83.5 31.5t31.5 83.5v317z" />
    <glyph glyph-name="Uhungarumlaut" unicode="&#x170;" horiz-adv-x="806" 
d="M240 819l106 161h159l-149 -161h-116zM437 819l106 161h159l-149 -161h-116zM404 -10q-146 0 -235.5 80t-89.5 210v460h141v-454q0 -80 51 -129.5t133 -49.5t132 49.5t50 129.5v454h141v-460q0 -131 -89 -210.5t-234 -79.5z" />
    <glyph glyph-name="uhungarumlaut" unicode="&#x171;" horiz-adv-x="635" 
d="M416 779l-149 -161h-116l106 161h159zM464 618h-116l106 161h159zM430 222v317h136v-539h-131l-2 66q-59 -76 -166 -76q-92 0 -148.5 58t-56.5 153v338h136v-317q0 -52 32 -83.5t85 -31.5q52 0 83.5 31.5t31.5 83.5z" />
    <glyph glyph-name="Uogonek" unicode="&#x172;" horiz-adv-x="806" 
d="M586 740h141v-460q0 -108 -62 -182.5t-169 -97.5q-92 -59 -92 -119q0 -15 10 -24t26 -9q28 0 48 17l12 -67q-40 -28 -93 -28q-46 0 -73.5 24.5t-27.5 64.5q0 66 79 131q-138 6 -222 85t-84 205v460h141v-454q0 -80 51 -129.5t133 -49.5t132 49.5t50 129.5v454z" />
    <glyph glyph-name="uogonek" unicode="&#x173;" horiz-adv-x="635" 
d="M557 -135l12 -67q-40 -28 -93 -28q-46 0 -73.5 24.5t-27.5 64.5q0 72 91 141h-31l-2 66q-59 -76 -166 -76q-92 0 -148.5 58t-56.5 153v338h136v-317q0 -52 32 -83.5t85 -31.5q52 0 83.5 31.5t31.5 83.5v317h136v-539q-93 -59 -93 -119q0 -15 10 -24t26 -9q28 0 48 17z
" />
    <glyph glyph-name="Wcircumflex" unicode="&#x174;" horiz-adv-x="1138" 
d="M569 903l-70 -84h-126l131 161h130l131 -161h-125zM985 740h150l-255 -740h-131l-180 541l-179 -541h-131l-256 740h151l178 -551l171 551h132l173 -551z" />
    <glyph glyph-name="wcircumflex" unicode="&#x175;" horiz-adv-x="920" 
d="M459 702l-70 -84h-126l131 161h130l131 -161h-125zM763 539h149l-198 -539h-136l-118 372l-118 -372h-136l-198 539h149l126 -384l121 384h112l121 -384z" />
    <glyph glyph-name="Ycircumflex" unicode="&#x176;" horiz-adv-x="692" 
d="M346 903l-70 -84h-126l131 161h130l131 -161h-125zM531 740h150l-264 -467v-273h-141v273l-265 467h151l185 -342z" />
    <glyph glyph-name="ycircumflex" unicode="&#x177;" horiz-adv-x="603" 
d="M304 702l-70 -84h-126l131 161h130l131 -161h-125zM450 539h148l-254 -601q-36 -86 -78 -127t-115 -41q-47 0 -80 15l14 111q18 -9 43 -9q30 0 47.5 16t35.5 52l27 57l-231 527h149l152 -380z" />
    <glyph glyph-name="Ydieresis" unicode="&#x178;" horiz-adv-x="692" 
d="M224 828q-35 0 -58 22.5t-23 57.5t23 58t58 23t58 -23t23 -58t-23 -57.5t-58 -22.5zM469 828q-35 0 -58 22.5t-23 57.5t23 58t58 23t58 -23t23 -58t-23 -57.5t-58 -22.5zM531 740h150l-264 -467v-273h-141v273l-265 467h151l185 -342z" />
    <glyph glyph-name="Zacute" unicode="&#x179;" horiz-adv-x="668" 
d="M541 980l-178 -161h-116l136 161h158zM229 117h404v-117h-597v88l394 535h-388v117h581v-87z" />
    <glyph glyph-name="zacute" unicode="&#x17a;" horiz-adv-x="546" 
d="M187 618l136 161h158l-178 -161h-116zM38 0v88l269 340h-264v111h456l1 -87l-268 -340h279v-112h-473z" />
    <glyph glyph-name="Zdotaccent" unicode="&#x17b;" horiz-adv-x="668" 
d="M332 828q-35 0 -58 22.5t-23 57.5t23 58t58 23t58 -23t23 -58t-23 -57.5t-58 -22.5zM229 117h404v-117h-597v88l394 535h-388v117h581v-87z" />
    <glyph glyph-name="zdotaccent" unicode="&#x17c;" horiz-adv-x="546" 
d="M272 627q-35 0 -58 22.5t-23 57.5t23 58t58 23t58 -23t23 -58t-23 -57.5t-58 -22.5zM38 0v88l269 340h-264v111h456l1 -87l-268 -340h279v-112h-473z" />
    <glyph glyph-name="Zcaron" unicode="&#x17d;" horiz-adv-x="668" 
d="M396 819h-130l-131 161h126l70 -84l71 84h125zM229 117h404v-117h-597v88l394 535h-388v117h581v-87z" />
    <glyph glyph-name="zcaron" unicode="&#x17e;" horiz-adv-x="546" 
d="M336 618h-130l-131 161h126l70 -84l71 84h125zM232 112h279v-112h-473v88l269 340h-264v111h456l1 -87z" />
    <glyph glyph-name="florin" unicode="&#x192;" horiz-adv-x="504" 
d="M408 633q-79 0 -93 -84l-26 -147h160v-112h-180l-69 -390h-137l69 390h-81v112h101l33 188q14 77 69.5 118.5t136.5 41.5q55 0 94 -16l-15 -110q-27 9 -62 9z" />
    <glyph glyph-name="Scommaaccent" unicode="&#x218;" horiz-adv-x="650" 
d="M322 -10q-162 0 -263 93l53 95q86 -71 201 -71q70 0 108.5 23t38.5 66q0 42 -38 66t-117 46l-42 12q-103 28 -158 74.5t-55 130.5q0 101 75 163t199 62q144 0 250 -85l-63 -98q-83 66 -186 66q-59 0 -94 -23t-35 -62q0 -40 32.5 -61t99.5 -40l43 -12q235 -64 235 -226
q0 -98 -78.5 -158.5t-205.5 -60.5zM228 -220l43 168h122l-62 -168h-103z" />
    <glyph glyph-name="scommaaccent" unicode="&#x219;" horiz-adv-x="514" 
d="M248 -10q-131 0 -204 64l51 82q68 -40 155 -40q38 0 61 14.5t23 39.5q0 41 -92 65l-45 12q-76 20 -114.5 52t-38.5 92q0 80 58 129t154 49q125 0 203 -53l-57 -89q-63 35 -137 35q-37 0 -60 -13t-23 -36q0 -22 20.5 -35.5t60.5 -23.5l45 -13q78 -20 121.5 -57.5
t43.5 -103.5q0 -76 -62 -123t-163 -47zM155 -220l43 168h122l-62 -168h-103z" />
    <glyph glyph-name="uni021A" unicode="&#x21a;" horiz-adv-x="622" 
d="M607 740v-117h-226v-623h-141v623h-225v117h592zM206 -220l43 168h122l-62 -168h-103z" />
    <glyph glyph-name="uni021B" unicode="&#x21b;" horiz-adv-x="432" 
d="M317 107q50 0 93 18v-110q-60 -25 -137 -25q-74 0 -120 47t-46 123v268h-89v111h89v158h136v-158h159v-111h-159v-240q0 -37 20.5 -59t53.5 -22zM131 -220l43 168h122l-62 -168h-103z" />
    <glyph glyph-name="circumflex" unicode="&#x2c6;" horiz-adv-x="600" 
d="M427 618h-125l-71 84l-70 -84h-126l131 161h130z" />
    <glyph glyph-name="caron" unicode="&#x2c7;" horiz-adv-x="600" 
d="M302 779h125l-131 -161h-130l-131 161h126l70 -84z" />
    <glyph glyph-name="breve" unicode="&#x2d8;" horiz-adv-x="600" 
d="M212 609q-82 0 -131.5 46.5t-49.5 123.5h103q0 -40 21.5 -65.5t56.5 -25.5q36 0 57.5 25t21.5 66h103q0 -77 -50 -123.5t-132 -46.5z" />
    <glyph glyph-name="dotaccent" unicode="&#x2d9;" horiz-adv-x="600" 
d="M133 627q-35 0 -58 22.5t-23 57.5t23 58t58 23t58 -23t23 -58t-23 -57.5t-58 -22.5z" />
    <glyph glyph-name="ring" unicode="&#x2da;" horiz-adv-x="600" 
d="M168 584q-53 0 -85 29.5t-32 78.5t32 78.5t85 29.5t85 -29.5t32 -78.5t-32 -78.5t-85 -29.5zM168 645q20 0 32 13t12 34t-12 33.5t-32 12.5t-32.5 -12.5t-12.5 -33.5t12.5 -34t32.5 -13z" />
    <glyph glyph-name="ogonek" unicode="&#x2db;" horiz-adv-x="600" 
d="M160 -230q-46 0 -73.5 24.5t-27.5 64.5q0 102 191 204v-63q-93 -59 -93 -119q0 -15 10 -24t26 -9q28 0 48 17l12 -67q-40 -28 -93 -28z" />
    <glyph glyph-name="tilde" unicode="&#x2dc;" horiz-adv-x="600" 
d="M310 619q-34 0 -88 28t-73 28q-18 0 -29.5 -12.5t-11.5 -33.5h-74q0 65 31.5 104.5t82.5 39.5q36 0 88.5 -28t71.5 -28q41 0 41 46h74q0 -68 -30.5 -106t-82.5 -38z" />
    <glyph glyph-name="hungarumlaut" unicode="&#x2dd;" horiz-adv-x="600" 
d="M122 618l106 161h159l-149 -161h-116zM319 618l106 161h159l-149 -161h-116z" />
    <glyph glyph-name="gravecomb" unicode="&#x300;" horiz-adv-x="0" 
d="M-224 618l-178 161h159l135 -161h-116z" />
    <glyph glyph-name="acutecomb" unicode="&#x301;" horiz-adv-x="0" 
d="M-277 618l136 161h158l-178 -161h-116z" />
    <glyph glyph-name="uni0302" unicode="&#x302;" horiz-adv-x="0" 
d="M-36 618h-125l-71 84l-70 -84h-126l131 161h130z" />
    <glyph glyph-name="tildecomb" unicode="&#x303;" horiz-adv-x="0" 
d="M-147 619q-34 0 -88 28t-73 28q-18 0 -29.5 -12.5t-11.5 -33.5h-74q0 65 31.5 104.5t82.5 39.5q36 0 88.5 -28t71.5 -28q41 0 41 46h74q0 -68 -30.5 -106t-82.5 -38z" />
    <glyph glyph-name="uni0304" unicode="&#x304;" horiz-adv-x="0" 
d="M-397 624v107h356v-107h-356z" />
    <glyph glyph-name="uni0306" unicode="&#x306;" horiz-adv-x="0" 
d="M-213 609q-82 0 -131.5 46.5t-49.5 123.5h103q0 -40 21.5 -65.5t56.5 -25.5q36 0 57.5 25t21.5 66h103q0 -77 -50 -123.5t-132 -46.5z" />
    <glyph glyph-name="uni0307" unicode="&#x307;" horiz-adv-x="0" 
d="M-133 627q-35 0 -58 22.5t-23 57.5t23 58t58 23t58 -23t23 -58t-23 -57.5t-58 -22.5z" />
    <glyph glyph-name="uni0308" unicode="&#x308;" horiz-adv-x="0" 
d="M-378 627q-35 0 -58 22.5t-23 57.5t23 58t58 23t58 -23t23 -58t-23 -57.5t-58 -22.5zM-133 627q-35 0 -58 22.5t-23 57.5t23 58t58 23t58 -23t23 -58t-23 -57.5t-58 -22.5z" />
    <glyph glyph-name="uni030A" unicode="&#x30a;" horiz-adv-x="0" 
d="M-168 584q-53 0 -85 29.5t-32 78.5t32 78.5t85 29.5t85 -29.5t32 -78.5t-32 -78.5t-85 -29.5zM-168 645q20 0 32 13t12 34t-12 33.5t-32 12.5t-32.5 -12.5t-12.5 -33.5t12.5 -34t32.5 -13z" />
    <glyph glyph-name="uni030B" unicode="&#x30b;" horiz-adv-x="0" 
d="M-449 618l106 161h159l-149 -161h-116zM-252 618l106 161h159l-149 -161h-116z" />
    <glyph glyph-name="uni030C" unicode="&#x30c;" horiz-adv-x="0" 
d="M-161 779h125l-131 -161h-130l-131 161h126l70 -84z" />
    <glyph glyph-name="uni0312" unicode="&#x312;" horiz-adv-x="0" 
d="M-207 593l68 187h103l-48 -187h-123z" />
    <glyph glyph-name="uni0326" unicode="&#x326;" horiz-adv-x="0" 
d="M-185 -220l43 168h122l-62 -168h-103z" />
    <glyph glyph-name="uni0327" unicode="&#x327;" horiz-adv-x="0" 
d="M-120 -54q48 -1 76.5 -24.5t28.5 -59.5q0 -41 -35.5 -66.5t-95.5 -25.5q-63 0 -100 25l25 50q23 -18 61 -18q25 0 39.5 9.5t14.5 24.5q0 14 -13.5 22.5t-35.5 8.5q-19 0 -37 -8l-18 32l47 84h77z" />
    <glyph glyph-name="uni0328" unicode="&#x328;" horiz-adv-x="0" 
d="M-105 -230q-46 0 -73.5 24.5t-27.5 64.5q0 102 191 204v-63q-93 -59 -93 -119q0 -15 10 -24t26 -9q28 0 48 17l12 -67q-40 -28 -93 -28z" />
    <glyph glyph-name="uni0335" unicode="&#x335;" horiz-adv-x="0" 
d="M-529 241v97h385v-97h-385z" />
    <glyph glyph-name="uni0336" unicode="&#x336;" horiz-adv-x="0" 
d="M-875 241v97h823v-97h-823z" />
    <glyph glyph-name="uni0337" unicode="&#x337;" horiz-adv-x="0" 
d="M-268 442l153 107v-109l-153 -108v18l-149 -105v110l149 105v-18z" />
    <glyph glyph-name="uni0338" unicode="&#x338;" horiz-adv-x="0" 
d="M-450 -10l-72 44l420 716l72 -44z" />
    <glyph glyph-name="uni0394" unicode="&#x394;" horiz-adv-x="827" 
d="M480 740l315 -740h-763l316 740h132zM231 117h365l-182 448z" />
    <glyph glyph-name="uni03A9" unicode="&#x3a9;" horiz-adv-x="802" 
d="M565 163v-46h177v-117h-289v255q73 15 115 64t42 122q0 87 -57.5 139.5t-150.5 52.5q-94 0 -151 -52.5t-57 -139.5q0 -72 42 -121t115 -65v-255h-289v117h177v46q-90 36 -140.5 108.5t-50.5 169.5q0 139 97 224t257 85q158 0 255 -85t97 -224q0 -97 -50 -169.5
t-139 -108.5z" />
    <glyph glyph-name="uni03BC" unicode="&#x3bc;" horiz-adv-x="641" 
d="M436 539h136v-539h-130l-2 53q-45 -63 -120 -63q-72 0 -115 58v-268h-136v759h136v-317q0 -52 31.5 -83.5t83.5 -31.5t84 31.5t32 83.5v317z" />
    <glyph glyph-name="pi" unicode="&#x3c0;" horiz-adv-x="699" 
d="M595 107q33 0 59 18v-110q-44 -25 -102 -25q-59 0 -95 36t-36 94v308h-164v-428h-136v428h-90v111h622v-111h-96v-280q0 -19 10.5 -30t27.5 -11z" />
    <glyph glyph-name="Wgrave" unicode="&#x1e80;" horiz-adv-x="1138" 
d="M654 819h-116l-178 161h159zM985 740h150l-255 -740h-131l-180 541l-179 -541h-131l-256 740h151l178 -551l171 551h132l173 -551z" />
    <glyph glyph-name="wgrave" unicode="&#x1e81;" horiz-adv-x="920" 
d="M544 618h-116l-178 161h159zM763 539h149l-198 -539h-136l-118 372l-118 -372h-136l-198 539h149l126 -384l121 384h112l121 -384z" />
    <glyph glyph-name="Wacute" unicode="&#x1e82;" horiz-adv-x="1138" 
d="M779 980l-178 -161h-116l136 161h158zM985 740h150l-255 -740h-131l-180 541l-179 -541h-131l-256 740h151l178 -551l171 551h132l173 -551z" />
    <glyph glyph-name="wacute" unicode="&#x1e83;" horiz-adv-x="920" 
d="M669 779l-178 -161h-116l136 161h158zM763 539h149l-198 -539h-136l-118 372l-118 -372h-136l-198 539h149l126 -384l121 384h112l121 -384z" />
    <glyph glyph-name="Wdieresis" unicode="&#x1e84;" horiz-adv-x="1138" 
d="M447 828q-35 0 -58 22.5t-23 57.5t23 58t58 23t58 -23t23 -58t-23 -57.5t-58 -22.5zM692 828q-35 0 -58 22.5t-23 57.5t23 58t58 23t58 -23t23 -58t-23 -57.5t-58 -22.5zM985 740h150l-255 -740h-131l-180 541l-179 -541h-131l-256 740h151l178 -551l171 551h132
l173 -551z" />
    <glyph glyph-name="wdieresis" unicode="&#x1e85;" horiz-adv-x="920" 
d="M337 627q-35 0 -58 22.5t-23 57.5t23 58t58 23t58 -23t23 -58t-23 -57.5t-58 -22.5zM582 627q-35 0 -58 22.5t-23 57.5t23 58t58 23t58 -23t23 -58t-23 -57.5t-58 -22.5zM763 539h149l-198 -539h-136l-118 372l-118 -372h-136l-198 539h149l126 -384l121 384h112
l121 -384z" />
    <glyph glyph-name="uni1E9E" unicode="&#x1e9e;" horiz-adv-x="694" 
d="M510 391q67 -25 104.5 -72.5t37.5 -109.5q0 -98 -69.5 -158.5t-182.5 -60.5q-62 0 -108 16l13 112q29 -11 70 -11q59 0 95 31t36 81q0 52 -41 83.5t-109 31.5v107q51 0 81.5 26.5t30.5 70.5q0 43 -33 69t-89 26q-55 0 -89 -26t-34 -69v-538h-141v554q0 88 73 142t191 54
q121 0 195 -53.5t74 -139.5q0 -110 -105 -166z" />
    <glyph glyph-name="Ygrave" unicode="&#x1ef2;" horiz-adv-x="692" 
d="M431 819h-116l-178 161h159zM531 740h150l-264 -467v-273h-141v273l-265 467h151l185 -342z" />
    <glyph glyph-name="ygrave" unicode="&#x1ef3;" horiz-adv-x="603" 
d="M273 618l-178 161h159l135 -161h-116zM151 -230q-47 0 -80 15l14 111q18 -9 43 -9q30 0 47.5 16t35.5 52l27 57l-231 527h149l152 -380l142 380h148l-254 -601q-36 -86 -78 -127t-115 -41z" />
    <glyph glyph-name="endash" unicode="&#x2013;" 
d="M63 241v97h490v-97h-490z" />
    <glyph glyph-name="emdash" unicode="&#x2014;" horiz-adv-x="974" 
d="M63 241v97h849v-97h-849z" />
    <glyph glyph-name="quoteleft" unicode="&#x2018;" horiz-adv-x="279" 
d="M248 740l-66 -257h-142l85 257h123z" />
    <glyph glyph-name="quoteright" unicode="&#x2019;" horiz-adv-x="276" 
d="M44 483l65 257h142l-85 -257h-122z" />
    <glyph glyph-name="quotesinglbase" unicode="&#x201a;" horiz-adv-x="273" 
d="M12 -128l66 257h141l-84 -257h-123z" />
    <glyph glyph-name="quotedblleft" unicode="&#x201c;" horiz-adv-x="494" 
d="M249 740l-66 -256h-142l85 256h123zM462 740l-65 -256h-142l85 256h122z" />
    <glyph glyph-name="quotedblright" unicode="&#x201d;" horiz-adv-x="490" 
d="M44 483l65 257h142l-85 -257h-122zM257 483l66 257h142l-85 -257h-123z" />
    <glyph glyph-name="quotedblbase" unicode="&#x201e;" horiz-adv-x="486" 
d="M12 -128l66 257h141l-84 -257h-123zM226 -128l65 257h142l-85 -257h-122z" />
    <glyph glyph-name="dagger" unicode="&#x2020;" horiz-adv-x="568" 
d="M530 539v-116h-176v-643h-140v643h-176v116h176v241h140v-241h176z" />
    <glyph glyph-name="daggerdbl" unicode="&#x2021;" horiz-adv-x="568" 
d="M530 423h-176v-103h176v-117h-176v-423h-140v423h-176v117h176v103h-176v116h176v241h140v-241h176v-116z" />
    <glyph glyph-name="bullet" unicode="&#x2022;" horiz-adv-x="395" 
d="M198 187q-55 0 -88 33t-33 88t33 88t88 33t88 -33t33 -88t-33 -88t-88 -33z" />
    <glyph glyph-name="ellipsis" unicode="&#x2026;" horiz-adv-x="785" 
d="M136 -10q-37 0 -63 26t-26 63t26 63t63 26t63 -26t26 -63t-26 -63t-63 -26zM393 -10q-37 0 -63 26t-26 63t26 63t63 26t62.5 -26t25.5 -63t-25.5 -63t-62.5 -26zM650 -10q-37 0 -63.5 26t-26.5 63t26.5 63t63.5 26q36 0 62 -26t26 -63t-26 -63t-62 -26z" />
    <glyph glyph-name="perthousand" unicode="&#x2030;" horiz-adv-x="1284" 
d="M221 409q-84 0 -136 47t-52 123q0 77 52 124t136 47t135.5 -47t51.5 -124q0 -76 -51.5 -123t-135.5 -47zM257 -10l-73 44l420 716l72 -44zM222 496q33 0 54 23t21 60q0 38 -21 60.5t-54 22.5q-35 0 -56.5 -22.5t-21.5 -60.5t21.5 -60.5t56.5 -22.5zM643 -10
q-85 0 -136.5 47t-51.5 124t51.5 123.5t136.5 46.5q84 0 135 -46.5t51 -123.5t-51 -124t-135 -47zM1065 -10q-84 0 -135.5 47t-51.5 124q0 76 51.5 123t135.5 47t135.5 -47t51.5 -123q0 -77 -51.5 -124t-135.5 -47zM643 78q33 0 54 23t21 60t-21 60t-54 23q-35 0 -56 -22.5
t-21 -60.5t21 -60.5t56 -22.5zM1065 78q34 0 55 23t21 60t-21 60t-55 23q-35 0 -56 -23t-21 -60t21 -60t56 -23z" />
    <glyph glyph-name="guilsinglleft" unicode="&#x2039;" horiz-adv-x="399" 
d="M359 500l-174 -230l174 -230h-144l-180 230l180 230h144z" />
    <glyph glyph-name="guilsinglright" unicode="&#x203a;" horiz-adv-x="399" 
d="M184 500l180 -230l-180 -230h-145l175 230l-175 230h145z" />
    <glyph glyph-name="fraction" unicode="&#x2044;" horiz-adv-x="223" 
d="M-62 -10l-73 44l420 716l72 -44z" />
    <glyph glyph-name="uni2070" unicode="&#x2070;" horiz-adv-x="395" 
d="M199 390q-77 0 -124 62.5t-47 165.5t47 165.5t124 62.5q75 0 121.5 -62.5t46.5 -165.5t-46.5 -165.5t-121.5 -62.5zM199 462q36 0 58 43t22 113t-22 113t-58 43t-58.5 -43t-22.5 -113t22.5 -113t58.5 -43z" />
    <glyph glyph-name="uni2074" unicode="&#x2074;" horiz-adv-x="394" 
d="M220 396v85h-205v60l224 299h69v-286h60v-73h-60v-85h-88zM113 551h109l1 147z" />
    <glyph glyph-name="uni2075" unicode="&#x2075;" horiz-adv-x="363" 
d="M152 390q-88 0 -134 39l26 64q38 -31 100 -31q44 0 71.5 22t27.5 57q0 29 -19.5 47t-50.5 18q-38 0 -64 -22l-58 8l31 248h229v-72h-154l-14 -96q21 7 46 7q64 0 104 -36.5t40 -95.5q0 -70 -50.5 -113.5t-130.5 -43.5z" />
    <glyph glyph-name="uni2076" unicode="&#x2076;" horiz-adv-x="363" 
d="M203 668q58 0 98 -38t40 -98q0 -64 -43.5 -103t-113.5 -39q-71 0 -113.5 38.5t-42.5 102.5q0 66 49 135l124 174h99l-130 -174q20 2 33 2zM184 462q29 0 47.5 19.5t18.5 50.5t-18.5 50t-47.5 19t-47 -19t-18 -50q0 -32 18 -51t47 -19z" />
    <glyph glyph-name="uni2077" unicode="&#x2077;" horiz-adv-x="327" 
d="M16 840h302l-149 -444h-93l128 372h-188v72z" />
    <glyph glyph-name="uni2078" unicode="&#x2078;" horiz-adv-x="380" 
d="M276 627q71 -32 71 -106q0 -59 -43 -95t-114 -36q-70 0 -113 35.5t-43 93.5q0 75 70 108q-58 31 -58 97q0 55 39.5 88.5t104.5 33.5t105 -33.5t40 -87.5q0 -66 -59 -98zM190 774q-24 0 -38.5 -15.5t-14.5 -41.5q0 -25 14.5 -40t38.5 -15q25 0 39.5 15t14.5 40
q0 26 -14.5 41.5t-39.5 15.5zM190 462q29 0 47.5 18t18.5 46t-18.5 46t-47.5 18t-47 -17.5t-18 -46.5t18 -46.5t47 -17.5z" />
    <glyph glyph-name="uni2079" unicode="&#x2079;" horiz-adv-x="363" 
d="M179 846q71 0 113.5 -38.5t42.5 -102.5q0 -66 -49 -135l-124 -174h-99l130 174q-20 -2 -33 -2q-58 0 -98 38t-40 98q0 64 43.5 103t113.5 39zM113 704q0 -31 18.5 -50t47.5 -19t47 19t18 50q0 32 -18 51t-47 19t-47.5 -19.5t-18.5 -50.5z" />
    <glyph glyph-name="uni2080" unicode="&#x2080;" horiz-adv-x="395" 
d="M199 -106q-77 0 -124 62.5t-47 165.5t47 165.5t124 62.5q75 0 121.5 -62.5t46.5 -165.5t-46.5 -165.5t-121.5 -62.5zM199 -34q36 0 58 43t22 113t-22 113t-58 43t-58.5 -43t-22.5 -113t22.5 -113t58.5 -43z" />
    <glyph glyph-name="uni2081" unicode="&#x2081;" horiz-adv-x="277" 
d="M133 -100v332l-84 -60l-44 62l149 110h67v-444h-88z" />
    <glyph glyph-name="uni2082" unicode="&#x2082;" horiz-adv-x="366" 
d="M30 -100v56l137 148q2 2 11 12t13.5 15.5t13 16t13.5 18.5t10.5 18.5t8 20.5t2.5 19q0 25 -15 39.5t-40 14.5q-27 0 -43.5 -18t-16.5 -47l-89 7q0 58 40.5 94t106.5 36q65 0 105 -33t40 -87q0 -42 -25 -81.5t-77 -92.5l-81 -85l189 1v-72h-303z" />
    <glyph glyph-name="uni2083" unicode="&#x2083;" horiz-adv-x="358" 
d="M193 171q61 -1 98 -38t37 -96q0 -65 -46.5 -104t-124.5 -39q-90 0 -136 43l34 65q34 -36 92 -36q42 0 66 19.5t24 51.5q0 30 -23 48.5t-60 18.5q-34 0 -59 -15l-24 45l121 138h-150v72h263v-54z" />
    <glyph glyph-name="uni2084" unicode="&#x2084;" horiz-adv-x="394" 
d="M220 -100v85h-205v60l224 299h69v-286h60v-73h-60v-85h-88zM113 55h109l1 147z" />
    <glyph glyph-name="uni2085" unicode="&#x2085;" horiz-adv-x="363" 
d="M152 -106q-88 0 -134 39l26 64q38 -31 100 -31q44 0 71.5 22t27.5 57q0 29 -19.5 47t-50.5 18q-38 0 -64 -22l-58 8l31 248h229v-72h-154l-14 -96q21 7 46 7q64 0 104 -36.5t40 -95.5q0 -70 -50.5 -113.5t-130.5 -43.5z" />
    <glyph glyph-name="uni2086" unicode="&#x2086;" horiz-adv-x="363" 
d="M203 172q58 0 98 -38t40 -98q0 -64 -43.5 -103t-113.5 -39q-71 0 -113.5 38.5t-42.5 102.5q0 66 49 135l124 174h99l-130 -174q20 2 33 2zM184 -34q29 0 47.5 19.5t18.5 50.5t-18.5 50t-47.5 19t-47 -19t-18 -50q0 -32 18 -51t47 -19z" />
    <glyph glyph-name="uni2087" unicode="&#x2087;" horiz-adv-x="327" 
d="M16 344h302l-149 -444h-93l128 372h-188v72z" />
    <glyph glyph-name="uni2088" unicode="&#x2088;" horiz-adv-x="380" 
d="M276 131q71 -32 71 -106q0 -59 -43 -95t-114 -36q-70 0 -113 35.5t-43 93.5q0 75 70 108q-58 31 -58 97q0 55 39.5 88.5t104.5 33.5t105 -33.5t40 -87.5q0 -66 -59 -98zM190 278q-24 0 -38.5 -15.5t-14.5 -41.5q0 -25 14.5 -40t38.5 -15q25 0 39.5 15t14.5 40
q0 26 -14.5 41.5t-39.5 15.5zM190 -34q29 0 47.5 18t18.5 46t-18.5 46t-47.5 18t-47 -17.5t-18 -46.5t18 -46.5t47 -17.5z" />
    <glyph glyph-name="uni2089" unicode="&#x2089;" horiz-adv-x="363" 
d="M179 350q71 0 113.5 -38.5t42.5 -102.5q0 -66 -49 -135l-124 -174h-99l130 174q-20 -2 -33 -2q-58 0 -98 38t-40 98q0 64 43.5 103t113.5 39zM113 208q0 -31 18.5 -50t47.5 -19t47 19t18 50q0 32 -18 51t-47 19t-47.5 -19.5t-18.5 -50.5z" />
    <glyph glyph-name="Euro" unicode="&#x20ac;" horiz-adv-x="845" 
d="M712 224l95 -85q-109 -149 -314 -149q-142 0 -241.5 69.5t-134.5 190.5h-75v88h59q-1 11 -1 34v13h-58v88h69q30 128 131.5 202.5t249.5 74.5q182 0 292 -119l-89 -90q-72 92 -201 92q-85 0 -145.5 -42.5t-86.5 -117.5h228v-88h-244v-14q0 -11 2 -33h242v-88h-221
q29 -67 88 -105t139 -38q140 0 216 117z" />
    <glyph glyph-name="uni20B9" unicode="&#x20b9;" horiz-adv-x="633" 
d="M588 740v-88h-155q56 -46 70 -120h80v-88h-79q-18 -118 -116 -174l177 -270h-165l-146 233q-7 -1 -21 -1h-170v117h159q51 0 86.5 25.5t47.5 69.5h-293v88h294q-12 42 -45 66.5t-80 24.5h-169v117h525z" />
    <glyph glyph-name="uni20BD" unicode="&#x20bd;" horiz-adv-x="686" 
d="M387 292h-133v-48h220v-88h-220v-156h-141v156h-57v88h57v48h-57v87h57v361h280q117 0 188 -60.5t71 -158.5q0 -103 -73 -166t-192 -63zM254 623v-215h123q60 0 94.5 29.5t34.5 78.5q0 48 -35.5 77.5t-93.5 29.5h-123z" />
    <glyph glyph-name="trademark" unicode="&#x2122;" horiz-adv-x="735" 
d="M285 780v-61h-87v-225h-73v225h-87v61h247zM671 494h-73l-11 177l-80 -177h-31l-81 179l-10 -179h-73l21 286h78l81 -183l80 183h77z" />
    <glyph glyph-name="oneeighth" unicode="&#x215b;" horiz-adv-x="880" 
d="M562 750l72 -44l-419 -716l-73 44zM221 296h-88v332l-84 -60l-44 62l149 110h67v-444zM776 231q71 -32 71 -106q0 -59 -43 -95t-114 -36q-70 0 -113 35.5t-43 93.5q0 75 70 108q-58 31 -58 97q0 55 39.5 88.5t104.5 33.5t105 -33.5t40 -87.5q0 -66 -59 -98zM690 378
q-24 0 -38.5 -15.5t-14.5 -41.5q0 -25 14.5 -40t38.5 -15q25 0 39.5 15t14.5 40q0 26 -14.5 41.5t-39.5 15.5zM690 66q29 0 47.5 18t18.5 46t-18.5 46t-47.5 18t-47 -17.5t-18 -46.5t18 -46.5t47 -17.5z" />
    <glyph glyph-name="threeeighths" unicode="&#x215c;" horiz-adv-x="961" 
d="M643 750l72 -44l-419 -716l-73 44zM328 433q0 -65 -46.5 -104t-124.5 -39q-90 0 -136 43l34 65q34 -36 92 -36q42 0 66 19.5t24 51.5q0 30 -23 48.5t-60 18.5q-34 0 -59 -15l-24 45l121 138h-150v72h263v-54l-112 -119q61 -1 98 -38t37 -96zM857 231q71 -32 71 -106
q0 -59 -43 -95t-114 -36q-70 0 -113 35.5t-43 93.5q0 75 70 108q-58 31 -58 97q0 55 39.5 88.5t104.5 33.5t105 -33.5t40 -87.5q0 -66 -59 -98zM771 378q-24 0 -38.5 -15.5t-14.5 -41.5q0 -25 14.5 -40t38.5 -15q25 0 39.5 15t14.5 40q0 26 -14.5 41.5t-39.5 15.5zM771 66
q29 0 47.5 18t18.5 46t-18.5 46t-47.5 18t-47 -17.5t-18 -46.5t18 -46.5t47 -17.5z" />
    <glyph glyph-name="fiveeighths" unicode="&#x215d;" horiz-adv-x="966" 
d="M648 750l72 -44l-419 -716l-73 44zM333 447q0 -70 -50.5 -113.5t-130.5 -43.5q-88 0 -134 39l26 64q38 -31 100 -31q44 0 71.5 22t27.5 57q0 29 -19.5 47t-50.5 18q-38 0 -64 -22l-58 8l31 248h229v-72h-154l-14 -96q21 7 46 7q64 0 104 -36.5t40 -95.5zM862 231
q71 -32 71 -106q0 -59 -43 -95t-114 -36q-70 0 -113 35.5t-43 93.5q0 75 70 108q-58 31 -58 97q0 55 39.5 88.5t104.5 33.5t105 -33.5t40 -87.5q0 -66 -59 -98zM776 378q-24 0 -38.5 -15.5t-14.5 -41.5q0 -25 14.5 -40t38.5 -15q25 0 39.5 15t14.5 40q0 26 -14.5 41.5
t-39.5 15.5zM776 66q29 0 47.5 18t18.5 46t-18.5 46t-47.5 18t-47 -17.5t-18 -46.5t18 -46.5t47 -17.5z" />
    <glyph glyph-name="seveneighths" unicode="&#x215e;" horiz-adv-x="901" 
d="M583 750l72 -44l-419 -716l-73 44zM169 296h-93l128 372h-188v72h302zM797 231q71 -32 71 -106q0 -59 -43 -95t-114 -36q-70 0 -113 35.5t-43 93.5q0 75 70 108q-58 31 -58 97q0 55 39.5 88.5t104.5 33.5t105 -33.5t40 -87.5q0 -66 -59 -98zM711 378q-24 0 -38.5 -15.5
t-14.5 -41.5q0 -25 14.5 -40t38.5 -15q25 0 39.5 15t14.5 40q0 26 -14.5 41.5t-39.5 15.5zM711 66q29 0 47.5 18t18.5 46t-18.5 46t-47.5 18t-47 -17.5t-18 -46.5t18 -46.5t47 -17.5z" />
    <glyph glyph-name="partialdiff" unicode="&#x2202;" horiz-adv-x="683" 
d="M320 750q145 0 233 -104t88 -274q0 -172 -97.5 -277t-255.5 -105q-117 0 -188 58t-71 154q0 109 125 179t333 78q-17 81 -61.5 127.5t-107.5 46.5q-54 0 -98 -25t-72 -67l-89 90q99 119 261 119zM285 107q88 0 145 64.5t64 171.5q-146 -3 -235 -42.5t-89 -101.5
q0 -42 31.5 -67t83.5 -25z" />
    <glyph glyph-name="emptyset" unicode="&#x2205;" horiz-adv-x="682" 
d="M559 545q70 -75 70 -192q0 -126 -79.5 -203t-208.5 -77q-97 0 -166 43l-39 -43l-54 42l40 45q-70 75 -70 193q0 125 79.5 202t209.5 77q96 0 165 -43l40 44l54 -43zM193 353q0 -53 21 -91l207 232q-35 22 -80 22q-67 0 -107.5 -44.5t-40.5 -118.5zM341 190q66 0 106.5 45
t40.5 118q0 52 -20 89l-207 -230q35 -22 80 -22z" />
    <glyph glyph-name="product" unicode="&#x220f;" horiz-adv-x="735" 
d="M649 780v-1000h-141v883h-281v-883h-141v1000h563z" />
    <glyph glyph-name="summation" unicode="&#x2211;" horiz-adv-x="666" 
d="M34 -220v89l294 414l-284 408v89h572v-117h-402l280 -380l-291 -386h423v-117h-592z" />
    <glyph glyph-name="minus" unicode="&#x2212;" horiz-adv-x="606" 
d="M66 294v112h474v-112h-474z" />
    <glyph glyph-name="radical" unicode="&#x221a;" horiz-adv-x="788" 
d="M230 -220l-228 539h149l147 -384l338 845h149l-419 -1000h-136z" />
    <glyph glyph-name="infinity" unicode="&#x221e;" horiz-adv-x="735" 
d="M509 450q80 0 128.5 -47t48.5 -124t-48.5 -124t-128.5 -47q-96 0 -141 72q-46 -72 -141 -72q-80 0 -129.5 47t-49.5 124t49.5 124t129.5 47q95 0 141 -72q45 72 141 72zM236 196q34 0 54.5 23t20.5 60q0 38 -20.5 60.5t-54.5 22.5q-35 0 -56 -22.5t-21 -60.5
q0 -37 21 -60t56 -23zM500 196q33 0 54 23t21 60q0 38 -21 60.5t-54 22.5q-35 0 -56 -22.5t-21 -60.5t21 -60.5t56 -22.5z" />
    <glyph glyph-name="integral" unicode="&#x222b;" horiz-adv-x="458" 
d="M332 790q81 0 126 -48l-37 -95q-26 26 -62 26q-28 0 -44 -16t-16 -42v-695q0 -67 -48 -108.5t-125 -41.5q-79 0 -127 48l38 95q26 -26 62 -26q27 0 43 15.5t16 42.5v695q0 67 48.5 108.5t125.5 41.5z" />
    <glyph glyph-name="approxequal" unicode="&#x2248;" horiz-adv-x="598" 
d="M401 319q-43 0 -110 28.5t-90 28.5q-27 0 -44 -12.5t-17 -34.5h-74q0 65 37 104.5t96 39.5q45 0 111 -27.5t89 -27.5q61 0 61 45h75q0 -67 -37 -105.5t-97 -38.5zM401 119q-43 0 -110 28.5t-90 28.5q-27 0 -44 -12.5t-17 -34.5h-74q0 65 37 104.5t96 39.5q45 0 111 -27.5
t89 -27.5q61 0 61 45h75q0 -67 -37 -105.5t-97 -38.5z" />
    <glyph glyph-name="notequal" unicode="&#x2260;" horiz-adv-x="604" 
d="M539 405h-153l-29 -109h182v-112h-212l-32 -118h-137l32 118h-124v112h154l29 109h-183v112h213l32 118h137l-32 -118h123v-112z" />
    <glyph glyph-name="lessequal" unicode="&#x2264;" horiz-adv-x="604" 
d="M533 318v-128l-470 195v87l470 194v-127l-281 -111zM62 145h472v-112h-472v112z" />
    <glyph glyph-name="greaterequal" unicode="&#x2265;" horiz-adv-x="603" 
d="M71 666l470 -194v-87l-470 -195v128l281 110l-281 111v127zM70 33v112h471v-112h-471z" />
    <glyph glyph-name="lozenge" unicode="&#x25ca;" horiz-adv-x="618" 
d="M372 639l209 -319l-209 -320h-126l-209 320l209 319h126zM309 120l131 200l-131 200l-130 -200z" />
    <glyph glyph-name="A.ss01" horiz-adv-x="807" 
d="M404 750q145 0 234 -79.5t89 -210.5v-460h-141v217h-365v-217h-141v460q0 130 89 210t235 80zM221 333h365v121q0 80 -50 129.5t-131 49.5q-83 0 -133.5 -49.5t-50.5 -129.5v-121z" />
    <glyph glyph-name="Aacute.ss01" horiz-adv-x="807" 
d="M613 980l-178 -161h-116l136 161h158zM404 750q145 0 234 -79.5t89 -210.5v-460h-141v217h-365v-217h-141v460q0 130 89 210t235 80zM221 333h365v121q0 80 -50 129.5t-131 49.5q-83 0 -133.5 -49.5t-50.5 -129.5v-121z" />
    <glyph glyph-name="Abreve.ss01" horiz-adv-x="807" 
d="M404 810q-82 0 -131.5 46.5t-49.5 123.5h103q0 -40 21.5 -65.5t56.5 -25.5q36 0 57.5 25t21.5 66h103q0 -77 -50 -123.5t-132 -46.5zM404 750q145 0 234 -79.5t89 -210.5v-460h-141v217h-365v-217h-141v460q0 130 89 210t235 80zM221 333h365v121q0 80 -50 129.5
t-131 49.5q-83 0 -133.5 -49.5t-50.5 -129.5v-121z" />
    <glyph glyph-name="Acircumflex.ss01" horiz-adv-x="807" 
d="M403 903l-70 -84h-126l131 161h130l131 -161h-125zM404 750q145 0 234 -79.5t89 -210.5v-460h-141v217h-365v-217h-141v460q0 130 89 210t235 80zM221 333h365v121q0 80 -50 129.5t-131 49.5q-83 0 -133.5 -49.5t-50.5 -129.5v-121z" />
    <glyph glyph-name="Adieresis.ss01" horiz-adv-x="807" 
d="M281 828q-35 0 -58 22.5t-23 57.5t23 58t58 23t58 -23t23 -58t-23 -57.5t-58 -22.5zM526 828q-35 0 -58 22.5t-23 57.5t23 58t58 23t58 -23t23 -58t-23 -57.5t-58 -22.5zM404 750q145 0 234 -79.5t89 -210.5v-460h-141v217h-365v-217h-141v460q0 130 89 210t235 80z
M221 333h365v121q0 80 -50 129.5t-131 49.5q-83 0 -133.5 -49.5t-50.5 -129.5v-121z" />
    <glyph glyph-name="Agrave.ss01" horiz-adv-x="807" 
d="M488 819h-116l-178 161h159zM404 750q145 0 234 -79.5t89 -210.5v-460h-141v217h-365v-217h-141v460q0 130 89 210t235 80zM221 333h365v121q0 80 -50 129.5t-131 49.5q-83 0 -133.5 -49.5t-50.5 -129.5v-121z" />
    <glyph glyph-name="Amacron.ss01" horiz-adv-x="807" 
d="M582 932v-107h-356v107h356zM404 750q145 0 234 -79.5t89 -210.5v-460h-141v217h-365v-217h-141v460q0 130 89 210t235 80zM221 333h365v121q0 80 -50 129.5t-131 49.5q-83 0 -133.5 -49.5t-50.5 -129.5v-121z" />
    <glyph glyph-name="Aogonek.ss01" horiz-adv-x="807" 
d="M718 -135l12 -67q-40 -28 -93 -28q-46 0 -73.5 24.5t-27.5 64.5q0 72 91 141h-41v217h-365v-217h-141v460q0 130 89 210t235 80q145 0 234 -79.5t89 -210.5v-460q-93 -59 -93 -119q0 -15 10 -24t26 -9q28 0 48 17zM221 333h365v121q0 80 -50 129.5t-131 49.5
q-83 0 -133.5 -49.5t-50.5 -129.5v-121z" />
    <glyph glyph-name="Aring.ss01" horiz-adv-x="807" 
d="M404 785q-53 0 -85 29.5t-32 78.5t32 78.5t85 29.5t85 -29.5t32 -78.5t-32 -78.5t-85 -29.5zM404 939q-20 0 -32.5 -12.5t-12.5 -33.5t12.5 -34t32.5 -13t32 13t12 34t-12 33.5t-32 12.5zM404 750q145 0 234 -79.5t89 -210.5v-460h-141v217h-365v-217h-141v460
q0 130 89 210t235 80zM221 333h365v121q0 80 -50 129.5t-131 49.5q-83 0 -133.5 -49.5t-50.5 -129.5v-121z" />
    <glyph glyph-name="Atilde.ss01" horiz-adv-x="807" 
d="M324 876q-18 0 -29.5 -12.5t-11.5 -33.5h-74q0 65 31.5 104.5t82.5 39.5q36 0 88.5 -28t71.5 -28q41 0 41 46h74q0 -68 -30.5 -106t-82.5 -38q-34 0 -88 28t-73 28zM404 750q145 0 234 -79.5t89 -210.5v-460h-141v217h-365v-217h-141v460q0 130 89 210t235 80zM221 333
h365v121q0 80 -50 129.5t-131 49.5q-83 0 -133.5 -49.5t-50.5 -129.5v-121z" />
    <glyph glyph-name="AE.ss01" horiz-adv-x="963" 
d="M592 117h320v-117h-461v217h-234v-217h-140v400q0 153 102.5 246.5t271.5 93.5h453v-117h-312v-190h280v-116h-280v-200zM217 394v-61h234v290q-105 0 -169.5 -63t-64.5 -166z" />
    <glyph glyph-name="J.ss01" horiz-adv-x="586" 
d="M505 740v-491q0 -117 -74.5 -188t-197.5 -71q-127 0 -214 84l70 94q53 -61 135 -61q63 0 101.5 40.5t38.5 107.5v368h-309v117h450z" />
    <glyph glyph-name="C.ss02" horiz-adv-x="656" 
d="M432 -10q-175 0 -282 104.5t-107 275.5t107 275.5t282 104.5q105 0 181 -47v-129q-67 59 -179 59q-110 0 -177.5 -72.5t-67.5 -190.5t67.5 -190.5t177.5 -72.5q112 0 179 59v-129q-76 -47 -181 -47z" />
    <glyph glyph-name="Cacute.ss02" horiz-adv-x="656" 
d="M341 819l136 161h158l-178 -161h-116zM432 -10q-175 0 -282 104.5t-107 275.5t107 275.5t282 104.5q105 0 181 -47v-129q-67 59 -179 59q-110 0 -177.5 -72.5t-67.5 -190.5t67.5 -190.5t177.5 -72.5q112 0 179 59v-129q-76 -47 -181 -47z" />
    <glyph glyph-name="Ccaron.ss02" horiz-adv-x="656" 
d="M490 819h-130l-131 161h126l70 -84l71 84h125zM43 370q0 171 107 275.5t282 104.5q105 0 181 -47v-129q-67 59 -179 59q-110 0 -177.5 -72.5t-67.5 -190.5t67.5 -190.5t177.5 -72.5q112 0 179 59v-129q-76 -47 -181 -47q-175 0 -282 104.5t-107 275.5z" />
    <glyph glyph-name="Ccedilla.ss02" horiz-adv-x="656" 
d="M434 633q-110 0 -177.5 -72.5t-67.5 -190.5t67.5 -190.5t177.5 -72.5q112 0 179 59v-129q-67 -41 -155 -46l-28 -45q48 -1 76.5 -24.5t28.5 -59.5q0 -41 -35.5 -66.5t-95.5 -25.5q-63 0 -100 25l25 50q23 -18 61 -18q25 0 39.5 9.5t14.5 24.5q0 14 -13.5 22.5t-35.5 8.5
q-19 0 -37 -8l-18 32l43 76q-155 15 -247.5 117.5t-92.5 260.5q0 171 107 275.5t282 104.5q105 0 181 -47v-129q-67 59 -179 59z" />
    <glyph glyph-name="Cdotaccent.ss02" horiz-adv-x="656" 
d="M426 828q-35 0 -58 22.5t-23 57.5t23 58t58 23t58 -23t23 -58t-23 -57.5t-58 -22.5zM432 -10q-175 0 -282 104.5t-107 275.5t107 275.5t282 104.5q105 0 181 -47v-129q-67 59 -179 59q-110 0 -177.5 -72.5t-67.5 -190.5t67.5 -190.5t177.5 -72.5q112 0 179 59v-129
q-76 -47 -181 -47z" />
    <glyph glyph-name="Z.ss02" horiz-adv-x="609" 
d="M242 117h338v-117h-553l333 623h-327v117h541z" />
    <glyph glyph-name="Zacute.ss02" horiz-adv-x="609" 
d="M514 980l-178 -161h-116l136 161h158zM242 117h338v-117h-553l333 623h-327v117h541z" />
    <glyph glyph-name="Zcaron.ss02" horiz-adv-x="609" 
d="M369 819h-130l-131 161h126l70 -84l71 84h125zM242 117h338v-117h-553l333 623h-327v117h541z" />
    <glyph glyph-name="Zdotaccent.ss02" horiz-adv-x="609" 
d="M305 828q-35 0 -58 22.5t-23 57.5t23 58t58 23t58 -23t23 -58t-23 -57.5t-58 -22.5zM242 117h338v-117h-553l333 623h-327v117h541z" />
    <glyph glyph-name="i.loclTRK" horiz-adv-x="275" 
d="M138 627q-35 0 -58 22.5t-23 57.5t23 58t58 23t58 -23t23 -58t-23 -57.5t-58 -22.5zM70 0v539h136v-539h-136z" />
    <glyph glyph-name="a.ss01" horiz-adv-x="680" 
d="M480 539h131v-539h-131l-3 81q-61 -91 -181 -91q-111 0 -184.5 77t-73.5 200q0 125 73.5 203.5t184.5 78.5q120 0 181 -91zM327 107q66 0 107 45t41 118t-41 118t-107 45q-67 0 -107.5 -45t-40.5 -119q0 -73 40.5 -117.5t107.5 -44.5z" />
    <glyph glyph-name="aacute.ss01" horiz-adv-x="680" 
d="M544 779l-178 -161h-116l136 161h158zM480 539h131v-539h-131l-3 81q-61 -91 -181 -91q-111 0 -184.5 77t-73.5 200q0 125 73.5 203.5t184.5 78.5q120 0 181 -91zM327 107q66 0 107 45t41 118t-41 118t-107 45q-67 0 -107.5 -45t-40.5 -119q0 -73 40.5 -117.5
t107.5 -44.5z" />
    <glyph glyph-name="abreve.ss01" horiz-adv-x="680" 
d="M335 609q-82 0 -131.5 46.5t-49.5 123.5h103q0 -40 21.5 -65.5t56.5 -25.5q36 0 57.5 25t21.5 66h103q0 -77 -50 -123.5t-132 -46.5zM480 539h131v-539h-131l-3 81q-61 -91 -181 -91q-111 0 -184.5 77t-73.5 200q0 125 73.5 203.5t184.5 78.5q120 0 181 -91zM327 107
q66 0 107 45t41 118t-41 118t-107 45q-67 0 -107.5 -45t-40.5 -119q0 -73 40.5 -117.5t107.5 -44.5z" />
    <glyph glyph-name="acircumflex.ss01" horiz-adv-x="680" 
d="M334 702l-70 -84h-126l131 161h130l131 -161h-125zM480 539h131v-539h-131l-3 81q-61 -91 -181 -91q-111 0 -184.5 77t-73.5 200q0 125 73.5 203.5t184.5 78.5q120 0 181 -91zM327 107q66 0 107 45t41 118t-41 118t-107 45q-67 0 -107.5 -45t-40.5 -119
q0 -73 40.5 -117.5t107.5 -44.5z" />
    <glyph glyph-name="adieresis.ss01" horiz-adv-x="680" 
d="M212 627q-35 0 -58 22.5t-23 57.5t23 58t58 23t58 -23t23 -58t-23 -57.5t-58 -22.5zM457 627q-35 0 -58 22.5t-23 57.5t23 58t58 23t58 -23t23 -58t-23 -57.5t-58 -22.5zM480 539h131v-539h-131l-3 81q-61 -91 -181 -91q-111 0 -184.5 77t-73.5 200q0 125 73.5 203.5
t184.5 78.5q120 0 181 -91zM327 107q66 0 107 45t41 118t-41 118t-107 45q-67 0 -107.5 -45t-40.5 -119q0 -73 40.5 -117.5t107.5 -44.5z" />
    <glyph glyph-name="agrave.ss01" horiz-adv-x="680" 
d="M419 618h-116l-178 161h159zM480 539h131v-539h-131l-3 81q-61 -91 -181 -91q-111 0 -184.5 77t-73.5 200q0 125 73.5 203.5t184.5 78.5q120 0 181 -91zM327 107q66 0 107 45t41 118t-41 118t-107 45q-67 0 -107.5 -45t-40.5 -119q0 -73 40.5 -117.5t107.5 -44.5z" />
    <glyph glyph-name="amacron.ss01" horiz-adv-x="680" 
d="M513 731v-107h-356v107h356zM480 539h131v-539h-131l-3 81q-61 -91 -181 -91q-111 0 -184.5 77t-73.5 200q0 125 73.5 203.5t184.5 78.5q120 0 181 -91zM327 107q66 0 107 45t41 118t-41 118t-107 45q-67 0 -107.5 -45t-40.5 -119q0 -73 40.5 -117.5t107.5 -44.5z" />
    <glyph glyph-name="aogonek.ss01" horiz-adv-x="680" 
d="M602 -135l12 -67q-40 -28 -93 -28q-46 0 -73.5 24.5t-27.5 64.5q0 72 91 141h-31l-3 81q-61 -91 -181 -91q-111 0 -184.5 77t-73.5 200q0 125 73.5 203.5t184.5 78.5q120 0 181 -91l3 81h131v-539q-93 -59 -93 -119q0 -15 10 -24t26 -9q28 0 48 17zM327 107q66 0 107 45
t41 118t-41 118t-107 45q-67 0 -107.5 -45t-40.5 -119q0 -73 40.5 -117.5t107.5 -44.5z" />
    <glyph glyph-name="aring.ss01" horiz-adv-x="680" 
d="M335 584q-53 0 -85 29.5t-32 78.5t32 78.5t85 29.5t85 -29.5t32 -78.5t-32 -78.5t-85 -29.5zM335 738q-20 0 -32.5 -12.5t-12.5 -33.5t12.5 -34t32.5 -13t32 13t12 34t-12 33.5t-32 12.5zM480 539h131v-539h-131l-3 81q-61 -91 -181 -91q-111 0 -184.5 77t-73.5 200
q0 125 73.5 203.5t184.5 78.5q120 0 181 -91zM327 107q66 0 107 45t41 118t-41 118t-107 45q-67 0 -107.5 -45t-40.5 -119q0 -73 40.5 -117.5t107.5 -44.5z" />
    <glyph glyph-name="atilde.ss01" horiz-adv-x="680" 
d="M255 675q-18 0 -29.5 -12.5t-11.5 -33.5h-74q0 65 31.5 104.5t82.5 39.5q36 0 88.5 -28t71.5 -28q41 0 41 46h74q0 -68 -30.5 -106t-82.5 -38q-34 0 -88 28t-73 28zM480 539h131v-539h-131l-3 81q-61 -91 -181 -91q-111 0 -184.5 77t-73.5 200q0 125 73.5 203.5
t184.5 78.5q120 0 181 -91zM327 107q66 0 107 45t41 118t-41 118t-107 45q-67 0 -107.5 -45t-40.5 -119q0 -73 40.5 -117.5t107.5 -44.5z" />
    <glyph glyph-name="f.ss01" horiz-adv-x="364" 
d="M286 673q-36 0 -58.5 -20t-22.5 -54v-60h142v-111h-142v-428h-136v620q0 77 48 123.5t126 46.5q72 0 119 -22l-10 -106q-24 11 -66 11z" />
    <glyph glyph-name="j.ss01" horiz-adv-x="275" 
d="M137 627q-35 0 -58 22.5t-23 57.5t23 58t58 23t58 -23t23 -58t-23 -57.5t-58 -22.5zM70 -220v759h136v-759h-136z" />
    <glyph glyph-name="t.ss01" horiz-adv-x="389" 
d="M273 107q51 0 94 18v-110q-60 -25 -138 -25q-74 0 -119.5 47t-45.5 123v537h136v-158h159v-111h-159v-240q0 -37 20.5 -59t52.5 -22z" />
    <glyph glyph-name="tbar.ss01" horiz-adv-x="390" 
d="M273 107q51 0 94 18v-110q-60 -25 -138 -25q-74 0 -119.5 47t-45.5 123v537h136v-158h159v-111h-159v-101h148v-98h-148v-41q0 -37 20.5 -59t52.5 -22z" />
    <glyph glyph-name="tcaron.ss01" horiz-adv-x="389" 
d="M433 780l-67 -187h-103l48 187h122zM200 188q0 -37 20.5 -59t52.5 -22q51 0 94 18v-110q-60 -25 -138 -25q-74 0 -119.5 47t-45.5 123v537h136v-158h159v-111h-159v-240z" />
    <glyph glyph-name="uni0163.ss01" horiz-adv-x="389" 
d="M229 -10q-9 0 -27 2l-28 -46q48 -1 76 -24t28 -60q0 -42 -35.5 -67t-95.5 -25q-63 0 -100 25l25 50q23 -18 61 -18q25 0 39.5 9.5t14.5 24.5q0 31 -49 31q-19 0 -37 -8l-17 32l53 99q-73 46 -73 145v537h136v-158h159v-111h-159v-240q0 -37 20.5 -59t52.5 -22q51 0 94 18
v-110q-60 -25 -138 -25z" />
    <glyph glyph-name="uni021B.ss01" horiz-adv-x="389" 
d="M273 107q51 0 94 18v-110q-60 -25 -138 -25q-74 0 -119.5 47t-45.5 123v537h136v-158h159v-111h-159v-240q0 -37 20.5 -59t52.5 -22zM95 -220l43 168h122l-62 -168h-103z" />
    <glyph glyph-name="u.ss01" horiz-adv-x="628" 
d="M314 -10q-114 0 -183 62t-69 163v324h136v-317q0 -52 32 -83.5t84 -31.5t83.5 31.5t31.5 83.5v317h136v-324q0 -101 -69 -163t-182 -62z" />
    <glyph glyph-name="uacute.ss01" horiz-adv-x="628" 
d="M229 618l136 161h158l-178 -161h-116zM314 -10q-114 0 -183 62t-69 163v324h136v-317q0 -52 32 -83.5t84 -31.5t83.5 31.5t31.5 83.5v317h136v-324q0 -101 -69 -163t-182 -62z" />
    <glyph glyph-name="ucircumflex.ss01" horiz-adv-x="628" 
d="M313 702l-70 -84h-126l131 161h130l131 -161h-125zM429 539h136v-324q0 -101 -69 -163t-182 -62q-114 0 -183 62t-69 163v324h136v-317q0 -52 32 -83.5t84 -31.5t83.5 31.5t31.5 83.5v317z" />
    <glyph glyph-name="udieresis.ss01" horiz-adv-x="628" 
d="M191 627q-35 0 -58 22.5t-23 57.5t23 58t58 23t58 -23t23 -58t-23 -57.5t-58 -22.5zM436 627q-35 0 -58 22.5t-23 57.5t23 58t58 23t58 -23t23 -58t-23 -57.5t-58 -22.5zM314 -10q-114 0 -183 62t-69 163v324h136v-317q0 -52 32 -83.5t84 -31.5t83.5 31.5t31.5 83.5v317
h136v-324q0 -101 -69 -163t-182 -62z" />
    <glyph glyph-name="ugrave.ss01" horiz-adv-x="628" 
d="M282 618l-178 161h159l135 -161h-116zM314 -10q-114 0 -183 62t-69 163v324h136v-317q0 -52 32 -83.5t84 -31.5t83.5 31.5t31.5 83.5v317h136v-324q0 -101 -69 -163t-182 -62z" />
    <glyph glyph-name="uhungarumlaut.ss01" horiz-adv-x="628" 
d="M150 618l106 161h159l-149 -161h-116zM347 618l106 161h159l-149 -161h-116zM314 -10q-114 0 -183 62t-69 163v324h136v-317q0 -52 32 -83.5t84 -31.5t83.5 31.5t31.5 83.5v317h136v-324q0 -101 -69 -163t-182 -62z" />
    <glyph glyph-name="umacron.ss01" horiz-adv-x="628" 
d="M136 624v107h356v-107h-356zM314 -10q-114 0 -183 62t-69 163v324h136v-317q0 -52 32 -83.5t84 -31.5t83.5 31.5t31.5 83.5v317h136v-324q0 -101 -69 -163t-182 -62z" />
    <glyph glyph-name="uogonek.ss01" horiz-adv-x="628" 
d="M429 539h136v-324q0 -81 -45 -138t-124 -77q-93 -59 -93 -119q0 -15 10 -24t26 -9q28 0 48 17l12 -67q-40 -28 -93 -28q-46 0 -73.5 24.5t-27.5 64.5q0 66 80 132q-102 8 -162.5 69t-60.5 155v324h136v-317q0 -52 32 -83.5t84 -31.5t83.5 31.5t31.5 83.5v317z" />
    <glyph glyph-name="uring.ss01" horiz-adv-x="628" 
d="M314 584q-53 0 -85 29.5t-32 78.5t32 78.5t85 29.5t85 -29.5t32 -78.5t-32 -78.5t-85 -29.5zM314 645q20 0 32 13t12 34t-12 33.5t-32 12.5t-32.5 -12.5t-12.5 -33.5t12.5 -34t32.5 -13zM314 -10q-114 0 -183 62t-69 163v324h136v-317q0 -52 32 -83.5t84 -31.5t83.5 31.5
t31.5 83.5v317h136v-324q0 -101 -69 -163t-182 -62z" />
    <glyph glyph-name="y.ss01" horiz-adv-x="635" 
d="M430 539h136v-488q0 -127 -80.5 -204t-213.5 -77q-132 0 -215 68l30 107q76 -58 182 -58q72 0 116.5 45t44.5 120v10q-60 -72 -163 -72q-92 0 -148.5 58t-56.5 153v338h136v-317q0 -52 32 -83.5t85 -31.5q52 0 83.5 31.5t31.5 83.5v317z" />
    <glyph glyph-name="yacute.ss01" horiz-adv-x="635" 
d="M519 779l-178 -161h-116l136 161h158zM430 539h136v-488q0 -127 -80.5 -204t-213.5 -77q-132 0 -215 68l30 107q76 -58 182 -58q72 0 116.5 45t44.5 120v10q-60 -72 -163 -72q-92 0 -148.5 58t-56.5 153v338h136v-317q0 -52 32 -83.5t85 -31.5q52 0 83.5 31.5t31.5 83.5
v317z" />
    <glyph glyph-name="ycircumflex.ss01" horiz-adv-x="635" 
d="M309 702l-70 -84h-126l131 161h130l131 -161h-125zM430 539h136v-488q0 -127 -80.5 -204t-213.5 -77q-132 0 -215 68l30 107q76 -58 182 -58q72 0 116.5 45t44.5 120v10q-60 -72 -163 -72q-92 0 -148.5 58t-56.5 153v338h136v-317q0 -52 32 -83.5t85 -31.5
q52 0 83.5 31.5t31.5 83.5v317z" />
    <glyph glyph-name="ydieresis.ss01" horiz-adv-x="635" 
d="M187 627q-35 0 -58 22.5t-23 57.5t23 58t58 23t58 -23t23 -58t-23 -57.5t-58 -22.5zM432 627q-35 0 -58 22.5t-23 57.5t23 58t58 23t58 -23t23 -58t-23 -57.5t-58 -22.5zM430 539h136v-488q0 -127 -80.5 -204t-213.5 -77q-132 0 -215 68l30 107q76 -58 182 -58
q72 0 116.5 45t44.5 120v10q-60 -72 -163 -72q-92 0 -148.5 58t-56.5 153v338h136v-317q0 -52 32 -83.5t85 -31.5q52 0 83.5 31.5t31.5 83.5v317z" />
    <glyph glyph-name="ygrave.ss01" horiz-adv-x="635" 
d="M394 618h-116l-178 161h159zM430 539h136v-488q0 -127 -80.5 -204t-213.5 -77q-132 0 -215 68l30 107q76 -58 182 -58q72 0 116.5 45t44.5 120v10q-60 -72 -163 -72q-92 0 -148.5 58t-56.5 153v338h136v-317q0 -52 32 -83.5t85 -31.5q52 0 83.5 31.5t31.5 83.5v317z" />
    <glyph glyph-name="a.ss02" horiz-adv-x="585" 
d="M66 539h450v-539h-131l-3 77q-27 -41 -70.5 -64t-93.5 -23q-83 0 -134.5 46t-51.5 121q0 78 62.5 125t166.5 47q58 0 119 -12v115h-314v107zM257 87q50 0 86 37.5t37 100.5q-55 11 -102 11t-76 -21t-29 -55t22 -53.5t62 -19.5z" />
    <glyph glyph-name="aacute.ss02" horiz-adv-x="585" 
d="M505 779l-178 -161h-116l136 161h158zM66 539h450v-539h-131l-3 77q-27 -41 -70.5 -64t-93.5 -23q-83 0 -134.5 46t-51.5 121q0 78 62.5 125t166.5 47q58 0 119 -12v115h-314v107zM257 87q50 0 86 37.5t37 100.5q-55 11 -102 11t-76 -21t-29 -55t22 -53.5t62 -19.5z" />
    <glyph glyph-name="abreve.ss02" horiz-adv-x="585" 
d="M296 609q-82 0 -131.5 46.5t-49.5 123.5h103q0 -40 21.5 -65.5t56.5 -25.5q36 0 57.5 25t21.5 66h103q0 -77 -50 -123.5t-132 -46.5zM66 539h450v-539h-131l-3 77q-27 -41 -70.5 -64t-93.5 -23q-83 0 -134.5 46t-51.5 121q0 78 62.5 125t166.5 47q58 0 119 -12v115h-314
v107zM257 87q50 0 86 37.5t37 100.5q-55 11 -102 11t-76 -21t-29 -55t22 -53.5t62 -19.5z" />
    <glyph glyph-name="acircumflex.ss02" horiz-adv-x="585" 
d="M295 702l-70 -84h-126l131 161h130l131 -161h-125zM66 539h450v-539h-131l-3 77q-27 -41 -70.5 -64t-93.5 -23q-83 0 -134.5 46t-51.5 121q0 78 62.5 125t166.5 47q58 0 119 -12v115h-314v107zM257 87q50 0 86 37.5t37 100.5q-55 11 -102 11t-76 -21t-29 -55t22 -53.5
t62 -19.5z" />
    <glyph glyph-name="adieresis.ss02" horiz-adv-x="585" 
d="M173 627q-35 0 -58 22.5t-23 57.5t23 58t58 23t58 -23t23 -58t-23 -57.5t-58 -22.5zM418 627q-35 0 -58 22.5t-23 57.5t23 58t58 23t58 -23t23 -58t-23 -57.5t-58 -22.5zM66 539h450v-539h-131l-3 77q-27 -41 -70.5 -64t-93.5 -23q-83 0 -134.5 46t-51.5 121
q0 78 62.5 125t166.5 47q58 0 119 -12v115h-314v107zM257 87q50 0 86 37.5t37 100.5q-55 11 -102 11t-76 -21t-29 -55t22 -53.5t62 -19.5z" />
    <glyph glyph-name="agrave.ss02" horiz-adv-x="585" 
d="M380 618h-116l-178 161h159zM66 539h450v-539h-131l-3 77q-27 -41 -70.5 -64t-93.5 -23q-83 0 -134.5 46t-51.5 121q0 78 62.5 125t166.5 47q58 0 119 -12v115h-314v107zM257 87q50 0 86 37.5t37 100.5q-55 11 -102 11t-76 -21t-29 -55t22 -53.5t62 -19.5z" />
    <glyph glyph-name="amacron.ss02" horiz-adv-x="585" 
d="M474 731v-107h-356v107h356zM66 539h450v-539h-131l-3 77q-27 -41 -70.5 -64t-93.5 -23q-83 0 -134.5 46t-51.5 121q0 78 62.5 125t166.5 47q58 0 119 -12v115h-314v107zM257 87q50 0 86 37.5t37 100.5q-55 11 -102 11t-76 -21t-29 -55t22 -53.5t62 -19.5z" />
    <glyph glyph-name="aogonek.ss02" horiz-adv-x="585" 
d="M507 -135l12 -67q-40 -28 -93 -28q-46 0 -73.5 24.5t-27.5 64.5q0 72 91 141h-31l-3 77q-27 -41 -70.5 -64t-93.5 -23q-83 0 -134.5 46t-51.5 121q0 78 62.5 125t166.5 47q58 0 119 -12v115h-314v107h450v-539q-93 -59 -93 -119q0 -15 10 -24t26 -9q28 0 48 17zM257 87
q50 0 86 37.5t37 100.5q-55 11 -102 11t-76 -21t-29 -55t22 -53.5t62 -19.5z" />
    <glyph glyph-name="aring.ss02" horiz-adv-x="585" 
d="M296 584q-53 0 -85 29.5t-32 78.5t32 78.5t85 29.5t85 -29.5t32 -78.5t-32 -78.5t-85 -29.5zM296 738q-20 0 -32.5 -12.5t-12.5 -33.5t12.5 -34t32.5 -13t32 13t12 34t-12 33.5t-32 12.5zM66 539h450v-539h-131l-3 77q-27 -41 -70.5 -64t-93.5 -23q-83 0 -134.5 46
t-51.5 121q0 78 62.5 125t166.5 47q58 0 119 -12v115h-314v107zM257 87q50 0 86 37.5t37 100.5q-55 11 -102 11t-76 -21t-29 -55t22 -53.5t62 -19.5z" />
    <glyph glyph-name="atilde.ss02" horiz-adv-x="585" 
d="M216 675q-18 0 -29.5 -12.5t-11.5 -33.5h-74q0 65 31.5 104.5t82.5 39.5q36 0 88.5 -28t71.5 -28q41 0 41 46h74q0 -68 -30.5 -106t-82.5 -38q-34 0 -88 28t-73 28zM66 539h450v-539h-131l-3 77q-27 -41 -70.5 -64t-93.5 -23q-83 0 -134.5 46t-51.5 121q0 78 62.5 125
t166.5 47q58 0 119 -12v115h-314v107zM257 87q50 0 86 37.5t37 100.5q-55 11 -102 11t-76 -21t-29 -55t22 -53.5t62 -19.5z" />
    <glyph glyph-name="c.ss02" horiz-adv-x="487" 
d="M327 -10q-130 0 -209.5 77t-79.5 203q0 125 79.5 202t209.5 77q61 0 112 -28v-126q-41 38 -105 38q-70 0 -112.5 -45t-42.5 -118t42.5 -118t112.5 -45q67 0 108 41v-126q-46 -32 -115 -32z" />
    <glyph glyph-name="cacute.ss02" horiz-adv-x="487" 
d="M230 618l136 161h158l-178 -161h-116zM327 -10q-130 0 -209.5 77t-79.5 203q0 125 79.5 202t209.5 77q61 0 112 -28v-126q-41 38 -105 38q-70 0 -112.5 -45t-42.5 -118t42.5 -118t112.5 -45q67 0 108 41v-126q-46 -32 -115 -32z" />
    <glyph glyph-name="ccaron.ss02" horiz-adv-x="487" 
d="M379 618h-130l-131 161h126l70 -84l71 84h125zM179 270q0 -73 42.5 -118t112.5 -45q67 0 108 41v-126q-46 -32 -115 -32q-130 0 -209.5 77t-79.5 203q0 125 79.5 202t209.5 77q61 0 112 -28v-126q-41 38 -105 38q-70 0 -112.5 -45t-42.5 -118z" />
    <glyph glyph-name="ccedilla.ss02" horiz-adv-x="487" 
d="M442 22q-41 -29 -104 -32l-28 -44q48 -1 76.5 -24.5t28.5 -59.5q0 -41 -35.5 -66.5t-95.5 -25.5q-63 0 -100 25l25 50q23 -18 61 -18q25 0 39.5 9.5t14.5 24.5q0 14 -13.5 22.5t-35.5 8.5q-19 0 -37 -8l-18 32l44 79q-103 18 -164.5 92t-61.5 183q0 125 79.5 202
t209.5 77q61 0 112 -28v-126q-41 38 -105 38q-70 0 -112.5 -45t-42.5 -118t42.5 -118t112.5 -45q67 0 108 41v-126z" />
    <glyph glyph-name="cdotaccent.ss02" horiz-adv-x="487" 
d="M315 627q-35 0 -58 22.5t-23 57.5t23 58t58 23t58 -23t23 -58t-23 -57.5t-58 -22.5zM327 -10q-130 0 -209.5 77t-79.5 203q0 125 79.5 202t209.5 77q61 0 112 -28v-126q-41 38 -105 38q-70 0 -112.5 -45t-42.5 -118t42.5 -118t112.5 -45q67 0 108 41v-126
q-46 -32 -115 -32z" />
    <glyph glyph-name="f.ss02" horiz-adv-x="406" 
d="M401 669h-152v-130h142v-111h-142v-428h-136v428h-87v111h87v241h288v-111z" />
    <glyph glyph-name="g.ss02" horiz-adv-x="680" 
d="M481 539h131v-759h-544v111h408v187q-61 -88 -179 -88q-111 0 -184.5 78.5t-73.5 203.5q0 123 73.5 200t184.5 77q120 0 181 -91zM328 107q66 0 107 45t41 118t-41 118t-107 45q-67 0 -107.5 -44.5t-40.5 -117.5q0 -74 40.5 -119t107.5 -45z" />
    <glyph glyph-name="gbreve.ss02" horiz-adv-x="680" 
d="M337 609q-82 0 -131.5 46.5t-49.5 123.5h103q0 -40 21.5 -65.5t56.5 -25.5q36 0 57.5 25t21.5 66h103q0 -77 -50 -123.5t-132 -46.5zM481 539h131v-759h-544v111h408v187q-61 -88 -179 -88q-111 0 -184.5 78.5t-73.5 203.5q0 123 73.5 200t184.5 77q120 0 181 -91z
M328 107q66 0 107 45t41 118t-41 118t-107 45q-67 0 -107.5 -44.5t-40.5 -117.5q0 -74 40.5 -119t107.5 -45z" />
    <glyph glyph-name="gcommaaccent.ss02" horiz-adv-x="680" 
d="M433 780l-48 -187h-123l68 187h103zM481 539h131v-759h-544v111h408v187q-61 -88 -179 -88q-111 0 -184.5 78.5t-73.5 203.5q0 123 73.5 200t184.5 77q120 0 181 -91zM328 107q66 0 107 45t41 118t-41 118t-107 45q-67 0 -107.5 -44.5t-40.5 -117.5q0 -74 40.5 -119
t107.5 -45z" />
    <glyph glyph-name="gdotaccent.ss02" horiz-adv-x="680" 
d="M337 627q-35 0 -58 22.5t-23 57.5t23 58t58 23t58 -23t23 -58t-23 -57.5t-58 -22.5zM481 539h131v-759h-544v111h408v187q-61 -88 -179 -88q-111 0 -184.5 78.5t-73.5 203.5q0 123 73.5 200t184.5 77q120 0 181 -91zM328 107q66 0 107 45t41 118t-41 118t-107 45
q-67 0 -107.5 -44.5t-40.5 -117.5q0 -74 40.5 -119t107.5 -45z" />
    <glyph glyph-name="j.ss02" horiz-adv-x="275" 
d="M137 627q-35 0 -58 22.5t-23 57.5t23 58t58 23t58 -23t23 -58t-23 -57.5t-58 -22.5zM70 -220v759h136v-759h-136z" />
    <glyph glyph-name="l.ss02" horiz-adv-x="322" 
d="M70 0v780h136v-668h101v-112h-237z" />
    <glyph glyph-name="lacute.ss02" horiz-adv-x="322" 
d="M54 859l136 161h158l-178 -161h-116zM70 0v780h136v-668h101v-112h-237z" />
    <glyph glyph-name="lcaron.ss02" horiz-adv-x="338" 
d="M70 0v780h136v-668h101v-112h-237zM254 593l48 187h123l-68 -187h-103z" />
    <glyph glyph-name="lcommaaccent.ss02" horiz-adv-x="322" 
d="M70 0v780h136v-668h101v-112h-237zM84 -220l43 168h122l-62 -168h-103z" />
    <glyph glyph-name="lslash.ss02" horiz-adv-x="322" 
d="M206 112h101v-112h-237v292l-82 -58v110l82 58v378h136v-301l84 59v-109l-84 -59v-258z" />
    <glyph glyph-name="t.ss02" horiz-adv-x="395" 
d="M384 539v-111h-115v-428h-136v428h-113v111h113v158h136v-158h115z" />
    <glyph glyph-name="tbar.ss02" horiz-adv-x="397" 
d="M384 428h-115v-116h105v-97h-105v-215h-136v215h-103v97h103v116h-113v111h113v158h136v-158h115v-111z" />
    <glyph glyph-name="tcaron.ss02" horiz-adv-x="395" 
d="M381 780h122l-67 -187h-103zM269 697v-158h115v-111h-115v-428h-136v428h-113v111h113v158h136z" />
    <glyph glyph-name="uni0163.ss02" horiz-adv-x="395" 
d="M269 0h-27l-33 -54q47 -2 75.5 -24.5t28.5 -59.5q0 -42 -35.5 -67t-95.5 -25q-64 0 -99 25l24 50q23 -18 61 -18q25 0 39.5 9.5t14.5 24.5q0 31 -49 31q-20 0 -36 -8l-18 32l47 84h-33v428h-113v111h113v158h136v-158h115v-111h-115v-428z" />
    <glyph glyph-name="uni021B.ss02" horiz-adv-x="395" 
d="M384 539v-111h-115v-428h-136v428h-113v111h113v158h136v-158h115zM97 -220l43 168h122l-62 -168h-103z" />
    <glyph glyph-name="u.ss02" horiz-adv-x="628" 
d="M314 -10q-114 0 -183 62t-69 163v324h136v-317q0 -52 32 -83.5t84 -31.5t83.5 31.5t31.5 83.5v317h136v-324q0 -101 -69 -163t-182 -62z" />
    <glyph glyph-name="uacute.ss02" horiz-adv-x="628" 
d="M229 618l136 161h158l-178 -161h-116zM314 -10q-114 0 -183 62t-69 163v324h136v-317q0 -52 32 -83.5t84 -31.5t83.5 31.5t31.5 83.5v317h136v-324q0 -101 -69 -163t-182 -62z" />
    <glyph glyph-name="ucircumflex.ss02" horiz-adv-x="628" 
d="M313 702l-70 -84h-126l131 161h130l131 -161h-125zM429 539h136v-324q0 -101 -69 -163t-182 -62q-114 0 -183 62t-69 163v324h136v-317q0 -52 32 -83.5t84 -31.5t83.5 31.5t31.5 83.5v317z" />
    <glyph glyph-name="udieresis.ss02" horiz-adv-x="628" 
d="M191 627q-35 0 -58 22.5t-23 57.5t23 58t58 23t58 -23t23 -58t-23 -57.5t-58 -22.5zM436 627q-35 0 -58 22.5t-23 57.5t23 58t58 23t58 -23t23 -58t-23 -57.5t-58 -22.5zM314 -10q-114 0 -183 62t-69 163v324h136v-317q0 -52 32 -83.5t84 -31.5t83.5 31.5t31.5 83.5v317
h136v-324q0 -101 -69 -163t-182 -62z" />
    <glyph glyph-name="ugrave.ss02" horiz-adv-x="628" 
d="M282 618l-178 161h159l135 -161h-116zM314 -10q-114 0 -183 62t-69 163v324h136v-317q0 -52 32 -83.5t84 -31.5t83.5 31.5t31.5 83.5v317h136v-324q0 -101 -69 -163t-182 -62z" />
    <glyph glyph-name="uhungarumlaut.ss02" horiz-adv-x="628" 
d="M150 618l106 161h159l-149 -161h-116zM347 618l106 161h159l-149 -161h-116zM314 -10q-114 0 -183 62t-69 163v324h136v-317q0 -52 32 -83.5t84 -31.5t83.5 31.5t31.5 83.5v317h136v-324q0 -101 -69 -163t-182 -62z" />
    <glyph glyph-name="umacron.ss02" horiz-adv-x="628" 
d="M136 624v107h356v-107h-356zM314 -10q-114 0 -183 62t-69 163v324h136v-317q0 -52 32 -83.5t84 -31.5t83.5 31.5t31.5 83.5v317h136v-324q0 -101 -69 -163t-182 -62z" />
    <glyph glyph-name="uogonek.ss02" horiz-adv-x="628" 
d="M429 539h136v-324q0 -81 -45 -138t-124 -77q-93 -59 -93 -119q0 -15 10 -24t26 -9q28 0 48 17l12 -67q-40 -28 -93 -28q-46 0 -73.5 24.5t-27.5 64.5q0 66 80 132q-102 8 -162.5 69t-60.5 155v324h136v-317q0 -52 32 -83.5t84 -31.5t83.5 31.5t31.5 83.5v317z" />
    <glyph glyph-name="uring.ss02" horiz-adv-x="628" 
d="M314 584q-53 0 -85 29.5t-32 78.5t32 78.5t85 29.5t85 -29.5t32 -78.5t-32 -78.5t-85 -29.5zM314 645q20 0 32 13t12 34t-12 33.5t-32 12.5t-32.5 -12.5t-12.5 -33.5t12.5 -34t32.5 -13zM314 -10q-114 0 -183 62t-69 163v324h136v-317q0 -52 32 -83.5t84 -31.5t83.5 31.5
t31.5 83.5v317h136v-324q0 -101 -69 -163t-182 -62z" />
    <glyph glyph-name="y.ss02" horiz-adv-x="635" 
d="M430 539h136v-759h-499v111h363v171q-60 -72 -163 -72q-92 0 -148.5 58t-56.5 153v338h136v-317q0 -52 32 -83.5t85 -31.5q52 0 83.5 31.5t31.5 83.5v317z" />
    <glyph glyph-name="yacute.ss02" horiz-adv-x="635" 
d="M524 779l-178 -161h-116l136 161h158zM430 539h136v-759h-499v111h363v171q-60 -72 -163 -72q-92 0 -148.5 58t-56.5 153v338h136v-317q0 -52 32 -83.5t85 -31.5q52 0 83.5 31.5t31.5 83.5v317z" />
    <glyph glyph-name="ycircumflex.ss02" horiz-adv-x="635" 
d="M314 702l-70 -84h-126l131 161h130l131 -161h-125zM430 539h136v-759h-499v111h363v171q-60 -72 -163 -72q-92 0 -148.5 58t-56.5 153v338h136v-317q0 -52 32 -83.5t85 -31.5q52 0 83.5 31.5t31.5 83.5v317z" />
    <glyph glyph-name="ydieresis.ss02" horiz-adv-x="635" 
d="M192 627q-35 0 -58 22.5t-23 57.5t23 58t58 23t58 -23t23 -58t-23 -57.5t-58 -22.5zM437 627q-35 0 -58 22.5t-23 57.5t23 58t58 23t58 -23t23 -58t-23 -57.5t-58 -22.5zM430 539h136v-759h-499v111h363v171q-60 -72 -163 -72q-92 0 -148.5 58t-56.5 153v338h136v-317
q0 -52 32 -83.5t85 -31.5q52 0 83.5 31.5t31.5 83.5v317z" />
    <glyph glyph-name="ygrave.ss02" horiz-adv-x="635" 
d="M399 618h-116l-178 161h159zM430 539h136v-759h-499v111h363v171q-60 -72 -163 -72q-92 0 -148.5 58t-56.5 153v338h136v-317q0 -52 32 -83.5t85 -31.5q52 0 83.5 31.5t31.5 83.5v317z" />
    <glyph glyph-name="z.ss02" horiz-adv-x="527" 
d="M30 0l253 428h-249v111h457l-252 -427h257v-112h-466z" />
    <glyph glyph-name="zacute.ss02" horiz-adv-x="527" 
d="M179 618l136 161h158l-178 -161h-116zM30 0l253 428h-249v111h457l-252 -427h257v-112h-466z" />
    <glyph glyph-name="zcaron.ss02" horiz-adv-x="527" 
d="M328 618h-130l-131 161h126l70 -84l71 84h125zM239 112h257v-112h-466l253 428h-249v111h457z" />
    <glyph glyph-name="zdotaccent.ss02" horiz-adv-x="527" 
d="M264 627q-35 0 -58 22.5t-23 57.5t23 58t58 23t58 -23t23 -58t-23 -57.5t-58 -22.5zM30 0l253 428h-249v111h457l-252 -427h257v-112h-466z" />
    <glyph glyph-name="fi.ss01" horiz-adv-x="639" 
d="M69 620q0 77 48 123.5t126 46.5q72 0 119 -22l-10 -106q-24 11 -66 11q-36 0 -58.5 -20t-22.5 -54v-60h142v-111h-142v-428h-136v620zM502 627q-35 0 -58 22.5t-23 57.5t23 58t58 23t57.5 -23t22.5 -58t-22.5 -57.5t-57.5 -22.5zM434 0v539h136v-539h-136z" />
    <glyph glyph-name="fl.ss01" horiz-adv-x="640" 
d="M69 620q0 77 48 123.5t126 46.5q72 0 119 -22l-10 -106q-24 11 -66 11q-36 0 -58.5 -20t-22.5 -54v-60h142v-111h-142v-428h-136v620zM434 780h136v-780h-136v780z" />
    <glyph glyph-name="fi.ss02" horiz-adv-x="681" 
d="M544 627q-35 0 -58 22.5t-23 57.5t23 58t58 23t57.5 -23t22.5 -58t-22.5 -57.5t-57.5 -22.5zM113 539v241h288v-111h-152v-130h142v-111h-142v-428h-136v428h-87v111h87zM476 0v539h136v-539h-136z" />
    <glyph glyph-name="fl.ss02" horiz-adv-x="728" 
d="M113 539v241h288v-111h-152v-130h142v-111h-142v-428h-136v428h-87v111h87zM612 112h101v-112h-237v780h136v-668z" />
    <glyph glyph-name="zero.lf" horiz-adv-x="712" 
d="M323 -10q-127 0 -204.5 104.5t-77.5 275.5t77.5 275.5t204.5 104.5t204 -104.5t77 -275.5t-77 -275.5t-204 -104.5zM323 107q61 0 98.5 72t37.5 191t-37.5 191t-98.5 72t-98.5 -72t-37.5 -191t37.5 -191t98.5 -72z" />
    <glyph glyph-name="one.lf" horiz-adv-x="448" 
d="M220 0v559l-144 -102l-70 100l248 183h107v-740h-141z" />
    <glyph glyph-name="two.lf" horiz-adv-x="593" 
d="M42 0v89l229 248q1 1 14 15.5t17.5 19.5t17 19.5t18.5 23t16.5 23.5t16 26t11.5 25t8.5 27t2.5 25q0 41 -26.5 66.5t-69.5 25.5q-47 0 -75.5 -30.5t-28.5 -80.5l-143 13q0 97 67 156t176 59q110 0 176 -54t66 -144q0 -72 -41.5 -137t-129.5 -157l-138 -144l318 3v-117
h-502z" />
    <glyph glyph-name="three.lf" horiz-adv-x="582" 
d="M310 449q103 -2 166 -63t63 -159q0 -107 -76 -172t-206 -65q-69 0 -129.5 19.5t-96.5 54.5l53 103q57 -60 157 -60q70 0 111 32.5t41 86.5q0 53 -38.5 84.5t-102.5 31.5q-56 0 -101 -24l-38 71l204 234h-252v117h436v-88z" />
    <glyph glyph-name="four.lf" horiz-adv-x="642" 
d="M364 0v143h-343v97l374 500h110v-480h102v-117h-102v-143h-141zM187 256h181l2 244z" />
    <glyph glyph-name="five.lf" horiz-adv-x="592" 
d="M249 -10q-145 0 -223 66l42 102q63 -51 168 -51q75 0 121 36.5t46 95.5q0 51 -32.5 82t-86.5 31q-68 0 -109 -36l-94 13l51 411h380v-117h-259l-25 -165q38 11 81 11q106 0 173 -61t67 -159q0 -116 -83.5 -187.5t-216.5 -71.5z" />
    <glyph glyph-name="six.lf" horiz-adv-x="589" 
d="M328 453q97 0 163.5 -63t66.5 -163q0 -106 -71.5 -171.5t-187.5 -65.5t-187.5 64.5t-71.5 170.5q0 108 80 219l209 296h159l-216 -291q21 4 56 4zM298 107q51 0 82 32.5t31 86.5q0 53 -31 86.5t-82 33.5q-50 0 -81.5 -33.5t-31.5 -86.5q0 -54 31.5 -86.5t81.5 -32.5z" />
    <glyph glyph-name="seven.lf" horiz-adv-x="540" 
d="M23 740h501l-250 -740h-149l216 623h-318v117z" />
    <glyph glyph-name="eight.lf" 
d="M446 385q57 -26 88.5 -72t31.5 -106q0 -98 -71 -157.5t-187 -59.5q-117 0 -188 59t-71 155q0 61 31.5 107.5t88.5 73.5q-100 51 -100 161q0 92 65.5 148t173.5 56q107 0 172.5 -55.5t65.5 -146.5q0 -111 -100 -163zM307 633q-42 0 -67.5 -26.5t-25.5 -69.5t25.5 -69.5
t67.5 -26.5t67.5 26.5t25.5 69.5t-25.5 69.5t-67.5 26.5zM307 107q51 0 82 29.5t31 78.5q0 50 -31 80t-82 30t-82 -30t-31 -80q0 -49 31 -78.5t82 -29.5z" />
    <glyph glyph-name="nine.lf" horiz-adv-x="589" 
d="M289 750q116 0 187.5 -64.5t71.5 -170.5q0 -108 -80 -219l-209 -296h-159l216 291q-21 -4 -56 -4q-97 0 -163.5 63t-66.5 163q0 106 71.5 171.5t187.5 65.5zM177 514q0 -53 31 -86.5t82 -33.5q50 0 81.5 33.5t31.5 86.5q0 54 -31.5 86.5t-81.5 32.5q-51 0 -82 -32.5
t-31 -86.5z" />
    <glyph glyph-name="zero.osf" horiz-adv-x="692" 
d="M347 -10q-138 0 -222 90.5t-84 239.5q0 148 84 238.5t222 90.5q136 0 220 -90.5t84 -238.5t-84 -239t-220 -91zM347 107q71 0 114.5 58.5t43.5 154.5t-43.5 154.5t-114.5 58.5q-72 0 -116 -58.5t-44 -154.5t44 -154.5t116 -58.5z" />
    <glyph glyph-name="one.osf" horiz-adv-x="410" 
d="M189 0v459l-107 -75l-70 100l209 155h104v-639h-136z" />
    <glyph glyph-name="two.osf" horiz-adv-x="602" 
d="M47 0v89l264 217q92 70 92 134q0 42 -27.5 67.5t-73.5 25.5q-49 0 -78.5 -31t-29.5 -81l-139 13q0 97 67 156t177 59q109 0 175.5 -54.5t66.5 -143.5q0 -42 -12 -77t-38 -65.5t-48.5 -50t-62.5 -50.5l-126 -96h296v-112h-503z" />
    <glyph glyph-name="three.osf" horiz-adv-x="585" 
d="M313 348q102 -1 164 -62t62 -159q0 -107 -75.5 -172t-202.5 -65q-70 0 -130.5 19.5t-94.5 54.5l54 103q55 -60 156 -60q70 0 111 32.5t41 86.5q0 53 -39 84t-104 31q-58 0 -100 -24l-37 71l209 240h-257v111h436v-87z" />
    <glyph glyph-name="four.osf" horiz-adv-x="645" 
d="M374 -110v110h-348v88l379 551h105v-527h102v-112h-102v-110h-136zM194 108h183l2 267z" />
    <glyph glyph-name="five.osf" horiz-adv-x="589" 
d="M247 -110q-143 0 -222 65l42 103q63 -51 168 -51q75 0 120.5 36.5t45.5 95.5q0 50 -32.5 81.5t-85.5 31.5q-69 0 -109 -37l-95 14l51 410h380v-111h-259l-29 -171q35 11 86 11q104 0 169.5 -60.5t65.5 -159.5q0 -116 -82.5 -187t-213.5 -71z" />
    <glyph glyph-name="six.osf" horiz-adv-x="582" 
d="M324 453q101 0 162.5 -62t61.5 -164q0 -107 -69.5 -172t-183.5 -65q-115 0 -185 64.5t-70 170.5q0 54 16.5 100.5t56.5 106.5l219 308h154l-217 -292q30 5 55 5zM294 107q51 0 82 32.5t31 86.5q0 53 -31 86.5t-82 33.5t-82 -33.5t-31 -86.5q0 -54 31 -86.5t82 -32.5z" />
    <glyph glyph-name="seven.osf" horiz-adv-x="560" 
d="M32 639h501l-252 -749l-131 35l201 603h-319v111z" />
    <glyph glyph-name="eight.osf" horiz-adv-x="605" 
d="M439 385q55 -26 86 -72t31 -106q0 -98 -69.5 -157.5t-183.5 -59.5q-115 0 -184.5 59t-69.5 155q0 61 31 108t87 73q-98 51 -98 161q0 92 64 148t170 56q105 0 169 -55.5t64 -146.5q0 -111 -97 -163zM302 633q-42 0 -67.5 -26.5t-25.5 -69.5t25.5 -69.5t67.5 -26.5
t67.5 26.5t25.5 69.5t-25.5 69.5t-67.5 26.5zM302 107q51 0 82 29.5t31 78.5q0 50 -31 80t-82 30t-82 -30t-31 -80q0 -49 31 -78.5t82 -29.5z" />
    <glyph glyph-name="nine.osf" horiz-adv-x="577" 
d="M285 649q115 0 184.5 -64.5t69.5 -169.5q0 -55 -16 -102.5t-56 -104.5l-227 -318l-127 35l197 267q-28 -5 -54 -5q-101 0 -163 62t-62 164q0 106 70 171t184 65zM172 414q0 -54 31 -87t82 -33q50 0 81.5 33t31.5 87q0 53 -31.5 86t-81.5 33q-51 0 -82 -33t-31 -86z" />
    <glyph glyph-name="one.ss02" horiz-adv-x="370" 
d="M143 0v623h-115v117h256v-740h-141z" />
    <glyph glyph-name="one.lf.ss02" horiz-adv-x="370" 
d="M143 0v623h-115v117h256v-740h-141z" />
    <glyph glyph-name="one.osf.ss02" horiz-adv-x="368" 
d="M147 0v528h-108v111h244v-639h-136z" />
    <glyph glyph-name="one.tf.ss02" 
d="M417 117h137v-117h-485v117h207v506h-145v117h286v-623z" />
    <glyph glyph-name="one.tosf.ss02" 
d="M407 112h150v-112h-484v112h198v416h-139v111h275v-527z" />
    <glyph glyph-name="zero.tf" 
d="M308 -10q-116 0 -187.5 104.5t-71.5 275.5t71.5 275.5t187.5 104.5t187 -104.5t71 -275.5t-71 -275.5t-187 -104.5zM308 107q50 0 81 72.5t31 190.5t-31 190.5t-81 72.5t-81.5 -72.5t-31.5 -190.5t31.5 -190.5t81.5 -72.5z" />
    <glyph glyph-name="one.tf" 
d="M427 117h137v-117h-485v117h207v442l-145 -102l-70 100l248 183h108v-623z" />
    <glyph glyph-name="two.tf" 
d="M53 0v89l229 248q1 1 14 15.5t17.5 19.5t17 19.5t18.5 23t16.5 23.5t16 26t11.5 25t8.5 27t2.5 25q0 41 -26.5 66.5t-69.5 25.5q-47 0 -75.5 -30.5t-28.5 -80.5l-143 13q0 97 67 156t177 59q109 0 175.5 -54t66.5 -144q0 -72 -42 -136.5t-130 -157.5l-138 -144l319 3
v-117h-503z" />
    <glyph glyph-name="three.tf" 
d="M326 449q103 -2 166 -63t63 -159q0 -107 -76 -172t-206 -65q-71 0 -131.5 19.5t-94.5 54.5l54 103q55 -60 156 -60q71 0 112 32.5t41 86.5q0 53 -39.5 84.5t-104.5 31.5q-56 0 -99 -24l-38 71l204 234h-252v117h436v-88z" />
    <glyph glyph-name="four.tf" 
d="M340 0v143h-323v97l354 500h110v-480h103v-117h-103v-143h-141zM178 256h167l2 243z" />
    <glyph glyph-name="five.tf" 
d="M260 -10q-144 0 -223 66l42 102q63 -51 168 -51q76 0 121.5 36.5t45.5 95.5q0 51 -32.5 82t-86.5 31q-68 0 -109 -36l-94 13l51 411h380v-117h-259l-24 -165q38 11 81 11q106 0 172.5 -61t66.5 -159q0 -116 -83.5 -187.5t-216.5 -71.5z" />
    <glyph glyph-name="six.tf" 
d="M341 453q97 0 163.5 -63t66.5 -163q0 -106 -71.5 -171.5t-187.5 -65.5t-187.5 64.5t-71.5 170.5q0 108 80 219l210 296h158l-216 -290q24 3 56 3zM312 107q50 0 81.5 32.5t31.5 86.5q0 53 -31.5 86.5t-81.5 33.5q-51 0 -82 -33.5t-31 -86.5q0 -54 31 -86.5t82 -32.5z" />
    <glyph glyph-name="seven.tf" 
d="M60 740h501l-249 -740h-149l216 623h-319v117z" />
    <glyph glyph-name="eight.tf" 
d="M446 385q57 -26 88.5 -72t31.5 -106q0 -98 -71 -157.5t-187 -59.5q-117 0 -188.5 59t-71.5 155q0 61 31.5 107.5t88.5 73.5q-100 51 -100 161q0 92 66 148t174 56q107 0 172.5 -55.5t65.5 -146.5q0 -111 -100 -163zM307 633q-42 0 -67.5 -26.5t-25.5 -69.5t25.5 -69.5
t67.5 -26.5t67.5 26.5t25.5 69.5t-25.5 69.5t-67.5 26.5zM307 107q51 0 82 29.5t31 78.5q0 50 -31 80t-82 30t-82 -30t-31 -80q0 -49 31 -78.5t82 -29.5z" />
    <glyph glyph-name="nine.tf" 
d="M302 750q116 0 187.5 -64.5t71.5 -170.5q0 -108 -80 -219l-209 -296h-159l216 291q-21 -4 -56 -4q-97 0 -163.5 63t-66.5 163q0 106 71.5 171.5t187.5 65.5zM190 514q0 -53 31 -86.5t82 -33.5q50 0 81.5 33.5t31.5 86.5q0 54 -31.5 86.5t-81.5 32.5q-51 0 -82 -32.5
t-31 -86.5z" />
    <glyph glyph-name="zero.tosf" 
d="M308 -10q-116 0 -187.5 91t-71.5 239t71.5 238.5t187.5 90.5t187 -90.5t71 -238.5t-71 -239t-187 -91zM308 107q50 0 81 58.5t31 154.5t-31 154.5t-81 58.5t-81.5 -58.5t-31.5 -154.5t31.5 -154.5t81.5 -58.5z" />
    <glyph glyph-name="one.tosf" 
d="M400 112h161v-112h-484v112h187v347l-107 -75l-70 100l210 155h103v-527z" />
    <glyph glyph-name="two.tosf" 
d="M54 0v89l264 217q92 72 92 134q0 42 -28 67.5t-73 25.5q-49 0 -79 -31t-30 -81l-139 13q0 97 67 156t177 59q109 0 175.5 -54.5t66.5 -143.5q0 -42 -12 -76.5t-38.5 -66t-48 -50.5t-62.5 -50l-124 -96h294v-112h-502z" />
    <glyph glyph-name="three.tosf" 
d="M328 348q102 -1 163.5 -62t61.5 -159q0 -107 -75 -172t-202 -65q-70 0 -130.5 19.5t-95.5 54.5l54 103q55 -60 157 -60q70 0 111 32.5t41 86.5q0 53 -39.5 84t-104.5 31q-58 0 -99 -24l-37 71l209 240h-258v111h436v-87z" />
    <glyph glyph-name="four.tosf" 
d="M349 -110v110h-329v88l360 551h105v-527h103v-112h-103v-110h-136zM175 108h178l1 270z" />
    <glyph glyph-name="five.tosf" 
d="M260 -110q-143 0 -222 65l42 103q63 -51 167 -51q76 0 121.5 36.5t45.5 95.5q0 50 -32.5 81.5t-85.5 31.5q-69 0 -109 -37l-95 14l51 410h380v-111h-259l-29 -171q35 11 86 11q104 0 169.5 -60.5t65.5 -159.5q0 -116 -82.5 -187t-213.5 -71z" />
    <glyph glyph-name="six.tosf" 
d="M340 453q101 0 163 -62t62 -164q0 -107 -69.5 -172t-184.5 -65q-114 0 -184 64.5t-70 170.5q0 54 16 100.5t56 106.5l220 308h153l-216 -291q23 4 54 4zM311 107q51 0 82 32.5t31 86.5q0 53 -31 86.5t-82 33.5t-82 -33.5t-31 -86.5q0 -54 31 -86.5t82 -32.5z" />
    <glyph glyph-name="seven.tosf" 
d="M60 639h501l-253 -749l-131 35l201 603h-318v111z" />
    <glyph glyph-name="eight.tosf" 
d="M444 385q55 -26 86 -72t31 -106q0 -98 -69.5 -157.5t-183.5 -59.5q-115 0 -185 59t-70 155q0 61 31 107.5t87 73.5q-46 24 -72 66t-26 95q0 92 64.5 148t170.5 56q105 0 169 -55.5t64 -146.5q0 -111 -97 -163zM307 633q-42 0 -67.5 -26.5t-25.5 -69.5t25.5 -69.5
t67.5 -26.5t67.5 26.5t25.5 69.5t-25.5 69.5t-67.5 26.5zM307 107q51 0 82 29.5t31 78.5q0 50 -31 80t-82 30t-82 -30t-31 -80q0 -49 31 -78.5t82 -29.5z" />
    <glyph glyph-name="nine.tosf" 
d="M305 649q114 0 183.5 -64.5t69.5 -169.5q0 -55 -16 -102.5t-56 -104.5l-227 -318l-127 35l198 266q-23 -4 -54 -4q-102 0 -164 62t-62 164q0 106 70 171t185 65zM191 414q0 -54 31 -87t82 -33t82 33t31 87q0 53 -31 86t-82 33t-82 -33t-31 -86z" />
    <glyph glyph-name="zero.dnom" horiz-adv-x="395" 
d="M199 -6q-77 0 -124 62.5t-47 165.5t47 165.5t124 62.5q75 0 121.5 -62.5t46.5 -165.5t-46.5 -165.5t-121.5 -62.5zM199 66q36 0 58 43t22 113t-22 113t-58 43t-58.5 -43t-22.5 -113t22.5 -113t58.5 -43z" />
    <glyph glyph-name="one.dnom" horiz-adv-x="277" 
d="M133 0v332l-84 -60l-44 62l149 110h67v-444h-88z" />
    <glyph glyph-name="two.dnom" horiz-adv-x="366" 
d="M30 0v56l137 148q2 2 11 12t13.5 15.5t13 16t13.5 18.5t10.5 18.5t8 20.5t2.5 19q0 25 -15 39.5t-40 14.5q-27 0 -43.5 -18t-16.5 -47l-89 7q0 58 40.5 94t106.5 36q65 0 105 -33t40 -87q0 -42 -25 -81.5t-77 -92.5l-81 -85l189 1v-72h-303z" />
    <glyph glyph-name="three.dnom" horiz-adv-x="358" 
d="M193 271q61 -1 98 -38t37 -96q0 -65 -46.5 -104t-124.5 -39q-90 0 -136 43l34 65q34 -36 92 -36q42 0 66 19.5t24 51.5q0 30 -23 48.5t-60 18.5q-34 0 -59 -15l-24 45l121 138h-150v72h263v-54z" />
    <glyph glyph-name="four.dnom" horiz-adv-x="394" 
d="M220 0v85h-205v60l224 299h69v-286h60v-73h-60v-85h-88zM113 155h109l1 147z" />
    <glyph glyph-name="five.dnom" horiz-adv-x="363" 
d="M152 -6q-88 0 -134 39l26 64q38 -31 100 -31q44 0 71.5 22t27.5 57q0 29 -19.5 47t-50.5 18q-38 0 -64 -22l-58 8l31 248h229v-72h-154l-14 -96q21 7 46 7q64 0 104 -36.5t40 -95.5q0 -70 -50.5 -113.5t-130.5 -43.5z" />
    <glyph glyph-name="six.dnom" horiz-adv-x="363" 
d="M203 272q58 0 98 -38t40 -98q0 -64 -43.5 -103t-113.5 -39q-71 0 -113.5 38.5t-42.5 102.5q0 66 49 135l124 174h99l-130 -174q20 2 33 2zM184 66q29 0 47.5 19.5t18.5 50.5t-18.5 50t-47.5 19t-47 -19t-18 -50q0 -32 18 -51t47 -19z" />
    <glyph glyph-name="seven.dnom" horiz-adv-x="327" 
d="M16 444h302l-149 -444h-93l128 372h-188v72z" />
    <glyph glyph-name="eight.dnom" horiz-adv-x="380" 
d="M276 231q71 -32 71 -106q0 -59 -43 -95t-114 -36q-70 0 -113 35.5t-43 93.5q0 75 70 108q-58 31 -58 97q0 55 39.5 88.5t104.5 33.5t105 -33.5t40 -87.5q0 -66 -59 -98zM190 378q-24 0 -38.5 -15.5t-14.5 -41.5q0 -25 14.5 -40t38.5 -15q25 0 39.5 15t14.5 40
q0 26 -14.5 41.5t-39.5 15.5zM190 66q29 0 47.5 18t18.5 46t-18.5 46t-47.5 18t-47 -17.5t-18 -46.5t18 -46.5t47 -17.5z" />
    <glyph glyph-name="nine.dnom" horiz-adv-x="363" 
d="M179 450q71 0 113.5 -38.5t42.5 -102.5q0 -66 -49 -135l-124 -174h-99l130 174q-20 -2 -33 -2q-58 0 -98 38t-40 98q0 64 43.5 103t113.5 39zM113 308q0 -31 18.5 -50t47.5 -19t47 19t18 50q0 32 -18 51t-47 19t-47.5 -19.5t-18.5 -50.5z" />
    <glyph glyph-name="zero.numr" horiz-adv-x="395" 
d="M199 290q-77 0 -124 62.5t-47 165.5t47 165.5t124 62.5q75 0 121.5 -62.5t46.5 -165.5t-46.5 -165.5t-121.5 -62.5zM199 362q36 0 58 43t22 113t-22 113t-58 43t-58.5 -43t-22.5 -113t22.5 -113t58.5 -43z" />
    <glyph glyph-name="one.numr" horiz-adv-x="277" 
d="M133 296v332l-84 -60l-44 62l149 110h67v-444h-88z" />
    <glyph glyph-name="two.numr" horiz-adv-x="366" 
d="M30 296v56l137 148q2 2 11 12t13.5 15.5t13 16t13.5 18.5t10.5 18.5t8 20.5t2.5 19q0 25 -15 39.5t-40 14.5q-27 0 -43.5 -18t-16.5 -47l-89 7q0 58 40.5 94t106.5 36q65 0 105 -33t40 -87q0 -42 -25 -81.5t-77 -92.5l-81 -85l189 1v-72h-303z" />
    <glyph glyph-name="three.numr" horiz-adv-x="358" 
d="M193 567q61 -1 98 -38t37 -96q0 -65 -46.5 -104t-124.5 -39q-90 0 -136 43l34 65q34 -36 92 -36q42 0 66 19.5t24 51.5q0 30 -23 48.5t-60 18.5q-34 0 -59 -15l-24 45l121 138h-150v72h263v-54z" />
    <glyph glyph-name="four.numr" horiz-adv-x="394" 
d="M220 296v85h-205v60l224 299h69v-286h60v-73h-60v-85h-88zM113 451h109l1 147z" />
    <glyph glyph-name="five.numr" horiz-adv-x="363" 
d="M152 290q-88 0 -134 39l26 64q38 -31 100 -31q44 0 71.5 22t27.5 57q0 29 -19.5 47t-50.5 18q-38 0 -64 -22l-58 8l31 248h229v-72h-154l-14 -96q21 7 46 7q64 0 104 -36.5t40 -95.5q0 -70 -50.5 -113.5t-130.5 -43.5z" />
    <glyph glyph-name="six.numr" horiz-adv-x="363" 
d="M203 568q58 0 98 -38t40 -98q0 -64 -43.5 -103t-113.5 -39q-71 0 -113.5 38.5t-42.5 102.5q0 66 49 135l124 174h99l-130 -174q20 2 33 2zM184 362q29 0 47.5 19.5t18.5 50.5t-18.5 50t-47.5 19t-47 -19t-18 -50q0 -32 18 -51t47 -19z" />
    <glyph glyph-name="seven.numr" horiz-adv-x="327" 
d="M16 740h302l-149 -444h-93l128 372h-188v72z" />
    <glyph glyph-name="eight.numr" horiz-adv-x="380" 
d="M276 527q71 -32 71 -106q0 -59 -43 -95t-114 -36q-70 0 -113 35.5t-43 93.5q0 75 70 108q-58 31 -58 97q0 55 39.5 88.5t104.5 33.5t105 -33.5t40 -87.5q0 -66 -59 -98zM190 674q-24 0 -38.5 -15.5t-14.5 -41.5q0 -25 14.5 -40t38.5 -15q25 0 39.5 15t14.5 40
q0 26 -14.5 41.5t-39.5 15.5zM190 362q29 0 47.5 18t18.5 46t-18.5 46t-47.5 18t-47 -17.5t-18 -46.5t18 -46.5t47 -17.5z" />
    <glyph glyph-name="nine.numr" horiz-adv-x="363" 
d="M179 746q71 0 113.5 -38.5t42.5 -102.5q0 -66 -49 -135l-124 -174h-99l130 174q-20 -2 -33 -2q-58 0 -98 38t-40 98q0 64 43.5 103t113.5 39zM113 604q0 -31 18.5 -50t47.5 -19t47 19t18 50q0 32 -18 51t-47 19t-47.5 -19.5t-18.5 -50.5z" />
    <glyph glyph-name="uni2081.ss02" horiz-adv-x="234" 
d="M90 -100v372h-69v72h157v-444h-88z" />
    <glyph glyph-name="one.dnom.ss02" horiz-adv-x="234" 
d="M90 0v372h-69v72h157v-444h-88z" />
    <glyph glyph-name="one.numr.ss02" horiz-adv-x="234" 
d="M90 296v372h-69v72h157v-444h-88z" />
    <glyph glyph-name="uni00B9.ss02" horiz-adv-x="234" 
d="M90 396v372h-69v72h157v-444h-88z" />
    <glyph glyph-name="onehalf.ss02" horiz-adv-x="823" 
d="M172 -10l-73 44l420 716l72 -44zM90 296v372h-69v72h157v-444h-88zM487 0v56l137 148q2 2 11 12t13.5 15.5t13 16t13.5 18.5t10.5 18.5t8 20.5t2.5 19q0 25 -15 39.5t-40 14.5q-27 0 -43.5 -18t-16.5 -47l-89 7q0 58 40.5 94t106.5 36q65 0 105 -33t40 -87
q0 -42 -25 -81.5t-77 -92.5l-81 -85l189 1v-72h-303z" />
    <glyph glyph-name="onequarter.ss02" horiz-adv-x="812" 
d="M172 -10l-73 44l420 716l72 -44zM90 296v372h-69v72h157v-444h-88zM638 0v85h-205v60l224 299h69v-286h60v-73h-60v-85h-88zM531 155h109l1 147z" />
    <glyph glyph-name="oneeighth.ss02" horiz-adv-x="837" 
d="M519 750l72 -44l-419 -716l-73 44zM178 296h-88v372h-69v72h157v-444zM733 231q71 -32 71 -106q0 -59 -43 -95t-114 -36q-70 0 -113 35.5t-43 93.5q0 75 70 108q-58 31 -58 97q0 55 39.5 88.5t104.5 33.5t105 -33.5t40 -87.5q0 -66 -59 -98zM647 378q-24 0 -38.5 -15.5
t-14.5 -41.5q0 -25 14.5 -40t38.5 -15q25 0 39.5 15t14.5 40q0 26 -14.5 41.5t-39.5 15.5zM647 66q29 0 47.5 18t18.5 46t-18.5 46t-47.5 18t-47 -17.5t-18 -46.5t18 -46.5t47 -17.5z" />
    <glyph glyph-name="exclamdown.case" horiz-adv-x="300" 
d="M150 750q35 0 58 -23t23 -58t-23 -58t-58 -23t-58 23t-23 58t23 58t58 23zM92 523h117l12 -523h-142z" />
    <glyph glyph-name="questiondown.case" horiz-adv-x="549" 
d="M281 750q35 0 58.5 -23t23.5 -58t-23.5 -58t-58.5 -23t-57.5 23t-22.5 58t22.5 58t57.5 23zM340 523q0 -65 -18 -115.5t-36.5 -72.5t-49.5 -49q-28 -24 -41.5 -43.5t-13.5 -46.5q0 -40 27.5 -64.5t73.5 -24.5q44 0 72.5 24.5t32.5 64.5l130 -6q-5 -90 -69.5 -145
t-165.5 -55q-111 0 -179 54.5t-68 143.5q0 37 14.5 67.5t30 47t45.5 41.5q32 27 49 44.5t33 53.5t16 81h117z" />
    <glyph glyph-name="slash.case" horiz-adv-x="417" 
d="M39 0l201 740h137l-201 -740h-137z" />
    <glyph glyph-name="braceleft.case" horiz-adv-x="439" 
d="M283 -50q-74 0 -119 44t-45 116v121q0 37 -20.5 59t-54.5 22h-6v116h6q34 0 54.5 22.5t20.5 58.5v121q0 72 45 116t119 44q58 0 113 -13v-110q-27 6 -61 6t-54.5 -23t-20.5 -61v-97q0 -45 -23.5 -78.5t-61.5 -43.5q38 -10 61.5 -43t23.5 -79v-97q0 -38 20.5 -61t54.5 -23
t61 6v-110q-55 -13 -113 -13z" />
    <glyph glyph-name="braceright.case" horiz-adv-x="439" 
d="M155 -50q-58 0 -113 13v110q28 -6 62 -6t54.5 23t20.5 61v97q0 46 23.5 79t61.5 43q-38 10 -61.5 43.5t-23.5 78.5v97q0 38 -20.5 61t-54.5 23t-62 -6v110q55 13 113 13q75 0 120 -44t45 -116v-121q0 -36 20.5 -58.5t54.5 -22.5h6v-116h-6q-34 0 -54.5 -22t-20.5 -59
v-121q0 -72 -45 -116t-120 -44z" />
    <glyph glyph-name="bracketleft.case" horiz-adv-x="410" 
d="M86 -40v820h282v-117h-141v-586h141v-117h-282z" />
    <glyph glyph-name="bracketright.case" horiz-adv-x="410" 
d="M324 -40h-282v117h141v586h-141v117h282v-820z" />
    <glyph glyph-name="parenleft.case" horiz-adv-x="351" 
d="M196 -40q-148 195 -148 410t148 410h126q-48 -68 -90.5 -181t-42.5 -229t42.5 -229t90.5 -181h-126z" />
    <glyph glyph-name="parenright.case" horiz-adv-x="351" 
d="M29 -40q49 68 91.5 181t42.5 229t-42.5 229t-91.5 181h126q148 -195 148 -410t-148 -410h-126z" />
    <glyph glyph-name="logo" horiz-adv-x="1274" 
d="M76 -10q-17 0 -17 18q0 10 5 15l342 341h-324q-23 0 -23 19q0 7 7 16l340 342h-327q-20 0 -20 19v1q0 19 20 19h370q23 0 23 -20q0 -10 -8 -17l-341 -340h330q8 0 14 -6t6 -14v-327l339 338q7 8 17 8q18 0 18 -22v-324l340 338q6 8 16 8q7 0 12 -5.5t5 -13.5q0 -9 -6 -14
l-368 -372q-7 -7 -17 -7q-20 0 -20 23v324l-339 -340q-7 -7 -17 -7q-20 0 -20 23v324l-340 -340q-7 -7 -17 -7z" />
    </font>
</defs>
</svg>
