<?xml version="1.0" encoding="UTF-8"?>
<svg width="8px" height="8px" viewBox="0 0 8 8" version="1.1" xmlns="http://www.w3.org/2000/svg" xmlns:xlink="http://www.w3.org/1999/xlink">
    <!-- Generator: Sketch 53.2 (72643) - https://sketchapp.com -->
    <title>Fill 261</title>
    <desc>Created with Sketch.</desc>
    <g id="Page-1" stroke="none" stroke-width="1" fill="none" fill-rule="evenodd">
        <g id="Home---Eind-datum---Select" transform="translate(-730.000000, -605.000000)" fill="#2592CD">
            <g id="Select-data" transform="translate(454.000000, 563.000000)">
                <path d="M283.951257,45.689917 L280.310083,42.0487434 C280.245092,41.9837522 280.139439,41.9837522 280.074448,42.0487434 L278.924604,43.1982544 C278.861279,43.2622457 278.859279,43.3642319 278.920271,43.430223 L280.208097,44.8177018 L276.166977,44.8127024 L276.166644,44.8127024 C276.12265,44.8127024 276.080322,44.8303667 276.048993,44.8616958 C276.017331,44.8926916 276,44.9350192 276,44.9793465 L276,46.6457875 C276,46.7381084 276.074323,46.8124316 276.166644,46.8124316 L280.192432,46.8124316 L278.920271,48.1852457 C278.859279,48.2512368 278.861279,48.353223 278.924604,48.4172143 L280.074448,49.5667253 C280.10711,49.5990543 280.149771,49.6153854 280.192432,49.6153854 C280.235093,49.6153854 280.277754,49.5990543 280.310083,49.5667253 L283.951257,45.9255517 C284.016248,45.8605605 284.016248,45.7549082 283.951257,45.689917" id="Fill-261"></path>
            </g>
        </g>
    </g>
</svg>