<?xml version="1.0" encoding="UTF-8"?>
<svg width="8px" height="8px" viewBox="0 0 8 8" version="1.1" xmlns="http://www.w3.org/2000/svg" xmlns:xlink="http://www.w3.org/1999/xlink">
    <!-- Generator: Sketch 53.2 (72643) - https://sketchapp.com -->
    <title>Fill 261</title>
    <desc>Created with Sketch.</desc>
    <g id="Page-1" stroke="none" stroke-width="1" fill="none" fill-rule="evenodd">
        <g id="Home---Eind-datum---Select" transform="translate(-509.000000, -605.000000)" fill="#2592CD">
            <g id="Select-data" transform="translate(454.000000, 563.000000)">
                <path d="M62.9512566,45.689917 L59.310083,42.0487434 C59.2450918,41.9837522 59.1394395,41.9837522 59.0744483,42.0487434 L57.924604,43.1982544 C57.8612792,43.2622457 57.8592795,43.3642319 57.9202712,43.430223 L59.2080968,44.8177018 L55.1669774,44.8127024 L55.1666441,44.8127024 C55.1226501,44.8127024 55.0803225,44.8303667 55.0489934,44.8616958 C55.017331,44.8926916 55,44.9350192 55,44.9793465 L55,46.6457875 C55,46.7381084 55.0743233,46.8124316 55.1666441,46.8124316 L59.1924323,46.8124316 L57.9202712,48.1852457 C57.8592795,48.2512368 57.8612792,48.353223 57.924604,48.4172143 L59.0744483,49.5667253 C59.1071105,49.5990543 59.1497714,49.6153854 59.1924323,49.6153854 C59.2350932,49.6153854 59.2777541,49.5990543 59.310083,49.5667253 L62.9512566,45.9255517 C63.0162478,45.8605605 63.0162478,45.7549082 62.9512566,45.689917" id="Fill-261" transform="translate(59.000000, 45.807693) scale(-1, 1) translate(-59.000000, -45.807693) "></path>
            </g>
        </g>
    </g>
</svg>