<?xml version="1.0" encoding="UTF-8"?>
<svg width="254px" height="28px" viewBox="0 0 254 28" version="1.1" xmlns="http://www.w3.org/2000/svg" xmlns:xlink="http://www.w3.org/1999/xlink">
    <!-- Generator: Sketch 53.2 (72643) - https://sketchapp.com -->
    <title>Group 12</title>
    <desc>Created with Sketch.</desc>
    <g id="Symbols" stroke="none" stroke-width="1" fill="none" fill-rule="evenodd">
        <g id="Logo">
            <g id="Group-12">
                <g id="Page-1">
                    <path d="M35.7786262,12.2983293 C35.7911383,12.3786149 35.8020863,12.4599431 35.8135557,12.5407499 C35.803129,12.4599431 35.7906169,12.3791362 35.7786262,12.2983293" id="Fill-1" fill="#FFFFFF"></path>
                    <path d="M21.6608307,16.2719945 C14.7083113,17.8542452 6.56923415,17.2562743 0.0442091816,14.7444838 C0.0692332467,15.0265259 0.105726675,15.3064826 0.153168132,15.5838327 C7.59365681,17.5669898 14.8485503,17.9851002 21.6608307,16.2719945" id="Fill-3" fill="#FFFFFF"></path>
                    <path d="M13.5050709,22.9329835 L11.6600674,22.3845394 C10.2284823,23.1769681 8.78542791,23.9662689 7.32360545,24.7545269 C8.22238645,25.2539655 9.18372762,25.692408 10.1992876,26.059949 C11.2424783,24.9787008 12.3430158,23.9349888 13.5050709,22.9329835" id="Fill-5" fill="#FFFFFF"></path>
                    <path d="M35.2420165,10.2129906 C35.2858086,10.3344615 35.3306433,10.4559325 35.3707861,10.5789675 C35.3306433,10.4559325 35.2863299,10.3344615 35.2420165,10.2129906" id="Fill-7" fill="#FFFFFF"></path>
                    <path d="M35.6154485,11.4588241 C35.6545486,11.6225232 35.6889567,11.7883076 35.7207581,11.9551347 C35.6899993,11.7883076 35.6540273,11.6230445 35.6154485,11.4588241" id="Fill-9" fill="#FFFFFF"></path>
                    <path d="M35.0747723,9.77538222 C35.082071,9.79258627 35.089891,9.80979031 35.0966683,9.82699436 C35.089891,9.80979031 35.082071,9.79258627 35.0747723,9.77538222" id="Fill-11" fill="#FFFFFF"></path>
                    <path d="M21.7178647,19.1436623 C20.5401697,22.1580195 21.1475246,25.1770687 22.4962174,26.9449146 C22.7078793,26.9032078 22.9169345,26.8573304 23.1254684,26.8104103 C21.2048714,24.7172515 20.7695569,21.8108106 21.7178647,19.1436623" id="Fill-13" fill="#FFFFFF"></path>
                    <path d="M35.4293841,10.7707144 C35.4820389,10.9443189 35.5320871,11.1184447 35.5769219,11.2946558 C35.5326084,11.1184447 35.4825603,10.9443189 35.4293841,10.7707144" id="Fill-15" fill="#FFFFFF"></path>
                    <path d="M16.2382722,19.8508007 L17.0791851,20.1015627 C17.426394,19.848194 17.7777736,19.5963894 18.1328025,19.3482341 L17.4978168,19.1589896 C17.0760571,19.3888982 16.6563826,19.6208921 16.2382722,19.8508007" id="Fill-17" fill="#FFFFFF"></path>
                    <path d="M18.0140424,18.8768954 L18.5734346,19.0421585 C20.1223199,17.977593 21.7457562,16.960469 23.4369659,15.9871372 C21.5721517,16.9505637 19.776675,17.9145115 18.0140424,18.8768954" id="Fill-19" fill="#FFFFFF"></path>
                    <path d="M12.8167527,21.7447054 L14.368766,22.2066079 C15.0079224,21.6774532 15.6637614,21.1602892 16.3357618,20.6535518 L15.3280219,20.3527417 C14.4881517,20.8188149 13.6524522,21.2801961 12.8167527,21.7447054" id="Fill-21" fill="#FFFFFF"></path>
                    <path d="M16.5849598,1.33554708 C10.7741634,1.45336872 5.61816328,3.71074792 2.37858952,7.10255141 C1.66331833,8.04251785 1.09402085,9.05234314 0.691550465,10.1163872 C7.820281,14.770342 15.6079786,16.5303679 24.5535605,15.1576937 C15.9332914,16.8332634 8.05331761,15.8745289 0.399081705,11.4624734 L0.294814767,11.4025199 C0.261449347,11.5422376 0.227041257,11.681434 0.198889184,11.8221943 C8.36611842,16.4542531 16.2017788,17.5005718 24.7881611,15.2390219 C21.538682,17.9390143 21.0439354,23.7597161 25.6467994,26.0770488 C25.8527266,26.0035406 26.0550044,25.9253404 26.2567609,25.8455761 C21.1560224,23.1607025 21.9500151,17.570952 24.9304855,15.3333835 C21.3504802,18.6047587 22.9848644,23.4641193 27.5100495,25.3002601 C28.7607315,24.7048958 29.9071464,23.9958807 30.9237491,23.1925039 C33.1988537,20.9304327 34.3421406,17.7414284 34.3421406,14.6587764 C34.3421406,7.10411541 26.390744,1.13796123 16.5849598,1.33554708" id="Fill-23" fill="#FFFFFF"></path>
                    <path d="M18.5733303,19.0423149 L18.0139382,18.8770518 C19.7765708,17.9146679 21.5720474,16.9507201 23.4368616,15.9867722 C21.7456519,16.9601041 20.1222157,17.9777494 18.5733303,19.0423149 M17.0791851,20.1016669 L16.2382722,19.850905 C16.6563826,19.620475 17.0760571,19.3890024 17.4978168,19.1590938 L18.1328025,19.3483383 C17.7777736,19.5959723 17.426394,19.8482983 17.0791851,20.1016669 M14.368766,22.2062951 L12.8167527,21.7449139 C13.6524522,21.2804047 14.4881517,20.8185021 15.3280219,20.3529503 L16.3357618,20.6537604 C15.6637614,21.1599764 15.0079224,21.6776617 14.368766,22.2062951 M24.7881611,15.2391783 C16.2017788,17.5007282 8.36611842,16.4538881 0.198889184,11.8223507 C0.0685555116,12.4802751 0.000260667345,13.1533182 0.000260667345,13.838352 C0.000260667345,14.1433328 0.0179860468,14.4446642 0.0440527812,14.7444317 C6.56907775,17.2562222 14.7081549,17.8541931 21.6606743,16.2719423 C14.8483939,17.9850481 7.59350041,17.5669377 0.153011731,15.5837805 C0.794253399,19.339997 3.46974302,22.6150215 7.32344905,24.754579 C8.78579285,23.966321 10.2283259,23.1770203 11.6604323,22.3845915 L13.5049145,22.9330356 C12.3428594,23.9350409 11.2423219,24.978753 10.1996525,26.0600011 C12.5451373,26.908734 15.1737068,27.3847126 17.9487713,27.3847126 C19.5200741,27.3847126 21.0439354,27.2314402 22.4963738,26.9447061 C21.1471597,25.1773815 20.5403261,22.1583323 21.7180211,19.1434538 C20.7697133,21.8111234 21.2045065,24.7175643 23.1251035,26.8102017 C23.9952111,26.6126159 24.8376879,26.3681099 25.6467994,26.0772052 C21.0439354,23.7598725 21.538682,17.9391707 24.7881611,15.2391783" id="Fill-25" fill="#2592CD"></path>
                    <path d="M35.0966683,9.82709863 C35.1488018,9.95482562 35.1946793,10.0841166 35.2421207,10.2128863 C35.1952006,10.0835953 35.1482805,9.95482562 35.0966683,9.82709863" id="Fill-27" fill="#2793D1"></path>
                    <path d="M35.3708383,10.5790718 C35.3916916,10.6426746 35.4099384,10.7073201 35.4292277,10.7709229 C35.4099384,10.7067988 35.3916916,10.6426746 35.3708383,10.5790718" id="Fill-29" fill="#2793D1"></path>
                    <path d="M35.5767655,11.2946036 C35.5903202,11.3488224 35.6028322,11.4040839 35.6153442,11.4588241 C35.6023109,11.4040839 35.5903202,11.3488224 35.5767655,11.2946036" id="Fill-31" fill="#2793D1"></path>
                    <path d="M35.7206017,11.9549262 C35.7419764,12.0690985 35.7612658,12.1832708 35.7784698,12.2984857 C35.7602231,12.1832708 35.7424978,12.0685771 35.7206017,11.9549262" id="Fill-33" fill="#2793D1"></path>
                    <path d="M24.5536648,15.1575373 C15.6080829,16.5302115 7.82038527,14.7701856 0.691654732,10.1167522 C0.532647652,10.5374693 0.400228641,10.9660064 0.294919034,11.4023635 L0.399185971,11.462317 C8.05342188,15.8743725 15.9333957,16.833107 24.5536648,15.1575373" id="Fill-35" fill="#2793D1"></path>
                    <path d="M35.897282,13.8384041 C35.897282,13.400483 35.8670446,12.9682965 35.8133471,12.5408021 C35.8023991,12.4599952 35.7909297,12.378667 35.7784177,12.2983815 C35.7612137,12.1836878 35.7419243,12.0689942 35.7205496,11.9548219 C35.6892695,11.7879948 35.6543401,11.6227317 35.61524,11.4590326 C35.6027279,11.4042925 35.5907372,11.349031 35.5766612,11.2948122 C35.5323477,11.1180797 35.4822996,10.9439539 35.4296448,10.7708708 C35.4098341,10.707268 35.3915874,10.6426225 35.370734,10.5790196 C35.3311125,10.4559847 35.2857564,10.3345137 35.2419643,10.2130427 C35.1945229,10.0837517 35.1486454,9.95446069 35.0965119,9.82725503 C35.0897346,9.80952965 35.0819146,9.79284694 35.0746159,9.77564289 C32.7880419,4.27921126 25.9861882,0.291522227 17.9487713,0.291522227 C11.286114,0.291522227 5.47531757,3.03374269 2.37858952,7.10275994 C5.61816328,3.71095645 10.7746847,1.45305591 16.5849598,1.33575561 C26.390744,1.13764843 34.3421406,7.10432394 34.3421406,14.6584636 C34.3421406,17.7416369 33.1988537,20.9306412 30.9237491,23.1927125 C34.0027518,20.7606861 35.897282,17.4674149 35.897282,13.8384041" id="Fill-37" fill="#2793D1"></path>
                    <path d="M24.9303812,15.3331749 C21.9499108,17.5707434 21.1559181,23.160494 26.2566567,25.845889 C26.6851938,25.6759338 27.1027829,25.4945094 27.5099453,25.3005729 C22.9852815,23.4639108 21.3503759,18.6050715 24.9303812,15.3331749" id="Fill-39" fill="#2793D1"></path>
                </g>
                <g id="Group-11" transform="translate(47.149701, 6.083832)">
                    <path d="M7.56729928,6.40162505 C7.56729928,5.85526629 7.50161111,5.34748631 7.37023477,4.87828509 C7.23833709,4.40908387 7.02719654,4.00192147 6.73681312,3.65731924 C6.4464297,3.31323835 6.07315406,3.04422965 5.61750754,2.85133582 C5.16186103,2.65844198 4.56389014,2.56147373 3.82411621,2.56147373 L2.60367171,2.56147373 L2.60367171,10.4018261 L3.86060964,10.4018261 C4.52114069,10.4018261 5.07792614,10.3189339 5.53044465,10.1526281 C5.98296316,9.98632237 6.36093081,9.73556038 6.66382626,9.39929951 C6.96620038,9.06408131 7.19245964,8.64701355 7.34260403,8.14809626 C7.49222709,7.64917896 7.56729928,7.06684811 7.56729928,6.40162505 M10.0629284,6.32133951 C10.0629284,7.37912759 9.92060407,8.28312194 9.63595533,9.03436523 C9.35182792,9.78612985 8.94362286,10.3992194 8.41134014,10.8741553 C7.87905742,11.3496126 7.23208108,11.6983855 6.47093243,11.9209954 C5.70926245,12.1436053 4.80266142,12.2551709 3.75060802,12.2551709 L0.915589982,12.2551709 C0.713833458,12.2551709 0.543878349,12.1973028 0.406767326,12.0815665 C0.268613633,11.9653089 0.200318789,11.777107 0.200318789,11.5159183 L0.200318789,1.46562821 C0.200318789,1.20443953 0.268613633,1.01571637 0.406767326,0.899980074 C0.543878349,0.784243773 0.713833458,0.726375622 0.915589982,0.726375622 L3.96174857,0.726375622 C5.01953665,0.726375622 5.91727499,0.846282601 6.65444224,1.08713923 C7.39160949,1.32747452 8.01251911,1.68406745 8.51664975,2.15639667 C9.02130173,2.62820457 9.40500406,3.21209942 9.66827808,3.90703856 C9.93103076,4.6019777 10.0629284,5.40691846 10.0629284,6.32133951" id="Fill-41" fill="#2793D1"></path>
                    <path d="M19.0812366,11.3374655 C19.0812366,11.5100273 19.0734165,11.6539156 19.0582978,11.7696519 C19.0431791,11.8853882 19.0202404,11.9787072 18.9894817,12.05013 C18.9587229,12.1215529 18.9206655,12.1736863 18.874788,12.2065304 C18.8289106,12.2388532 18.7783411,12.2550145 18.723601,12.2550145 L12.7600535,12.2550145 C12.5582969,12.2550145 12.3883418,12.1971464 12.2507095,12.0814101 C12.1130771,11.9656738 12.0442609,11.7769506 12.0442609,11.5157619 L12.0442609,1.46547181 C12.0442609,1.20428313 12.1130771,1.01608131 12.2507095,0.899823673 C12.3883418,0.784087372 12.5582969,0.726219222 12.7600535,0.726219222 L18.6865862,0.726219222 C18.7418477,0.726219222 18.7908531,0.741337928 18.8336026,0.770532671 C18.876352,0.800770082 18.9128455,0.852382217 18.9436042,0.926933077 C18.9738416,1.0009626 18.9973017,1.09584552 19.0124204,1.21210315 C19.0275391,1.32731812 19.0353591,1.47485584 19.0353591,1.65263096 C19.0353591,1.81945807 19.0275391,1.96021843 19.0124204,2.07595473 C18.9973017,2.19221237 18.9738416,2.28553128 18.9436042,2.35643279 C18.9128455,2.42785565 18.876352,2.47998912 18.8336026,2.5128332 C18.7908531,2.54515595 18.7418477,2.56183866 18.6865862,2.56183866 L14.4481352,2.56183866 L14.4481352,5.37704598 L18.0354392,5.37704598 C18.0907006,5.37704598 18.1407488,5.39372869 18.1866262,5.42605144 C18.2325037,5.45889553 18.2705611,5.50946499 18.3013199,5.57775984 C18.3320786,5.64605468 18.3550173,5.73780959 18.370136,5.85354589 C18.3857761,5.96980353 18.3930748,6.11056389 18.3930748,6.27686966 C18.3930748,6.44943144 18.3857761,6.59175581 18.370136,6.7043641 C18.3550173,6.81749373 18.3320786,6.90820597 18.3013199,6.97597948 C18.2705611,7.04479565 18.2325037,7.09380111 18.1866262,7.12351719 C18.1407488,7.15323327 18.0907006,7.16783064 18.0354392,7.16783064 L14.4481352,7.16783064 L14.4481352,10.4199164 L18.723601,10.4199164 C18.7783411,10.4199164 18.8289106,10.4360778 18.874788,10.4684006 C18.9206655,10.5012446 18.9587229,10.5533781 18.9894817,10.624801 C19.0202404,10.6962238 19.0431791,10.7895427 19.0582978,10.905279 C19.0734165,11.0210153 19.0812366,11.165425 19.0812366,11.3374655" id="Fill-43" fill="#2793D1"></path>
                    <path d="M25.2557682,2.92687721 L25.2463842,2.92687721 L23.5676865,7.82690195 L26.9344659,7.82690195 L25.2557682,2.92687721 Z M30.7052797,11.3818832 C30.7787879,11.5956304 30.8246654,11.7650642 30.8429121,11.8896632 C30.8611588,12.0147835 30.8371774,12.1081024 30.7694039,12.1706626 C30.7021517,12.2327014 30.5827661,12.2712802 30.4117683,12.2863989 C30.2407705,12.3009963 30.0051272,12.3088163 29.7053598,12.3088163 C29.3936016,12.3088163 29.1501383,12.3041243 28.9760126,12.2952616 C28.8018868,12.2863989 28.6684251,12.2681522 28.5771915,12.2420854 C28.4849153,12.214976 28.4207911,12.1779613 28.3842977,12.1305198 C28.3478043,12.0830784 28.3170455,12.0205182 28.2925428,11.9433607 L27.4943794,9.62707064 L23.0354038,9.62707064 L22.2831178,11.8808005 C22.2586151,11.964214 22.2262923,12.0340729 22.1866709,12.090377 C22.1470495,12.1472025 22.0829253,12.191516 21.9942984,12.2238387 C21.9056715,12.2566828 21.7800298,12.2785789 21.6178948,12.2905696 C21.4557597,12.3025603 21.2435764,12.3088163 20.9803024,12.3088163 C20.6987817,12.3088163 20.4787785,12.2999536 20.3197714,12.2817069 C20.1607643,12.2639815 20.0507627,12.221232 19.9892452,12.1529372 C19.928249,12.0846424 19.9068743,11.9876741 19.925121,11.8630751 C19.9438891,11.7384761 19.9892452,11.5721704 20.0632747,11.3641578 L23.7235656,1.13609255 C23.760059,1.03547496 23.8028084,0.953104079 23.8523352,0.891065251 C23.9008194,0.828505088 23.9790196,0.781063631 24.0858932,0.748740881 C24.1927668,0.715896795 24.3413472,0.695043408 24.531113,0.686180718 C24.7203575,0.677318028 24.9716408,0.672626016 25.283399,0.672626016 C25.6441626,0.672626016 25.931418,0.677318028 26.1456865,0.686180718 C26.3599551,0.695043408 26.5262609,0.715896795 26.6456465,0.748740881 C26.7650321,0.781063631 26.850531,0.830590427 26.9026645,0.895757263 C26.9542766,0.960924099 26.9991114,1.05007233 27.0356048,1.16268062 L30.7052797,11.3818832 Z" id="Fill-45" fill="#2793D1"></path>
                    <path d="M38.8888789,11.2751139 C38.8888789,11.4534103 38.8810588,11.6035547 38.8659401,11.7250257 C38.8503001,11.847018 38.8273614,11.9476356 38.797124,12.0279211 C38.7663652,12.1082067 38.7283078,12.1660748 38.6824303,12.2015256 C38.6365529,12.2374977 38.5828554,12.2552231 38.5218592,12.2552231 L33.0812104,12.2552231 C32.8794539,12.2552231 32.7094988,12.1973549 32.5723878,12.0816186 C32.4347554,11.965361 32.3659392,11.7771592 32.3659392,11.5154491 L32.3659392,1.04704859 C32.3659392,0.987616435 32.3852286,0.934440297 32.4253714,0.886477505 C32.4649928,0.839036049 32.5312023,0.800457282 32.6224359,0.770741204 C32.7141908,0.741025127 32.8382685,0.717565066 32.9941475,0.699318352 C33.1500266,0.681592973 33.3444844,0.672730283 33.5769997,0.672730283 C33.8152497,0.672730283 34.0112715,0.681592973 34.1640226,0.699318352 C34.3167736,0.717565066 34.4392873,0.741025127 34.5310422,0.770741204 C34.6227971,0.800457282 34.6884853,0.839036049 34.7281067,0.886477505 C34.7677282,0.934440297 34.7880602,0.987616435 34.7880602,1.04704859 L34.7880602,10.3215927 L38.5218592,10.3215927 C38.5828554,10.3215927 38.6365529,10.3382754 38.6824303,10.3711195 C38.7283078,10.4034423 38.7663652,10.4571397 38.797124,10.5311693 C38.8273614,10.6057201 38.8503001,10.703731 38.8659401,10.825202 C38.8810588,10.9471943 38.8888789,11.0968174 38.8888789,11.2751139" id="Fill-47" fill="#2793D1"></path>
                    <path d="M47.347847,11.3374655 C47.347847,11.5100273 47.340027,11.6539156 47.3249083,11.7696519 C47.3097896,11.8853882 47.2868508,11.9787072 47.2560921,12.05013 C47.2253333,12.1215529 47.1872759,12.1736863 47.1413985,12.2065304 C47.095521,12.2388532 47.0449515,12.2550145 46.9902114,12.2550145 L41.0266639,12.2550145 C40.8249074,12.2550145 40.6549523,12.1971464 40.5173199,12.0814101 C40.3796875,11.9656738 40.3108714,11.7769506 40.3108714,11.5157619 L40.3108714,1.46547181 C40.3108714,1.20428313 40.3796875,1.01608131 40.5173199,0.899823673 C40.6549523,0.784087372 40.8249074,0.726219222 41.0266639,0.726219222 L46.9531966,0.726219222 C47.0084581,0.726219222 47.0574636,0.741337928 47.100213,0.770532671 C47.1429625,0.800770082 47.1794559,0.852382217 47.2102146,0.926933077 C47.2404521,1.0009626 47.2639121,1.09584552 47.2790308,1.21210315 C47.2941495,1.32731812 47.3019695,1.47485584 47.3019695,1.65263096 C47.3019695,1.81945807 47.2941495,1.96021843 47.2790308,2.07595473 C47.2639121,2.19221237 47.2404521,2.28553128 47.2102146,2.35643279 C47.1794559,2.42785565 47.1429625,2.47998912 47.100213,2.5128332 C47.0574636,2.54515595 47.0084581,2.56183866 46.9531966,2.56183866 L42.7147456,2.56183866 L42.7147456,5.37704598 L46.3020496,5.37704598 C46.3573111,5.37704598 46.4073592,5.39372869 46.4532367,5.42605144 C46.4991141,5.45889553 46.5371716,5.50946499 46.5679303,5.57775984 C46.5986891,5.64605468 46.6216278,5.73780959 46.6367465,5.85354589 C46.6523865,5.96980353 46.6596852,6.11056389 46.6596852,6.27686966 C46.6596852,6.44943144 46.6523865,6.59175581 46.6367465,6.7043641 C46.6216278,6.81749373 46.5986891,6.90820597 46.5679303,6.97597948 C46.5371716,7.04479565 46.4991141,7.09380111 46.4532367,7.12351719 C46.4073592,7.15323327 46.3573111,7.16783064 46.3020496,7.16783064 L42.7147456,7.16783064 L42.7147456,10.4199164 L46.9902114,10.4199164 C47.0449515,10.4199164 47.095521,10.4360778 47.1413985,10.4684006 C47.1872759,10.5012446 47.2253333,10.5533781 47.2560921,10.624801 C47.2868508,10.6962238 47.3097896,10.7895427 47.3249083,10.905279 C47.340027,11.0210153 47.347847,11.165425 47.347847,11.3374655" id="Fill-49" fill="#2793D1"></path>
                    <path d="M55.1737584,4.12970061 C55.1737584,3.74964762 55.0851315,3.42902678 54.9078777,3.16731677 C54.7301026,2.90612809 54.4397192,2.72209695 54.0362061,2.61522333 C53.9136925,2.58550726 53.7744961,2.56152586 53.618617,2.54380048 C53.462738,2.5260751 53.2474267,2.51721241 52.9716407,2.51721241 L51.8893499,2.51721241 L51.8893499,5.78702358 L53.1186571,5.78702358 C53.461174,5.78702358 53.7609414,5.74688081 54.0179594,5.66659527 C54.2744561,5.58630973 54.4887246,5.47370143 54.6602438,5.32824906 C54.8312415,5.18279668 54.9594899,5.00919223 55.0455101,4.80691437 C55.131009,4.60515784 55.1737584,4.37941992 55.1737584,4.12970061 M58.2840412,11.9523276 C58.2840412,12.0174945 58.2715291,12.0722346 58.2475477,12.1170694 C58.223045,12.1613828 58.1646555,12.1989189 58.0729006,12.228635 C57.9811457,12.2578297 57.8466414,12.2786831 57.6693876,12.2906738 C57.4916124,12.3026645 57.2502345,12.3083992 56.944211,12.3083992 C56.6877144,12.3083992 56.4828298,12.3026645 56.3295574,12.2906738 C56.1768064,12.2786831 56.0558567,12.2562657 55.9672298,12.223943 C55.8786029,12.1916202 55.8160428,12.1499135 55.7795493,12.099344 C55.7425346,12.0487745 55.7117758,11.9877784 55.6872731,11.9168769 L54.623229,9.34200483 C54.4949807,9.05057874 54.369339,8.79251807 54.2473467,8.56678015 C54.124833,8.34104222 53.9887647,8.15231907 53.8386203,8.00113201 C53.6889972,7.84942361 53.5164354,7.73525132 53.3204136,7.65809378 C53.1249131,7.58093625 52.8986538,7.54183615 52.6416358,7.54183615 L51.8893499,7.54183615 L51.8893499,11.9346022 C51.8893499,11.9940344 51.8695392,12.0477319 51.8293964,12.094652 C51.789775,12.1426148 51.7240868,12.1811935 51.6323319,12.2103883 C51.540577,12.2406257 51.4180633,12.2640858 51.2653123,12.2818111 C51.1125612,12.2995365 50.9165393,12.3083992 50.6782894,12.3083992 C50.4457741,12.3083992 50.2518376,12.2995365 50.0959585,12.2818111 C49.9395581,12.2640858 49.8160018,12.2406257 49.7242469,12.2103883 C49.632492,12.1811935 49.5683678,12.1426148 49.5313531,12.094652 C49.4948597,12.0477319 49.4766129,11.9940344 49.4766129,11.9346022 L49.4766129,1.46568034 C49.4766129,1.20449167 49.5454291,1.01576851 49.6830615,0.900032207 C49.8201725,0.784295906 49.9901276,0.726427756 50.1918841,0.726427756 L53.2656735,0.726427756 C53.5774316,0.726427756 53.8344496,0.732162437 54.0362061,0.744153135 C54.2379627,0.756143833 54.4214725,0.770741204 54.5867356,0.788466584 C55.0637568,0.854154755 55.4933366,0.966763047 55.8754749,1.12733413 C56.2581346,1.28738388 56.5818834,1.49696043 56.8482854,1.7550211 C57.1141661,2.0136031 57.3174867,2.31962657 57.458247,2.67309148 C57.5990074,3.0265564 57.6693876,3.43215479 57.6693876,3.88936531 C57.6693876,4.27515298 57.6188181,4.62757523 57.5182005,4.94454673 C57.4170616,5.26256089 57.2684812,5.54616696 57.0729807,5.79588627 C56.8769588,6.04508425 56.6355809,6.26195948 56.3478041,6.44599063 C56.0605487,6.63054311 55.7336719,6.7791235 55.3666523,6.89173179 C55.543906,6.97514534 55.7107331,7.07576293 55.8666122,7.19462724 C56.0224913,7.31349155 56.1695077,7.45737993 56.3066187,7.6268137 C56.4447724,7.79572614 56.5745847,7.98914131 56.696577,8.20549521 C56.8190907,8.42289177 56.9384763,8.66791908 57.054734,8.94109845 L58.0546539,11.2125537 C58.1464088,11.4388129 58.207405,11.6035547 58.2381637,11.7073003 C58.2689225,11.8110459 58.2840412,11.8928955 58.2840412,11.9523276" id="Fill-51" fill="#2793D1"></path>
                    <path d="M64.3299074,2.92687721 L64.3205234,2.92687721 L62.6418257,7.82690195 L66.0086051,7.82690195 L64.3299074,2.92687721 Z M69.7794189,11.3818832 C69.8529271,11.5956304 69.8988046,11.7650642 69.9170513,11.8896632 C69.935298,12.0147835 69.9113166,12.1081024 69.8435431,12.1706626 C69.7762909,12.2327014 69.6569053,12.2712802 69.4859075,12.2863989 C69.3149097,12.3009963 69.0792664,12.3088163 68.779499,12.3088163 C68.4677409,12.3088163 68.2242776,12.3041243 68.0501518,12.2952616 C67.876026,12.2863989 67.7425643,12.2681522 67.6513307,12.2420854 C67.5590545,12.214976 67.4949303,12.1779613 67.4584369,12.1305198 C67.4219435,12.0830784 67.3911847,12.0205182 67.366682,11.9433607 L66.5685186,9.62707064 L62.109543,9.62707064 L61.357257,11.8808005 C61.3327543,11.964214 61.3004316,12.0340729 61.2608101,12.090377 C61.2211887,12.1472025 61.1570645,12.191516 61.0684376,12.2238387 C60.9798107,12.2566828 60.8541691,12.2785789 60.692034,12.2905696 C60.5298989,12.3025603 60.3177157,12.3088163 60.0544416,12.3088163 C59.7729209,12.3088163 59.5529177,12.2999536 59.3939106,12.2817069 C59.2349035,12.2639815 59.1249019,12.221232 59.0633844,12.1529372 C59.0023882,12.0846424 58.9810135,11.9876741 58.9992602,11.8630751 C59.0180283,11.7384761 59.0633844,11.5721704 59.1374139,11.3641578 L62.7977048,1.13609255 C62.8341982,1.03547496 62.8769477,0.953104079 62.9264744,0.891065251 C62.9749586,0.828505088 63.0531588,0.781063631 63.1600324,0.748740881 C63.266906,0.715896795 63.4154864,0.695043408 63.6052522,0.686180718 C63.7944967,0.677318028 64.04578,0.672626016 64.3575382,0.672626016 C64.7183018,0.672626016 65.0055572,0.677318028 65.2198257,0.686180718 C65.4340943,0.695043408 65.6004001,0.715896795 65.7197857,0.748740881 C65.8391714,0.781063631 65.9246702,0.830590427 65.9768037,0.895757263 C66.0284158,0.960924099 66.0732506,1.05007233 66.1097441,1.16268062 L69.7794189,11.3818832 Z" id="Fill-53" fill="#EA5C0F"></path>
                    <path d="M100.330518,6.48180632 C100.330518,5.87601541 100.281513,5.32496465 100.184023,4.82917536 C100.085491,4.33338607 99.9191849,3.9084983 99.684063,3.55503338 C99.4484197,3.20156846 99.1345762,2.92838908 98.7435752,2.73497391 C98.3520528,2.54260141 97.8630409,2.44563316 97.2754967,2.44563316 C96.6822178,2.44563316 96.1869499,2.55407078 95.7891715,2.77094601 C95.3913931,2.98782124 95.070251,3.27768332 94.825745,3.6394896 C94.581239,4.00233854 94.4086773,4.42514097 94.3075383,4.90893957 C94.2063994,5.39378083 94.1558299,5.90573149 94.1558299,6.44635556 C94.1558299,7.07612787 94.2048354,7.64177601 94.3028463,8.14382131 C94.4008572,8.64534528 94.565599,9.07440373 94.7986356,9.43099666 C95.0306295,9.78706825 95.342909,10.0586836 95.7344314,10.2463641 C96.1254324,10.4330019 96.6180937,10.5268422 97.2113725,10.5268422 C97.8041301,10.5268422 98.299398,10.4199686 98.6971764,10.2062213 C99.0949548,9.99195278 99.4160969,9.70104803 99.6611242,9.33298574 C99.9056302,8.96492345 100.078192,8.53534366 100.179331,8.04528906 C100.279949,7.55575578 100.330518,7.03442109 100.330518,6.48180632 M102.862641,6.35720733 C102.862641,7.31333515 102.740127,8.16884538 102.495621,8.92321667 C102.251115,9.67758797 101.886702,10.3172656 101.403946,10.842771 C100.920669,11.3687977 100.322698,11.7697041 99.6100334,12.0460115 C98.8978903,12.3217975 98.0736601,12.4599512 97.1378644,12.4599512 C96.2140593,12.4599512 95.4085972,12.3426509 94.7204354,12.1080503 C94.0322736,11.8734497 93.4588054,11.5158141 93.0000309,11.0346222 C92.5417777,10.5534302 92.1971755,9.94190465 91.9677882,9.19900272 C91.7389223,8.45714346 91.6242287,7.57765184 91.6242287,6.56209187 C91.6242287,5.62942411 91.746221,4.79059659 91.990727,4.04508799 C92.2357543,3.29957938 92.5996459,2.6656364 93.0829231,2.14273771 C93.5656791,1.62036035 94.1636499,1.21945397 94.8763145,0.940018578 C95.5884577,0.661104519 96.4158158,0.521386823 97.3578676,0.521386823 C98.2566486,0.521386823 99.0506413,0.637123124 99.7388031,0.868595726 C100.426965,1.10058966 101.001476,1.45666125 101.4639,1.93785317 C101.925802,2.41904509 102.274054,3.0264 102.509697,3.75991791 C102.744819,4.49395715 102.862641,5.35937274 102.862641,6.35720733" id="Fill-59" fill="#EA5C0F"></path>
                    <path d="M80.8072116,7.9607807 C80.8072116,8.66771054 80.6998167,9.30008952 80.4860694,9.85843897 C80.2718009,10.4167884 79.9569147,10.8891177 79.5408897,11.2749053 C79.1248646,11.6612143 78.6113499,11.9552471 77.9998243,12.1570036 C77.3882987,12.3592815 76.6844969,12.4598991 75.8894615,12.4598991 C75.1434316,12.4598991 74.4735165,12.3697082 73.8802376,12.1882837 C73.2869587,12.0073806 72.7854348,11.7326372 72.3756657,11.3640536 C71.9658966,10.9959913 71.6525745,10.5372167 71.4351779,9.98772997 C71.2183027,9.43824321 71.1098651,8.79543754 71.1098651,8.05879162 L71.1098651,1.04684006 C71.1098651,0.987929236 71.1281118,0.934231763 71.1646052,0.886790306 C71.20162,0.839348849 71.2673081,0.800770082 71.3621911,0.770532671 C71.4565526,0.741337928 71.5806303,0.717356532 71.7339027,0.699631153 C71.8866537,0.681905773 72.0821543,0.673043084 72.3209255,0.673043084 C72.5529195,0.673043084 72.7458133,0.681905773 72.8990857,0.699631153 C73.0518368,0.717356532 73.1738291,0.741337928 73.265584,0.770532671 C73.3573389,0.800770082 73.4230271,0.839348849 73.4631698,0.886790306 C73.5027913,0.934231763 73.522602,0.987929236 73.522602,1.04684006 L73.522602,7.85390709 C73.522602,8.31111761 73.5809915,8.70785331 73.6967278,9.04307152 C73.8129854,9.37881106 73.9798125,9.65668245 74.1966878,9.87616435 C74.4140843,10.0961676 74.6742303,10.2609094 74.9766045,10.370911 C75.2794999,10.4809126 75.6173248,10.5356527 75.9906004,10.5356527 C76.3696107,10.5356527 76.7089996,10.4793486 77.0087671,10.366219 C77.3085345,10.2536107 77.5624245,10.0888689 77.7704371,9.87199367 C77.9784496,9.65511844 78.1390207,9.38767375 78.2521503,9.07018092 C78.3652799,8.7526881 78.4215841,8.39140316 78.4215841,7.98736877 L78.4215841,1.04684006 C78.4215841,0.987929236 78.4398308,0.934231763 78.4768456,0.886790306 C78.5138603,0.839348849 78.5779845,0.800770082 78.6692181,0.770532671 C78.7614943,0.741337928 78.8850506,0.717356532 79.0409297,0.699631153 C79.1973301,0.681905773 79.3912666,0.673043084 79.6237819,0.673043084 C79.8562971,0.673043084 80.0471056,0.681905773 80.19725,0.699631153 C80.3468731,0.717356532 80.4678227,0.741337928 80.5595776,0.770532671 C80.6513325,0.800770082 80.7154567,0.839348849 80.7524715,0.886790306 C80.7889649,0.934231763 80.8072116,0.987929236 80.8072116,1.04684006 L80.8072116,7.9607807 Z" id="Fill-55" fill="#EA5C0F"></path>
                    <path d="M91.2840578,1.68844666 C91.2840578,1.86100844 91.2767591,2.00802482 91.2616404,2.1294958 C91.2465217,2.25148812 91.2230616,2.34949904 91.1923029,2.42352857 C91.1620655,2.49807943 91.124008,2.55281957 91.0781306,2.58827033 C91.0327745,2.62372109 90.9816837,2.6419678 90.9264222,2.6419678 L87.9542931,2.6419678 L87.9542931,11.9342373 C87.9542931,11.9941908 87.9339611,12.0473669 87.8943396,12.0948084 C87.8547182,12.1422498 87.78903,12.1808286 87.6972751,12.2105447 C87.6055202,12.2402608 87.4819639,12.2642422 87.3255635,12.2819675 C87.1696844,12.2996929 86.9757479,12.3085556 86.7432327,12.3085556 C86.5107174,12.3085556 86.3167809,12.2996929 86.1603805,12.2819675 C86.0045014,12.2642422 85.8809451,12.2402608 85.7886688,12.2105447 C85.6969139,12.1808286 85.6317471,12.1422498 85.5921257,12.0948084 C85.5519829,12.0473669 85.5321722,11.9941908 85.5321722,11.9342373 L85.5321722,2.6419678 L82.5600431,2.6419678 C82.4985256,2.6419678 82.4463921,2.62372109 82.4036427,2.58827033 C82.3608933,2.55281957 82.3238785,2.49807943 82.2936411,2.42352857 C82.262361,2.34949904 82.2399436,2.25148812 82.2248249,2.1294958 C82.2097062,2.00802482 82.2013648,1.86100844 82.2013648,1.68844666 C82.2013648,1.51015019 82.2097062,1.35896313 82.2248249,1.23384281 C82.2399436,1.10924382 82.262361,1.01019023 82.2936411,0.935639367 C82.3238785,0.861609841 82.3608933,0.807912368 82.4036427,0.775068282 C82.4463921,0.742745532 82.4985256,0.726062822 82.5600431,0.726062822 L90.9264222,0.726062822 C90.9816837,0.726062822 91.0327745,0.742745532 91.0781306,0.775068282 C91.124008,0.807912368 91.1620655,0.861609841 91.1923029,0.935639367 C91.2230616,1.01019023 91.2465217,1.10924382 91.2616404,1.23384281 C91.2767591,1.35896313 91.2840578,1.51015019 91.2840578,1.68844666" id="Fill-57" fill="#EA5C0F"></path>
                    <path d="M110.477724,11.8453497 C110.446965,11.9464887 110.407344,12.0283382 110.358339,12.090377 C110.309333,12.1529372 110.23009,12.2003787 110.119567,12.2327014 C110.010087,12.2655455 109.859421,12.2863989 109.670177,12.2952616 C109.480932,12.3041243 109.232777,12.3088163 108.927275,12.3088163 C108.682769,12.3088163 108.473192,12.3072523 108.298545,12.3041243 C108.124419,12.3009963 107.975839,12.2936976 107.853847,12.2817069 C107.731333,12.2697162 107.63228,12.2525121 107.556165,12.2285307 C107.479007,12.2045493 107.414883,12.1748333 107.362749,12.1393825 C107.311137,12.1039317 107.271516,12.060661 107.243885,12.0100915 C107.216254,11.9600434 107.190188,11.8959192 107.165685,11.8187617 L103.633642,1.59955909 C103.560134,1.38581187 103.515821,1.2163781 103.500702,1.09177911 C103.485062,0.966658781 103.515821,0.873339871 103.592457,0.810779709 C103.668572,0.748740881 103.798384,0.710162114 103.982415,0.695043408 C104.165925,0.680446036 104.422943,0.672626016 104.752948,0.672626016 C105.034469,0.672626016 105.253951,0.678882032 105.413479,0.69087273 C105.572486,0.702342093 105.694478,0.723716815 105.780499,0.752911558 C105.865998,0.782627635 105.925951,0.827462419 105.959316,0.886373238 C105.992682,0.946326728 106.025005,1.02035625 106.055763,1.10950449 L108.946043,10.0008676 L108.954906,10.0008676 L111.789924,1.15381793 C111.813905,1.05320034 111.844664,0.971350793 111.881157,0.90879063 C111.918172,0.846230467 111.980732,0.797746341 112.06988,0.761774248 C112.158507,0.726323489 112.285192,0.702342093 112.449933,0.69087273 C112.615718,0.678882032 112.841456,0.672626016 113.129232,0.672626016 C113.410232,0.672626016 113.629192,0.681488706 113.785072,0.69973542 C113.941472,0.717460799 114.048346,0.760731578 114.106214,0.828505088 C114.164082,0.897321267 114.182329,0.993768184 114.160954,1.11836718 C114.139579,1.24296617 114.092659,1.40927193 114.019151,1.61728447 L110.477724,11.8453497 Z" id="Fill-62" fill="#EA5C0F"></path>
                    <path d="M122.716369,11.3374655 C122.716369,11.5100273 122.708028,11.6539156 122.69343,11.7696519 C122.67779,11.8853882 122.654851,11.9787072 122.624093,12.05013 C122.593855,12.1215529 122.555276,12.1736863 122.50992,12.2065304 C122.464043,12.2388532 122.413473,12.2550145 122.358212,12.2550145 L116.394664,12.2550145 C116.192908,12.2550145 116.023474,12.1971464 115.88532,12.0814101 C115.748209,11.9656738 115.679393,11.7769506 115.679393,11.5157619 L115.679393,1.46547181 C115.679393,1.20428313 115.748209,1.01608131 115.88532,0.899823673 C116.023474,0.784087372 116.192908,0.726219222 116.394664,0.726219222 L122.321719,0.726219222 C122.37698,0.726219222 122.425464,0.741337928 122.468214,0.770532671 C122.510963,0.800770082 122.547978,0.852382217 122.578215,0.926933077 C122.608974,1.0009626 122.631913,1.09584552 122.647031,1.21210315 C122.66215,1.32731812 122.66997,1.47485584 122.66997,1.65263096 C122.66997,1.81945807 122.66215,1.96021843 122.647031,2.07595473 C122.631913,2.19221237 122.608974,2.28553128 122.578215,2.35643279 C122.547978,2.42785565 122.510963,2.47998912 122.468214,2.5128332 C122.425464,2.54515595 122.37698,2.56183866 122.321719,2.56183866 L118.082746,2.56183866 L118.082746,5.37704598 L121.67005,5.37704598 C121.725312,5.37704598 121.77536,5.39372869 121.821759,5.42605144 C121.867636,5.45889553 121.905693,5.50946499 121.936452,5.57775984 C121.967211,5.64605468 121.989628,5.73780959 122.005268,5.85354589 C122.020387,5.96980353 122.028207,6.11056389 122.028207,6.27686966 C122.028207,6.44943144 122.020387,6.59175581 122.005268,6.7043641 C121.989628,6.81749373 121.967211,6.90820597 121.936452,6.97597948 C121.905693,7.04479565 121.867636,7.09380111 121.821759,7.12351719 C121.77536,7.15323327 121.725312,7.16783064 121.67005,7.16783064 L118.082746,7.16783064 L118.082746,10.4199164 L122.358212,10.4199164 C122.413473,10.4199164 122.464043,10.4360778 122.50992,10.4684006 C122.555276,10.5012446 122.593855,10.5533781 122.624093,10.624801 C122.654851,10.6962238 122.67779,10.7895427 122.69343,10.905279 C122.708028,11.0210153 122.716369,11.165425 122.716369,11.3374655" id="Fill-64" fill="#EA5C0F"></path>
                    <path d="M130.542489,4.12970061 C130.542489,3.74964762 130.453341,3.42902678 130.276087,3.16731677 C130.098312,2.90612809 129.80845,2.72209695 129.404415,2.61522333 C129.282423,2.58550726 129.142705,2.56152586 128.987347,2.54380048 C128.831468,2.5260751 128.615636,2.51721241 128.340371,2.51721241 L127.257559,2.51721241 L127.257559,5.78702358 L128.487387,5.78702358 C128.829904,5.78702358 129.12915,5.74688081 129.386168,5.66659527 C129.643186,5.58630973 129.857455,5.47370143 130.028453,5.32824906 C130.199972,5.18279668 130.32822,5.00919223 130.413719,4.80691437 C130.499218,4.60515784 130.542489,4.37941992 130.542489,4.12970061 M133.652772,11.9523276 C133.652772,12.0174945 133.639738,12.0722346 133.615757,12.1170694 C133.591254,12.1613828 133.532865,12.1989189 133.441631,12.228635 C133.349876,12.2578297 133.21485,12.2786831 133.037597,12.2906738 C132.860343,12.3026645 132.618444,12.3083992 132.312941,12.3083992 C132.055923,12.3083992 131.851039,12.3026645 131.698288,12.2906738 C131.545537,12.2786831 131.424066,12.2562657 131.335439,12.223943 C131.247333,12.1916202 131.184252,12.1499135 131.147758,12.099344 C131.111265,12.0487745 131.080506,11.9877784 131.056003,11.9168769 L129.991438,9.34200483 C129.86319,9.05057874 129.738069,8.79251807 129.616077,8.56678015 C129.493042,8.34104222 129.357495,8.15231907 129.207351,8.00113201 C129.057206,7.84942361 128.884645,7.73525132 128.688623,7.65809378 C128.493122,7.58093625 128.267384,7.54183615 128.010366,7.54183615 L127.257559,7.54183615 L127.257559,11.9346022 C127.257559,11.9940344 127.237748,12.0477319 127.198127,12.094652 C127.158505,12.1426148 127.092817,12.1811935 127.001062,12.2103883 C126.908786,12.2406257 126.786794,12.2640858 126.634043,12.2818111 C126.48077,12.2995365 126.28527,12.3083992 126.04702,12.3083992 C125.814505,12.3083992 125.620568,12.2995365 125.464168,12.2818111 C125.308289,12.2640858 125.184732,12.2406257 125.092456,12.2103883 C125.000701,12.1811935 124.936577,12.1426148 124.900083,12.094652 C124.863069,12.0477319 124.844822,11.9940344 124.844822,11.9346022 L124.844822,1.46568034 C124.844822,1.20449167 124.913638,1.01576851 125.051271,0.900032207 C125.188903,0.784295906 125.358858,0.726427756 125.560093,0.726427756 L128.633883,0.726427756 C128.945641,0.726427756 129.20318,0.732162437 129.404415,0.744153135 C129.606172,0.756143833 129.790203,0.770741204 129.954945,0.788466584 C130.431966,0.854154755 130.861546,0.966763047 131.244205,1.12733413 C131.626344,1.28738388 131.950614,1.49696043 132.216495,1.7550211 C132.482897,2.0136031 132.685696,2.31962657 132.826977,2.67309148 C132.967216,3.0265564 133.037597,3.43215479 133.037597,3.88936531 C133.037597,4.27515298 132.987027,4.62757523 132.88641,4.94454673 C132.785792,5.26256089 132.637212,5.54616696 132.441711,5.79588627 C132.245689,6.04508425 132.004311,6.26195948 131.716535,6.44599063 C131.428758,6.63054311 131.101881,6.7791235 130.734861,6.89173179 C130.912115,6.97514534 131.078942,7.07576293 131.234821,7.19462724 C131.3907,7.31349155 131.537717,7.45737993 131.675349,7.6268137 C131.812981,7.79572614 131.943315,7.98914131 132.065307,8.20549521 C132.1873,8.42289177 132.306685,8.66791908 132.422943,8.94109845 L133.422863,11.2125537 C133.514618,11.4388129 133.575614,11.6035547 133.606373,11.7073003 C133.637132,11.8110459 133.652772,11.8928955 133.652772,11.9523276" id="Fill-66" fill="#EA5C0F"></path>
                    <path d="M144.689271,11.9344458 C144.689271,11.993878 144.668938,12.0475755 144.629317,12.0950169 C144.589696,12.1424584 144.524007,12.1810371 144.432253,12.2107532 C144.340498,12.2404693 144.217984,12.2639294 144.065233,12.2821761 C143.912482,12.2999015 143.719588,12.3087641 143.487073,12.3087641 C143.248301,12.3087641 143.051237,12.2999015 142.895879,12.2821761 C142.739479,12.2639294 142.616965,12.2404693 142.528338,12.2107532 C142.439711,12.1810371 142.375587,12.1424584 142.335444,12.0950169 C142.295823,12.0475755 142.276012,11.993878 142.276012,11.9344458 L142.276012,7.27475639 L137.835805,7.27475639 L137.835805,11.9344458 C137.835805,11.993878 137.817037,12.0475755 137.780543,12.0950169 C137.74405,12.1424584 137.679926,12.1810371 137.588171,12.2107532 C137.496416,12.2404693 137.373902,12.2639294 137.221151,12.2821761 C137.067879,12.2999015 136.872378,12.3087641 136.634128,12.3087641 C136.401613,12.3087641 136.207155,12.2999015 136.051276,12.2821761 C135.895397,12.2639294 135.771841,12.2404693 135.679564,12.2107532 C135.58781,12.1810371 135.522121,12.1424584 135.4825,12.0950169 C135.442878,12.0475755 135.423068,11.993878 135.423068,11.9344458 L135.423068,1.04689219 C135.423068,0.987460035 135.442878,0.934283896 135.4825,0.88684244 C135.522121,0.839400983 135.58781,0.800822216 135.679564,0.770584804 C135.771841,0.741390061 135.895397,0.717408666 136.051276,0.699683286 C136.207155,0.681957907 136.401613,0.672573882 136.634128,0.672573882 C136.872378,0.672573882 137.067879,0.681957907 137.221151,0.699683286 C137.373902,0.717408666 137.496416,0.741390061 137.588171,0.770584804 C137.679926,0.800822216 137.74405,0.839400983 137.780543,0.88684244 C137.817037,0.934283896 137.835805,0.987460035 137.835805,1.04689219 L137.835805,5.2790872 L142.276012,5.2790872 L142.276012,1.04689219 C142.276012,0.987460035 142.295823,0.934283896 142.335444,0.88684244 C142.375587,0.839400983 142.439711,0.800822216 142.528338,0.770584804 C142.616965,0.741390061 142.739479,0.717408666 142.895879,0.699683286 C143.051237,0.681957907 143.248301,0.672573882 143.487073,0.672573882 C143.719588,0.672573882 143.912482,0.681957907 144.065233,0.699683286 C144.217984,0.717408666 144.340498,0.741390061 144.432253,0.770584804 C144.524007,0.800822216 144.589696,0.839400983 144.629317,0.88684244 C144.668938,0.934283896 144.689271,0.987460035 144.689271,1.04689219 L144.689271,11.9344458 Z" id="Fill-68" fill="#EA5C0F"></path>
                    <path d="M156.964565,7.9607807 C156.964565,8.66771054 156.857691,9.30008952 156.643944,9.85843897 C156.429676,10.4167884 156.114268,10.8891177 155.698764,11.2749053 C155.282739,11.6612143 154.768703,11.9552471 154.157178,12.1570036 C153.545652,12.3592815 152.842372,12.4598991 152.047336,12.4598991 C151.301306,12.4598991 150.631391,12.3697082 150.038112,12.1882837 C149.444833,12.0073806 148.942788,11.7326372 148.53354,11.3640536 C148.123771,10.9959913 147.809928,10.5372167 147.593053,9.98772997 C147.375656,9.43824321 147.267218,8.79543754 147.267218,8.05879162 L147.267218,1.04684006 C147.267218,0.987929236 147.285986,0.934231763 147.32248,0.886790306 C147.358973,0.839348849 147.424662,0.800770082 147.519544,0.770532671 C147.614427,0.741337928 147.738505,0.717356532 147.891256,0.699631153 C148.044007,0.681905773 148.240029,0.673043084 148.4788,0.673043084 C148.710794,0.673043084 148.903167,0.681905773 149.056439,0.699631153 C149.20919,0.717356532 149.331182,0.741337928 149.423459,0.770532671 C149.515214,0.800770082 149.580902,0.839348849 149.620523,0.886790306 C149.660145,0.934231763 149.679955,0.987929236 149.679955,1.04684006 L149.679955,7.85390709 C149.679955,8.31111761 149.738345,8.70785331 149.854603,9.04307152 C149.97086,9.37881106 150.137166,9.65668245 150.354562,9.87616435 C150.571438,10.0961676 150.831584,10.2609094 151.133958,10.370911 C151.436853,10.4809126 151.7752,10.5356527 152.148475,10.5356527 C152.526964,10.5356527 152.866874,10.4793486 153.166642,10.366219 C153.465888,10.2536107 153.719778,10.0888689 153.928312,9.87199367 C154.135803,9.65511844 154.296374,9.38767375 154.410025,9.07018092 C154.522633,8.7526881 154.579459,8.39140316 154.579459,7.98736877 L154.579459,1.04684006 C154.579459,0.987929236 154.597706,0.934231763 154.634199,0.886790306 C154.671214,0.839348849 154.735859,0.800770082 154.827093,0.770532671 C154.918848,0.741337928 155.042404,0.717356532 155.198804,0.699631153 C155.354683,0.681905773 155.54862,0.673043084 155.781135,0.673043084 C156.013651,0.673043084 156.20498,0.681905773 156.354603,0.699631153 C156.504226,0.717356532 156.625697,0.741337928 156.716931,0.770532671 C156.808686,0.800770082 156.87281,0.839348849 156.909825,0.886790306 C156.946318,0.934231763 156.964565,0.987929236 156.964565,1.04684006 L156.964565,7.9607807 Z" id="Fill-70" fill="#EA5C0F"></path>
                    <path d="M169.230684,7.9607807 C169.230684,8.66771054 169.12381,9.30008952 168.910063,9.85843897 C168.695795,10.4167884 168.380387,10.8891177 167.964883,11.2749053 C167.548858,11.6612143 167.034822,11.9552471 166.423297,12.1570036 C165.811771,12.3592815 165.108491,12.4598991 164.313455,12.4598991 C163.567425,12.4598991 162.89751,12.3697082 162.304231,12.1882837 C161.710952,12.0073806 161.208907,11.7326372 160.799659,11.3640536 C160.38989,10.9959913 160.076047,10.5372167 159.859172,9.98772997 C159.641775,9.43824321 159.533337,8.79543754 159.533337,8.05879162 L159.533337,1.04684006 C159.533337,0.987929236 159.552105,0.934231763 159.588599,0.886790306 C159.625092,0.839348849 159.69078,0.800770082 159.785663,0.770532671 C159.880546,0.741337928 160.004624,0.717356532 160.157375,0.699631153 C160.310126,0.681905773 160.506148,0.673043084 160.744919,0.673043084 C160.976913,0.673043084 161.169286,0.681905773 161.322558,0.699631153 C161.475309,0.717356532 161.597301,0.741337928 161.689578,0.770532671 C161.781333,0.800770082 161.847021,0.839348849 161.886642,0.886790306 C161.926264,0.934231763 161.946074,0.987929236 161.946074,1.04684006 L161.946074,7.85390709 C161.946074,8.31111761 162.004464,8.70785331 162.120721,9.04307152 C162.236979,9.37881106 162.403285,9.65668245 162.620681,9.87616435 C162.837557,10.0961676 163.097703,10.2609094 163.400077,10.370911 C163.702972,10.4809126 164.041318,10.5356527 164.414594,10.5356527 C164.793083,10.5356527 165.132993,10.4793486 165.432761,10.366219 C165.732007,10.2536107 165.985897,10.0888689 166.194431,9.87199367 C166.401922,9.65511844 166.562493,9.38767375 166.676144,9.07018092 C166.788752,8.7526881 166.845578,8.39140316 166.845578,7.98736877 L166.845578,1.04684006 C166.845578,0.987929236 166.863824,0.934231763 166.900318,0.886790306 C166.937333,0.839348849 167.001978,0.800770082 167.093212,0.770532671 C167.184967,0.741337928 167.308523,0.717356532 167.464923,0.699631153 C167.620802,0.681905773 167.814739,0.673043084 168.047254,0.673043084 C168.279769,0.673043084 168.471099,0.681905773 168.620722,0.699631153 C168.770345,0.717356532 168.891816,0.741337928 168.98305,0.770532671 C169.074805,0.800770082 169.138929,0.839348849 169.175944,0.886790306 C169.212437,0.934231763 169.230684,0.987929236 169.230684,1.04684006 L169.230684,7.9607807 Z" id="Fill-72" fill="#EA5C0F"></path>
                    <path d="M177.506403,4.12970061 C177.506403,3.74964762 177.417255,3.42902678 177.240001,3.16731677 C177.062226,2.90612809 176.772364,2.72209695 176.368329,2.61522333 C176.246337,2.58550726 176.106619,2.56152586 175.951262,2.54380048 C175.795383,2.5260751 175.57955,2.51721241 175.304285,2.51721241 L174.221473,2.51721241 L174.221473,5.78702358 L175.451302,5.78702358 C175.793819,5.78702358 176.093065,5.74688081 176.350083,5.66659527 C176.607101,5.58630973 176.821369,5.47370143 176.992367,5.32824906 C177.163886,5.18279668 177.292134,5.00919223 177.377633,4.80691437 C177.463132,4.60515784 177.506403,4.37941992 177.506403,4.12970061 M180.616686,11.9523276 C180.616686,12.0174945 180.603652,12.0722346 180.579671,12.1170694 C180.555168,12.1613828 180.496779,12.1989189 180.405545,12.228635 C180.31379,12.2578297 180.178765,12.2786831 180.001511,12.2906738 C179.824257,12.3026645 179.582358,12.3083992 179.276856,12.3083992 C179.019838,12.3083992 178.814953,12.3026645 178.662202,12.2906738 C178.509451,12.2786831 178.38798,12.2562657 178.299353,12.223943 C178.211247,12.1916202 178.148166,12.1499135 178.111673,12.099344 C178.075179,12.0487745 178.04442,11.9877784 178.019918,11.9168769 L176.955352,9.34200483 C176.827104,9.05057874 176.701984,8.79251807 176.579991,8.56678015 C176.456956,8.34104222 176.321409,8.15231907 176.171265,8.00113201 C176.02112,7.84942361 175.848559,7.73525132 175.652537,7.65809378 C175.457036,7.58093625 175.231298,7.54183615 174.97428,7.54183615 L174.221473,7.54183615 L174.221473,11.9346022 C174.221473,11.9940344 174.201662,12.0477319 174.162041,12.094652 C174.122419,12.1426148 174.056731,12.1811935 173.964976,12.2103883 C173.8727,12.2406257 173.750708,12.2640858 173.597957,12.2818111 C173.444684,12.2995365 173.249184,12.3083992 173.010934,12.3083992 C172.778419,12.3083992 172.584482,12.2995365 172.428082,12.2818111 C172.272203,12.2640858 172.148646,12.2406257 172.05637,12.2103883 C171.964615,12.1811935 171.900491,12.1426148 171.863998,12.094652 C171.826983,12.0477319 171.808736,11.9940344 171.808736,11.9346022 L171.808736,1.46568034 C171.808736,1.20449167 171.877552,1.01576851 172.015185,0.900032207 C172.152817,0.784295906 172.322772,0.726427756 172.524007,0.726427756 L175.597797,0.726427756 C175.909555,0.726427756 176.167094,0.732162437 176.368329,0.744153135 C176.570086,0.756143833 176.754117,0.770741204 176.918859,0.788466584 C177.39588,0.854154755 177.82546,0.966763047 178.208119,1.12733413 C178.590258,1.28738388 178.914528,1.49696043 179.180409,1.7550211 C179.446811,2.0136031 179.64961,2.31962657 179.790892,2.67309148 C179.931131,3.0265564 180.001511,3.43215479 180.001511,3.88936531 C180.001511,4.27515298 179.950941,4.62757523 179.850324,4.94454673 C179.749706,5.26256089 179.601126,5.54616696 179.405625,5.79588627 C179.209603,6.04508425 178.968225,6.26195948 178.680449,6.44599063 C178.392672,6.63054311 178.065795,6.7791235 177.698775,6.89173179 C177.876029,6.97514534 178.042856,7.07576293 178.198735,7.19462724 C178.354614,7.31349155 178.501631,7.45737993 178.639263,7.6268137 C178.776896,7.79572614 178.907229,7.98914131 179.029222,8.20549521 C179.151214,8.42289177 179.2706,8.66791908 179.386857,8.94109845 L180.386777,11.2125537 C180.478532,11.4388129 180.539528,11.6035547 180.570287,11.7073003 C180.601046,11.8110459 180.616686,11.8928955 180.616686,11.9523276" id="Fill-74" fill="#EA5C0F"></path>
                    <path d="M185.057102,10.9722184 C185.057102,11.5248332 184.957527,11.8960235 184.758898,12.0857893 C184.559748,12.2755551 184.203677,12.3709594 183.690162,12.3709594 C183.176126,12.3709594 182.821619,12.2776405 182.625597,12.0904813 C182.430096,11.9033222 182.332085,11.5482932 182.332085,11.0259159 C182.332085,10.4675664 182.43166,10.0932481 182.630289,9.90296095 C182.828917,9.71319513 183.188117,9.61779088 183.708409,9.61779088 C184.216189,9.61779088 184.567569,9.71163112 184.76359,9.89826894 C184.959091,10.0859494 185.057102,10.443585 185.057102,10.9722184" id="Fill-76" fill="#2793D1"></path>
                    <path d="M197.286571,11.4354764 C197.286571,11.5720661 197.262068,11.6940584 197.213063,11.800932 C197.164057,11.9078056 197.098369,11.9969539 197.015477,12.0678554 C196.933106,12.1392782 196.835616,12.1914117 196.721965,12.2242558 C196.608836,12.2565785 196.494142,12.2727399 196.378406,12.2727399 L195.350334,12.2727399 C195.136587,12.2727399 194.951513,12.2524079 194.795634,12.2107011 C194.639755,12.1689943 194.495345,12.0934008 194.36449,11.9833992 C194.233114,11.8733975 194.105908,11.7253385 193.983394,11.537658 C193.861402,11.3510202 193.72377,11.1091209 193.570497,10.8119601 L190.616615,5.42135943 C190.445096,5.1007386 190.27097,4.7550937 190.093716,4.3839034 C189.915941,4.0127131 189.757455,3.65142816 189.616695,3.30109125 L189.598448,3.30109125 C189.62243,3.7285857 189.640676,4.15503747 189.653188,4.57992524 C189.6657,5.00429168 189.671956,5.44221282 189.671956,5.89368866 L189.671956,11.925531 C189.671956,11.9849632 189.654752,12.0386606 189.621387,12.0861021 C189.586979,12.1335436 189.529111,12.1736863 189.44674,12.2065304 C189.364369,12.2388532 189.252803,12.2638772 189.111522,12.2821239 C188.971283,12.2998493 188.790901,12.308712 188.570376,12.308712 C188.356629,12.308712 188.178854,12.2998493 188.038615,12.2821239 C187.897855,12.2638772 187.787332,12.2388532 187.708089,12.2065304 C187.628846,12.1736863 187.573584,12.1335436 187.543347,12.0861021 C187.512588,12.0386606 187.497469,11.9849632 187.497469,11.925531 L187.497469,1.56348273 C187.497469,1.28456867 187.581404,1.07499213 187.749274,0.935274432 C187.917665,0.79607807 188.124114,0.726219222 188.369141,0.726219222 L189.662572,0.726219222 C189.894566,0.726219222 190.090067,0.745508605 190.249595,0.784087372 C190.408602,0.823187474 190.550927,0.886790306 190.676047,0.975938538 C190.801689,1.06456544 190.91951,1.18812176 191.029512,1.34556483 C191.139514,1.50300791 191.252643,1.69746575 191.368901,1.92893835 L193.68102,6.14340798 C193.815525,6.39886197 193.948465,6.64962396 194.080363,6.89621527 C194.211739,7.14280658 194.338423,7.38939788 194.460416,7.63546786 C194.582929,7.88205916 194.702315,8.12395846 194.818573,8.36168708 C194.934309,8.5994157 195.04796,8.83714432 195.157961,9.0743516 L195.167345,9.0743516 C195.148577,8.65884785 195.135023,8.22509739 195.125639,7.77362155 C195.116776,7.32214571 195.112084,6.89152326 195.112084,6.48175419 L195.112084,1.07394946 C195.112084,1.01451731 195.130331,0.960819832 195.167345,0.913378375 C195.203839,0.865936919 195.264835,0.824230143 195.350334,0.788779385 C195.435833,0.752807291 195.549484,0.727783226 195.689723,0.713185855 C195.830483,0.698067149 196.011386,0.690768463 196.23139,0.690768463 C196.439402,0.690768463 196.613528,0.698067149 196.754288,0.713185855 C196.895049,0.727783226 197.003486,0.752807291 197.080122,0.788779385 C197.156237,0.824230143 197.209935,0.865936919 197.240693,0.913378375 C197.271452,0.960819832 197.286571,1.01451731 197.286571,1.07394946 L197.286571,11.4354764 Z" id="Fill-78" fill="#2793D1"></path>
                    <path d="M206.396686,11.2751139 C206.396686,11.4534103 206.388866,11.6035547 206.373747,11.7250257 C206.358629,11.847018 206.33569,11.9476356 206.304931,12.0279211 C206.274694,12.1082067 206.236115,12.1660748 206.190238,12.2015256 C206.144881,12.2374977 206.091184,12.2552231 206.030188,12.2552231 L200.589018,12.2552231 C200.387782,12.2552231 200.217827,12.1973549 200.080195,12.0816186 C199.942563,11.965361 199.873746,11.7771592 199.873746,11.5154491 L199.873746,1.04704859 C199.873746,0.987616435 199.893557,0.934440297 199.9337,0.886477505 C199.973321,0.839036049 200.03901,0.800457282 200.130243,0.770741204 C200.222519,0.741025127 200.346597,0.717565066 200.501955,0.699318352 C200.658355,0.681592973 200.852292,0.672730283 201.085328,0.672730283 C201.323578,0.672730283 201.519079,0.681592973 201.67183,0.699318352 C201.824581,0.717565066 201.947616,0.741025127 202.039371,0.770741204 C202.130604,0.800457282 202.196292,0.839036049 202.236435,0.886477505 C202.276057,0.934440297 202.295867,0.987616435 202.295867,1.04704859 L202.295867,10.3215927 L206.030188,10.3215927 C206.091184,10.3215927 206.144881,10.3382754 206.190238,10.3711195 C206.236115,10.4034423 206.274694,10.4571397 206.304931,10.5311693 C206.33569,10.6057201 206.358629,10.703731 206.373747,10.825202 C206.388866,10.9471943 206.396686,11.0968174 206.396686,11.2751139" id="Fill-80" fill="#2793D1"></path>
                </g>
            </g>
        </g>
    </g>
</svg>