<?xml version="1.0" encoding="UTF-8"?>
<svg viewBox="0 0 22 12" version="1.1" xmlns="http://www.w3.org/2000/svg" xmlns:xlink="http://www.w3.org/1999/xlink">
    <!-- Generator: Sketch 53.2 (72643) - https://sketchapp.com -->
    <title>Fill 1</title>
    <desc>Created with Sketch.</desc>
    <g id="Page-1" stroke="none" stroke-width="1" fill="none" fill-rule="evenodd">
        <g id="Home" transform="translate(-620.000000, -446.000000)" fill="#FFFFFF">
            <g id="Header" transform="translate(0.000000, 146.000000)">
                <g id="Content-header" transform="translate(335.000000, 103.000000)">
                    <g id="Zoeken" transform="translate(0.000000, 174.000000)">
                        <g id="Group-9">
                            <g id="Group-7" transform="translate(245.000000, 0.000000)">
                                <g id="Group-10" transform="translate(40.000000, 18.000000)">
                                    <g id="Page-1" transform="translate(0.000000, 5.000000)">
                                        <path d="M7.28728333,9.23040854 C7.02495355,7.65857682 5.66725464,6.46185907 4.03222089,6.46185907 C2.47635175,6.46185907 1.17194666,7.54708462 0.824243279,9.00638215 C0.332180907,8.71827378 0,8.18113142 0,7.56896627 L0,6.61607259 C0,5.54960274 0.729556198,4.65297616 1.7680096,4.44353753 L5.49961194,3.69226762 L6.72536983,1.22433031 C7.10774007,0.455346677 7.83884851,0 8.69310191,0 L17.4162139,0 C18.3253134,0 19.0662527,0.746580992 19.0662527,1.66144228 L19.0662527,7.56896627 C19.0662527,8.18113142 18.7340718,8.71827378 18.241492,9.00638215 C17.8937887,7.54656363 16.5888662,6.46185907 15.0324796,6.46185907 C13.3979633,6.46185907 12.0407818,7.65909782 11.7789694,9.23040854 L7.28728333,9.23040854 Z M17.7830617,1.66144228 C17.7830617,1.45825555 17.6180061,1.29258021 17.4162139,1.29258021 L13.3829582,1.29258021 C13.1806487,1.29258021 13.0161104,1.45825555 13.0161104,1.66196327 L13.0161104,3.32340555 C13.0161104,3.52659228 13.1806487,3.69226762 13.3829582,3.69226762 L17.4162139,3.69226762 C17.6180061,3.69226762 17.7825443,3.52607129 17.7830617,3.32340555 L17.7830617,1.66144228 Z M8.69310191,1.29258021 C8.33711988,1.29258021 8.032362,1.48170017 7.87299795,1.80263101 L7.20035749,3.15773021 C7.14137209,3.27547432 7.14706367,3.40520123 7.21587996,3.51721443 C7.28521367,3.62922763 7.39749289,3.69226762 7.52788165,3.69226762 L11.732402,3.69226762 C11.9347115,3.69226762 12.0992497,3.52659228 12.0992497,3.32340555 L12.0992497,1.66144228 C12.0992497,1.45825555 11.9347115,1.29258021 11.7329194,1.29258021 L8.69310191,1.29258021 Z M22,6.46133808 C22,6.97086789 21.5891719,7.38453523 21.0831393,7.38453523 C20.5771067,7.38453523 20.1662786,6.97086789 20.1662786,6.46133808 L20.1662786,2.76907046 C20.1662786,2.25954066 20.5771067,1.8463943 21.0831393,1.8463943 C21.5891719,1.8463943 22,2.25954066 22,2.76907046 L22,6.46133808 Z M4.03273831,7.56896627 C2.81784614,7.56896627 1.83268656,8.56093431 1.83268656,9.78422264 C1.83268656,11.008032 2.81784614,12 4.03273831,12 C5.24814789,12 6.23279005,11.008032 6.23279005,9.78422264 C6.23279005,8.56093431 5.24814789,7.56896627 4.03273831,7.56896627 L4.03273831,7.56896627 Z M4.949599,9.78422264 C4.949599,10.2942734 4.53928832,10.7074198 4.03273831,10.7074198 C3.52670571,10.7074198 3.11639502,10.2942734 3.11639502,9.78422264 C3.11639502,9.27469283 3.52670571,8.86154648 4.03273831,8.86154648 C4.53928832,8.86154648 4.949599,9.27469283 4.949599,9.78422264 L4.949599,9.78422264 Z M15.0324796,7.56896627 C13.8175874,7.56896627 12.8329453,8.56093431 12.8329453,9.78422264 C12.8329453,11.008032 13.8175874,12 15.0324796,12 C16.2478892,12 17.2330488,11.008032 17.2330488,9.78422264 C17.2330488,8.56093431 16.2478892,7.56896627 15.0324796,7.56896627 L15.0324796,7.56896627 Z M15.9498577,9.78422264 C15.9498577,10.2942734 15.5390296,10.7074198 15.032997,10.7074198 C14.526447,10.7074198 14.1161363,10.2942734 14.1161363,9.78422264 C14.1161363,9.27469283 14.526447,8.86154648 15.032997,8.86154648 C15.5390296,8.86154648 15.9498577,9.27469283 15.9498577,9.78422264 L15.9498577,9.78422264 Z" id="Fill-1"></path>
                                    </g>
                                </g>
                            </g>
                        </g>
                    </g>
                </g>
            </g>
        </g>
    </g>
</svg>
