<?xml version="1.0" encoding="UTF-8"?>
<svg viewBox="0 0 22 12" version="1.1" xmlns="http://www.w3.org/2000/svg" xmlns:xlink="http://www.w3.org/1999/xlink">
    <!-- Generator: Sketch 53.2 (72643) - https://sketchapp.com -->
    <title>Fill 1</title>
    <desc>Created with Sketch.</desc>
    <g id="Page-1" stroke="none" stroke-width="1" fill="none" fill-rule="evenodd">
        <g id="Home" transform="translate(-376.000000, -447.000000)" fill="#EA5C0F">
            <g id="Header" transform="translate(0.000000, 146.000000)">
                <g id="Content-header" transform="translate(335.000000, 103.000000)">
                    <g id="Zoeken" transform="translate(0.000000, 174.000000)">
                        <g id="Group-9">
                            <g id="Group-8">
                                <g id="Group-6" transform="translate(41.000000, 19.000000)">
                                    <path d="M6.89854186,6.78524392 C8.04148636,5.59830668 9.43174976,5 11.0470837,5 L13.5197554,5 C15.1356068,5 16.5253528,5.59884424 17.6682973,6.78578148 L19.8,9 C21.0112418,9 22,10.0267437 22,11.2857143 L22,12.4285714 C22,13.6870044 21.0112418,14.7142857 19.8,14.7142857 C19.8,12.8209918 18.3212606,11.2857143 16.5005174,11.2857143 C14.6766698,11.2857143 13.1994826,12.8209918 13.1994826,14.7142857 L8.8005174,14.7142857 C8.8005174,12.8209918 7.32177799,11.2857143 5.4994826,11.2857143 C3.67718721,11.2857143 2.2,12.8209918 2.2,14.7142857 C0.988240828,14.7142857 0,13.6870044 0,12.4285714 L0,11.7227523 C0,10.5863459 0.784383819,9.63647359 1.86523989,9.46391614 L4.76683913,9 L6.89854186,6.78524392 Z M11.0470837,6.33315415 C9.77271872,6.33315415 8.70738476,6.7911571 7.80606773,7.72812794 L7.20898401,8.34954979 C7.10084666,8.46082516 7.07031985,8.61940599 7.12878645,8.76454778 C7.18673565,8.91022712 7.31608655,9 7.46768579,9 L11.4584196,9 C11.660207,9 11.8247413,8.82905523 11.8247413,8.61940599 L11.8247413,6.71428571 C11.8247413,6.50463647 11.660207,6.33315415 11.4584196,6.33315415 L11.0470837,6.33315415 Z M17.0996707,9 C17.25127,9 17.3806209,8.91022712 17.4380527,8.76454778 C17.4965193,8.61940599 17.4665099,8.46082516 17.3583725,8.34954979 L16.7612888,7.72812794 C15.858937,6.7911571 14.7941204,6.33315415 13.5187206,6.33315415 L13.1084196,6.33315415 C12.9061148,6.33315415 12.7415804,6.50463647 12.7415804,6.71428571 L12.7415804,8.61886843 C12.7415804,8.82905523 12.9061148,9 13.1084196,9 L17.0996707,9 Z M5.4994826,12.4285714 C4.2841016,12.4285714 3.2994826,13.4515522 3.2994826,14.7142857 C3.2994826,15.9764817 4.2841016,17 5.4994826,17 C6.71486359,17 7.7,15.9764817 7.7,14.7142857 C7.7,13.4515522 6.71486359,12.4285714 5.4994826,12.4285714 L5.4994826,12.4285714 Z M6.41632173,14.7142857 C6.41632173,15.2400215 6.00550329,15.6668459 5.4994826,15.6668459 C4.9929445,15.6668459 4.58264346,15.2400215 4.58264346,14.7142857 C4.58264346,14.1880124 4.9929445,13.7617256 5.4994826,13.7617256 C6.00550329,13.7617256 6.41632173,14.1880124 6.41632173,14.7142857 L6.41632173,14.7142857 Z M16.5,12.4285714 C15.284619,12.4285714 14.3,13.4515522 14.3,14.7142857 C14.3,15.9764817 15.284619,17 16.5,17 C17.7148636,17 18.7005174,15.9764817 18.7005174,14.7142857 C18.7005174,13.4515522 17.7148636,12.4285714 16.5,12.4285714 L16.5,12.4285714 Z M17.4168391,14.7142857 C17.4168391,15.2400215 17.0060207,15.6668459 16.5,15.6668459 C15.9934619,15.6668459 15.5831609,15.2400215 15.5831609,14.7142857 C15.5831609,14.1880124 15.9934619,13.7617256 16.5,13.7617256 C17.0060207,13.7617256 17.4168391,14.1880124 17.4168391,14.7142857 L17.4168391,14.7142857 Z" id="Fill-1"></path>
                                </g>
                            </g>
                        </g>
                    </g>
                </g>
            </g>
        </g>
    </g>
</svg>
