<?xml version="1.0" encoding="UTF-8"?>
<svg viewBox="0 0 8 9" version="1.1" xmlns="http://www.w3.org/2000/svg" xmlns:xlink="http://www.w3.org/1999/xlink">
    <!-- Generator: Sketch 53.2 (72643) - https://sketchapp.com -->
    <title>Fill 261</title>
    <desc>Created with Sketch.</desc>
    <g id="Symbols" stroke="none" stroke-width="1" fill="none" fill-rule="evenodd">
        <g id="Arrow" fill="#FFFFFF">
            <path d="M7.9512566,4.59376334 L4.31008301,0.952589753 C4.24509181,0.887598554 4.13943945,0.887598554 4.07444825,0.952589753 L2.92460396,2.10210076 C2.8612792,2.16609209 2.85927947,2.26807828 2.92027121,2.33406934 L4.20809682,3.72154812 L0.166977388,3.7165488 L0.1666441,3.7165488 C0.122650058,3.7165488 0.0803224563,3.73421308 0.0489933655,3.76554217 C0.0173309864,3.79653797 0,3.83886557 0,3.8831929 L0,5.5496339 C0,5.64195474 0.0743232687,5.716278 0.1666441,5.716278 L4.19243227,5.716278 L2.92027121,7.0890921 C2.85927947,7.15508317 2.8612792,7.25706936 2.92460396,7.32106069 L4.07444825,8.47057169 C4.1071105,8.50290065 4.14977139,8.51923177 4.19243227,8.51923177 C4.23509316,8.51923177 4.27775405,8.50290065 4.31008301,8.47057169 L7.9512566,4.8293981 C8.0162478,4.7644069 8.0162478,4.65875454 7.9512566,4.59376334" id="Fill-261"></path>
        </g>
    </g>
</svg>
