<?xml version="1.0" encoding="UTF-8"?>
<svg width="24px" height="25px" viewBox="0 0 24 25" version="1.1" xmlns="http://www.w3.org/2000/svg" xmlns:xlink="http://www.w3.org/1999/xlink">
    <!-- Generator: Sketch 51.3 (57544) - http://www.bohemiancoding.com/sketch -->
    <title>Fill 627</title>
    <desc>Created with Sketch.</desc>
    <defs></defs>
    <g id="Page-1" stroke="none" stroke-width="1" fill="none" fill-rule="evenodd">
        <g id="Fill-627" fill="#000000">
            <path d="M17.2207,12.9637 L23.8787,6.3297 C23.9737,6.2367 24.0267,6.1097 24.0277,5.9777 C24.0277,5.8447 23.9747,5.7177 23.8807,5.6227 L19.3897,1.1137 C19.2957,1.0207 19.1687,0.9677 19.0357,0.9677 C18.9027,0.9677 18.7757,1.0197 18.6827,1.1127 L12.0237,7.7467 L5.3897,1.0877 C5.2957,0.9937 5.1687,0.9407 5.0357,0.9407 C4.9027,0.9407 4.7767,0.9927 4.6827,1.0867 L0.1737,5.5777 C-0.0213,5.7727 -0.0223,6.0887 0.1717,6.2847 L6.8067,12.9437 L0.1467,19.5777 C-0.0493,19.7727 -0.0493,20.0887 0.1457,20.2847 L4.6367,24.7937 C4.7307,24.8877 4.8577,24.9407 4.9897,24.9407 C5.1227,24.9407 5.2497,24.8887 5.3437,24.7947 L12.0027,18.1607 L18.6367,24.8197 C18.7347,24.9187 18.8637,24.9677 18.9917,24.9677 C19.1187,24.9677 19.2457,24.9187 19.3437,24.8207 L23.8527,20.3297 C24.0477,20.1357 24.0487,19.8187 23.8537,19.6227 L17.2207,12.9637 Z"></path>
        </g>
    </g>
</svg>