<svg xmlns="http://www.w3.org/2000/svg" class="hide"><symbol id="icon-arrow" viewBox="0 0 8 9"><path d="M7.951 4.594L4.311.953a.167.167 0 0 0-.237 0l-1.15 1.15a.168.168 0 0 0-.004.231l1.288 1.388-4.041-.005A.167.167 0 0 0 0 3.883V5.55c0 .092.074.166.167.166h4.025L2.92 7.09a.168.168 0 0 0 .005.232l1.15 1.15a.167.167 0 0 0 .235 0l3.641-3.642a.167.167 0 0 0 0-.235" fill-rule="evenodd"/></symbol><symbol id="icon-business-car" viewBox="0 0 22 12"><path d="M7.287 9.23a3.308 3.308 0 0 0-3.255-2.768A3.306 3.306 0 0 0 .824 9.006 1.666 1.666 0 0 1 0 7.57v-.953C0 5.55.73 4.653 1.768 4.444L5.5 3.692l1.225-2.468A2.154 2.154 0 0 1 8.693 0h8.723c.91 0 1.65.747 1.65 1.661V7.57c0 .612-.332 1.15-.825 1.437a3.306 3.306 0 0 0-3.209-2.544A3.307 3.307 0 0 0 11.78 9.23H7.287zm10.496-7.569a.369.369 0 0 0-.367-.368h-4.033a.369.369 0 0 0-.367.369v1.661c0 .204.165.37.367.37h4.033a.37.37 0 0 0 .367-.37V1.661zm-9.09-.368c-.356 0-.66.189-.82.51L7.2 3.158a.361.361 0 0 0 .016.36c.07.111.181.174.312.174h4.204a.368.368 0 0 0 .367-.369V1.661a.368.368 0 0 0-.366-.368h-3.04zM22 6.46a.92.92 0 0 1-.917.924.92.92 0 0 1-.917-.924V2.77c0-.51.411-.923.917-.923A.92.92 0 0 1 22 2.77v3.692zM4.033 7.57c-1.215 0-2.2.992-2.2 2.215 0 1.224.985 2.216 2.2 2.216 1.215 0 2.2-.992 2.2-2.216a2.208 2.208 0 0 0-2.2-2.215zm.917 2.215a.92.92 0 0 1-.917.923.92.92 0 0 1-.917-.923c0-.51.41-.922.917-.922a.92.92 0 0 1 .917.922zM15.032 7.57c-1.214 0-2.2.992-2.2 2.215 0 1.224.986 2.216 2.2 2.216 1.216 0 2.201-.992 2.201-2.216a2.208 2.208 0 0 0-2.2-2.215zm.918 2.215a.92.92 0 0 1-.917.923.92.92 0 0 1-.917-.923c0-.51.41-.922.917-.922a.92.92 0 0 1 .917.922z" fill-rule="evenodd"/></symbol><symbol id="icon-check" viewBox="0 0 11 11"><path d="M10.805.084a.457.457 0 0 0-.638.11l-6.79 9.639L.781 7.239a.459.459 0 0 0-.648.648l2.98 2.979a.458.458 0 0 0 .698-.06L10.916.722a.458.458 0 0 0-.11-.638" fill-rule="evenodd"/></symbol><symbol id="icon-cross"><path d="M17.22 12.964L23.88 6.33a.498.498 0 0 0 .002-.707l-4.491-4.51a.504.504 0 0 0-.707 0l-6.66 6.634-6.633-6.66a.5.5 0 0 0-.707 0l-4.51 4.49a.501.501 0 0 0-.001.708l6.635 6.659-6.66 6.634a.5.5 0 0 0-.001.707l4.49 4.509a.5.5 0 0 0 .708 0l6.659-6.633 6.634 6.659a.498.498 0 0 0 .707 0l4.509-4.49a.5.5 0 0 0 0-.707l-6.632-6.66z" fill-rule="evenodd"/></symbol><symbol id="icon-facebook"><path d="M12.768 7.465H8.5V5.56c0-.896.594-1.105 1.012-1.105H12.5V.513L8.17.5C4.246.5 3.5 3.439 3.5 5.32v2.145h-3v4h3v12h5v-12h3.85l.418-4z" fill-rule="evenodd"/></symbol><symbol id="icon-linkedin"><path d="M14.527 11.5a2 2 0 0 0-2 2v7h-5s.06-12 0-13h5v1.485s1.548-1.443 3.94-1.443c2.96 0 5.06 2.143 5.06 6.304V20.5h-5v-7a2 2 0 0 0-2-2zm-11.51-6h-.029C1.478 5.5.5 4.318.5 3.019.5 1.69 1.507.607 3.047.607c1.541 0 2.488 1.118 2.518 2.447 0 1.3-.977 2.446-2.548 2.446zm2.51 15h-5v-13h5v13z" fill-rule="evenodd"/></symbol><symbol id="icon-personal-car" viewBox="0 0 22 12"><path d="M6.899 1.785C8.04.598 9.432 0 11.047 0h2.473c1.616 0 3.005.599 4.148 1.786L19.8 4C21.011 4 22 5.027 22 6.286v1.143c0 1.258-.989 2.285-2.2 2.285 0-1.893-1.479-3.428-3.3-3.428-1.823 0-3.3 1.535-3.3 3.428H8.8c0-1.893-1.478-3.428-3.3-3.428-1.823 0-3.3 1.535-3.3 3.428C.988 9.714 0 8.687 0 7.43v-.706c0-1.137.784-2.087 1.865-2.26L4.767 4l2.132-2.215zm4.148-.452c-1.274 0-2.34.458-3.24 1.395l-.598.622a.382.382 0 0 0-.08.415.36.36 0 0 0 .339.235h3.99c.202 0 .367-.17.367-.38V1.713a.375.375 0 0 0-.367-.38h-.41zM17.1 4a.36.36 0 0 0 .338-.235.382.382 0 0 0-.08-.415l-.597-.622c-.902-.937-1.967-1.395-3.242-1.395h-.41a.375.375 0 0 0-.367.381V3.62c0 .21.164.381.366.381H17.1zM5.5 7.429c-1.216 0-2.2 1.023-2.2 2.285C3.3 10.976 4.283 12 5.5 12c1.215 0 2.2-1.024 2.2-2.286S6.715 7.43 5.5 7.43zm.916 2.285c0 .526-.41.953-.917.953-.506 0-.916-.427-.916-.953s.41-.952.916-.952c.507 0 .917.426.917.952zM16.5 7.43c-1.215 0-2.2 1.023-2.2 2.285 0 1.262.985 2.286 2.2 2.286 1.215 0 2.2-1.024 2.2-2.286s-.985-2.285-2.2-2.285zm.917 2.285c0 .526-.411.953-.917.953-.507 0-.917-.427-.917-.953s.41-.952.917-.952c.506 0 .917.426.917.952z" fill-rule="evenodd"/></symbol><symbol id="icon-twitter"><path d="M22.444 2.834c-.814.363-1.5.375-2.228.016.94-.562.982-.956 1.321-2.019-.878.521-1.85.9-2.886 1.105a4.545 4.545 0 0 0-7.743 4.144 12.896 12.896 0 0 1-9.366-4.749 4.532 4.532 0 0 0-.616 2.286c0 1.577.803 2.967 2.022 3.782A4.535 4.535 0 0 1 .89 6.831v.057a4.548 4.548 0 0 0 3.645 4.456 4.56 4.56 0 0 1-2.053.078 4.551 4.551 0 0 0 4.245 3.156A9.134 9.134 0 0 1 0 16.459 12.862 12.862 0 0 0 6.965 18.5c8.36 0 12.928-6.924 12.928-12.929 0-.198-.003-.392-.012-.588.887-.64 1.954-1.237 2.563-2.149" fill-rule="evenodd"/></symbol></svg>