<?xml version="1.0" standalone="no"?>
<!DOCTYPE svg PUBLIC "-//W3C//DTD SVG 1.1//EN" "http://www.w3.org/Graphics/SVG/1.1/DTD/svg11.dtd" >
<svg xmlns="http://www.w3.org/2000/svg" xmlns:xlink="http://www.w3.org/1999/xlink" version="1.1">
<metadata>
Created by FontForge 20170731 at Mon Jan 30 19:57:16 2017
 By Aleksey,,,
Copyright (c) 2016 by Alberto Romanos. All rights reserved.
</metadata>
<defs>
<font id="BwGlennSlab-Regular" horiz-adv-x="595" >
  <font-face 
    font-family="Bw Glenn Slab"
    font-weight="500"
    font-stretch="normal"
    units-per-em="1000"
    panose-1="0 0 6 0 0 0 0 0 0 0"
    ascent="780"
    descent="-220"
    x-height="529"
    cap-height="740"
    bbox="-766 -230 1220 1031"
    underline-thickness="50"
    underline-position="-200"
    unicode-range="U+000D-FB02"
  />
<missing-glyph horiz-adv-x="1274" 
d="M1214 369l-368 -372q-7 -7 -17 -7q-20 0 -20 23v324l-339 -340q-7 -7 -17 -7q-20 0 -20 23v324l-340 -340q-7 -7 -17 -7q-17 0 -17 18q0 10 5 15l342 341h-324q-23 0 -23 19q0 8 7 16l340 342h-327q-20 0 -20 19v1q0 19 20 19h370q23 0 23 -20q0 -9 -8 -17l-341 -340h330
q8 0 14 -6t6 -14v-327l339 338q9 8 17 8q18 0 18 -22v-324l340 338q8 8 16 8q7 0 12 -5.5t5 -13.5q0 -7 -6 -14z" />
    <glyph glyph-name="fi" unicode="fi" horiz-adv-x="649" 
d="M541 60h84v-60h-240v60h84v409h-278v-409h111v-60h-267v60h84v409h-89v60h89v120q0 64 39.5 102.5t103.5 38.5q61 0 100 -19v-60q-33 17 -81 17q-41 0 -65.5 -25t-24.5 -65v-109h350v-469zM541 780v-140h-75v140h75z" />
    <glyph glyph-name="fl" unicode="fl" horiz-adv-x="649" 
d="M191 646v-117h163v-60h-163v-409h104v-60h-260v60h84v409h-89v60h89v128q0 60 37 96.5t96 36.5q56 0 93 -19v-60q-30 17 -73 17q-37 0 -59 -22.5t-22 -59.5zM541 60h84v-60h-240v60h84v660h-74v60h146v-720z" />
    <glyph glyph-name=".notdef" horiz-adv-x="1274" 
d="M1214 369l-368 -372q-7 -7 -17 -7q-20 0 -20 23v324l-339 -340q-7 -7 -17 -7q-20 0 -20 23v324l-340 -340q-7 -7 -17 -7q-17 0 -17 18q0 10 5 15l342 341h-324q-23 0 -23 19q0 8 7 16l340 342h-327q-20 0 -20 19v1q0 19 20 19h370q23 0 23 -20q0 -9 -8 -17l-341 -340h330
q8 0 14 -6t6 -14v-327l339 338q9 8 17 8q18 0 18 -22v-324l340 338q8 8 16 8q7 0 12 -5.5t5 -13.5q0 -7 -6 -14z" />
    <glyph glyph-name=".null" horiz-adv-x="0" 
 />
    <glyph glyph-name="nonmarkingreturn" horiz-adv-x="333" 
 />
    <glyph glyph-name="CR" unicode="&#xd;" horiz-adv-x="243" 
 />
    <glyph glyph-name="space" unicode=" " horiz-adv-x="243" 
 />
    <glyph glyph-name="exclam" unicode="!" horiz-adv-x="266" 
d="M102 170l-7 570h77l-7 -570h-63zM90 0v88h87v-88h-87z" />
    <glyph glyph-name="quotedbl" unicode="&#x22;" horiz-adv-x="339" 
d="M62 555v225h71v-225h-71zM205 555v225h72v-225h-72z" />
    <glyph glyph-name="numbersign" unicode="#" 
d="M548 392h-92l-27 -155h92l-10 -61h-93l-30 -176h-66l30 176h-159l-30 -176h-66l30 176h-92l10 61h93l26 155h-92l10 61h93l30 178h66l-30 -178h159l31 178h66l-31 -178h92zM363 237l27 155h-160l-26 -155h159z" />
    <glyph glyph-name="dollar" unicode="$" 
d="M553 195q0 -84 -60.5 -139t-162.5 -64v-82h-70v81q-129 3 -206 32v173h71v-130q60 -13 135 -16v303l-45 13q-77 23 -121.5 65.5t-44.5 118.5q0 81 57.5 134.5t153.5 63.5v82h70v-81q108 -5 188 -37v-170h-71v131q-58 15 -117 16v-287l42 -13q84 -27 132.5 -70.5
t48.5 -123.5zM246 429l14 -4v262q-65 -10 -102.5 -45t-37.5 -87q0 -89 126 -126zM330 53q70 11 110.5 47t40.5 89q0 99 -139 139l-12 4v-279z" />
    <glyph glyph-name="percent" unicode="%" horiz-adv-x="894" 
d="M275 -10l-52 25l395 735l52 -25zM222 344q-71 0 -114.5 55t-43.5 146t43.5 146t114.5 55t114 -55t43 -146t-43 -146t-114 -55zM222 393q43 0 70 41.5t27 110.5t-27 110.5t-70 41.5q-44 0 -71.5 -41.5t-27.5 -110.5t27.5 -110.5t71.5 -41.5zM673 -6q-71 0 -114.5 55
t-43.5 146t43.5 146t114.5 55t114 -55t43 -146t-43 -146t-114 -55zM673 43q43 0 70 41.5t27 110.5t-27 110.5t-70 41.5q-44 0 -71.5 -41.5t-27.5 -110.5t27.5 -110.5t71.5 -41.5z" />
    <glyph glyph-name="ampersand" unicode="&#x26;" horiz-adv-x="755" 
d="M721 42l-45 -52l-138 122q-44 -56 -112.5 -89t-140.5 -33q-109 0 -175 57t-66 151q0 74 44 120.5t123 84.5q-46 43 -73 92.5t-27 89.5q0 74 56.5 119.5t149.5 45.5q92 0 148.5 -45.5t56.5 -119.5q0 -31 -13 -58t-28.5 -44t-48.5 -36t-53 -28t-62 -27l211 -183
q35 80 35 171h156v-61h-94q-11 -84 -46 -153zM187 584q0 -31 23.5 -72.5t63.5 -80.5q36 15 54 23.5t45.5 24t40.5 29.5t23.5 33.5t10.5 42.5q0 48 -36 77t-95 29q-58 0 -94 -29t-36 -77zM293 50q57 0 111.5 27.5t89.5 73.5l-240 213q-64 -30 -99 -67t-35 -94
q0 -69 47.5 -111t125.5 -42z" />
    <glyph glyph-name="quotesingle" unicode="'" horiz-adv-x="195" 
d="M62 555v225h71v-225h-71z" />
    <glyph glyph-name="parenleft" unicode="(" horiz-adv-x="281" 
d="M182 -220q-133 250 -133 520t133 520h67q-22 -46 -36 -80.5t-37.5 -105.5t-36.5 -156.5t-13 -177.5t13 -177.5t36.5 -156.5t37.5 -105.5t36 -80.5h-67z" />
    <glyph glyph-name="parenright" unicode=")" horiz-adv-x="280" 
d="M32 -220q23 49 36.5 81t38 104.5t37.5 157.5t13 177t-13 177t-37.5 157.5t-38 104.5t-36.5 81h67q133 -250 133 -520t-133 -520h-67z" />
    <glyph glyph-name="asterisk" unicode="*" horiz-adv-x="374" 
d="M326 622l-108 -32l69 -90l-36 -25l-64 91l-64 -91l-36 25l69 90l-108 32l13 42l106 -37l-2 113h44l-2 -113l106 37z" />
    <glyph glyph-name="plus" unicode="+" 
d="M532 378v-62h-196v-199h-76v199h-197v62h197v199h76v-199h196z" />
    <glyph glyph-name="comma" unicode="," horiz-adv-x="224" 
d="M69 94h95v-85q0 -76 -32 -123t-85 -47v29q32 0 52 36.5t20 95.5h-50v94z" />
    <glyph glyph-name="hyphen" unicode="-" horiz-adv-x="433" 
d="M67 257v60h299v-60h-299z" />
    <glyph glyph-name="period" unicode="." horiz-adv-x="222" 
d="M63 0v94h96v-94h-96z" />
    <glyph glyph-name="slash" unicode="/" horiz-adv-x="394" 
d="M107 -220h-73l254 1041h73z" />
    <glyph glyph-name="zero" unicode="0" 
d="M298 -10q-117 0 -189 104.5t-72 275.5t72 275.5t189 104.5t188.5 -104.5t71.5 -275.5t-71.5 -275.5t-188.5 -104.5zM298 53q81 0 131 87.5t50 229.5t-50 229.5t-131 87.5q-82 0 -132 -87.5t-50 -229.5t50 -229.5t132 -87.5z" />
    <glyph glyph-name="one" unicode="1" 
d="M379 61h169v-61h-489v61h244v616h-187v63h263v-679z" />
    <glyph glyph-name="two" unicode="2" 
d="M153 61h396v-61h-495v54l239 241q30 30 40.5 41t37.5 43.5t39 54t23.5 53.5t11.5 62q0 64 -40.5 101t-107.5 37q-72 0 -160 -24v-128h-73v166q108 49 237 49q100 0 160.5 -52.5t60.5 -140.5q0 -43 -14 -84t-44.5 -83t-55 -69.5t-67.5 -71.5z" />
    <glyph glyph-name="three" unicode="3" 
d="M290 413q116 0 187.5 -56t71.5 -148q0 -99 -77.5 -159t-203.5 -60q-128 0 -213 37v62q90 -36 205 -36q94 0 151.5 42.5t57.5 113.5q0 68 -56 109t-147 41h-51l-22 47l235 271h-294v-113h-73v176h467v-51l-245 -276h7z" />
    <glyph glyph-name="four" unicode="4" 
d="M576 242v-61h-122v-181h-76v181h-357v66l262 493h81l-263 -498h278v228h75v-228h122z" />
    <glyph glyph-name="five" unicode="5" 
d="M289 430q117 0 188.5 -59.5t71.5 -156.5q0 -101 -77 -162.5t-202 -61.5q-134 0 -217 38v62q84 -37 207 -37q94 0 151.5 44t57.5 117q0 71 -52 115t-138 44q-75 0 -158 -23l-48 11l25 379h405v-173h-73v111h-263l-18 -265q74 17 140 17z" />
    <glyph glyph-name="six" unicode="6" 
d="M333 468q100 0 161.5 -65t61.5 -171q0 -109 -70 -175.5t-184 -66.5q-116 0 -185 75t-69 205q0 216 101 348t266 132q55 0 103 -15v-61q-43 15 -95 15q-113 0 -188.5 -83t-98.5 -232q62 94 197 94zM302 53q79 0 127 49.5t48 129.5q0 81 -48 130.5t-127 49.5t-127 -45
t-48 -118q0 -88 48 -142t127 -54z" />
    <glyph glyph-name="seven" unicode="7" 
d="M56 740h498v-53l-279 -687h-81l275 677h-340v-133h-73v196z" />
    <glyph glyph-name="eight" unicode="8" 
d="M409 392q70 -23 110 -73t40 -118q0 -95 -71.5 -153t-189.5 -58t-190 57.5t-72 151.5q0 68 40 119t110 74q-58 21 -90.5 64.5t-32.5 101.5q0 87 64.5 139.5t170.5 52.5q105 0 169.5 -52.5t64.5 -137.5q0 -58 -32.5 -102t-90.5 -66zM142 552q0 -60 43 -96.5t113 -36.5
t112.5 36.5t42.5 96.5q0 61 -42.5 98t-112.5 37t-113 -37t-43 -98zM298 53q82 0 132 42t50 112q0 69 -50 111.5t-132 42.5t-132.5 -42.5t-50.5 -111.5q0 -70 50 -112t133 -42z" />
    <glyph glyph-name="nine" unicode="9" 
d="M294 750q113 0 181 -74t68 -201q0 -218 -99.5 -351.5t-262.5 -133.5q-55 0 -103 15v61q43 -15 96 -15q110 0 184.5 85.5t96.5 235.5q-61 -90 -192 -90q-98 0 -158 63.5t-60 167.5q0 106 68.5 171.5t180.5 65.5zM294 338q77 0 123.5 43.5t46.5 114.5q0 86 -47 138.5
t-123 52.5t-123 -48t-47 -126q0 -79 47 -127t123 -48z" />
    <glyph glyph-name="colon" unicode=":" horiz-adv-x="230" 
d="M67 435v94h96v-94h-96zM67 0v94h96v-94h-96z" />
    <glyph glyph-name="semicolon" unicode=";" horiz-adv-x="264" 
d="M90 529h96v-94h-96v94zM90 0v94h95v-85q0 -76 -32 -123t-85 -47v29q32 0 52 36.5t20 95.5h-50z" />
    <glyph glyph-name="less" unicode="&#x3c;" 
d="M507 582v-70l-358 -162l358 -162v-70l-453 210v44z" />
    <glyph glyph-name="equal" unicode="=" 
d="M63 433v62h469v-62h-469zM63 199v62h469v-62h-469z" />
    <glyph glyph-name="greater" unicode="&#x3e;" 
d="M88 582l453 -210v-44l-453 -210v70l358 162l-358 162v70z" />
    <glyph glyph-name="question" unicode="?" horiz-adv-x="526" 
d="M258 750q100 0 160.5 -52.5t60.5 -140.5q0 -73 -33.5 -123t-101.5 -105q-38 -30 -61.5 -74t-23.5 -85h-62q0 50 23.5 100t63.5 83q37 31 58.5 53.5t40.5 61t19 81.5q0 64 -40.5 101t-107.5 37q-66 0 -143 -22v-130h-73v166q98 49 220 49zM185 0v88h87v-88h-87z" />
    <glyph glyph-name="at" unicode="@" horiz-adv-x="978" 
d="M613 473l61 -3v-274q0 -42 19 -67.5t51 -25.5q47 0 76.5 58.5t29.5 154.5q0 168 -96.5 271t-254.5 103q-168 0 -271 -119t-103 -313q0 -191 103 -308.5t271 -117.5q138 0 257 38v-62q-119 -38 -258 -38q-202 0 -325 134.5t-123 354.5q0 222 123.5 357.5t325.5 135.5
q191 0 307.5 -118.5t116.5 -311.5q0 -127 -49 -204t-130 -77q-48 0 -81.5 28.5t-45.5 76.5q-22 -50 -63 -78.5t-94 -28.5q-83 0 -133.5 60.5t-50.5 159.5q0 100 50.5 161t132.5 61q49 0 87.5 -27t59.5 -74zM479 101q57 0 91.5 43.5t34.5 115.5q0 71 -34.5 115t-91.5 44
q-58 0 -93 -44t-35 -115q0 -72 35 -115.5t93 -43.5z" />
    <glyph glyph-name="A" unicode="A" horiz-adv-x="758" 
d="M685 61h75v-61h-243v61h87l-64 178h-318l-65 -178h87v-61h-244v61h77l232 618h-97v61h218zM245 303h271l-135 374z" />
    <glyph glyph-name="B" unicode="B" horiz-adv-x="688" 
d="M503 385q64 -19 100 -66t36 -113q0 -93 -59.5 -149.5t-157.5 -56.5h-372v61h84v618h-84v61h357q90 0 145 -51.5t55 -135.5q0 -58 -27.5 -101.5t-76.5 -66.5zM210 677v-265h179q63 0 101.5 36.5t38.5 95.5q0 60 -39.5 96.5t-104.5 36.5h-175zM412 63q67 0 108 39.5
t41 103.5t-40.5 103t-107.5 39h-203v-285h202z" />
    <glyph glyph-name="C" unicode="C" horiz-adv-x="651" 
d="M382 53q58 0 118.5 16.5t102.5 42.5v-63q-41 -27 -105 -43t-128 -16q-143 0 -230.5 105t-87.5 277q0 170 87.5 274t230.5 104q133 0 223 -49v-189h-73v155q-69 20 -143 20q-110 0 -178 -86.5t-68 -228.5q0 -143 69 -231t182 -88z" />
    <glyph glyph-name="D" unicode="D" horiz-adv-x="718" 
d="M334 740q150 0 241.5 -102t91.5 -270q0 -165 -91.5 -266.5t-241.5 -101.5h-284v61h84v618h-84v61h284zM326 63q118 0 190.5 84t72.5 221q0 139 -72.5 224t-190.5 85h-116v-614h116z" />
    <glyph glyph-name="E" unicode="E" horiz-adv-x="660" 
d="M530 177h72v-177h-552v61h84v618h-84v61h544v-162h-73v99h-311v-268h301v-63h-301v-283h320v114z" />
    <glyph glyph-name="F" unicode="F" horiz-adv-x="598" 
d="M564 740v-169h-73v106h-281v-288h266v-63h-266v-265h113v-61h-273v61h84v618h-84v61h514z" />
    <glyph glyph-name="G" unicode="G" horiz-adv-x="742" 
d="M716 389v-61h-84v-292q-95 -46 -243 -46q-152 0 -245 105t-93 277q0 170 93 274t245 104q64 0 128.5 -13t104.5 -35v-173h-73v136q-74 22 -150 22q-121 0 -195 -86.5t-74 -228.5q0 -143 72.5 -231t190.5 -88q79 0 163 23v252h-163v61h323z" />
    <glyph glyph-name="H" unicode="H" horiz-adv-x="794" 
d="M660 61h84v-61h-244v61h84v283h-374v-283h83v-61h-243v61h84v618h-84v61h243v-61h-83v-271h374v271h-84v61h244v-61h-84v-618z" />
    <glyph glyph-name="I" unicode="I" horiz-adv-x="344" 
d="M293 679h-83v-618h83v-61h-243v61h84v618h-84v61h243v-61z" />
    <glyph glyph-name="J" unicode="J" horiz-adv-x="453" 
d="M418 740v-61h-85v-506q0 -83 -52.5 -133t-138.5 -50q-70 0 -120 22v62q45 -21 111 -21q56 0 90.5 36t34.5 94v496h-101v61h261z" />
    <glyph glyph-name="K" unicode="K" horiz-adv-x="664" 
d="M210 679v-618h83v-61h-243v61h84v618h-84v61h242v-61h-82zM563 61h97v-61h-137l-289 379l236 300h-88v61h265v-61h-96l-236 -297z" />
    <glyph glyph-name="L" unicode="L" horiz-adv-x="582" 
d="M479 196h73v-196h-502v61h84v618h-84v61h263v-61h-103v-616h269v133z" />
    <glyph glyph-name="M" unicode="M" horiz-adv-x="980" 
d="M929 679h-84v-618h84v-61h-244v61h84l4 581l-264 -541h-39l-263 541l3 -581h83v-61h-243v61h84v618h-84v61h183l257 -520l257 520h182v-61z" />
    <glyph glyph-name="N" unicode="N" horiz-adv-x="791" 
d="M749 740v-65h-84v-675h-53l-403 600l1 -539h84v-61h-244v61h85v614h-85v65h138l403 -600l-1 535h-85v65h244z" />
    <glyph glyph-name="O" unicode="O" horiz-adv-x="743" 
d="M371 -10q-143 0 -231.5 104.5t-88.5 275.5t88.5 275.5t231.5 104.5q145 0 233 -104.5t88 -275.5t-88 -275.5t-233 -104.5zM371 53q109 0 175 87t66 230t-66 230t-175 87q-108 0 -174 -87t-66 -230t66 -230t174 -87z" />
    <glyph glyph-name="P" unicode="P" horiz-adv-x="634" 
d="M368 740q104 0 167.5 -61.5t63.5 -162.5q0 -103 -64 -166t-169 -63h-156v-226h103v-61h-263v61h84v618h-84v61h318zM357 350q74 0 119 45t45 118q0 74 -45 119t-119 45h-147v-327h147z" />
    <glyph glyph-name="Q" unicode="Q" horiz-adv-x="755" 
d="M523 60l193 3v-63h-352q-141 0 -227 103t-86 272t88.5 272t231.5 103q144 0 231.5 -101.5t87.5 -268.5q0 -111 -44 -194.5t-123 -125.5zM131 375q0 -140 66 -226t174 -86q109 0 175 86t66 226t-66 226t-175 86q-108 0 -174 -86t-66 -226z" />
    <glyph glyph-name="R" unicode="R" horiz-adv-x="686" 
d="M577 61h94v-61h-149l-146 305h-3h-163v-244h83v-61h-243v61h84v618h-84v61h326q105 0 168.5 -60t63.5 -159q0 -77 -41.5 -131.5t-114.5 -74.5zM210 677v-312h163q70 0 113.5 43t43.5 113t-44.5 113t-116.5 43h-159z" />
    <glyph glyph-name="S" unicode="S" horiz-adv-x="629" 
d="M385 395q92 -27 145.5 -72t53.5 -128q0 -92 -75 -148.5t-198 -56.5q-155 0 -249 33v173h73v-127q85 -16 165 -16q92 0 148.5 37.5t56.5 98.5q0 57 -41 89t-114 52l-118 33q-175 48 -175 187q0 90 72.5 145t190.5 55q128 0 229 -38v-170h-73v128q-73 17 -152 17
q-85 0 -136.5 -36.5t-51.5 -95.5q0 -51 35.5 -80t98.5 -47z" />
    <glyph glyph-name="T" unicode="T" horiz-adv-x="617" 
d="M586 740v-185h-73v122h-166v-616h103v-61h-283v61h104v616h-167v-122h-73v185h555z" />
    <glyph glyph-name="U" unicode="U" horiz-adv-x="766" 
d="M731 740v-61h-84v-427q0 -118 -72.5 -190t-191.5 -72t-191.5 72t-72.5 190v427h-84v61h243v-61h-83v-423q0 -91 52 -147t136 -56t136 56t52 147v423h-83v61h243z" />
    <glyph glyph-name="V" unicode="V" horiz-adv-x="732" 
d="M733 740v-61h-73l-259 -679h-70l-259 679h-74v61h243v-61h-89l214 -588l213 588h-89v61h243z" />
    <glyph glyph-name="W" unicode="W" horiz-adv-x="1055" 
d="M1058 740v-61h-67l-214 -679h-76l-173 613l-174 -613h-75l-214 679h-67v61h243v-61h-95l172 -577l174 638h72l174 -638l172 577h-95v61h243z" />
    <glyph glyph-name="X" unicode="X" horiz-adv-x="670" 
d="M590 61h81v-61h-258v61h92l-170 279l-169 -279h92v-61h-259v61h82l202 320l-184 298h-80v61h252v-61h-87l151 -255l151 255h-87v61h252v-61h-81l-183 -298z" />
    <glyph glyph-name="Y" unicode="Y" horiz-adv-x="666" 
d="M583 679l-212 -379v-239h104v-61h-284v61h105v239l-213 379h-80v61h243v-61h-81l168 -314l168 314h-81v61h243v-61h-80z" />
    <glyph glyph-name="Z" unicode="Z" horiz-adv-x="598" 
d="M479 180h73v-180h-507v49l401 628h-323v-100h-73v163h493v-48l-401 -629h337v117z" />
    <glyph glyph-name="bracketleft" unicode="[" horiz-adv-x="335" 
d="M99 -220v1040h216v-61h-141v-918h141v-61h-216z" />
    <glyph glyph-name="backslash" unicode="\" horiz-adv-x="394" 
d="M287 -220l-254 1041h73l254 -1041h-73z" />
    <glyph glyph-name="bracketright" unicode="]" horiz-adv-x="335" 
d="M237 -220h-216v61h140v918h-140v61h216v-1040z" />
    <glyph glyph-name="asciicircum" unicode="^" horiz-adv-x="445" 
d="M397 324h-72l-103 225l-103 -225h-71l138 305h73z" />
    <glyph glyph-name="underscore" unicode="_" horiz-adv-x="577" 
d="M35 -60v60h507v-60h-507z" />
    <glyph glyph-name="grave" unicode="`" horiz-adv-x="314" 
d="M138 610l-138 170h87l116 -170h-65z" />
    <glyph glyph-name="a" unicode="a" horiz-adv-x="539" 
d="M441 60h83v-60h-144l-7 118q-25 -60 -74 -94t-109 -34q-153 0 -153 148q0 78 48 120.5t134 42.5l150 -1v38q0 140 -139 140q-80 0 -150 -35v61q70 35 167 35q194 0 194 -189v-290zM215 44q60 0 107 52t47 140v13h-138q-58 0 -88 -27t-30 -78q0 -100 102 -100z" />
    <glyph glyph-name="b" unicode="b" horiz-adv-x="609" 
d="M344 539q98 0 158 -76t60 -200q0 -123 -60 -198t-158 -75q-139 0 -193 127l-7 -117h-61v720h-84v60h156v-360q55 119 189 119zM321 52q75 0 120.5 58t45.5 153q0 96 -45.5 154.5t-120.5 58.5t-120.5 -58.5t-45.5 -153.5t45.5 -153.5t120.5 -58.5z" />
    <glyph glyph-name="c" unicode="c" horiz-adv-x="513" 
d="M313 52q88 0 156 39v-61q-70 -40 -174 -40q-113 0 -181.5 75.5t-68.5 199.5q0 123 68 198.5t178 75.5q94 0 169 -35v-151h-69v111q-58 12 -101 12q-76 0 -122.5 -57.5t-46.5 -151.5q0 -97 52.5 -156t139.5 -59z" />
    <glyph glyph-name="d" unicode="d" horiz-adv-x="633" 
d="M526 60h84v-60h-144l-8 117q-54 -127 -193 -127q-98 0 -158.5 75t-60.5 198q0 124 60.5 200t158.5 76q134 0 189 -119v300h-111v60h183v-720zM287 52q76 0 121.5 58.5t45.5 153.5t-45.5 153.5t-121.5 58.5q-74 0 -119.5 -58.5t-45.5 -154.5q0 -95 45.5 -153t119.5 -58z
" />
    <glyph glyph-name="e" unicode="e" horiz-adv-x="533" 
d="M490 277v-26h-370q9 -200 193 -200q89 0 157 34v-61q-74 -34 -175 -34q-119 0 -184 72.5t-65 207.5q0 121 65 195t171 74q94 0 151 -72t57 -190zM279 478q-66 0 -108 -47t-50 -128h297q-2 79 -40 127t-99 48z" />
    <glyph glyph-name="f" unicode="f" horiz-adv-x="376" 
d="M282 728q-41 0 -66 -24.5t-25 -65.5v-109h166v-60h-166v-409h111v-60h-267v60h84v409h-89v60h89v120q0 64 39.5 102.5t103.5 38.5q62 0 103 -19v-60q-34 17 -83 17z" />
    <glyph glyph-name="g" unicode="g" horiz-adv-x="573" 
d="M415 74q67 0 108 -37t41 -98q0 -76 -75 -122.5t-198 -46.5q-118 0 -190 43t-72 113q0 34 19 60t52 40q-51 26 -51 85q0 66 67 113q-47 50 -47 123q0 86 60.5 139t160.5 53q61 0 114 -24l84 84l50 -49l-76 -75q55 -53 55 -128q0 -85 -61.5 -136.5t-162.5 -51.5
q-82 0 -138 34q-40 -27 -40 -66q0 -24 16.5 -38.5t43.5 -14.5h240zM292 485q-66 0 -107 -38t-41 -100t41 -100t107 -38q67 0 108 38t41 100t-41 100t-108 38zM293 -172q89 0 142.5 30t53.5 79q0 35 -24 56t-63 21h-218q-38 0 -62 -21.5t-24 -55.5q0 -49 53.5 -79t141.5 -30z
" />
    <glyph glyph-name="h" unicode="h" horiz-adv-x="642" 
d="M544 60h84v-60h-156v319q0 157 -126 157q-75 0 -121 -49t-46 -131v-236h99v-60h-255v60h84v660h-84v60h156v-355q55 114 194 114q84 0 127.5 -52.5t43.5 -153.5v-273z" />
    <glyph glyph-name="i" unicode="i" horiz-adv-x="300" 
d="M191 780v-140h-74v140h74zM191 60h84v-60h-239v60h83v409h-83v60h155v-469z" />
    <glyph glyph-name="j" unicode="j" horiz-adv-x="268" 
d="M110 780h75v-140h-75v140zM29 529h156v-623q0 -61 -37.5 -98.5t-98.5 -37.5q-48 0 -80 15v59q27 -12 60 -12q38 0 61 25t23 65v547h-84v60z" />
    <glyph glyph-name="k" unicode="k" horiz-adv-x="575" 
d="M179 60h84v-60h-240v60h84v660h-84v60h156v-720zM486 60h78v-60h-115l-246 280l181 189h-74v60h244v-60h-85l-186 -188z" />
    <glyph glyph-name="l" unicode="l" horiz-adv-x="289" 
d="M180 60h84v-60h-240v60h84v660h-84v60h156v-720z" />
    <glyph glyph-name="m" unicode="m" horiz-adv-x="979" 
d="M880 60h84v-60h-156v329q0 147 -116 147q-71 0 -114 -49t-43 -131v-236h84v-60h-156v329q0 147 -116 147q-71 0 -114 -49t-43 -131v-236h99v-60h-255v60h84v409h-84v60h147l-1 -13l6 -96q52 119 188 119q122 0 153 -118q24 56 73.5 87t118.5 31q79 0 120 -50t41 -146
v-283z" />
    <glyph glyph-name="n" unicode="n" horiz-adv-x="654" 
d="M555 60h84v-60h-156v319q0 157 -126 157q-75 0 -121 -49t-46 -131v-236h99v-60h-255v60h84v409h-84v60h147l-1 -13l6 -98q54 121 198 121q171 0 171 -206v-273z" />
    <glyph glyph-name="o" unicode="o" horiz-adv-x="574" 
d="M287 -10q-109 0 -175 75.5t-66 198.5q0 124 66 199.5t175 75.5t175 -75.5t66 -199.5q0 -123 -66 -198.5t-175 -75.5zM287 52q74 0 120 58.5t46 153.5t-46 153.5t-120 58.5t-120 -58.5t-46 -153.5t46 -153.5t120 -58.5z" />
    <glyph glyph-name="p" unicode="p" horiz-adv-x="633" 
d="M368 539q98 0 158 -76t60 -200q0 -123 -60 -198t-158 -75q-135 0 -189 119v-269h111v-60h-267v60h84v629h-84v60h147l6 -116q53 126 192 126zM345 52q74 0 120 58t46 153q0 96 -46 154.5t-120 58.5q-75 0 -120.5 -58.5t-45.5 -153.5t45.5 -153.5t120.5 -58.5z" />
    <glyph glyph-name="q" unicode="q" horiz-adv-x="633" 
d="M610 469h-84v-629h84v-60h-267v60h111v269q-54 -119 -189 -119q-98 0 -158 75t-60 198q0 124 60 200t158 76q139 0 192 -126l6 116h147v-60zM288 52q75 0 120.5 58.5t45.5 153.5t-45.5 153.5t-120.5 58.5q-74 0 -120 -58.5t-46 -154.5q0 -95 46 -153t120 -58z" />
    <glyph glyph-name="r" unicode="r" horiz-adv-x="445" 
d="M398 539h35v-73h-44q-90 0 -144.5 -56.5t-54.5 -150.5v-199h105v-60h-261v60h84v409h-84v60h147l-1 -14l7 -121q27 69 81 107t130 38z" />
    <glyph glyph-name="s" unicode="s" horiz-adv-x="501" 
d="M297 291q78 -19 121 -52t43 -95q0 -70 -58 -112t-153 -42q-122 0 -198 31v131h69v-94q64 -14 125 -14q64 0 102.5 25t38.5 66t-30.5 61.5t-86.5 35.5l-74 18q-142 36 -142 140q0 67 56 108t148 41q82 0 168 -24v-127h-69v86q-55 10 -94 10q-61 0 -98 -23.5t-37 -62.5
q0 -64 99 -90z" />
    <glyph glyph-name="t" unicode="t" horiz-adv-x="374" 
d="M261 52q57 0 102 19v-60q-48 -21 -124 -21q-58 0 -93 33.5t-35 88.5v357h-93v60h94v140h71v-140h173v-60h-173v-343q0 -33 21.5 -53.5t56.5 -20.5z" />
    <glyph glyph-name="u" unicode="u" horiz-adv-x="633" 
d="M526 60h84v-60h-145l-7 111q-54 -121 -193 -121q-166 0 -166 205v274h-84v60h156v-320q0 -157 121 -157q73 0 117.5 49.5t44.5 130.5v237h-99v60h171v-469z" />
    <glyph glyph-name="v" unicode="v" horiz-adv-x="588" 
d="M580 529v-60h-75l-175 -469h-72l-175 469h-75v60h228v-60h-78l136 -389l136 389h-78v60h228z" />
    <glyph glyph-name="w" unicode="w" horiz-adv-x="870" 
d="M864 529v-60h-75l-152 -469h-73l-129 434l-130 -434h-72l-152 469h-74v60h231v-60h-80l116 -387l131 447h59l132 -447l117 387h-81v60h232z" />
    <glyph glyph-name="x" unicode="x" horiz-adv-x="580" 
d="M496 60h73v-60h-230v60h72l-126 177l-127 -177h74v-60h-221v60h72l159 217l-145 192h-73v60h226v-60h-72l118 -162l118 162h-72v60h214v-60h-70l-148 -199z" />
    <glyph glyph-name="y" unicode="y" horiz-adv-x="609" 
d="M526 529v-522q0 -107 -67 -172t-176 -65q-107 0 -172 25v62q65 -25 161 -25q82 0 132.5 49t50.5 129v95q-54 -115 -190 -115q-166 0 -166 205v274h-84v60h156v-320q0 -157 121 -157q73 0 117.5 49.5t44.5 130.5v237h-99v60h171z" />
    <glyph glyph-name="z" unicode="z" horiz-adv-x="528" 
d="M416 164h69v-164h-442v51l334 418h-260v-93h-69v153h425v-51l-332 -418h275v104z" />
    <glyph glyph-name="braceleft" unicode="{" horiz-adv-x="352" 
d="M246 -230q-61 0 -98 36t-37 94v278q0 41 -20 66t-54 25h-7v62h7q34 0 54 25t20 66v278q0 58 37 94t98 36q39 0 84 -12v-61q-33 10 -62 10q-36 0 -58.5 -23.5t-22.5 -62.5v-271q0 -41 -19.5 -71.5t-51.5 -38.5q32 -8 51.5 -38.5t19.5 -71.5v-271q0 -39 22.5 -62.5
t58.5 -23.5q29 0 62 10v-61q-45 -12 -84 -12z" />
    <glyph glyph-name="bar" unicode="|" horiz-adv-x="272" 
d="M98 -220v1000h76v-1000h-76z" />
    <glyph glyph-name="braceright" unicode="}" horiz-adv-x="352" 
d="M106 -230q-39 0 -85 12v61q35 -10 62 -10q37 0 59.5 23.5t22.5 62.5v271q0 41 19.5 71.5t51.5 38.5q-32 8 -51.5 38.5t-19.5 71.5v271q0 39 -22.5 62.5t-59.5 23.5q-27 0 -62 -10v61q46 12 85 12q60 0 97.5 -36t37.5 -94v-278q0 -41 20 -66t53 -25h8v-62h-8
q-33 0 -53 -25t-20 -66v-278q0 -58 -37.5 -94t-97.5 -36z" />
    <glyph glyph-name="asciitilde" unicode="~" 
d="M418 267q-33 0 -67.5 15.5t-59 34t-55 34t-55.5 15.5q-36 0 -58 -24.5t-22 -64.5h-43q0 69 34 111.5t89 42.5q42 0 85 -24.5t82 -49t71 -24.5q35 0 57 24t22 64h43q0 -70 -33.5 -112t-89.5 -42z" />
    <glyph glyph-name="uni00A0" unicode="&#xa0;" horiz-adv-x="243" 
 />
    <glyph glyph-name="exclamdown" unicode="&#xa1;" horiz-adv-x="250" 
d="M82 529h87v-88h-87v88zM94 358h63l7 -578h-77z" />
    <glyph glyph-name="cent" unicode="&#xa2;" 
d="M541 141v-61q-73 -34 -183 -39v-81h-67v82q-111 13 -177 86.5t-66 186.5t66 187t177 85v82h67v-81q97 -5 173 -34v-151h-69v108q-54 11 -104 14v-423q103 2 183 39zM124 317q0 -81 45 -137t122 -72v415q-77 -11 -122 -66.5t-45 -139.5z" />
    <glyph glyph-name="sterling" unicode="&#xa3;" 
d="M127 61h414v-61h-489v51q43 52 70.5 120.5t31.5 131.5h-100v62h93q-3 11 -34.5 78.5t-31.5 113.5q0 87 60 140t158 53q136 0 237 -49v-166h-73v129q-87 23 -159 23q-65 0 -105 -38t-40 -100q0 -36 29 -96.5t35 -87.5h241v-62h-238q-10 -136 -99 -242z" />
    <glyph glyph-name="currency" unicode="&#xa4;" 
d="M498 344q0 -75 -36 -128l51 -56l-45 -45l-51 56q-49 -35 -119 -35t-119 34l-51 -56l-46 45l52 56q-38 54 -38 129q0 74 38 129l-52 55l46 45l51 -56q49 34 119 34t119 -35l51 56l45 -45l-51 -56q36 -53 36 -127zM298 191q63 0 101.5 42t38.5 111q0 68 -38.5 110
t-101.5 42q-64 0 -103 -42t-39 -110q0 -69 39 -111t103 -42z" />
    <glyph glyph-name="yen" unicode="&#xa5;" 
d="M585 679h-74l-151 -326h128v-58h-153v-86h153v-58h-153v-90h104v-61h-284v61h104v90h-152v58h152v86h-152v58h127l-151 326h-74v61h242v-61h-89l135 -312l135 312h-89v61h242v-61z" />
    <glyph glyph-name="brokenbar" unicode="&#xa6;" horiz-adv-x="277" 
d="M101 380v400h75v-400h-75zM101 -220v400h75v-400h-75z" />
    <glyph glyph-name="section" unicode="&#xa7;" horiz-adv-x="636" 
d="M522 91q50 -45 50 -120q0 -91 -72.5 -146t-191.5 -55q-116 0 -209 38v170h73v-128q67 -16 135 -16q83 0 134 36t51 95q0 39 -24.5 66.5t-64 43.5t-87.5 29.5t-96 29.5t-87.5 38t-64 61t-24.5 92q0 88 70 144q-50 48 -50 121q0 90 72.5 145t191.5 55q116 0 209 -38v-170
h-73v129q-67 16 -135 16q-83 0 -134 -36.5t-51 -95.5q0 -39 24.5 -66.5t64 -43.5t87.5 -29.5t96 -29.5t87.5 -38t64 -61t24.5 -92q0 -88 -70 -144zM124 331q0 -39 21.5 -66.5t60 -44.5t78.5 -29t92 -27.5t85 -31.5q51 37 51 97q0 47 -35 79.5t-79 46.5t-112 34t-106 38
q-56 -37 -56 -96z" />
    <glyph glyph-name="dieresis" unicode="&#xa8;" horiz-adv-x="400" 
d="M76 640v140h72v-140h-72zM252 640v140h72v-140h-72z" />
    <glyph glyph-name="copyright" unicode="&#xa9;" horiz-adv-x="859" 
d="M430 750q170 0 273.5 -104.5t103.5 -275.5t-103.5 -275.5t-273.5 -104.5q-171 0 -274.5 104.5t-103.5 275.5t103.5 275.5t274.5 104.5zM430 42q144 0 232 90t88 238t-88 238.5t-232 90.5q-145 0 -233 -90.5t-88 -238.5t88 -238t233 -90zM303 369q0 -72 45.5 -116
t119.5 -44q71 0 124 40v-57q-56 -41 -142 -41q-98 0 -158 59t-60 156q0 96 59 155t156 59q78 0 135 -35v-145h-59v111q-41 11 -77 11q-64 0 -103.5 -42t-39.5 -111z" />
    <glyph glyph-name="ordfeminine" unicode="&#xaa;" horiz-adv-x="426" 
d="M313 466h48v-40h-90l-5 68q-14 -34 -43 -54t-65 -20q-91 0 -91 90q0 47 29 72.5t81 25.5l87 -1v21q0 81 -84 81q-47 0 -87 -20v40q40 21 101 21q119 0 119 -114v-170zM176 456q34 0 61 30t27 81v6h-78q-68 0 -68 -59q0 -58 58 -58zM77 301v45h284v-45h-284z" />
    <glyph glyph-name="guillemotleft" unicode="&#xab;" horiz-adv-x="533" 
d="M277 494l-158 -224l158 -224h-79l-157 224l157 224h79zM488 494l-158 -224l158 -224h-79l-157 224l157 224h79z" />
    <glyph glyph-name="logicalnot" unicode="&#xac;" 
d="M533 428v-205h-75v144h-393v61h468z" />
    <glyph glyph-name="uni00AD" unicode="&#xad;" horiz-adv-x="433" 
d="M67 257v60h299v-60h-299z" />
    <glyph glyph-name="registered" unicode="&#xae;" horiz-adv-x="493" 
d="M246 836q89 0 143 -55.5t54 -146.5t-54 -146.5t-143 -55.5q-88 0 -142 55.5t-54 146.5t54 146.5t142 55.5zM246 458q74 0 120 48.5t46 127.5t-46 127.5t-120 48.5t-119.5 -48.5t-45.5 -127.5t45.5 -127.5t119.5 -48.5zM283 617l34 -69h27v-24h-50l-41 88h-44v-64h23v-24
h-77v24h24v173h-24v25h100q32 0 51.5 -18.5t19.5 -49.5q0 -46 -43 -61zM209 720v-84h44q19 0 30.5 11.5t11.5 30.5t-12 30.5t-31 11.5h-43z" />
    <glyph glyph-name="macron" unicode="&#xaf;" horiz-adv-x="392" 
d="M54 649v59h284v-59h-284z" />
    <glyph glyph-name="degree" unicode="&#xb0;" horiz-adv-x="336" 
d="M168 545q-56 0 -90.5 34t-34.5 89t34.5 88.5t90.5 33.5q57 0 91.5 -33.5t34.5 -88.5q0 -56 -34.5 -89.5t-91.5 -33.5zM168 592q29 0 47 21t18 55t-18 54.5t-47 20.5t-47 -20.5t-18 -54.5t18 -55t47 -21z" />
    <glyph glyph-name="plusminus" unicode="&#xb1;" 
d="M335 444h197v-62h-197v-157h-76v157h-196v62h196v156h76v-156zM71 85v61h453v-61h-453z" />
    <glyph glyph-name="uni00B2" unicode="&#xb2;" horiz-adv-x="357" 
d="M105 447h226v-47h-299v41l141 143q84 82 84 142q0 35 -22 55t-59 20q-39 0 -85 -11v-76h-53v106q67 30 143 30q60 0 97 -31.5t37 -84.5q0 -48 -28 -90.5t-78 -92.5z" />
    <glyph glyph-name="uni00B3" unicode="&#xb3;" horiz-adv-x="357" 
d="M179 649q69 -1 110 -34.5t41 -88.5q0 -59 -46.5 -95.5t-123.5 -36.5q-75 0 -128 22v48q53 -21 123 -21q52 0 84 22.5t32 60.5q0 37 -31 59t-81 22h-30l-17 34l130 154h-154v-62h-52v111h282v-34z" />
    <glyph glyph-name="acute" unicode="&#xb4;" horiz-adv-x="314" 
d="M186 610h-65l115 170h87z" />
    <glyph glyph-name="paragraph" unicode="&#xb6;" horiz-adv-x="600" 
d="M557 740v-61h-92v-899h-64v899h-128v-899h-64v633h-44q-62 0 -99.5 45.5t-37.5 119.5q0 73 40.5 117.5t107.5 44.5h381z" />
    <glyph glyph-name="periodcentered" unicode="&#xb7;" horiz-adv-x="230" 
d="M67 273v94h96v-94h-96z" />
    <glyph glyph-name="cedilla" unicode="&#xb8;" horiz-adv-x="252" 
d="M131 -53q48 -3 76.5 -26t28.5 -58q0 -42 -35.5 -67.5t-93.5 -25.5q-50 0 -86 15v40q36 -15 79 -15q33 0 53 14t20 39q0 23 -19.5 36.5t-50.5 13.5h-22l-14 25l63 77l48 -15z" />
    <glyph glyph-name="uni00B9" unicode="&#xb9;" horiz-adv-x="357" 
d="M233 447h97v-47h-295v47h141v348h-110v49h167v-397z" />
    <glyph glyph-name="ordmasculine" unicode="&#xba;" horiz-adv-x="430" 
d="M215 420q-66 0 -106 45.5t-40 119.5t40 119.5t106 45.5t106 -45.5t40 -119.5t-40 -119.5t-106 -45.5zM215 463q43 0 69 33.5t26 88.5t-26 89t-69 34t-69.5 -34t-26.5 -89t26.5 -88.5t69.5 -33.5zM79 346h272v-45h-272v45z" />
    <glyph glyph-name="guillemotright" unicode="&#xbb;" horiz-adv-x="533" 
d="M124 494l157 -224l-157 -224h-79l158 224l-158 224h79zM335 494l157 -224l-157 -224h-79l158 224l-158 224h79z" />
    <glyph glyph-name="onequarter" unicode="&#xbc;" horiz-adv-x="894" 
d="M619 750l52 -25l-395 -735l-52 25zM332 296h-295v47h141v348h-110v49h167v-397h97v-47zM883 153v-47h-68v-106h-57v106h-209v47l156 291h61l-155 -291h148v129h56v-129h68z" />
    <glyph glyph-name="onehalf" unicode="&#xbd;" horiz-adv-x="894" 
d="M619 750l52 -25l-395 -735l-52 25zM332 296h-295v47h141v348h-110v49h167v-397h97v-47zM642 47h226v-47h-299v41l141 143q84 82 84 142q0 35 -22 55t-59 20q-39 0 -85 -11v-76h-53v106q67 30 143 30q60 0 97 -31.5t37 -84.5q0 -48 -28 -90.5t-78 -92.5z" />
    <glyph glyph-name="threequarters" unicode="&#xbe;" horiz-adv-x="894" 
d="M619 750l52 -25l-395 -735l-52 25zM329 422q0 -59 -46.5 -95.5t-123.5 -36.5q-75 0 -128 22v48q52 -21 123 -21q52 0 84 22.5t32 60.5q0 37 -31 59t-81 22h-30l-17 34l130 154h-154v-62h-52v111h282v-34l-139 -161q69 -1 110 -34.5t41 -88.5zM883 153v-47h-68v-106h-57
v106h-209v47l156 291h61l-155 -291h148v129h56v-129h68z" />
    <glyph glyph-name="questiondown" unicode="&#xbf;" horiz-adv-x="515" 
d="M332 529v-88h-87v88h87zM406 -15h73v-166q-98 -49 -220 -49q-100 0 -160.5 52.5t-60.5 140.5q0 73 33.5 123t101.5 105q38 30 61.5 76.5t23.5 90.5h62q0 -53 -23.5 -105t-62.5 -86q-37 -31 -58.5 -53.5t-40.5 -61t-19 -81.5q0 -64 40.5 -101t107.5 -37q65 0 142 22v130z
" />
    <glyph glyph-name="Agrave" unicode="&#xc0;" horiz-adv-x="758" 
d="M421 798h-65l-138 144h87zM685 61h75v-61h-243v61h87l-64 178h-318l-65 -178h87v-61h-244v61h77l232 618h-97v61h218zM245 303h271l-135 374z" />
    <glyph glyph-name="Aacute" unicode="&#xc1;" horiz-adv-x="758" 
d="M544 942l-137 -144h-65l115 144h87zM685 61h75v-61h-243v61h87l-64 178h-318l-65 -178h87v-61h-244v61h77l232 618h-97v61h218zM245 303h271l-135 374z" />
    <glyph glyph-name="Acircumflex" unicode="&#xc2;" horiz-adv-x="758" 
d="M381 908l-87 -110h-65l116 144h71l115 -144h-64zM685 61h75v-61h-243v61h87l-64 178h-318l-65 -178h87v-61h-244v61h77l232 618h-97v61h218zM245 303h271l-135 374z" />
    <glyph glyph-name="Atilde" unicode="&#xc3;" horiz-adv-x="758" 
d="M308 871q-21 0 -34 -17t-13 -45h-44q0 53 25.5 85.5t65.5 32.5q32 0 77.5 -36t66.5 -36t34.5 16.5t13.5 45.5h43q0 -55 -25.5 -86.5t-65.5 -31.5q-32 0 -77.5 36t-66.5 36zM685 61h75v-61h-243v61h87l-64 178h-318l-65 -178h87v-61h-244v61h77l232 618h-97v61h218z
M245 303h271l-135 374z" />
    <glyph glyph-name="Adieresis" unicode="&#xc4;" horiz-adv-x="758" 
d="M329 938v-140h-72v140h72zM505 938v-140h-72v140h72zM685 61h75v-61h-243v61h87l-64 178h-318l-65 -178h87v-61h-244v61h77l232 618h-97v61h218zM245 303h271l-135 374z" />
    <glyph glyph-name="Aring" unicode="&#xc5;" horiz-adv-x="758" 
d="M381 792q-45 0 -72.5 26t-27.5 68t27.5 68t72.5 26t73 -26t28 -68t-28 -68t-73 -26zM381 939q-23 0 -38 -14.5t-15 -38.5t15 -38.5t38 -14.5q24 0 38.5 14.5t14.5 38.5t-14.5 38.5t-38.5 14.5zM685 61h75v-61h-243v61h87l-64 178h-318l-65 -178h87v-61h-244v61h77
l232 618h-97v61h218zM245 303h271l-135 374z" />
    <glyph glyph-name="AE" unicode="&#xc6;" horiz-adv-x="984" 
d="M853 177h73v-177h-540v61h86v178h-220l-89 -178h80v-61h-245v61h84l310 618h-88v61h614v-162h-73v99h-297v-268h287v-63h-287v-283h305v114zM284 303h188v373z" />
    <glyph glyph-name="Ccedilla" unicode="&#xc7;" horiz-adv-x="651" 
d="M603 49q-79 -51 -205 -58l-39 -44q48 -3 76.5 -26t28.5 -58q0 -42 -35.5 -67.5t-93.5 -25.5q-50 0 -86 15v40q36 -15 79 -15q33 0 53 14t20 39q0 23 -19.5 36.5t-50.5 13.5h-22l-14 25l44 53q-131 12 -209 115.5t-78 265.5q0 170 87.5 274t230.5 104q133 0 223 -49v-189
h-73v155q-69 20 -143 20q-110 0 -178 -86.5t-68 -228.5q0 -143 69 -231t182 -88q58 0 118.5 16.5t102.5 42.5v-63z" />
    <glyph glyph-name="Egrave" unicode="&#xc8;" horiz-adv-x="660" 
d="M404 798h-65l-138 144h87zM530 177h72v-177h-552v61h84v618h-84v61h544v-162h-73v99h-311v-268h301v-63h-301v-283h320v114z" />
    <glyph glyph-name="Eacute" unicode="&#xc9;" horiz-adv-x="660" 
d="M527 942l-137 -144h-65l115 144h87zM530 177h72v-177h-552v61h84v618h-84v61h544v-162h-73v99h-311v-268h301v-63h-301v-283h320v114z" />
    <glyph glyph-name="Ecircumflex" unicode="&#xca;" horiz-adv-x="660" 
d="M364 908l-87 -110h-65l116 144h71l115 -144h-64zM530 177h72v-177h-552v61h84v618h-84v61h544v-162h-73v99h-311v-268h301v-63h-301v-283h320v114z" />
    <glyph glyph-name="Edieresis" unicode="&#xcb;" horiz-adv-x="660" 
d="M312 938v-140h-72v140h72zM488 938v-140h-72v140h72zM530 177h72v-177h-552v61h84v618h-84v61h544v-162h-73v99h-311v-268h301v-63h-301v-283h320v114z" />
    <glyph glyph-name="Igrave" unicode="&#xcc;" horiz-adv-x="344" 
d="M213 798h-65l-138 144h87zM293 679h-83v-618h83v-61h-243v61h84v618h-84v61h243v-61z" />
    <glyph glyph-name="Iacute" unicode="&#xcd;" horiz-adv-x="344" 
d="M336 942l-137 -144h-65l115 144h87zM293 740v-61h-83v-618h83v-61h-243v61h84v618h-84v61h243z" />
    <glyph glyph-name="Icircumflex" unicode="&#xce;" horiz-adv-x="344" 
d="M173 908l-87 -110h-65l116 144h71l115 -144h-64zM293 740v-61h-83v-618h83v-61h-243v61h84v618h-84v61h243z" />
    <glyph glyph-name="Idieresis" unicode="&#xcf;" horiz-adv-x="344" 
d="M121 938v-140h-72v140h72zM225 938h72v-140h-72v140zM293 740v-61h-83v-618h83v-61h-243v61h84v618h-84v61h243z" />
    <glyph glyph-name="Eth" unicode="&#xd0;" horiz-adv-x="718" 
d="M334 740q150 0 241.5 -102t91.5 -270q0 -165 -91.5 -266.5t-241.5 -101.5h-284v61h84v284h-75v54h75v280h-84v61h284zM326 63q118 0 190.5 84t72.5 221q0 139 -72.5 224t-190.5 85h-116v-278h177v-54h-177v-282h116z" />
    <glyph glyph-name="Ntilde" unicode="&#xd1;" horiz-adv-x="791" 
d="M321 871q-21 0 -34 -17t-13 -45h-44q0 53 25.5 85.5t65.5 32.5q32 0 77.5 -36t66.5 -36t34.5 16.5t13.5 45.5h43q0 -55 -25.5 -86.5t-65.5 -31.5q-32 0 -77.5 36t-66.5 36zM749 740v-65h-84v-675h-53l-403 600l1 -539h84v-61h-244v61h85v614h-85v65h138l403 -600l-1 535
h-85v65h244z" />
    <glyph glyph-name="Ograve" unicode="&#xd2;" horiz-adv-x="743" 
d="M346 798l-138 144h87l116 -144h-65zM371 -10q-143 0 -231.5 104.5t-88.5 275.5t88.5 275.5t231.5 104.5q145 0 233 -104.5t88 -275.5t-88 -275.5t-233 -104.5zM371 53q109 0 175 87t66 230t-66 230t-175 87q-108 0 -174 -87t-66 -230t66 -230t174 -87z" />
    <glyph glyph-name="Oacute" unicode="&#xd3;" horiz-adv-x="743" 
d="M397 798h-65l115 144h87zM371 -10q-143 0 -231.5 104.5t-88.5 275.5t88.5 275.5t231.5 104.5q145 0 233 -104.5t88 -275.5t-88 -275.5t-233 -104.5zM371 53q109 0 175 87t66 230t-66 230t-175 87q-108 0 -174 -87t-66 -230t66 -230t174 -87z" />
    <glyph glyph-name="Ocircumflex" unicode="&#xd4;" horiz-adv-x="743" 
d="M371 908l-87 -110h-65l116 144h71l115 -144h-64zM371 750q145 0 233 -104.5t88 -275.5t-88 -275.5t-233 -104.5q-143 0 -231.5 104.5t-88.5 275.5t88.5 275.5t231.5 104.5zM371 53q109 0 175 87t66 230t-66 230t-175 87q-108 0 -174 -87t-66 -230t66 -230t174 -87z" />
    <glyph glyph-name="Otilde" unicode="&#xd5;" horiz-adv-x="743" 
d="M442 799q-32 0 -77.5 36t-66.5 36t-34 -17t-13 -45h-44q0 53 25.5 85.5t65.5 32.5q32 0 77.5 -36t66.5 -36t34.5 16.5t13.5 45.5h43q0 -55 -25.5 -86.5t-65.5 -31.5zM371 -10q-143 0 -231.5 104.5t-88.5 275.5t88.5 275.5t231.5 104.5q145 0 233 -104.5t88 -275.5
t-88 -275.5t-233 -104.5zM371 53q109 0 175 87t66 230t-66 230t-175 87q-108 0 -174 -87t-66 -230t66 -230t174 -87z" />
    <glyph glyph-name="Odieresis" unicode="&#xd6;" horiz-adv-x="743" 
d="M247 798v140h72v-140h-72zM423 798v140h72v-140h-72zM371 -10q-143 0 -231.5 104.5t-88.5 275.5t88.5 275.5t231.5 104.5q145 0 233 -104.5t88 -275.5t-88 -275.5t-233 -104.5zM371 53q109 0 175 87t66 230t-66 230t-175 87q-108 0 -174 -87t-66 -230t66 -230t174 -87z
" />
    <glyph glyph-name="multiply" unicode="&#xd7;" 
d="M516 522l-174 -174l174 -175l-43 -44l-175 175l-176 -176l-43 44l176 176l-176 175l43 44l176 -176l175 175z" />
    <glyph glyph-name="Oslash" unicode="&#xd8;" horiz-adv-x="756" 
d="M709 706l-77 -89q67 -100 67 -247q0 -171 -88 -275.5t-233 -104.5q-127 0 -213 84l-72 -84l-46 44l77 90q-66 101 -66 246q0 171 88.5 275.5t231.5 104.5q127 0 213 -83l71 83zM138 370q0 -107 39 -185l366 427q-64 75 -165 75q-108 0 -174 -87t-66 -230zM619 370
q0 106 -39 186l-367 -427q65 -76 165 -76q109 0 175 87t66 230z" />
    <glyph glyph-name="Ugrave" unicode="&#xd9;" horiz-adv-x="766" 
d="M423 798h-65l-138 144h87zM731 740v-61h-84v-427q0 -118 -72.5 -190t-191.5 -72t-191.5 72t-72.5 190v427h-84v61h243v-61h-83v-423q0 -91 52 -147t136 -56t136 56t52 147v423h-83v61h243z" />
    <glyph glyph-name="Uacute" unicode="&#xda;" horiz-adv-x="766" 
d="M546 942l-137 -144h-65l115 144h87zM731 740v-61h-84v-427q0 -118 -72.5 -190t-191.5 -72t-191.5 72t-72.5 190v427h-84v61h243v-61h-83v-423q0 -91 52 -147t136 -56t136 56t52 147v423h-83v61h243z" />
    <glyph glyph-name="Ucircumflex" unicode="&#xdb;" horiz-adv-x="766" 
d="M383 908l-87 -110h-65l116 144h71l115 -144h-64zM731 740v-61h-84v-427q0 -118 -72.5 -190t-191.5 -72t-191.5 72t-72.5 190v427h-84v61h243v-61h-83v-423q0 -91 52 -147t136 -56t136 56t52 147v423h-83v61h243z" />
    <glyph glyph-name="Udieresis" unicode="&#xdc;" horiz-adv-x="766" 
d="M331 938v-140h-72v140h72zM507 938v-140h-72v140h72zM731 740v-61h-84v-427q0 -118 -72.5 -190t-191.5 -72t-191.5 72t-72.5 190v427h-84v61h243v-61h-83v-423q0 -91 52 -147t136 -56t136 56t52 147v423h-83v61h243z" />
    <glyph glyph-name="Yacute" unicode="&#xdd;" horiz-adv-x="666" 
d="M497 942l-137 -144h-65l115 144h87zM583 679l-212 -379v-239h104v-61h-284v61h105v239l-213 379h-80v61h243v-61h-81l168 -314l168 314h-81v61h243v-61h-80z" />
    <glyph glyph-name="Thorn" unicode="&#xde;" horiz-adv-x="642" 
d="M368 609q104 0 167.5 -61.5t63.5 -162.5q0 -103 -64 -166t-169 -63h-156v-95h103v-61h-263v61h84v618h-84v61h243v-61h-83v-70h158zM357 219q74 0 119 44.5t45 118.5t-45 118.5t-119 44.5h-147v-326h147z" />
    <glyph glyph-name="germandbls" unicode="&#xdf;" horiz-adv-x="629" 
d="M420 461q78 -23 122.5 -83t44.5 -145q0 -109 -65 -176t-171 -67q-42 0 -70 12v60q26 -10 55 -10q79 0 127.5 52t48.5 137q0 86 -49.5 138t-131.5 52v55q48 0 77 33.5t29 87.5q0 55 -33.5 88t-89.5 33t-90 -33t-34 -88v-607h-156v60h84v409h-84v60h84v81q0 81 54 130.5
t142 49.5q89 0 143.5 -48.5t54.5 -128.5q0 -108 -92 -152z" />
    <glyph glyph-name="agrave" unicode="&#xe0;" horiz-adv-x="539" 
d="M307 610h-65l-138 170h87zM441 60h83v-60h-144l-7 118q-25 -60 -74 -94t-109 -34q-153 0 -153 148q0 78 48 120.5t134 42.5l150 -1v38q0 140 -139 140q-80 0 -150 -35v61q70 35 167 35q194 0 194 -189v-290zM215 44q60 0 107 52t47 140v13h-138q-58 0 -88 -27t-30 -78
q0 -100 102 -100z" />
    <glyph glyph-name="aacute" unicode="&#xe1;" horiz-adv-x="539" 
d="M430 780l-137 -170h-65l115 170h87zM441 60h83v-60h-144l-7 118q-25 -60 -74 -94t-109 -34q-153 0 -153 148q0 78 48 120.5t134 42.5l150 -1v38q0 140 -139 140q-80 0 -150 -35v61q70 35 167 35q194 0 194 -189v-290zM215 44q60 0 107 52t47 140v13h-138q-58 0 -88 -27
t-30 -78q0 -100 102 -100z" />
    <glyph glyph-name="acircumflex" unicode="&#xe2;" horiz-adv-x="539" 
d="M267 740l-87 -130h-65l116 170h71l115 -170h-64zM441 60h83v-60h-144l-7 118q-25 -60 -74 -94t-109 -34q-153 0 -153 148q0 78 48 120.5t134 42.5l150 -1v38q0 140 -139 140q-80 0 -150 -35v61q70 35 167 35q194 0 194 -189v-290zM215 44q60 0 107 52t47 140v13h-138
q-58 0 -88 -27t-30 -78q0 -100 102 -100z" />
    <glyph glyph-name="atilde" unicode="&#xe3;" horiz-adv-x="539" 
d="M194 702q-21 0 -34 -17t-13 -45h-44q0 53 25.5 85t65.5 32q32 0 77.5 -35.5t66.5 -35.5t34.5 16.5t13.5 44.5h43q0 -54 -25.5 -85.5t-65.5 -31.5q-32 0 -77.5 36t-66.5 36zM441 60h83v-60h-144l-7 118q-25 -60 -74 -94t-109 -34q-153 0 -153 148q0 78 48 120.5t134 42.5
l150 -1v38q0 140 -139 140q-80 0 -150 -35v61q70 35 167 35q194 0 194 -189v-290zM215 44q60 0 107 52t47 140v13h-138q-58 0 -88 -27t-30 -78q0 -100 102 -100z" />
    <glyph glyph-name="adieresis" unicode="&#xe4;" horiz-adv-x="539" 
d="M215 780v-140h-72v140h72zM391 780v-140h-72v140h72zM441 60h83v-60h-144l-7 118q-25 -60 -74 -94t-109 -34q-153 0 -153 148q0 78 48 120.5t134 42.5l150 -1v38q0 140 -139 140q-80 0 -150 -35v61q70 35 167 35q194 0 194 -189v-290zM215 44q60 0 107 52t47 140v13h-138
q-58 0 -88 -27t-30 -78q0 -100 102 -100z" />
    <glyph glyph-name="aring" unicode="&#xe5;" horiz-adv-x="539" 
d="M267 602q-45 0 -72.5 26t-27.5 68q0 43 27.5 68.5t72.5 25.5t73 -25.5t28 -68.5q0 -42 -28 -68t-73 -26zM267 749q-23 0 -38 -14.5t-15 -38.5q0 -23 15 -38t38 -15q24 0 38.5 15t14.5 38q0 24 -14.5 38.5t-38.5 14.5zM441 60h83v-60h-144l-7 118q-25 -60 -74 -94
t-109 -34q-153 0 -153 148q0 78 48 120.5t134 42.5l150 -1v38q0 140 -139 140q-80 0 -150 -35v61q70 35 167 35q194 0 194 -189v-290zM215 44q60 0 107 52t47 140v13h-138q-58 0 -88 -27t-30 -78q0 -100 102 -100z" />
    <glyph glyph-name="ae" unicode="&#xe6;" horiz-adv-x="856" 
d="M813 277v-24h-370q9 -202 193 -202q89 0 157 34v-61q-74 -34 -172 -34q-84 0 -139.5 41t-78.5 119q-23 -74 -80 -117t-127 -43q-159 0 -159 148q0 78 47.5 120t134.5 42l150 -1v39q0 140 -139 140q-80 0 -150 -35v61q68 35 164 35q144 0 174 -120q28 57 77 88.5t113 31.5
q92 0 148.5 -72t56.5 -190zM602 478q-65 0 -107 -47t-50 -127h296q-3 80 -40.5 127t-98.5 47zM215 44q60 0 107 52t47 140v12h-138q-58 0 -88 -27t-30 -77q0 -100 102 -100z" />
    <glyph glyph-name="ccedilla" unicode="&#xe7;" horiz-adv-x="513" 
d="M469 30q-62 -35 -160 -40l-38 -43q48 -3 76.5 -26t28.5 -58q0 -42 -35.5 -67.5t-93.5 -25.5q-50 0 -86 15v40q36 -15 79 -15q33 0 53 14t20 39q0 23 -19.5 36.5t-50.5 13.5h-22l-14 25l45 55q-95 14 -151 87.5t-56 184.5q0 123 68 198.5t178 75.5q94 0 169 -35v-151h-69
v111q-58 12 -101 12q-76 0 -122.5 -57.5t-46.5 -151.5q0 -97 52.5 -156t139.5 -59q88 0 156 39v-61z" />
    <glyph glyph-name="egrave" unicode="&#xe8;" horiz-adv-x="533" 
d="M312 610h-65l-138 170h87zM490 277v-26h-370q9 -200 193 -200q89 0 157 34v-61q-74 -34 -175 -34q-119 0 -184 72.5t-65 207.5q0 121 65 195t171 74q94 0 151 -72t57 -190zM279 478q-66 0 -108 -47t-50 -128h297q-2 79 -40 127t-99 48z" />
    <glyph glyph-name="eacute" unicode="&#xe9;" horiz-adv-x="533" 
d="M435 780l-137 -170h-65l115 170h87zM490 277v-26h-370q9 -200 193 -200q89 0 157 34v-61q-74 -34 -175 -34q-119 0 -184 72.5t-65 207.5q0 121 65 195t171 74q94 0 151 -72t57 -190zM279 478q-66 0 -108 -47t-50 -128h297q-2 79 -40 127t-99 48z" />
    <glyph glyph-name="ecircumflex" unicode="&#xea;" horiz-adv-x="533" 
d="M272 740l-87 -130h-65l116 170h71l115 -170h-64zM490 277v-26h-370q9 -200 193 -200q89 0 157 34v-61q-74 -34 -175 -34q-119 0 -184 72.5t-65 207.5q0 121 65 195t171 74q94 0 151 -72t57 -190zM279 478q-66 0 -108 -47t-50 -128h297q-2 79 -40 127t-99 48z" />
    <glyph glyph-name="edieresis" unicode="&#xeb;" horiz-adv-x="533" 
d="M220 780v-140h-72v140h72zM396 780v-140h-72v140h72zM490 277v-26h-370q9 -200 193 -200q89 0 157 34v-61q-74 -34 -175 -34q-119 0 -184 72.5t-65 207.5q0 121 65 195t171 74q94 0 151 -72t57 -190zM279 478q-66 0 -108 -47t-50 -128h297q-2 79 -40 127t-99 48z" />
    <glyph glyph-name="igrave" unicode="&#xec;" horiz-adv-x="300" 
d="M196 610h-65l-138 170h87zM191 60h84v-60h-239v60h83v409h-83v60h155v-469z" />
    <glyph glyph-name="iacute" unicode="&#xed;" horiz-adv-x="300" 
d="M319 780l-137 -170h-65l115 170h87zM191 60h84v-60h-239v60h83v409h-83v60h155v-469z" />
    <glyph glyph-name="icircumflex" unicode="&#xee;" horiz-adv-x="300" 
d="M156 740l-87 -130h-65l116 170h71l115 -170h-64zM191 60h84v-60h-239v60h83v409h-83v60h155v-469z" />
    <glyph glyph-name="idieresis" unicode="&#xef;" horiz-adv-x="300" 
d="M104 780v-140h-72v140h72zM208 780h72v-140h-72v140zM191 60h84v-60h-239v60h83v409h-83v60h155v-469z" />
    <glyph glyph-name="eth" unicode="&#xf0;" horiz-adv-x="576" 
d="M322 707q206 -178 206 -416q0 -137 -66.5 -219t-175.5 -82q-108 0 -174 75.5t-66 199.5q0 121 62.5 195t160.5 74q76 0 131 -45q-47 95 -137 175l-71 -52l-38 31l71 53q-36 28 -78 54l60 40q32 -19 76 -52l70 52l41 -31zM287 52q74 0 120 58.5t46 153.5q0 96 -46 154
t-120 58q-75 0 -120.5 -58t-45.5 -154q0 -95 45.5 -153.5t120.5 -58.5z" />
    <glyph glyph-name="ntilde" unicode="&#xf1;" horiz-adv-x="654" 
d="M265 702q-21 0 -34 -17t-13 -45h-44q0 53 25.5 85t65.5 32q32 0 77.5 -35.5t66.5 -35.5t34.5 16.5t13.5 44.5h43q0 -54 -25.5 -85.5t-65.5 -31.5q-32 0 -77.5 36t-66.5 36zM555 60h84v-60h-156v319q0 157 -126 157q-75 0 -121 -49t-46 -131v-236h99v-60h-255v60h84v409
h-84v60h147l-1 -13l6 -98q54 121 198 121q171 0 171 -206v-273z" />
    <glyph glyph-name="ograve" unicode="&#xf2;" horiz-adv-x="574" 
d="M262 610l-138 170h87l116 -170h-65zM287 -10q-109 0 -175 75.5t-66 198.5q0 124 66 199.5t175 75.5t175 -75.5t66 -199.5q0 -123 -66 -198.5t-175 -75.5zM287 52q74 0 120 58.5t46 153.5t-46 153.5t-120 58.5t-120 -58.5t-46 -153.5t46 -153.5t120 -58.5z" />
    <glyph glyph-name="oacute" unicode="&#xf3;" horiz-adv-x="574" 
d="M313 610h-65l115 170h87zM287 -10q-109 0 -175 75.5t-66 198.5q0 124 66 199.5t175 75.5t175 -75.5t66 -199.5q0 -123 -66 -198.5t-175 -75.5zM287 52q74 0 120 58.5t46 153.5t-46 153.5t-120 58.5t-120 -58.5t-46 -153.5t46 -153.5t120 -58.5z" />
    <glyph glyph-name="ocircumflex" unicode="&#xf4;" horiz-adv-x="574" 
d="M287 740l-87 -130h-65l116 170h71l115 -170h-64zM287 539q109 0 175 -75.5t66 -199.5q0 -123 -66 -198.5t-175 -75.5t-175 75.5t-66 198.5q0 124 66 199.5t175 75.5zM287 52q74 0 120 58.5t46 153.5t-46 153.5t-120 58.5t-120 -58.5t-46 -153.5t46 -153.5t120 -58.5z" />
    <glyph glyph-name="otilde" unicode="&#xf5;" horiz-adv-x="574" 
d="M358 630q-32 0 -77.5 36t-66.5 36t-34 -17t-13 -45h-44q0 53 25.5 85t65.5 32q32 0 77.5 -35.5t66.5 -35.5t34.5 16.5t13.5 44.5h43q0 -54 -25.5 -85.5t-65.5 -31.5zM287 -10q-109 0 -175 75.5t-66 198.5q0 124 66 199.5t175 75.5t175 -75.5t66 -199.5q0 -123 -66 -198.5
t-175 -75.5zM287 52q74 0 120 58.5t46 153.5t-46 153.5t-120 58.5t-120 -58.5t-46 -153.5t46 -153.5t120 -58.5z" />
    <glyph glyph-name="odieresis" unicode="&#xf6;" horiz-adv-x="574" 
d="M163 640v140h72v-140h-72zM339 640v140h72v-140h-72zM287 -10q-109 0 -175 75.5t-66 198.5q0 124 66 199.5t175 75.5t175 -75.5t66 -199.5q0 -123 -66 -198.5t-175 -75.5zM287 52q74 0 120 58.5t46 153.5t-46 153.5t-120 58.5t-120 -58.5t-46 -153.5t46 -153.5t120 -58.5
z" />
    <glyph glyph-name="divide" unicode="&#xf7;" 
d="M254 499v87h87v-87h-87zM63 316v62h469v-62h-469zM254 108v87h87v-87h-87z" />
    <glyph glyph-name="oslash" unicode="&#xf8;" horiz-adv-x="581" 
d="M534 496l-50 -57q48 -71 48 -175q0 -123 -66 -198.5t-175 -75.5q-90 0 -152 53l-46 -53l-46 43l50 57q-47 72 -47 174q0 124 66 199.5t175 75.5q88 0 151 -52l46 52zM125 264q0 -66 23 -115l248 285q-42 42 -105 42q-74 0 -120 -58.5t-46 -153.5zM457 264q0 66 -23 117
l-249 -286q41 -43 106 -43q74 0 120 58.5t46 153.5z" />
    <glyph glyph-name="ugrave" unicode="&#xf9;" horiz-adv-x="633" 
d="M352 610h-65l-138 170h87zM526 60h84v-60h-145l-7 111q-54 -121 -193 -121q-166 0 -166 205v274h-84v60h156v-320q0 -157 121 -157q73 0 117.5 49.5t44.5 130.5v237h-99v60h171v-469z" />
    <glyph glyph-name="uacute" unicode="&#xfa;" horiz-adv-x="633" 
d="M475 780l-137 -170h-65l115 170h87zM526 60h84v-60h-145l-7 111q-54 -121 -193 -121q-166 0 -166 205v274h-84v60h156v-320q0 -157 121 -157q73 0 117.5 49.5t44.5 130.5v237h-99v60h171v-469z" />
    <glyph glyph-name="ucircumflex" unicode="&#xfb;" horiz-adv-x="633" 
d="M312 740l-87 -130h-65l116 170h71l115 -170h-64zM526 60h84v-60h-145l-7 111q-54 -121 -193 -121q-166 0 -166 205v274h-84v60h156v-320q0 -157 121 -157q73 0 117.5 49.5t44.5 130.5v237h-99v60h171v-469z" />
    <glyph glyph-name="udieresis" unicode="&#xfc;" horiz-adv-x="633" 
d="M260 780v-140h-72v140h72zM436 780v-140h-72v140h72zM526 60h84v-60h-145l-7 111q-54 -121 -193 -121q-166 0 -166 205v274h-84v60h156v-320q0 -157 121 -157q73 0 117.5 49.5t44.5 130.5v237h-99v60h171v-469z" />
    <glyph glyph-name="yacute" unicode="&#xfd;" horiz-adv-x="609" 
d="M475 780l-137 -170h-65l115 170h87zM526 529v-522q0 -107 -67 -172t-176 -65q-107 0 -172 25v62q65 -25 161 -25q82 0 132.5 49t50.5 129v95q-54 -115 -190 -115q-166 0 -166 205v274h-84v60h156v-320q0 -157 121 -157q73 0 117.5 49.5t44.5 130.5v237h-99v60h171z" />
    <glyph glyph-name="thorn" unicode="&#xfe;" horiz-adv-x="603" 
d="M338 539q98 0 158 -76t60 -200q0 -123 -60 -198t-158 -75q-135 0 -189 119v-269h111v-60h-267v60h84v881h-84v60h156v-361q55 119 189 119zM315 52q75 0 120.5 58t45.5 153q0 96 -45.5 154.5t-120.5 58.5t-120.5 -58.5t-45.5 -153.5t45.5 -153.5t120.5 -58.5z" />
    <glyph glyph-name="ydieresis" unicode="&#xff;" horiz-adv-x="609" 
d="M260 780v-140h-72v140h72zM436 780v-140h-72v140h72zM526 529v-522q0 -107 -67 -172t-176 -65q-107 0 -172 25v62q65 -25 161 -25q82 0 132.5 49t50.5 129v95q-54 -115 -190 -115q-166 0 -166 205v274h-84v60h156v-320q0 -157 121 -157q73 0 117.5 49.5t44.5 130.5v237
h-99v60h171z" />
    <glyph glyph-name="Amacron" unicode="&#x100;" horiz-adv-x="758" 
d="M523 888v-59h-284v59h284zM685 61h75v-61h-243v61h87l-64 178h-318l-65 -178h87v-61h-244v61h77l232 618h-97v61h218zM245 303h271l-135 374z" />
    <glyph glyph-name="amacron" unicode="&#x101;" horiz-adv-x="539" 
d="M409 708v-59h-284v59h284zM441 60h83v-60h-144l-7 118q-25 -60 -74 -94t-109 -34q-153 0 -153 148q0 78 48 120.5t134 42.5l150 -1v38q0 140 -139 140q-80 0 -150 -35v61q70 35 167 35q194 0 194 -189v-290zM215 44q60 0 107 52t47 140v13h-138q-58 0 -88 -27t-30 -78
q0 -100 102 -100z" />
    <glyph glyph-name="Abreve" unicode="&#x102;" horiz-adv-x="758" 
d="M381 793q-66 0 -106.5 41t-40.5 108h58q0 -47 24.5 -75.5t64.5 -28.5t65 29t25 75h57q0 -67 -40.5 -108t-106.5 -41zM685 61h75v-61h-243v61h87l-64 178h-318l-65 -178h87v-61h-244v61h77l232 618h-97v61h218zM245 303h271l-135 374z" />
    <glyph glyph-name="abreve" unicode="&#x103;" horiz-adv-x="539" 
d="M267 603q-66 0 -106.5 49t-40.5 128h58q0 -59 24.5 -95t64.5 -36t65 36t25 95h57q0 -79 -40.5 -128t-106.5 -49zM441 60h83v-60h-144l-7 118q-25 -60 -74 -94t-109 -34q-153 0 -153 148q0 78 48 120.5t134 42.5l150 -1v38q0 140 -139 140q-80 0 -150 -35v61q70 35 167 35
q194 0 194 -189v-290zM215 44q60 0 107 52t47 140v13h-138q-58 0 -88 -27t-30 -78q0 -100 102 -100z" />
    <glyph glyph-name="Aogonek" unicode="&#x104;" horiz-adv-x="758" 
d="M704 0q-34 -2 -67.5 -40t-33.5 -82q0 -26 18 -41.5t48 -15.5q41 0 73 15v-49q-42 -17 -98 -17q-47 0 -75.5 24.5t-28.5 63.5q0 38 27.5 77.5t71.5 64.5h-122v61h87l-64 178h-318l-65 -178h87v-61h-244v61h77l232 618h-97v61h218l255 -679h75v-61h-56zM245 303h271
l-135 374z" />
    <glyph glyph-name="aogonek" unicode="&#x105;" horiz-adv-x="539" 
d="M475 0q-34 -2 -67.5 -40t-33.5 -82q0 -26 18 -41.5t48 -15.5q41 0 73 15v-49q-42 -17 -98 -17q-47 0 -75.5 24.5t-28.5 63.5q0 38 27.5 77.5t71.5 64.5h-30l-7 118q-25 -60 -74 -94t-109 -34q-153 0 -153 148q0 78 48 120.5t134 42.5l150 -1v38q0 140 -139 140
q-80 0 -150 -35v61q70 35 167 35q194 0 194 -189v-290h83v-60h-49zM215 44q60 0 107 52t47 140v13h-138q-58 0 -88 -27t-30 -78q0 -100 102 -100z" />
    <glyph glyph-name="Cacute" unicode="&#x106;" horiz-adv-x="651" 
d="M525 942l-137 -144h-65l115 144h87zM382 53q58 0 118.5 16.5t102.5 42.5v-63q-41 -27 -105 -43t-128 -16q-143 0 -230.5 105t-87.5 277q0 170 87.5 274t230.5 104q133 0 223 -49v-189h-73v155q-69 20 -143 20q-110 0 -178 -86.5t-68 -228.5q0 -143 69 -231t182 -88z" />
    <glyph glyph-name="cacute" unicode="&#x107;" horiz-adv-x="513" 
d="M445 780l-137 -170h-65l115 170h87zM313 52q88 0 156 39v-61q-70 -40 -174 -40q-113 0 -181.5 75.5t-68.5 199.5q0 123 68 198.5t178 75.5q94 0 169 -35v-151h-69v111q-58 12 -101 12q-76 0 -122.5 -57.5t-46.5 -151.5q0 -97 52.5 -156t139.5 -59z" />
    <glyph glyph-name="Cdotaccent" unicode="&#x10a;" horiz-adv-x="651" 
d="M400 938v-140h-75v140h75zM382 53q58 0 118.5 16.5t102.5 42.5v-63q-41 -27 -105 -43t-128 -16q-143 0 -230.5 105t-87.5 277q0 170 87.5 274t230.5 104q133 0 223 -49v-189h-73v155q-69 20 -143 20q-110 0 -178 -86.5t-68 -228.5q0 -143 69 -231t182 -88z" />
    <glyph glyph-name="cdotaccent" unicode="&#x10b;" horiz-adv-x="513" 
d="M320 780v-140h-75v140h75zM313 52q88 0 156 39v-61q-70 -40 -174 -40q-113 0 -181.5 75.5t-68.5 199.5q0 123 68 198.5t178 75.5q94 0 169 -35v-151h-69v111q-58 12 -101 12q-76 0 -122.5 -57.5t-46.5 -151.5q0 -97 52.5 -156t139.5 -59z" />
    <glyph glyph-name="Ccaron" unicode="&#x10c;" horiz-adv-x="651" 
d="M326 798l-116 144h65l87 -110l86 110h64l-115 -144h-71zM382 53q58 0 118.5 16.5t102.5 42.5v-63q-41 -27 -105 -43t-128 -16q-143 0 -230.5 105t-87.5 277q0 170 87.5 274t230.5 104q133 0 223 -49v-189h-73v155q-69 20 -143 20q-110 0 -178 -86.5t-68 -228.5
q0 -143 69 -231t182 -88z" />
    <glyph glyph-name="ccaron" unicode="&#x10d;" horiz-adv-x="513" 
d="M246 610l-116 170h65l87 -130l86 130h64l-115 -170h-71zM313 52q88 0 156 39v-61q-70 -40 -174 -40q-113 0 -181.5 75.5t-68.5 199.5q0 123 68 198.5t178 75.5q94 0 169 -35v-151h-69v111q-58 12 -101 12q-76 0 -122.5 -57.5t-46.5 -151.5q0 -97 52.5 -156t139.5 -59z
" />
    <glyph glyph-name="Dcaron" unicode="&#x10e;" horiz-adv-x="718" 
d="M299 798l-116 144h65l87 -110l86 110h64l-115 -144h-71zM334 740q150 0 241.5 -102t91.5 -270q0 -165 -91.5 -266.5t-241.5 -101.5h-284v61h84v618h-84v61h284zM326 63q118 0 190.5 84t72.5 221q0 139 -72.5 224t-190.5 85h-116v-614h116z" />
    <glyph glyph-name="dcaron" unicode="&#x10f;" horiz-adv-x="641" 
d="M526 60h84v-60h-144l-8 117q-54 -127 -193 -127q-98 0 -158.5 75t-60.5 198q0 124 60.5 200t158.5 76q134 0 189 -119v300h-111v60h183v-720zM621 780h67l-62 -190h-56zM287 52q76 0 121.5 58.5t45.5 153.5t-45.5 153.5t-121.5 58.5q-74 0 -119.5 -58.5t-45.5 -154.5
q0 -95 45.5 -153t119.5 -58z" />
    <glyph glyph-name="Dcroat" unicode="&#x110;" horiz-adv-x="718" 
d="M334 740q150 0 241.5 -102t91.5 -270q0 -165 -91.5 -266.5t-241.5 -101.5h-284v61h84v284h-75v54h75v280h-84v61h284zM326 63q118 0 190.5 84t72.5 221q0 139 -72.5 224t-190.5 85h-116v-278h177v-54h-177v-282h116z" />
    <glyph glyph-name="dcroat" unicode="&#x111;" horiz-adv-x="633" 
d="M526 60h84v-60h-144l-8 117q-54 -127 -193 -127q-98 0 -158.5 75t-60.5 198q0 124 60.5 200t158.5 76q134 0 189 -119v208h-177v54h177v98h72v-98h79v-54h-79v-568zM287 52q76 0 121.5 58.5t45.5 153.5t-45.5 153.5t-121.5 58.5q-74 0 -119.5 -58.5t-45.5 -154.5
q0 -95 45.5 -153t119.5 -58z" />
    <glyph glyph-name="Emacron" unicode="&#x112;" horiz-adv-x="660" 
d="M506 888v-59h-284v59h284zM530 177h72v-177h-552v61h84v618h-84v61h544v-162h-73v99h-311v-268h301v-63h-301v-283h320v114z" />
    <glyph glyph-name="emacron" unicode="&#x113;" horiz-adv-x="533" 
d="M414 708v-59h-284v59h284zM490 277v-26h-370q9 -200 193 -200q89 0 157 34v-61q-74 -34 -175 -34q-119 0 -184 72.5t-65 207.5q0 121 65 195t171 74q94 0 151 -72t57 -190zM279 478q-66 0 -108 -47t-50 -128h297q-2 79 -40 127t-99 48z" />
    <glyph glyph-name="Edotaccent" unicode="&#x116;" horiz-adv-x="660" 
d="M402 938v-140h-75v140h75zM530 177h72v-177h-552v61h84v618h-84v61h544v-162h-73v99h-311v-268h301v-63h-301v-283h320v114z" />
    <glyph glyph-name="edotaccent" unicode="&#x117;" horiz-adv-x="533" 
d="M310 780v-140h-75v140h75zM490 277v-26h-370q9 -200 193 -200q89 0 157 34v-61q-74 -34 -175 -34q-119 0 -184 72.5t-65 207.5q0 121 65 195t171 74q94 0 151 -72t57 -190zM279 478q-66 0 -108 -47t-50 -128h297q-2 79 -40 127t-99 48z" />
    <glyph glyph-name="Eogonek" unicode="&#x118;" horiz-adv-x="660" 
d="M530 177h72v-177h-93q-34 -2 -67.5 -40t-33.5 -82q0 -26 18 -41.5t48 -15.5q41 0 73 15v-49q-43 -17 -98 -17q-47 0 -75.5 24.5t-28.5 63.5q0 38 27.5 77.5t71.5 64.5h-394v61h84v618h-84v61h544v-162h-73v99h-311v-268h301v-63h-301v-283h320v114z" />
    <glyph glyph-name="eogonek" unicode="&#x119;" horiz-adv-x="533" 
d="M490 277v-26h-370q9 -200 193 -200q89 0 157 34v-61q-46 -21 -116 -31q-30 -13 -53 -46.5t-23 -68.5q0 -26 18 -41.5t48 -15.5q41 0 73 15v-49q-43 -17 -98 -17q-47 0 -75.5 24.5t-28.5 63.5q0 34 22.5 70t60.5 62h-3q-119 0 -184 72.5t-65 207.5q0 121 65 195t171 74
q94 0 151 -72t57 -190zM279 478q-66 0 -108 -47t-50 -128h297q-2 79 -40 127t-99 48z" />
    <glyph glyph-name="Ecaron" unicode="&#x11a;" horiz-adv-x="660" 
d="M328 798l-116 144h65l87 -110l86 110h64l-115 -144h-71zM530 177h72v-177h-552v61h84v618h-84v61h544v-162h-73v99h-311v-268h301v-63h-301v-283h320v114z" />
    <glyph glyph-name="ecaron" unicode="&#x11b;" horiz-adv-x="533" 
d="M236 610l-116 170h65l87 -130l86 130h64l-115 -170h-71zM490 277v-26h-370q9 -200 193 -200q89 0 157 34v-61q-74 -34 -175 -34q-119 0 -184 72.5t-65 207.5q0 121 65 195t171 74q94 0 151 -72t57 -190zM279 478q-66 0 -108 -47t-50 -128h297q-2 79 -40 127t-99 48z" />
    <glyph glyph-name="Gbreve" unicode="&#x11e;" horiz-adv-x="742" 
d="M374 793q-66 0 -106.5 41t-40.5 108h58q0 -47 24.5 -75.5t64.5 -28.5t65 29t25 75h57q0 -67 -40.5 -108t-106.5 -41zM716 389v-61h-84v-292q-95 -46 -243 -46q-152 0 -245 105t-93 277q0 170 93 274t245 104q64 0 128.5 -13t104.5 -35v-173h-73v136q-74 22 -150 22
q-121 0 -195 -86.5t-74 -228.5q0 -143 72.5 -231t190.5 -88q79 0 163 23v252h-163v61h323z" />
    <glyph glyph-name="gbreve" unicode="&#x11f;" horiz-adv-x="573" 
d="M290 603q-66 0 -106.5 49t-40.5 128h58q0 -59 24.5 -95t64.5 -36t65 36t25 95h57q0 -79 -40.5 -128t-106.5 -49zM415 74q67 0 108 -37t41 -98q0 -76 -75 -122.5t-198 -46.5q-118 0 -190 43t-72 113q0 34 19 60t52 40q-51 26 -51 85q0 66 67 113q-47 50 -47 123
q0 86 60.5 139t160.5 53q61 0 114 -24l84 84l50 -49l-76 -75q55 -53 55 -128q0 -85 -61.5 -136.5t-162.5 -51.5q-82 0 -138 34q-40 -27 -40 -66q0 -24 16.5 -38.5t43.5 -14.5h240zM292 485q-66 0 -107 -38t-41 -100t41 -100t107 -38q67 0 108 38t41 100t-41 100t-108 38z
M293 -172q89 0 142.5 30t53.5 79q0 35 -24 56t-63 21h-218q-38 0 -62 -21.5t-24 -55.5q0 -49 53.5 -79t141.5 -30z" />
    <glyph glyph-name="Gdotaccent" unicode="&#x120;" horiz-adv-x="742" 
d="M412 938v-140h-75v140h75zM716 389v-61h-84v-292q-95 -46 -243 -46q-152 0 -245 105t-93 277q0 170 93 274t245 104q64 0 128.5 -13t104.5 -35v-173h-73v136q-74 22 -150 22q-121 0 -195 -86.5t-74 -228.5q0 -143 72.5 -231t190.5 -88q79 0 163 23v252h-163v61h323z" />
    <glyph glyph-name="gdotaccent" unicode="&#x121;" horiz-adv-x="573" 
d="M328 780v-140h-75v140h75zM415 74q67 0 108 -37t41 -98q0 -76 -75 -122.5t-198 -46.5q-118 0 -190 43t-72 113q0 34 19 60t52 40q-51 26 -51 85q0 66 67 113q-47 50 -47 123q0 86 60.5 139t160.5 53q61 0 114 -24l84 84l50 -49l-76 -75q55 -53 55 -128
q0 -85 -61.5 -136.5t-162.5 -51.5q-82 0 -138 34q-40 -27 -40 -66q0 -24 16.5 -38.5t43.5 -14.5h240zM292 485q-66 0 -107 -38t-41 -100t41 -100t107 -38q67 0 108 38t41 100t-41 100t-108 38zM293 -172q89 0 142.5 30t53.5 79q0 35 -24 56t-63 21h-218q-38 0 -62 -21.5
t-24 -55.5q0 -49 53.5 -79t141.5 -30z" />
    <glyph glyph-name="Gcommaaccent" unicode="&#x122;" horiz-adv-x="742" 
d="M716 389v-61h-84v-292q-95 -46 -243 -46q-152 0 -245 105t-93 277q0 170 93 274t245 104q64 0 128.5 -13t104.5 -35v-173h-73v136q-74 22 -150 22q-121 0 -195 -86.5t-74 -228.5q0 -143 72.5 -231t190.5 -88q79 0 163 23v252h-163v61h323zM287 -201q25 0 40.5 35.5
t15.5 93.5h68q0 -71 -34 -114.5t-90 -43.5v29z" />
    <glyph glyph-name="gcommaaccent" unicode="&#x123;" horiz-adv-x="573" 
d="M370 762q-25 0 -40 -42t-15 -110h-69q0 81 34 130.5t90 49.5v-28zM415 74q67 0 108 -37t41 -98q0 -76 -75 -122.5t-198 -46.5q-118 0 -190 43t-72 113q0 34 19 60t52 40q-51 26 -51 85q0 66 67 113q-47 50 -47 123q0 86 60.5 139t160.5 53q61 0 114 -24l84 84l50 -49
l-76 -75q55 -53 55 -128q0 -85 -61.5 -136.5t-162.5 -51.5q-82 0 -138 34q-40 -27 -40 -66q0 -24 16.5 -38.5t43.5 -14.5h240zM292 485q-66 0 -107 -38t-41 -100t41 -100t107 -38q67 0 108 38t41 100t-41 100t-108 38zM293 -172q89 0 142.5 30t53.5 79q0 35 -24 56t-63 21
h-218q-38 0 -62 -21.5t-24 -55.5q0 -49 53.5 -79t141.5 -30z" />
    <glyph glyph-name="Hbar" unicode="&#x126;" horiz-adv-x="794" 
d="M744 679h-84v-101h82v-59h-82v-458h84v-61h-244v61h84v283h-374v-283h83v-61h-243v61h84v458h-83v59h83v101h-84v61h243v-61h-83v-101h374v101h-84v61h244v-61zM584 408v111h-374v-111h374z" />
    <glyph glyph-name="hbar" unicode="&#x127;" horiz-adv-x="642" 
d="M544 60h84v-60h-156v319q0 157 -126 157q-75 0 -121 -49t-46 -131v-236h99v-60h-255v60h84v568h-76v54h76v98h72v-98h180v-54h-180v-203q55 114 194 114q84 0 127.5 -52.5t43.5 -153.5v-273z" />
    <glyph glyph-name="Imacron" unicode="&#x12a;" horiz-adv-x="344" 
d="M31 888h284v-59h-284v59zM293 740v-61h-83v-618h83v-61h-243v61h84v618h-84v61h243z" />
    <glyph glyph-name="imacron" unicode="&#x12b;" horiz-adv-x="300" 
d="M14 708h284v-59h-284v59zM191 60h84v-60h-239v60h83v409h-83v60h155v-469z" />
    <glyph glyph-name="Iogonek" unicode="&#x12e;" horiz-adv-x="344" 
d="M293 679h-83v-618h83v-61h-61q-34 -2 -67.5 -40t-33.5 -82q0 -26 18 -41.5t48 -15.5q41 0 73 15v-49q-42 -17 -98 -17q-47 0 -75.5 24.5t-28.5 63.5q0 38 27.5 77.5t71.5 64.5h-117v61h84v618h-84v61h243v-61z" />
    <glyph glyph-name="iogonek" unicode="&#x12f;" horiz-adv-x="300" 
d="M191 780v-140h-74v140h74zM213 0q-34 -2 -67.5 -40t-33.5 -82q0 -26 18 -41.5t48 -15.5q41 0 73 15v-49q-43 -17 -98 -17q-47 0 -75.5 24.5t-28.5 63.5q0 38 27.5 77.5t71.5 64.5h-112v60h83v409h-83v60h155v-469h84v-60h-62z" />
    <glyph glyph-name="Idotaccent" unicode="&#x130;" horiz-adv-x="344" 
d="M211 938v-140h-75v140h75zM293 679h-83v-618h83v-61h-243v61h84v618h-84v61h243v-61z" />
    <glyph glyph-name="dotlessi" unicode="&#x131;" horiz-adv-x="300" 
d="M191 60h84v-60h-239v60h83v409h-83v60h155v-469z" />
    <glyph glyph-name="Kcommaaccent" unicode="&#x136;" horiz-adv-x="664" 
d="M293 61v-61h-243v61h84v618h-84v61h242v-61h-82v-618h83zM563 61h97v-61h-137l-289 379l236 300h-88v61h265v-61h-96l-236 -297zM291 -201q25 0 40.5 35.5t15.5 93.5h68q0 -71 -34 -114.5t-90 -43.5v29z" />
    <glyph glyph-name="kcommaaccent" unicode="&#x137;" horiz-adv-x="575" 
d="M263 60v-60h-240v60h84v660h-84v60h156v-720h84zM486 60h78v-60h-115l-246 280l181 189h-74v60h244v-60h-85l-186 -188zM221 -201q25 0 40.5 35.5t15.5 93.5h68q0 -71 -34 -114.5t-90 -43.5v29z" />
    <glyph glyph-name="Lacute" unicode="&#x139;" horiz-adv-x="582" 
d="M335 942l-137 -144h-65l115 144h87zM479 196h73v-196h-502v61h84v618h-84v61h263v-61h-103v-616h269v133z" />
    <glyph glyph-name="lacute" unicode="&#x13a;" horiz-adv-x="289" 
d="M308 1031l-137 -170h-65l115 170h87zM180 60h84v-60h-240v60h84v660h-84v60h156v-720z" />
    <glyph glyph-name="Lcommaaccent" unicode="&#x13b;" horiz-adv-x="582" 
d="M479 196h73v-196h-502v61h84v618h-84v61h263v-61h-103v-616h269v133zM241 -201q25 0 40.5 35.5t15.5 93.5h68q0 -71 -34 -114.5t-90 -43.5v29z" />
    <glyph glyph-name="lcommaaccent" unicode="&#x13c;" horiz-adv-x="289" 
d="M180 60h84v-60h-240v60h84v660h-84v60h156v-720zM64 -201q25 0 40.5 35.5t15.5 93.5h68q0 -71 -34 -114.5t-90 -43.5v29z" />
    <glyph glyph-name="Lcaron" unicode="&#x13d;" horiz-adv-x="594" 
d="M479 196h73v-196h-502v61h84v618h-84v61h263v-61h-103v-616h269v133zM515 740l-66 -199h-68l54 199h80z" />
    <glyph glyph-name="lcaron" unicode="&#x13e;" horiz-adv-x="297" 
d="M180 60h84v-60h-240v60h84v660h-84v60h156v-720zM275 780h67l-61 -190h-58z" />
    <glyph glyph-name="Lslash" unicode="&#x141;" horiz-adv-x="582" 
d="M479 196h73v-196h-502v61h84v247l-76 -58v62l76 58v309h-84v61h263v-61h-103v-261l98 73v-61l-98 -74v-293h269v133z" />
    <glyph glyph-name="lslash" unicode="&#x142;" horiz-adv-x="289" 
d="M270 458l-90 -68v-330h84v-60h-240v60h84v285l-88 -67v62l88 67v313h-84v60h156v-328l90 67v-61z" />
    <glyph glyph-name="Nacute" unicode="&#x143;" horiz-adv-x="791" 
d="M557 942l-137 -144h-65l115 144h87zM749 740v-65h-84v-675h-53l-403 600l1 -539h84v-61h-244v61h85v614h-85v65h138l403 -600l-1 535h-85v65h244z" />
    <glyph glyph-name="nacute" unicode="&#x144;" horiz-adv-x="654" 
d="M501 780l-137 -170h-65l115 170h87zM555 60h84v-60h-156v319q0 157 -126 157q-75 0 -121 -49t-46 -131v-236h99v-60h-255v60h84v409h-84v60h147l-1 -13l6 -98q54 121 198 121q171 0 171 -206v-273z" />
    <glyph glyph-name="Ncommaaccent" unicode="&#x145;" horiz-adv-x="791" 
d="M749 740v-65h-84v-675h-53l-403 600l1 -539h84v-61h-244v61h85v614h-85v65h138l403 -600l-1 535h-85v65h244zM314 -201q25 0 40.5 35.5t15.5 93.5h68q0 -71 -34 -114.5t-90 -43.5v29z" />
    <glyph glyph-name="ncommaaccent" unicode="&#x146;" horiz-adv-x="654" 
d="M555 60h84v-60h-156v319q0 157 -126 157q-75 0 -121 -49t-46 -131v-236h99v-60h-255v60h84v409h-84v60h147l-1 -13l6 -98q54 121 198 121q171 0 171 -206v-273zM256 -201q25 0 40.5 35.5t15.5 93.5h68q0 -71 -34 -114.5t-90 -43.5v29z" />
    <glyph glyph-name="Ncaron" unicode="&#x147;" horiz-adv-x="791" 
d="M358 798l-116 144h65l87 -110l86 110h64l-115 -144h-71zM749 740v-65h-84v-675h-53l-403 600l1 -539h84v-61h-244v61h85v614h-85v65h138l403 -600l-1 535h-85v65h244z" />
    <glyph glyph-name="ncaron" unicode="&#x148;" horiz-adv-x="654" 
d="M302 610l-116 170h65l87 -130l86 130h64l-115 -170h-71zM555 60h84v-60h-156v319q0 157 -126 157q-75 0 -121 -49t-46 -131v-236h99v-60h-255v60h84v409h-84v60h147l-1 -13l6 -98q54 121 198 121q171 0 171 -206v-273z" />
    <glyph glyph-name="Eng" unicode="&#x14a;" horiz-adv-x="791" 
d="M749 740v-65h-84v-722q0 -82 -52.5 -132.5t-138.5 -50.5q-70 0 -120 22v62q45 -21 110 -21q56 0 90.5 35.5t34.5 94.5v71l-380 566l1 -539h84v-61h-244v61h85v614h-85v65h138l403 -600l-1 535h-85v65h244z" />
    <glyph glyph-name="eng" unicode="&#x14b;" horiz-adv-x="625" 
d="M384 539q171 0 171 -206v-427q0 -62 -37.5 -99t-98.5 -37q-48 0 -80 15v59q27 -12 61 -12q37 0 60 25t23 65v397q0 157 -126 157q-75 0 -121 -49t-46 -131v-236h99v-60h-255v60h84v409h-84v60h147l-1 -13l6 -98q54 121 198 121z" />
    <glyph glyph-name="Omacron" unicode="&#x14c;" horiz-adv-x="743" 
d="M229 829v59h284v-59h-284zM371 -10q-143 0 -231.5 104.5t-88.5 275.5t88.5 275.5t231.5 104.5q145 0 233 -104.5t88 -275.5t-88 -275.5t-233 -104.5zM371 53q109 0 175 87t66 230t-66 230t-175 87q-108 0 -174 -87t-66 -230t66 -230t174 -87z" />
    <glyph glyph-name="omacron" unicode="&#x14d;" horiz-adv-x="574" 
d="M145 649v59h284v-59h-284zM287 -10q-109 0 -175 75.5t-66 198.5q0 124 66 199.5t175 75.5t175 -75.5t66 -199.5q0 -123 -66 -198.5t-175 -75.5zM287 52q74 0 120 58.5t46 153.5t-46 153.5t-120 58.5t-120 -58.5t-46 -153.5t46 -153.5t120 -58.5z" />
    <glyph glyph-name="Ohungarumlaut" unicode="&#x150;" horiz-adv-x="743" 
d="M316 798h-65l116 144h87zM457 798h-65l115 144h87zM371 -10q-143 0 -231.5 104.5t-88.5 275.5t88.5 275.5t231.5 104.5q145 0 233 -104.5t88 -275.5t-88 -275.5t-233 -104.5zM371 53q109 0 175 87t66 230t-66 230t-175 87q-108 0 -174 -87t-66 -230t66 -230t174 -87z" />
    <glyph glyph-name="ohungarumlaut" unicode="&#x151;" horiz-adv-x="574" 
d="M232 610h-65l116 170h87zM373 610h-65l115 170h87zM287 -10q-109 0 -175 75.5t-66 198.5q0 124 66 199.5t175 75.5t175 -75.5t66 -199.5q0 -123 -66 -198.5t-175 -75.5zM287 52q74 0 120 58.5t46 153.5t-46 153.5t-120 58.5t-120 -58.5t-46 -153.5t46 -153.5t120 -58.5z
" />
    <glyph glyph-name="OE" unicode="&#x152;" horiz-adv-x="1019" 
d="M888 177h73v-177h-577q-150 0 -241.5 101.5t-91.5 266.5q0 168 91.5 270t241.5 102h569v-162h-73v99h-297v-268h287v-63h-287v-283h305v114zM391 63h116v614h-116q-118 0 -190 -85t-72 -224q0 -137 72 -221t190 -84z" />
    <glyph glyph-name="oe" unicode="&#x153;" horiz-adv-x="941" 
d="M898 277v-26h-370q9 -200 193 -200q89 0 157 34v-61q-74 -34 -172 -34q-165 0 -216 151q-25 -71 -78.5 -111t-126.5 -40q-108 0 -173.5 75.5t-65.5 198.5q0 124 65.5 199.5t173.5 75.5q73 0 126.5 -40.5t78.5 -111.5q25 71 78 111.5t125 40.5q92 0 148.5 -72t56.5 -190z
M687 478q-66 0 -108 -47t-50 -128h298q-2 79 -40.5 127t-99.5 48zM287 52q75 0 120.5 58.5t45.5 153.5t-45.5 153.5t-120.5 58.5q-74 0 -120 -58.5t-46 -153.5t46 -153.5t120 -58.5z" />
    <glyph glyph-name="Racute" unicode="&#x154;" horiz-adv-x="686" 
d="M505 942l-137 -144h-65l115 144h87zM577 61h94v-61h-149l-146 305h-3h-163v-244h83v-61h-243v61h84v618h-84v61h326q105 0 168.5 -60t63.5 -159q0 -77 -41.5 -131.5t-114.5 -74.5zM210 677v-312h163q70 0 113.5 43t43.5 113t-44.5 113t-116.5 43h-159z" />
    <glyph glyph-name="racute" unicode="&#x155;" horiz-adv-x="445" 
d="M369 780l-137 -170h-65l115 170h87zM398 539h35v-73h-44q-90 0 -144.5 -56.5t-54.5 -150.5v-199h105v-60h-261v60h84v409h-84v60h147l-1 -14l7 -121q27 69 81 107t130 38z" />
    <glyph glyph-name="Rcommaaccent" unicode="&#x156;" horiz-adv-x="686" 
d="M577 61h94v-61h-149l-146 305h-3h-163v-244h83v-61h-243v61h84v618h-84v61h326q105 0 168.5 -60t63.5 -159q0 -77 -41.5 -131.5t-114.5 -74.5zM210 677v-312h163q70 0 113.5 43t43.5 113t-44.5 113t-116.5 43h-159zM287 -201q25 0 40.5 35.5t15.5 93.5h68
q0 -71 -34 -114.5t-90 -43.5v29z" />
    <glyph glyph-name="rcommaaccent" unicode="&#x157;" horiz-adv-x="445" 
d="M398 539h35v-73h-44q-90 0 -144.5 -56.5t-54.5 -150.5v-199h105v-60h-261v60h84v409h-84v60h147l-1 -14l7 -121q27 69 81 107t130 38zM64 -201q25 0 40.5 35.5t15.5 93.5h68q0 -71 -34 -114.5t-90 -43.5v29z" />
    <glyph glyph-name="Rcaron" unicode="&#x158;" horiz-adv-x="686" 
d="M306 798l-116 144h65l87 -110l86 110h64l-115 -144h-71zM577 61h94v-61h-149l-146 305h-3h-163v-244h83v-61h-243v61h84v618h-84v61h326q105 0 168.5 -60t63.5 -159q0 -77 -41.5 -131.5t-114.5 -74.5zM210 677v-312h163q70 0 113.5 43t43.5 113t-44.5 113t-116.5 43h-159
z" />
    <glyph glyph-name="rcaron" unicode="&#x159;" horiz-adv-x="445" 
d="M170 610l-116 170h65l87 -130l86 130h64l-115 -170h-71zM398 539h35v-73h-44q-90 0 -144.5 -56.5t-54.5 -150.5v-199h105v-60h-261v60h84v409h-84v60h147l-1 -14l7 -121q27 69 81 107t130 38z" />
    <glyph glyph-name="Sacute" unicode="&#x15a;" horiz-adv-x="629" 
d="M481 942l-137 -144h-65l115 144h87zM385 395q92 -27 145.5 -72t53.5 -128q0 -92 -75 -148.5t-198 -56.5q-155 0 -249 33v173h73v-127q85 -16 165 -16q92 0 148.5 37.5t56.5 98.5q0 57 -41 89t-114 52l-118 33q-175 48 -175 187q0 90 72.5 145t190.5 55q128 0 229 -38
v-170h-73v128q-73 17 -152 17q-85 0 -136.5 -36.5t-51.5 -95.5q0 -51 35.5 -80t98.5 -47z" />
    <glyph glyph-name="sacute" unicode="&#x15b;" horiz-adv-x="501" 
d="M408 780l-137 -170h-65l115 170h87zM297 291q78 -19 121 -52t43 -95q0 -70 -58 -112t-153 -42q-122 0 -198 31v131h69v-94q64 -14 125 -14q64 0 102.5 25t38.5 66t-30.5 61.5t-86.5 35.5l-74 18q-142 36 -142 140q0 67 56 108t148 41q82 0 168 -24v-127h-69v86
q-55 10 -94 10q-61 0 -98 -23.5t-37 -62.5q0 -64 99 -90z" />
    <glyph glyph-name="Scedilla" unicode="&#x15e;" horiz-adv-x="629" 
d="M584 195q0 -84 -62.5 -138.5t-167.5 -64.5l-40 -45q48 -3 76.5 -26t28.5 -58q0 -42 -35.5 -67.5t-93.5 -25.5q-50 0 -86 15v40q36 -15 79 -15q33 0 53 14t20 39q0 23 -19 36.5t-51 13.5h-22l-14 25l43 52q-148 3 -231 33v173h73v-127q85 -16 165 -16q92 0 148.5 37.5
t56.5 98.5q0 57 -41 89t-114 52l-118 33q-175 48 -175 187q0 90 72.5 145t190.5 55q128 0 229 -38v-170h-73v128q-73 17 -152 17q-85 0 -136.5 -36.5t-51.5 -95.5q0 -51 35.5 -80t98.5 -47l115 -33q92 -27 145.5 -72t53.5 -128z" />
    <glyph glyph-name="scedilla" unicode="&#x15f;" horiz-adv-x="501" 
d="M461 144q0 -64 -50.5 -105.5t-134.5 -47.5l-39 -44q48 -3 76.5 -26t28.5 -58q0 -42 -35.5 -67.5t-93.5 -25.5q-50 0 -86 15v40q36 -15 79 -15q33 0 53 14t20 39q0 23 -19.5 36.5t-50.5 13.5h-22l-14 25l43 53q-102 5 -164 30v131h69v-94q64 -14 125 -14q64 0 102.5 25
t38.5 66t-30.5 61.5t-86.5 35.5l-74 18q-142 36 -142 140q0 67 56 108t148 41q82 0 168 -24v-127h-69v86q-55 10 -94 10q-61 0 -98 -23.5t-37 -62.5q0 -64 99 -90l70 -17q78 -19 121 -52t43 -95z" />
    <glyph glyph-name="Scaron" unicode="&#x160;" horiz-adv-x="629" 
d="M282 798l-116 144h65l87 -110l86 110h64l-115 -144h-71zM385 395q92 -27 145.5 -72t53.5 -128q0 -92 -75 -148.5t-198 -56.5q-155 0 -249 33v173h73v-127q85 -16 165 -16q92 0 148.5 37.5t56.5 98.5q0 57 -41 89t-114 52l-118 33q-175 48 -175 187q0 90 72.5 145
t190.5 55q128 0 229 -38v-170h-73v128q-73 17 -152 17q-85 0 -136.5 -36.5t-51.5 -95.5q0 -51 35.5 -80t98.5 -47z" />
    <glyph glyph-name="scaron" unicode="&#x161;" horiz-adv-x="501" 
d="M209 610l-116 170h65l87 -130l86 130h64l-115 -170h-71zM297 291q78 -19 121 -52t43 -95q0 -70 -58 -112t-153 -42q-122 0 -198 31v131h69v-94q64 -14 125 -14q64 0 102.5 25t38.5 66t-30.5 61.5t-86.5 35.5l-74 18q-142 36 -142 140q0 67 56 108t148 41q82 0 168 -24
v-127h-69v86q-55 10 -94 10q-61 0 -98 -23.5t-37 -62.5q0 -64 99 -90z" />
    <glyph glyph-name="uni0162" unicode="&#x162;" horiz-adv-x="617" 
d="M586 740v-185h-73v122h-166v-616h103v-61h-107l-47 -53q48 -3 76.5 -26t28.5 -58q0 -42 -35.5 -67.5t-93.5 -25.5q-50 0 -86 15v40q36 -15 79 -15q33 0 53 14t20 39q0 23 -19 36.5t-51 13.5h-22l-14 25l51 62h-116v61h104v616h-167v-122h-73v185h555z" />
    <glyph glyph-name="uni0163" unicode="&#x163;" horiz-adv-x="374" 
d="M239 -10q-12 0 -18 1l-39 -44q48 -3 76.5 -26t28.5 -58q0 -42 -35.5 -67.5t-93.5 -25.5q-50 0 -86 15v40q36 -15 79 -15q33 0 53 14t20 39q0 23 -19 36.5t-51 13.5h-22l-14 25l55 67q-62 32 -62 107v357h-93v60h94v140h71v-140h173v-60h-173v-343q0 -33 21.5 -53.5
t56.5 -20.5q57 0 102 19v-60q-48 -21 -124 -21z" />
    <glyph glyph-name="Tcaron" unicode="&#x164;" horiz-adv-x="617" 
d="M272 798l-116 144h65l87 -110l86 110h64l-115 -144h-71zM586 740v-185h-73v122h-166v-616h103v-61h-283v61h104v616h-167v-122h-73v185h555z" />
    <glyph glyph-name="tcaron" unicode="&#x165;" horiz-adv-x="374" 
d="M383 780l-62 -190h-57l52 190h67zM183 126q0 -33 21.5 -53.5t56.5 -20.5q57 0 102 19v-60q-48 -21 -124 -21q-58 0 -93 33.5t-35 88.5v357h-93v60h94v140h71v-140h173v-60h-173v-343z" />
    <glyph glyph-name="Tbar" unicode="&#x166;" horiz-adv-x="617" 
d="M586 740v-185h-73v122h-166v-288h127v-54h-127v-274h103v-61h-283v61h104v274h-125v54h125v288h-167v-122h-73v185h555z" />
    <glyph glyph-name="tbar" unicode="&#x167;" horiz-adv-x="379" 
d="M264 52q57 0 102 19v-60q-48 -21 -124 -21q-58 0 -93 33.5t-35 88.5v140h-84v53h84v164h-93v60h94v140h71v-140h173v-60h-173v-164h163v-53h-163v-126q0 -33 21.5 -53.5t56.5 -20.5z" />
    <glyph glyph-name="Umacron" unicode="&#x16a;" horiz-adv-x="766" 
d="M525 888v-59h-284v59h284zM731 740v-61h-84v-427q0 -118 -72.5 -190t-191.5 -72t-191.5 72t-72.5 190v427h-84v61h243v-61h-83v-423q0 -91 52 -147t136 -56t136 56t52 147v423h-83v61h243z" />
    <glyph glyph-name="umacron" unicode="&#x16b;" horiz-adv-x="633" 
d="M454 708v-59h-284v59h284zM526 60h84v-60h-145l-7 111q-54 -121 -193 -121q-166 0 -166 205v274h-84v60h156v-320q0 -157 121 -157q73 0 117.5 49.5t44.5 130.5v237h-99v60h171v-469z" />
    <glyph glyph-name="Uring" unicode="&#x16e;" horiz-adv-x="766" 
d="M383 792q-45 0 -72.5 26t-27.5 68t27.5 68t72.5 26t73 -26t28 -68t-28 -68t-73 -26zM383 939q-23 0 -38 -14.5t-15 -38.5t15 -38.5t38 -14.5q24 0 38.5 14.5t14.5 38.5t-14.5 38.5t-38.5 14.5zM731 740v-61h-84v-427q0 -118 -72.5 -190t-191.5 -72t-191.5 72t-72.5 190
v427h-84v61h243v-61h-83v-423q0 -91 52 -147t136 -56t136 56t52 147v423h-83v61h243z" />
    <glyph glyph-name="uring" unicode="&#x16f;" horiz-adv-x="633" 
d="M312 602q-45 0 -72.5 26t-27.5 68q0 43 27.5 68.5t72.5 25.5t73 -25.5t28 -68.5q0 -42 -28 -68t-73 -26zM312 749q-23 0 -38 -14.5t-15 -38.5q0 -23 15 -38t38 -15q24 0 38.5 15t14.5 38q0 24 -14.5 38.5t-38.5 14.5zM526 60h84v-60h-145l-7 111q-54 -121 -193 -121
q-166 0 -166 205v274h-84v60h156v-320q0 -157 121 -157q73 0 117.5 49.5t44.5 130.5v237h-99v60h171v-469z" />
    <glyph glyph-name="Uhungarumlaut" unicode="&#x170;" horiz-adv-x="766" 
d="M466 942l-138 -144h-65l116 144h87zM469 798h-65l115 144h87zM731 740v-61h-84v-427q0 -118 -72.5 -190t-191.5 -72t-191.5 72t-72.5 190v427h-84v61h243v-61h-83v-423q0 -91 52 -147t136 -56t136 56t52 147v423h-83v61h243z" />
    <glyph glyph-name="uhungarumlaut" unicode="&#x171;" horiz-adv-x="633" 
d="M395 780l-138 -170h-65l116 170h87zM398 610h-65l115 170h87zM526 60h84v-60h-145l-7 111q-54 -121 -193 -121q-166 0 -166 205v274h-84v60h156v-320q0 -157 121 -157q73 0 117.5 49.5t44.5 130.5v237h-99v60h171v-469z" />
    <glyph glyph-name="Uogonek" unicode="&#x172;" horiz-adv-x="766" 
d="M731 740v-61h-84v-427q0 -110 -64 -180.5t-170 -80.5q-29 -15 -50.5 -47t-21.5 -66q0 -26 18 -41.5t48 -15.5q41 0 73 15v-49q-42 -17 -98 -17q-47 0 -75.5 24.5t-28.5 63.5q0 35 23 71t61 62q-110 7 -176.5 78t-66.5 183v427h-84v61h243v-61h-83v-423q0 -91 52 -147
t136 -56t136 56t52 147v423h-83v61h243z" />
    <glyph glyph-name="uogonek" unicode="&#x173;" horiz-adv-x="633" 
d="M560 0q-34 -2 -67.5 -40t-33.5 -82q0 -26 18 -41.5t48 -15.5q41 0 73 15v-49q-42 -17 -98 -17q-47 0 -75.5 24.5t-28.5 63.5q0 38 27.5 77.5t71.5 64.5h-30l-7 111q-54 -121 -193 -121q-166 0 -166 205v274h-84v60h156v-320q0 -157 121 -157q73 0 117.5 49.5t44.5 130.5
v237h-99v60h171v-469h84v-60h-50z" />
    <glyph glyph-name="Wcircumflex" unicode="&#x174;" horiz-adv-x="1055" 
d="M528 908l-87 -110h-65l116 144h71l115 -144h-64zM1058 740v-61h-67l-214 -679h-76l-173 613l-174 -613h-75l-214 679h-67v61h243v-61h-95l172 -577l174 638h72l174 -638l172 577h-95v61h243z" />
    <glyph glyph-name="wcircumflex" unicode="&#x175;" horiz-adv-x="870" 
d="M436 740l-87 -130h-65l116 170h71l115 -170h-64zM864 529v-60h-75l-152 -469h-73l-129 434l-130 -434h-72l-152 469h-74v60h231v-60h-80l116 -387l131 447h59l132 -447l117 387h-81v60h232z" />
    <glyph glyph-name="Ycircumflex" unicode="&#x176;" horiz-adv-x="666" 
d="M334 908l-87 -110h-65l116 144h71l115 -144h-64zM583 679l-212 -379v-239h104v-61h-284v61h105v239l-213 379h-80v61h243v-61h-81l168 -314l168 314h-81v61h243v-61h-80z" />
    <glyph glyph-name="ycircumflex" unicode="&#x177;" horiz-adv-x="609" 
d="M312 740l-87 -130h-65l116 170h71l115 -170h-64zM526 529v-522q0 -107 -67 -172t-176 -65q-107 0 -172 25v62q65 -25 161 -25q82 0 132.5 49t50.5 129v95q-54 -115 -190 -115q-166 0 -166 205v274h-84v60h156v-320q0 -157 121 -157q73 0 117.5 49.5t44.5 130.5v237h-99
v60h171z" />
    <glyph glyph-name="Ydieresis" unicode="&#x178;" horiz-adv-x="666" 
d="M282 938v-140h-72v140h72zM458 938v-140h-72v140h72zM583 679l-212 -379v-239h104v-61h-284v61h105v239l-213 379h-80v61h243v-61h-81l168 -314l168 314h-81v61h243v-61h-80z" />
    <glyph glyph-name="Zacute" unicode="&#x179;" horiz-adv-x="598" 
d="M459 942l-137 -144h-65l115 144h87zM479 180h73v-180h-507v49l401 628h-323v-100h-73v163h493v-48l-401 -629h337v117z" />
    <glyph glyph-name="zacute" unicode="&#x17a;" horiz-adv-x="528" 
d="M408 780l-137 -170h-65l115 170h87zM416 164h69v-164h-442v51l334 418h-260v-93h-69v153h425v-51l-332 -418h275v104z" />
    <glyph glyph-name="Zdotaccent" unicode="&#x17b;" horiz-adv-x="598" 
d="M334 938v-140h-75v140h75zM479 180h73v-180h-507v49l401 628h-323v-100h-73v163h493v-48l-401 -629h337v117z" />
    <glyph glyph-name="zdotaccent" unicode="&#x17c;" horiz-adv-x="528" 
d="M283 780v-140h-75v140h75zM416 164h69v-164h-442v51l334 418h-260v-93h-69v153h425v-51l-332 -418h275v104z" />
    <glyph glyph-name="Zcaron" unicode="&#x17d;" horiz-adv-x="598" 
d="M260 798l-116 144h65l87 -110l86 110h64l-115 -144h-71zM479 180h73v-180h-507v49l401 628h-323v-100h-73v163h493v-48l-401 -629h337v117z" />
    <glyph glyph-name="zcaron" unicode="&#x17e;" horiz-adv-x="528" 
d="M209 610l-116 170h65l87 -130l86 130h64l-115 -170h-71zM416 164h69v-164h-442v51l334 418h-260v-93h-69v153h425v-51l-332 -418h275v104z" />
    <glyph glyph-name="florin" unicode="&#x192;" horiz-adv-x="498" 
d="M403 687q-42 0 -71.5 -26.5t-36.5 -68.5l-34 -217h206v-61h-216l-65 -414h-76l65 414h-145v61h155l37 236q10 62 56 100.5t111 38.5q43 0 78 -14v-60q-26 11 -64 11z" />
    <glyph glyph-name="Scommaaccent" unicode="&#x218;" horiz-adv-x="629" 
d="M385 395q92 -27 145.5 -72t53.5 -128q0 -92 -75 -148.5t-198 -56.5q-155 0 -249 33v173h73v-127q85 -16 165 -16q92 0 148.5 37.5t56.5 98.5q0 57 -41 89t-114 52l-118 33q-175 48 -175 187q0 90 72.5 145t190.5 55q128 0 229 -38v-170h-73v128q-73 17 -152 17
q-85 0 -136.5 -36.5t-51.5 -95.5q0 -51 35.5 -80t98.5 -47zM249 -201q25 0 40.5 35.5t15.5 93.5h68q0 -71 -34 -114.5t-90 -43.5v29z" />
    <glyph glyph-name="scommaaccent" unicode="&#x219;" horiz-adv-x="501" 
d="M297 291q78 -19 121 -52t43 -95q0 -70 -58 -112t-153 -42q-122 0 -198 31v131h69v-94q64 -14 125 -14q64 0 102.5 25t38.5 66t-30.5 61.5t-86.5 35.5l-74 18q-142 36 -142 140q0 67 56 108t148 41q82 0 168 -24v-127h-69v86q-55 10 -94 10q-61 0 -98 -23.5t-37 -62.5
q0 -64 99 -90zM172 -201q25 0 40.5 35.5t15.5 93.5h68q0 -71 -34 -114.5t-90 -43.5v29z" />
    <glyph glyph-name="uni021A" unicode="&#x21a;" horiz-adv-x="617" 
d="M586 740v-185h-73v122h-166v-616h103v-61h-283v61h104v616h-167v-122h-73v185h555zM231 -201q25 0 40.5 35.5t15.5 93.5h68q0 -71 -34 -114.5t-90 -43.5v29z" />
    <glyph glyph-name="uni021B" unicode="&#x21b;" horiz-adv-x="374" 
d="M261 52q57 0 102 19v-60q-48 -21 -124 -21q-58 0 -93 33.5t-35 88.5v357h-93v60h94v140h71v-140h173v-60h-173v-343q0 -33 21.5 -53.5t56.5 -20.5zM117 -201q25 0 40.5 35.5t15.5 93.5h68q0 -71 -34 -114.5t-90 -43.5v29z" />
    <glyph glyph-name="uni0237" unicode="&#x237;" horiz-adv-x="268" 
d="M185 529v-623q0 -61 -37.5 -98.5t-98.5 -37.5q-48 0 -80 15v59q27 -12 60 -12q38 0 61 25t23 65v547h-84v60h156z" />
    <glyph glyph-name="circumflex" unicode="&#x2c6;" horiz-adv-x="382" 
d="M342 610h-64l-86 130l-87 -130h-65l116 170h71z" />
    <glyph glyph-name="caron" unicode="&#x2c7;" horiz-adv-x="382" 
d="M278 780h64l-115 -170h-71l-116 170h65l87 -130z" />
    <glyph glyph-name="breve" unicode="&#x2d8;" horiz-adv-x="366" 
d="M183 603q-66 0 -106.5 49t-40.5 128h58q0 -59 24.5 -95t64.5 -36t65 36t25 95h57q0 -79 -40.5 -128t-106.5 -49z" />
    <glyph glyph-name="dotaccent" unicode="&#x2d9;" horiz-adv-x="213" 
d="M69 640v140h75v-140h-75z" />
    <glyph glyph-name="ring" unicode="&#x2da;" horiz-adv-x="306" 
d="M153 602q-45 0 -72.5 26t-27.5 68q0 43 27.5 68.5t72.5 25.5t73 -25.5t28 -68.5q0 -42 -28 -68t-73 -26zM153 643q24 0 38.5 15t14.5 38q0 24 -14.5 38.5t-38.5 14.5q-23 0 -38 -14.5t-15 -38.5q0 -23 15 -38t38 -15z" />
    <glyph glyph-name="ogonek" unicode="&#x2db;" horiz-adv-x="232" 
d="M158 -230q-47 0 -75.5 24.5t-28.5 63.5q0 46 37.5 91t94.5 66l32 -15q-34 -2 -67.5 -40t-33.5 -82q0 -26 18 -41.5t48 -15.5q41 0 73 15v-49q-43 -17 -98 -17z" />
    <glyph glyph-name="tilde" unicode="&#x2dc;" horiz-adv-x="417" 
d="M280 630q-32 0 -77.5 36t-66.5 36t-34 -17t-13 -45h-44q0 53 25.5 85t65.5 32q32 0 77.5 -35.5t66.5 -35.5t34.5 16.5t13.5 44.5h43q0 -54 -25.5 -85.5t-65.5 -31.5z" />
    <glyph glyph-name="hungarumlaut" unicode="&#x2dd;" horiz-adv-x="461" 
d="M175 610h-65l116 170h87zM316 610h-65l115 170h87z" />
    <glyph glyph-name="gravecomb" unicode="&#x300;" horiz-adv-x="0" 
d="M-176 610l-138 170h87l116 -170h-65z" />
    <glyph glyph-name="acutecomb" unicode="&#x301;" horiz-adv-x="0" 
d="M-128 610h-65l115 170h87z" />
    <glyph glyph-name="uni0302" unicode="&#x302;" horiz-adv-x="0" 
d="M-40 610h-64l-86 130l-87 -130h-65l116 170h71z" />
    <glyph glyph-name="tildecomb" unicode="&#x303;" horiz-adv-x="0" 
d="M-137 630q-32 0 -77.5 36t-66.5 36t-34 -17t-13 -45h-44q0 53 25.5 85t65.5 32q32 0 77.5 -35.5t66.5 -35.5t34.5 16.5t13.5 44.5h43q0 -54 -25.5 -85.5t-65.5 -31.5z" />
    <glyph glyph-name="uni0304" unicode="&#x304;" horiz-adv-x="0" 
d="M-338 649v59h284v-59h-284z" />
    <glyph glyph-name="uni0306" unicode="&#x306;" horiz-adv-x="0" 
d="M-183 603q-66 0 -106.5 49t-40.5 128h58q0 -59 24.5 -95t64.5 -36t65 36t25 95h57q0 -79 -40.5 -128t-106.5 -49z" />
    <glyph glyph-name="uni0307" unicode="&#x307;" horiz-adv-x="0" 
d="M-144 640v140h75v-140h-75z" />
    <glyph glyph-name="uni0308" unicode="&#x308;" horiz-adv-x="0" 
d="M-324 640v140h72v-140h-72zM-148 640v140h72v-140h-72z" />
    <glyph glyph-name="uni030A" unicode="&#x30a;" horiz-adv-x="0" 
d="M-153 602q-45 0 -72.5 26t-27.5 68q0 43 27.5 68.5t72.5 25.5t73 -25.5t28 -68.5q0 -42 -28 -68t-73 -26zM-153 643q24 0 38.5 15t14.5 38q0 24 -14.5 38.5t-38.5 14.5q-23 0 -38 -14.5t-15 -38.5q0 -23 15 -38t38 -15z" />
    <glyph glyph-name="uni030B" unicode="&#x30b;" horiz-adv-x="0" 
d="M-286 610h-65l116 170h87zM-145 610h-65l115 170h87z" />
    <glyph glyph-name="uni030C" unicode="&#x30c;" horiz-adv-x="0" 
d="M-104 780h64l-115 -170h-71l-116 170h65l87 -130z" />
    <glyph glyph-name="uni0312" unicode="&#x312;" horiz-adv-x="0" 
d="M-12 762q-25 0 -40 -42t-15 -110h-69q0 81 34 130.5t90 49.5v-28z" />
    <glyph glyph-name="uni0326" unicode="&#x326;" horiz-adv-x="0" 
d="M-133 -201q25 0 40.5 35.5t15.5 93.5h68q0 -71 -34 -114.5t-90 -43.5v29z" />
    <glyph glyph-name="uni0327" unicode="&#x327;" horiz-adv-x="0" 
d="M-121 -53q48 -3 76.5 -26t28.5 -58q0 -42 -35.5 -67.5t-93.5 -25.5q-50 0 -86 15v40q36 -15 79 -15q33 0 53 14t20 39q0 23 -19.5 36.5t-50.5 13.5h-22l-14 25l63 77l48 -15z" />
    <glyph glyph-name="uni0328" unicode="&#x328;" horiz-adv-x="0" 
d="M-114 -230q-47 0 -75.5 24.5t-28.5 63.5q0 46 37.5 91t94.5 66l32 -15q-34 -2 -67.5 -40t-33.5 -82q0 -26 18 -41.5t48 -15.5q41 0 73 15v-49q-43 -17 -98 -17z" />
    <glyph glyph-name="uni0335" unicode="&#x335;" horiz-adv-x="0" 
d="M-463 260v54h328v-54h-328z" />
    <glyph glyph-name="uni0336" unicode="&#x336;" horiz-adv-x="0" 
d="M-766 258v59h691v-59h-691z" />
    <glyph glyph-name="uni0337" unicode="&#x337;" horiz-adv-x="0" 
d="M-246 446l126 94v-61l-126 -95v10l-124 -95v62l124 94v-9z" />
    <glyph glyph-name="uni0338" unicode="&#x338;" horiz-adv-x="0" 
d="M-405 -10l-41 26l386 734l41 -26z" />
    <glyph glyph-name="uni0394" unicode="&#x394;" horiz-adv-x="648" 
d="M359 740l292 -740h-654l292 740h70zM102 63h443l-221 585z" />
    <glyph glyph-name="uni03A9" unicode="&#x3a9;" horiz-adv-x="717" 
d="M479 155v-92h176v-63h-238v203q77 20 122 83t45 155q0 111 -62 178.5t-163 67.5t-163 -67.5t-62 -178.5q0 -92 44.5 -155t121.5 -83v-203h-237v63h176v92q-86 33 -135 108t-49 178q0 139 83.5 224t220.5 85q136 0 219.5 -85t83.5 -224q0 -103 -48.5 -178t-134.5 -108z
" />
    <glyph glyph-name="uni03BC" unicode="&#x3bc;" horiz-adv-x="641" 
d="M534 60h84v-60h-146l-6 99q-43 -109 -150 -109q-108 0 -143 108v-318h-66v689h-84v60h156v-297q0 -180 137 -180q65 0 105.5 49.5t40.5 130.5v237h-99v60h171v-469z" />
    <glyph glyph-name="pi" unicode="&#x3c0;" horiz-adv-x="635" 
d="M542 52q33 0 60 15v-59q-31 -18 -80 -18q-45 0 -72.5 29t-27.5 76v374h-228v-409h99v-60h-255v60h84v409h-92v60h565v-60h-101v-362q0 -25 13 -40t35 -15z" />
    <glyph glyph-name="Wgrave" unicode="&#x1e80;" horiz-adv-x="1055" 
d="M568 798h-65l-138 144h87zM1058 740v-61h-67l-214 -679h-76l-173 613l-174 -613h-75l-214 679h-67v61h243v-61h-95l172 -577l174 638h72l174 -638l172 577h-95v61h243z" />
    <glyph glyph-name="wgrave" unicode="&#x1e81;" horiz-adv-x="870" 
d="M476 610h-65l-138 170h87zM864 529v-60h-75l-152 -469h-73l-129 434l-130 -434h-72l-152 469h-74v60h231v-60h-80l116 -387l131 447h59l132 -447l117 387h-81v60h232z" />
    <glyph glyph-name="Wacute" unicode="&#x1e82;" horiz-adv-x="1055" 
d="M691 942l-137 -144h-65l115 144h87zM1058 740v-61h-67l-214 -679h-76l-173 613l-174 -613h-75l-214 679h-67v61h243v-61h-95l172 -577l174 638h72l174 -638l172 577h-95v61h243z" />
    <glyph glyph-name="wacute" unicode="&#x1e83;" horiz-adv-x="870" 
d="M599 780l-137 -170h-65l115 170h87zM864 529v-60h-75l-152 -469h-73l-129 434l-130 -434h-72l-152 469h-74v60h231v-60h-80l116 -387l131 447h59l132 -447l117 387h-81v60h232z" />
    <glyph glyph-name="Wdieresis" unicode="&#x1e84;" horiz-adv-x="1055" 
d="M476 938v-140h-72v140h72zM652 938v-140h-72v140h72zM1058 740v-61h-67l-214 -679h-76l-173 613l-174 -613h-75l-214 679h-67v61h243v-61h-95l172 -577l174 638h72l174 -638l172 577h-95v61h243z" />
    <glyph glyph-name="wdieresis" unicode="&#x1e85;" horiz-adv-x="870" 
d="M384 780v-140h-72v140h72zM560 780v-140h-72v140h72zM864 529v-60h-75l-152 -469h-73l-129 434l-130 -434h-72l-152 469h-74v60h231v-60h-80l116 -387l131 447h59l132 -447l117 387h-81v60h232z" />
    <glyph glyph-name="uni1E9E" unicode="&#x1e9e;" horiz-adv-x="698" 
d="M476 435q81 -19 127.5 -77t46.5 -141q0 -102 -61.5 -164.5t-161.5 -62.5q-70 0 -124 18v61q50 -16 103 -16q74 0 119.5 47t45.5 124t-48 124t-127 47h-20l143 252q-58 40 -157 40q-76 0 -122 -44t-46 -115v-528h-160v61h84v476q0 96 68 154.5t179 58.5q68 0 135.5 -19.5
t110.5 -51.5z" />
    <glyph glyph-name="Ygrave" unicode="&#x1ef2;" horiz-adv-x="666" 
d="M374 798h-65l-138 144h87zM583 679l-212 -379v-239h104v-61h-284v61h105v239l-213 379h-80v61h243v-61h-81l168 -314l168 314h-81v61h243v-61h-80z" />
    <glyph glyph-name="ygrave" unicode="&#x1ef3;" horiz-adv-x="609" 
d="M352 610h-65l-138 170h87zM526 529v-522q0 -107 -67 -172t-176 -65q-107 0 -172 25v62q65 -25 161 -25q82 0 132.5 49t50.5 129v95q-54 -115 -190 -115q-166 0 -166 205v274h-84v60h156v-320q0 -157 121 -157q73 0 117.5 49.5t44.5 130.5v237h-99v60h171z" />
    <glyph glyph-name="endash" unicode="&#x2013;" horiz-adv-x="622" 
d="M67 257v60h488v-60h-488z" />
    <glyph glyph-name="emdash" unicode="&#x2014;" horiz-adv-x="949" 
d="M67 257v60h815v-60h-815z" />
    <glyph glyph-name="quoteleft" unicode="&#x2018;" horiz-adv-x="224" 
d="M176 721q-32 0 -52 -36.5t-20 -95.5h50v-94h-95v85q0 76 32 123t85 47v-29z" />
    <glyph glyph-name="quoteright" unicode="&#x2019;" horiz-adv-x="221" 
d="M77 740h95v-85q0 -76 -32 -123t-85 -47v29q32 0 52 36.5t20 95.5h-50v94z" />
    <glyph glyph-name="quotesinglbase" unicode="&#x201a;" horiz-adv-x="224" 
d="M69 94h95v-85q0 -76 -32 -123t-85 -47v29q32 0 52 36.5t20 95.5h-50v94z" />
    <glyph glyph-name="quotedblleft" unicode="&#x201c;" horiz-adv-x="373" 
d="M59 580q0 76 32 123t85 47v-29q-32 0 -52 -36.5t-20 -95.5h50v-94h-95v85zM325 721q-32 0 -52 -36.5t-20 -95.5h50v-94h-95v85q0 76 32 123t85 47v-29z" />
    <glyph glyph-name="quotedblright" unicode="&#x201d;" horiz-adv-x="370" 
d="M77 646v94h95v-85q0 -76 -32 -123t-85 -47v29q32 0 52 36.5t20 95.5h-50zM226 740h95v-85q0 -76 -32 -123t-85 -47v29q32 0 52 36.5t20 95.5h-50v94z" />
    <glyph glyph-name="quotedblbase" unicode="&#x201e;" horiz-adv-x="373" 
d="M69 0v94h95v-85q0 -76 -32 -123t-85 -47v29q32 0 52 36.5t20 95.5h-50zM218 94h95v-85q0 -76 -32 -123t-85 -47v29q32 0 52 36.5t20 95.5h-50v94z" />
    <glyph glyph-name="dagger" unicode="&#x2020;" horiz-adv-x="391" 
d="M335 623v-45l-120 3l3 -120l-4 -140h-37l-4 140l3 120l-120 -3v45l120 -3l-3 120h45l-3 -120z" />
    <glyph glyph-name="daggerdbl" unicode="&#x2021;" horiz-adv-x="391" 
d="M335 578l-121 3v-101l121 3v-44l-120 3l3 -121h-45l3 121l-120 -3v44l121 -3v101l-121 -3v45l120 -3l-3 120h45l-3 -120l120 3v-45z" />
    <glyph glyph-name="bullet" unicode="&#x2022;" horiz-adv-x="331" 
d="M90 404h151v-158h-151v158z" />
    <glyph glyph-name="ellipsis" unicode="&#x2026;" horiz-adv-x="583" 
d="M63 0v94h96v-94h-96zM243 0v94h96v-94h-96zM424 0v94h96v-94h-96z" />
    <glyph glyph-name="perthousand" unicode="&#x2030;" horiz-adv-x="1257" 
d="M275 -10l-52 25l395 735l52 -25zM222 344q-71 0 -114.5 55t-43.5 146t43.5 146t114.5 55t114 -55t43 -146t-43 -146t-114 -55zM222 393q43 0 70 41.5t27 110.5t-27 110.5t-70 41.5q-44 0 -71.5 -41.5t-27.5 -110.5t27.5 -110.5t71.5 -41.5zM673 -6q-71 0 -114.5 55
t-43.5 146t43.5 146t114.5 55t114 -55t43 -146t-43 -146t-114 -55zM1036 -6q-71 0 -114.5 55t-43.5 146t43.5 146t114.5 55t114 -55t43 -146t-43 -146t-114 -55zM673 43q43 0 70 41.5t27 110.5t-27 110.5t-70 41.5q-44 0 -71.5 -41.5t-27.5 -110.5t27.5 -110.5t71.5 -41.5z
M1036 43q43 0 70 41.5t27 110.5t-27 110.5t-70 41.5q-45 0 -72 -41.5t-27 -110.5t27 -110.5t72 -41.5z" />
    <glyph glyph-name="guilsinglleft" unicode="&#x2039;" horiz-adv-x="322" 
d="M277 494l-158 -224l158 -224h-79l-157 224l157 224h79z" />
    <glyph glyph-name="guilsinglright" unicode="&#x203a;" horiz-adv-x="322" 
d="M124 494l157 -224l-157 -224h-79l158 224l-158 224h79z" />
    <glyph glyph-name="fraction" unicode="&#x2044;" horiz-adv-x="180" 
d="M-81 -10l-52 25l395 735l52 -25z" />
    <glyph glyph-name="uni2070" unicode="&#x2070;" horiz-adv-x="357" 
d="M179 394q-71 0 -114.5 62.5t-43.5 165.5t43.5 165.5t114.5 62.5t114 -62.5t43 -165.5t-43 -165.5t-114 -62.5zM179 443q44 0 70.5 49t26.5 130t-26.5 130t-70.5 49t-71.5 -49t-27.5 -130t27.5 -130t71.5 -49z" />
    <glyph glyph-name="uni2074" unicode="&#x2074;" horiz-adv-x="357" 
d="M346 553v-47h-68v-106h-57v106h-209v47l156 291h61l-155 -291h148v129h56v-129h68z" />
    <glyph glyph-name="uni2075" unicode="&#x2075;" horiz-adv-x="357" 
d="M173 660q70 0 113 -36t43 -95q0 -61 -46 -98t-122 -37q-81 0 -130 23v47q47 -21 123 -21q53 0 84.5 23.5t31.5 62.5q0 38 -28.5 62t-75.5 24q-40 0 -92 -13l-32 13l16 229h244v-109h-52v62h-140l-10 -146q45 9 73 9z" />
    <glyph glyph-name="uni2076" unicode="&#x2076;" horiz-adv-x="357" 
d="M202 681q60 0 96.5 -38.5t36.5 -102.5q0 -66 -42.5 -106t-111.5 -40q-70 0 -111.5 45.5t-41.5 124.5q0 129 61 207.5t161 78.5q31 0 63 -9v-47q-29 9 -58 9q-61 0 -102.5 -42.5t-57.5 -120.5q39 41 107 41zM181 443q42 0 68 27t26 70q0 44 -26 71.5t-68 27.5t-68 -24.5
t-26 -64.5q0 -48 26 -77.5t68 -29.5z" />
    <glyph glyph-name="uni2077" unicode="&#x2077;" horiz-adv-x="357" 
d="M33 844h300v-41l-165 -403h-60l163 395h-186v-77h-52v126z" />
    <glyph glyph-name="uni2078" unicode="&#x2078;" horiz-adv-x="357" 
d="M248 634q41 -14 64.5 -43.5t23.5 -69.5q0 -57 -43.5 -92t-114.5 -35q-70 0 -113.5 35t-43.5 91q0 40 23 70t64 44q-71 29 -71 100q0 52 38.5 84t102.5 32t102.5 -31.5t38.5 -83.5q0 -72 -71 -101zM178 805q-37 0 -60 -20.5t-23 -54.5t22.5 -54.5t60.5 -20.5t60.5 20.5
t22.5 54.5t-23 54.5t-60 20.5zM178 439q45 0 72.5 23.5t27.5 62.5t-28 63t-72 24t-72 -24t-28 -63t27.5 -62.5t72.5 -23.5z" />
    <glyph glyph-name="uni2079" unicode="&#x2079;" horiz-adv-x="357" 
d="M176 850q69 0 110 -45t41 -122q0 -130 -60.5 -209.5t-158.5 -79.5q-31 0 -63 9v47q31 -9 59 -9q60 0 100.5 44.5t55.5 123.5q-37 -40 -105 -40q-58 0 -93.5 38t-35.5 100q0 64 41 103.5t109 39.5zM176 611q42 0 67 24t25 62q0 47 -25 75.5t-67 28.5q-41 0 -66 -25.5
t-25 -68.5t25 -69.5t66 -26.5z" />
    <glyph glyph-name="uni2080" unicode="&#x2080;" horiz-adv-x="357" 
d="M179 -106q-71 0 -114.5 62.5t-43.5 165.5t43.5 165.5t114.5 62.5t114 -62.5t43 -165.5t-43 -165.5t-114 -62.5zM179 -57q44 0 70.5 49t26.5 130t-26.5 130t-70.5 49t-71.5 -49t-27.5 -130t27.5 -130t71.5 -49z" />
    <glyph glyph-name="uni2081" unicode="&#x2081;" horiz-adv-x="357" 
d="M235 -53h97v-47h-295v47h141v348h-110v49h167v-397z" />
    <glyph glyph-name="uni2082" unicode="&#x2082;" horiz-adv-x="357" 
d="M105 -53h226v-47h-299v41l141 143q84 82 84 142q0 35 -22 55t-59 20q-39 0 -85 -11v-76h-53v106q67 30 143 30q60 0 97 -31.5t37 -84.5q0 -48 -28 -90.5t-78 -92.5z" />
    <glyph glyph-name="uni2083" unicode="&#x2083;" horiz-adv-x="357" 
d="M178 149q69 -1 110 -34.5t41 -88.5q0 -59 -46.5 -95.5t-123.5 -36.5q-75 0 -128 22v48q52 -21 123 -21q52 0 84 22.5t32 60.5q0 37 -31 59t-81 22h-30l-17 34l130 154h-154v-62h-52v111h282v-34z" />
    <glyph glyph-name="uni2084" unicode="&#x2084;" horiz-adv-x="357" 
d="M346 53v-47h-68v-106h-57v106h-209v47l156 291h61l-155 -291h148v129h56v-129h68z" />
    <glyph glyph-name="uni2085" unicode="&#x2085;" horiz-adv-x="357" 
d="M174 160q70 0 113 -36t43 -95q0 -61 -46 -98t-122 -37q-81 0 -130 23v47q47 -21 123 -21q53 0 84.5 23.5t31.5 62.5q0 38 -28.5 62t-75.5 24q-40 0 -92 -13l-32 13l16 229h244v-109h-52v62h-140l-10 -146q45 9 73 9z" />
    <glyph glyph-name="uni2086" unicode="&#x2086;" horiz-adv-x="357" 
d="M201 181q60 0 96.5 -38.5t36.5 -102.5q0 -66 -42.5 -106t-111.5 -40q-70 0 -111.5 45.5t-41.5 124.5q0 129 61 207.5t161 78.5q31 0 63 -9v-47q-29 9 -58 9q-61 0 -102.5 -42.5t-57.5 -120.5q39 41 107 41zM180 -57q42 0 68 27t26 70q0 44 -26 71.5t-68 27.5t-68 -24.5
t-26 -64.5q0 -48 26 -77.5t68 -29.5z" />
    <glyph glyph-name="uni2087" unicode="&#x2087;" horiz-adv-x="357" 
d="M34 344h300v-41l-165 -403h-60l163 395h-186v-77h-52v126z" />
    <glyph glyph-name="uni2088" unicode="&#x2088;" horiz-adv-x="357" 
d="M248 134q41 -14 64.5 -43.5t23.5 -69.5q0 -57 -43.5 -92t-114.5 -35q-70 0 -113.5 35t-43.5 91q0 40 23 70t64 44q-71 29 -71 100q0 52 38.5 84t102.5 32t102.5 -31.5t38.5 -83.5q0 -72 -71 -101zM178 305q-37 0 -60 -20.5t-23 -54.5t22.5 -54.5t60.5 -20.5t60.5 20.5
t22.5 54.5t-23 54.5t-60 20.5zM178 -61q45 0 72.5 23.5t27.5 62.5t-28 63t-72 24t-72 -24t-28 -63t27.5 -62.5t72.5 -23.5z" />
    <glyph glyph-name="uni2089" unicode="&#x2089;" horiz-adv-x="357" 
d="M176 350q69 0 110 -45t41 -122q0 -130 -60.5 -209.5t-158.5 -79.5q-31 0 -63 9v47q31 -9 59 -9q60 0 100.5 44.5t55.5 123.5q-37 -40 -105 -40q-58 0 -93.5 38t-35.5 100q0 64 41 103.5t109 39.5zM176 111q42 0 67 24t25 62q0 47 -25 75.5t-67 28.5q-41 0 -66 -25.5
t-25 -68.5t25 -69.5t66 -26.5z" />
    <glyph glyph-name="Euro" unicode="&#x20ac;" 
d="M380 53q49 0 101.5 15.5t88.5 41.5v-63q-36 -26 -91 -41.5t-111 -15.5q-106 0 -179.5 71t-98.5 194h-65v61h56q-2 36 -2 56q0 17 2 51h-56v61h64q25 123 99.5 194.5t180.5 71.5q115 0 192 -47v-64q-32 22 -81 35t-96 13q-79 0 -135.5 -54.5t-78.5 -148.5h255v-61h-265
q-2 -32 -2 -51q0 -29 3 -56h264v-61h-254q22 -94 77 -148t132 -54z" />
    <glyph glyph-name="trademark" unicode="&#x2122;" horiz-adv-x="714" 
d="M273 780v-77h-34v48h-62v-239h41v-28h-117v28h42v239h-62v-48h-34v77h226zM648 752h-33v-240h33v-28h-101v28h34l1 224l-102 -208h-17l-102 208l2 -224h32v-28h-101v28h34v240h-34v28h79l98 -204l98 204h79v-28z" />
    <glyph glyph-name="oneeighth" unicode="&#x215b;" horiz-adv-x="894" 
d="M619 750l52 -25l-395 -735l-52 25zM332 296h-295v47h141v348h-110v49h167v-397h97v-47zM785 234q41 -14 64.5 -43.5t23.5 -69.5q0 -57 -43.5 -92t-114.5 -35q-70 0 -113.5 35t-43.5 91q0 40 23 70t64 44q-71 29 -71 100q0 52 38.5 84t102.5 32t102.5 -31.5t38.5 -83.5
q0 -72 -71 -101zM715 405q-37 0 -60 -20.5t-23 -54.5t22.5 -54.5t60.5 -20.5t60.5 20.5t22.5 54.5t-23 54.5t-60 20.5zM715 39q45 0 72.5 23.5t27.5 62.5t-28 63t-72 24t-72 -24t-28 -63t27.5 -62.5t72.5 -23.5z" />
    <glyph glyph-name="threeeighths" unicode="&#x215c;" horiz-adv-x="894" 
d="M619 750l52 -25l-395 -735l-52 25zM329 422q0 -59 -46.5 -95.5t-123.5 -36.5q-75 0 -128 22v48q52 -21 123 -21q52 0 84 22.5t32 60.5q0 37 -31 59t-81 22h-30l-17 34l130 154h-154v-62h-52v111h282v-34l-139 -161q69 -1 110 -34.5t41 -88.5zM785 234q41 -14 64.5 -43.5
t23.5 -69.5q0 -57 -43.5 -92t-114.5 -35q-70 0 -113.5 35t-43.5 91q0 40 23 70t64 44q-71 29 -71 100q0 52 38.5 84t102.5 32t102.5 -31.5t38.5 -83.5q0 -72 -71 -101zM715 405q-37 0 -60 -20.5t-23 -54.5t22.5 -54.5t60.5 -20.5t60.5 20.5t22.5 54.5t-23 54.5t-60 20.5z
M715 39q45 0 72.5 23.5t27.5 62.5t-28 63t-72 24t-72 -24t-28 -63t27.5 -62.5t72.5 -23.5z" />
    <glyph glyph-name="fiveeighths" unicode="&#x215d;" horiz-adv-x="894" 
d="M619 750l52 -25l-395 -735l-52 25zM330 425q0 -61 -46 -98t-122 -37q-81 0 -130 23v47q47 -21 123 -21q53 0 84.5 23.5t31.5 62.5q0 38 -28.5 62t-75.5 24q-40 0 -92 -13l-32 13l16 229h244v-109h-52v62h-140l-10 -146q45 9 73 9q70 0 113 -36t43 -95zM785 234
q41 -14 64.5 -43.5t23.5 -69.5q0 -57 -43.5 -92t-114.5 -35q-70 0 -113.5 35t-43.5 91q0 40 23 70t64 44q-71 29 -71 100q0 52 38.5 84t102.5 32t102.5 -31.5t38.5 -83.5q0 -72 -71 -101zM715 405q-37 0 -60 -20.5t-23 -54.5t22.5 -54.5t60.5 -20.5t60.5 20.5t22.5 54.5
t-23 54.5t-60 20.5zM715 39q45 0 72.5 23.5t27.5 62.5t-28 63t-72 24t-72 -24t-28 -63t27.5 -62.5t72.5 -23.5z" />
    <glyph glyph-name="seveneighths" unicode="&#x215e;" horiz-adv-x="894" 
d="M619 750l52 -25l-395 -735l-52 25zM334 740v-41l-165 -403h-60l163 395h-186v-77h-52v126h300zM785 234q41 -14 64.5 -43.5t23.5 -69.5q0 -57 -43.5 -92t-114.5 -35q-70 0 -113.5 35t-43.5 91q0 40 23 70t64 44q-71 29 -71 100q0 52 38.5 84t102.5 32t102.5 -31.5
t38.5 -83.5q0 -72 -71 -101zM715 405q-37 0 -60 -20.5t-23 -54.5t22.5 -54.5t60.5 -20.5t60.5 20.5t22.5 54.5t-23 54.5t-60 20.5zM715 39q45 0 72.5 23.5t27.5 62.5t-28 63t-72 24t-72 -24t-28 -63t27.5 -62.5t72.5 -23.5z" />
    <glyph glyph-name="partialdiff" unicode="&#x2202;" horiz-adv-x="585" 
d="M248 750q130 0 210 -104t80 -274q0 -172 -82 -277t-216 -105q-95 0 -153.5 52.5t-58.5 137.5q0 107 117.5 174t311.5 72q-12 119 -70.5 190t-147.5 71q-38 0 -80.5 -18.5t-75.5 -49.5l-36 43q41 40 96 64t105 24zM238 53q98 0 158.5 84.5t62.5 224.5q-159 -2 -255 -52.5
t-96 -132.5q0 -56 36 -90t94 -34z" />
    <glyph glyph-name="emptyset" unicode="&#x2205;" 
d="M479 542q74 -74 74 -195q0 -119 -70 -191.5t-186 -72.5q-90 0 -156 47l-64 -79l-28 21l66 80q-73 73 -73 195q0 119 70 191.5t185 72.5q91 0 155 -47l64 78l28 -21zM119 347q0 -84 42 -138l247 301q-45 37 -111 37q-80 0 -129 -55t-49 -145zM297 146q81 0 129.5 55
t48.5 146q0 84 -43 138l-246 -301q46 -38 111 -38z" />
    <glyph glyph-name="product" unicode="&#x220f;" 
d="M536 780v-1000h-76v937h-326v-937h-76v1000h478z" />
    <glyph glyph-name="summation" unicode="&#x2211;" 
d="M465 -40h73v-180h-500v48l268 455l-261 449v48h484v-170h-73v107h-318l254 -434l-262 -440h335v117z" />
    <glyph glyph-name="minus" unicode="&#x2212;" 
d="M63 316v62h469v-62h-469z" />
    <glyph glyph-name="radical" unicode="&#x221a;" horiz-adv-x="715" 
d="M656 780h76l-395 -1000h-74l-188 469h-74v60h130l170 -446z" />
    <glyph glyph-name="infinity" unicode="&#x221e;" 
d="M422 497q66 0 106 -41.5t40 -109.5t-40 -109.5t-106 -41.5q-43 0 -75.5 20.5t-48.5 57.5q-35 -78 -124 -78q-66 0 -106.5 41.5t-40.5 109.5t40.5 109.5t106.5 41.5q89 0 124 -78q16 37 48.5 57.5t75.5 20.5zM182 246q40 0 64 27.5t24 72.5q0 46 -24 73.5t-64 27.5
q-41 0 -66 -27.5t-25 -73.5q0 -45 25 -72.5t66 -27.5zM414 246q40 0 65 27.5t25 72.5q0 46 -24.5 73.5t-65.5 27.5t-65.5 -27.5t-24.5 -73.5q0 -45 25 -72.5t65 -27.5z" />
    <glyph glyph-name="integral" unicode="&#x222b;" horiz-adv-x="365" 
d="M282 790q48 0 80 -15v-59q-27 12 -61 12q-37 0 -60 -25t-23 -65v-732q0 -62 -37 -99t-99 -37q-47 0 -79 15v59q27 -12 60 -12q37 0 60 24.5t23 65.5v732q0 61 37.5 98.5t98.5 37.5z" />
    <glyph glyph-name="approxequal" unicode="&#x2248;" 
d="M418 377q-33 0 -67.5 15.5t-59 34t-55 34t-55.5 15.5q-36 0 -58 -24.5t-22 -64.5h-43q0 69 34 111.5t89 42.5q42 0 85 -24.5t82 -49t71 -24.5q35 0 57 24t22 64h43q0 -70 -33.5 -112t-89.5 -42zM418 150q-33 0 -67.5 15.5t-59 34t-55 34t-55.5 15.5q-36 0 -58 -24.5
t-22 -64.5h-43q0 69 34 111.5t89 42.5q42 0 85 -24.5t82 -49t71 -24.5q35 0 57 24t22 64h43q0 -70 -33.5 -112t-89.5 -42z" />
    <glyph glyph-name="notequal" unicode="&#x2260;" 
d="M532 433h-162l-63 -172h225v-62h-247l-50 -136l-71 26l40 110h-141v62h163l63 172h-226v62h248l49 135l72 -26l-40 -109h140v-62z" />
    <glyph glyph-name="lessequal" unicode="&#x2264;" 
d="M522 599v-70l-357 -131l357 -132v-70l-452 179v45zM70 85v61h452v-61h-452z" />
    <glyph glyph-name="greaterequal" unicode="&#x2265;" 
d="M73 599l452 -179v-45l-452 -179v70l357 132l-357 131v70zM73 85v61h452v-61h-452z" />
    <glyph glyph-name="lozenge" unicode="&#x25ca;" horiz-adv-x="518" 
d="M291 629l186 -315l-186 -314h-64l-186 314l186 315h64zM259 65l142 249l-142 249l-141 -249z" />
    <glyph glyph-name="uniF8FF" unicode="&#xf8ff;" horiz-adv-x="1274" 
d="M1214 369l-368 -372q-7 -7 -17 -7q-20 0 -20 23v324l-339 -340q-7 -7 -17 -7q-20 0 -20 23v324l-340 -340q-7 -7 -17 -7q-17 0 -17 18q0 10 5 15l342 341h-324q-23 0 -23 19q0 8 7 16l340 342h-327q-20 0 -20 19v1q0 19 20 19h370q23 0 23 -20q0 -9 -8 -17l-341 -340h330
q8 0 14 -6t6 -14v-327l339 338q9 8 17 8q18 0 18 -22v-324l340 338q8 8 16 8q7 0 12 -5.5t5 -13.5q0 -7 -6 -14z" />
    <glyph glyph-name="Jacute" horiz-adv-x="453" 
d="M447 942l-137 -144h-65l115 144h87zM418 740v-61h-85v-506q0 -83 -52.5 -133t-138.5 -50q-70 0 -120 22v62q45 -21 111 -21q56 0 90.5 36t34.5 94v496h-101v61h261z" />
    <glyph glyph-name="a.ss01" horiz-adv-x="639" 
d="M610 466h-83v-404h83v-62h-145l-9 112q-54 -122 -191 -122q-98 0 -158.5 75t-60.5 198q0 124 60.5 200t158.5 76q137 0 191 -123l9 113h145v-63zM287 52q76 0 121.5 58.5t45.5 153.5t-45.5 153.5t-121.5 58.5q-74 0 -119.5 -58.5t-45.5 -154.5q0 -95 45.5 -153t119.5 -58
z" />
    <glyph glyph-name="aacute.ss01" horiz-adv-x="639" 
d="M455 780l-137 -170h-65l115 170h87zM610 466h-83v-404h83v-62h-145l-9 112q-54 -122 -191 -122q-98 0 -158.5 75t-60.5 198q0 124 60.5 200t158.5 76q137 0 191 -123l9 113h145v-63zM287 52q76 0 121.5 58.5t45.5 153.5t-45.5 153.5t-121.5 58.5q-74 0 -119.5 -58.5
t-45.5 -154.5q0 -95 45.5 -153t119.5 -58z" />
    <glyph glyph-name="abreve.ss01" horiz-adv-x="639" 
d="M292 603q-66 0 -106.5 49t-40.5 128h58q0 -59 24.5 -95t64.5 -36t65 36t25 95h57q0 -79 -40.5 -128t-106.5 -49zM610 466h-83v-404h83v-62h-145l-9 112q-54 -122 -191 -122q-98 0 -158.5 75t-60.5 198q0 124 60.5 200t158.5 76q137 0 191 -123l9 113h145v-63zM287 52
q76 0 121.5 58.5t45.5 153.5t-45.5 153.5t-121.5 58.5q-74 0 -119.5 -58.5t-45.5 -154.5q0 -95 45.5 -153t119.5 -58z" />
    <glyph glyph-name="acircumflex.ss01" horiz-adv-x="639" 
d="M292 740l-87 -130h-65l116 170h71l115 -170h-64zM610 466h-83v-404h83v-62h-145l-9 112q-54 -122 -191 -122q-98 0 -158.5 75t-60.5 198q0 124 60.5 200t158.5 76q137 0 191 -123l9 113h145v-63zM287 52q76 0 121.5 58.5t45.5 153.5t-45.5 153.5t-121.5 58.5
q-74 0 -119.5 -58.5t-45.5 -154.5q0 -95 45.5 -153t119.5 -58z" />
    <glyph glyph-name="adieresis.ss01" horiz-adv-x="639" 
d="M240 780v-140h-72v140h72zM416 780v-140h-72v140h72zM610 466h-83v-404h83v-62h-145l-9 112q-54 -122 -191 -122q-98 0 -158.5 75t-60.5 198q0 124 60.5 200t158.5 76q137 0 191 -123l9 113h145v-63zM287 52q76 0 121.5 58.5t45.5 153.5t-45.5 153.5t-121.5 58.5
q-74 0 -119.5 -58.5t-45.5 -154.5q0 -95 45.5 -153t119.5 -58z" />
    <glyph glyph-name="agrave.ss01" horiz-adv-x="639" 
d="M332 610h-65l-138 170h87zM610 466h-83v-404h83v-62h-145l-9 112q-54 -122 -191 -122q-98 0 -158.5 75t-60.5 198q0 124 60.5 200t158.5 76q137 0 191 -123l9 113h145v-63zM287 52q76 0 121.5 58.5t45.5 153.5t-45.5 153.5t-121.5 58.5q-74 0 -119.5 -58.5t-45.5 -154.5
q0 -95 45.5 -153t119.5 -58z" />
    <glyph glyph-name="amacron.ss01" horiz-adv-x="639" 
d="M434 708v-59h-284v59h284zM610 466h-83v-404h83v-62h-145l-9 112q-54 -122 -191 -122q-98 0 -158.5 75t-60.5 198q0 124 60.5 200t158.5 76q137 0 191 -123l9 113h145v-63zM287 52q76 0 121.5 58.5t45.5 153.5t-45.5 153.5t-121.5 58.5q-74 0 -119.5 -58.5t-45.5 -154.5
q0 -95 45.5 -153t119.5 -58z" />
    <glyph glyph-name="aogonek.ss01" horiz-adv-x="639" 
d="M610 466h-83v-404h83v-62h-49q-34 -2 -67.5 -40t-33.5 -82q0 -26 18 -41.5t48 -15.5q41 0 73 15v-49q-43 -17 -98 -17q-47 0 -75.5 24.5t-28.5 63.5q0 38 27.5 77.5t71.5 64.5h-31l-9 112q-54 -122 -191 -122q-98 0 -158.5 75t-60.5 198q0 124 60.5 200t158.5 76
q137 0 191 -123l9 113h145v-63zM287 52q76 0 121.5 58.5t45.5 153.5t-45.5 153.5t-121.5 58.5q-74 0 -119.5 -58.5t-45.5 -154.5q0 -95 45.5 -153t119.5 -58z" />
    <glyph glyph-name="aring.ss01" horiz-adv-x="639" 
d="M292 602q-45 0 -72.5 26t-27.5 68q0 43 27.5 68.5t72.5 25.5t73 -25.5t28 -68.5q0 -42 -28 -68t-73 -26zM292 749q-23 0 -38 -14.5t-15 -38.5q0 -23 15 -38t38 -15q24 0 38.5 15t14.5 38q0 24 -14.5 38.5t-38.5 14.5zM610 466h-83v-404h83v-62h-145l-9 112
q-54 -122 -191 -122q-98 0 -158.5 75t-60.5 198q0 124 60.5 200t158.5 76q137 0 191 -123l9 113h145v-63zM287 52q76 0 121.5 58.5t45.5 153.5t-45.5 153.5t-121.5 58.5q-74 0 -119.5 -58.5t-45.5 -154.5q0 -95 45.5 -153t119.5 -58z" />
    <glyph glyph-name="atilde.ss01" horiz-adv-x="639" 
d="M219 702q-21 0 -34 -17t-13 -45h-44q0 53 25.5 85t65.5 32q32 0 77.5 -35.5t66.5 -35.5t34.5 16.5t13.5 44.5h43q0 -54 -25.5 -85.5t-65.5 -31.5q-32 0 -77.5 36t-66.5 36zM610 466h-83v-404h83v-62h-145l-9 112q-54 -122 -191 -122q-98 0 -158.5 75t-60.5 198
q0 124 60.5 200t158.5 76q137 0 191 -123l9 113h145v-63zM287 52q76 0 121.5 58.5t45.5 153.5t-45.5 153.5t-121.5 58.5q-74 0 -119.5 -58.5t-45.5 -154.5q0 -95 45.5 -153t119.5 -58z" />
    <glyph glyph-name="g.ss01" horiz-adv-x="633" 
d="M610 529v-60h-84v-441q0 -116 -71 -187t-188 -71q-114 0 -184 30v63q76 -31 173 -31q89 0 143.5 55t54.5 145v77q-54 -119 -189 -119q-98 0 -158.5 75t-60.5 198q0 124 60.5 200t158.5 76q136 0 190 -122l8 112h147zM287 52q76 0 121.5 58.5t45.5 153.5t-45.5 153.5
t-121.5 58.5q-74 0 -119.5 -58.5t-45.5 -154.5q0 -95 45.5 -153t119.5 -58z" />
    <glyph glyph-name="gbreve.ss01" horiz-adv-x="633" 
d="M294 603q-66 0 -106.5 49t-40.5 128h58q0 -59 24.5 -95t64.5 -36t65 36t25 95h57q0 -79 -40.5 -128t-106.5 -49zM610 529v-60h-84v-441q0 -116 -71 -187t-188 -71q-114 0 -184 30v63q76 -31 173 -31q89 0 143.5 55t54.5 145v77q-54 -119 -189 -119q-98 0 -158.5 75
t-60.5 198q0 124 60.5 200t158.5 76q136 0 190 -122l8 112h147zM287 52q76 0 121.5 58.5t45.5 153.5t-45.5 153.5t-121.5 58.5q-74 0 -119.5 -58.5t-45.5 -154.5q0 -95 45.5 -153t119.5 -58z" />
    <glyph glyph-name="gcommaaccent.ss01" horiz-adv-x="633" 
d="M374 762q-25 0 -40 -42t-15 -110h-69q0 81 34 130.5t90 49.5v-28zM610 529v-60h-84v-441q0 -116 -71 -187t-188 -71q-114 0 -184 30v63q76 -31 173 -31q89 0 143.5 55t54.5 145v77q-54 -119 -189 -119q-98 0 -158.5 75t-60.5 198q0 124 60.5 200t158.5 76q136 0 190 -122
l8 112h147zM287 52q76 0 121.5 58.5t45.5 153.5t-45.5 153.5t-121.5 58.5q-74 0 -119.5 -58.5t-45.5 -154.5q0 -95 45.5 -153t119.5 -58z" />
    <glyph glyph-name="gdotaccent.ss01" horiz-adv-x="633" 
d="M332 780v-140h-75v140h75zM610 529v-60h-84v-441q0 -116 -71 -187t-188 -71q-114 0 -184 30v63q76 -31 173 -31q89 0 143.5 55t54.5 145v77q-54 -119 -189 -119q-98 0 -158.5 75t-60.5 198q0 124 60.5 200t158.5 76q136 0 190 -122l8 112h147zM287 52q76 0 121.5 58.5
t45.5 153.5t-45.5 153.5t-121.5 58.5q-74 0 -119.5 -58.5t-45.5 -154.5q0 -95 45.5 -153t119.5 -58z" />
    <glyph glyph-name="i.loclTRK" horiz-adv-x="300" 
d="M191 780v-140h-74v140h74zM191 60h84v-60h-239v60h83v409h-83v60h155v-469z" />
    <glyph glyph-name="jacute" horiz-adv-x="268" 
d="M312 780l-137 -170h-65l115 170h87zM29 529h156v-623q0 -61 -37.5 -98.5t-98.5 -37.5q-48 0 -80 15v59q27 -12 60 -12q38 0 61 25t23 65v547h-84v60z" />
    <glyph glyph-name="zero.osf" 
d="M298 -10q-116 0 -187.5 89.5t-71.5 234.5q0 146 71.5 235.5t187.5 89.5t187 -89.5t71 -235.5q0 -145 -71 -234.5t-187 -89.5zM298 52q82 0 132.5 72t50.5 190t-50.5 190t-132.5 72q-83 0 -133.5 -72t-50.5 -190t50.5 -190t133.5 -72z" />
    <glyph glyph-name="one.osf" 
d="M378 60h189v-60h-517v60h256v509h-193v60h265v-569z" />
    <glyph glyph-name="two.osf" 
d="M147 60h406v-60h-509v54l265 208q31 25 49.5 41t44 43.5t38 56.5t12.5 58q0 52 -43.5 83.5t-115.5 31.5q-74 0 -154 -25v-112h-70v144q107 56 228 56q103 0 165.5 -46.5t62.5 -122.5q0 -50 -29.5 -100.5t-62 -80.5t-82.5 -69z" />
    <glyph glyph-name="three.osf" 
d="M297 319q111 0 179 -57.5t68 -150.5q0 -100 -73 -160.5t-195 -60.5q-142 0 -218 46v60q78 -44 207 -44q93 0 148.5 43t55.5 114t-55 114.5t-142 43.5h-59l-16 38l227 265h-286v-95h-69v154h445v-50l-229 -260h12z" />
    <glyph glyph-name="four.osf" 
d="M579 88v-60h-125v-128h-72v128h-358v65l287 536h77l-289 -541h284v237h71v-237h125z" />
    <glyph glyph-name="five.osf" 
d="M289 323q116 0 187 -58.5t71 -154.5q0 -99 -77 -159.5t-201 -60.5q-131 0 -214 38v60q82 -36 205 -36q95 0 153 43.5t58 114.5t-53 114t-139 43q-71 0 -159 -24l-45 11l25 375h401v-174h-69v114h-267l-18 -263q82 17 142 17z" />
    <glyph glyph-name="six.osf" 
d="M333 468q100 0 161.5 -65t61.5 -171q0 -109 -70 -175.5t-184 -66.5q-116 0 -185 75t-69 205q0 216 101 348t266 132q56 0 103 -15v-61q-46 16 -96 16q-113 0 -189.5 -84.5t-100.5 -232.5q64 95 201 95zM302 52q80 0 129.5 49.5t49.5 130.5q0 82 -49.5 132t-129.5 50
t-129.5 -45.5t-49.5 -119.5q0 -88 49.5 -142.5t129.5 -54.5z" />
    <glyph glyph-name="seven.osf" 
d="M56 629h496v-53l-274 -676h-76l272 669h-349v-137h-69v197z" />
    <glyph glyph-name="eight.osf" 
d="M408 391q71 -22 111 -71.5t40 -118.5q0 -95 -71.5 -153t-189.5 -58t-190 57.5t-72 151.5q0 69 40.5 119t111.5 73q-59 22 -92 65.5t-33 101.5q0 87 64.5 139.5t170.5 52.5q105 0 169.5 -52.5t64.5 -137.5q0 -59 -33 -103t-91 -66zM139 552q0 -62 43.5 -99t115.5 -37
q71 0 115 37.5t44 98.5q0 62 -44 100t-115 38q-72 0 -115.5 -38t-43.5 -100zM298 50q84 0 135 43t51 114t-51 114t-135 43t-135 -43t-51 -114t51 -114t135 -43z" />
    <glyph glyph-name="nine.osf" 
d="M294 639q114 0 181.5 -71.5t67.5 -196.5q0 -217 -99.5 -349t-262.5 -132q-55 0 -103 15v60q43 -15 96 -15q112 0 187 84.5t98 234.5q-62 -89 -196 -89q-98 0 -158 62t-60 163q0 105 68.5 169.5t180.5 64.5zM294 234q78 0 126 43.5t48 113.5q0 83 -48 134.5t-126 51.5
t-126 -47.5t-48 -124.5t48 -124t126 -47z" />
    <glyph glyph-name="zero.tf" 
d="M298 -10q-117 0 -189 104.5t-72 275.5t72 275.5t189 104.5t188.5 -104.5t71.5 -275.5t-71.5 -275.5t-188.5 -104.5zM298 53q81 0 131 87.5t50 229.5t-50 229.5t-131 87.5q-82 0 -132 -87.5t-50 -229.5t50 -229.5t132 -87.5z" />
    <glyph glyph-name="one.tf" 
d="M379 61h169v-61h-489v61h244v616h-187v63h263v-679z" />
    <glyph glyph-name="two.tf" 
d="M153 61h396v-61h-495v54l239 241q30 30 40.5 41t37.5 43.5t39 54t23.5 53.5t11.5 62q0 64 -40.5 101t-107.5 37q-72 0 -160 -24v-128h-73v166q108 49 237 49q100 0 160.5 -52.5t60.5 -140.5q0 -43 -14 -84t-44.5 -83t-55 -69.5t-67.5 -71.5z" />
    <glyph glyph-name="three.tf" 
d="M290 413q116 0 187.5 -56t71.5 -148q0 -99 -77.5 -159t-203.5 -60q-128 0 -213 37v62q90 -36 205 -36q94 0 151.5 42.5t57.5 113.5q0 68 -56 109t-147 41h-51l-22 47l235 271h-294v-113h-73v176h467v-51l-245 -276h7z" />
    <glyph glyph-name="four.tf" 
d="M576 242v-61h-122v-181h-76v181h-357v66l262 493h81l-263 -498h278v228h75v-228h122z" />
    <glyph glyph-name="five.tf" 
d="M289 430q117 0 188.5 -59.5t71.5 -156.5q0 -101 -77 -162.5t-202 -61.5q-134 0 -217 38v62q84 -37 207 -37q94 0 151.5 44t57.5 117q0 71 -52 115t-138 44q-75 0 -158 -23l-48 11l25 379h405v-173h-73v111h-263l-18 -265q74 17 140 17z" />
    <glyph glyph-name="six.tf" 
d="M333 468q100 0 161.5 -65t61.5 -171q0 -109 -70 -175.5t-184 -66.5q-116 0 -185 75t-69 205q0 216 101 348t266 132q55 0 103 -15v-61q-43 15 -95 15q-113 0 -188.5 -83t-98.5 -232q62 94 197 94zM302 53q79 0 127 49.5t48 129.5q0 81 -48 130.5t-127 49.5t-127 -45
t-48 -118q0 -88 48 -142t127 -54z" />
    <glyph glyph-name="seven.tf" 
d="M56 740h498v-53l-279 -687h-81l275 677h-340v-133h-73v196z" />
    <glyph glyph-name="eight.tf" 
d="M409 392q70 -23 110 -73t40 -118q0 -95 -71.5 -153t-189.5 -58t-190 57.5t-72 151.5q0 68 40 119t110 74q-58 21 -90.5 64.5t-32.5 101.5q0 87 64.5 139.5t170.5 52.5q105 0 169.5 -52.5t64.5 -137.5q0 -58 -32.5 -102t-90.5 -66zM142 552q0 -60 43 -96.5t113 -36.5
t112.5 36.5t42.5 96.5q0 61 -42.5 98t-112.5 37t-113 -37t-43 -98zM298 53q82 0 132 42t50 112q0 69 -50 111.5t-132 42.5t-132.5 -42.5t-50.5 -111.5q0 -70 50 -112t133 -42z" />
    <glyph glyph-name="nine.tf" 
d="M294 750q113 0 181 -74t68 -201q0 -218 -99.5 -351.5t-262.5 -133.5q-55 0 -103 15v61q43 -15 96 -15q110 0 184.5 85.5t96.5 235.5q-61 -90 -192 -90q-98 0 -158 63.5t-60 167.5q0 106 68.5 171.5t180.5 65.5zM294 338q77 0 123.5 43.5t46.5 114.5q0 86 -47 138.5
t-123 52.5t-123 -48t-47 -126q0 -79 47 -127t123 -48z" />
    <glyph glyph-name="zero.dnom" horiz-adv-x="357" 
d="M179 -6q-71 0 -114.5 62.5t-43.5 165.5t43.5 165.5t114.5 62.5t114 -62.5t43 -165.5t-43 -165.5t-114 -62.5zM179 43q44 0 70.5 49t26.5 130t-26.5 130t-70.5 49t-71.5 -49t-27.5 -130t27.5 -130t71.5 -49z" />
    <glyph glyph-name="one.dnom" horiz-adv-x="357" 
d="M235 47h97v-47h-295v47h141v348h-110v49h167v-397z" />
    <glyph glyph-name="two.dnom" horiz-adv-x="357" 
d="M105 47h226v-47h-299v41l141 143q84 82 84 142q0 35 -22 55t-59 20q-39 0 -85 -11v-76h-53v106q67 30 143 30q60 0 97 -31.5t37 -84.5q0 -48 -28 -90.5t-78 -92.5z" />
    <glyph glyph-name="three.dnom" horiz-adv-x="357" 
d="M178 249q69 -1 110 -34.5t41 -88.5q0 -59 -46.5 -95.5t-123.5 -36.5q-75 0 -128 22v48q53 -21 123 -21q52 0 84 22.5t32 60.5q0 37 -31 59t-81 22h-30l-17 34l130 154h-154v-62h-52v111h282v-34z" />
    <glyph glyph-name="four.dnom" horiz-adv-x="357" 
d="M346 153v-47h-68v-106h-57v106h-209v47l156 291h61l-155 -291h148v129h56v-129h68z" />
    <glyph glyph-name="five.dnom" horiz-adv-x="357" 
d="M174 260q70 0 113 -36t43 -95q0 -61 -46 -98t-122 -37q-81 0 -130 23v47q47 -21 123 -21q53 0 84.5 23.5t31.5 62.5q0 38 -28.5 62t-75.5 24q-40 0 -92 -13l-32 13l16 229h244v-109h-52v62h-140l-10 -146q45 9 73 9z" />
    <glyph glyph-name="six.dnom" horiz-adv-x="357" 
d="M201 281q60 0 96.5 -38.5t36.5 -102.5q0 -66 -42.5 -106t-111.5 -40q-70 0 -111.5 45.5t-41.5 124.5q0 129 61 207.5t161 78.5q31 0 63 -9v-47q-29 9 -58 9q-61 0 -102.5 -42.5t-57.5 -120.5q39 41 107 41zM180 43q42 0 68 27t26 70q0 44 -26 71.5t-68 27.5t-68 -24.5
t-26 -64.5q0 -48 26 -77.5t68 -29.5z" />
    <glyph glyph-name="seven.dnom" horiz-adv-x="357" 
d="M34 444h300v-41l-165 -403h-60l163 395h-186v-77h-52v126z" />
    <glyph glyph-name="eight.dnom" horiz-adv-x="357" 
d="M248 234q41 -14 64.5 -43.5t23.5 -69.5q0 -57 -43.5 -92t-114.5 -35q-70 0 -113.5 35t-43.5 91q0 40 23 70t64 44q-71 29 -71 100q0 52 38.5 84t102.5 32t102.5 -31.5t38.5 -83.5q0 -72 -71 -101zM178 405q-37 0 -60 -20.5t-23 -54.5t22.5 -54.5t60.5 -20.5t60.5 20.5
t22.5 54.5t-23 54.5t-60 20.5zM178 39q45 0 72.5 23.5t27.5 62.5t-28 63t-72 24t-72 -24t-28 -63t27.5 -62.5t72.5 -23.5z" />
    <glyph glyph-name="nine.dnom" horiz-adv-x="357" 
d="M176 450q69 0 110 -45t41 -122q0 -130 -60.5 -209.5t-158.5 -79.5q-31 0 -63 9v47q31 -9 59 -9q60 0 100.5 44.5t55.5 123.5q-37 -40 -105 -40q-58 0 -93.5 38t-35.5 100q0 64 41 103.5t109 39.5zM176 211q42 0 67 24t25 62q0 47 -25 75.5t-67 28.5q-41 0 -66 -25.5
t-25 -68.5t25 -69.5t66 -26.5z" />
    <glyph glyph-name="zero.numr" horiz-adv-x="357" 
d="M179 290q-71 0 -114.5 62.5t-43.5 165.5t43.5 165.5t114.5 62.5t114 -62.5t43 -165.5t-43 -165.5t-114 -62.5zM179 339q44 0 70.5 49t26.5 130t-26.5 130t-70.5 49t-71.5 -49t-27.5 -130t27.5 -130t71.5 -49z" />
    <glyph glyph-name="one.numr" horiz-adv-x="357" 
d="M235 343h97v-47h-295v47h141v348h-110v49h167v-397z" />
    <glyph glyph-name="two.numr" horiz-adv-x="357" 
d="M105 343h226v-47h-299v41l141 143q84 82 84 142q0 35 -22 55t-59 20q-39 0 -85 -11v-76h-53v106q67 30 143 30q60 0 97 -31.5t37 -84.5q0 -48 -28 -90.5t-78 -92.5z" />
    <glyph glyph-name="three.numr" horiz-adv-x="357" 
d="M178 545q69 -1 110 -34.5t41 -88.5q0 -59 -46.5 -95.5t-123.5 -36.5q-75 0 -128 22v48q52 -21 123 -21q52 0 84 22.5t32 60.5q0 37 -31 59t-81 22h-30l-17 34l130 154h-154v-62h-52v111h282v-34z" />
    <glyph glyph-name="four.numr" horiz-adv-x="357" 
d="M346 449v-47h-68v-106h-57v106h-209v47l156 291h61l-155 -291h148v129h56v-129h68z" />
    <glyph glyph-name="five.numr" horiz-adv-x="357" 
d="M174 556q70 0 113 -36t43 -95q0 -61 -46 -98t-122 -37q-81 0 -130 23v47q47 -21 123 -21q53 0 84.5 23.5t31.5 62.5q0 38 -28.5 62t-75.5 24q-40 0 -92 -13l-32 13l16 229h244v-109h-52v62h-140l-10 -146q45 9 73 9z" />
    <glyph glyph-name="six.numr" horiz-adv-x="357" 
d="M201 577q60 0 96.5 -38.5t36.5 -102.5q0 -66 -42.5 -106t-111.5 -40q-70 0 -111.5 45.5t-41.5 124.5q0 129 61 207.5t161 78.5q31 0 63 -9v-47q-29 9 -58 9q-61 0 -102.5 -42.5t-57.5 -120.5q39 41 107 41zM180 339q42 0 68 27t26 70q0 44 -26 71.5t-68 27.5t-68 -24.5
t-26 -64.5q0 -48 26 -77.5t68 -29.5z" />
    <glyph glyph-name="seven.numr" horiz-adv-x="357" 
d="M34 740h300v-41l-165 -403h-60l163 395h-186v-77h-52v126z" />
    <glyph glyph-name="eight.numr" horiz-adv-x="357" 
d="M248 530q41 -14 64.5 -43.5t23.5 -69.5q0 -57 -43.5 -92t-114.5 -35q-70 0 -113.5 35t-43.5 91q0 40 23 70t64 44q-71 29 -71 100q0 52 38.5 84t102.5 32t102.5 -31.5t38.5 -83.5q0 -72 -71 -101zM178 701q-37 0 -60 -20.5t-23 -54.5t22.5 -54.5t60.5 -20.5t60.5 20.5
t22.5 54.5t-23 54.5t-60 20.5zM178 335q45 0 72.5 23.5t27.5 62.5t-28 63t-72 24t-72 -24t-28 -63t27.5 -62.5t72.5 -23.5z" />
    <glyph glyph-name="nine.numr" horiz-adv-x="357" 
d="M176 746q69 0 110 -45t41 -122q0 -130 -60.5 -209.5t-158.5 -79.5q-31 0 -63 9v47q31 -9 59 -9q60 0 100.5 44.5t55.5 123.5q-37 -40 -105 -40q-58 0 -93.5 38t-35.5 100q0 64 41 103.5t109 39.5zM176 507q42 0 67 24t25 62q0 47 -25 75.5t-67 28.5q-41 0 -66 -25.5
t-25 -68.5t25 -69.5t66 -26.5z" />
    <glyph glyph-name="backslash.case" horiz-adv-x="361" 
d="M245 -40l-201 820h73l201 -820h-73z" />
    <glyph glyph-name="exclamdown.case" horiz-adv-x="279" 
d="M96 740h87v-88h-87v88zM108 570h63l7 -570h-77z" />
    <glyph glyph-name="questiondown.case" horiz-adv-x="526" 
d="M340 740v-88h-87v88h87zM414 205h73v-166q-98 -49 -220 -49q-100 0 -160.5 52.5t-60.5 140.5q0 73 33.5 123t101.5 105q38 30 61.5 74t23.5 85h62q0 -50 -23.5 -100t-63.5 -83q-37 -31 -58.5 -53.5t-40.5 -61t-19 -81.5q0 -64 41 -101t108 -37q65 0 142 22v130z" />
    <glyph glyph-name="slash.case" horiz-adv-x="361" 
d="M116 -40h-73l201 820h73z" />
    <glyph glyph-name="braceleft.case" horiz-adv-x="367" 
d="M251 -50q-61 0 -98 35.5t-37 94.5v168q0 41 -20.5 66t-53.5 25h-7v62h7q33 0 53.5 25t20.5 66v168q0 58 37 94t98 36q41 0 84 -12v-61q-30 10 -62 10q-37 0 -59.5 -22t-22.5 -58v-167q0 -41 -19.5 -71.5t-51.5 -38.5q32 -8 51.5 -38t19.5 -72v-167q0 -36 22.5 -58
t59.5 -22q32 0 62 10v-61q-43 -12 -84 -12z" />
    <glyph glyph-name="braceright.case" horiz-adv-x="367" 
d="M117 -50q-43 0 -84 12v61q30 -10 61 -10q37 0 60 22t23 58v167q0 42 19 72t51 38q-32 8 -51 38.5t-19 71.5v167q0 36 -23 58t-60 22q-31 0 -61 -10v61q41 12 84 12q61 0 98 -36t37 -94v-168q0 -41 20 -66t53 -25h8v-62h-8q-33 0 -53 -25t-20 -66v-168q0 -59 -37 -94.5
t-98 -35.5z" />
    <glyph glyph-name="bracketleft.case" horiz-adv-x="351" 
d="M104 -40v820h216v-61h-140v-698h140v-61h-216z" />
    <glyph glyph-name="bracketright.case" horiz-adv-x="351" 
d="M248 -40h-216v61h140v698h-140v61h216v-820z" />
    <glyph glyph-name="parenleft.case" horiz-adv-x="288" 
d="M186 -40q-133 196 -133 410t133 410h66q-45 -69 -84 -181.5t-39 -228.5t39 -228.5t84 -181.5h-66z" />
    <glyph glyph-name="parenright.case" horiz-adv-x="288" 
d="M36 -40q45 70 84.5 182.5t39.5 227.5t-39.5 227.5t-84.5 182.5h66q133 -196 133 -410t-133 -410h-66z" />
    <glyph glyph-name="emdash.case" horiz-adv-x="956" 
d="M71 344v62h815v-62h-815z" />
    <glyph glyph-name="endash.case" horiz-adv-x="630" 
d="M71 344v62h488v-62h-488z" />
    <glyph glyph-name="hyphen.case" horiz-adv-x="441" 
d="M71 344v62h299v-62h-299z" />
    <glyph glyph-name="uni00AD.case" horiz-adv-x="441" 
d="M71 344v62h299v-62h-299z" />
    <glyph glyph-name="guillemotleft.case" horiz-adv-x="557" 
d="M284 594l-158 -224l158 -224h-79l-157 224l157 224h79zM495 594l-158 -224l158 -224h-79l-157 224l157 224h79z" />
    <glyph glyph-name="guillemotright.case" horiz-adv-x="557" 
d="M141 594l157 -224l-157 -224h-79l158 224l-158 224h79zM352 594l157 -224l-157 -224h-79l158 224l-158 224h79z" />
    <glyph glyph-name="guilsinglleft.case" horiz-adv-x="346" 
d="M284 594l-158 -224l158 -224h-79l-157 224l157 224h79z" />
    <glyph glyph-name="guilsinglright.case" horiz-adv-x="346" 
d="M141 594l157 -224l-157 -224h-79l158 224l-158 224h79z" />
    <glyph glyph-name="dollar.osf" 
d="M554 168q0 -73 -61 -121t-163 -56v-68h-67v67q-139 5 -207 30v149h67v-107q75 -14 140 -15v250l-35 9q-82 21 -130 57.5t-48 101.5q0 71 58 117.5t155 54.5v70h67v-69q104 -3 189 -32v-147h-67v108q-55 12 -122 15v-238l42 -11q84 -22 133 -59.5t49 -105.5zM253 364
l10 -3v219q-65 -8 -104 -37t-39 -72t34.5 -66.5t98.5 -40.5zM330 50q71 8 113 38t42 75q0 79 -140 114l-15 4v-231z" />
    <glyph glyph-name="Euro.osf" 
d="M375 50q109 0 192 49v-60q-36 -22 -92.5 -35.5t-111.5 -13.5q-104 0 -176 58.5t-98 161.5h-67v59h56q-2 32 -2 48q0 15 2 43h-56v59h66q26 102 99.5 161t178.5 59q114 0 192 -40v-61q-75 40 -178 40q-77 0 -133.5 -42.5t-80.5 -116.5h255v-59h-267q-3 -21 -3 -44
q0 -24 3 -47h267v-59h-255q23 -75 78.5 -117.5t130.5 -42.5z" />
    <glyph glyph-name="sterling.osf" 
d="M125 58h414v-58h-488v48q43 43 70 99.5t31 108.5h-98v58h91q-2 5 -33 63t-31 97q0 74 59.5 119.5t157.5 45.5q134 0 237 -43v-142h-69v104q-83 20 -164 20q-66 0 -106.5 -31t-40.5 -81q0 -30 28.5 -80.5t34.5 -71.5h244v-58h-240q-11 -112 -97 -198z" />
    <glyph glyph-name="yen.osf" 
d="M585 570h-79l-145 -266h126v-55h-154v-68h154v-55h-154v-68h104v-58h-280v58h104v68h-154v55h154v68h-154v55h126l-145 266h-79v59h239v-59h-83l132 -255l132 255h-84v59h240v-59z" />
    <glyph glyph-name="percent.osf" horiz-adv-x="894" 
d="M219 237q-71 0 -114.5 55t-43.5 146t43.5 146t114.5 55t114 -55t43 -146t-43 -146t-114 -55zM275 -10l-46 29l390 620l46 -29zM219 286q44 0 70.5 41.5t26.5 110.5t-26.5 110.5t-70.5 41.5t-71.5 -41.5t-27.5 -110.5t27.5 -110.5t71.5 -41.5zM676 -6q-71 0 -114.5 55
t-43.5 146t43.5 146t114.5 55t114 -55t43 -146t-43 -146t-114 -55zM676 43q43 0 70 41.5t27 110.5t-27 110.5t-70 41.5q-45 0 -72 -41.5t-27 -110.5t27 -110.5t72 -41.5z" />
    <glyph glyph-name="perthousand.osf" horiz-adv-x="1254" 
d="M219 237q-71 0 -114.5 55t-43.5 146t43.5 146t114.5 55t114 -55t43 -146t-43 -146t-114 -55zM275 -10l-46 29l390 620l46 -29zM219 286q44 0 70.5 41.5t26.5 110.5t-26.5 110.5t-70.5 41.5t-71.5 -41.5t-27.5 -110.5t27.5 -110.5t71.5 -41.5zM676 -6q-71 0 -114.5 55
t-43.5 146t43.5 146t114.5 55t114 -55t43 -146t-43 -146t-114 -55zM1036 -6q-71 0 -114.5 55t-43.5 146t43.5 146t114.5 55t114 -55t43 -146t-43 -146t-114 -55zM676 43q43 0 70 41.5t27 110.5t-27 110.5t-70 41.5q-45 0 -72 -41.5t-27 -110.5t27 -110.5t72 -41.5zM1036 43
q43 0 70 41.5t27 110.5t-27 110.5t-70 41.5q-45 0 -72 -41.5t-27 -110.5t27 -110.5t72 -41.5z" />
    <glyph glyph-name="uni0308.case" horiz-adv-x="0" 
d="M-324 587v140h72v-140h-72zM-148 587v140h72v-140h-72z" />
    <glyph glyph-name="uni0307.case" horiz-adv-x="0" 
d="M-144 587v140h75v-140h-75z" />
    <glyph glyph-name="gravecomb.case" horiz-adv-x="0" 
d="M-176 587l-138 144h87l116 -144h-65z" />
    <glyph glyph-name="acutecomb.case" horiz-adv-x="0" 
d="M-128 587h-65l115 144h87z" />
    <glyph glyph-name="uni030B.case" horiz-adv-x="0" 
d="M-286 587h-65l116 144h87zM-145 587h-65l115 144h87z" />
    <glyph glyph-name="uni0302.case" horiz-adv-x="0" 
d="M-40 587h-64l-86 110l-87 -110h-65l116 144h71z" />
    <glyph glyph-name="uni030C.case" horiz-adv-x="0" 
d="M-104 731h64l-115 -144h-71l-116 144h65l87 -110z" />
    <glyph glyph-name="uni0306.case" horiz-adv-x="0" 
d="M-183 582q-66 0 -106.5 41t-40.5 108h58q0 -47 24.5 -75.5t64.5 -28.5t65 29t25 75h57q0 -67 -40.5 -108t-106.5 -41z" />
    <glyph glyph-name="uni030A.case" horiz-adv-x="0" 
d="M-153 581q-45 0 -72.5 26t-27.5 68t27.5 68t72.5 26t73 -26t28 -68t-28 -68t-73 -26zM-153 622q24 0 38.5 14.5t14.5 38.5t-14.5 38.5t-38.5 14.5q-23 0 -38 -14.5t-15 -38.5t15 -38.5t38 -14.5z" />
    <glyph glyph-name="tildecomb.case" horiz-adv-x="0" 
d="M-137 588q-32 0 -77.5 36t-66.5 36t-34 -17t-13 -45h-44q0 53 25.5 85.5t65.5 32.5q32 0 77.5 -36t66.5 -36t34.5 16.5t13.5 45.5h43q0 -55 -25.5 -86.5t-65.5 -31.5z" />
    <glyph glyph-name="uni0304.case" horiz-adv-x="0" 
d="M-338 618v59h284v-59h-284z" />
    </font>
</defs>
</svg>
